<?xml version="1.0" standalone="no"?>
<!DOCTYPE svg PUBLIC "-//W3C//DTD SVG 1.1//EN" "http://www.w3.org/Graphics/SVG/1.1/DTD/svg11.dtd" >
<svg xmlns="http://www.w3.org/2000/svg">
<metadata></metadata>
<defs>
<font id="themixextralight" horiz-adv-x="1239" >
<font-face units-per-em="2048" ascent="1536" descent="-512" />
<missing-glyph horiz-adv-x="446" />
<glyph unicode="&#xfb01;" horiz-adv-x="1198" d="M12 932v86h242v53q0 208 111.5 320t334.5 112q121 0 258 -37l-24 -92q-125 41 -246 41q-326 0 -326 -321v-76h631v-1018h-108v932h-523v-932h-108v932h-242z" />
<glyph unicode="&#xfb02;" horiz-adv-x="1198" d="M12 932v86h242v135q0 169 109 259.5t325 90.5q144 0 305 -24v-1479h-108v1399q-108 18 -209 18q-164 0 -239 -67t-75 -217v-115h326v-86h-326v-932h-108v932h-242z" />
<glyph unicode="&#xfb03;" horiz-adv-x="1818" d="M12 932v86h242v53q0 63 10.5 118.5t39.5 111.5t74.5 96t120.5 65t173 25q185 0 336 -74q115 90 313 90q121 0 258 -37l-25 -92q-125 41 -245 41q-326 0 -326 -321v-76h631v-1018h-109v932h-522v-932h-109v932h-512v-932h-108v932h-242zM362 1018h512v53q0 163 68 268 q-133 60 -278 60q-155 0 -228.5 -76t-73.5 -229v-76z" />
<glyph unicode="&#xfb04;" horiz-adv-x="1818" d="M12 932v86h242v53q0 63 10.5 118.5t39.5 111.5t74.5 96t120.5 65t173 25q174 0 319 -68q110 84 318 84q144 0 305 -24v-1479h-109v1399q-108 18 -209 18q-164 0 -238.5 -67t-74.5 -217v-115h326v-86h-326v-932h-109v932h-512v-932h-108v932h-242zM362 1018h512v135 q0 116 52 195q-117 51 -262 51q-155 0 -228.5 -76t-73.5 -229v-76z" />
<glyph horiz-adv-x="2048" />
<glyph horiz-adv-x="2048" />
<glyph horiz-adv-x="682" />
<glyph unicode="&#x9;" horiz-adv-x="446" />
<glyph unicode="&#xd;" horiz-adv-x="446" />
<glyph unicode=" "  horiz-adv-x="446" />
<glyph unicode="&#x09;" horiz-adv-x="446" />
<glyph unicode="&#xa0;" horiz-adv-x="446" />
<glyph unicode="!" horiz-adv-x="610" d="M217 74q0 37 25.5 62.5t62.5 25.5t62.5 -25.5t25.5 -62.5t-25.5 -62.5t-62.5 -25.5t-62.5 25.5t-25.5 62.5zM240 1430h131l-23 -1125h-86z" />
<glyph unicode="&#x22;" horiz-adv-x="671" d="M123 1495h127l-25 -422h-78zM422 1495h127l-25 -422h-78z" />
<glyph unicode="#" horiz-adv-x="1370" d="M66 420v74h333l47 450h-325v74h334l39 364h90l-39 -364h346l39 364h90l-39 -364h322v-74h-330l-47 -450h321v-74h-329l-46 -420h-90l45 420h-346l-45 -420h-90l45 420h-325zM489 494h347l47 450h-346z" />
<glyph unicode="$" horiz-adv-x="993" d="M141 946q0 131 92 220t244 104v225h88v-221q115 -3 221 -25l-6 -104q-116 37 -235 37q-156 0 -227.5 -63t-71.5 -156q0 -64 34 -112.5t88.5 -79.5t120.5 -58.5t132 -57.5t120.5 -67.5t88.5 -98t34 -139.5q0 -142 -91.5 -239.5t-256.5 -120.5v-283h-88v279q-151 0 -260 32 l6 111q49 -21 130 -35t145 -14q136 0 220.5 61t84.5 189q0 65 -34 114t-88 80t-119 57t-130.5 56t-119.5 67t-88 98.5t-34 143.5z" />
<glyph unicode="%" horiz-adv-x="1605" d="M100 1059q0 108 46.5 187t117 116t154.5 37q65 0 117.5 -16.5t94.5 -51.5t65.5 -96.5t23.5 -144.5q0 -157 -95.5 -249.5t-228.5 -92.5q-63 0 -114 16.5t-93 52t-65 97t-23 145.5zM209 1075q0 -244 194 -244q94 0 150.5 67t56.5 179q0 120 -49.5 179t-152.5 59 q-85 0 -142 -67.5t-57 -172.5zM266 12l957 1411l75 -53l-956 -1411zM854 295q0 160 93.5 250t223.5 90q65 0 117.5 -16.5t95 -51.5t66 -96.5t23.5 -144.5q0 -157 -95.5 -249.5t-228.5 -92.5q-63 0 -114 16.5t-93 52t-65 97t-23 145.5zM963 311q0 -243 194 -243 q94 0 150.5 66.5t56.5 178.5q0 238 -203 238q-85 0 -141.5 -67.5t-56.5 -172.5z" />
<glyph unicode="&#x26;" horiz-adv-x="1624" d="M131 377q0 72 21.5 136t67 122t96 105t126.5 106q-119 137 -162.5 219.5t-43.5 163.5q0 121 85.5 202.5t235.5 81.5q138 0 214.5 -71.5t76.5 -181.5q0 -106 -60.5 -203.5t-203.5 -208.5q105 -118 250.5 -258.5t279.5 -251.5v-2q150 201 156 475q-82 13 -180 20v56 q153 20 290 14q6 -182 -44 -342t-148 -283q182 -146 295 -223l-68 -88q-181 129 -301 232q-228 -215 -551 -215q-200 0 -316 109t-116 286zM242 393q0 -136 95.5 -227.5t250.5 -91.5q266 0 456 182q-143 120 -293 265.5t-251 260.5q-138 -107 -198 -198t-60 -191zM344 1233 q0 -59 41 -132.5t141 -189.5q111 89 162 165t51 165q0 82 -48.5 133t-147.5 51q-89 0 -144 -52.5t-55 -139.5z" />
<glyph unicode="'" horiz-adv-x="372" d="M123 1495h127l-25 -422h-78z" />
<glyph unicode="(" horiz-adv-x="614" d="M180 580q0 527 285 989h100q-138 -222 -209 -471.5t-71 -505.5q0 -276 68.5 -518t213.5 -469h-104q-86 139 -144.5 273.5t-87.5 258.5t-40 226.5t-11 216.5z" />
<glyph unicode=")" horiz-adv-x="614" d="M63 -395q145 227 214 469t69 518q0 256 -71 505.5t-209 471.5h100q285 -462 285 -989q0 -114 -11 -216.5t-40 -226.5t-87.5 -258.5t-144.5 -273.5h-105z" />
<glyph unicode="*" horiz-adv-x="743" d="M92 1102l213 104l-213 105l45 78l197 -129l-15 235h91l-15 -235l197 129l43 -76l-213 -105l213 -104l-45 -80l-197 131l15 -235h-91l15 235l-197 -131z" />
<glyph unicode="+" horiz-adv-x="1146" d="M61 481v92h459v480h103v-480h462v-92h-462v-481h-103v481h-459z" />
<glyph unicode="," horiz-adv-x="409" d="M49 -233q58 62 84.5 120t25.5 94t-18 60q-28 41 -7 81t65 40q56 0 78 -55q32 -81 -34 -204q-48 -90 -143 -182z" />
<glyph unicode="-" horiz-adv-x="667" d="M102 463v88h463v-88h-463z" />
<glyph unicode="." horiz-adv-x="409" d="M117 74q0 37 25.5 62.5t62.5 25.5t62.5 -25.5t25.5 -62.5t-25.5 -62.5t-62.5 -25.5t-62.5 25.5t-25.5 62.5z" />
<glyph unicode="/" horiz-adv-x="845" d="M117 0l528 1382h98l-526 -1382h-100z" />
<glyph unicode="0" horiz-adv-x="1265" d="M123 520q0 164 73 291t192 192.5t261 65.5q231 0 362.5 -139.5t131.5 -382.5q0 -127 -42.5 -233.5t-115 -178t-169.5 -111.5t-206 -40q-224 0 -355.5 139t-131.5 397zM236 535q0 -98 23 -180t69 -145.5t122 -99.5t175 -36q167 0 286 127.5t119 326.5q0 129 -41.5 229 t-131.5 161t-218 61q-172 0 -287.5 -122.5t-115.5 -321.5z" />
<glyph unicode="1" horiz-adv-x="684" d="M70 938l295 115h94v-1053h-113v946l-254 -108z" />
<glyph unicode="2" horiz-adv-x="989" d="M127 0v86l336 287q122 103 180.5 184t58.5 178q0 109 -67.5 176.5t-188.5 67.5q-72 0 -146 -24.5t-126 -57.5l-16 98q145 74 305 74q170 0 262 -88t92 -229q0 -109 -61.5 -206.5t-202.5 -215.5l-281 -234l-4 -2q129 6 602 6v-100h-743z" />
<glyph unicode="3" horiz-adv-x="950" d="M113 -399l14 102q84 -25 170 -25q192 0 295.5 96t103.5 244q0 178 -135.5 258t-374.5 58v88q144 0 249.5 32.5t168 103.5t62.5 177q0 115 -71 179.5t-192 64.5q-129 0 -251 -66l-11 99q136 57 277 57q181 0 271.5 -90.5t90.5 -228.5q0 -123 -73.5 -216.5t-196.5 -138.5 v-2q137 -19 220 -115t83 -235q0 -203 -144.5 -332t-394.5 -129q-83 0 -161 19z" />
<glyph unicode="4" horiz-adv-x="1093" d="M31 92l612 961h148v-953h274v-100h-274v-410h-109v410h-633zM139 96q145 4 543 4v842h-2z" />
<glyph unicode="5" horiz-adv-x="964" d="M145 -410l13 107q62 -16 135 -16q208 0 320 99.5t112 256.5q0 155 -115.5 256.5t-320.5 101.5h-101v658h609v-107h-504v-450q263 0 406 -123.5t143 -315.5q0 -204 -157.5 -339.5t-403.5 -135.5q-73 0 -136 8z" />
<glyph unicode="6" horiz-adv-x="1193" d="M164 571q0 222 54 393t150 275.5t222 157.5t276 53q34 0 74 -4v-96q-44 6 -92 6q-125 0 -223 -41.5t-165 -119.5t-109 -181t-62 -234q-2 -12 -7.5 -40.5t-9.5 -53.5l2 -2q51 99 149 155t230 56q195 0 307.5 -117t112.5 -311q0 -212 -130 -347.5t-341 -135.5t-324.5 157 t-113.5 430zM293 461q0 -76 20 -144t59.5 -123t104.5 -87.5t148 -32.5q148 0 238.5 104t90.5 264q0 162 -86.5 258.5t-234.5 96.5q-83 0 -149.5 -29t-107 -77t-62 -107t-21.5 -123z" />
<glyph unicode="7" horiz-adv-x="940" d="M57 946v107h815v-95q-290 -628 -469 -1368h-127q186 716 478 1360q-51 -4 -697 -4z" />
<glyph unicode="8" horiz-adv-x="1116" d="M141 322q0 70 25.5 131.5t76 113t97.5 87t117 79.5h-2q-148 87 -219.5 174t-71.5 203q0 150 111 246t294 96q173 0 274 -88.5t101 -228.5q0 -109 -70 -199t-227 -186q49 -28 81 -48t74 -50.5t69 -60.5t52.5 -67.5t37.5 -81.5t12 -94q0 -113 -60.5 -197t-157.5 -125.5 t-214 -41.5q-194 0 -297 94.5t-103 243.5zM258 336q0 -118 81 -190t220 -72q126 0 211.5 66.5t85.5 181.5q0 60 -21 110t-65.5 94t-96 79t-130.5 79h-2q-139 -83 -211 -164.5t-72 -183.5zM279 1120q0 -96 68 -169t212 -152h2q149 92 208.5 163t59.5 160q0 104 -72.5 173 t-199.5 69q-128 0 -203 -69.5t-75 -174.5z" />
<glyph unicode="9" horiz-adv-x="1193" d="M121 588q0 208 128 344.5t337 136.5q204 0 324 -147t120 -445q0 -225 -54.5 -398.5t-152 -281t-226.5 -161.5t-284 -54q-63 0 -112 8v107q62 -16 123 -16q245 0 380.5 136t190.5 402q10 50 18 127h-2q-54 -88 -152 -139t-216 -51q-197 0 -309.5 116t-112.5 316zM240 612 q0 -170 85 -263t238 -93q148 0 243 92t95 217q0 188 -87.5 301t-246.5 113q-145 0 -236 -105t-91 -262z" />
<glyph unicode=":" horiz-adv-x="491" d="M158 74q0 37 25.5 62.5t62.5 25.5t62.5 -25.5t25.5 -62.5t-25.5 -62.5t-62.5 -25.5t-62.5 25.5t-25.5 62.5zM158 692q0 37 25.5 62.5t62.5 25.5t62.5 -25.5t25.5 -62.5t-25.5 -62.5t-62.5 -25.5t-62.5 25.5t-25.5 62.5z" />
<glyph unicode=";" horiz-adv-x="491" d="M94 -233q58 62 84.5 120t25.5 94t-18 60q-28 41 -7 81t65 40q56 0 78 -55q32 -81 -34 -204q-48 -90 -143 -182zM158 692q0 37 25.5 62.5t62.5 25.5t62.5 -25.5t25.5 -62.5t-25.5 -62.5t-62.5 -25.5t-62.5 25.5t-25.5 62.5z" />
<glyph unicode="&#x3c;" horiz-adv-x="1017" d="M143 514l643 573l68 -67l-571 -504l571 -483l-68 -76z" />
<glyph unicode="=" horiz-adv-x="1228" d="M164 319v95h901v-95h-901zM164 629v94h901v-94h-901z" />
<glyph unicode="&#x3e;" horiz-adv-x="1017" d="M170 25l571 503l-571 484l68 75l643 -557l-643 -573z" />
<glyph unicode="?" horiz-adv-x="847" d="M184 1339l15 101q213 -19 356 -124.5t143 -250.5q0 -48 -14.5 -92t-38.5 -78t-54 -67.5t-61 -65t-60 -65.5t-50.5 -74t-33.5 -85.5t-7.5 -105t27.5 -127.5h-107q-30 87 -30.5 161t22.5 128.5t57 102t74.5 89.5t75 81.5t57.5 87t23 98.5q0 109 -112.5 190t-281.5 96z M272 74q0 37 25.5 62.5t62.5 25.5t63 -25.5t26 -62.5t-26 -62.5t-63 -25.5t-62.5 25.5t-25.5 62.5z" />
<glyph unicode="@" horiz-adv-x="1751" d="M180 643q0 162 61.5 306t164.5 244.5t240 159t284 58.5q154 0 277.5 -49.5t202 -134.5t120 -194.5t41.5 -233.5q0 -218 -100 -330.5t-267 -112.5q-60 0 -103.5 19.5t-63.5 50.5t-28 69.5t3 75.5h-4q-24 -80 -103.5 -147.5t-175.5 -67.5t-136 57t-40 167q0 130 45 237 t136.5 173.5t213.5 66.5q93 0 226 -19l-68 -372q-40 -222 125 -222q237 0 237 351q0 103 -33 196t-96.5 168t-170 119.5t-242.5 44.5q-132 0 -250.5 -51t-205 -139t-137 -213.5t-50.5 -268.5q0 -170 69 -306t201 -215t305 -79q149 0 279 41v-96q-128 -35 -291 -35 q-198 0 -350.5 87.5t-234 242.5t-81.5 352zM668 602q0 -151 88 -151q93 0 167.5 115t110.5 300l19 92q-54 13 -123 13q-68 0 -120.5 -36.5t-82 -93.5t-44.5 -118.5t-15 -120.5z" />
<glyph unicode="A" d="M37 0l526 1382h117l522 -1382h-129l-131 362h-653l-133 -362h-119zM322 453h587l-231 620q-37 101 -62 195h-2q-29 -101 -61 -189z" />
<glyph unicode="B" horiz-adv-x="1146" d="M205 0v1382q32 0 145 2t205 2q220 0 326 -85t106 -236q0 -117 -76 -209.5t-200 -126.5v-2q107 -14 179 -64.5t102 -116.5t30 -145q0 -32 -5 -64.5t-19.5 -73.5t-37.5 -77.5t-63 -72.5t-92 -61.5t-128.5 -41.5t-168.5 -16q-21 0 -303 6zM315 96q82 -12 207 -12 q196 0 291.5 85t95.5 226q0 65 -23.5 114t-63 80t-98.5 50.5t-123.5 27t-143.5 7.5q-105 0 -142 -2v-576zM315 762q47 -2 144 -2q201 0 308 75t107 212q0 57 -15 100t-51.5 78.5t-104.5 54t-168 18.5q-88 0 -220 -4v-532z" />
<glyph unicode="C" horiz-adv-x="1228" d="M111 664q0 125 23 233t73.5 200.5t126.5 158t187.5 102.5t250.5 37q163 0 332 -43l-12 -105q-183 58 -351 58q-108 0 -194.5 -33t-145 -90t-98 -136.5t-57 -170t-17.5 -193.5q0 -291 133 -446.5t400 -155.5q86 0 183 23t167 59l10 -99q-183 -79 -395 -79q-300 0 -458 176 t-158 504z" />
<glyph unicode="D" horiz-adv-x="1411" d="M205 0v1382q50 0 180 3.5t199 3.5q349 0 532.5 -172.5t183.5 -516.5q0 -174 -58 -310t-163 -222t-246.5 -130t-314.5 -44q-66 0 -168 4q-79 3 -123 2h-22zM315 98q116 -14 222 -14q147 0 264.5 36.5t204 109.5t133.5 191t47 273q0 303 -158 454.5t-461 151.5 q-69 0 -252 -6v-1196z" />
<glyph unicode="E" horiz-adv-x="1044" d="M205 0v1382h672v-88h-562v-536h535v-88h-535v-580h562v-90h-672z" />
<glyph unicode="F" horiz-adv-x="966" d="M205 0v1382h672v-88h-562v-536h531v-88h-531v-670h-110z" />
<glyph unicode="G" horiz-adv-x="1411" d="M102 668q0 155 50 289t141 232t227 154t301 56q182 0 371 -58l-18 -106q-187 74 -369 74q-115 0 -218 -38t-186.5 -112t-132.5 -195.5t-49 -275.5q0 -290 159.5 -451t420.5 -161q166 0 309 47v561h111v-627q-207 -73 -441 -73q-200 0 -352 79.5t-238 235.5t-86 369z" />
<glyph unicode="H" horiz-adv-x="1452" d="M205 0v1382h110v-618h822v618h110v-1382h-110v674h-822v-674h-110z" />
<glyph unicode="I" horiz-adv-x="520" d="M205 0v1382h110v-1382h-110z" />
<glyph unicode="J" horiz-adv-x="663" d="M2 4v105q83 -27 156 -27q49 0 82 11.5t58.5 40t37.5 81.5t12 133v1034h111v-1046q0 -177 -76.5 -262.5t-243.5 -85.5q-59 0 -137 16z" />
<glyph unicode="K" horiz-adv-x="1171" d="M205 0v1382h110v-675l650 675h141l-660 -669l680 -713h-161l-650 707v-707h-110z" />
<glyph unicode="L" horiz-adv-x="868" d="M205 0v1382h110v-1292h541v-90h-651z" />
<glyph unicode="M" horiz-adv-x="1837" d="M133 0l191 1382h151l350 -1026q66 -193 78 -260h4q17 76 74 242l360 1044h162l201 -1382h-119l-133 932q-30 204 -43 352h-4q-26 -96 -64 -205l-368 -1079h-142l-348 1014q-6 19 -24 70l-27 76.5t-19.5 62t-15.5 61.5h-2q-7 -117 -37 -364l-108 -920h-117z" />
<glyph unicode="N" horiz-adv-x="1466" d="M205 0v1382h151l639 -995q86 -135 170 -283q-14 474 -14 920v358h111v-1382h-152l-645 1008q-106 165 -164 276q14 -401 14 -889v-395h-110z" />
<glyph unicode="O" horiz-adv-x="1445" d="M102 678q0 171 50.5 309t137.5 227t202 137t247 48q284 0 444 -184t160 -510q0 -170 -50.5 -308t-137.5 -227.5t-202 -137.5t-246 -48q-199 0 -337 88t-203 242t-65 364zM221 705q0 -187 54.5 -326.5t169 -220t278.5 -80.5q100 0 190.5 41t160 116t110.5 190.5t41 254.5 q0 297 -133 462t-369 165q-101 0 -191.5 -41t-160 -116t-110 -190t-40.5 -255z" />
<glyph unicode="P" horiz-adv-x="1058" d="M205 0v1382q161 7 307 7q219 0 341 -105.5t122 -275.5q0 -132 -71.5 -234.5t-190.5 -156.5t-264 -54q-73 0 -134 6v-569h-110zM315 666q79 -11 146 -11q186 1 291.5 91t105.5 239q0 311 -373 311q-121 0 -170 -4v-626z" />
<glyph unicode="Q" horiz-adv-x="1443" d="M102 678q0 171 50.5 309t137.5 227t202 137t247 48q284 0 444 -184t160 -510q0 -170 -50.5 -308t-137.5 -227.5t-202 -137.5t-246 -48q-199 0 -337 88t-203 242t-65 364zM221 705q0 -187 54.5 -326.5t169 -220t278.5 -80.5q100 0 190.5 41t160 116t110.5 190.5t41 254.5 q0 297 -133 462t-369 165q-101 0 -191.5 -41t-160 -116t-110 -190t-40.5 -255zM692 -166q49 7 99 7q33 0 67 -3q82 -8 143 -24.5t135.5 -33.5t142.5 -25q29 -3 62 -3q47 0 103 6v-102q-58 -7 -113 -7q-54 0 -107 7q-107 13 -180.5 36.5t-168.5 37.5q-50 8 -98 8 q-43 0 -85 -6v102z" />
<glyph unicode="R" horiz-adv-x="1105" d="M205 0v1382q140 7 295 7q75 0 138.5 -10.5t120 -35t95.5 -62t61.5 -94.5t22.5 -130q0 -127 -66.5 -217.5t-175 -133t-247.5 -42.5q69 -75 126 -142l449 -522h-150l-552 666h-7v-666h-110zM315 756q50 -4 140 -4q173 0 270.5 78t97.5 204q0 145 -90 205.5t-270 60.5 q-77 0 -148 -6v-538z" />
<glyph unicode="S" horiz-adv-x="1032" d="M125 1030q0 161 123.5 265t335.5 104q112 0 247 -27l-6 -104q-122 39 -250 39q-163 0 -251 -71.5t-88 -193.5q0 -70 37 -122.5t95.5 -84.5t129.5 -60t142.5 -59t130 -70.5t95.5 -105t37 -153.5q0 -181 -131 -292t-354 -111q-161 0 -277 36l6 113q144 -51 281 -51 q76 0 139.5 16t114.5 49t80 91t29 135q0 56 -23 101t-61.5 75.5t-88.5 55.5t-105 47t-110 44.5t-105 52t-88.5 66.5t-61.5 92t-23 123z" />
<glyph unicode="T" horiz-adv-x="1069" d="M41 1292v90h987v-90h-438v-1292h-111v1292h-438z" />
<glyph unicode="U" horiz-adv-x="1441" d="M205 451v931h110v-917q0 -67 10 -121.5t37 -106t70.5 -86.5t115.5 -56t167 -21q211 0 312 100.5t101 333.5v874h109v-862q0 -262 -133.5 -399t-398.5 -137q-103 0 -184.5 18.5t-135 53t-90 77t-55.5 98t-27 107.5t-8 113z" />
<glyph unicode="V" horiz-adv-x="1243" d="M37 1382h129l348 -966q55 -149 100 -303h2q37 129 107 313l362 956h117l-532 -1382h-117z" />
<glyph unicode="W" horiz-adv-x="1951" d="M90 1382h119l276 -1034q42 -159 60 -252h2q28 145 57 240l299 1046h146l315 -1065q38 -132 55 -221h2q11 62 43 187l289 1099h109l-375 -1382h-141l-322 1094q-42 151 -51 194h-2q-15 -79 -49 -198l-312 -1090h-143z" />
<glyph unicode="X" horiz-adv-x="1167" d="M49 0l467 717l-438 665h129l371 -575l366 575h125l-430 -653l479 -729h-137l-406 633l-401 -633h-125z" />
<glyph unicode="Y" horiz-adv-x="1050" d="M33 1382h123l256 -532q48 -98 112 -252h2q43 108 125 272l250 512h117l-443 -876v-506h-110v506z" />
<glyph unicode="Z" horiz-adv-x="1107" d="M96 0v76l660 1011q75 116 137 201q-168 -4 -354 -4h-418v98h889v-75l-695 -1065q-59 -91 -98 -148q51 6 389 6h410v-100h-920z" />
<glyph unicode="[" horiz-adv-x="647" d="M205 -395v1964h360v-80h-260v-1802h260v-82h-360z" />
<glyph unicode="\" horiz-adv-x="829" d="M100 1382h95l528 -1382h-98z" />
<glyph unicode="]" horiz-adv-x="647" d="M82 -313h260v1802h-260v80h360v-1964h-360v82z" />
<glyph unicode="^" horiz-adv-x="1095" d="M150 758l342 624h96l356 -622l-86 -45l-321 577l-308 -577z" />
<glyph unicode="_" horiz-adv-x="1024" d="M0 -432h1024v-84h-1024v84z" />
<glyph unicode="`" horiz-adv-x="747" d="M219 1411l76 76l227 -227l-59 -60z" />
<glyph unicode="a" horiz-adv-x="1079" d="M113 221q0 157 164 255.5t468 98.5v97q0 137 -56 204.5t-191 67.5q-77 0 -163 -24t-151 -68l-12 102q167 80 348 80q95 0 161.5 -24t103.5 -69.5t53 -101.5t16 -128v-621q83 -14 178 -20v-56q-118 -15 -224 -15q-32 0 -63 1q0 152 13 231l-4 2q-38 -108 -137 -178.5 t-230 -70.5q-121 0 -197.5 61t-76.5 176zM225 246q0 -78 51 -124t136 -46q97 0 174.5 59t118 149.5t40.5 190.5v12q-123 0 -218 -15.5t-150.5 -39t-91 -57t-48 -64.5t-12.5 -65z" />
<glyph unicode="b" horiz-adv-x="1163" d="M47 1425v56q118 15 224 15q32 0 63 -1v-549q0 -101 -19 -182l4 -2q44 128 141.5 200t223.5 72q181 0 279 -121.5t98 -359.5q0 -272 -139 -417.5t-375 -145.5q-182 0 -322 35v1380q-83 14 -178 20zM334 106q89 -30 225 -30q184 0 285.5 114.5t101.5 354.5q0 191 -68 296 t-206 105q-66 0 -123.5 -29.5t-96 -77t-66 -108t-40 -121.5t-12.5 -118v-386z" />
<glyph unicode="c" horiz-adv-x="913" d="M98 473q0 260 126.5 408.5t363.5 148.5q130 0 252 -37l-13 -96q-122 49 -254 49q-175 0 -267.5 -120.5t-92.5 -325.5q0 -72 9 -130.5t32 -113.5t60.5 -92t98 -59.5t140.5 -22.5q161 0 281 63l10 -96q-144 -59 -314 -59q-432 0 -432 483z" />
<glyph unicode="d" horiz-adv-x="1159" d="M98 465q0 272 139 417.5t375 145.5q93 0 213 -12v389q-83 14 -178 20v56q118 15 224 15q32 0 63 -1v-1405q83 -14 178 -20v-56q-118 -15 -228 -15q-33 0 -65 1q0 145 21 244l-4 2q-43 -120 -140 -191t-221 -71q-187 0 -282 126t-95 355zM213 473q0 -191 68 -296t206 -105 q66 0 123.5 29.5t96 77t66 108t40 121.5t12.5 118v389q-117 27 -225 27q-184 0 -285.5 -114.5t-101.5 -354.5z" />
<glyph unicode="e" horiz-adv-x="1026" d="M98 506q0 232 117 380t317 148q99 0 175 -32.5t121 -89.5t67.5 -128t22.5 -153q0 -19 -3 -60h-700q-1 -26 -1 -50q0 -219 82 -325q91 -118 279 -118q79 0 159 18t136 47l11 -100q-140 -59 -324 -59q-459 0 -459 522zM225 659h574v10q1 122 -71 200q-74 81 -204 81 q-117 0 -197 -79t-102 -212z" />
<glyph unicode="f" horiz-adv-x="706" d="M12 932v86h242v67q0 210 99 314t276 104q85 0 168 -18l-13 -94q-83 24 -172 24q-130 0 -190 -79t-60 -246v-72h326v-86h-326v-932h-108v932h-242z" />
<glyph unicode="g" horiz-adv-x="1138" d="M98 465q0 273 139.5 419t380.5 146q154 0 316 -26v-1127q0 -52 -10.5 -101t-43 -107t-84.5 -100.5t-145 -71.5t-215 -29q-153 0 -282 34l8 119q140 -53 291 -53q185 0 278.5 83t93.5 281v107q0 134 15 205l-4 2q-43 -120 -140 -191t-221 -71q-181 0 -279 121.5t-98 359.5 zM213 473q0 -191 68 -296t206 -105q66 0 123.5 29.5t96 77t66 108t40 121.5t12.5 118v392q-113 26 -225 26q-184 0 -285.5 -115.5t-101.5 -355.5z" />
<glyph unicode="h" horiz-adv-x="1208" d="M47 1425v56q118 15 224 15q32 0 63 -1v-524q0 -132 -17 -201l5 -2q45 125 142.5 196.5t231.5 71.5q308 0 308 -327v-709h-109v664q0 143 -48.5 213.5t-170.5 70.5q-152 0 -247 -129.5t-95 -331.5v-487h-109v1405q-83 14 -178 20z" />
<glyph unicode="i" horiz-adv-x="559" d="M68 948v56q118 15 224 15q32 0 62 -1v-1018h-108v928q-83 14 -178 20zM219 1305q0 34 24 57.5t58 23.5t58 -23t24 -58q0 -34 -24 -58t-58 -24t-58 23.5t-24 58.5z" />
<glyph unicode="j" horiz-adv-x="567" d="M-82 -514l14 100q67 -24 136 -24q112 0 149 57t37 227v1082q-83 14 -178 20v56q118 15 224 15q31 0 62 -1v-1168q0 -207 -67 -294.5t-242 -87.5q-77 0 -135 18zM227 1305q0 34 24 57.5t58 23.5t58 -23t24 -58q0 -34 -24 -58t-58 -24t-58 23.5t-24 58.5z" />
<glyph unicode="k" horiz-adv-x="972" d="M47 1425v56q118 15 224 15q32 0 63 -1v-946l418 469h131l-424 -463l459 -555h-148l-436 547v-547h-109v1405q-83 14 -178 20z" />
<glyph unicode="l" horiz-adv-x="538" d="M47 1425v56q118 15 224 15q32 0 63 -1v-1495h-109v1405q-83 14 -178 20z" />
<glyph unicode="m" horiz-adv-x="1865" d="M68 948v56q118 15 226 15q32 0 64 -1q0 -145 -18 -244l4 -2q43 121 141.5 192.5t227.5 71.5q72 0 126.5 -20.5t84 -50.5t47.5 -67.5t22.5 -67t3.5 -54.5q15 41 42 82t70 83t109 68.5t144 26.5q299 0 299 -327v-709h-109v664q0 69 -9.5 118t-32 88t-64.5 58.5t-103 19.5 q-137 0 -236 -127t-99 -338v-483h-109v666q0 64 -8 110t-29.5 87.5t-64.5 63t-107 21.5q-143 0 -239.5 -131t-96.5 -334v-483h-108v928q-83 14 -178 20z" />
<glyph unicode="n" horiz-adv-x="1228" d="M68 948v56q118 15 226 15q32 0 64 -1q0 -145 -18 -244l4 -2q44 122 141.5 193t231.5 71q307 0 307 -327v-709h-109v664q0 143 -48.5 213.5t-170.5 70.5q-152 0 -247 -129.5t-95 -331.5v-487h-108v928q-83 14 -178 20z" />
<glyph unicode="o" horiz-adv-x="1101" d="M94 508q0 143 53 261t162 191.5t256 73.5q71 0 133.5 -16t119.5 -53.5t97.5 -95t64.5 -145.5t24 -200q0 -149 -55 -270.5t-164.5 -195.5t-254.5 -74q-205 0 -320.5 132.5t-115.5 391.5zM207 516q0 -211 91 -326.5t255 -115.5q67 0 126.5 26t107.5 78t76 139.5t28 200.5 q0 202 -87.5 315t-252.5 113q-68 0 -128.5 -26t-109.5 -77t-77.5 -135.5t-28.5 -191.5z" />
<glyph unicode="p" horiz-adv-x="1183" d="M68 948v56q118 15 226 15q33 0 64 -1q0 -163 -18 -244l4 -2q43 120 140 191t221 71q181 0 278.5 -121.5t97.5 -359.5q0 -272 -139 -417.5t-375 -145.5q-122 0 -213 14v-520h-108v1444q-83 14 -178 20zM354 106q89 -30 226 -30q184 0 285.5 114.5t101.5 354.5 q0 191 -68.5 296t-206.5 105q-66 0 -123.5 -29.5t-96 -77t-66 -108t-40 -121.5t-12.5 -118v-386z" />
<glyph unicode="q" horiz-adv-x="1142" d="M102 465q0 273 140 419t381 146q153 0 315 -26v-1430q83 -14 178 -20v-56q-118 -15 -224 -15q-32 0 -63 1v594q0 95 15 166l-4 2q-43 -120 -140 -191t-221 -71q-181 0 -279 121.5t-98 359.5zM217 473q0 -191 68.5 -296t206.5 -105q66 0 122.5 29.5t95 77t66.5 108 t40.5 121.5t12.5 118v392q-113 26 -225 26q-184 0 -285.5 -115.5t-101.5 -355.5z" />
<glyph unicode="r" horiz-adv-x="765" d="M68 948v56q118 15 226 15q32 0 64 -1q0 -141 -26 -277l4 -2q12 50 31 94t51 85.5t72.5 69.5t97.5 41q35 8 74 8q24 0 49 -3l-4 -106q-29 4 -56 4q-135 0 -209 -113q-88 -136 -88 -416v-403h-108v928q-83 14 -178 20z" />
<glyph unicode="s" horiz-adv-x="886" d="M121 748q0 128 101.5 207t281.5 79q92 0 205 -24l-4 -101q-113 37 -220 37q-124 0 -189 -49t-65 -135q0 -56 29.5 -94.5t76 -58.5t103 -35t113.5 -33.5t103.5 -45t76 -76.5t29.5 -122q0 -133 -111.5 -223t-300.5 -90q-130 0 -217 20l4 111q115 -35 230 -35 q127 0 205.5 54t78.5 145q0 48 -23 83t-60 53t-84.5 34.5t-97.5 27.5t-97.5 32t-84.5 48t-60 76t-23 115z" />
<glyph unicode="t" horiz-adv-x="753" d="M0 932v86h242v348l108 31v-379h322v-86h-322v-592q0 -153 34 -204.5t134 -51.5q79 0 154 20v-100q-92 -18 -180 -18q-142 0 -196 68.5t-54 224.5v653h-242z" />
<glyph unicode="u" horiz-adv-x="1241" d="M59 948v56q118 15 224 15q32 0 63 -1v-664q0 -143 48.5 -213.5t170.5 -70.5q152 0 247 129t95 331v488h109v-928q83 -14 178 -20v-56q-118 -15 -227 -15q-33 0 -64 1q0 140 19 244l-4 2q-44 -122 -141.5 -193t-231.5 -71q-307 0 -307 327v619q-82 13 -179 20z" />
<glyph unicode="v" horiz-adv-x="954" d="M27 1018h127l268 -750q41 -122 53 -162h2q16 53 53 156l277 756h121l-398 -1018h-114z" />
<glyph unicode="w" horiz-adv-x="1617" d="M45 1018h125l201 -696q9 -32 23.5 -82t25 -86t16.5 -60h2q23 90 68 230l223 694h141l228 -694q53 -164 71 -232h2q10 38 34 113.5t36 116.5l211 696h121l-338 -1018h-133l-256 743q-30 87 -55 181h-3q-31 -115 -75 -256l-211 -668h-140z" />
<glyph unicode="x" horiz-adv-x="1042" d="M61 0l398 508l-379 510h141l303 -428l312 428h129l-383 -502l399 -516h-150l-315 438l-315 -438h-140z" />
<glyph unicode="y" horiz-adv-x="937" d="M-59 -522l14 104q59 -18 123 -18q103 0 162.5 62.5t130.5 242.5l51 131l-395 1018h129l243 -664q35 -95 78 -227h2q14 48 105 305l207 586h120l-428 -1131q-46 -123 -84.5 -197.5t-87 -127.5t-107 -73.5t-141.5 -20.5q-57 0 -122 10z" />
<glyph unicode="z" horiz-adv-x="909" d="M102 0v76l566 850q-152 -4 -320 -4h-235v96h673v-74l-561 -848q136 4 322 4h250v-100h-695z" />
<glyph unicode="{" horiz-adv-x="657" d="M63 608v94q136 7 182 53.5t46 168.5v301q0 55 7 102t26 93t48.5 78t77 51.5t109.5 19.5h31v-80q-111 0 -155 -57.5t-44 -198.5v-299q0 -239 -192 -277v-2q96 -14 144 -88.5t48 -189.5v-436q0 -141 43.5 -197.5t155.5 -56.5v-82h-31q-145 0 -206.5 86.5t-61.5 257.5v438 q0 116 -48.5 165t-179.5 56z" />
<glyph unicode="|" horiz-adv-x="577" d="M246 -512v2048h86v-2048h-86z" />
<glyph unicode="}" horiz-adv-x="647" d="M84 -313q112 0 155.5 56.5t43.5 197.5v436q0 115 48 189.5t144 88.5v2q-98 13 -145 85t-47 182v309q0 141 -44 198.5t-155 57.5v80h31q62 0 109.5 -19.5t77 -51.5t48.5 -78t26 -93t7 -102v-291q0 -129 45.5 -177t181.5 -55v-94q-131 -7 -179 -56t-48 -165v-438 q0 -171 -61.5 -257.5t-206.5 -86.5h-31v82z" />
<glyph unicode="~" horiz-adv-x="1200" d="M123 569q123 105 250 105q59 0 111 -15t90.5 -36t76 -42t84.5 -36t99 -15q44 0 99 29t101 70l43 -74q-134 -117 -260 -117q-73 0 -139 23t-107.5 50t-97 50t-108.5 23q-95 0 -203 -90z" />
<glyph unicode="&#xa1;" horiz-adv-x="610" d="M217 948q0 37 25.5 62.5t62.5 25.5t62.5 -25.5t25.5 -62.5t-25.5 -62.5t-62.5 -25.5t-62.5 25.5t-25.5 62.5zM240 -408l22 1125h86l23 -1125h-131z" />
<glyph unicode="&#xa2;" horiz-adv-x="935" d="M94 569q0 200 112.5 333t303.5 155v186h92v-182q129 -3 244 -49l-8 -101q-117 60 -260 60q-172 0 -271.5 -106t-99.5 -292q0 -83 18.5 -150.5t59.5 -124.5t114.5 -88.5t175.5 -31.5q70 0 143 19.5t126 52.5l8 -98q-111 -55 -250 -66v-225h-92v225q-198 14 -307 137 t-109 346z" />
<glyph unicode="&#xa3;" horiz-adv-x="1024" d="M127 0v78q140 112 203 215t63 233q0 24 -14 189h-252v84h242q-25 235 -25 286q0 193 86 278t256 85q79 0 154 -16l-6 -93q-88 21 -162 21q-110 0 -165.5 -67.5t-55.5 -184.5q0 -42 26 -309h328v-84h-320q13 -114 13 -176q0 -144 -54.5 -244t-181.5 -207q108 10 180 10 h443v-98h-758z" />
<glyph unicode="&#xa4;" horiz-adv-x="1122" d="M137 41l158 192q-92 98 -92 281q0 165 102 262l-168 205l72 57l158 -215q75 47 186 47q118 0 195 -47l163 215l68 -57l-172 -213q76 -86 76 -250q0 -152 -88 -250l184 -225l-72 -59l-172 231q-86 -63 -207 -63q-99 0 -166 34l-151 -202zM307 516q0 -125 57 -201.5 t185 -76.5q95 0 162 79t67 203q0 119 -58 191.5t-185 72.5q-99 0 -163.5 -74t-64.5 -194z" />
<glyph unicode="&#xa5;" horiz-adv-x="1191" d="M109 1382h122l256 -532q52 -107 111 -260h2q50 131 125 280l252 512h117l-416 -823h330v-84h-357v-166h357v-84h-357v-225h-110v225h-357v84h357v166h-357v84h330z" />
<glyph unicode="&#xa6;" horiz-adv-x="577" d="M246 262h86v-774h-86v774zM246 782v754h86v-754h-86z" />
<glyph unicode="&#xa7;" horiz-adv-x="978" d="M170 764q0 82 35.5 153t93.5 117q-22 35 -38.5 87.5t-16.5 92.5q0 132 78.5 217t224.5 85q69 0 131 -15l-12 -94q-64 18 -129 18q-91 0 -137 -52t-46 -148q0 -55 33 -121t82 -127t106.5 -133t106.5 -137.5t82 -143t33 -147.5q0 -76 -34 -146.5t-91 -117.5 q25 -40 43 -93.5t18 -101.5q0 -57 -19.5 -109.5t-57 -96.5t-100 -70.5t-140.5 -26.5q-68 0 -142 16l13 105q73 -25 143 -25q96 0 143.5 54.5t47.5 146.5q0 66 -46.5 147t-113 159.5t-132.5 160t-112.5 173t-46.5 173.5zM279 774q0 -30 7.5 -61.5t27.5 -69t37.5 -67t55 -78 t61 -78.5t74.5 -92.5t79 -96.5q29 23 49 73.5t20 101.5q0 60 -34.5 130t-78 125t-114.5 142.5t-113 148.5q-71 -55 -71 -178z" />
<glyph unicode="&#xa8;" horiz-adv-x="1118" d="M276 1352q0 34 23 57t57 23t57 -23t23 -57t-23 -57t-57 -23t-57 23t-23 57zM649 1352q0 34 23 57t57 23t57 -23t23 -57t-23 -57t-57 -23t-57 23t-23 57z" />
<glyph unicode="&#xa9;" horiz-adv-x="1536" d="M88 686q0 137 53.5 262t143.5 215t215.5 143.5t263.5 53.5t263 -52.5t215 -141.5t143 -213.5t53 -262.5q0 -137 -53.5 -262t-143.5 -215t-215 -143.5t-262 -53.5q-190 0 -345.5 89t-243 242.5t-87.5 338.5zM184 690q0 -159 77 -294t211 -214.5t292 -79.5t291.5 78 t210.5 212.5t77 293.5q0 157 -77 292t-210.5 214.5t-291.5 79.5q-159 0 -292 -77.5t-210.5 -211.5t-77.5 -293zM446 676q0 76 19 141t59 119.5t111 85.5t166 31q69 0 155 -23l-6 -90q-81 33 -164 33q-85 0 -139.5 -40.5t-75 -102.5t-20.5 -146q0 -274 227 -274q96 0 178 30 l7 -84q-88 -30 -197 -30q-170 0 -245 95t-75 255z" />
<glyph unicode="&#xaa;" horiz-adv-x="786" d="M117 883q0 103 101.5 169t293.5 66v43q0 150 -145 150q-111 0 -207 -54l-6 97q93 41 227 41q123 0 177 -61t54 -156q0 -61 -1 -181.5t-1 -177.5q57 -9 117 -12v-57q-127 -17 -221 -11q0 59 12 117l-4 2q-18 -50 -78.5 -90.5t-128.5 -40.5q-95 0 -142.5 42t-47.5 114z M221 901q0 -40 27 -64t74 -24q40 0 73 16.5t54 41t36 54.5t21 55.5t6 45.5v16q-291 0 -291 -141z" />
<glyph unicode="&#xab;" horiz-adv-x="993" d="M135 500l246 344l76 -60l-209 -282l205 -279l-78 -61zM479 500l262 344l76 -60l-225 -282l221 -279l-78 -61z" />
<glyph unicode="&#xac;" horiz-adv-x="1024" d="M82 494v92h840v-428h-93v336h-747z" />
<glyph unicode="&#xad;" horiz-adv-x="667" d="M102 463v88h463v-88h-463z" />
<glyph unicode="&#xae;" horiz-adv-x="1148" d="M150 1085q0 175 124 299.5t299 124.5q180 0 302 -122t122 -302q0 -112 -58 -210t-155.5 -155.5t-210.5 -57.5q-181 0 -302 122t-121 301zM238 1090q0 -141 98.5 -244t236.5 -103q139 0 237.5 99t98.5 239t-98.5 243t-237.5 103t-237 -98.5t-98 -238.5zM438 850v477h135 q158 0 158 -119q0 -60 -34.5 -96.5t-94.5 -42.5q19 -23 47 -68l105 -151h-97l-139 215h-4v-215h-76zM514 1114h35q55 0 79.5 25t24.5 59q0 36 -19.5 52t-64.5 16h-55v-152z" />
<glyph unicode="&#xaf;" horiz-adv-x="870" d="M205 1296v86h461v-86h-461z" />
<glyph unicode="&#xb0;" horiz-adv-x="745" d="M131 1262q0 108 72.5 173.5t171.5 65.5q113 0 175 -67t62 -168q0 -102 -74.5 -169t-172.5 -67q-107 0 -170.5 63.5t-63.5 168.5zM227 1266q0 -73 39 -115.5t103 -42.5q63 0 105 44t42 112q0 64 -34 111.5t-113 47.5q-60 0 -101 -44t-41 -113z" />
<glyph unicode="&#xb1;" horiz-adv-x="1146" d="M92 573v93h430v436h103v-436h430v-93h-430v-438h-103v438h-430zM100 0h947v-92h-947v92z" />
<glyph unicode="&#xb2;" horiz-adv-x="669" d="M68 553v78l233 231q82 82 116 146.5t34 128.5q0 79 -43 124.5t-127 45.5q-98 0 -183 -56l-18 86q103 56 219 56q122 0 189 -66.5t67 -173.5q0 -86 -41.5 -166t-132.5 -168l-176 -172q102 4 393 4v-98h-530z" />
<glyph unicode="&#xb3;" horiz-adv-x="618" d="M82 553l14 96q74 -24 144 -24q81 0 133.5 46t52.5 124q0 81 -76 120.5t-231 20.5v86q145 0 220 37t75 125q0 58 -38 90.5t-104 32.5q-78 0 -161 -39l-15 90q95 35 195 35q104 0 166.5 -51.5t62.5 -147.5q0 -153 -155 -201q78 -7 125 -63t47 -127q0 -119 -88.5 -192.5 t-223.5 -73.5q-61 0 -143 16z" />
<glyph unicode="&#xb4;" horiz-adv-x="786" d="M219 1260l227 227l76 -76l-243 -211z" />
<glyph unicode="&#xb6;" horiz-adv-x="1142" d="M158 967q0 115 52 209t150 150t224 56v-841q-206 -1 -316 120t-110 306zM578 -117h155v1499h266v-79h-155v-1500h-266v80z" />
<glyph unicode="&#xb7;" horiz-adv-x="409" d="M111 592q0 40 27 67t67 27t67 -27t27 -67t-27 -67t-67 -27t-67 27t-27 67z" />
<glyph unicode="&#xb8;" horiz-adv-x="819" d="M369 -430q183 142 90 326h114q24 -61 25.5 -119.5t-44.5 -125.5t-140 -132z" />
<glyph unicode="&#xb9;" horiz-adv-x="499" d="M12 1296l238 86h86v-829h-109v725l-194 -78z" />
<glyph unicode="&#xba;" horiz-adv-x="845" d="M117 1055q0 150 85 246t222 96q41 0 78 -7t77.5 -28.5t70 -55t48.5 -91.5t19 -134q0 -159 -87 -255.5t-229 -96.5q-284 0 -284 326zM225 1071q0 -49 8.5 -90.5t28.5 -80t58 -61t92 -22.5q89 0 142.5 65t53.5 185q0 47 -9.5 88t-30.5 77.5t-59 57.5t-89 21 q-79 0 -137 -61.5t-58 -178.5z" />
<glyph unicode="&#xbb;" horiz-adv-x="993" d="M176 221l225 283l-221 278l78 62l256 -338l-262 -344zM537 221l208 283l-204 278l77 62l240 -338l-246 -344z" />
<glyph unicode="&#xbc;" horiz-adv-x="1880" d="M80 1296l237 86h86v-829h-108v725l-195 -78zM315 -217l904 1730h106l-901 -1730h-109zM1090 266l364 563h143v-542h146v-90h-146v-197h-102v197h-397zM1200 283q80 4 295 4v450z" />
<glyph unicode="&#xbd;" horiz-adv-x="1861" d="M80 1296l237 86h86v-829h-108v725l-195 -78zM315 -217l904 1730h106l-901 -1730h-109zM1198 0v76l229 233q82 82 116 146.5t34 128.5q0 79 -43 124.5t-127 45.5q-97 0 -182 -56l-19 86q103 56 224 56q118 0 184.5 -67t66.5 -173q0 -85 -42 -165t-134 -169l-178 -172 q104 4 397 4v-98h-526z" />
<glyph unicode="&#xbe;" horiz-adv-x="1910" d="M82 553l14 96q74 -24 144 -24q81 0 133.5 46t52.5 124q0 81 -76 120.5t-231 20.5v86q145 0 220 37t75 125q0 58 -38 90.5t-104 32.5q-78 0 -161 -39l-15 90q95 35 195 35q104 0 166.5 -51.5t62.5 -147.5q0 -153 -155 -201q78 -7 125 -63t47 -127q0 -119 -88.5 -192.5 t-223.5 -73.5q-61 0 -143 16zM385 -217l903 1730h107l-901 -1730h-109zM1217 266l364 563h143v-542h146v-90h-146v-197h-102v197h-397zM1327 283q80 4 295 4v450z" />
<glyph unicode="&#xbf;" horiz-adv-x="847" d="M147 -43q0 48 14.5 92t38.5 78t54.5 67.5t61.5 65t60 65.5t50.5 74t33.5 85.5t7.5 105t-27.5 127.5h107q30 -87 30.5 -161t-22.5 -128.5t-57 -102t-74.5 -89.5t-75 -81.5t-57.5 -87t-23 -98.5q0 -109 112.5 -190t281.5 -96l-15 -101q-213 19 -356.5 124.5t-143.5 250.5z M397 948q0 37 25.5 62.5t62.5 25.5t62.5 -25.5t25.5 -62.5t-25.5 -62.5t-62.5 -25.5t-62.5 25.5t-25.5 62.5z" />
<glyph unicode="&#xc0;" d="M37 0l526 1382h117l522 -1382h-129l-131 362h-653l-133 -362h-119zM322 453h587l-231 620q-37 101 -62 195h-2q-29 -101 -61 -189zM406 1718l75 76l228 -227l-60 -60z" />
<glyph unicode="&#xc1;" d="M37 0l526 1382h117l522 -1382h-129l-131 362h-653l-133 -362h-119zM322 453h587l-231 620q-37 101 -62 195h-2q-29 -101 -61 -189zM512 1567l227 227l76 -76l-244 -211z" />
<glyph unicode="&#xc2;" d="M37 0l526 1382h117l522 -1382h-129l-131 362h-653l-133 -362h-119zM322 453h587l-231 620q-37 101 -62 195h-2q-29 -101 -61 -189zM371 1575l254 201l264 -195l-66 -65l-202 147l-191 -147z" />
<glyph unicode="&#xc3;" d="M37 0l526 1382h117l522 -1382h-129l-131 362h-653l-133 -362h-119zM309 1663q33 35 82.5 56.5t102.5 21.5q55 0 104.5 -23.5t94 -47t85.5 -23.5q73 0 140 67l34 -76q-73 -77 -180 -77q-46 0 -88.5 14.5t-69 32.5t-62.5 32.5t-71 14.5q-72 0 -137 -68zM322 453h587 l-231 620q-37 101 -62 195h-2q-29 -101 -61 -189z" />
<glyph unicode="&#xc4;" d="M37 0l526 1382h117l522 -1382h-129l-131 362h-653l-133 -362h-119zM322 453h587l-231 620q-37 101 -62 195h-2q-29 -101 -61 -189zM354 1618q0 34 23 57t57 23t57 -23t23 -57t-23 -57t-57 -23t-57 23t-23 57zM727 1618q0 34 23 57t57 23t57 -23t23 -57t-23 -57t-57 -23 t-57 23t-23 57z" />
<glyph unicode="&#xc5;" d="M37 0l526 1382h117l522 -1382h-129l-131 362h-653l-133 -362h-119zM322 453h587l-231 620q-37 101 -62 195h-2q-29 -101 -61 -189zM420 1573q0 84 60.5 142.5t144.5 58.5q87 0 145.5 -58t58.5 -143q0 -80 -60 -140.5t-144 -60.5q-87 0 -146 57t-59 144zM506 1573 q0 -51 34 -87t85 -36t84.5 35.5t33.5 87.5t-33.5 87.5t-84.5 35.5t-85 -36t-34 -87z" />
<glyph unicode="&#xc6;" horiz-adv-x="1589" d="M-96 0l782 1382h711v-88h-547v-536h526v-88h-526v-580h571v-90h-682v362h-514l-200 -362h-121zM274 453h465v835h-6q-82 -161 -143 -270z" />
<glyph unicode="&#xc7;" horiz-adv-x="1228" d="M111 664q0 125 23 233t73.5 200.5t126.5 158t187.5 102.5t250.5 37q163 0 332 -43l-12 -105q-183 58 -351 58q-108 0 -194.5 -33t-145 -90t-98 -136.5t-57 -170t-17.5 -193.5q0 -291 133 -446.5t400 -155.5q86 0 183 23t167 59l10 -99q-183 -79 -395 -79q-300 0 -458 176 t-158 504zM557 -430q183 142 90 326h115q20 -47 24 -90t-10.5 -91t-58 -97.5t-115.5 -98.5z" />
<glyph unicode="&#xc8;" horiz-adv-x="1044" d="M205 0v1382h672v-88h-562v-536h535v-88h-535v-580h562v-90h-672zM332 1718l76 76l227 -227l-60 -60z" />
<glyph unicode="&#xc9;" horiz-adv-x="1044" d="M205 0v1382h672v-88h-562v-536h535v-88h-535v-580h562v-90h-672zM438 1567l228 227l75 -76l-243 -211z" />
<glyph unicode="&#xca;" horiz-adv-x="1044" d="M205 0v1382h672v-88h-562v-536h535v-88h-535v-580h562v-90h-672zM274 1575l254 201l265 -195l-66 -65l-203 147l-190 -147z" />
<glyph unicode="&#xcb;" horiz-adv-x="1044" d="M205 0v1382h672v-88h-562v-536h535v-88h-535v-580h562v-90h-672zM260 1618q0 34 23 57t57 23t57 -23t23 -57t-23 -57t-57 -23t-57 23t-23 57zM633 1618q0 34 23 57t57 23t57 -23t23 -57t-23 -57t-57 -23t-57 23t-23 57z" />
<glyph unicode="&#xcc;" horiz-adv-x="520" d="M57 1718l76 76l227 -227l-59 -60zM205 0v1382h110v-1382h-110z" />
<glyph unicode="&#xcd;" horiz-adv-x="520" d="M152 1567l227 227l76 -76l-244 -211zM205 0v1382h110v-1382h-110z" />
<glyph unicode="&#xce;" horiz-adv-x="520" d="M8 1575l254 201l264 -195l-65 -65l-203 147l-190 -147zM205 0v1382h110v-1382h-110z" />
<glyph unicode="&#xcf;" horiz-adv-x="520" d="M-8 1618q0 34 23 57t57 23t57 -23t23 -57t-23 -57t-57 -23t-57 23t-23 57zM205 0v1382h110v-1382h-110zM365 1618q0 34 22.5 57t56.5 23t57 -23t23 -57t-23 -57t-57 -23t-56.5 23t-22.5 57z" />
<glyph unicode="&#xd0;" horiz-adv-x="1433" d="M0 674v86h227v622q50 0 180 3.5t199 3.5q349 0 533 -173t184 -518q0 -174 -58 -309.5t-163 -221t-246.5 -129.5t-314.5 -44q-66 0 -168 3.5t-146 2.5v674h-227zM338 94q13 -2 96.5 -6t124.5 -4q147 0 264.5 36t204 109t133.5 190.5t47 272.5q0 303 -158 455.5t-460 152.5 q-69 0 -252 -6v-534h328v-86h-328v-580z" />
<glyph unicode="&#xd1;" horiz-adv-x="1466" d="M205 0v1382h151l639 -995q86 -135 170 -283q-14 474 -14 920v358h111v-1382h-152l-645 1008q-106 165 -164 276q14 -401 14 -889v-395h-110zM406 1663q33 35 82.5 56.5t101.5 21.5q55 0 104.5 -23.5t94 -47t85.5 -23.5q73 0 140 67l35 -76q-32 -33 -79.5 -55t-101.5 -22 q-58 0 -108 23.5t-94.5 47t-87.5 23.5q-73 0 -138 -68z" />
<glyph unicode="&#xd2;" horiz-adv-x="1445" d="M102 678q0 171 50.5 309t137.5 227t202 137t247 48q284 0 444 -184t160 -510q0 -170 -50.5 -308t-137.5 -227.5t-202 -137.5t-246 -48q-199 0 -337 88t-203 242t-65 364zM221 705q0 -187 54.5 -326.5t169 -220t278.5 -80.5q100 0 190.5 41t160 116t110.5 190.5t41 254.5 q0 297 -133 462t-369 165q-101 0 -191.5 -41t-160 -116t-110 -190t-40.5 -255zM510 1718l76 76l227 -227l-59 -60z" />
<glyph unicode="&#xd3;" horiz-adv-x="1445" d="M102 678q0 171 50.5 309t137.5 227t202 137t247 48q284 0 444 -184t160 -510q0 -170 -50.5 -308t-137.5 -227.5t-202 -137.5t-246 -48q-199 0 -337 88t-203 242t-65 364zM221 705q0 -187 54.5 -326.5t169 -220t278.5 -80.5q100 0 190.5 41t160 116t110.5 190.5t41 254.5 q0 297 -133 462t-369 165q-101 0 -191.5 -41t-160 -116t-110 -190t-40.5 -255zM647 1567l227 227l76 -76l-243 -211z" />
<glyph unicode="&#xd4;" horiz-adv-x="1445" d="M102 678q0 171 50.5 309t137.5 227t202 137t247 48q284 0 444 -184t160 -510q0 -170 -50.5 -308t-137.5 -227.5t-202 -137.5t-246 -48q-199 0 -337 88t-203 242t-65 364zM221 705q0 -187 54.5 -326.5t169 -220t278.5 -80.5q100 0 190.5 41t160 116t110.5 190.5t41 254.5 q0 297 -133 462t-369 165q-101 0 -191.5 -41t-160 -116t-110 -190t-40.5 -255zM475 1575l254 201l264 -195l-65 -65l-203 147l-190 -147z" />
<glyph unicode="&#xd5;" horiz-adv-x="1445" d="M102 678q0 171 50.5 309t137.5 227t202 137t247 48q284 0 444 -184t160 -510q0 -170 -50.5 -308t-137.5 -227.5t-202 -137.5t-246 -48q-199 0 -337 88t-203 242t-65 364zM221 705q0 -187 54.5 -326.5t169 -220t278.5 -80.5q100 0 190.5 41t160 116t110.5 190.5t41 254.5 q0 297 -133 462t-369 165q-101 0 -191.5 -41t-160 -116t-110 -190t-40.5 -255zM401 1663q33 35 82.5 56.5t102.5 21.5q55 0 104.5 -23.5t94 -47t85.5 -23.5q73 0 140 67l34 -76q-73 -77 -180 -77q-46 0 -88.5 14.5t-69 32.5t-62.5 32.5t-71 14.5q-72 0 -137 -68z" />
<glyph unicode="&#xd6;" horiz-adv-x="1445" d="M102 678q0 171 50.5 309t137.5 227t202 137t247 48q284 0 444 -184t160 -510q0 -170 -50.5 -308t-137.5 -227.5t-202 -137.5t-246 -48q-199 0 -337 88t-203 242t-65 364zM221 705q0 -187 54.5 -326.5t169 -220t278.5 -80.5q100 0 190.5 41t160 116t110.5 190.5t41 254.5 q0 297 -133 462t-369 165q-101 0 -191.5 -41t-160 -116t-110 -190t-40.5 -255zM446 1618q0 34 23 57t57 23t57 -23t23 -57t-23 -57t-57 -23t-57 23t-23 57zM819 1618q0 34 23 57t57 23t57 -23t23 -57t-23 -57t-57 -23t-57 23t-23 57z" />
<glyph unicode="&#xd7;" horiz-adv-x="1146" d="M139 879l66 67l370 -371l371 369l62 -61l-371 -369l371 -371l-66 -67l-371 370l-366 -366l-62 61l367 367z" />
<glyph unicode="&#xd8;" horiz-adv-x="1445" d="M98 682q0 169 50 306.5t137 226.5t202 136.5t246 47.5q86 0 182 -21l76 203l88 -33l-75 -200q162 -69 248.5 -236t86.5 -416q0 -170 -49 -306.5t-136 -224.5t-204 -134.5t-256 -46.5q-106 0 -192 24l-82 -217l-88 33l82 217q-160 77 -238 244.5t-78 396.5zM217 698 q0 -415 234 -557l430 1143q-80 23 -162 23q-101 0 -191.5 -40.5t-160 -116t-110 -192.5t-40.5 -260zM537 102q73 -24 170 -24q112 0 206 40t162.5 115t107 188.5t38.5 254.5q0 206 -65 354.5t-191 216.5z" />
<glyph unicode="&#xd9;" horiz-adv-x="1441" d="M205 451v931h110v-917q0 -67 10 -121.5t37 -106t70.5 -86.5t115.5 -56t167 -21q211 0 312 100.5t101 333.5v874h109v-862q0 -262 -133.5 -399t-398.5 -137q-103 0 -184.5 18.5t-135 53t-90 77t-55.5 98t-27 107.5t-8 113zM524 1718l76 76l227 -227l-59 -60z" />
<glyph unicode="&#xda;" horiz-adv-x="1441" d="M205 451v931h110v-917q0 -67 10 -121.5t37 -106t70.5 -86.5t115.5 -56t167 -21q211 0 312 100.5t101 333.5v874h109v-862q0 -262 -133.5 -399t-398.5 -137q-103 0 -184.5 18.5t-135 53t-90 77t-55.5 98t-27 107.5t-8 113zM614 1567l228 227l76 -76l-244 -211z" />
<glyph unicode="&#xdb;" horiz-adv-x="1441" d="M205 451v931h110v-917q0 -67 10 -121.5t37 -106t70.5 -86.5t115.5 -56t167 -21q211 0 312 100.5t101 333.5v874h109v-862q0 -262 -133.5 -399t-398.5 -137q-103 0 -184.5 18.5t-135 53t-90 77t-55.5 98t-27 107.5t-8 113zM461 1575l254 201l264 -195l-66 -65l-202 147 l-191 -147z" />
<glyph unicode="&#xdc;" horiz-adv-x="1441" d="M205 451v931h110v-917q0 -67 10 -121.5t37 -106t70.5 -86.5t115.5 -56t167 -21q211 0 312 100.5t101 333.5v874h109v-862q0 -262 -133.5 -399t-398.5 -137q-103 0 -184.5 18.5t-135 53t-90 77t-55.5 98t-27 107.5t-8 113zM434 1618q0 34 23 57t57 23t57 -23t23 -57 t-23 -57t-57 -23t-57 23t-23 57zM807 1618q0 34 23 57t57 23t57 -23t23 -57t-23 -57t-57 -23t-57 23t-23 57z" />
<glyph unicode="&#xdd;" horiz-adv-x="1050" d="M33 1382h123l256 -532q48 -98 112 -252h2q43 108 125 272l250 512h117l-443 -876v-506h-110v506zM455 1567l227 227l76 -76l-244 -211z" />
<glyph unicode="&#xde;" horiz-adv-x="1089" d="M205 -2v1384h110v-233q99 6 209 6q225 0 357.5 -102.5t132.5 -292.5q0 -140 -79 -246.5t-204 -159.5t-274 -53q-52 0 -142 12v-315h-110zM315 403q78 -10 156 -10q194 1 311 101t117 262q0 143 -102.5 227t-319.5 84q-83 0 -162 -12v-652z" />
<glyph unicode="&#xdf;" horiz-adv-x="1183" d="M205 0v1034q0 102 22 183t61 135.5t94 90.5t118.5 52t138.5 16q159 0 244.5 -71t85.5 -180q0 -59 -18 -105t-46.5 -75t-63.5 -52.5t-70 -44t-63.5 -43t-46.5 -55t-18 -74.5q0 -50 24.5 -89.5t63 -66.5t85.5 -52t94 -52.5t85.5 -60.5t63 -84t24.5 -115q0 -133 -105.5 -220 t-287.5 -87q-106 0 -188 16l4 109q98 -31 196 -31q133 0 202 55.5t69 138.5q0 52 -24.5 93t-63 68.5t-86 52t-94.5 52.5t-85.5 61t-63 85t-24.5 119q0 58 24.5 105t60.5 75t79 57t79 54t60.5 64t24.5 87q0 88 -63.5 133t-169.5 45q-314 0 -314 -379v-1044h-108z" />
<glyph unicode="&#xe0;" horiz-adv-x="1079" d="M113 221q0 157 164 255.5t468 98.5v97q0 137 -56 204.5t-191 67.5q-77 0 -163 -24t-151 -68l-12 102q167 80 348 80q95 0 161.5 -24t103.5 -69.5t53 -101.5t16 -128v-621q83 -14 178 -20v-56q-154 -20 -287 -14q0 152 13 231l-4 2q-38 -108 -137 -178.5t-230 -70.5 q-121 0 -197.5 61t-76.5 176zM225 246q0 -78 51 -124t136 -46q97 0 174.5 59t118 149.5t40.5 190.5v12q-123 0 -218 -15.5t-150.5 -39t-91 -57t-48 -64.5t-12.5 -65zM311 1411l76 76l227 -227l-59 -60z" />
<glyph unicode="&#xe1;" horiz-adv-x="1079" d="M113 221q0 157 164 255.5t468 98.5v97q0 137 -56 204.5t-191 67.5q-77 0 -163 -24t-151 -68l-12 102q167 80 348 80q95 0 161.5 -24t103.5 -69.5t53 -101.5t16 -128v-621q83 -14 178 -20v-56q-154 -20 -287 -14q0 152 13 231l-4 2q-38 -108 -137 -178.5t-230 -70.5 q-121 0 -197.5 61t-76.5 176zM225 246q0 -78 51 -124t136 -46q97 0 174.5 59t118 149.5t40.5 190.5v12q-123 0 -218 -15.5t-150.5 -39t-91 -57t-48 -64.5t-12.5 -65zM432 1260l227 227l76 -76l-243 -211z" />
<glyph unicode="&#xe2;" horiz-adv-x="1079" d="M113 221q0 157 164 255.5t468 98.5v97q0 137 -56 204.5t-191 67.5q-77 0 -163 -24t-151 -68l-12 102q167 80 348 80q95 0 161.5 -24t103.5 -69.5t53 -101.5t16 -128v-621q83 -14 178 -20v-56q-154 -20 -287 -14q0 152 13 231l-4 2q-38 -108 -137 -178.5t-230 -70.5 q-121 0 -197.5 61t-76.5 176zM225 246q0 -78 51 -124t136 -46q97 0 174.5 59t118 149.5t40.5 190.5v12q-123 0 -218 -15.5t-150.5 -39t-91 -57t-48 -64.5t-12.5 -65zM260 1268l254 200l264 -194l-65 -66l-203 148l-191 -148z" />
<glyph unicode="&#xe3;" horiz-adv-x="1079" d="M113 221q0 157 164 255.5t468 98.5v97q0 137 -56 204.5t-191 67.5q-77 0 -163 -24t-151 -68l-12 102q167 80 348 80q95 0 161.5 -24t103.5 -69.5t53 -101.5t16 -128v-621q83 -14 178 -20v-56q-154 -20 -287 -14q0 152 13 231l-4 2q-38 -108 -137 -178.5t-230 -70.5 q-121 0 -197.5 61t-76.5 176zM180 1356q33 35 82.5 56.5t102.5 21.5q43 0 84.5 -15t68.5 -32.5t62.5 -32.5t68.5 -15q71 0 139 68l35 -76q-74 -78 -180 -78q-46 0 -88.5 15t-69 32.5t-62.5 32.5t-71 15q-72 0 -137 -68zM225 246q0 -78 51 -124t136 -46q97 0 174.5 59 t118 149.5t40.5 190.5v12q-123 0 -218 -15.5t-150.5 -39t-91 -57t-48 -64.5t-12.5 -65z" />
<glyph unicode="&#xe4;" horiz-adv-x="1079" d="M113 221q0 157 164 255.5t468 98.5v97q0 137 -56 204.5t-191 67.5q-77 0 -163 -24t-151 -68l-12 102q167 80 348 80q95 0 161.5 -24t103.5 -69.5t53 -101.5t16 -128v-621q83 -14 178 -20v-56q-154 -20 -287 -14q0 152 13 231l-4 2q-38 -108 -137 -178.5t-230 -70.5 q-121 0 -197.5 61t-76.5 176zM225 246q0 -78 51 -124t136 -46q97 0 174.5 59t118 149.5t40.5 190.5v12q-123 0 -218 -15.5t-150.5 -39t-91 -57t-48 -64.5t-12.5 -65zM246 1352q0 34 23 57t57 23t57 -23t23 -57t-23 -57t-57 -23t-57 23t-23 57zM618 1352q0 34 23 57t57 23 t57 -23t23 -57t-23 -57t-57 -23t-57 23t-23 57z" />
<glyph unicode="&#xe5;" horiz-adv-x="1079" d="M113 221q0 157 164 255.5t468 98.5v97q0 137 -56 204.5t-191 67.5q-77 0 -163 -24t-151 -68l-12 102q167 80 348 80q95 0 161.5 -24t103.5 -69.5t53 -101.5t16 -128v-621q83 -14 178 -20v-56q-154 -20 -287 -14q0 152 13 231l-4 2q-38 -108 -137 -178.5t-230 -70.5 q-121 0 -197.5 61t-76.5 176zM225 246q0 -78 51 -124t136 -46q97 0 174.5 59t118 149.5t40.5 190.5v12q-123 0 -218 -15.5t-150.5 -39t-91 -57t-48 -64.5t-12.5 -65zM319 1348q0 84 60.5 142t144.5 58q88 0 146.5 -57.5t58.5 -142.5q0 -80 -60.5 -140.5t-144.5 -60.5 q-87 0 -146 57t-59 144zM406 1348q0 -52 33.5 -87.5t84.5 -35.5t85 36t34 87t-34 86.5t-85 35.5t-84.5 -35.5t-33.5 -86.5z" />
<glyph unicode="&#xe6;" horiz-adv-x="1665" d="M113 221q0 157 164 255.5t468 98.5v97q0 133 -57.5 202.5t-189.5 69.5q-77 0 -163 -24t-151 -68l-12 102q167 80 348 80q243 0 305 -190h2q49 84 138.5 137t205.5 53q99 0 175 -32.5t121 -89.5t67 -127.5t22 -153.5q0 -33 -2 -60h-702q-9 -258 81.5 -375.5t278.5 -117.5 q80 0 160.5 18t136.5 47l11 -100q-140 -59 -324 -59q-171 0 -273.5 72t-136.5 186h-2q-46 -105 -151.5 -181.5t-245.5 -76.5q-121 0 -197.5 61t-76.5 176zM225 246q0 -78 51 -124t136 -46q97 0 174.5 59t118 149.5t40.5 190.5v12q-123 0 -218 -15.5t-150.5 -39t-91 -57 t-48 -64.5t-12.5 -65zM862 659h576q3 129 -71.5 210t-203.5 81q-117 0 -197 -79t-104 -212z" />
<glyph unicode="&#xe7;" horiz-adv-x="913" d="M98 473q0 260 126.5 408.5t363.5 148.5q130 0 252 -37l-13 -96q-122 49 -254 49q-175 0 -267.5 -120.5t-92.5 -325.5q0 -72 9 -130.5t32 -113.5t60.5 -92t98 -59.5t140.5 -22.5q161 0 281 63l10 -96q-144 -59 -314 -59q-432 0 -432 483zM369 -430q183 142 90 326h114 q24 -61 25.5 -119.5t-44.5 -125.5t-140 -132z" />
<glyph unicode="&#xe8;" horiz-adv-x="1026" d="M98 506q0 232 117 380t317 148q99 0 175 -32.5t121 -89.5t67.5 -128t22.5 -153q0 -19 -3 -60h-700q-10 -258 81 -375.5t279 -117.5q79 0 159 18t136 47l11 -100q-140 -59 -324 -59q-459 0 -459 522zM225 659h574q3 129 -71.5 210t-203.5 81q-117 0 -197 -79t-102 -212z M313 1411l76 76l227 -227l-59 -60z" />
<glyph unicode="&#xe9;" horiz-adv-x="1026" d="M98 506q0 232 117 380t317 148q99 0 175 -32.5t121 -89.5t67.5 -128t22.5 -153q0 -19 -3 -60h-700q-10 -258 81 -375.5t279 -117.5q79 0 159 18t136 47l11 -100q-140 -59 -324 -59q-459 0 -459 522zM225 659h574q3 129 -71.5 210t-203.5 81q-117 0 -197 -79t-102 -212z M438 1260l228 227l75 -76l-243 -211z" />
<glyph unicode="&#xea;" horiz-adv-x="1026" d="M98 506q0 232 117 380t317 148q99 0 175 -32.5t121 -89.5t67.5 -128t22.5 -153q0 -19 -3 -60h-700q-10 -258 81 -375.5t279 -117.5q79 0 159 18t136 47l11 -100q-140 -59 -324 -59q-459 0 -459 522zM225 659h574q3 129 -71.5 210t-203.5 81q-117 0 -197 -79t-102 -212z M281 1268l254 200l264 -194l-66 -66l-203 148l-190 -148z" />
<glyph unicode="&#xeb;" horiz-adv-x="1026" d="M98 506q0 232 117 380t317 148q99 0 175 -32.5t121 -89.5t67.5 -128t22.5 -153q0 -19 -3 -60h-700q-10 -258 81 -375.5t279 -117.5q79 0 159 18t136 47l11 -100q-140 -59 -324 -59q-459 0 -459 522zM225 659h574q3 129 -71.5 210t-203.5 81q-117 0 -197 -79t-102 -212z M264 1352q0 34 23 57t57 23t57 -23t23 -57t-23 -57t-57 -23t-57 23t-23 57zM637 1352q0 34 23 57t57 23t57 -23t23 -57t-23 -57t-57 -23t-57 23t-23 57z" />
<glyph unicode="&#xec;" horiz-adv-x="559" d="M68 948v56q153 20 286 14v-1018h-108v928q-83 14 -178 20zM86 1411l76 76l227 -227l-59 -60z" />
<glyph unicode="&#xed;" horiz-adv-x="559" d="M68 948v56q153 20 286 14v-1018h-108v928q-83 14 -178 20zM145 1260l228 227l76 -76l-244 -211z" />
<glyph unicode="&#xee;" horiz-adv-x="559" d="M25 1268l254 200l264 -194l-66 -66l-203 148l-190 -148zM68 948v56q153 20 286 14v-1018h-108v928q-83 14 -178 20z" />
<glyph unicode="&#xef;" horiz-adv-x="559" d="M14 1352q0 34 23 57t57 23t57 -23t23 -57t-23 -57t-57 -23t-57 23t-23 57zM68 948v56q153 20 286 14v-1018h-108v928q-83 14 -178 20zM387 1352q0 34 23 57t57 23t57 -23t23 -57t-23 -57t-57 -23t-57 23t-23 57z" />
<glyph unicode="&#xf0;" horiz-adv-x="1161" d="M113 465q0 136 38.5 244.5t104.5 175.5t148.5 102t175.5 35q206 0 301 -137q-43 144 -90.5 238t-118.5 165l-246 -143l-43 74l219 129q-124 82 -291 82q-38 0 -92 -7v86q32 4 72 4q234 0 399 -114l213 123l43 -74l-184 -109q246 -235 246 -751q0 -158 -34.5 -276 t-98 -188.5t-145.5 -105t-183 -34.5q-199 0 -316.5 129t-117.5 352zM227 473q0 -182 93.5 -292.5t234.5 -108.5q176 1 257 125.5t81 365.5q0 174 -77.5 272.5t-235.5 98.5q-72 0 -133.5 -25.5t-111.5 -77.5t-79 -144t-29 -214z" />
<glyph unicode="&#xf1;" horiz-adv-x="1228" d="M68 948v56q153 20 290 14q0 -145 -18 -244l4 -2q44 122 141.5 193t231.5 71q307 0 307 -327v-709h-109v664q0 143 -48.5 213.5t-170.5 70.5q-152 0 -247 -129.5t-95 -331.5v-487h-108v928q-83 14 -178 20zM313 1356q33 35 82.5 56.5t102.5 21.5q43 0 84.5 -15t68.5 -32.5 t62.5 -32.5t68.5 -15q72 0 140 68l34 -76q-74 -78 -180 -78q-46 0 -88.5 15t-69 32.5t-62.5 32.5t-71 15q-72 0 -137 -68z" />
<glyph unicode="&#xf2;" horiz-adv-x="1101" d="M94 508q0 143 53 261t162 191.5t256 73.5q71 0 133.5 -16t119.5 -53.5t97.5 -95t64.5 -145.5t24 -200q0 -149 -55 -270.5t-164.5 -195.5t-254.5 -74q-205 0 -320.5 132.5t-115.5 391.5zM207 516q0 -211 91 -326.5t255 -115.5q67 0 126.5 26t107.5 78t76 139.5t28 200.5 q0 202 -87.5 315t-252.5 113q-68 0 -128.5 -26t-109.5 -77t-77.5 -135.5t-28.5 -191.5zM354 1411l76 76l227 -227l-59 -60z" />
<glyph unicode="&#xf3;" horiz-adv-x="1101" d="M94 508q0 143 53 261t162 191.5t256 73.5q71 0 133.5 -16t119.5 -53.5t97.5 -95t64.5 -145.5t24 -200q0 -149 -55 -270.5t-164.5 -195.5t-254.5 -74q-205 0 -320.5 132.5t-115.5 391.5zM207 516q0 -211 91 -326.5t255 -115.5q67 0 126.5 26t107.5 78t76 139.5t28 200.5 q0 202 -87.5 315t-252.5 113q-68 0 -128.5 -26t-109.5 -77t-77.5 -135.5t-28.5 -191.5zM471 1260l227 227l76 -76l-244 -211z" />
<glyph unicode="&#xf4;" horiz-adv-x="1101" d="M94 508q0 143 53 261t162 191.5t256 73.5q71 0 133.5 -16t119.5 -53.5t97.5 -95t64.5 -145.5t24 -200q0 -149 -55 -270.5t-164.5 -195.5t-254.5 -74q-205 0 -320.5 132.5t-115.5 391.5zM207 516q0 -211 91 -326.5t255 -115.5q67 0 126.5 26t107.5 78t76 139.5t28 200.5 q0 202 -87.5 315t-252.5 113q-68 0 -128.5 -26t-109.5 -77t-77.5 -135.5t-28.5 -191.5zM291 1268l254 200l264 -194l-66 -66l-202 148l-191 -148z" />
<glyph unicode="&#xf5;" horiz-adv-x="1101" d="M94 508q0 143 53 261t162 191.5t256 73.5q71 0 133.5 -16t119.5 -53.5t97.5 -95t64.5 -145.5t24 -200q0 -149 -55 -270.5t-164.5 -195.5t-254.5 -74q-205 0 -320.5 132.5t-115.5 391.5zM207 516q0 -211 91 -326.5t255 -115.5q67 0 126.5 26t107.5 78t76 139.5t28 200.5 q0 202 -87.5 315t-252.5 113q-68 0 -128.5 -26t-109.5 -77t-77.5 -135.5t-28.5 -191.5zM227 1356q33 35 82.5 56.5t102.5 21.5q43 0 84.5 -15t68.5 -32.5t62.5 -32.5t68.5 -15q72 0 140 68l34 -76q-74 -78 -180 -78q-46 0 -88.5 15t-69 32.5t-62.5 32.5t-71 15 q-72 0 -137 -68z" />
<glyph unicode="&#xf6;" horiz-adv-x="1101" d="M94 508q0 143 53 261t162 191.5t256 73.5q71 0 133.5 -16t119.5 -53.5t97.5 -95t64.5 -145.5t24 -200q0 -149 -55 -270.5t-164.5 -195.5t-254.5 -74q-205 0 -320.5 132.5t-115.5 391.5zM207 516q0 -211 91 -326.5t255 -115.5q67 0 126.5 26t107.5 78t76 139.5t28 200.5 q0 202 -87.5 315t-252.5 113q-68 0 -128.5 -26t-109.5 -77t-77.5 -135.5t-28.5 -191.5zM276 1352q0 34 23 57t57 23t57 -23t23 -57t-23 -57t-57 -23t-57 23t-23 57zM649 1352q0 34 23 57t57 23t57 -23t23 -57t-23 -57t-57 -23t-57 23t-23 57z" />
<glyph unicode="&#xf7;" horiz-adv-x="1167" d="M92 481v94h983v-94h-983zM496 113q0 37 25.5 62.5t62.5 25.5t62.5 -25.5t25.5 -62.5t-25.5 -62.5t-62.5 -25.5t-62.5 25.5t-25.5 62.5zM496 940q0 37 25.5 62.5t62.5 25.5t62.5 -25.5t25.5 -62.5t-25.5 -62.5t-62.5 -25.5t-62.5 25.5t-25.5 62.5z" />
<glyph unicode="&#xf8;" horiz-adv-x="1101" d="M84 508q0 143 53 261t162 191.5t256 73.5q49 0 107 -10l73 193l88 -31l-73 -191q111 -51 177 -167t66 -304q0 -149 -54.5 -270.5t-163 -195.5t-251.5 -74q-80 0 -151 22l-82 -215l-88 31l86 221q-105 64 -155 186.5t-50 278.5zM195 516q0 -125 34 -221.5t99 -149.5 l301 793q-48 10 -92 10q-64 0 -121.5 -23t-108.5 -71.5t-81.5 -135.5t-30.5 -202zM408 96q58 -24 137 -24q67 0 126.5 26.5t107.5 78.5t76 140t28 201q0 293 -168 387z" />
<glyph unicode="&#xf9;" horiz-adv-x="1241" d="M59 948v56q154 20 287 14v-664q0 -143 48.5 -213.5t170.5 -70.5q152 0 247 129t95 331v488h109v-928q83 -14 178 -20v-56q-153 -20 -291 -14q0 140 19 244l-4 2q-44 -122 -141.5 -193t-231.5 -71q-307 0 -307 327v619q-82 13 -179 20zM385 1411l76 76l227 -227l-59 -60z " />
<glyph unicode="&#xfa;" horiz-adv-x="1241" d="M59 948v56q154 20 287 14v-664q0 -143 48.5 -213.5t170.5 -70.5q152 0 247 129t95 331v488h109v-928q83 -14 178 -20v-56q-153 -20 -291 -14q0 140 19 244l-4 2q-44 -122 -141.5 -193t-231.5 -71q-307 0 -307 327v619q-82 13 -179 20zM539 1260l227 227l76 -76l-244 -211 z" />
<glyph unicode="&#xfb;" horiz-adv-x="1241" d="M59 948v56q154 20 287 14v-664q0 -143 48.5 -213.5t170.5 -70.5q152 0 247 129t95 331v488h109v-928q83 -14 178 -20v-56q-153 -20 -291 -14q0 140 19 244l-4 2q-44 -122 -141.5 -193t-231.5 -71q-307 0 -307 327v619q-82 13 -179 20zM365 1268l253 200l265 -194l-66 -66 l-203 148l-190 -148z" />
<glyph unicode="&#xfc;" horiz-adv-x="1241" d="M59 948v56q154 20 287 14v-664q0 -143 48.5 -213.5t170.5 -70.5q152 0 247 129t95 331v488h109v-928q83 -14 178 -20v-56q-153 -20 -291 -14q0 140 19 244l-4 2q-44 -122 -141.5 -193t-231.5 -71q-307 0 -307 327v619q-82 13 -179 20zM352 1352q0 34 23 57t57 23t57 -23 t23 -57t-23 -57t-57 -23t-57 23t-23 57zM725 1352q0 34 23 57t57 23t57 -23t23 -57t-23 -57t-57 -23t-57 23t-23 57z" />
<glyph unicode="&#xfd;" horiz-adv-x="937" d="M-59 -522l14 104q59 -18 123 -18q103 0 162.5 62.5t130.5 242.5l51 131l-395 1018h129l243 -664q35 -95 78 -227h2q14 48 105 305l207 586h120l-428 -1131q-46 -123 -84.5 -197.5t-87 -127.5t-107 -73.5t-141.5 -20.5q-57 0 -122 10zM397 1260l228 227l75 -76l-243 -211z " />
<glyph unicode="&#xfe;" horiz-adv-x="1159" d="M47 1425v56q154 20 287 14v-477q0 -170 -15 -244l5 -2q43 121 139.5 191.5t220.5 70.5q181 0 279 -121.5t98 -359.5q0 -272 -139 -417.5t-375 -145.5q-122 0 -213 14v-520h-109v1921q-83 14 -178 20zM334 106q89 -30 225 -30q184 0 285.5 114.5t101.5 354.5 q0 191 -68 296t-206 105q-66 0 -123.5 -29.5t-96 -77t-66 -108t-40 -121.5t-12.5 -118v-386z" />
<glyph unicode="&#xff;" horiz-adv-x="937" d="M-59 -522l14 104q59 -18 123 -18q103 0 162.5 62.5t130.5 242.5l51 131l-395 1018h129l243 -664q35 -95 78 -227h2q14 48 105 305l207 586h120l-428 -1131q-46 -123 -84.5 -197.5t-87 -127.5t-107 -73.5t-141.5 -20.5q-57 0 -122 10zM199 1352q0 34 23 57t57 23t56.5 -23 t22.5 -57t-22.5 -57t-56.5 -23t-57 23t-23 57zM571 1352q0 34 23 57t57 23t57 -23t23 -57t-23 -57t-57 -23t-57 23t-23 57z" />
<glyph unicode="&#x152;" horiz-adv-x="1728" d="M102 682q0 132 32.5 246.5t91 198.5t138 144t175 90t200.5 30q47 0 134.5 -4.5t123.5 -4.5h564v-88h-562v-536h535v-88h-535v-580h562v-90h-564q-56 0 -153.5 -4t-143.5 -4q-155 0 -271.5 51.5t-187 146t-105 217.5t-34.5 275zM221 698q0 -101 15.5 -188.5t53 -167 t94.5 -136t145.5 -89.5t201.5 -33q95 0 158 14v1192q-86 13 -162 13q-102 0 -193.5 -41.5t-161.5 -117t-110.5 -191t-40.5 -255.5z" />
<glyph unicode="&#x153;" horiz-adv-x="1810" d="M94 508q0 106 31 200.5t89 167.5t148.5 115.5t202.5 42.5q129 0 231 -58t152 -175q53 108 147.5 170.5t221.5 62.5q99 0 175 -32.5t121 -89.5t67 -127.5t22 -153.5q0 -33 -2 -60h-703q-9 -258 82 -375.5t279 -117.5q80 0 163 18.5t138 46.5l6 -100q-140 -59 -324 -59 q-318 0 -411 247q-123 -247 -395 -247q-94 0 -170 28.5t-125.5 77t-83 116t-48 142.5t-14.5 160zM205 516q0 -94 20.5 -172.5t61.5 -140.5t109.5 -96.5t158.5 -34.5q67 0 126.5 26.5t107.5 78.5t76 140t28 201q0 207 -87.5 318.5t-258.5 111.5q-64 0 -121.5 -23 t-108.5 -71.5t-81.5 -135.5t-30.5 -202zM1008 659h575q3 129 -71 210t-203 81q-117 0 -198 -80t-103 -211z" />
<glyph unicode="&#x178;" horiz-adv-x="1050" d="M33 1382h123l256 -532q48 -98 112 -252h2q43 108 125 272l250 512h117l-443 -876v-506h-110v506zM254 1618q0 34 23 57t57 23t57 -23t23 -57t-23 -57t-57 -23t-57 23t-23 57zM627 1618q0 34 23 57t57 23t56.5 -23t22.5 -57t-22.5 -57t-56.5 -23t-57 23t-23 57z" />
<glyph unicode="&#x2c6;" horiz-adv-x="901" d="M190 1268l254 200l265 -194l-66 -66l-203 148l-190 -148z" />
<glyph unicode="&#x2dc;" horiz-adv-x="1073" d="M236 1356q33 35 82.5 56.5t101.5 21.5q55 0 105 -24t94.5 -47.5t85.5 -23.5q71 0 139 68l35 -76q-32 -34 -79.5 -56t-101.5 -22q-46 0 -88 15t-68.5 32.5t-62.5 32.5t-71 15q-73 0 -138 -68z" />
<glyph unicode="&#x2000;" horiz-adv-x="897" />
<glyph unicode="&#x2001;" horiz-adv-x="1794" />
<glyph unicode="&#x2002;" horiz-adv-x="897" />
<glyph unicode="&#x2003;" horiz-adv-x="1794" />
<glyph unicode="&#x2004;" horiz-adv-x="598" />
<glyph unicode="&#x2005;" horiz-adv-x="448" />
<glyph unicode="&#x2006;" horiz-adv-x="299" />
<glyph unicode="&#x2007;" horiz-adv-x="299" />
<glyph unicode="&#x2008;" horiz-adv-x="224" />
<glyph unicode="&#x2009;" horiz-adv-x="358" />
<glyph unicode="&#x200a;" horiz-adv-x="99" />
<glyph unicode="&#x2010;" horiz-adv-x="667" d="M102 463v88h463v-88h-463z" />
<glyph unicode="&#x2011;" horiz-adv-x="667" d="M102 463v88h463v-88h-463z" />
<glyph unicode="&#x2012;" horiz-adv-x="667" d="M102 463v88h463v-88h-463z" />
<glyph unicode="&#x2013;" horiz-adv-x="1024" d="M0 545v94h1024v-94h-1024z" />
<glyph unicode="&#x2014;" horiz-adv-x="2048" d="M0 545v94h2048v-94h-2048z" />
<glyph unicode="&#x2018;" horiz-adv-x="452" d="M133 1138q-32 81 33 204q49 90 143 182l51 -45q-58 -62 -84.5 -120t-25.5 -94.5t18 -60.5q28 -41 7.5 -81t-64.5 -40q-56 0 -78 55z" />
<glyph unicode="&#x2019;" horiz-adv-x="452" d="M88 1118q58 62 84.5 120t25.5 94.5t-18 60.5q-28 41 -7 80.5t65 39.5q56 0 78 -55q32 -81 -35 -204q-48 -89 -142 -181z" />
<glyph unicode="&#x201a;" horiz-adv-x="452" d="M88 -233q58 62 84.5 120t25.5 94t-18 60q-28 41 -7 81t65 40q56 0 78 -55q32 -81 -34 -204q-48 -90 -143 -182z" />
<glyph unicode="&#x201c;" horiz-adv-x="784" d="M133 1138q-32 81 33 204q49 90 143 182l51 -45q-58 -62 -84.5 -120t-25.5 -94.5t18 -60.5q28 -41 7.5 -81t-64.5 -40q-56 0 -78 55zM465 1138q-32 81 33 204q49 90 143 182l51 -45q-58 -62 -84.5 -120t-25.5 -94.5t18 -60.5q28 -41 7.5 -81t-64.5 -40q-56 0 -78 55z" />
<glyph unicode="&#x201d;" horiz-adv-x="784" d="M88 1118q58 62 84.5 120t25.5 94.5t-18 60.5q-28 41 -7 80.5t65 39.5q56 0 78 -55q32 -81 -35 -204q-48 -89 -142 -181zM420 1118q58 62 84.5 120t25.5 94.5t-18 60.5q-28 41 -7.5 80.5t64.5 39.5q56 0 78 -55q32 -81 -34 -204q-48 -89 -142 -181z" />
<glyph unicode="&#x201e;" horiz-adv-x="784" d="M88 -233q58 62 84.5 120t25.5 94t-18 60q-28 41 -7 81t65 40q56 0 78 -55q32 -81 -34 -204q-48 -90 -143 -182zM420 -233q58 62 84.5 120t25.5 94t-18 60q-28 41 -7.5 81t64.5 40q56 0 78 -55q32 -81 -33 -204q-49 -90 -143 -182z" />
<glyph unicode="&#x2022;" horiz-adv-x="884" d="M233 592q0 79 56.5 135.5t136.5 56.5t136 -56t56 -136t-56.5 -136.5t-135.5 -56.5q-80 0 -136.5 56.5t-56.5 136.5z" />
<glyph unicode="&#x2026;" horiz-adv-x="1245" d="M117 74q0 37 25.5 62.5t62.5 25.5t62.5 -25.5t25.5 -62.5t-25.5 -62.5t-62.5 -25.5t-62.5 25.5t-25.5 62.5zM520 74q0 37 25.5 62.5t62.5 25.5t62.5 -25.5t25.5 -62.5t-25.5 -62.5t-62.5 -25.5t-62.5 25.5t-25.5 62.5zM924 74q0 37 25.5 62.5t62.5 25.5t62.5 -25.5 t25.5 -62.5t-25.5 -62.5t-62.5 -25.5t-62.5 25.5t-25.5 62.5z" />
<glyph unicode="&#x202f;" horiz-adv-x="358" />
<glyph unicode="&#x2039;" horiz-adv-x="643" d="M135 500l256 344l76 -60l-219 -282l215 -279l-78 -61z" />
<glyph unicode="&#x203a;" horiz-adv-x="643" d="M176 221l219 283l-215 278l78 62l250 -338l-256 -344z" />
<glyph unicode="&#x205f;" horiz-adv-x="448" />
<glyph unicode="&#x20ac;" horiz-adv-x="1126" d="M29 492v83h196q-2 29 -2 89q0 45 4 127h-198v83h207q38 275 176.5 400t365.5 125q117 0 240 -29l-21 -96q-129 35 -249 35q-339 0 -396 -435h430v-83h-436q-4 -70 -4 -109q0 -72 2 -107h438v-83h-430q24 -206 119 -308t283 -102q63 0 139.5 13t126.5 32l20 -92 q-140 -51 -315 -51q-226 0 -346 128t-148 380h-202z" />
<glyph unicode="&#x2122;" horiz-adv-x="1449" d="M121 1313v69h424v-69h-164v-506h-96v506h-164zM600 807l86 575h133l113 -376l24 -105l21 92l123 389h129l84 -575h-92l-54 354l-16 123l-29 -102l-118 -375h-109l-115 379l-26 98l-6 -78l-62 -399h-86z" />
<glyph unicode="&#x25fc;" horiz-adv-x="1013" d="M0 0v1014h1014v-1014h-1014z" />
</font>
</defs>
</svg>
