<?xml version="1.0" standalone="no"?>
<!DOCTYPE svg PUBLIC "-//W3C//DTD SVG 1.1//EN" "http://www.w3.org/Graphics/SVG/1.1/DTD/svg11.dtd" >
<svg xmlns="http://www.w3.org/2000/svg">
<metadata></metadata>
<defs>
<font id="themixextralight_italic" horiz-adv-x="1417" >
<font-face units-per-em="2048" ascent="1536" descent="-512" />
<missing-glyph horiz-adv-x="446" />
<glyph unicode="&#xfb01;" horiz-adv-x="1161" d="M-395 -514l28 98q76 -24 168 -24q134 0 210.5 83t113.5 283l192 1006h-237l18 86h238l8 53q65 432 508 432q128 0 258 -37l-43 -90q-106 39 -227 39q-324 0 -385 -321l-15 -76h619l-195 -1018h-106l178 932h-512l-191 -998q-48 -249 -158 -357.5t-296 -108.5 q-91 0 -174 18z" />
<glyph unicode="&#xfb02;" horiz-adv-x="1157" d="M-395 -514l28 98q76 -24 168 -24q134 0 210.5 83t113.5 283l192 1006h-237l18 86h236l22 117q72 368 478 368q160 0 311 -24l-281 -1479h-106l266 1399q-105 18 -195 18q-162 0 -249.5 -66.5t-116.5 -215.5l-23 -117h320l-19 -86h-317l-191 -998q-48 -249 -158 -357.5 t-296 -108.5q-91 0 -174 18z" />
<glyph unicode="&#xfb03;" horiz-adv-x="1779" d="M-395 -514l28 98q76 -24 168 -24q134 0 210.5 83t113.5 283l192 1006h-237l18 86h236l10 55q79 430 492 430q166 0 335 -76q113 76 299 76q130 0 259 -37l-43 -90q-106 39 -228 39q-325 0 -387 -332l-12 -65h618l-194 -1018h-107l178 932h-512l-194 -1022 q-45 -237 -171 -339.5t-323 -102.5q-162 0 -325 69q-96 -69 -250 -69q-91 0 -174 18zM111 -383q114 -57 258 -57q156 0 245.5 81.5t124.5 262.5l197 1028h-512l-191 -998q-40 -207 -122 -317zM440 1018h512l11 59q28 170 124 277q-119 61 -264 61q-156 0 -250 -83.5 t-120 -241.5z" />
<glyph unicode="&#xfb04;" horiz-adv-x="1779" d="M-395 -514l28 98q76 -24 168 -24q134 0 210.5 83t113.5 283l192 1006h-237l18 86h236l10 55q79 430 492 430q164 0 323 -69q117 69 293 69q160 0 311 -24l-280 -1479h-107l266 1399q-105 18 -194 18q-162 0 -250 -67t-117 -215l-22 -117h319l-18 -86h-318l-194 -1022 q-45 -237 -171 -339.5t-323 -102.5q-162 0 -325 69q-96 -69 -250 -69q-91 0 -174 18zM111 -383q114 -57 258 -57q156 0 245.5 81.5t124.5 262.5l197 1028h-512l-191 -998q-40 -207 -122 -317zM440 1018h512l23 117q27 137 100 225q-113 55 -252 55q-156 0 -250 -83.5 t-120 -241.5z" />
<glyph horiz-adv-x="2048" />
<glyph horiz-adv-x="2048" />
<glyph horiz-adv-x="682" />
<glyph unicode="&#x9;" horiz-adv-x="446" />
<glyph unicode="&#xd;" horiz-adv-x="446" />
<glyph unicode=" "  horiz-adv-x="446" />
<glyph unicode="&#x09;" horiz-adv-x="446" />
<glyph unicode="&#xa0;" horiz-adv-x="446" />
<glyph unicode="!" horiz-adv-x="598" d="M133 74q0 37 24.5 62.5t61.5 25.5t61.5 -25.5t24.5 -62.5t-24.5 -62.5t-61.5 -25.5t-61.5 25.5t-24.5 62.5zM219 305l193 1125h127l-236 -1125h-84z" />
<glyph unicode="&#x22;" horiz-adv-x="671" d="M260 1073l21 422h127l-70 -422h-78zM559 1073l21 422h127l-70 -422h-78z" />
<glyph unicode="#" horiz-adv-x="1343" d="M63 420l15 74h328l133 450h-320l14 74h326l107 364h88l-105 -364h338l107 364h88l-107 -364h316l-15 -74h-323l-131 -450h315l-14 -74h-324l-125 -420h-88l125 420h-340l-123 -420h-90l125 420h-320zM494 494h340l131 450h-338z" />
<glyph unicode="$" horiz-adv-x="948" d="M76 20l20 109q35 -16 111 -32.5t153 -16.5q152 0 238 81t86 183q0 60 -24.5 107.5t-63.5 79t-86 60t-94 57.5t-86 62.5t-63.5 84t-24.5 114.5q0 141 99 241t275 120l41 225h91l-41 -221q103 -3 206 -25l-20 -100q-100 35 -229 35q-156 0 -235 -71t-79 -177 q0 -54 25 -97.5t64.5 -74t87 -58t95.5 -57.5t87.5 -65.5t64.5 -89t25 -119.5q0 -64 -24.5 -126t-71 -116t-122.5 -92.5t-171 -50.5l-56 -283h-90l55 279q-117 0 -243 34z" />
<glyph unicode="%" horiz-adv-x="1572" d="M168 1024q0 165 98.5 270t241.5 105q122 0 199 -66t77 -211q0 -69 -22 -134.5t-64 -119.5t-110 -87t-152 -33q-129 0 -198.5 67.5t-69.5 208.5zM219 14l1084 1409l73 -55l-1083 -1409zM279 1034q0 -105 42 -154t134 -49q70 0 122 46t74.5 106t22.5 119q0 110 -42 161.5 t-138 51.5q-66 0 -116.5 -42.5t-74.5 -105t-24 -133.5zM829 260q0 165 98.5 270t241.5 105q122 0 199.5 -66t77.5 -211q0 -69 -22 -134.5t-64 -119.5t-110 -87t-152 -33q-129 0 -199 67.5t-70 208.5zM940 270q0 -105 42 -153.5t134 -48.5q53 0 97 26.5t69.5 68t39 87 t13.5 88.5q0 110 -42 161.5t-138 51.5q-66 0 -116.5 -42.5t-74.5 -105t-24 -133.5z" />
<glyph unicode="&#x26;" horiz-adv-x="1591" d="M111 291q0 76 23.5 146.5t57.5 123t91.5 108t105.5 92t119 85.5q-129 207 -129 330q0 143 100.5 240t261.5 97q129 0 192.5 -60t63.5 -157q0 -57 -20.5 -111.5t-49.5 -97t-81 -91t-93.5 -80.5t-107.5 -80q152 -220 428 -500q79 81 143 203.5t95 271.5q-76 13 -172 20 l10 56q154 20 287 14q-57 -386 -297 -631q125 -122 252 -227l-78 -78q-134 114 -252 232q-128 -107 -280.5 -161t-303.5 -54q-181 0 -273.5 88.5t-92.5 220.5zM225 328q0 -107 69 -180.5t210 -73.5q122 0 249 46t242 142q-280 290 -438 512q-61 -43 -102 -74.5t-88.5 -77.5 t-75.5 -87.5t-47 -95.5t-19 -111zM489 1194q0 -107 109 -285q54 37 90 64.5t77.5 65.5t65.5 72t40 77.5t16 89.5q0 68 -40.5 107.5t-117.5 39.5q-112 0 -176 -65.5t-64 -165.5z" />
<glyph unicode="'" horiz-adv-x="372" d="M260 1073l21 422h127l-70 -422h-78z" />
<glyph unicode="(" horiz-adv-x="602" d="M154 266q0 343 135 684t362 619h107q-222 -273 -361 -613t-139 -677q0 -387 125 -674h-102q-127 309 -127 661z" />
<glyph unicode=")" horiz-adv-x="602" d="M-115 -395q239 295 371.5 627.5t132.5 646.5q0 403 -121 690h92q129 -302 129 -674q0 -669 -493 -1290h-111z" />
<glyph unicode="*" horiz-adv-x="729" d="M205 1106l227 100l-188 111l49 72l174 -132l35 242l90 -14l-60 -223l205 127l41 -80l-229 -101l188 -110l-51 -76l-176 135l-33 -242l-90 15l57 221l-198 -127z" />
<glyph unicode="+" horiz-adv-x="1146" d="M74 481l16 92h459l94 480h102l-94 -480h463l-16 -92h-463l-94 -481h-103l94 481h-458z" />
<glyph unicode="," horiz-adv-x="401" d="M-74 -225q104 88 135.5 159t6.5 119q-19 38 1.5 73.5t61.5 35.5q57 0 76 -54q27 -74 -41 -183q-64 -103 -197 -201z" />
<glyph unicode="-" horiz-adv-x="667" d="M102 463v88h463v-88h-463z" />
<glyph unicode="." horiz-adv-x="401" d="M47 74q0 37 25.5 62.5t60.5 25.5q37 0 61.5 -25.5t24.5 -62.5t-24.5 -62.5t-61.5 -25.5q-35 0 -60.5 25.5t-25.5 62.5z" />
<glyph unicode="/" horiz-adv-x="829" d="M31 0l780 1382h102l-778 -1382h-104z" />
<glyph unicode="0" horiz-adv-x="1241" d="M111 360q0 203 84 366t227 253t317 90q189 0 293.5 -108t104.5 -287q0 -149 -52 -278.5t-139 -219t-204 -141t-244 -51.5q-189 0 -288 97.5t-99 278.5zM221 389q0 -145 76.5 -230t226.5 -85q130 0 246 78t186 212t70 289q0 151 -77.5 238.5t-233.5 87.5 q-140 0 -254.5 -82.5t-177 -217.5t-62.5 -290z" />
<glyph unicode="1" horiz-adv-x="671" d="M150 834v110l307 109h98l-201 -1053h-112l182 944z" />
<glyph unicode="2" horiz-adv-x="968" d="M29 0l14 86l385 289q176 132 243.5 220t67.5 196q0 35 -10.5 66t-32.5 59.5t-63.5 45.5t-97.5 17q-157 0 -291 -92v106q140 76 309 76q141 0 221 -73.5t80 -184.5q0 -133 -80 -240.5t-258 -238.5l-319 -236v-2q111 6 579 6l-20 -100h-727z" />
<glyph unicode="3" horiz-adv-x="940" d="M-53 -401l20 108q82 -29 156 -29q206 0 341.5 117.5t135.5 298.5q0 142 -119 201t-331 37l18 90q236 0 386.5 100.5t150.5 274.5q0 87 -53.5 134.5t-157.5 47.5q-127 0 -263 -70v105q130 55 283 55q155 0 230 -71t75 -187q0 -285 -332 -418l-2 -2q94 -8 164 -86.5 t70 -193.5q0 -148 -82 -269.5t-223.5 -190.5t-311.5 -69q-86 0 -155 17z" />
<glyph unicode="4" horiz-adv-x="1077" d="M-49 0v92l784 961h156l-180 -953h254l-21 -100h-254l-78 -410h-106l78 410h-633zM66 96q145 4 538 4l160 846h-4z" />
<glyph unicode="5" horiz-adv-x="933" d="M-31 -410l21 107q70 -16 127 -16q217 0 357 108.5t140 296.5q0 52 -13 97t-45 87t-81.5 72t-128.5 48t-180 18l123 645h583l-20 -107h-479l-84 -440q207 -12 324.5 -120t117.5 -277q0 -98 -35 -184t-95.5 -148t-141 -106.5t-171.5 -66.5t-186 -22q-73 0 -133 8z" />
<glyph unicode="6" horiz-adv-x="1177" d="M158 373q0 84 13.5 178.5t45 200t78 204t118 189t158.5 158t206 107.5t255 40q38 0 70 -4l-19 -92q-43 6 -88 6q-231 0 -397 -154t-256 -422q-4 -11 -16 -42t-21 -56v-2q63 100 170.5 157.5t233.5 57.5q91 0 160 -28.5t109 -76.5t59.5 -104.5t19.5 -120.5 q0 -131 -46.5 -242.5t-124 -185.5t-177 -115.5t-205.5 -41.5q-93 0 -161.5 29.5t-108 83.5t-58 122.5t-18.5 153.5zM272 356q0 -34 5 -67.5t21 -74t41 -71t70 -51t103 -20.5q184 0 305 131.5t121 349.5q0 109 -65.5 180.5t-190.5 71.5q-163 0 -286.5 -134t-123.5 -315z" />
<glyph unicode="7" horiz-adv-x="923" d="M96 -410q339 771 721 1360q-45 -4 -674 -4l21 107h799l-19 -95q-422 -634 -715 -1368h-133z" />
<glyph unicode="8" horiz-adv-x="1097" d="M100 264q0 67 23.5 128.5t57.5 106.5t91 91.5t106 77.5t120 71q-52 37 -87 67.5t-70.5 72.5t-53 92.5t-17.5 109.5q0 162 129 266.5t322 104.5q159 0 244.5 -72t85.5 -200q0 -60 -21 -115t-52.5 -96.5t-83.5 -84.5t-99.5 -73.5t-114.5 -67.5q114 -76 182 -163t68 -201 q0 -174 -139.5 -284.5t-339.5 -110.5q-351 0 -351 280zM217 272q0 -81 62.5 -139.5t195.5 -58.5q135 0 237.5 82t102.5 196q0 55 -18 103t-56 89.5t-73.5 71t-92.5 68.5q-62 -34 -110 -64.5t-96.5 -70.5t-80 -80.5t-51.5 -91t-20 -105.5zM385 1090q0 -46 16.5 -86.5 t50.5 -77.5t66.5 -63.5t83.5 -63.5q63 35 105 61t90 62.5t76 70t46.5 77t18.5 89.5q0 89 -59 147t-174 58q-143 0 -231.5 -81.5t-88.5 -192.5z" />
<glyph unicode="9" horiz-adv-x="1169" d="M23 -410l18 103q59 -12 117 -12q237 0 400 140.5t267 405.5q37 101 45 119v2q-70 -97 -176 -146.5t-227 -49.5q-170 0 -257 90t-87 237q0 114 39 220t107 188.5t170 132t220 49.5q187 0 275 -103t88 -288q0 -82 -13.5 -175.5t-45 -201t-78 -208.5t-119 -194.5t-161 -163 t-211 -111.5t-263.5 -42q-64 0 -108 8zM242 492q0 -106 67 -173t176 -67q83 0 158 28.5t134.5 82t94.5 139.5t35 192q0 126 -68 206.5t-198 80.5q-111 0 -203.5 -68.5t-144 -180.5t-51.5 -240z" />
<glyph unicode=":" horiz-adv-x="483" d="M72 74q0 37 24.5 62.5t61.5 25.5t61.5 -25.5t24.5 -62.5t-24.5 -62.5t-61.5 -25.5t-61.5 25.5t-24.5 62.5zM190 692q0 37 24.5 62.5t61.5 25.5t61.5 -25.5t24.5 -62.5t-24.5 -62.5t-61.5 -25.5t-61.5 25.5t-24.5 62.5z" />
<glyph unicode=";" horiz-adv-x="483" d="M-45 -225q103 88 135 158.5t6 119.5q-19 38 2 73.5t62 35.5q57 0 76 -54q27 -74 -41 -183q-64 -103 -197 -201zM190 692q0 37 24.5 62.5t61.5 25.5t61.5 -25.5t24.5 -62.5t-24.5 -62.5t-61.5 -25.5t-61.5 25.5t-24.5 62.5z" />
<glyph unicode="&#x3c;" horiz-adv-x="1017" d="M162 514l753 573l62 -73l-676 -508l471 -479l-76 -70z" />
<glyph unicode="=" horiz-adv-x="1228" d="M143 319l19 95h901l-19 -95h-901zM205 629l18 94h901l-18 -94h-901z" />
<glyph unicode="&#x3e;" horiz-adv-x="1017" d="M86 29l676 510l-469 479l74 69l534 -557l-754 -573z" />
<glyph unicode="?" horiz-adv-x="831" d="M170 74q0 37 24.5 62.5t61.5 25.5t61.5 -25.5t24.5 -62.5t-24.5 -62.5t-61.5 -25.5t-61.5 25.5t-24.5 62.5zM227 305q-12 91 5 168.5t53 132.5t82 103t94.5 89t89 81.5t66.5 90.5t26 105q0 96 -94 169t-244 95l33 101q193 -26 308.5 -128t115.5 -233q0 -66 -26.5 -123 t-68 -99.5t-91.5 -84t-97 -86.5t-84 -96.5t-54 -124.5t-5 -160h-109z" />
<glyph unicode="@" horiz-adv-x="1751" d="M180 643q0 162 61.5 306t164.5 244.5t240 159t284 58.5q154 0 277.5 -49.5t202 -134.5t120 -194.5t41.5 -233.5q0 -218 -100 -330.5t-267 -112.5q-60 0 -103.5 19.5t-63.5 50.5t-28 69.5t3 75.5h-4q-24 -80 -103.5 -147.5t-175.5 -67.5t-136 57t-40 167q0 130 45 237 t136.5 173.5t213.5 66.5q93 0 226 -19l-68 -372q-40 -222 125 -222q237 0 237 351q0 103 -33 196t-96.5 168t-170 119.5t-242.5 44.5q-132 0 -250.5 -51t-205 -139t-137 -213.5t-50.5 -268.5q0 -170 69 -306t201 -215t305 -79q149 0 279 41v-96q-128 -35 -291 -35 q-198 0 -350.5 87.5t-234 242.5t-81.5 352zM668 602q0 -151 88 -151q93 0 167.5 115t110.5 300l19 92q-54 13 -123 13q-68 0 -120.5 -36.5t-82 -93.5t-44.5 -118.5t-15 -120.5z" />
<glyph unicode="A" horiz-adv-x="1220" d="M-63 0l780 1382h114l248 -1382h-118l-58 362h-641l-201 -362h-124zM311 453h576l-109 620q-18 107 -26 193h-2q-42 -91 -95 -187z" />
<glyph unicode="B" horiz-adv-x="1122" d="M104 0l263 1382q31 0 143 2t203 2q189 0 277.5 -69.5t88.5 -183.5q0 -80 -28.5 -150t-76 -119.5t-103.5 -84t-117 -52.5v-2q108 -18 170.5 -91t62.5 -169t-37.5 -180t-109 -149.5t-185.5 -103.5t-256 -38q-19 0 -295 6zM231 96q78 -12 201 -12q207 0 323.5 105t116.5 262 q0 112 -87.5 167.5t-274.5 55.5q-133 0 -170 -2zM356 762q47 -2 142 -2q204 0 336.5 93t132.5 259q0 42 -13 74t-44 58.5t-89 40t-141 13.5q-89 0 -221 -4z" />
<glyph unicode="C" horiz-adv-x="1177" d="M119 451q0 151 31.5 290t96.5 258t156.5 207.5t218 138.5t275.5 50q164 0 317 -43l-20 -105q-160 58 -324 58q-127 0 -233 -47t-179 -127.5t-123.5 -188.5t-73.5 -228t-23 -249q0 -88 19.5 -155t63.5 -120.5t123 -81.5t191 -28q186 0 356 80v-97q-189 -79 -389 -79 q-483 0 -483 467z" />
<glyph unicode="D" horiz-adv-x="1382" d="M104 0l263 1382q50 0 176.5 3.5t187.5 3.5q134 0 238.5 -26.5t171.5 -71.5t110.5 -110.5t61.5 -137.5t18 -158q0 -138 -33.5 -265.5t-106 -242t-177.5 -199.5t-258 -134.5t-338 -49.5q-70 0 -171 4q-79 3 -121 2h-22zM231 98q110 -14 203 -14q161 0 294 44t222 119 t150.5 176.5t89 213.5t27.5 233q0 96 -25 170.5t-80.5 134.5t-156.5 92.5t-242 32.5q-71 0 -254 -6z" />
<glyph unicode="E" horiz-adv-x="1021" d="M104 0l263 1382h657l-16 -88h-549l-103 -536h525l-17 -88h-524l-109 -580h549l-18 -90h-658z" />
<glyph unicode="F" horiz-adv-x="946" d="M104 0l263 1382h657l-16 -88h-549l-103 -536h521l-17 -88h-520l-127 -670h-109z" />
<glyph unicode="G" horiz-adv-x="1382" d="M115 512q0 156 44 295.5t123 246.5t185 185t235 119t267 41q196 0 358 -58l-33 -108q-165 76 -344 76q-200 0 -365 -104.5t-259.5 -286t-94.5 -400.5q0 -84 25 -159.5t76.5 -140.5t142.5 -103.5t211 -38.5q167 0 328 51l106 557h109l-121 -629q-210 -71 -440 -71 q-135 0 -241.5 39.5t-174 110.5t-102.5 167t-35 211z" />
<glyph unicode="H" horiz-adv-x="1423" d="M104 0l263 1382h108l-117 -618h805l117 618h109l-263 -1382h-108l127 674h-805l-127 -674h-109z" />
<glyph unicode="I" horiz-adv-x="509" d="M104 0l263 1382h108l-262 -1382h-109z" />
<glyph unicode="J" horiz-adv-x="645" d="M-96 4l20 105q75 -27 139 -27q97 0 157.5 57t86.5 197l199 1046h108l-198 -1046q-34 -179 -122.5 -263.5t-250.5 -84.5q-65 0 -139 16z" />
<glyph unicode="K" horiz-adv-x="1087" d="M102 0l263 1382h108l-129 -675l692 675h148l-715 -682l463 -700h-141l-447 707l-133 -707h-109z" />
<glyph unicode="L" horiz-adv-x="849" d="M104 0l263 1382h108l-244 -1292h529l-19 -90h-637z" />
<glyph unicode="M" horiz-adv-x="1792" d="M33 0l448 1382h146l145 -1026q25 -182 25 -251v-9h4q42 98 119 242l546 1044h166l-67 -1382h-111l45 920q9 213 27 364h-4q-12 -27 -103 -205l-565 -1079h-135l-146 1014q-30 206 -30 270h-2q-25 -95 -107 -364l-282 -920h-119z" />
<glyph unicode="N" d="M102 0l263 1382h129l438 -995q59 -131 115 -283q95 552 100 578l127 700h110l-264 -1382h-127l-440 997q-77 176 -113 287q-47 -311 -106 -633l-121 -651h-111z" />
<glyph unicode="O" d="M113 483q0 249 101 459t279.5 333.5t395.5 123.5q231 0 358 -130.5t127 -367.5q0 -256 -104.5 -467t-284 -330.5t-393.5 -119.5q-237 0 -358 129t-121 370zM233 496q0 -194 96 -306t275 -112q129 0 248 62t207.5 168.5t141 258.5t52.5 322q0 199 -96.5 308.5 t-286.5 109.5q-178 0 -324.5 -108.5t-229.5 -294.5t-83 -408z" />
<glyph unicode="P" horiz-adv-x="1034" d="M102 0l263 1382q161 7 297 7q195 0 293 -85.5t98 -228.5q0 -113 -51.5 -210.5t-136 -162t-192 -101t-220.5 -36.5q-75 0 -134 6l-108 -571h-109zM338 670q63 -13 143 -13q118 0 222.5 50t169.5 142.5t65 205.5q0 119 -71 181t-234 62q-103 0 -176 -6z" />
<glyph unicode="Q" horiz-adv-x="1419" d="M113 483q0 249 101 459t279.5 333.5t395.5 123.5q231 0 358 -130.5t127 -367.5q0 -256 -104.5 -467t-284 -330.5t-393.5 -119.5q-237 0 -358 129t-121 370zM233 496q0 -194 96 -306t275 -112q129 0 248 62t207.5 168.5t141 258.5t52.5 322q0 199 -96.5 308.5 t-286.5 109.5q-178 0 -324.5 -108.5t-229.5 -294.5t-83 -408zM532 -260l17 94q50 7 98 7q33 0 65 -3q80 -8 136.5 -24.5t126.5 -33.5t135 -25q28 -3 61 -3q45 0 101 6l-19 -94q-58 -7 -112 -7q-53 0 -103 7q-102 13 -169.5 36.5t-157.5 37.5q-47 8 -95 8q-42 0 -84 -6z" />
<glyph unicode="R" horiz-adv-x="1083" d="M104 0l263 1382q140 7 280 7q195 0 289 -75t94 -214q0 -136 -79 -238t-205 -152q-119 -47 -260 -46h-17q39 -51 98 -142l340 -522h-147l-416 666h-6l-125 -666h-109zM356 756q50 -4 131 -4q187 0 309 88t122 252q0 108 -67.5 158t-219.5 50q-101 0 -172 -6z" />
<glyph unicode="S" horiz-adv-x="915" d="M45 12l23 111q100 -41 198 -41q183 0 287 87t104 228q0 55 -24.5 102t-63 81.5t-85.5 67t-94 67.5t-85.5 74.5t-63 96t-24.5 124.5q0 78 32 148t91 124t150.5 85.5t201.5 31.5q96 0 189 -19l-21 -102q-89 31 -192 31q-84 0 -151.5 -24.5t-108.5 -65t-62.5 -88 t-21.5 -97.5q0 -59 24.5 -108.5t64 -86t87 -70t95 -68.5t87 -74t64 -94t24.5 -121q0 -186 -145.5 -307t-372.5 -121q-130 0 -207 28z" />
<glyph unicode="T" horiz-adv-x="1046" d="M188 1292l17 90h966l-16 -90h-428l-248 -1292h-108l247 1292h-430z" />
<glyph unicode="U" horiz-adv-x="1409" d="M172 330q2 58 14 127l176 925h109l-176 -919q-13 -70 -14 -127q0 -104 46 -166q70 -96 283 -96q208 0 328 101.5t166 346.5l164 860h106l-166 -876q-51 -266 -202.5 -394t-409.5 -128q-97 0 -171 16.5t-122.5 48t-78.5 73.5t-42 96q-10 48 -11 99q1 6 1 13z" />
<glyph unicode="V" horiz-adv-x="1218" d="M203 1382h119l157 -966q33 -199 43 -303h2q48 110 162 313l537 956h123l-785 -1382h-117z" />
<glyph unicode="W" horiz-adv-x="1918" d="M254 1382h113l73 -1038q9 -141 9 -250h2q66 163 104 244l492 1044h145l108 -1065q13 -123 13 -223h2q42 114 76 189l491 1099h115l-631 -1382h-141l-107 1094q-12 149 -14 194h-2q-39 -98 -86 -198l-512 -1090h-144z" />
<glyph unicode="X" horiz-adv-x="1140" d="M-55 0l602 723l-307 659h122l259 -569l464 569h132l-555 -661l331 -721h-127l-278 631l-512 -631h-131z" />
<glyph unicode="Y" horiz-adv-x="1028" d="M197 1382h112l150 -532q32 -108 63 -252h2q40 72 174 274l336 510h127l-600 -876l-96 -506h-109l97 506z" />
<glyph unicode="Z" horiz-adv-x="1056" d="M-4 0l14 76l803 1011q50 63 174 201q-164 -4 -334 -4h-389l19 98h841l-14 -75l-848 -1065q-37 -46 -123 -148q49 6 381 6h369l-21 -100h-872z" />
<glyph unicode="[" horiz-adv-x="634" d="M29 -395l374 1964h353l-17 -80h-252l-344 -1802h254l-16 -82h-352z" />
<glyph unicode="\" horiz-adv-x="813" d="M262 1382h92l256 -1382h-96z" />
<glyph unicode="]" horiz-adv-x="634" d="M-92 -395l16 82h252l344 1802h-254l17 80h352l-375 -1964h-352z" />
<glyph unicode="^" horiz-adv-x="1095" d="M150 758l342 624h96l356 -622l-86 -45l-321 577l-308 -577z" />
<glyph unicode="_" horiz-adv-x="1024" d="M0 -432h1024v-84h-1024v84z" />
<glyph unicode="`" horiz-adv-x="733" d="M319 1411l84 76l205 -227l-65 -60z" />
<glyph unicode="a" horiz-adv-x="1134" d="M82 283q0 113 22 218.5t71 202.5t121 169t178 114.5t235 42.5q137 0 278 -29l-174 -911q75 -13 170 -20l-10 -56q-118 -15 -225 -15q-32 0 -64 1q23 127 139 502l-4 2q-24 -61 -50.5 -118t-76 -134.5t-103.5 -133.5t-131 -96t-159 -40q-217 0 -217 301zM193 301 q0 -227 129 -227q69 0 141.5 51.5t132.5 134t112.5 183t88 199.5t51.5 183l18 97q-90 22 -176 22q-106 0 -192 -39t-142 -103t-93.5 -149t-53.5 -173t-16 -179z" />
<glyph unicode="b" horiz-adv-x="1114" d="M127 16l264 1383l2 6q-79 13 -172 20l10 56q118 15 223 15q31 0 62 -1l-106 -555q-13 -76 -115 -416l4 -2q41 108 93 198.5t116.5 162.5t143 112.5t163.5 40.5q217 0 217 -301q0 -113 -22 -218.5t-71 -202.5t-120.5 -169t-177.5 -114.5t-235 -42.5q-142 0 -279 28z M248 96q83 -22 176 -22q89 0 164 27t128.5 75t94 110t64.5 135t35.5 147t11.5 149q0 227 -129 227q-69 0 -141.5 -51.5t-132.5 -133.5t-112 -182t-87.5 -198t-51.5 -180z" />
<glyph unicode="c" horiz-adv-x="860" d="M82 309q0 145 39 275t110 229.5t180.5 158t241.5 58.5q122 0 228 -37l-25 -94q-99 47 -215 47q-86 0 -160 -38t-125 -100t-87 -142t-53 -164.5t-17 -167.5q0 -40 4.5 -72.5t20 -67.5t41 -58t71 -38.5t106.5 -15.5q148 0 267 61v-96q-136 -57 -291 -57q-336 0 -336 319z " />
<glyph unicode="d" horiz-adv-x="1134" d="M82 283q0 113 22 218.5t71 202.5t121 169t178 114.5t235 42.5q74 0 174 -14l73 383l2 6q-76 13 -172 20l13 56q118 15 221 15q31 0 61 -1l-268 -1405q75 -13 170 -20l-10 -56q-117 -15 -224 -15q-32 0 -63 1q20 123 137 502l-4 2q-24 -61 -50.5 -118t-76 -134.5 t-103.5 -133.5t-131 -96t-159 -40q-217 0 -217 301zM193 301q0 -227 129 -227q69 0 141.5 51.5t132.5 134t112.5 183t88 199.5t51.5 183l18 97q-90 22 -176 22q-106 0 -192 -39t-142 -103t-93.5 -149t-53.5 -173t-16 -179z" />
<glyph unicode="e" horiz-adv-x="958" d="M88 299q0 111 21.5 217t66.5 200t108.5 165t153 112t193.5 41q130 0 199 -60t69 -155q0 -311 -680 -340q-14 -65 -14 -155q0 -75 13 -122.5t44.5 -75t77 -38t117.5 -10.5q147 0 278 59v-94q-134 -59 -321 -59q-164 0 -245 72t-81 243zM240 578q286 12 415 68.5t129 160.5 q0 67 -46 104t-122 37q-137 0 -235 -102.5t-141 -267.5z" />
<glyph unicode="f" horiz-adv-x="677" d="M-397 -514l28 98q76 -24 168 -24q134 0 210.5 83t113.5 283l192 1006h-237l18 86h236l14 76q78 417 447 417q83 0 174 -18l-31 -92q-83 22 -166 22q-131 0 -208.5 -78.5t-108.5 -246.5l-15 -80h320l-19 -86h-317l-191 -998q-48 -249 -158 -357.5t-296 -108.5 q-91 0 -174 18z" />
<glyph unicode="g" horiz-adv-x="1091" d="M-35 -498l23 117q125 -51 266 -51q179 0 281.5 82t140.5 282q28 150 54.5 253.5t88.5 303.5l-4 3q-23 -57 -49 -112t-75 -131.5t-102.5 -131.5t-130.5 -95t-159 -40q-217 0 -217 301q0 113 22.5 219t71.5 202.5t120.5 168.5t178 114.5t234.5 42.5q137 0 278 -29 l-215 -1124q-12 -67 -35.5 -123.5t-67 -110.5t-103 -91.5t-148.5 -60.5t-199 -23q-138 0 -254 34zM193 301q0 -227 129 -227q69 0 141.5 51.5t132.5 134t112.5 183t88 199.5t51.5 183l18 97q-90 22 -176 22q-106 0 -192 -39t-142 -103t-93.5 -149t-53.5 -173t-16 -179z" />
<glyph unicode="h" horiz-adv-x="1181" d="M123 0l266 1399l2 6q-74 13 -172 20l10 56q118 15 223 15q31 0 62 -1l-100 -524q-22 -130 -119 -436l4 -3q39 99 89.5 185t114.5 159.5t143.5 116.5t162.5 43q135 0 187 -91q33 -57 32 -144q0 -53 -12 -117l-131 -684h-107l127 664q14 72 14 125q-1 53 -15 87 q-28 68 -116 68q-68 0 -140.5 -51.5t-132.5 -133.5t-112 -181.5t-87 -198t-50 -180.5l-37 -199h-106z" />
<glyph unicode="i" horiz-adv-x="546" d="M143 0l176 922l3 6q-76 13 -172 20l10 56q118 15 223 15q31 0 61 -1l-194 -1018h-107zM367 1294q0 40 25.5 66t60.5 26q31 0 52 -21t21 -50q0 -40 -25.5 -66t-60.5 -26q-31 0 -52 21t-21 50z" />
<glyph unicode="j" horiz-adv-x="546" d="M-279 -518l21 100q61 -22 123 -22q117 0 167.5 66t86.5 253l200 1043l3 6q-76 13 -172 20l10 56q118 15 223 15q31 0 61 -1l-227 -1186q-38 -194 -120.5 -279t-248.5 -85q-69 0 -127 14zM367 1294q0 40 25.5 66t60.5 26q31 0 52 -21t21 -50q0 -40 -25.5 -66t-60.5 -26 q-31 0 -52 21t-21 50z" />
<glyph unicode="k" horiz-adv-x="935" d="M123 0l266 1399l2 6q-74 13 -172 20l10 56q118 15 223 15q31 0 62 -1l-176 -928l510 492l67 -74l-460 -422l340 -563h-133l-324 565l-109 -565h-106z" />
<glyph unicode="l" horiz-adv-x="526" d="M123 0l266 1399l2 6q-74 13 -172 20l10 56q118 15 223 15q31 0 62 -1l-285 -1495h-106z" />
<glyph unicode="m" horiz-adv-x="1824" d="M143 0l176 922l3 6q-76 13 -172 20l10 56q118 15 226 15q32 0 63 -1q-34 -170 -134 -483l4 -3q29 77 66 148t86 136.5t102.5 113.5t117.5 77t130 29q100 0 150.5 -52.5t50.5 -145.5q0 -60 -15.5 -124.5t-52.5 -178.5l4 -3q29 77 66 148t86 136.5t102.5 113.5t117.5 77 t130 29q129 0 180 -92q31 -56 32 -141q0 -54 -13 -119l-131 -684h-107l127 664q14 74 14 127t-14 87q-26 68 -108 68q-97 0 -205 -114.5t-190.5 -287t-116.5 -345.5l-39 -199h-107l127 664q14 75 14 129q-1 52 -13 85q-26 68 -109 68q-96 0 -205 -116.5t-191.5 -288.5 t-115.5 -342l-39 -199h-107z" />
<glyph unicode="n" horiz-adv-x="1202" d="M143 0l176 922l3 6q-76 13 -172 20l10 56q118 15 226 15q32 0 63 -1q-28 -147 -134 -483l4 -3q39 99 89.5 185t114.5 159.5t143.5 116.5t162.5 43q135 0 187 -91q33 -57 32 -144q0 -53 -12 -117l-131 -684h-106l127 664q14 72 14 125t-14 87q-28 68 -117 68 q-68 0 -140.5 -51.5t-132.5 -133.5t-112 -181.5t-87 -198t-50 -180.5l-37 -199h-107z" />
<glyph unicode="o" horiz-adv-x="1093" d="M86 342q0 193 71 350.5t202 249.5t296 92q179 0 269 -97t90 -265q0 -153 -49 -284.5t-129.5 -218.5t-184.5 -136t-215 -49q-171 0 -260.5 91t-89.5 267zM199 365q0 -145 63 -218t199 -73q83 0 161 41.5t140 116t99.5 187.5t37.5 245q0 137 -65 209.5t-195 72.5 q-125 0 -227 -81.5t-157.5 -214t-55.5 -285.5z" />
<glyph unicode="p" horiz-adv-x="1134" d="M45 -516l274 1438l3 6q-76 13 -172 20l10 56q118 15 226 15q32 0 63 -1q-22 -119 -134 -494l4 -2q41 108 93.5 198.5t117 162.5t143 112.5t163.5 40.5q217 0 217 -301q0 -113 -22 -218.5t-71 -202t-121 -168t-178 -114t-235 -42.5q-83 0 -176 14l-98 -520h-107zM270 106 q85 -30 176 -30q105 0 190.5 39t141 102.5t93.5 148.5t54.5 172.5t16.5 178.5q0 227 -129 227q-85 0 -174.5 -78t-158.5 -194.5t-119.5 -242t-71.5 -230.5z" />
<glyph unicode="q" horiz-adv-x="1093" d="M82 283q0 113 22 218.5t71 202.5t121 169t178 114.5t235 42.5q137 0 278 -29l-270 -1421l-2 -6q79 -13 172 -20l-10 -56q-118 -15 -223 -15q-32 0 -62 1l98 516q34 179 133 502l-4 2q-24 -61 -50.5 -118t-76 -134.5t-103.5 -133.5t-131 -96t-159 -40q-217 0 -217 301z M193 301q0 -227 131 -227q85 0 174 78t158 195t120 244.5t72 233.5l18 97q-90 22 -176 22q-106 0 -192 -39t-142 -103t-93.5 -149t-53.5 -173t-16 -179z" />
<glyph unicode="r" horiz-adv-x="768" d="M143 0l176 922l3 6q-76 13 -172 20l10 56q118 15 224 15q32 0 62 -1q-30 -163 -122 -443l4 -2q55 124 96 199.5t100.5 150.5t131.5 101q42 15 89 15q33 0 68 -7l-18 -108q-25 9 -51 9q-32 0 -64 -14q-59 -26 -109 -84.5t-97 -136t-82.5 -162.5t-60.5 -161t-36 -135 l-45 -240h-107z" />
<glyph unicode="s" horiz-adv-x="788" d="M43 -4l20 110q89 -26 175 -26q126 0 201 52.5t75 150.5q0 38 -19.5 71.5t-50.5 59t-68.5 51t-75 53.5t-68.5 59t-50.5 74t-19.5 94q0 126 98 207.5t272 81.5q95 0 177 -16l-21 -98q-77 26 -170 26q-116 0 -181 -52.5t-65 -135.5q0 -54 36.5 -99.5t88 -80.5t103.5 -71.5 t88.5 -89.5t36.5 -118q0 -132 -112.5 -223.5t-301.5 -91.5q-91 0 -168 12z" />
<glyph unicode="t" horiz-adv-x="739" d="M78 932l18 86h238l65 348l115 31l-74 -379h314l-19 -86h-311l-115 -604q-15 -78 -14 -129q0 -41 9 -64q22 -51 112 -51q88 0 153 18v-98q-95 -18 -172 -18q-146 0 -190 72q-25 42 -25 116q0 54 13 125l120 633h-237z" />
<glyph unicode="u" horiz-adv-x="1222" d="M150 948l10 56q118 15 223 15q31 0 61 -1l-127 -664q-14 -72 -14 -125q1 -53 15 -87q28 -68 116 -68q68 0 140.5 51.5t132.5 133.5t112 181.5t87 198t50 180.5l37 199h107l-178 -928q74 -13 172 -20l-13 -56q-117 -15 -223 -15q-32 0 -63 1q29 155 133 483l-4 2 q-39 -98 -89.5 -184.5t-114.5 -160t-143.5 -116t-162.5 -42.5q-134 0 -186 91q-33 57 -33 144q0 53 12 117l112 588l3 6q-76 13 -172 20z" />
<glyph unicode="v" horiz-adv-x="925" d="M127 1018h119l121 -750q15 -92 20 -153h2l498 944l94 -43l-557 -1016h-111z" />
<glyph unicode="w" horiz-adv-x="1570" d="M147 1018h117l66 -696q16 -176 16 -211h2q137 276 455 907h133l96 -694q20 -159 23 -215h2q40 84 463 950l96 -41l-516 -1018h-129l-103 713q-15 113 -20 182h-2q-104 -209 -156.5 -315t-57.5 -116t-8.5 -16.5t-8.5 -16.5t-57.5 -116t-156.5 -315h-137z" />
<glyph unicode="x" horiz-adv-x="1028" d="M-33 29l486 485l-271 504h129l219 -424l451 465l70 -68l-476 -481l287 -510h-133l-231 430l-459 -475z" />
<glyph unicode="y" horiz-adv-x="942" d="M-293 -516l21 106q56 -20 131 -20q58 0 127 40t131 109q73 83 105 172t32 215q0 187 -37 427t-104 485h123q57 -228 91.5 -466.5t34.5 -401.5q0 -78 -20 -166h2q262 441 530 1075l99 -35q-432 -1021 -791 -1378q-179 -176 -340 -176q-80 0 -135 14z" />
<glyph unicode="z" horiz-adv-x="868" d="M2 0l14 76l684 850q-152 -4 -292 -4h-222l21 96h639l-15 -74l-684 -848q136 4 299 4h236l-20 -100h-660z" />
<glyph unicode="{" horiz-adv-x="645" d="M82 608l18 94q135 7 189 53.5t78 168.5l57 301q66 344 326 344h34l-14 -80q-111 0 -165 -57.5t-81 -198.5l-57 -299q-51 -258 -244 -281v-4q89 -13 123 -85t12 -187l-84 -436q-26 -141 5 -197.5t139 -56.5l-15 -82h-30q-264 0 -197 344l86 438q23 117 -16 165t-164 56z " />
<glyph unicode="|" horiz-adv-x="577" d="M41 -512l399 2048h86l-399 -2048h-86z" />
<glyph unicode="}" horiz-adv-x="647" d="M-92 -393l16 82q111 0 164 56.5t80 197.5l82 434q47 256 244 280v5q-89 13 -123.5 85t-12.5 187l60 301q28 140 -4 198t-140 58l15 80h24q60 0 103.5 -19t67.5 -51t35 -76.5t10 -93.5t-13 -104l-61 -303q-23 -117 16.5 -166t163.5 -56l-19 -94q-135 -7 -188.5 -53 t-77.5 -168l-82 -436q-33 -176 -108 -260t-217 -84h-35z" />
<glyph unicode="~" horiz-adv-x="1200" d="M123 569q123 105 250 105q59 0 111 -15t90.5 -36t76 -42t84.5 -36t99 -15q44 0 99 29t101 70l43 -74q-134 -117 -260 -117q-73 0 -139 23t-107.5 50t-97 50t-108.5 23q-95 0 -203 -90z" />
<glyph unicode="&#xa1;" horiz-adv-x="598" d="M59 -408l236 1125h84l-193 -1125h-127zM293 948q0 37 24.5 62.5t61.5 25.5t61.5 -25.5t24.5 -62.5t-24.5 -62.5t-61.5 -25.5t-61.5 25.5t-24.5 62.5z" />
<glyph unicode="&#xa2;" horiz-adv-x="917" d="M90 432q0 139 41 253.5t112 191t162.5 122.5t196.5 58l35 186h92l-35 -182q124 -3 230 -49l-37 -92q-102 51 -232 51q-199 0 -325.5 -148t-126.5 -370q0 -124 66 -197.5t214 -73.5q154 0 283 66v-98q-121 -56 -258 -64l-43 -225h-90l43 225q-155 11 -241.5 98.5 t-86.5 247.5z" />
<glyph unicode="&#xa3;" horiz-adv-x="1003" d="M29 0l12 78q83 66 136 112.5t94.5 96t63 86.5t38 94.5t23 108.5t14.5 139h-246l16 84h236q2 18 6 73.5t7 87.5t8.5 77t11.5 77q32 170 130.5 252t270.5 82q81 0 147 -14l-18 -95q-80 21 -152 21q-223 0 -272 -252q-11 -61 -31 -309h320l-15 -84h-313q-7 -80 -15 -134.5 t-22.5 -113t-37 -102.5t-57 -91.5t-82.5 -91.5t-114 -92q90 8 177 8h423l-18 -98h-741z" />
<glyph unicode="&#xa4;" horiz-adv-x="1099" d="M61 41l191 192q-71 100 -35 281q30 162 150 262l-125 205l82 57l112 -215q81 47 193 47q113 0 180 -47l203 215l53 -57l-209 -213q59 -86 27 -250q-27 -152 -133 -250l137 -225l-82 -59l-125 231q-97 -63 -215 -63q-93 0 -154 34l-188 -202zM319 516q-24 -125 18 -201.5 t167 -76.5q93 0 172.5 78.5t103.5 203.5q22 119 -21 191.5t-167 72.5q-98 0 -174 -74t-99 -194z" />
<glyph unicode="&#xa5;" horiz-adv-x="1167" d="M49 225l14 84h351l32 166h-350l17 84h323l-241 823h116l150 -532q32 -108 63 -254h2q37 69 172 274l340 512h123l-565 -823h324l-17 -84h-348l-33 -166h348l-14 -84h-350l-43 -225h-107l41 225h-348z" />
<glyph unicode="&#xa6;" horiz-adv-x="577" d="M47 -512l150 774h86l-150 -774h-86zM297 782l147 754h86l-147 -754h-86z" />
<glyph unicode="&#xa7;" horiz-adv-x="958" d="M113 -326l20 105q53 -29 129 -29q108 0 175 69.5t67 172.5q0 58 -29.5 129t-71.5 139.5t-84 138.5t-71.5 149t-30.5 150q0 96 46 186t134 154q-22 58 -22 138q0 66 22.5 126.5t65 109t111.5 77.5t155 29q51 0 125 -9l-16 -96q-68 14 -115 14q-120 0 -179 -67.5 t-59 -171.5q0 -61 29 -133t70 -140t82.5 -137t70.5 -147t29 -148q0 -99 -45 -186.5t-131 -149.5q26 -60 26 -137q0 -94 -45 -174.5t-131.5 -131t-195.5 -50.5q-86 0 -131 20zM326 733q0 -33 9.5 -71.5t19.5 -67.5t38 -82.5t42.5 -80t56.5 -98t59 -100.5q42 29 74 92.5 t32 129.5q1 70 -32 144.5t-96 179t-93 169.5q-49 -32 -79.5 -92.5t-30.5 -122.5z" />
<glyph unicode="&#xa8;" horiz-adv-x="1095" d="M324 1348q0 36 24 60t58 24q33 0 55 -22.5t22 -53.5q0 -36 -24 -60t-58 -24q-33 0 -55 22.5t-22 53.5zM696 1348q0 36 24 60t58 24q33 0 55.5 -22.5t22.5 -53.5q0 -36 -24 -60t-58 -24q-33 0 -55.5 22.5t-22.5 53.5z" />
<glyph unicode="&#xa9;" horiz-adv-x="1505" d="M104 686q2 137 58 262t148 215t218.5 143.5t264.5 53.5t262 -52.5t212 -141.5t138.5 -213.5t48.5 -262.5q-3 -183 -96 -338.5t-249.5 -245.5t-340.5 -90q-190 0 -343.5 89t-238.5 242.5t-82 338.5zM201 690q-3 -159 71.5 -294t207 -214.5t290.5 -79.5t293 78t214.5 212.5 t82.5 293.5q3 157 -71.5 292t-207 214.5t-290.5 79.5t-293 -77.5t-214.5 -211.5t-82.5 -293zM463 676q0 60 11 113.5t37.5 102.5t66.5 84t101 56t138 21q70 0 156 -23l-4 -90q-86 33 -166 33q-65 0 -112 -22.5t-73.5 -63.5t-38.5 -91t-12 -112q0 -274 228 -274q88 0 180 30 l2 -84q-81 -30 -195 -30q-319 0 -319 350z" />
<glyph unicode="&#xaa;" horiz-adv-x="778" d="M182 922q0 124 45 228.5t140 171.5t225 67q97 0 199 -15q-88 -454 -105 -553q70 -11 111 -14l-11 -57q-127 -17 -213 -11q11 65 66 228h-2q-50 -112 -126 -175t-167 -63q-162 0 -162 193zM281 944q0 -70 21 -99.5t63 -29.5q101 0 187 124.5t120 295.5l12 63 q-56 13 -113 13q-89 0 -157 -55t-100.5 -137t-32.5 -175z" />
<glyph unicode="&#xab;" horiz-adv-x="958" d="M131 500l283 344l71 -62l-243 -284l176 -277l-82 -59zM475 500l299 344l72 -62l-260 -284l192 -277l-82 -59z" />
<glyph unicode="&#xac;" horiz-adv-x="1024" d="M82 494v92h840v-428h-93v336h-747z" />
<glyph unicode="&#xad;" horiz-adv-x="667" d="M102 463v88h463v-88h-463z" />
<glyph unicode="&#xae;" horiz-adv-x="1126" d="M238 1085q3 175 130 299.5t302 124.5q180 0 299 -122t116 -302q-2 -113 -61 -210.5t-158 -155t-211 -57.5q-181 0 -300.5 122t-116.5 301zM326 1090q-2 -141 94.5 -244t234.5 -103q140 0 240.5 99.5t101.5 238.5q2 141 -94.5 243.5t-234.5 102.5q-140 0 -240.5 -99 t-101.5 -238zM526 850v477h136q157 0 157 -119q0 -60 -36 -96.5t-97 -42.5q40 -43 70 -90l86 -129h-97l-139 215h-4v-215h-76zM602 1114h35q55 0 79.5 25t24.5 59q0 36 -19.5 52t-64.5 16h-55v-152z" />
<glyph unicode="&#xaf;" horiz-adv-x="851" d="M367 1296v86h452v-86h-452z" />
<glyph unicode="&#xb0;" horiz-adv-x="731" d="M283 1249q0 115 75.5 183.5t176.5 68.5q112 0 170.5 -64.5t58.5 -158.5q0 -110 -78 -179t-178 -69q-105 0 -165 61t-60 158zM379 1255q0 -67 36.5 -107t98.5 -40q65 0 109.5 45.5t44.5 118.5q0 26 -6.5 50t-21.5 48t-44.5 38.5t-71.5 14.5q-61 0 -103 -46t-42 -122z" />
<glyph unicode="&#xb1;" horiz-adv-x="1239" d="M-2 -92l18 92h928l-18 -92h-928zM121 573l16 93h422l84 436h100l-84 -436h422l-18 -93h-422l-84 -438h-100l84 438h-420z" />
<glyph unicode="&#xb2;" horiz-adv-x="669" d="M80 553l14 80l279 231q105 88 155 158.5t50 136.5q0 148 -146 148q-109 0 -199 -58v92q96 52 216 52q114 0 174.5 -57t60.5 -160q0 -86 -58 -172.5t-173 -182.5l-209 -174q163 7 385 4l-19 -98h-530z" />
<glyph unicode="&#xb3;" horiz-adv-x="618" d="M96 553l33 96q67 -24 127 -24q103 0 164 57t61 141q0 68 -68 99.5t-208 13.5l18 86q152 0 236 49t84 133q0 103 -115 103q-78 0 -168 -39v92q98 33 176 33q107 0 160 -44.5t53 -123.5q0 -83 -50 -144.5t-142 -87.5q64 -10 99.5 -53.5t35.5 -105.5q0 -121 -100 -209 t-248 -88q-70 0 -148 16z" />
<glyph unicode="&#xb4;" horiz-adv-x="770" d="M287 1260l250 227l67 -76l-264 -211z" />
<glyph unicode="&#xb6;" horiz-adv-x="1120" d="M231 866q0 90 34 180.5t95.5 166t160 122.5t216.5 47l-159 -841q-172 -1 -259.5 88.5t-87.5 236.5zM432 -197l14 80h154l285 1499h260l-12 -79h-154l-287 -1500h-260z" />
<glyph unicode="&#xb7;" horiz-adv-x="401" d="M121 592q3 40 31.5 67t66.5 27q40 0 64.5 -27t21.5 -67t-31.5 -67t-66.5 -27q-40 0 -64.5 27t-21.5 67z" />
<glyph unicode="&#xb8;" horiz-adv-x="802" d="M197 -424q110 76 143.5 154.5t7.5 165.5h115q13 -42 7 -89t-28.5 -92.5t-74.5 -96t-131 -99.5z" />
<glyph unicode="&#xb9;" horiz-adv-x="499" d="M170 1200v96l254 86h86l-162 -829h-108l141 725z" />
<glyph unicode="&#xba;" horiz-adv-x="829" d="M205 954q0 114 43 214t128.5 164.5t194.5 64.5q127 0 188.5 -59.5t61.5 -170.5q0 -108 -34 -194.5t-90 -138t-122 -78.5t-137 -27q-233 0 -233 225zM319 977q0 -75 34 -115.5t102 -40.5q108 0 180 94.5t72 235.5q0 68 -33.5 112t-110.5 44q-64 0 -113.5 -33t-76.5 -84.5 t-40.5 -106t-13.5 -106.5z" />
<glyph unicode="&#xbb;" horiz-adv-x="958" d="M129 221l260 285l-192 276l82 60l221 -338l-299 -344zM489 221l244 285l-176 276l82 60l205 -338l-283 -344z" />
<glyph unicode="&#xbc;" horiz-adv-x="1792" d="M135 -190l1213 1726l75 -53l-1212 -1725zM170 1200v96l254 86h86l-162 -829h-108l141 725zM993 197v71l461 561h150l-105 -542h143l-16 -90h-143l-39 -197h-101l39 197h-389zM1114 283q78 4 285 4l86 450z" />
<glyph unicode="&#xbd;" horiz-adv-x="1861" d="M135 -190l1213 1726l75 -53l-1212 -1725zM170 1200v96l254 86h86l-162 -829h-108l141 725zM1063 0l14 76l275 233q106 90 155 161.5t49 141.5q0 142 -145 142q-109 0 -199 -58v92q96 52 215 52q114 0 175 -57.5t61 -159.5q0 -87 -57.5 -171t-178.5 -184l-210 -174 q169 7 391 4l-19 -98h-526z" />
<glyph unicode="&#xbe;" horiz-adv-x="1910" d="M100 553l33 96q67 -24 127 -24q103 0 164 57t61 141q0 68 -68 99.5t-208 13.5l18 86q152 0 236 49t84 133q0 103 -115 103q-78 0 -168 -39v92q98 33 176 33q107 0 160 -44.5t53 -123.5q0 -83 -50 -144.5t-142 -87.5q64 -10 99.5 -53.5t35.5 -105.5q0 -121 -100 -209 t-248 -88q-70 0 -148 16zM279 -190l1212 1726l76 -53l-1213 -1725zM1176 197v69l462 563h148l-105 -542h144l-17 -90h-143l-39 -197h-100l39 197h-389zM1296 283q78 4 285 4l86 450z" />
<glyph unicode="&#xbf;" horiz-adv-x="831" d="M51 -57q0 66 26.5 123t68 99.5t91.5 84t97 86.5t84 96.5t54 124.5t5 160h109q12 -91 -5 -168.5t-53 -132.5t-82 -103t-94.5 -89t-89 -81.5t-66.5 -90.5t-26 -105q0 -96 94 -169t244 -95l-33 -101q-193 26 -308.5 128t-115.5 233zM471 948q0 37 24.5 62.5t61.5 25.5 t61.5 -25.5t24.5 -62.5t-24.5 -62.5t-61.5 -25.5t-61.5 25.5t-24.5 62.5z" />
<glyph unicode="&#xc0;" horiz-adv-x="1220" d="M-63 0l780 1382h114l248 -1382h-118l-58 362h-641l-201 -362h-124zM311 453h576l-109 620q-18 107 -26 193h-2q-42 -91 -95 -187zM608 1718l84 76l205 -227l-66 -60z" />
<glyph unicode="&#xc1;" horiz-adv-x="1220" d="M-63 0l780 1382h114l248 -1382h-118l-58 362h-641l-201 -362h-124zM311 453h576l-109 620q-18 107 -26 193h-2q-42 -91 -95 -187zM692 1567l250 227l68 -76l-265 -211z" />
<glyph unicode="&#xc2;" horiz-adv-x="1220" d="M-63 0l780 1382h114l248 -1382h-118l-58 362h-641l-201 -362h-124zM311 453h576l-109 620q-18 107 -26 193h-2q-42 -91 -95 -187zM541 1575l274 201l244 -195l-70 -63l-186 147l-207 -147z" />
<glyph unicode="&#xc3;" horiz-adv-x="1220" d="M-63 0l780 1382h114l248 -1382h-118l-58 362h-641l-201 -362h-124zM311 453h576l-109 620q-18 107 -26 193h-2q-42 -91 -95 -187zM492 1665q79 76 182 76q53 0 104 -23.5t97 -47t90 -23.5q80 0 139 59l35 -72q-88 -73 -185 -73q-46 0 -88 14.5t-68.5 32.5t-64 32.5 t-74.5 14.5q-75 0 -135 -60z" />
<glyph unicode="&#xc4;" horiz-adv-x="1220" d="M-63 0l780 1382h114l248 -1382h-118l-58 362h-641l-201 -362h-124zM311 453h576l-109 620q-18 107 -26 193h-2q-42 -91 -95 -187zM547 1614q0 36 24 60t58 24q33 0 55.5 -22.5t22.5 -53.5q0 -36 -24 -60t-58 -24q-33 0 -55.5 22.5t-22.5 53.5zM920 1614q0 36 23.5 60 t57.5 24q33 0 55.5 -22.5t22.5 -53.5q0 -36 -24 -60t-58 -24q-33 0 -55 22.5t-22 53.5z" />
<glyph unicode="&#xc5;" horiz-adv-x="1220" d="M-63 0l780 1382h114l248 -1382h-118l-58 362h-641l-201 -362h-124zM311 453h576l-109 620q-18 107 -26 193h-2q-42 -91 -95 -187zM590 1573q6 84 69.5 142.5t145.5 58.5q86 0 139 -58t47 -143q-6 -80 -69.5 -140.5t-145.5 -60.5q-85 0 -138.5 57t-47.5 144zM674 1573 q-3 -52 27.5 -87.5t80.5 -35.5q49 0 85.5 36t39.5 87q3 52 -27.5 87.5t-80.5 35.5q-49 0 -85.5 -36t-39.5 -87z" />
<glyph unicode="&#xc6;" horiz-adv-x="1538" d="M-193 0l1029 1382h704l-16 -88h-537l-102 -536h516l-17 -88h-516l-112 -580h561l-17 -90h-669l69 362h-499l-267 -362h-127zM266 453h453l158 835h-7q-89 -132 -190 -270z" />
<glyph unicode="&#xc7;" horiz-adv-x="1177" d="M119 451q0 151 31.5 290t96.5 258t156.5 207.5t218 138.5t275.5 50q164 0 317 -43l-20 -105q-160 58 -324 58q-127 0 -233 -47t-179 -127.5t-123.5 -188.5t-73.5 -228t-23 -249q0 -88 19.5 -155t63.5 -120.5t123 -81.5t191 -28q186 0 356 80v-97q-189 -79 -389 -79 q-483 0 -483 467zM381 -424q110 76 143.5 154.5t7.5 165.5h115q13 -42 7 -89t-28.5 -92.5t-74.5 -96t-131 -99.5z" />
<glyph unicode="&#xc8;" horiz-adv-x="1021" d="M104 0l263 1382h657l-16 -88h-549l-103 -536h525l-17 -88h-524l-109 -580h549l-18 -90h-658zM526 1718l84 76l205 -227l-65 -60z" />
<glyph unicode="&#xc9;" horiz-adv-x="1021" d="M104 0l263 1382h657l-16 -88h-549l-103 -536h525l-17 -88h-524l-109 -580h549l-18 -90h-658zM635 1567l250 227l67 -76l-264 -211z" />
<glyph unicode="&#xca;" horiz-adv-x="1021" d="M104 0l263 1382h657l-16 -88h-549l-103 -536h525l-17 -88h-524l-109 -580h549l-18 -90h-658zM453 1575l274 201l244 -195l-70 -63l-186 147l-207 -147z" />
<glyph unicode="&#xcb;" horiz-adv-x="1021" d="M104 0l263 1382h657l-16 -88h-549l-103 -536h525l-17 -88h-524l-109 -580h549l-18 -90h-658zM467 1614q0 36 24 60t58 24q33 0 55.5 -22.5t22.5 -53.5q0 -36 -24 -60t-58 -24q-33 0 -55.5 22.5t-22.5 53.5zM840 1614q0 36 24 60t58 24q33 0 55 -22.5t22 -53.5 q0 -36 -23.5 -60t-57.5 -24q-33 0 -55.5 22.5t-22.5 53.5z" />
<glyph unicode="&#xcc;" horiz-adv-x="509" d="M104 0l263 1382h108l-262 -1382h-109zM268 1718l84 76l205 -227l-65 -60z" />
<glyph unicode="&#xcd;" horiz-adv-x="509" d="M104 0l263 1382h108l-262 -1382h-109zM342 1567l250 227l67 -76l-264 -211z" />
<glyph unicode="&#xce;" horiz-adv-x="509" d="M104 0l263 1382h108l-262 -1382h-109zM195 1575l274 201l244 -195l-70 -63l-186 147l-207 -147z" />
<glyph unicode="&#xcf;" horiz-adv-x="509" d="M104 0l263 1382h108l-262 -1382h-109zM182 1614q0 36 24 60t58 24q33 0 55.5 -22.5t22.5 -53.5q0 -36 -24 -60t-58 -24q-33 0 -55.5 22.5t-22.5 53.5zM555 1614q0 36 24 60t58 24q33 0 55.5 -22.5t22.5 -53.5q0 -36 -24 -60t-58 -24q-33 0 -55.5 22.5t-22.5 53.5z" />
<glyph unicode="&#xd0;" horiz-adv-x="1402" d="M25 674v86h243l119 622q50 0 177 3.5t188 3.5q134 0 238.5 -26.5t171.5 -71.5t110.5 -110.5t61.5 -137.5t18 -158q0 -97 -17 -190.5t-53.5 -182.5t-89.5 -166.5t-128 -142.5t-166.5 -111t-209 -72t-250.5 -26q-70 0 -170.5 3.5t-142.5 2.5l127 674h-227zM252 98 q110 -14 203 -14q161 0 293.5 44t222 119t150.5 176.5t88.5 213.5t27.5 233q0 96 -25 170.5t-80.5 134.5t-156.5 92.5t-242 32.5q-71 0 -254 -6l-102 -534h313v-86h-330z" />
<glyph unicode="&#xd1;" d="M102 0l263 1382h129l438 -995q59 -131 115 -283q95 552 100 578l127 700h110l-264 -1382h-127l-440 997q-77 176 -113 287q-47 -311 -106 -633l-121 -651h-111zM596 1665q79 76 182 76q53 0 104 -23.5t97 -47t90 -23.5q80 0 139 59l35 -72q-88 -73 -184 -73 q-46 0 -88 14.5t-68.5 32.5t-64 32.5t-74.5 14.5q-75 0 -135 -60z" />
<glyph unicode="&#xd2;" d="M113 483q0 249 101 459t279.5 333.5t395.5 123.5q231 0 358 -130.5t127 -367.5q0 -256 -104.5 -467t-284 -330.5t-393.5 -119.5q-237 0 -358 129t-121 370zM233 496q0 -194 96 -306t275 -112q129 0 248 62t207.5 168.5t141 258.5t52.5 322q0 199 -96.5 308.5 t-286.5 109.5q-178 0 -324.5 -108.5t-229.5 -294.5t-83 -408zM733 1718l84 76l205 -227l-66 -60z" />
<glyph unicode="&#xd3;" d="M113 483q0 249 101 459t279.5 333.5t395.5 123.5q231 0 358 -130.5t127 -367.5q0 -256 -104.5 -467t-284 -330.5t-393.5 -119.5q-237 0 -358 129t-121 370zM233 496q0 -194 96 -306t275 -112q129 0 248 62t207.5 168.5t141 258.5t52.5 322q0 199 -96.5 308.5 t-286.5 109.5q-178 0 -324.5 -108.5t-229.5 -294.5t-83 -408zM856 1567l250 227l68 -76l-265 -211z" />
<glyph unicode="&#xd4;" d="M113 483q0 249 101 459t279.5 333.5t395.5 123.5q231 0 358 -130.5t127 -367.5q0 -256 -104.5 -467t-284 -330.5t-393.5 -119.5q-237 0 -358 129t-121 370zM233 496q0 -194 96 -306t275 -112q129 0 248 62t207.5 168.5t141 258.5t52.5 322q0 199 -96.5 308.5 t-286.5 109.5q-178 0 -324.5 -108.5t-229.5 -294.5t-83 -408zM713 1575l274 201l244 -195l-70 -63l-186 147l-207 -147z" />
<glyph unicode="&#xd5;" d="M113 483q0 249 101 459t279.5 333.5t395.5 123.5q231 0 358 -130.5t127 -367.5q0 -256 -104.5 -467t-284 -330.5t-393.5 -119.5q-237 0 -358 129t-121 370zM233 496q0 -194 96 -306t275 -112q129 0 248 62t207.5 168.5t141 258.5t52.5 322q0 199 -96.5 308.5 t-286.5 109.5q-178 0 -324.5 -108.5t-229.5 -294.5t-83 -408zM625 1665q79 76 182 76q53 0 104 -23.5t97 -47t90 -23.5q80 0 139 59l35 -72q-88 -73 -185 -73q-46 0 -88 14.5t-68.5 32.5t-63.5 32.5t-74 14.5q-76 0 -136 -60z" />
<glyph unicode="&#xd6;" d="M113 483q0 249 101 459t279.5 333.5t395.5 123.5q231 0 358 -130.5t127 -367.5q0 -256 -104.5 -467t-284 -330.5t-393.5 -119.5q-237 0 -358 129t-121 370zM233 496q0 -194 96 -306t275 -112q129 0 248 62t207.5 168.5t141 258.5t52.5 322q0 199 -96.5 308.5 t-286.5 109.5q-178 0 -324.5 -108.5t-229.5 -294.5t-83 -408zM682 1614q0 36 24 60t58 24q33 0 55.5 -22.5t22.5 -53.5q0 -36 -24 -60t-58 -24q-33 0 -55.5 22.5t-22.5 53.5zM1055 1614q0 36 24 60t58 24q33 0 55 -22.5t22 -53.5q0 -36 -23.5 -60t-57.5 -24 q-33 0 -55.5 22.5t-22.5 53.5z" />
<glyph unicode="&#xd7;" horiz-adv-x="1191" d="M109 141l440 369l-299 371l74 61l299 -371l446 373l51 -63l-446 -373l297 -369l-74 -61l-297 368l-438 -368z" />
<glyph unicode="&#xd8;" d="M113 483q0 249 101 459t279.5 333.5t395.5 123.5q87 0 174 -23l108 195l80 -43l-104 -187q111 -56 169 -168t58 -272q0 -256 -104.5 -467t-284 -330.5t-393.5 -119.5q-102 0 -191 26l-116 -209l-80 43l112 203q-204 116 -204 436zM233 496q0 -245 142 -349l637 1141 q-65 19 -142 19q-178 0 -324.5 -108.5t-229.5 -294.5t-83 -408zM455 102q65 -24 149 -24q129 0 248 62t207.5 168.5t141 258.5t52.5 322q0 256 -157 360z" />
<glyph unicode="&#xd9;" horiz-adv-x="1409" d="M171.5 330q1.5 58 14.5 127l176 925h109l-176 -919q-38 -198 32 -293.5t283 -95.5q208 0 328 101.5t166 346.5l164 860h106l-166 -876q-51 -266 -202.5 -394t-409.5 -128q-97 0 -171 16.5t-122.5 48t-79 73t-42 96t-10 112.5zM719 1718l84 76l205 -227l-66 -60z" />
<glyph unicode="&#xda;" horiz-adv-x="1409" d="M171.5 330q1.5 58 14.5 127l176 925h109l-176 -919q-38 -198 32 -293.5t283 -95.5q208 0 328 101.5t166 346.5l164 860h106l-166 -876q-51 -266 -202.5 -394t-409.5 -128q-97 0 -171 16.5t-122.5 48t-79 73t-42 96t-10 112.5zM813 1567l250 227l67 -76l-264 -211z" />
<glyph unicode="&#xdb;" horiz-adv-x="1409" d="M171.5 330q1.5 58 14.5 127l176 925h109l-176 -919q-38 -198 32 -293.5t283 -95.5q208 0 328 101.5t166 346.5l164 860h106l-166 -876q-51 -266 -202.5 -394t-409.5 -128q-97 0 -171 16.5t-122.5 48t-79 73t-42 96t-10 112.5zM666 1575l274 201l244 -195l-70 -63 l-186 147l-207 -147z" />
<glyph unicode="&#xdc;" horiz-adv-x="1409" d="M171.5 330q1.5 58 14.5 127l176 925h109l-176 -919q-38 -198 32 -293.5t283 -95.5q208 0 328 101.5t166 346.5l164 860h106l-166 -876q-51 -266 -202.5 -394t-409.5 -128q-97 0 -171 16.5t-122.5 48t-79 73t-42 96t-10 112.5zM635 1614q0 36 24 60t58 24q33 0 55.5 -22.5 t22.5 -53.5q0 -36 -24 -60t-58 -24q-33 0 -55.5 22.5t-22.5 53.5zM1008 1614q0 36 24 60t58 24q33 0 55 -22.5t22 -53.5q0 -36 -24 -60t-58 -24q-33 0 -55 22.5t-22 53.5z" />
<glyph unicode="&#xdd;" horiz-adv-x="1028" d="M197 1382h112l150 -532q32 -108 63 -252h2q40 72 174 274l336 510h127l-600 -876l-96 -506h-109l97 506zM580 1567l249 227l68 -76l-264 -211z" />
<glyph unicode="&#xde;" horiz-adv-x="1034" d="M102 -2l263 1384h108l-43 -233q94 6 217 6q202 0 301 -89t99 -237q0 -99 -42 -192.5t-119.5 -169t-200.5 -121t-273 -45.5q-56 0 -142 12l-59 -315h-109zM287 403q94 -12 143 -12q119 0 216.5 36.5t158.5 97t94 136t33 156.5q0 120 -78.5 185t-239.5 65q-122 0 -202 -12z " />
<glyph unicode="&#xdf;" horiz-adv-x="1118" d="M-389 -518l24 100q67 -20 150 -20q88 0 142.5 29.5t95 109t67.5 225.5l211 1108q46 248 167 362.5t323 114.5q129 0 200.5 -59.5t71.5 -151.5q0 -65 -21 -117t-54.5 -85t-74.5 -61t-81.5 -52.5t-74 -51t-54.5 -65t-21 -86.5q0 -56 28.5 -105t69 -87t81 -77.5t69 -94.5 t28.5 -119q0 -136 -111.5 -225.5t-283.5 -89.5q-87 0 -164 12l21 110q89 -26 162 -26q124 0 194 54.5t70 148.5q0 55 -28.5 103t-69 86t-80.5 77.5t-68.5 94t-28.5 118.5q0 61 21 110.5t54.5 82t74.5 60.5t81.5 53.5t74 53.5t54.5 68t21 90q0 67 -46.5 105t-131.5 38 q-290 0 -362 -379l-213 -1116q-26 -134 -65.5 -224t-96.5 -142t-125 -73t-160 -21q-66 0 -141 14z" />
<glyph unicode="&#xe0;" horiz-adv-x="1134" d="M82 283q0 113 22 218.5t71 202.5t121 169t178 114.5t235 42.5q137 0 278 -29l-174 -911q75 -13 170 -20l-10 -56q-153 -20 -289 -14q23 127 139 502l-4 2q-24 -61 -50.5 -118t-76 -134.5t-103.5 -133.5t-131 -96t-159 -40q-217 0 -217 301zM193 301q0 -227 129 -227 q69 0 141.5 51.5t132.5 134t112.5 183t88 199.5t51.5 183l18 97q-90 22 -176 22q-106 0 -192 -39t-142 -103t-93.5 -149t-53.5 -173t-16 -179zM539 1411l84 76l204 -227l-65 -60z" />
<glyph unicode="&#xe1;" horiz-adv-x="1134" d="M82 283q0 113 22 218.5t71 202.5t121 169t178 114.5t235 42.5q137 0 278 -29l-174 -911q75 -13 170 -20l-10 -56q-153 -20 -289 -14q23 127 139 502l-4 2q-24 -61 -50.5 -118t-76 -134.5t-103.5 -133.5t-131 -96t-159 -40q-217 0 -217 301zM193 301q0 -227 129 -227 q69 0 141.5 51.5t132.5 134t112.5 183t88 199.5t51.5 183l18 97q-90 22 -176 22q-106 0 -192 -39t-142 -103t-93.5 -149t-53.5 -173t-16 -179zM678 1260l250 227l67 -76l-264 -211z" />
<glyph unicode="&#xe2;" horiz-adv-x="1134" d="M82 283q0 113 22 218.5t71 202.5t121 169t178 114.5t235 42.5q137 0 278 -29l-174 -911q75 -13 170 -20l-10 -56q-153 -20 -289 -14q23 127 139 502l-4 2q-24 -61 -50.5 -118t-76 -134.5t-103.5 -133.5t-131 -96t-159 -40q-217 0 -217 301zM193 301q0 -227 129 -227 q69 0 141.5 51.5t132.5 134t112.5 183t88 199.5t51.5 183l18 97q-90 22 -176 22q-106 0 -192 -39t-142 -103t-93.5 -149t-53.5 -173t-16 -179zM481 1268l275 200l243 -194l-69 -64l-187 148l-206 -148z" />
<glyph unicode="&#xe3;" horiz-adv-x="1134" d="M82 283q0 113 22 218.5t71 202.5t121 169t178 114.5t235 42.5q137 0 278 -29l-174 -911q75 -13 170 -20l-10 -56q-153 -20 -289 -14q23 127 139 502l-4 2q-24 -61 -50.5 -118t-76 -134.5t-103.5 -133.5t-131 -96t-159 -40q-217 0 -217 301zM193 301q0 -227 129 -227 q69 0 141.5 51.5t132.5 134t112.5 183t88 199.5t51.5 183l18 97q-90 22 -176 22q-106 0 -192 -39t-142 -103t-93.5 -149t-53.5 -173t-16 -179zM416 1358q79 76 182 76q54 0 104.5 -24t96.5 -47.5t90 -23.5q79 0 139 60l35 -72q-89 -74 -184 -74q-46 0 -88 15t-68.5 32.5 t-64 32.5t-74.5 15q-75 0 -135 -60z" />
<glyph unicode="&#xe4;" horiz-adv-x="1134" d="M82 283q0 113 22 218.5t71 202.5t121 169t178 114.5t235 42.5q137 0 278 -29l-174 -911q75 -13 170 -20l-10 -56q-153 -20 -289 -14q23 127 139 502l-4 2q-24 -61 -50.5 -118t-76 -134.5t-103.5 -133.5t-131 -96t-159 -40q-217 0 -217 301zM193 301q0 -227 129 -227 q69 0 141.5 51.5t132.5 134t112.5 183t88 199.5t51.5 183l18 97q-90 22 -176 22q-106 0 -192 -39t-142 -103t-93.5 -149t-53.5 -173t-16 -179zM442 1348q0 36 24 60t58 24q33 0 55.5 -22.5t22.5 -53.5q0 -36 -24 -60t-58 -24q-33 0 -55.5 22.5t-22.5 53.5zM815 1348 q0 36 24 60t58 24q33 0 55.5 -22.5t22.5 -53.5q0 -36 -24 -60t-58 -24q-33 0 -55.5 22.5t-22.5 53.5z" />
<glyph unicode="&#xe5;" horiz-adv-x="1134" d="M82 283q0 113 22 218.5t71 202.5t121 169t178 114.5t235 42.5q137 0 278 -29l-174 -911q75 -13 170 -20l-10 -56q-153 -20 -289 -14q23 127 139 502l-4 2q-24 -61 -50.5 -118t-76 -134.5t-103.5 -133.5t-131 -96t-159 -40q-217 0 -217 301zM193 301q0 -227 129 -227 q69 0 141.5 51.5t132.5 134t112.5 183t88 199.5t51.5 183l18 97q-90 22 -176 22q-106 0 -192 -39t-142 -103t-93.5 -149t-53.5 -173t-16 -179zM578 1348q6 84 69 142t146 58q86 0 139 -57.5t47 -142.5q-6 -80 -69.5 -140.5t-145.5 -60.5q-85 0 -138.5 57t-47.5 144z M662 1348q-3 -52 27.5 -87.5t80.5 -35.5q49 0 85.5 36t39.5 87q3 52 -28 87t-81 35q-49 0 -85 -35.5t-39 -86.5z" />
<glyph unicode="&#xe6;" horiz-adv-x="1564" d="M45 178q0 63 19.5 114.5t51.5 89t84 67t106.5 48t129 33t141.5 22.5t154 15l17 80q32 153 -10 226t-177 73q-70 0 -159 -26.5t-158 -67.5v104q177 78 331 78q78 0 133.5 -15t86.5 -43t46 -58.5t23 -71.5q59 79 156.5 133.5t216.5 54.5q130 0 199 -60t69 -155 q0 -45 -12 -82.5t-40 -73.5t-79 -64.5t-125 -52.5t-181 -41t-245 -26q-12 -74 -12 -155q0 -75 13 -122.5t44.5 -75t77 -38t117.5 -10.5q147 0 278 59v-94q-134 -59 -321 -59q-156 0 -225 66.5t-88 189.5q-50 -101 -166.5 -178.5t-253.5 -77.5q-118 0 -180 51t-62 143z M162 209q0 -59 40.5 -96t102.5 -37q146 0 260.5 116.5t147.5 280.5q-86 -6 -150.5 -14t-131.5 -21t-112.5 -32t-83 -46t-55.5 -65t-18 -86zM846 578q89 6 154 13.5t131 19t110.5 28t80 39.5t52.5 55.5t17 73.5q0 67 -46 104t-122 37q-137 0 -234.5 -102.5t-142.5 -267.5z " />
<glyph unicode="&#xe7;" horiz-adv-x="860" d="M82 309q0 145 39 275t110 229.5t180.5 158t241.5 58.5q122 0 228 -37l-25 -94q-99 47 -215 47q-86 0 -160 -38t-125 -100t-87 -142t-53 -164.5t-17 -167.5q0 -40 4.5 -72.5t20 -67.5t41 -58t71 -38.5t106.5 -15.5q148 0 267 61v-96q-136 -57 -291 -57q-336 0 -336 319z M182 -424q110 76 144 154.5t8 165.5h115q13 -42 7 -89t-29 -92.5t-75 -96t-131 -99.5z" />
<glyph unicode="&#xe8;" horiz-adv-x="958" d="M88 299q0 111 21.5 217t66.5 200t108.5 165t153 112t193.5 41q130 0 199 -60t69 -155q0 -311 -680 -340q-14 -65 -14 -155q0 -75 13 -122.5t44.5 -75t77 -38t117.5 -10.5q147 0 278 59v-94q-134 -59 -321 -59q-164 0 -245 72t-81 243zM240 578q286 12 415 68.5t129 160.5 q0 67 -46 104t-122 37q-137 0 -235 -102.5t-141 -267.5zM473 1411l84 76l205 -227l-66 -60z" />
<glyph unicode="&#xe9;" horiz-adv-x="958" d="M88 299q0 111 21.5 217t66.5 200t108.5 165t153 112t193.5 41q130 0 199 -60t69 -155q0 -311 -680 -340q-14 -65 -14 -155q0 -75 13 -122.5t44.5 -75t77 -38t117.5 -10.5q147 0 278 59v-94q-134 -59 -321 -59q-164 0 -245 72t-81 243zM240 578q286 12 415 68.5t129 160.5 q0 67 -46 104t-122 37q-137 0 -235 -102.5t-141 -267.5zM594 1260l250 227l67 -76l-264 -211z" />
<glyph unicode="&#xea;" horiz-adv-x="958" d="M88 299q0 111 21.5 217t66.5 200t108.5 165t153 112t193.5 41q130 0 199 -60t69 -155q0 -311 -680 -340q-14 -65 -14 -155q0 -75 13 -122.5t44.5 -75t77 -38t117.5 -10.5q147 0 278 59v-94q-134 -59 -321 -59q-164 0 -245 72t-81 243zM240 578q286 12 415 68.5t129 160.5 q0 67 -46 104t-122 37q-137 0 -235 -102.5t-141 -267.5zM399 1268l275 200l244 -194l-70 -64l-186 148l-207 -148z" />
<glyph unicode="&#xeb;" horiz-adv-x="958" d="M88 299q0 111 21.5 217t66.5 200t108.5 165t153 112t193.5 41q130 0 199 -60t69 -155q0 -311 -680 -340q-14 -65 -14 -155q0 -75 13 -122.5t44.5 -75t77 -38t117.5 -10.5q147 0 278 59v-94q-134 -59 -321 -59q-164 0 -245 72t-81 243zM240 578q286 12 415 68.5t129 160.5 q0 67 -46 104t-122 37q-137 0 -235 -102.5t-141 -267.5zM420 1348q0 36 24 60t58 24q33 0 55.5 -22.5t22.5 -53.5q0 -36 -24 -60t-58 -24q-33 0 -55.5 22.5t-22.5 53.5zM793 1348q0 36 23.5 60t57.5 24q33 0 55.5 -22.5t22.5 -53.5q0 -36 -24 -60t-58 -24q-33 0 -55 22.5 t-22 53.5z" />
<glyph unicode="&#xec;" horiz-adv-x="546" d="M143 0l176 922l3 6q-76 13 -172 20l10 56q154 20 284 14l-194 -1018h-107zM211 1411l84 76l205 -227l-66 -60z" />
<glyph unicode="&#xed;" horiz-adv-x="546" d="M143 0l176 922l3 6q-76 13 -172 20l10 56q154 20 284 14l-194 -1018h-107zM287 1260l250 227l67 -76l-264 -211z" />
<glyph unicode="&#xee;" horiz-adv-x="546" d="M143 0l176 922l3 6q-76 13 -172 20l10 56q154 20 284 14l-194 -1018h-107zM154 1268l274 200l244 -194l-70 -64l-186 148l-207 -148z" />
<glyph unicode="&#xef;" horiz-adv-x="546" d="M143 0l176 922l3 6q-76 13 -172 20l10 56q154 20 284 14l-194 -1018h-107zM154 1348q0 36 24 60t58 24q33 0 55 -22.5t22 -53.5q0 -36 -24 -60t-58 -24q-33 0 -55 22.5t-22 53.5zM526 1348q0 36 24 60t58 24q33 0 55.5 -22.5t22.5 -53.5q0 -36 -24 -60t-58 -24 q-33 0 -55.5 22.5t-22.5 53.5z" />
<glyph unicode="&#xf0;" horiz-adv-x="1161" d="M92 344q0 94 22 188.5t69 183t112 156.5t158 109t200 41t175 -32.5t104 -104.5q7 130 -19.5 224t-97.5 183l-276 -147l-43 76l249 135q-112 74 -266 74q-38 0 -92 -7l16 86q32 4 72 4q112 0 199.5 -25t165.5 -83l221 119l43 -76l-203 -109q133 -163 133 -417 q0 -93 -8 -181.5t-27.5 -183.5t-49.5 -177t-77.5 -156t-108 -126t-144.5 -83t-183 -31q-92 0 -159.5 27.5t-107 77t-58.5 113t-19 142.5zM203 367q0 -128 66 -210.5t186 -82.5q78 0 144 28t110.5 72.5t79.5 104t55 117.5t33 118.5t17.5 102t4.5 71.5q0 33 -5.5 63.5t-22 65 t-43 59.5t-73 41.5t-106.5 16.5q-89 0 -165 -38.5t-126.5 -99.5t-86.5 -137.5t-52 -150.5t-16 -141z" />
<glyph unicode="&#xf1;" horiz-adv-x="1202" d="M143 0l176 922l3 6q-76 13 -172 20l10 56q154 20 289 14q-28 -147 -134 -483l4 -3q39 99 89.5 185t114.5 159.5t143.5 116.5t162.5 43q134 0 186.5 -91t20.5 -261l-131 -684h-106l127 664q28 145 -0.5 212.5t-116.5 67.5q-68 0 -140.5 -51.5t-132.5 -133.5t-112 -181.5 t-87 -198t-50 -180.5l-37 -199h-107zM420 1358q79 76 182 76q54 0 104.5 -24t96.5 -47.5t90 -23.5q79 0 139 60l35 -72q-89 -74 -184 -74q-46 0 -88 15t-68.5 32.5t-64 32.5t-74.5 15q-75 0 -135 -60z" />
<glyph unicode="&#xf2;" horiz-adv-x="1093" d="M86 342q0 193 71 350.5t202 249.5t296 92q179 0 269 -97t90 -265q0 -153 -49 -284.5t-129.5 -218.5t-184.5 -136t-215 -49q-171 0 -260.5 91t-89.5 267zM199 365q0 -145 63 -218t199 -73q83 0 161 41.5t140 116t99.5 187.5t37.5 245q0 137 -65 209.5t-195 72.5 q-125 0 -227 -81.5t-157.5 -214t-55.5 -285.5zM514 1411l84 76l205 -227l-66 -60z" />
<glyph unicode="&#xf3;" horiz-adv-x="1093" d="M86 342q0 193 71 350.5t202 249.5t296 92q179 0 269 -97t90 -265q0 -153 -49 -284.5t-129.5 -218.5t-184.5 -136t-215 -49q-171 0 -260.5 91t-89.5 267zM199 365q0 -145 63 -218t199 -73q83 0 161 41.5t140 116t99.5 187.5t37.5 245q0 137 -65 209.5t-195 72.5 q-125 0 -227 -81.5t-157.5 -214t-55.5 -285.5zM631 1260l250 227l67 -76l-264 -211z" />
<glyph unicode="&#xf4;" horiz-adv-x="1093" d="M86 342q0 193 71 350.5t202 249.5t296 92q179 0 269 -97t90 -265q0 -153 -49 -284.5t-129.5 -218.5t-184.5 -136t-215 -49q-171 0 -260.5 91t-89.5 267zM199 365q0 -145 63 -218t199 -73q83 0 161 41.5t140 116t99.5 187.5t37.5 245q0 137 -65 209.5t-195 72.5 q-125 0 -227 -81.5t-157.5 -214t-55.5 -285.5zM469 1268l274 200l244 -194l-69 -64l-187 148l-207 -148z" />
<glyph unicode="&#xf5;" horiz-adv-x="1093" d="M86 342q0 193 71 350.5t202 249.5t296 92q179 0 269 -97t90 -265q0 -153 -49 -284.5t-129.5 -218.5t-184.5 -136t-215 -49q-171 0 -260.5 91t-89.5 267zM199 365q0 -145 63 -218t199 -73q83 0 161 41.5t140 116t99.5 187.5t37.5 245q0 137 -65 209.5t-195 72.5 q-125 0 -227 -81.5t-157.5 -214t-55.5 -285.5zM391 1358q79 76 182 76q54 0 104.5 -24t96.5 -47.5t90 -23.5q80 0 140 60l34 -72q-89 -74 -184 -74q-46 0 -88 15t-68.5 32.5t-64 32.5t-74.5 15q-75 0 -135 -60z" />
<glyph unicode="&#xf6;" horiz-adv-x="1093" d="M86 342q0 193 71 350.5t202 249.5t296 92q179 0 269 -97t90 -265q0 -153 -49 -284.5t-129.5 -218.5t-184.5 -136t-215 -49q-171 0 -260.5 91t-89.5 267zM199 365q0 -145 63 -218t199 -73q83 0 161 41.5t140 116t99.5 187.5t37.5 245q0 137 -65 209.5t-195 72.5 q-125 0 -227 -81.5t-157.5 -214t-55.5 -285.5zM455 1348q0 36 24 60t58 24q33 0 55 -22.5t22 -53.5q0 -36 -24 -60t-58 -24q-33 0 -55 22.5t-22 53.5zM827 1348q0 36 24 60t58 24q33 0 55.5 -22.5t22.5 -53.5q0 -36 -24 -60t-58 -24q-33 0 -55.5 22.5t-22.5 53.5z" />
<glyph unicode="&#xf7;" horiz-adv-x="1392" d="M217 481l16 92h984l-17 -92h-983zM551 113q0 37 24.5 62.5t61.5 25.5t61.5 -25.5t24.5 -62.5t-24.5 -62.5t-61.5 -25.5t-61.5 25.5t-24.5 62.5zM713 940q0 37 24.5 62.5t61.5 25.5t61.5 -25.5t24.5 -62.5t-24.5 -62.5t-61.5 -25.5t-61.5 25.5t-24.5 62.5z" />
<glyph unicode="&#xf8;" horiz-adv-x="1093" d="M92 342q0 144 42 271.5t116 220t181 146.5t231 54q58 0 108 -12l111 199l80 -43l-105 -187q164 -84 164 -319q0 -153 -49 -284.5t-129.5 -218.5t-184.5 -136t-215 -49q-82 0 -141 20l-119 -209l-80 43l117 207q-127 88 -127 297zM205 365q0 -151 67 -224l449 797 q-31 8 -76 8q-125 0 -227 -81.5t-157.5 -214t-55.5 -285.5zM350 92q50 -18 117 -18q83 0 161 41.5t140 116t99.5 187.5t37.5 245q0 173 -100 239z" />
<glyph unicode="&#xf9;" horiz-adv-x="1222" d="M150 948l10 56q154 20 284 14l-127 -664q-28 -145 0.5 -212.5t116.5 -67.5q68 0 140.5 51.5t132.5 133.5t112 181.5t87 198t50 180.5l37 199h107l-178 -928q74 -13 172 -20l-13 -56q-152 -20 -286 -14q29 155 133 483l-4 2q-39 -98 -89.5 -184.5t-114.5 -160t-143.5 -116 t-162.5 -42.5q-134 0 -186.5 91t-20.5 261l112 588l3 6q-76 13 -172 20zM543 1411l84 76l204 -227l-65 -60z" />
<glyph unicode="&#xfa;" horiz-adv-x="1222" d="M150 948l10 56q154 20 284 14l-127 -664q-28 -145 0.5 -212.5t116.5 -67.5q68 0 140.5 51.5t132.5 133.5t112 181.5t87 198t50 180.5l37 199h107l-178 -928q74 -13 172 -20l-13 -56q-152 -20 -286 -14q29 155 133 483l-4 2q-39 -98 -89.5 -184.5t-114.5 -160t-143.5 -116 t-162.5 -42.5q-134 0 -186.5 91t-20.5 261l112 588l3 6q-76 13 -172 20zM643 1260l250 227l68 -76l-265 -211z" />
<glyph unicode="&#xfb;" horiz-adv-x="1222" d="M150 948l10 56q154 20 284 14l-127 -664q-28 -145 0.5 -212.5t116.5 -67.5q68 0 140.5 51.5t132.5 133.5t112 181.5t87 198t50 180.5l37 199h107l-178 -928q74 -13 172 -20l-13 -56q-152 -20 -286 -14q29 155 133 483l-4 2q-39 -98 -89.5 -184.5t-114.5 -160t-143.5 -116 t-162.5 -42.5q-134 0 -186.5 91t-20.5 261l112 588l3 6q-76 13 -172 20zM481 1268l275 200l243 -194l-69 -64l-187 148l-206 -148z" />
<glyph unicode="&#xfc;" horiz-adv-x="1222" d="M150 948l10 56q154 20 284 14l-127 -664q-28 -145 0.5 -212.5t116.5 -67.5q68 0 140.5 51.5t132.5 133.5t112 181.5t87 198t50 180.5l37 199h107l-178 -928q74 -13 172 -20l-13 -56q-152 -20 -286 -14q29 155 133 483l-4 2q-39 -98 -89.5 -184.5t-114.5 -160t-143.5 -116 t-162.5 -42.5q-134 0 -186.5 91t-20.5 261l112 588l3 6q-76 13 -172 20zM489 1348q0 36 24 60t58 24q33 0 55.5 -22.5t22.5 -53.5q0 -36 -24 -60t-58 -24q-33 0 -55.5 22.5t-22.5 53.5zM862 1348q0 36 24 60t58 24q33 0 55.5 -22.5t22.5 -53.5q0 -36 -24 -60t-58 -24 q-33 0 -55.5 22.5t-22.5 53.5z" />
<glyph unicode="&#xfd;" horiz-adv-x="942" d="M-293 -516l21 106q56 -20 131 -20q58 0 127 40t131 109q73 83 105 172t32 215q0 187 -37 427t-104 485h123q57 -228 91.5 -466.5t34.5 -401.5q0 -78 -20 -166h2q262 441 530 1075l99 -35q-432 -1021 -791 -1378q-179 -176 -340 -176q-80 0 -135 14zM461 1260l250 227 l67 -76l-264 -211z" />
<glyph unicode="&#xfe;" horiz-adv-x="1093" d="M23 -516l366 1915l2 6q-74 13 -172 20l10 56q154 20 285 14l-92 -477q-30 -162 -129 -494l4 -2q41 108 93 198.5t116.5 162.5t143 112.5t163.5 40.5q217 0 217 -301q0 -113 -22 -218.5t-71 -202t-121 -168t-178 -114t-235 -42.5q-83 0 -176 14l-98 -520h-106zM248 106 q85 -30 176 -30q105 0 190.5 39t141 102.5t93.5 148.5t54.5 172.5t16.5 178.5q0 227 -129 227q-69 0 -141.5 -51.5t-132.5 -133.5t-112 -182t-87.5 -198t-51.5 -180z" />
<glyph unicode="&#xff;" horiz-adv-x="942" d="M-293 -516l21 106q56 -20 131 -20q58 0 127 40t131 109q73 83 105 172t32 215q0 187 -37 427t-104 485h123q57 -228 91.5 -466.5t34.5 -401.5q0 -78 -20 -166h2q262 441 530 1075l99 -35q-432 -1021 -791 -1378q-179 -176 -340 -176q-80 0 -135 14zM301 1348q0 36 24 60 t58 24q33 0 55.5 -22.5t22.5 -53.5q0 -36 -24 -60t-58 -24q-33 0 -55.5 22.5t-22.5 53.5zM674 1348q0 36 24 60t58 24q33 0 55.5 -22.5t22.5 -53.5q0 -36 -24 -60t-58 -24q-33 0 -55.5 22.5t-22.5 53.5z" />
<glyph unicode="&#x152;" horiz-adv-x="1691" d="M113 477q0 191 59.5 360t162 291t247.5 192.5t309 70.5q46 0 130.5 -4.5t119.5 -4.5h553l-17 -88h-549l-102 -536h522l-14 -88h-524l-111 -580h549l-16 -90h-553q-57 0 -149 -4t-126 -4q-250 0 -370.5 125.5t-120.5 359.5zM233 504q0 -202 96 -311t289 -109q107 0 173 14 l227 1192q-83 13 -148 13q-177 0 -324 -107.5t-230 -290.5t-83 -401z" />
<glyph unicode="&#x153;" horiz-adv-x="1730" d="M86 342q0 193 71 350.5t202 249.5t296 92q137 0 222.5 -61.5t117.5 -171.5q71 108 177 170.5t231 62.5q130 0 199 -60t69 -155q0 -150 -168 -237.5t-514 -102.5q-12 -74 -12 -155q0 -75 13 -122.5t44.5 -75t77 -38t117.5 -10.5q147 0 278 59v-94q-134 -59 -321 -59 q-147 0 -221.5 51t-92.5 180q-73 -111 -190.5 -171t-245.5 -60q-171 0 -260.5 91t-89.5 267zM199 365q0 -145 63 -218t199 -73q83 0 161 41.5t140 116t99.5 187.5t37.5 245q0 137 -65 209.5t-195 72.5q-125 0 -227 -81.5t-157.5 -214t-55.5 -285.5zM1012 578 q286 12 415 68.5t129 160.5q0 67 -45.5 104t-121.5 37q-135 0 -233.5 -102.5t-143.5 -267.5z" />
<glyph unicode="&#x178;" horiz-adv-x="1028" d="M197 1382h112l150 -532q32 -108 63 -252h2q40 72 174 274l336 510h127l-600 -876l-96 -506h-109l97 506zM438 1614q0 36 24 60t58 24q33 0 55.5 -22.5t22.5 -53.5q0 -36 -24 -60t-58 -24q-33 0 -55.5 22.5t-22.5 53.5zM811 1614q0 36 24 60t58 24q33 0 55.5 -22.5 t22.5 -53.5q0 -36 -24 -60t-58 -24q-33 0 -55.5 22.5t-22.5 53.5z" />
<glyph unicode="&#x2c6;" horiz-adv-x="882" d="M258 1268l274 200l244 -194l-69 -64l-187 148l-207 -148z" />
<glyph unicode="&#x2dc;" horiz-adv-x="1052" d="M274 1358q79 76 183 76q54 0 104.5 -24t96.5 -47.5t90 -23.5q79 0 139 60l35 -72q-89 -74 -185 -74q-46 0 -88 15t-68.5 32.5t-64 32.5t-74.5 15q-75 0 -135 -60z" />
<glyph unicode="&#x2000;" horiz-adv-x="897" />
<glyph unicode="&#x2001;" horiz-adv-x="1794" />
<glyph unicode="&#x2002;" horiz-adv-x="897" />
<glyph unicode="&#x2003;" horiz-adv-x="1794" />
<glyph unicode="&#x2004;" horiz-adv-x="598" />
<glyph unicode="&#x2005;" horiz-adv-x="448" />
<glyph unicode="&#x2006;" horiz-adv-x="299" />
<glyph unicode="&#x2007;" horiz-adv-x="299" />
<glyph unicode="&#x2008;" horiz-adv-x="224" />
<glyph unicode="&#x2009;" horiz-adv-x="358" />
<glyph unicode="&#x200a;" horiz-adv-x="99" />
<glyph unicode="&#x2010;" horiz-adv-x="667" d="M102 463v88h463v-88h-463z" />
<glyph unicode="&#x2011;" horiz-adv-x="667" d="M102 463v88h463v-88h-463z" />
<glyph unicode="&#x2012;" horiz-adv-x="667" d="M102 463v88h463v-88h-463z" />
<glyph unicode="&#x2013;" horiz-adv-x="1024" d="M0 545v94h1024v-94h-1024z" />
<glyph unicode="&#x2014;" horiz-adv-x="2048" d="M0 545v94h2048v-94h-2048z" />
<glyph unicode="&#x2018;" horiz-adv-x="444" d="M258 1139q-27 74 41 183q65 104 197 202l43 -51q-104 -88 -135.5 -159t-6.5 -120q19 -38 -1.5 -73.5t-61.5 -35.5q-57 0 -76 54z" />
<glyph unicode="&#x2019;" horiz-adv-x="444" d="M203 1126q103 88 135 159t6 120q-19 38 2 73t62 35q57 0 76 -54q27 -74 -41 -183q-64 -103 -197 -201z" />
<glyph unicode="&#x201a;" horiz-adv-x="444" d="M-72 -225q104 88 135.5 159t6.5 119q-19 38 1.5 73.5t61.5 35.5q57 0 76 -54q27 -74 -41 -183q-64 -103 -197 -201z" />
<glyph unicode="&#x201c;" horiz-adv-x="768" d="M258 1139q-27 74 41 183q65 104 197 202l43 -51q-104 -88 -135.5 -159t-6.5 -120q19 -38 -1.5 -73.5t-61.5 -35.5q-57 0 -76 54zM583 1139q-27 74 41 183q65 104 197 202l43 -51q-103 -88 -135 -159t-6 -120q19 -38 -2 -73.5t-62 -35.5q-57 0 -76 54z" />
<glyph unicode="&#x201d;" horiz-adv-x="768" d="M203 1126q103 88 135 159t6 120q-19 38 2 73t62 35q57 0 76 -54q27 -74 -41 -183q-64 -103 -197 -201zM526 1126q104 88 135.5 159t6.5 120q-19 38 1.5 73t61.5 35q57 0 76 -54q27 -74 -41 -183q-65 -103 -197 -201z" />
<glyph unicode="&#x201e;" horiz-adv-x="768" d="M-72 -225q104 88 135.5 159t6.5 119q-19 38 1.5 73.5t61.5 35.5q57 0 76 -54q27 -74 -41 -183q-64 -103 -197 -201zM254 -225q103 88 135 158.5t6 119.5q-19 38 2 73.5t62 35.5q57 0 76 -54q27 -74 -41 -183q-64 -103 -197 -201z" />
<glyph unicode="&#x2022;" horiz-adv-x="866" d="M244 592q6 80 65 136t137 56t129.5 -56.5t45.5 -135.5q-4 -79 -64.5 -136t-138.5 -57q-77 0 -128.5 57t-45.5 136z" />
<glyph unicode="&#x2026;" horiz-adv-x="1220" d="M51 74q1 37 28 62.5t64 25.5q36 0 59.5 -26t20.5 -62q-3 -37 -30 -62.5t-62 -25.5q-37 0 -60 25.5t-20 62.5zM446 74q3 37 29.5 62.5t63.5 25.5t59.5 -25.5t19.5 -62.5t-29.5 -62.5t-62.5 -25.5q-37 0 -60 25.5t-20 62.5zM842 74q3 37 30 62.5t62 25.5q37 0 60 -25.5 t20 -62.5q-1 -37 -28 -62.5t-64 -25.5q-36 0 -59.5 26t-20.5 62z" />
<glyph unicode="&#x202f;" horiz-adv-x="358" />
<glyph unicode="&#x2039;" horiz-adv-x="630" d="M127 500l293 344l72 -62l-254 -284l186 -277l-82 -59z" />
<glyph unicode="&#x203a;" horiz-adv-x="630" d="M127 221l254 285l-186 276l81 60l216 -338l-293 -344z" />
<glyph unicode="&#x205f;" horiz-adv-x="448" />
<glyph unicode="&#x20ac;" horiz-adv-x="1126" d="M23 492l16 83h192q14 112 41 216h-192l16 83h201q27 84 63 156t90 141.5t119 118.5t154 79t192 30q132 0 246 -29l-39 -96q-120 35 -229 35q-77 0 -144 -24t-117.5 -64.5t-93 -97.5t-71.5 -117.5t-53 -131.5h420l-17 -83h-430q-29 -124 -41 -216h432l-16 -83h-424 q-2 -31 -2 -76q0 -78 14.5 -135.5t49 -104t97.5 -70.5t154 -24q139 0 275 47v-96q-148 -49 -312 -49q-110 0 -188.5 31.5t-122 90.5t-63 133t-19.5 169q0 51 4 84h-202z" />
<glyph unicode="&#x2122;" horiz-adv-x="1421" d="M270 1313l13 69h415l-12 -69h-160l-96 -506h-96l98 506h-162zM643 807l193 575h131l39 -376l6 -105l35 92l194 389h127l-27 -575h-90l15 354l8 123l-47 -102l-189 -375h-104l-41 379l-8 98l-23 -78l-133 -399h-86z" />
<glyph unicode="&#x25fc;" horiz-adv-x="1054" d="M0 0v1055h1055v-1055h-1055z" />
</font>
</defs>
</svg>
