<?xml version="1.0" standalone="no"?>
<!DOCTYPE svg PUBLIC "-//W3C//DTD SVG 1.1//EN" "http://www.w3.org/Graphics/SVG/1.1/DTD/svg11.dtd" >
<svg xmlns="http://www.w3.org/2000/svg">
<metadata></metadata>
<defs>
<font id="thesansbw6_semibold" horiz-adv-x="1126" >
<font-face units-per-em="2048" ascent="1516" descent="-532" />
<missing-glyph horiz-adv-x="446" />
<glyph unicode="&#x2e;&#x2e;&#x2e;" horiz-adv-x="1415" d="M102 119q0 58 41.5 99.5t98.5 41.5q58 0 99.5 -41t41.5 -100q0 -57 -41.5 -98t-99.5 -41q-57 0 -98.5 41t-41.5 98zM559 119q0 58 41 99.5t98 41.5q59 0 100.5 -41.5t41.5 -99.5q0 -57 -42 -98t-100 -41q-57 0 -98 41t-41 98zM1016 119q0 59 41 100t100 41q57 0 98 -41.5 t41 -99.5q0 -57 -41 -98t-98 -41q-58 0 -99.5 41t-41.5 98z" />
<glyph unicode="&#xfb01;" horiz-adv-x="1212" d="M16 848v170h195v41q0 450 485 450q151 0 301 -39l-39 -182q-128 41 -249 41q-146 0 -213.5 -63.5t-67.5 -188.5v-59h625v-1018h-217v848h-408v-848h-217v848h-195z" />
<glyph unicode="&#xfb02;" horiz-adv-x="1212" d="M16 848v170h195v108q0 181 118.5 282t364.5 101q162 0 359 -32v-1477h-217v1317q-77 14 -162 14q-126 0 -186 -52.5t-60 -166.5v-94h254v-170h-254v-848h-217v848h-195z" />
<glyph unicode="&#xfb03;" horiz-adv-x="1828" d="M16 848v170h195v49q0 93 25 168t78.5 133.5t144.5 90.5t215 32q179 0 319 -59q119 79 328 79q153 0 305 -38l-41 -183q-134 41 -254 41q-282 0 -282 -254v-59h624v-1018h-219v848h-405v-848h-220v848h-401v-848h-217v848h-195zM428 1018h401v41q0 132 45 213 q-97 41 -212 41q-121 0 -177.5 -57.5t-56.5 -172.5v-65z" />
<glyph unicode="&#xfb04;" horiz-adv-x="1828" d="M16 848v170h195v49q0 93 25 168t78.5 133.5t144.5 90.5t215 32q170 0 313 -57q115 77 326 77q138 0 360 -32v-1479h-219v1319q-77 14 -162 14q-124 0 -183.5 -53t-59.5 -168v-94h251v-170h-251v-848h-220v848h-401v-848h-217v848h-195zM428 1018h401v108q0 90 33 152 q-87 35 -200 35q-121 0 -177.5 -57.5t-56.5 -172.5v-65z" />
<glyph horiz-adv-x="0" />
<glyph horiz-adv-x="0" />
<glyph horiz-adv-x="682" />
<glyph unicode="&#xd;" horiz-adv-x="1024" />
<glyph unicode=" "  horiz-adv-x="446" />
<glyph unicode="&#x09;" horiz-adv-x="446" />
<glyph unicode="&#xa0;" horiz-adv-x="446" />
<glyph unicode="!" horiz-adv-x="655" d="M205 117q0 57 40.5 96t100.5 39q59 0 99 -39t40 -96q0 -58 -40 -97.5t-99 -39.5q-60 0 -100.5 39.5t-40.5 97.5zM217 1444h258l-35 -1082h-186z" />
<glyph unicode="&#x22;" horiz-adv-x="784" d="M98 1436h226l-31 -494h-162zM461 1436h225l-33 -494h-161z" />
<glyph unicode="#" d="M59 362v152h187l30 315h-167v150h184l37 352h164l-39 -352h282l37 352h162l-37 -352h168v-150h-184l-31 -315h166v-152h-182l-39 -362h-162l39 362h-283l-37 -362h-164l39 362h-170zM408 514h282l31 315h-281z" />
<glyph unicode="$" d="M160 946q0 133 89 230t236 122v197h160v-186q116 -3 215 -25l-20 -188q-106 34 -228 34q-118 0 -173.5 -45.5t-55.5 -113.5q0 -47 31.5 -82.5t82 -60t111 -47.5t121.5 -52.5t111.5 -67.5t82 -100t31.5 -143q0 -138 -92 -241.5t-250 -133.5v-217h-159v207q-125 0 -252 26 l18 199q124 -43 260 -43q111 0 178.5 44.5t67.5 133.5q0 44 -24.5 78t-64 55t-90.5 43t-103.5 40.5t-103.5 48t-90.5 65t-64 93t-24.5 130.5z" />
<glyph unicode="%" horiz-adv-x="1546" d="M86 1075q0 145 86.5 237.5t224.5 92.5q143 0 219 -79t76 -232q0 -149 -87.5 -242.5t-225.5 -93.5q-145 0 -219 83t-74 234zM188 55l1022 1368l140 -100l-1020 -1366zM258 1085q0 -96 33.5 -141t101.5 -45q57 0 93 49.5t36 132.5q0 95 -32.5 139t-100.5 44 q-58 0 -94.5 -49t-36.5 -130zM852 295q0 145 87.5 237.5t225.5 92.5q142 0 218.5 -79.5t76.5 -232.5q0 -147 -88 -240t-225 -93q-147 0 -221 82t-74 233zM1024 305q0 -96 33.5 -140t101.5 -44q57 0 93 49t36 131q0 96 -32 139t-101 43q-58 0 -94.5 -48t-36.5 -130z" />
<glyph unicode="&#x26;" horiz-adv-x="1630" d="M106 381q0 128 69.5 229.5t205.5 206.5q-102 121 -143 202.5t-41 166.5q0 137 102.5 230t280.5 93q164 0 254 -78.5t90 -209.5q0 -105 -59.5 -200.5t-190.5 -199.5q220 -220 418 -375v-2q66 96 101.5 221.5t29.5 260.5h217q4 -166 -44.5 -321t-142.5 -279 q146 -116 275 -201l-144 -168q-169 118 -284 211q-229 -188 -537 -188q-112 0 -200.5 31.5t-143.5 86.5t-84 127t-29 156zM332 410q0 -102 73.5 -173t194.5 -71q194 0 342 123q-113 90 -232.5 201t-201.5 198q-93 -76 -134.5 -142t-41.5 -136zM414 1198q0 -97 135 -252 q82 69 121 128t39 128q0 62 -37 101.5t-109 39.5q-66 0 -107.5 -40.5t-41.5 -104.5z" />
<glyph unicode="'" horiz-adv-x="421" d="M98 1436h226l-31 -494h-162z" />
<glyph unicode="(" horiz-adv-x="622" d="M127 582q0 548 303 1024l158 -76q-246 -429 -246 -938q0 -523 252 -948l-166 -76q-166 261 -233.5 509.5t-67.5 504.5z" />
<glyph unicode=")" horiz-adv-x="622" d="M41 1528l164 78q166 -262 232.5 -509.5t66.5 -506.5q0 -546 -303 -1022l-158 74q248 430 248 938q0 519 -250 948z" />
<glyph unicode="*" horiz-adv-x="774" d="M72 1092l209 88l-209 88l80 137l180 -135l-29 225h160l-27 -225l180 135l78 -135l-209 -88l209 -88l-80 -140l-180 138l29 -226h-160l27 226l-180 -138z" />
<glyph unicode="+" d="M84 518v182h375v398h207v-398h376v-182h-376v-399h-207v399h-375z" />
<glyph unicode="," horiz-adv-x="493" d="M53 -252q178 191 88 303q-25 30 -29 68t10 69.5t46.5 53.5t75.5 22q79 0 119 -71q50 -90 3 -224q-54 -154 -221 -303z" />
<glyph unicode="-" horiz-adv-x="679" d="M94 492v176h492v-176h-492z" />
<glyph unicode="." horiz-adv-x="493" d="M102 125q0 60 43 102.5t103 42.5t102.5 -42.5t42.5 -102.5t-42.5 -102.5t-102.5 -42.5t-103 42.5t-43 102.5z" />
<glyph unicode="/" horiz-adv-x="919" d="M-8 -330l719 1880h213l-717 -1880h-215z" />
<glyph unicode="0" d="M86 672q0 337 132.5 508.5t356.5 171.5q87 0 156.5 -21t127.5 -69.5t97 -125.5t60.5 -192.5t21.5 -265.5q0 -146 -26.5 -265t-72 -198.5t-108.5 -133t-132.5 -77.5t-147.5 -24q-114 0 -197.5 35t-145 114.5t-92 214.5t-30.5 328zM322 682q0 -282 53.5 -399t185.5 -117 q242 0 242 502q0 191 -27 301.5t-78.5 154t-136.5 43.5q-239 0 -239 -485z" />
<glyph unicode="1" d="M141 1190l406 141h172v-1134h303v-197h-877v197h347v909l-314 -123z" />
<glyph unicode="2" d="M113 0v178l252 246q147 142 222.5 233t99.5 148t24 121q0 100 -65.5 163.5t-180.5 63.5q-82 0 -159.5 -28t-133.5 -70l-49 192q182 105 385 105q109 0 195.5 -31.5t139 -86t80 -123t27.5 -146.5q0 -138 -68.5 -259.5t-260.5 -299.5l-209 -197v-4q135 6 401 6h186v-211 h-886z" />
<glyph unicode="3" d="M147 12l23 191q119 -39 254 -39q155 0 237 61t82 164q0 101 -80 158t-235 57q-86 0 -203 -10v172h51q209 0 325 55.5t116 169.5q0 84 -63 132t-175 48q-149 0 -291 -71l-20 186q166 66 352 66q208 0 317 -89t109 -233q0 -116 -63.5 -194.5t-180.5 -112.5l-2 -4 q121 -12 200 -99t79 -206q0 -201 -156 -317.5t-417 -116.5q-153 0 -259 32z" />
<glyph unicode="4" d="M43 479l539 852h297v-835h204v-197h-204v-299h-217v299h-601zM264 492q109 4 402 4v616h-2z" />
<glyph unicode="5" d="M168 6v201q122 -39 266 -39q149 0 230 66t81 182q0 111 -86.5 169t-238.5 58q-139 0 -227 -16v704h739v-207h-533v-309q29 2 97 2q232 0 360.5 -105t128.5 -272q0 -209 -155.5 -334.5t-411.5 -125.5q-134 0 -250 26z" />
<glyph unicode="6" d="M96 549q0 203 49.5 357.5t141 251t216.5 144.5t281 48q71 0 136 -7v-190q-70 12 -150 12q-185 0 -292 -98t-148 -287q-10 -47 -17 -92h2q50 74 131.5 114t182.5 40q194 0 303.5 -110.5t109.5 -278.5q0 -216 -129 -344.5t-342 -128.5q-224 0 -349.5 146.5t-125.5 422.5z M332 432q0 -119 66.5 -196.5t187.5 -77.5q111 0 173 71t62 189q0 113 -62 178.5t-181 65.5q-110 0 -178 -71.5t-68 -158.5z" />
<glyph unicode="7" d="M109 1116v215h909v-188q-144 -269 -272.5 -573t-215.5 -570h-251q99 284 227.5 583t257.5 539q-159 -6 -477 -6h-178z" />
<glyph unicode="8" d="M98 319q0 59 21 111t60.5 95t83 76t102.5 67q-116 63 -175 138.5t-59 184.5q0 159 124 260t320 101q194 0 307 -91.5t113 -236.5q0 -103 -63 -178.5t-176 -145.5q61 -32 103.5 -61.5t84 -71t63 -96t21.5 -119.5q0 -115 -64.5 -200.5t-172 -128.5t-240.5 -43 q-208 0 -330.5 91.5t-122.5 247.5zM326 336q0 -80 64 -130t179 -50q101 0 165.5 47.5t64.5 128.5q0 47 -19 85.5t-58.5 69t-77.5 51.5t-99 48q-53 -31 -84.5 -52.5t-66.5 -53.5t-51.5 -67.5t-16.5 -76.5zM354 1010q0 -73 50.5 -121.5t168.5 -106.5q96 54 147.5 105.5 t51.5 118.5q0 80 -57 127t-156 47q-95 0 -150 -49t-55 -121z" />
<glyph unicode="9" d="M82 885q0 213 131.5 340t339.5 127q223 0 347 -141t124 -429q0 -207 -50 -362t-142.5 -250t-216.5 -141.5t-279 -46.5q-108 0 -174 14v194q84 -22 192 -22q181 0 285.5 90t140.5 272q3 19 9.5 47.5t9.5 43.5h-2q-48 -64 -126.5 -100t-176.5 -36q-194 0 -303 112t-109 288 zM303 918q0 -116 62 -183t174 -67q115 0 181 67t66 166q0 122 -65.5 197.5t-183.5 75.5q-107 0 -170.5 -73t-63.5 -183z" />
<glyph unicode=":" horiz-adv-x="598" d="M180 125q0 60 43 102.5t103 42.5t102.5 -42.5t42.5 -102.5t-42.5 -102.5t-102.5 -42.5t-103 42.5t-43 102.5zM180 715q0 60 43 102.5t103 42.5t102.5 -42.5t42.5 -102.5t-42.5 -103t-102.5 -43t-103 43t-43 103z" />
<glyph unicode=";" horiz-adv-x="598" d="M135 -252q179 192 86 303q-24 30 -27.5 68t10.5 69.5t46.5 53.5t75.5 22q78 0 118 -70q51 -90 4 -224q-54 -155 -221 -304zM180 715q0 60 43 102.5t103 42.5t102.5 -42.5t42.5 -102.5t-42.5 -103t-102.5 -43t-103 43t-43 103z" />
<glyph unicode="&#x3c;" d="M139 618l649 590l142 -143l-510 -444l512 -445l-141 -149z" />
<glyph unicode="=" d="M113 336v178h901v-178h-901zM113 702v179h901v-179h-901z" />
<glyph unicode="&#x3e;" d="M195 1059l141 149l651 -590l-649 -591l-141 143l510 446z" />
<glyph unicode="?" horiz-adv-x="917" d="M156 1262l28 198q295 -9 459 -125.5t164 -279.5q0 -54 -14 -101.5t-37 -83t-52.5 -68t-60 -61t-59.5 -57.5t-52 -61.5t-37 -69.5t-14 -85.5t17 -105.5h-213q-21 64 -25 120t7.5 98.5t32 80.5t48.5 68.5t57.5 59t58 56t51 55t36.5 61t14 69.5q0 98 -110 161.5t-299 70.5z M254 117q0 57 40 96t99 39q60 0 99.5 -39t39.5 -96q0 -59 -39.5 -98t-99.5 -39q-59 0 -99 39.5t-40 97.5z" />
<glyph unicode="@" horiz-adv-x="1996" d="M170 575q0 199 71.5 373t193 295.5t287.5 191.5t351 70q144 0 264.5 -35t206.5 -96.5t145.5 -145.5t88 -182.5t28.5 -207.5q0 -272 -133 -423t-344 -151q-114 0 -168.5 61t-46.5 152h-6q-33 -76 -117.5 -144.5t-181.5 -68.5q-99 0 -151 73t-52 212q0 115 29.5 213t86 174 t147 119t206.5 43q129 0 252 -35l-76 -424q-20 -104 7.5 -151.5t99.5 -47.5q111 0 181.5 99t70.5 288q0 99 -30.5 185.5t-93.5 159t-172.5 115t-254.5 42.5q-142 0 -268 -53.5t-219 -148t-147 -231.5t-54 -296q0 -280 155 -436t455 -156q169 0 350 55l33 -172 q-189 -63 -410 -63q-374 0 -579 200t-205 547zM782 586q0 -146 78 -146q73 0 144.5 102.5t109.5 293.5l19 98q-41 14 -107 14q-59 0 -107.5 -35.5t-77 -91t-44 -116.5t-15.5 -119z" />
<glyph unicode="A" horiz-adv-x="1269" d="M12 0l492 1382h256l497 -1382h-247l-105 305h-561l-106 -305h-226zM399 483h449l-166 469q-39 114 -57 189h-4q-22 -89 -56 -187z" />
<glyph unicode="B" horiz-adv-x="1175" d="M160 0v1382q382 7 430 7q219 0 334.5 -87.5t115.5 -248.5q0 -107 -59.5 -192t-165.5 -124v-4q120 -20 193 -106t73 -209q0 -62 -17 -120.5t-58 -114.5t-102 -97.5t-156 -66.5t-213 -25q-52 0 -182.5 2.5t-192.5 3.5zM383 184q87 -10 164 -10q146 0 221.5 65t75.5 171 q0 219 -338 219q-92 0 -123 -2v-443zM383 797q37 -2 119 -2q152 0 227.5 58t75.5 165q0 194 -254 194q-70 0 -168 -4v-411z" />
<glyph unicode="C" horiz-adv-x="1179" d="M88 653q0 164 42 298t124 234t213.5 155t302.5 55q168 0 307 -43l-33 -205q-142 51 -292 51q-85 0 -154.5 -25.5t-118.5 -71t-82.5 -109t-49 -139.5t-15.5 -163q0 -246 108 -376t330 -130q71 0 149 18t136 48l37 -197q-167 -69 -371 -69q-136 0 -243.5 34t-179.5 94 t-120 145.5t-69 183.5t-21 212z" />
<glyph unicode="D" horiz-adv-x="1378" d="M160 0v1380q7 0 169.5 4.5t258.5 4.5q166 0 294 -39t221 -120t141 -211.5t48 -307.5q0 -175 -56 -312.5t-158 -226t-242 -134.5t-310 -46q-83 0 -214.5 4t-151.5 4zM383 193q83 -11 166 -11q233 0 369.5 128t136.5 384q0 251 -117.5 380.5t-366.5 129.5q-90 0 -188 -4 v-1007z" />
<glyph unicode="E" horiz-adv-x="1019" d="M160 0v1382h729v-186h-506v-393h481v-182h-481v-431h506v-190h-729z" />
<glyph unicode="F" horiz-adv-x="956" d="M160 0v1382h721v-188h-498v-406h471v-182h-471v-606h-223z" />
<glyph unicode="G" horiz-adv-x="1390" d="M82 653q0 166 49 302.5t142.5 236t237 154.5t325.5 55q196 0 387 -58l-47 -204q-170 67 -357 67q-128 0 -226 -42t-156 -115t-86.5 -165t-28.5 -200q0 -240 125.5 -373t353.5 -133q109 0 213 33v502h223v-650q-215 -83 -463 -83q-330 0 -511 178.5t-181 494.5z" />
<glyph unicode="H" horiz-adv-x="1419" d="M160 0v1382h223v-571h653v571h221v-1382h-221v621h-653v-621h-223z" />
<glyph unicode="I" horiz-adv-x="544" d="M160 0v1382h223v-1382h-223z" />
<glyph unicode="J" horiz-adv-x="679" d="M2 0v193q74 -21 133 -21q84 0 124 45.5t40 165.5v999h221v-1009q0 -389 -358 -389q-74 0 -160 16z" />
<glyph unicode="K" horiz-adv-x="1208" d="M160 0v1382h223v-641l504 641h274l-549 -667l570 -715h-297l-502 676v-676h-223z" />
<glyph unicode="L" horiz-adv-x="874" d="M160 0v1382h223v-1187h475v-195h-698z" />
<glyph unicode="M" horiz-adv-x="1814" d="M84 0l207 1382h266l266 -802q33 -95 78 -283h2q55 207 78 274l270 811h269l211 -1382h-232l-110 741q-27 211 -43 349h-5q-33 -156 -73 -285l-264 -805h-226l-250 752q-61 189 -90 338h-2q-14 -166 -39 -369l-88 -721h-225z" />
<glyph unicode="N" horiz-adv-x="1441" d="M160 0v1382h295l481 -813q85 -151 143 -280q-14 276 -14 743v350h215v-1382h-295l-489 831q-83 148 -136 271q15 -253 15 -721v-381h-215z" />
<glyph unicode="O" horiz-adv-x="1441" d="M78 672q0 169 52 308.5t142.5 231t211 141.5t257.5 50q307 0 465 -184t158 -508q0 -169 -52.5 -308.5t-143 -231t-211 -141.5t-257.5 -50q-307 0 -464.5 184t-157.5 508zM315 702q0 -243 102.5 -383.5t301.5 -140.5q177 0 292 134t115 368q0 243 -103 384.5t-300 141.5 q-176 0 -292 -135t-116 -369z" />
<glyph unicode="P" horiz-adv-x="1079" d="M160 0v1382q239 9 354 9q243 0 375.5 -111t132.5 -305q0 -203 -149 -336t-388 -133q-67 0 -102 4v-510h-223zM383 698q62 -8 98 -8q140 2 225 73.5t85 192.5t-72.5 186.5t-220.5 65.5q-78 0 -115 -4v-506z" />
<glyph unicode="Q" horiz-adv-x="1439" d="M78 672q0 169 52 308.5t142.5 231t211 141.5t257.5 50q307 0 465 -184t158 -508q0 -216 -81.5 -375t-231.5 -227q49 0 110.5 -18t130.5 -31q38 -7 81 -7q32 0 67 4v-194q-72 -8 -126 -8q-29 0 -52 2q-67 7 -132 27t-111 41.5t-116 38t-147 16.5h-56q-307 0 -464.5 184 t-157.5 508zM315 702q0 -243 102.5 -383.5t301.5 -140.5q175 0 291 135t116 367q0 243 -103 384.5t-300 141.5q-176 0 -292 -135t-116 -369z" />
<glyph unicode="R" horiz-adv-x="1144" d="M160 0v1382q150 9 370 9q484 0 484 -375q0 -160 -107.5 -263.5t-269.5 -123.5q94 -118 115 -148l352 -481h-279l-417 598h-25v-598h-223zM383 766q40 -4 109 -4q134 0 211 62.5t77 166.5q0 113 -69.5 165t-210.5 52q-51 0 -117 -4v-438z" />
<glyph unicode="S" horiz-adv-x="1030" d="M94 999q0 182 132.5 293t367.5 111q122 0 250 -27l-23 -196q-115 39 -237 39q-126 0 -190 -51.5t-64 -141.5q0 -49 26.5 -87.5t69.5 -63t98 -49.5t112 -46t112 -53.5t98 -71.5t69.5 -101t26.5 -140q0 -191 -143.5 -312.5t-376.5 -121.5q-177 0 -311 38l24 213 q147 -57 295 -57q118 0 194 52t76 159q0 46 -20.5 82.5t-56 61t-81 45.5t-95.5 40.5t-100 40.5t-95.5 51.5t-81 68.5t-56 95.5t-20.5 128.5z" />
<glyph unicode="T" horiz-adv-x="1052" d="M35 1194v188h983v-188h-381v-1194h-223v1194h-379z" />
<glyph unicode="U" horiz-adv-x="1406" d="M160 471v911h223v-895q0 -74 14 -129t48 -100.5t98 -69.5t157 -24q172 0 250 81t78 271v866h219v-850q0 -274 -143.5 -413t-417.5 -139q-126 0 -221 27.5t-152 71.5t-92.5 110t-48 133t-12.5 149z" />
<glyph unicode="V" horiz-adv-x="1273" d="M14 1382h246l291 -852q40 -110 86 -276h2q41 152 92 291l297 837h229l-497 -1382h-254z" />
<glyph unicode="W" horiz-adv-x="1949" d="M61 1382h238l213 -839q36 -145 53 -273h2q24 155 56 262l235 850h244l241 -852q38 -140 56 -254h2q16 101 49 242l215 864h223l-358 -1382h-275l-235 854q-28 101 -53 260h-2q-14 -122 -50 -256l-233 -858h-262z" />
<glyph unicode="X" horiz-adv-x="1253" d="M29 0l448 711l-422 671h258l308 -505l303 505h252l-414 -667l463 -715h-281l-328 543l-325 -543h-262z" />
<glyph unicode="Y" horiz-adv-x="1122" d="M12 1382h244l205 -436q51 -113 98 -233h4q38 100 115 258l194 411h236l-440 -888v-494h-224v494z" />
<glyph unicode="Z" horiz-adv-x="1101" d="M92 0v170l545 866q79 119 102 150q-59 -2 -280 -2h-346v198h891v-176l-574 -895q-30 -51 -74 -110q39 4 326 4h330v-205h-920z" />
<glyph unicode="[" horiz-adv-x="663" d="M162 -412v1997h426v-172h-221v-1651h221v-174h-426z" />
<glyph unicode="\" horiz-adv-x="940" d="M18 1550h213l719 -1880h-215z" />
<glyph unicode="]" horiz-adv-x="663" d="M76 -238h221v1651h-221v172h426v-1997h-426v174z" />
<glyph unicode="^" d="M123 774l338 608h172l352 -604l-160 -82l-284 527l-271 -527z" />
<glyph unicode="_" d="M0 -332h1126v-176h-1126v176z" />
<glyph unicode="`" horiz-adv-x="759" d="M154 1386l110 146l314 -256l-89 -117z" />
<glyph unicode="a" horiz-adv-x="1071" d="M88 262q0 170 158.5 261t441.5 91v43q0 110 -45.5 160.5t-155.5 50.5q-69 0 -153.5 -20t-153.5 -51l-39 170q177 71 377 71q213 0 301 -90t88 -266v-403q0 -150 6 -279h-211q0 112 11 188l-2 2q-38 -93 -128.5 -151.5t-209.5 -58.5q-129 0 -207 78t-78 204zM301 289 q0 -60 38 -98.5t101 -38.5q107 0 177.5 87.5t70.5 200.5v27q-387 0 -387 -178z" />
<glyph unicode="b" horiz-adv-x="1142" d="M160 27v1468h219v-469q0 -111 -19 -195h5q40 96 125.5 151.5t197.5 55.5q181 0 278 -124t97 -355q0 -265 -144.5 -420t-396.5 -155q-197 0 -362 43zM379 178q64 -20 160 -20q138 0 215 92t77 289q0 317 -200 317q-78 0 -137 -55.5t-87 -136.5t-28 -170v-316z" />
<glyph unicode="c" horiz-adv-x="882" d="M78 475q0 165 54.5 289t170 197t281.5 73q139 0 237 -39l-37 -186q-105 43 -213 43q-126 0 -195 -95.5t-69 -256.5q0 -328 266 -328q129 0 220 45l32 -182q-122 -51 -295 -51q-102 0 -182 26.5t-142 83t-95 153t-33 228.5z" />
<glyph unicode="d" horiz-adv-x="1140" d="M78 459q0 264 143 419.5t389 155.5q44 0 154 -8v469h217v-1495h-207q0 110 14 190h-4q-42 -96 -128.5 -153t-202.5 -57q-184 0 -279.5 126.5t-95.5 352.5zM309 479q0 -319 203 -319q77 0 136 56t87.5 138t28.5 172v316q-82 18 -162 18q-138 0 -215.5 -92t-77.5 -289z" />
<glyph unicode="e" horiz-adv-x="1046" d="M78 502q0 235 126.5 385.5t342.5 150.5q106 0 186.5 -33.5t128.5 -92.5t72 -134t24 -164q0 -68 -8 -125h-647v-18q-1 -159 69 -235q74 -80 232 -80q154 0 293 59l29 -170q-168 -65 -361 -65q-487 0 -487 522zM307 641h432v11q0 99 -52 159q-55 63 -152 63 q-92 0 -153 -63.5t-75 -169.5z" />
<glyph unicode="f" horiz-adv-x="720" d="M16 848v170h195v78q0 413 397 413q86 0 166 -18l-16 -180q-64 20 -140 20q-98 0 -144 -55.5t-46 -175.5v-82h264v-170h-264v-848h-217v848h-195z" />
<glyph unicode="g" horiz-adv-x="1112" d="M76 -215q0 81 48 152t118 110q-46 21 -73.5 61.5t-27.5 92.5q0 55 32 103t85 73q-152 86 -152 278q0 78 29 146.5t83 121.5t139 84t190 31q65 0 153 -20h347v-172h-156q67 -58 67 -162q0 -166 -111 -267.5t-321 -101.5q-42 0 -96 13q-28 -13 -43.5 -34t-15.5 -42 q0 -39 37.5 -55t130.5 -19l172 -6q167 -6 255.5 -80.5t88.5 -214.5q0 -168 -153 -282.5t-394 -114.5q-202 0 -317 79t-115 226zM293 -176q0 -81 69 -127.5t181 -46.5q139 0 217 55t78 141q0 143 -189 152l-186 6h-55q-115 -80 -115 -180zM319 672q0 -96 55.5 -149.5 t157.5 -53.5q100 0 158 54t58 149t-55.5 150t-155.5 55q-101 0 -159.5 -57.5t-58.5 -147.5z" />
<glyph unicode="h" horiz-adv-x="1173" d="M160 0v1495h219v-463q0 -128 -19 -205l5 -2q45 99 134.5 156t211.5 57q84 0 144.5 -25t94 -71t49 -102.5t15.5 -126.5v-713h-217v653q0 101 -34 152t-118 51q-115 0 -190.5 -106t-75.5 -261v-489h-219z" />
<glyph unicode="i" horiz-adv-x="538" d="M129 1335q0 57 41.5 97.5t99.5 40.5q57 0 98.5 -40.5t41.5 -97.5t-41.5 -97t-98.5 -40q-59 0 -100 39.5t-41 97.5zM160 0v1018h219v-1018h-219z" />
<glyph unicode="j" horiz-adv-x="548" d="M-123 -496l14 189q64 -23 127 -23q89 0 121.5 45.5t32.5 167.5v1135h217v-1114q0 -214 -83.5 -316t-287.5 -102q-80 0 -141 18zM139 1335q0 57 41.5 97.5t100.5 40.5q58 0 98.5 -40.5t40.5 -97.5t-40.5 -97t-98.5 -40q-59 0 -100.5 39.5t-41.5 97.5z" />
<glyph unicode="k" horiz-adv-x="1036" d="M160 0v1495h219v-913l330 436h268l-377 -465l406 -553h-279l-348 516v-516h-219z" />
<glyph unicode="l" horiz-adv-x="538" d="M160 0v1495h219v-1495h-219z" />
<glyph unicode="m" horiz-adv-x="1787" d="M160 0v1018h209q0 -110 -15 -201l4 -2q45 103 136 163t208 60q71 0 126 -21t86 -55.5t47.5 -69.5t23.5 -73q17 39 46 75.5t70.5 69.5t99.5 53.5t124 20.5q303 0 303 -336v-702h-217v649q0 102 -32 154.5t-115 52.5q-103 0 -183 -104.5t-80 -266.5v-485h-215v649 q0 100 -31 153.5t-116 53.5q-106 0 -183 -106.5t-77 -264.5v-485h-219z" />
<glyph unicode="n" horiz-adv-x="1173" d="M160 0v1018h209q0 -116 -15 -201h2q46 102 138 161.5t217 59.5q84 0 144.5 -25t94 -71t49 -102.5t15.5 -126.5v-713h-217v653q0 101 -34 152t-118 51q-115 0 -190.5 -106t-75.5 -261v-489h-219z" />
<glyph unicode="o" horiz-adv-x="1124" d="M74 496q0 234 140 388t368 154q214 0 339.5 -126t125.5 -384q0 -155 -63 -280t-179 -196.5t-264 -71.5q-220 0 -343.5 128t-123.5 388zM301 518q0 -172 66 -261t194 -89q113 0 186.5 88.5t73.5 257.5q0 165 -64.5 252.5t-193.5 87.5q-109 0 -185.5 -86t-76.5 -250z" />
<glyph unicode="p" horiz-adv-x="1142" d="M160 -500v1518h207q0 -102 -13 -191h4q44 99 129.5 155t200.5 56q181 0 278 -124t97 -355q0 -270 -138.5 -421.5t-392.5 -151.5q-89 0 -153 12v-498h-219zM379 178q67 -20 160 -20q138 0 215 92t77 289q0 319 -200 319q-78 0 -137 -56t-87 -138t-28 -172v-314z" />
<glyph unicode="q" horiz-adv-x="1142" d="M82 457q0 267 144 422t401 155q191 0 356 -28v-1506h-217v498q0 114 14 188l-4 2q-40 -97 -125 -152.5t-192 -55.5q-183 0 -280 121t-97 356zM311 479q0 -319 201 -319q78 0 137.5 56t88 139t28.5 175v314q-79 18 -162 18q-137 0 -215 -93t-78 -290z" />
<glyph unicode="r" horiz-adv-x="727" d="M160 0v1018h209q0 -108 -21 -225h4q18 54 46 99t68 81t98 53q41 12 87 12q19 0 39 -2l-10 -215q-33 6 -63 6q-105 0 -163 -80q-75 -103 -75 -333v-414h-219z" />
<glyph unicode="s" horiz-adv-x="862" d="M94 723q0 140 106.5 227.5t309.5 87.5q94 0 192 -20l-12 -176q-92 28 -192 28q-89 0 -134 -33.5t-45 -93.5q0 -40 25 -68.5t64.5 -45.5t87.5 -32t96.5 -36t88 -49.5t64.5 -80t25 -120.5q0 -147 -119 -239t-319 -92q-128 0 -226 28l17 187q98 -39 223 -39q87 0 141 36 t54 97q0 42 -24.5 71t-64 45.5t-87.5 31t-95.5 34.5t-87 48.5t-64 80.5t-24.5 123z" />
<glyph unicode="t" horiz-adv-x="763" d="M8 848v170h195v323l219 60v-383h266v-170h-266v-488q0 -113 28 -152.5t105 -39.5q60 0 125 14l18 -176q-105 -24 -213 -24q-161 0 -221.5 69t-60.5 242v555h-195z" />
<glyph unicode="u" horiz-adv-x="1173" d="M160 305v713h217v-653q0 -101 33.5 -152t117.5 -51q115 0 191 105.5t76 260.5v490h219v-1018h-209q0 121 14 201h-2q-46 -102 -137.5 -161.5t-216.5 -59.5q-84 0 -144.5 25t-94 71t-49 102.5t-15.5 126.5z" />
<glyph unicode="v" horiz-adv-x="1013" d="M12 1018h242l190 -539q55 -167 66 -209h2q10 39 59 201l195 547h235l-385 -1018h-223z" />
<glyph unicode="w" horiz-adv-x="1626" d="M27 1018h239l135 -473q62 -220 76 -285h2q17 86 72 279l151 479h222l153 -471q60 -201 80 -287h2q20 94 72 277l141 481h227l-325 -1018h-242l-176 532q-29 85 -59 216h-2q-14 -65 -70 -256l-154 -492h-231z" />
<glyph unicode="x" horiz-adv-x="1071" d="M33 0l364 512l-344 506h264l228 -363l231 363h244l-336 -502l352 -516h-278l-230 369l-231 -369h-264z" />
<glyph unicode="y" horiz-adv-x="1003" d="M-43 -504l25 191q59 -17 124 -17q80 0 143 51t111 179l37 100l-381 1018h244l168 -465q43 -127 80 -266h2q28 114 100 317l146 414h235l-411 -1090q-93 -250 -205 -347t-289 -97q-59 0 -129 12z" />
<glyph unicode="z" horiz-adv-x="919" d="M96 0v156l453 669q-102 -4 -246 -4h-197v197h703v-154l-447 -667q102 4 256 4h199v-201h-721z" />
<glyph unicode="{" horiz-adv-x="716" d="M57 561v168q118 6 164.5 51.5t46.5 169.5v213q0 207 80 314.5t264 107.5h39v-172q-104 0 -142 -50.5t-38 -195.5v-211q0 -144 -47 -217.5t-141 -91.5v-2q188 -28 188 -317v-320q0 -145 38 -195.5t142 -50.5v-174h-39q-183 0 -263.5 102t-80.5 322v322q0 122 -48 171.5 t-163 55.5z" />
<glyph unicode="|" horiz-adv-x="585" d="M203 -500v2048h174v-2048h-174z" />
<glyph unicode="}" horiz-adv-x="712" d="M76 -238q104 0 142 50.5t38 195.5v320q0 289 188 317v2q-188 25 -188 303v217q0 145 -38 195.5t-142 50.5v172h39q184 0 264 -107.5t80 -314.5v-207q0 -128 46.5 -174.5t164.5 -52.5v-168q-113 -6 -162 -56t-49 -171v-322q0 -220 -80.5 -322t-263.5 -102h-39v174z" />
<glyph unicode="~" d="M100 891v27q0 141 78.5 227t210.5 86q63 0 112 -23t78.5 -55.5t54.5 -64.5t54.5 -55t65.5 -23q109 0 112 176h162v-29q0 -141 -78.5 -227t-210.5 -86q-63 0 -112 23t-78 55t-54 64.5t-54.5 55.5t-65.5 23q-110 0 -113 -174h-162z" />
<glyph unicode="&#xa1;" horiz-adv-x="655" d="M172 901q0 59 39.5 98t99.5 39q59 0 99.5 -39.5t40.5 -97.5q0 -57 -40.5 -96t-99.5 -39q-60 0 -99.5 39t-39.5 96zM180 -426l35 1081h186l37 -1081h-258z" />
<glyph unicode="&#xa2;" d="M158 672q0 192 105 317t296 162v180h168v-174q115 -7 223 -45l-43 -180q-106 49 -223 49q-139 0 -219 -78t-80 -223q0 -135 74 -213t223 -78q129 0 231 57l54 -176q-118 -54 -240 -63v-207h-168v207q-195 15 -298 136.5t-103 328.5z" />
<glyph unicode="&#xa3;" d="M104 575v170h185q-21 147 -21 203q0 404 426 404q119 0 248 -33l-47 -184q-119 39 -215 39q-191 0 -191 -205q0 -54 23 -224h317v-170h-297q11 -54 11 -118q0 -84 -32.5 -146.5t-104.5 -126.5q90 4 157 4h430v-188h-848v150q90 76 134.5 147.5t44.5 151.5q0 56 -13 126 h-207z" />
<glyph unicode="&#xa4;" d="M109 231l143 181q-76 95 -76 260q0 151 86 254l-153 192l163 119l150 -205q67 33 158 33q90 0 147 -29l150 201l161 -121l-151 -190q63 -89 63 -238q0 -145 -80 -248l168 -209l-164 -120l-161 217q-74 -41 -168 -41q-69 0 -127 22l-144 -196zM371 678q0 -105 47 -168.5 t147 -63.5q79 0 135 63.5t56 174.5q0 219 -197 219q-80 0 -134 -60.5t-54 -164.5z" />
<glyph unicode="&#xa5;" d="M55 1331h244l174 -381q32 -67 88 -221h4q41 110 99 232l172 370h235l-346 -702h274v-144h-327v-135h327v-143h-327v-207h-221v207h-328v143h328v135h-328v144h274z" />
<glyph unicode="&#xa6;" horiz-adv-x="585" d="M203 274h174v-774h-174v774zM203 795v753h174v-753h-174z" />
<glyph unicode="&#xa7;" horiz-adv-x="1073" d="M137 682q0 173 158 293q-78 100 -78 213q0 141 98.5 231t296.5 90q84 0 162 -16l-14 -184q-70 22 -144 22q-165 0 -165 -133q0 -40 25.5 -83t65.5 -83.5t89 -84.5t98 -93.5t89 -102.5t65.5 -120.5t25.5 -138.5q0 -85 -41 -161t-116 -132q77 -101 77 -213 q0 -64 -24.5 -120.5t-73.5 -103.5t-132.5 -74.5t-190.5 -27.5q-71 0 -164 21l14 184q92 -25 156 -25q88 0 135 40t47 104q0 41 -25.5 83.5t-66 82t-89.5 82.5t-97.5 91.5t-89 100.5t-66 119t-25.5 139zM340 711q0 -20 4 -40.5t9.5 -37.5t18.5 -39t22 -36.5t30 -38 t32.5 -36.5t39 -40t41 -39.5t47 -43.5t47.5 -45q78 55 78 148q0 42 -15 81.5t-48 81t-62 71.5t-82.5 81t-83.5 82q-78 -58 -78 -149z" />
<glyph unicode="&#xa8;" horiz-adv-x="1118" d="M217 1335q0 51 35.5 87t87.5 36t88.5 -36t36.5 -87q0 -53 -36.5 -89t-88.5 -36t-87.5 36t-35.5 89zM618 1335q0 51 36.5 87t88.5 36q51 0 87 -36t36 -87q0 -52 -36 -88.5t-87 -36.5q-53 0 -89 36t-36 89z" />
<glyph unicode="&#xa9;" horiz-adv-x="1552" d="M80 684q0 188 92.5 347.5t252.5 252t349 92.5q142 0 270 -54.5t220.5 -146.5t147 -220t54.5 -269q0 -188 -92.5 -347.5t-252 -252t-347.5 -92.5q-144 0 -273 54t-221 146t-146 220t-54 270zM250 686q0 -143 70 -264.5t190.5 -192.5t263.5 -71t263.5 70.5t190.5 191.5 t70 264q0 142 -69.5 263.5t-190.5 193t-264 71.5t-263.5 -70.5t-190.5 -191.5t-70 -264zM446 676q0 76 20.5 142t62 119t112 83.5t162.5 30.5q84 0 166 -29l-23 -152q-65 35 -139 35q-176 0 -176 -223q0 -207 168 -207q78 0 151 31l27 -146q-93 -38 -205 -38q-160 0 -243 96 t-83 258z" />
<glyph unicode="&#xaa;" horiz-adv-x="808" d="M92 856q0 124 110 191t294 65v35q0 21 -4.5 37.5t-16.5 34.5t-39 28t-67 10q-114 0 -219 -55l-17 154q112 45 264 45q77 0 132.5 -19t85.5 -53t43.5 -74t13.5 -88v-305q0 -135 2 -176h-172q0 64 10 105l-4 2q-21 -51 -80 -87t-127 -36q-105 0 -157 50t-52 136zM111 399 v172h610v-172h-610zM262 883q0 -33 22 -52.5t60 -19.5q71 0 111.5 56t40.5 110v18q-234 0 -234 -112z" />
<glyph unicode="&#xab;" horiz-adv-x="1064" d="M100 600l230 385l166 -80l-183 -305l187 -299l-174 -82zM516 600l250 379l164 -82l-199 -297l201 -291l-170 -84z" />
<glyph unicode="&#xac;" d="M84 518v182h909v-495h-192v313h-717z" />
<glyph unicode="&#xad;" horiz-adv-x="679" d="M94 492v176h492v-176h-492z" />
<glyph unicode="&#xae;" horiz-adv-x="1153" d="M113 1083q0 192 135 326.5t327 134.5q195 0 330 -133t135 -328q0 -124 -63 -229.5t-170 -167t-232 -61.5q-195 0 -328.5 133t-133.5 325zM252 1087q0 -135 95 -233t228 -98q135 0 230.5 95.5t95.5 229.5q0 136 -96 234t-230 98q-133 0 -228 -96t-95 -230zM418 856v461 h174q162 0 162 -125q0 -54 -27.5 -87t-75.5 -44q19 -19 37 -57l80 -148h-133l-96 184h-11v-184h-110zM528 1114h25q40 0 60 19.5t20 46.5q0 28 -15.5 40.5t-50.5 12.5h-39v-119z" />
<glyph unicode="&#xaf;" horiz-adv-x="808" d="M139 1247v160h531v-160h-531z" />
<glyph unicode="&#xb0;" horiz-adv-x="780" d="M98 1239q0 124 88 199t203 75q141 0 212 -75.5t71 -192.5q0 -126 -87.5 -200t-207.5 -74q-129 0 -204 72t-75 196zM266 1243q0 -62 32 -97.5t87 -35.5q53 0 87 37.5t34 95.5q0 53 -29 92t-90 39q-53 0 -87 -36.5t-34 -94.5z" />
<glyph unicode="&#xb1;" d="M84 696v183h375v387h209v-387h374v-183h-374v-389h-209v389h-375zM88 0v182h950v-182h-950z" />
<glyph unicode="&#xb2;" horiz-adv-x="653" d="M90 727v123l137 119q64 54 88.5 89t24.5 70q0 36 -24 58t-66 22q-62 0 -115 -37l-39 134q103 45 201 45q121 0 180.5 -54t59.5 -133q0 -58 -30.5 -109t-103.5 -112l-84 -72h236v-143h-465z" />
<glyph unicode="&#xb3;" horiz-adv-x="630" d="M90 725l21 121q62 -17 106 -17q119 0 119 76q0 49 -45 66.5t-156 5.5v106h37q152 0 152 82q0 66 -91 66q-56 0 -108 -25l-29 111q83 33 185 33q116 0 171.5 -46t55.5 -116q0 -102 -94 -146q55 -6 85.5 -44.5t30.5 -90.5q0 -96 -78 -147t-221 -51q-79 0 -141 16z" />
<glyph unicode="&#xb4;" horiz-adv-x="800" d="M221 1276l311 256l111 -146l-336 -227z" />
<glyph unicode="&#xb5;" horiz-adv-x="1265" d="M160 -500v1518h219v-643q0 -105 36.5 -158t127.5 -53q107 0 180.5 98.5t73.5 239.5v516h217v-705q0 -95 13 -127t46 -32q52 0 86 69l88 -92q-79 -151 -252 -151q-51 0 -87.5 18t-54 49t-24 66t-2.5 75h-2q-36 -92 -117.5 -148t-185.5 -56q-107 0 -164 51l31 -535h-229z " />
<glyph unicode="&#xb6;" horiz-adv-x="1198" d="M125 940q0 197 130 319.5t339 122.5v-890q-118 -1 -209.5 34.5t-147 97.5t-84 142t-28.5 174zM604 -25h148v1407h329v-172h-139v-1407h-338v172z" />
<glyph unicode="&#xb7;" horiz-adv-x="512" d="M106 608q0 63 44 106.5t106 43.5t104.5 -43.5t42.5 -106.5q0 -62 -42.5 -104.5t-104.5 -42.5t-106 43t-44 104z" />
<glyph unicode="&#xb8;" horiz-adv-x="819" d="M313 -481q55 67 76.5 117.5t11 104.5t-58.5 114l184 63q146 -194 -43 -399h-170z" />
<glyph unicode="&#xb9;" horiz-adv-x="638" d="M86 1253l190 78h166v-604h-180v459l-139 -64z" />
<glyph unicode="&#xba;" horiz-adv-x="864" d="M88 1034q0 165 99.5 267t252.5 102q69 0 125.5 -18.5t103.5 -58t73 -110.5t26 -169q0 -169 -99.5 -272t-256.5 -103q-149 0 -236.5 87t-87.5 275zM119 399v172h620v-172h-620zM274 1038q0 -91 34.5 -150t115.5 -59q72 0 116 52.5t44 162.5q0 201 -154 201 q-66 0 -111 -50.5t-45 -156.5z" />
<glyph unicode="&#xbb;" horiz-adv-x="1064" d="M135 307l199 297l-199 291l168 84l246 -375l-252 -379zM567 299l185 305l-185 299l174 82l226 -381l-232 -385z" />
<glyph unicode="&#xbc;" horiz-adv-x="1447" d="M94 1315l180 67h156v-663h-184v498l-123 -52zM121 55l1009 1372l140 -100l-1010 -1372zM762 238l248 426h252v-404h96v-137h-96v-123h-177v123h-313zM918 256q45 2 165 2v283z" />
<glyph unicode="&#xbd;" horiz-adv-x="1484" d="M94 1315l180 67h156v-663h-184v498l-123 -52zM121 55l1009 1372l140 -100l-1010 -1372zM893 0v139l133 121q115 102 115 176q0 88 -90 88q-70 0 -129 -35l-21 146q94 41 205 41q116 0 173.5 -53.5t57.5 -143.5q0 -121 -131 -246l-88 -83q68 4 242 4v-154h-467z" />
<glyph unicode="&#xbe;" horiz-adv-x="1480" d="M115 717l18 129q67 -19 115 -19q50 0 82 26t32 67q0 46 -50 69t-165 6v115q209 0 209 98q0 66 -86 66q-65 0 -129 -31l-18 123q88 31 194 31q109 0 165.5 -45t56.5 -123q0 -110 -113 -156q56 -9 90.5 -52t34.5 -97q0 -101 -77 -160t-216 -59q-79 0 -143 12zM154 55 l1009 1372l140 -100l-1008 -1372zM797 238l245 426h252v-404h99v-137h-99v-123h-176v123h-313zM950 256q47 2 166 2v283z" />
<glyph unicode="&#xbf;" horiz-adv-x="917" d="M111 -37q0 69 22.5 127.5t57 97.5t75 79.5t76.5 74t62 81.5t31.5 100.5t-15.5 131.5h213q27 -88 25.5 -150t-24.5 -116t-57.5 -92t-74 -76.5t-73.5 -70.5t-56.5 -74.5t-22.5 -87.5q0 -97 111.5 -161t300.5 -71l-29 -198q-295 9 -458.5 125.5t-163.5 279.5zM383 901 q0 58 40.5 97.5t100.5 39.5q59 0 99.5 -39.5t40.5 -97.5q0 -57 -40.5 -96t-99.5 -39q-60 0 -100.5 39t-40.5 96z" />
<glyph unicode="&#xc0;" horiz-adv-x="1269" d="M12 0l492 1382h256l497 -1382h-247l-105 305h-561l-106 -305h-226zM330 1589l55 162l395 -152l-39 -122zM399 483h449l-166 469q-39 114 -57 189h-4q-22 -89 -56 -187z" />
<glyph unicode="&#xc1;" horiz-adv-x="1269" d="M12 0l492 1382h256l497 -1382h-247l-105 305h-561l-106 -305h-226zM399 483h449l-166 469q-39 114 -57 189h-4q-22 -89 -56 -187zM469 1599l395 152l56 -162l-412 -112z" />
<glyph unicode="&#xc2;" horiz-adv-x="1269" d="M12 0l492 1382h256l497 -1382h-247l-105 305h-561l-106 -305h-226zM299 1589l330 174l334 -166l-60 -122l-280 118l-271 -118zM399 483h449l-166 469q-39 114 -57 189h-4q-22 -89 -56 -187z" />
<glyph unicode="&#xc3;" horiz-adv-x="1269" d="M12 0l492 1382h256l497 -1382h-247l-105 305h-561l-106 -305h-226zM264 1587q89 160 242 160q47 0 88.5 -16t66 -35t55 -35t58.5 -16q67 0 123 90l111 -78q-91 -158 -242 -158q-47 0 -88.5 16t-66 35.5t-55 35.5t-58.5 16q-69 0 -123 -91zM399 483h449l-166 469 q-39 114 -57 189h-4q-22 -89 -56 -187z" />
<glyph unicode="&#xc4;" horiz-adv-x="1269" d="M12 0l492 1382h256l497 -1382h-247l-105 305h-561l-106 -305h-226zM289 1602q0 51 35 85.5t86 34.5t85.5 -34.5t34.5 -85.5t-34.5 -85t-85.5 -34t-86 34t-35 85zM399 483h449l-166 469q-39 114 -57 189h-4q-22 -89 -56 -187zM729 1602q0 51 35 85.5t86 34.5t86 -34.5 t35 -85.5t-35 -85t-86 -34t-86 34t-35 85z" />
<glyph unicode="&#xc5;" horiz-adv-x="1269" d="M12 0l492 1382h256l497 -1382h-247l-105 305h-561l-106 -305h-226zM399 483h449l-166 469q-39 114 -57 189h-4q-22 -89 -56 -187zM412 1675q0 92 67 155.5t160 63.5q96 0 161.5 -61t65.5 -154q0 -91 -67.5 -156t-161.5 -65q-95 0 -160 61.5t-65 155.5zM539 1677 q0 -42 29 -72t71 -30q41 0 70.5 30.5t29.5 71.5q0 42 -29.5 72.5t-70.5 30.5q-42 0 -71 -30.5t-29 -72.5z" />
<glyph unicode="&#xc6;" horiz-adv-x="1603" d="M-84 0l713 1382h827v-186h-495v-393h477v-182h-477v-431h512v-190h-730v322h-434l-162 -322h-231zM387 498h356v696h-4q-74 -167 -133 -283z" />
<glyph unicode="&#xc7;" horiz-adv-x="1179" d="M88 653q0 164 42 298t124 234t213.5 155t302.5 55q168 0 307 -43l-33 -205q-142 51 -292 51q-85 0 -154.5 -25.5t-118.5 -71t-82.5 -109t-49 -139.5t-15.5 -163q0 -246 108 -376t330 -130q71 0 149 18t136 48l37 -197q-167 -69 -371 -69q-136 0 -243.5 34t-179.5 94 t-120 145.5t-69 183.5t-21 212zM524 -481q55 67 76.5 117.5t11 104.5t-58.5 114l184 63q146 -194 -43 -399h-170z" />
<glyph unicode="&#xc8;" horiz-adv-x="1019" d="M160 0v1382h729v-186h-506v-393h481v-182h-481v-431h506v-190h-729zM223 1589l56 162l395 -152l-39 -122z" />
<glyph unicode="&#xc9;" horiz-adv-x="1019" d="M160 0v1382h729v-186h-506v-393h481v-182h-481v-431h506v-190h-729zM362 1599l396 152l55 -162l-412 -112z" />
<glyph unicode="&#xca;" horiz-adv-x="1019" d="M160 0v1382h729v-186h-506v-393h481v-182h-481v-431h506v-190h-729zM193 1589l329 174l334 -166l-59 -122l-281 118l-270 -118z" />
<glyph unicode="&#xcb;" horiz-adv-x="1019" d="M160 0v1382h729v-186h-506v-393h481v-182h-481v-431h506v-190h-729zM174 1602q0 51 35 85.5t86 34.5t86 -34.5t35 -85.5t-35 -85t-86 -34t-86 34t-35 85zM614 1602q0 51 35 85.5t86 34.5t86 -34.5t35 -85.5t-35 -85t-86 -34t-86 34t-35 85z" />
<glyph unicode="&#xcc;" horiz-adv-x="544" d="M-31 1589l56 162l395 -152l-39 -122zM160 0v1382h223v-1382h-223z" />
<glyph unicode="&#xcd;" horiz-adv-x="544" d="M127 1599l395 152l56 -162l-412 -112zM160 0v1382h223v-1382h-223z" />
<glyph unicode="&#xce;" horiz-adv-x="544" d="M-57 1589l329 174l334 -166l-59 -122l-281 118l-270 -118zM160 0v1382h223v-1382h-223z" />
<glyph unicode="&#xcf;" horiz-adv-x="544" d="M-70 1602q0 51 35 85.5t86 34.5t86 -34.5t35 -85.5t-35 -85t-86 -34t-86 34t-35 85zM160 0v1382h223v-1382h-223zM371 1602q0 51 35 85.5t86 34.5t85.5 -34.5t34.5 -85.5t-34.5 -85t-85.5 -34t-86 34t-35 85z" />
<glyph unicode="&#xd0;" horiz-adv-x="1396" d="M8 623v168h170v589q7 0 169.5 4.5t258.5 4.5q339 0 522 -165t183 -513q0 -228 -96 -391t-267 -245t-403 -83q-83 0 -215 4t-152 4v623h-170zM399 193q82 -11 166 -11q113 0 205 30.5t160 92t105.5 160.5t37.5 229q0 252 -117.5 381t-367.5 129q-91 0 -189 -4v-409h275 v-168h-275v-430z" />
<glyph unicode="&#xd1;" horiz-adv-x="1441" d="M160 0v1382h295l481 -813q85 -151 143 -280q-14 276 -14 743v350h215v-1382h-295l-489 831q-83 148 -136 271q15 -253 15 -721v-381h-215zM350 1587q89 160 242 160q47 0 88.5 -16t66 -35t55 -35t58.5 -16q67 0 123 90l111 -78q-91 -158 -242 -158q-47 0 -88.5 16 t-66 35.5t-55 35.5t-58.5 16q-69 0 -123 -91z" />
<glyph unicode="&#xd2;" horiz-adv-x="1441" d="M78 672q0 169 52 308.5t142.5 231t211 141.5t257.5 50q307 0 465 -184t158 -508q0 -169 -52.5 -308.5t-143 -231t-211 -141.5t-257.5 -50q-307 0 -464.5 184t-157.5 508zM315 702q0 -243 102.5 -383.5t301.5 -140.5q177 0 292 134t115 368q0 243 -103 384.5t-300 141.5 q-176 0 -292 -135t-116 -369zM414 1589l55 162l395 -152l-39 -122z" />
<glyph unicode="&#xd3;" horiz-adv-x="1441" d="M78 672q0 169 52 308.5t142.5 231t211 141.5t257.5 50q307 0 465 -184t158 -508q0 -169 -52.5 -308.5t-143 -231t-211 -141.5t-257.5 -50q-307 0 -464.5 184t-157.5 508zM315 702q0 -243 102.5 -383.5t301.5 -140.5q177 0 292 134t115 368q0 243 -103 384.5t-300 141.5 q-176 0 -292 -135t-116 -369zM594 1599l395 152l55 -162l-411 -112z" />
<glyph unicode="&#xd4;" horiz-adv-x="1441" d="M78 672q0 169 52 308.5t142.5 231t211 141.5t257.5 50q307 0 465 -184t158 -508q0 -169 -52.5 -308.5t-143 -231t-211 -141.5t-257.5 -50q-307 0 -464.5 184t-157.5 508zM315 702q0 -243 102.5 -383.5t301.5 -140.5q177 0 292 134t115 368q0 243 -103 384.5t-300 141.5 q-176 0 -292 -135t-116 -369zM403 1589l330 174l334 -166l-59 -122l-281 118l-270 -118z" />
<glyph unicode="&#xd5;" horiz-adv-x="1441" d="M78 672q0 169 52 308.5t142.5 231t211 141.5t257.5 50q307 0 465 -184t158 -508q0 -169 -52.5 -308.5t-143 -231t-211 -141.5t-257.5 -50q-307 0 -464.5 184t-157.5 508zM315 702q0 -243 102.5 -383.5t301.5 -140.5q177 0 292 134t115 368q0 243 -103 384.5t-300 141.5 q-176 0 -292 -135t-116 -369zM350 1587q89 160 242 160q47 0 88.5 -16t66 -35t55 -35t58.5 -16q67 0 123 90l111 -78q-91 -158 -242 -158q-47 0 -88.5 16t-66 35.5t-55 35.5t-58.5 16q-69 0 -123 -91z" />
<glyph unicode="&#xd6;" horiz-adv-x="1441" d="M78 672q0 169 52 308.5t142.5 231t211 141.5t257.5 50q307 0 465 -184t158 -508q0 -169 -52.5 -308.5t-143 -231t-211 -141.5t-257.5 -50q-307 0 -464.5 184t-157.5 508zM315 702q0 -243 102.5 -383.5t301.5 -140.5q177 0 292 134t115 368q0 243 -103 384.5t-300 141.5 q-176 0 -292 -135t-116 -369zM389 1602q0 51 35 85.5t86 34.5t86 -34.5t35 -85.5t-35 -85t-86 -34t-86 34t-35 85zM829 1602q0 51 35 85.5t86 34.5t86 -34.5t35 -85.5t-35 -85t-86 -34t-86 34t-35 85z" />
<glyph unicode="&#xd7;" d="M104 270l332 332l-332 330l136 135l329 -332l332 332l121 -121l-332 -332l332 -329l-135 -135l-330 331l-332 -331z" />
<glyph unicode="&#xd8;" horiz-adv-x="1441" d="M78 676q0 168 52 306.5t142.5 230t211 141t257.5 49.5q84 0 174 -17l86 203l160 -67l-84 -199q139 -76 213 -233t74 -385q0 -168 -51.5 -306t-141.5 -229t-212.5 -140.5t-264.5 -49.5q-105 0 -184 20l-88 -209l-160 68l90 209q-138 81 -206 238t-68 370zM309 702 q0 -149 38 -259t104 -167l380 922h-2q-44 14 -108 14q-83 0 -156.5 -33t-131 -95.5t-91 -161t-33.5 -220.5zM596 188q59 -16 115 -16q86 0 161 31.5t134 92.5t93 161t34 227q0 155 -39 267t-113 171z" />
<glyph unicode="&#xd9;" horiz-adv-x="1406" d="M160 471v911h223v-895q0 -74 14 -129t48 -100.5t98 -69.5t157 -24q172 0 250 81t78 271v866h219v-850q0 -274 -143.5 -413t-417.5 -139q-126 0 -221 27.5t-152 71.5t-92.5 110t-48 133t-12.5 149zM362 1589l56 162l395 -152l-39 -122z" />
<glyph unicode="&#xda;" horiz-adv-x="1406" d="M160 471v911h223v-895q0 -74 14 -129t48 -100.5t98 -69.5t157 -24q172 0 250 81t78 271v866h219v-850q0 -274 -143.5 -413t-417.5 -139q-126 0 -221 27.5t-152 71.5t-92.5 110t-48 133t-12.5 149zM627 1599l395 152l55 -162l-411 -112z" />
<glyph unicode="&#xdb;" horiz-adv-x="1406" d="M160 471v911h223v-895q0 -74 14 -129t48 -100.5t98 -69.5t157 -24q172 0 250 81t78 271v866h219v-850q0 -274 -143.5 -413t-417.5 -139q-126 0 -221 27.5t-152 71.5t-92.5 110t-48 133t-12.5 149zM377 1589l330 174l333 -166l-59 -122l-281 118l-270 -118z" />
<glyph unicode="&#xdc;" horiz-adv-x="1406" d="M160 471v911h223v-895q0 -74 14 -129t48 -100.5t98 -69.5t157 -24q172 0 250 81t78 271v866h219v-850q0 -274 -143.5 -413t-417.5 -139q-126 0 -221 27.5t-152 71.5t-92.5 110t-48 133t-12.5 149zM362 1602q0 51 35 85.5t86 34.5t86 -34.5t35 -85.5t-35 -85t-86 -34 t-86 34t-35 85zM803 1602q0 51 35 85.5t86 34.5t85.5 -34.5t34.5 -85.5t-34.5 -85t-85.5 -34t-86 34t-35 85z" />
<glyph unicode="&#xdd;" horiz-adv-x="1122" d="M12 1382h244l205 -436q51 -113 98 -233h4q38 100 115 258l194 411h236l-440 -888v-494h-224v494zM471 1599l395 152l56 -162l-412 -112z" />
<glyph unicode="&#xde;" horiz-adv-x="1099" d="M160 0v1382h223v-202q76 6 162 6q245 0 381.5 -112t136.5 -324q0 -215 -156 -349.5t-409 -134.5q-78 0 -115 4v-270h-223zM383 457q52 -8 131 -8q149 0 234.5 73.5t85.5 212.5q0 125 -80 197t-246 72q-46 0 -125 -11v-536z" />
<glyph unicode="&#xdf;" horiz-adv-x="1226" d="M160 0v1018q0 130 36.5 226.5t102.5 152.5t149 83t183 27q182 0 287.5 -78.5t105.5 -209.5q0 -55 -14.5 -99t-37.5 -72.5t-50.5 -52.5t-55 -43.5t-50.5 -40t-37.5 -48.5t-14.5 -62q0 -39 21.5 -71.5t56 -56.5t76 -47t82.5 -51t75.5 -62t56 -85t21.5 -115 q0 -150 -114 -241.5t-302 -91.5q-122 0 -209 24l15 186q84 -38 186 -38q100 0 149.5 39t49.5 98q0 40 -21.5 73t-55.5 56.5t-75.5 46t-82.5 49.5t-75 60.5t-55.5 85t-21.5 116.5q0 67 26.5 118.5t64 84.5t75 63t64 70t26.5 90q0 66 -47 100.5t-129 34.5q-242 0 -242 -307 v-1030h-219z" />
<glyph unicode="&#xe0;" horiz-adv-x="1071" d="M88 262q0 170 158.5 261t441.5 91v43q0 110 -45.5 160.5t-155.5 50.5q-69 0 -153.5 -20t-153.5 -51l-39 170q177 71 377 71q213 0 301 -90t88 -266v-403q0 -150 6 -279h-211q0 112 11 188l-2 2q-38 -93 -128.5 -151.5t-209.5 -58.5q-129 0 -207 78t-78 204zM246 1386 l110 146l314 -256l-88 -117zM301 289q0 -60 38 -98.5t101 -38.5q107 0 177.5 87.5t70.5 200.5v27q-387 0 -387 -178z" />
<glyph unicode="&#xe1;" horiz-adv-x="1071" d="M88 262q0 170 158.5 261t441.5 91v43q0 110 -45.5 160.5t-155.5 50.5q-69 0 -153.5 -20t-153.5 -51l-39 170q177 71 377 71q213 0 301 -90t88 -266v-403q0 -150 6 -279h-211q0 112 11 188l-2 2q-38 -93 -128.5 -151.5t-209.5 -58.5q-129 0 -207 78t-78 204zM301 289 q0 -60 38 -98.5t101 -38.5q107 0 177.5 87.5t70.5 200.5v27q-387 0 -387 -178zM408 1276l311 256l110 -146l-335 -227z" />
<glyph unicode="&#xe2;" horiz-adv-x="1071" d="M88 262q0 170 158.5 261t441.5 91v43q0 110 -45.5 160.5t-155.5 50.5q-69 0 -153.5 -20t-153.5 -51l-39 170q177 71 377 71q213 0 301 -90t88 -266v-403q0 -150 6 -279h-211q0 112 11 188l-2 2q-38 -93 -128.5 -151.5t-209.5 -58.5q-129 0 -207 78t-78 204zM238 1260 l299 272l297 -270l-93 -103l-206 170l-209 -170zM301 289q0 -60 38 -98.5t101 -38.5q107 0 177.5 87.5t70.5 200.5v27q-387 0 -387 -178z" />
<glyph unicode="&#xe3;" horiz-adv-x="1071" d="M88 262q0 170 158.5 261t441.5 91v43q0 110 -45.5 160.5t-155.5 50.5q-69 0 -153.5 -20t-153.5 -51l-39 170q177 71 377 71q213 0 301 -90t88 -266v-403q0 -150 6 -279h-211q0 112 11 188l-2 2q-38 -93 -128.5 -151.5t-209.5 -58.5q-129 0 -207 78t-78 204zM172 1296 q84 170 236 170q45 0 84.5 -17t63 -37t52.5 -37t56 -17q64 0 118 94l107 -82q-89 -170 -236 -170q-46 0 -85.5 17t-62.5 37.5t-52 37.5t-56 17q-63 0 -118 -95zM301 289q0 -60 38 -98.5t101 -38.5q107 0 177.5 87.5t70.5 200.5v27q-387 0 -387 -178z" />
<glyph unicode="&#xe4;" horiz-adv-x="1071" d="M88 262q0 170 158.5 261t441.5 91v43q0 110 -45.5 160.5t-155.5 50.5q-69 0 -153.5 -20t-153.5 -51l-39 170q177 71 377 71q213 0 301 -90t88 -266v-403q0 -150 6 -279h-211q0 112 11 188l-2 2q-38 -93 -128.5 -151.5t-209.5 -58.5q-129 0 -207 78t-78 204zM207 1335 q0 51 35.5 87t87.5 36t88.5 -36t36.5 -87q0 -53 -36.5 -89t-88.5 -36t-87.5 36t-35.5 89zM301 289q0 -60 38 -98.5t101 -38.5q107 0 177.5 87.5t70.5 200.5v27q-387 0 -387 -178zM608 1335q0 51 36.5 87t88.5 36q51 0 87 -36t36 -87q0 -52 -36 -88.5t-87 -36.5q-53 0 -89 36 t-36 89z" />
<glyph unicode="&#xe5;" horiz-adv-x="1071" d="M88 262q0 170 158.5 261t441.5 91v43q0 110 -45.5 160.5t-155.5 50.5q-69 0 -153.5 -20t-153.5 -51l-39 170q177 71 377 71q213 0 301 -90t88 -266v-403q0 -150 6 -279h-211q0 112 11 188l-2 2q-38 -93 -128.5 -151.5t-209.5 -58.5q-129 0 -207 78t-78 204zM293 1360 q0 100 73.5 168.5t174.5 68.5q103 0 174 -66t71 -165q0 -98 -73 -169t-174 -71q-103 0 -174.5 66.5t-71.5 167.5zM301 289q0 -60 38 -98.5t101 -38.5q107 0 177.5 87.5t70.5 200.5v27q-387 0 -387 -178zM430 1362q0 -46 32 -79.5t79 -33.5q45 0 76.5 33.5t31.5 79.5 q0 47 -31 80t-77 33q-47 0 -79 -33t-32 -80z" />
<glyph unicode="&#xe6;" horiz-adv-x="1646" d="M88 262q0 170 158.5 262t441.5 92v60q0 98 -48.5 145t-164.5 47q-70 0 -149.5 -20t-141.5 -53l-43 176q175 67 371 67q239 0 317 -145h2q47 65 129.5 105t182.5 40q107 0 188 -34.5t130 -95.5t73.5 -139t24.5 -171q0 -31 -7 -106h-649q-9 -336 301 -336q159 0 293 61 l29 -172q-160 -65 -361 -65q-160 0 -263.5 60.5t-143.5 162.5h-2q-47 -97 -146 -160t-233 -63q-132 0 -210.5 78t-78.5 204zM299 289q0 -60 38 -98.5t101 -38.5q108 0 179 87t71 201v29q-389 0 -389 -180zM907 641h432q3 108 -52 170.5t-152 62.5q-91 0 -153 -63t-75 -170z " />
<glyph unicode="&#xe7;" horiz-adv-x="882" d="M78 475q0 165 54.5 289t170 197t281.5 73q139 0 237 -39l-37 -186q-105 43 -213 43q-126 0 -195 -95.5t-69 -256.5q0 -328 266 -328q129 0 220 45l32 -182q-122 -51 -295 -51q-102 0 -182 26.5t-142 83t-95 153t-33 228.5zM352 -481q55 67 76.5 117.5t11 104.5t-58.5 114 l184 63q146 -194 -43 -399h-170z" />
<glyph unicode="&#xe8;" horiz-adv-x="1046" d="M78 502q0 235 126.5 385.5t342.5 150.5q106 0 186.5 -33.5t128.5 -92.5t72 -134t24 -164q0 -68 -8 -125h-647q-4 -172 69.5 -252.5t231.5 -80.5q154 0 293 59l29 -170q-168 -65 -361 -65q-487 0 -487 522zM250 1386l110 146l314 -256l-88 -117zM307 641h432 q3 107 -52 170t-152 63q-92 0 -153 -63.5t-75 -169.5z" />
<glyph unicode="&#xe9;" horiz-adv-x="1046" d="M78 502q0 235 126.5 385.5t342.5 150.5q106 0 186.5 -33.5t128.5 -92.5t72 -134t24 -164q0 -68 -8 -125h-647q-4 -172 69.5 -252.5t231.5 -80.5q154 0 293 59l29 -170q-168 -65 -361 -65q-487 0 -487 522zM307 641h432q3 107 -52 170t-152 63q-92 0 -153 -63.5 t-75 -169.5zM406 1276l311 256l110 -146l-335 -227z" />
<glyph unicode="&#xea;" horiz-adv-x="1046" d="M78 502q0 235 126.5 385.5t342.5 150.5q106 0 186.5 -33.5t128.5 -92.5t72 -134t24 -164q0 -68 -8 -125h-647q-4 -172 69.5 -252.5t231.5 -80.5q154 0 293 59l29 -170q-168 -65 -361 -65q-487 0 -487 522zM244 1260l299 272l297 -270l-92 -103l-207 170l-209 -170z M307 641h432q3 107 -52 170t-152 63q-92 0 -153 -63.5t-75 -169.5z" />
<glyph unicode="&#xeb;" horiz-adv-x="1046" d="M78 502q0 235 126.5 385.5t342.5 150.5q106 0 186.5 -33.5t128.5 -92.5t72 -134t24 -164q0 -68 -8 -125h-647q-4 -172 69.5 -252.5t231.5 -80.5q154 0 293 59l29 -170q-168 -65 -361 -65q-487 0 -487 522zM217 1335q0 51 35.5 87t87.5 36t88.5 -36t36.5 -87 q0 -53 -36.5 -89t-88.5 -36t-87.5 36t-35.5 89zM307 641h432q3 107 -52 170t-152 63q-92 0 -153 -63.5t-75 -169.5zM618 1335q0 51 36.5 87t88.5 36q51 0 87 -36t36 -87q0 -52 -36 -88.5t-87 -36.5q-53 0 -89 36t-36 89z" />
<glyph unicode="&#xec;" horiz-adv-x="538" d="M12 1386l111 146l313 -256l-88 -117zM160 0v1018h219v-1018h-219z" />
<glyph unicode="&#xed;" horiz-adv-x="538" d="M98 1276l312 256l110 -146l-336 -227zM160 0v1018h219v-1018h-219z" />
<glyph unicode="&#xee;" horiz-adv-x="538" d="M-29 1260l299 272l297 -270l-92 -103l-207 170l-209 -170zM160 0v1018h219v-1018h-219z" />
<glyph unicode="&#xef;" horiz-adv-x="538" d="M-55 1335q0 51 35.5 87t87.5 36t88.5 -36t36.5 -87q0 -53 -36.5 -89t-88.5 -36t-87.5 36t-35.5 89zM160 0v1018h219v-1018h-219zM346 1335q0 51 36.5 87t88.5 36q51 0 87 -36t36 -87q0 -52 -36 -88.5t-87 -36.5q-53 0 -89 36t-36 89z" />
<glyph unicode="&#xf0;" d="M76 496q0 236 134.5 387t350.5 151q62 0 114.5 -20t78.5 -60q-1 2 -58 97q-50 85 -121 159l-200 -88l-90 107l184 82q-56 49 -162 127l217 92q87 -70 148 -131l194 84l90 -109l-188 -82q134 -160 205 -346t71 -383q0 -144 -38.5 -257t-106.5 -183.5t-157.5 -106.5 t-194.5 -36q-217 0 -344 130t-127 386zM301 514q0 -166 71 -256t197 -90q111 0 179.5 90.5t68.5 276.5q0 150 -65 234.5t-191 84.5q-109 0 -184.5 -87.5t-75.5 -252.5z" />
<glyph unicode="&#xf1;" horiz-adv-x="1173" d="M160 0v1018h209q0 -116 -15 -201h2q46 102 138 161.5t217 59.5q84 0 144.5 -25t94 -71t49 -102.5t15.5 -126.5v-713h-217v653q0 101 -34 152t-118 51q-115 0 -190.5 -106t-75.5 -261v-489h-219zM233 1296q84 170 236 170q45 0 84.5 -17t63 -37t52.5 -37t56 -17 q65 0 119 94l106 -82q-89 -170 -235 -170q-46 0 -85.5 17t-62.5 37.5t-52 37.5t-56 17q-64 0 -119 -95z" />
<glyph unicode="&#xf2;" horiz-adv-x="1124" d="M74 496q0 234 140 388t368 154q214 0 339.5 -126t125.5 -384q0 -155 -63 -280t-179 -196.5t-264 -71.5q-220 0 -343.5 128t-123.5 388zM281 1386l110 146l314 -256l-89 -117zM301 518q0 -172 66 -261t194 -89q113 0 186.5 88.5t73.5 257.5q0 165 -64.5 252.5t-193.5 87.5 q-109 0 -185.5 -86t-76.5 -250z" />
<glyph unicode="&#xf3;" horiz-adv-x="1124" d="M74 496q0 234 140 388t368 154q214 0 339.5 -126t125.5 -384q0 -155 -63 -280t-179 -196.5t-264 -71.5q-220 0 -343.5 128t-123.5 388zM301 518q0 -172 66 -261t194 -89q113 0 186.5 88.5t73.5 257.5q0 165 -64.5 252.5t-193.5 87.5q-109 0 -185.5 -86t-76.5 -250z M432 1276l311 256l111 -146l-336 -227z" />
<glyph unicode="&#xf4;" horiz-adv-x="1124" d="M74 496q0 234 140 388t368 154q214 0 339.5 -126t125.5 -384q0 -155 -63 -280t-179 -196.5t-264 -71.5q-220 0 -343.5 128t-123.5 388zM272 1260l299 272l297 -270l-92 -103l-207 170l-209 -170zM301 518q0 -172 66 -261t194 -89q113 0 186.5 88.5t73.5 257.5 q0 165 -64.5 252.5t-193.5 87.5q-109 0 -185.5 -86t-76.5 -250z" />
<glyph unicode="&#xf5;" horiz-adv-x="1124" d="M74 496q0 234 140 388t368 154q214 0 339.5 -126t125.5 -384q0 -155 -63 -280t-179 -196.5t-264 -71.5q-220 0 -343.5 128t-123.5 388zM217 1296q84 170 236 170q45 0 84.5 -17t63 -37t52.5 -37t56 -17q64 0 118 94l107 -82q-89 -170 -236 -170q-46 0 -85.5 17 t-62.5 37.5t-52 37.5t-56 17q-63 0 -118 -95zM301 518q0 -172 66 -261t194 -89q113 0 186.5 88.5t73.5 257.5q0 165 -64.5 252.5t-193.5 87.5q-109 0 -185.5 -86t-76.5 -250z" />
<glyph unicode="&#xf6;" horiz-adv-x="1124" d="M74 496q0 234 140 388t368 154q214 0 339.5 -126t125.5 -384q0 -155 -63 -280t-179 -196.5t-264 -71.5q-220 0 -343.5 128t-123.5 388zM244 1335q0 51 35.5 87t87.5 36t88.5 -36t36.5 -87q0 -53 -36 -89t-89 -36q-52 0 -87.5 36t-35.5 89zM301 518q0 -172 66 -261 t194 -89q113 0 186.5 88.5t73.5 257.5q0 165 -64.5 252.5t-193.5 87.5q-109 0 -185.5 -86t-76.5 -250zM645 1335q0 51 36.5 87t88.5 36q51 0 87 -36t36 -87q0 -52 -36 -88.5t-87 -36.5q-52 0 -88.5 36t-36.5 89z" />
<glyph unicode="&#xf7;" d="M84 518v182h958v-182h-958zM422 197q0 59 40.5 100t98.5 41t98.5 -41t40.5 -100q0 -57 -40.5 -98.5t-98.5 -41.5t-98.5 41.5t-40.5 98.5zM422 1020q0 58 40 98.5t99 40.5t99 -40.5t40 -98.5t-40 -98.5t-99 -40.5t-99 40.5t-40 98.5z" />
<glyph unicode="&#xf8;" d="M74 496q0 154 61.5 276.5t178.5 194t270 71.5q57 0 129 -14l88 184l127 -55l-86 -182q209 -124 209 -443q0 -156 -62 -280.5t-178 -196t-266 -71.5q-85 0 -162 22l-96 -205l-129 56l98 206q-182 125 -182 437zM285 518q0 -171 82 -256l258 598q-27 6 -62 6 q-53 0 -100.5 -19.5t-88.5 -59t-65 -109t-24 -160.5zM473 170q38 -14 92 -14q122 0 198.5 92t76.5 266q0 193 -101 266z" />
<glyph unicode="&#xf9;" horiz-adv-x="1173" d="M160 305v713h217v-653q0 -101 33.5 -152t117.5 -51q115 0 191 105.5t76 260.5v490h219v-1018h-209q0 121 14 201h-2q-46 -102 -137.5 -161.5t-216.5 -59.5q-84 0 -144.5 25t-94 71t-49 102.5t-15.5 126.5zM287 1386l110 146l314 -256l-88 -117z" />
<glyph unicode="&#xfa;" horiz-adv-x="1173" d="M160 305v713h217v-653q0 -101 33.5 -152t117.5 -51q115 0 191 105.5t76 260.5v490h219v-1018h-209q0 121 14 201h-2q-46 -102 -137.5 -161.5t-216.5 -59.5q-84 0 -144.5 25t-94 71t-49 102.5t-15.5 126.5zM469 1276l311 256l111 -146l-336 -227z" />
<glyph unicode="&#xfb;" horiz-adv-x="1173" d="M160 305v713h217v-653q0 -101 33.5 -152t117.5 -51q115 0 191 105.5t76 260.5v490h219v-1018h-209q0 121 14 201h-2q-46 -102 -137.5 -161.5t-216.5 -59.5q-84 0 -144.5 25t-94 71t-49 102.5t-15.5 126.5zM289 1260l299 272l297 -270l-92 -103l-207 170l-209 -170z" />
<glyph unicode="&#xfc;" horiz-adv-x="1173" d="M160 305v713h217v-653q0 -101 33.5 -152t117.5 -51q115 0 191 105.5t76 260.5v490h219v-1018h-209q0 121 14 201h-2q-46 -102 -137.5 -161.5t-216.5 -59.5q-84 0 -144.5 25t-94 71t-49 102.5t-15.5 126.5zM262 1335q0 51 35.5 87t87.5 36t88.5 -36t36.5 -87 q0 -53 -36 -89t-89 -36q-52 0 -87.5 36t-35.5 89zM664 1335q0 51 36 87t88 36q51 0 87 -36t36 -87q0 -52 -36 -88.5t-87 -36.5q-52 0 -88 36t-36 89z" />
<glyph unicode="&#xfd;" horiz-adv-x="1003" d="M-43 -504l25 191q59 -17 124 -17q80 0 143 51t111 179l37 100l-381 1018h244l168 -465q43 -127 80 -266h2q28 114 100 317l146 414h235l-411 -1090q-93 -250 -205 -347t-289 -97q-59 0 -129 12zM391 1276l311 256l111 -146l-336 -227z" />
<glyph unicode="&#xfe;" horiz-adv-x="1142" d="M160 -500v1995h219v-434q0 -133 -12 -219h4q41 91 123 143.5t194 52.5q181 0 278 -124t97 -355q0 -270 -138.5 -421.5t-392.5 -151.5q-89 0 -153 12v-498h-219zM379 178q67 -20 160 -20q138 0 215 92t77 289q0 319 -200 319q-78 0 -137 -56t-87 -138t-28 -172v-314z" />
<glyph unicode="&#xff;" horiz-adv-x="1003" d="M-43 -504l25 191q59 -17 124 -17q80 0 143 51t111 179l37 100l-381 1018h244l168 -465q43 -127 80 -266h2q28 114 100 317l146 414h235l-411 -1090q-93 -250 -205 -347t-289 -97q-59 0 -129 12zM184 1335q0 51 35.5 87t87.5 36t88.5 -36t36.5 -87q0 -53 -36 -89t-89 -36 q-52 0 -87.5 36t-35.5 89zM586 1335q0 51 36.5 87t88.5 36q51 0 87 -36t36 -87q0 -52 -36 -88.5t-87 -36.5q-53 0 -89 36t-36 89z" />
<glyph unicode="&#x152;" horiz-adv-x="1765" d="M78 676q0 168 52 306.5t142 229.5t209 141t254 50q112 0 211 -21h690v-186h-508v-393h482v-182h-482v-431h508v-190h-712q-120 -20 -224 -20q-206 0 -347 86.5t-208 240.5t-67 369zM315 702q0 -243 102 -383.5t300 -140.5q88 0 190 31v969q-89 28 -184 28 q-82 0 -155 -32.5t-129.5 -94t-90 -159t-33.5 -218.5z" />
<glyph unicode="&#x153;" horiz-adv-x="1775" d="M74 496q0 235 140 388.5t368 153.5q109 0 203 -44t149 -130q120 174 338 174q106 0 187.5 -34.5t130.5 -95.5t73.5 -139t24.5 -171q0 -31 -7 -106h-649q-9 -336 301 -336q156 0 293 61l29 -172q-160 -65 -361 -65q-273 0 -385 190q-58 -88 -152 -139t-216 -51 q-220 0 -343.5 127t-123.5 389zM301 518q0 -172 66 -261t194 -89q113 0 186.5 88.5t73.5 257.5q0 165 -64.5 252.5t-193.5 87.5q-109 0 -185.5 -86t-76.5 -250zM1036 641h432q3 108 -52 170.5t-152 62.5q-91 0 -153 -63t-75 -170z" />
<glyph unicode="&#x178;" horiz-adv-x="1122" d="M12 1382h244l205 -436q51 -113 98 -233h4q38 100 115 258l194 411h236l-440 -888v-494h-224v494zM225 1602q0 51 35 85.5t86 34.5t86 -34.5t35 -85.5t-35 -85t-86 -34t-86 34t-35 85zM666 1602q0 51 34.5 85.5t85.5 34.5t86 -34.5t35 -85.5t-35 -85t-86 -34t-85.5 34 t-34.5 85z" />
<glyph unicode="&#x2c6;" horiz-adv-x="880" d="M139 1260l299 272l297 -270l-92 -103l-207 170l-209 -170z" />
<glyph unicode="&#x2dc;" horiz-adv-x="989" d="M133 1296q84 170 236 170q45 0 84.5 -17t63 -37t52.5 -37t56 -17q64 0 118 94l107 -82q-89 -170 -236 -170q-46 0 -85.5 17t-62.5 37.5t-52 37.5t-56 17q-63 0 -118 -95z" />
<glyph unicode="&#x2000;" horiz-adv-x="947" />
<glyph unicode="&#x2001;" horiz-adv-x="1894" />
<glyph unicode="&#x2002;" horiz-adv-x="947" />
<glyph unicode="&#x2003;" horiz-adv-x="1894" />
<glyph unicode="&#x2004;" horiz-adv-x="631" />
<glyph unicode="&#x2005;" horiz-adv-x="473" />
<glyph unicode="&#x2006;" horiz-adv-x="315" />
<glyph unicode="&#x2007;" horiz-adv-x="315" />
<glyph unicode="&#x2008;" horiz-adv-x="236" />
<glyph unicode="&#x2009;" horiz-adv-x="378" />
<glyph unicode="&#x200a;" horiz-adv-x="105" />
<glyph unicode="&#x2010;" horiz-adv-x="679" d="M94 492v176h492v-176h-492z" />
<glyph unicode="&#x2011;" horiz-adv-x="679" d="M94 492v176h492v-176h-492z" />
<glyph unicode="&#x2012;" horiz-adv-x="679" d="M94 492v176h492v-176h-492z" />
<glyph unicode="&#x2013;" d="M0 514v191h1126v-191h-1126z" />
<glyph unicode="&#x2014;" horiz-adv-x="2048" d="M236 514v191h1576v-191h-1576z" />
<glyph unicode="&#x2018;" horiz-adv-x="520" d="M128 1239q54 153 220 301l92 -82q-178 -189 -86 -303q24 -29 28 -66.5t-10 -69t-46 -53.5t-74 -22q-80 0 -120 71q-51 90 -4 224z" />
<glyph unicode="&#x2019;" horiz-adv-x="520" d="M78 1010q64 70 92.5 128t25 98.5t-31.5 76.5q-25 29 -29 67t9.5 70t46 54t75.5 22q79 0 120 -71q50 -90 3 -225q-54 -154 -219 -302z" />
<glyph unicode="&#x201a;" horiz-adv-x="520" d="M78 -252q176 191 86 303q-25 30 -29 68t9.5 69.5t46 53.5t75.5 22q79 0 120 -71q50 -90 3 -225q-54 -154 -219 -302z" />
<glyph unicode="&#x201c;" horiz-adv-x="933" d="M128 1239q54 153 220 301l92 -82q-178 -189 -86 -303q24 -29 28 -66.5t-10 -69t-46 -53.5t-74 -22q-80 0 -120 71q-51 90 -4 224zM544 1239q54 153 220 301l92 -82q-178 -189 -86 -303q24 -29 28 -66.5t-10 -69t-46.5 -53.5t-75.5 -22q-80 0 -120 71q-50 90 -2 224z" />
<glyph unicode="&#x201d;" horiz-adv-x="933" d="M78 1010q64 70 92.5 128t25 98.5t-31.5 76.5q-25 29 -29 67t9.5 70t46 54t75.5 22q79 0 120 -71q50 -90 3 -225q-54 -154 -219 -302zM492 1010q65 70 93.5 128t25 98.5t-32.5 76.5q-24 29 -28 67t10 70t46.5 54t75.5 22q79 0 119 -71q51 -90 4 -224q-54 -154 -221 -303z " />
<glyph unicode="&#x201e;" horiz-adv-x="933" d="M78 -252q176 191 86 303q-25 30 -29 68t9.5 69.5t46 53.5t75.5 22q79 0 120 -71q50 -90 3 -225q-54 -154 -219 -302zM492 -252q179 192 86 303q-24 30 -28 68t10 69.5t46.5 53.5t75.5 22q79 0 119 -71q51 -90 4 -224q-54 -154 -221 -303z" />
<glyph unicode="&#x2022;" horiz-adv-x="862" d="M160 608q0 113 79 193t193 80q112 0 192.5 -80.5t80.5 -192.5t-80 -192t-193 -80q-114 0 -193 79.5t-79 192.5z" />
<glyph unicode="&#x202f;" horiz-adv-x="378" />
<glyph unicode="&#x2039;" horiz-adv-x="641" d="M98 600l242 383l164 -84l-193 -299l195 -293l-170 -86z" />
<glyph unicode="&#x203a;" horiz-adv-x="641" d="M137 305l193 299l-193 293l170 86l236 -379l-242 -383z" />
<glyph unicode="&#x205f;" horiz-adv-x="473" />
<glyph unicode="&#x20ac;" d="M23 444v140h161q-2 18 -2 61q0 35 4 109h-163v139h184q44 213 181 336t374 123q146 0 282 -54l-53 -174q-115 54 -252 54q-238 0 -307 -285h367v-139h-389q-2 -29 -2 -88v-82h391v-140h-371q26 -147 105 -216.5t223 -69.5q125 0 252 57l51 -168q-152 -67 -340 -67 q-226 0 -356.5 111.5t-165.5 352.5h-174z" />
<glyph unicode="&#x2122;" horiz-adv-x="1421" d="M76 1249v133h450v-133h-143v-442h-160v442h-147zM553 807l90 575h199l80 -286l20 -90l16 81l84 295h197l92 -575h-166l-41 278l-12 105l-20 -94l-82 -289h-156l-80 295l-20 88l-6 -76l-43 -307h-152z" />
<glyph unicode="&#x25fc;" horiz-adv-x="1013" d="M0 0v1014h1014v-1014h-1014z" />
</font>
</defs>
</svg>
