<?xml version="1.0" standalone="no"?>
<!DOCTYPE svg PUBLIC "-//W3C//DTD SVG 1.1//EN" "http://www.w3.org/Graphics/SVG/1.1/DTD/svg11.dtd" >
<svg xmlns="http://www.w3.org/2000/svg">
<metadata></metadata>
<defs>
<font id="thesansbw5_plain" horiz-adv-x="1126" >
<font-face units-per-em="2048" ascent="1516" descent="-532" />
<missing-glyph horiz-adv-x="446" />
<glyph unicode="&#x2e;&#x2e;&#x2e;" horiz-adv-x="1361" d="M106 104q0 52 36 88.5t89 36.5q51 0 87 -36.5t36 -88.5q0 -51 -36 -86.5t-87 -35.5q-52 0 -88.5 35.5t-36.5 86.5zM547 104q0 52 36 88.5t87 36.5q52 0 88.5 -36.5t36.5 -88.5q0 -51 -36.5 -86.5t-88.5 -35.5q-51 0 -87 35.5t-36 86.5zM987 104q0 52 36 88.5t87 36.5 q52 0 88.5 -36.5t36.5 -88.5q0 -51 -36.5 -86.5t-88.5 -35.5q-51 0 -87 35.5t-36 86.5z" />
<glyph unicode="&#xfb01;" horiz-adv-x="1208" d="M14 874v144h209v45q0 444 475 444q145 0 287 -37l-35 -155q-125 41 -248 41q-153 0 -223.5 -69.5t-70.5 -203.5v-65h626v-1018h-184v874h-442v-874h-185v874h-209z" />
<glyph unicode="&#xfb02;" horiz-adv-x="1208" d="M14 874v144h209v117q0 177 116 274.5t353 97.5q150 0 342 -30v-1477h-184v1343q-88 15 -176 15q-136 0 -201 -57.5t-65 -182.5v-100h276v-144h-276v-874h-185v874h-209z" />
<glyph unicode="&#xfb03;" horiz-adv-x="1824" d="M14 874v144h209v51q0 89 23.5 162t74 133t140.5 93.5t213 33.5q178 0 323 -66q119 84 324 84q135 0 291 -39l-37 -153q-131 41 -250 41q-297 0 -297 -275v-65h627v-1018h-185v874h-442v-874h-184v874h-436v-874h-185v874h-209zM408 1018h436v45q0 142 51 229 q-107 47 -233 47q-254 0 -254 -252v-69z" />
<glyph unicode="&#xfb04;" horiz-adv-x="1824" d="M14 874v144h209v51q0 89 23.5 162t74 133t140.5 93.5t213 33.5q168 0 313 -61q118 79 324 79q149 0 344 -30v-1479h-185v1343q-100 17 -176 17q-137 0 -201.5 -58t-64.5 -184v-100h275v-144h-275v-874h-184v874h-436v-874h-185v874h-209zM408 1018h436v117q0 97 39 165 q-95 39 -221 39q-254 0 -254 -252v-69z" />
<glyph horiz-adv-x="0" />
<glyph horiz-adv-x="0" />
<glyph horiz-adv-x="682" />
<glyph unicode="&#xd;" horiz-adv-x="1024" />
<glyph unicode=" "  horiz-adv-x="446" />
<glyph unicode="&#x09;" horiz-adv-x="446" />
<glyph unicode="&#xa0;" horiz-adv-x="446" />
<glyph unicode="!" horiz-adv-x="655" d="M221 102q0 51 36 86t89 35q52 0 87.5 -35t35.5 -86t-35.5 -85.5t-87.5 -34.5q-53 0 -89 34.5t-36 85.5zM238 1440h217l-31 -1096h-154z" />
<glyph unicode="&#x22;" horiz-adv-x="749" d="M106 1432h195l-29 -471h-137zM449 1432h194l-29 -471h-137z" />
<glyph unicode="#" d="M63 373v127h195l35 344h-180v127h192l39 360h139l-37 -360h299l39 360h140l-39 -360h178v-127h-191l-34 -344h176v-127h-191l-39 -373h-141l41 373h-299l-41 -373h-139l39 373h-181zM397 500h299l35 344h-299z" />
<glyph unicode="$" d="M170 952q0 131 90.5 226.5t237.5 117.5v199h137v-188q103 -3 221 -25l-20 -164q-112 37 -228 37q-130 0 -191 -53t-61 -127q0 -52 32.5 -91t84 -65t114 -50t125 -53t114 -66.5t84 -98t32.5 -139.5q0 -138 -92 -240t-252 -131v-215h-137v207q-135 0 -256 28l18 172 q115 -45 262 -45q119 0 192 50t73 149q0 47 -25 84t-65.5 60t-93 46.5t-106.5 42t-106.5 48.5t-93 65t-65.5 91.5t-25 127.5z" />
<glyph unicode="%" horiz-adv-x="1536" d="M90 1075q0 143 84.5 235.5t222.5 92.5q144 0 216.5 -78.5t72.5 -230.5q0 -147 -85 -239.5t-222 -92.5q-146 0 -217.5 81t-71.5 232zM197 43l1017 1378l119 -84l-1018 -1380zM242 1087q0 -103 36.5 -152.5t114.5 -49.5q62 0 102 54t40 142q0 102 -36 150.5t-112 48.5 q-65 0 -105 -53t-40 -140zM850 293q0 143 84.5 235.5t222.5 92.5q144 0 216.5 -78.5t72.5 -229.5q0 -147 -85 -240t-222 -93q-146 0 -217.5 81.5t-71.5 231.5zM1001 305q0 -103 37 -152t115 -49q62 0 101.5 53.5t39.5 141.5q0 102 -35.5 150.5t-111.5 48.5q-65 0 -105.5 -53 t-40.5 -140z" />
<glyph unicode="&#x26;" horiz-adv-x="1628" d="M115 381q0 89 38 169.5t96 141.5t150 133q-107 124 -148.5 206t-41.5 167q0 131 97 220t267 89q156 0 242 -76t86 -200q0 -106 -60 -202t-196 -202q221 -229 453 -415v-2q71 100 108.5 230.5t30.5 277.5h184q4 -173 -44 -329.5t-144 -279.5q147 -116 280 -207l-118 -141 q-192 133 -291 217q-225 -198 -541 -198q-214 0 -331 112.5t-117 288.5zM303 403q0 -111 81 -188.5t212 -77.5q215 0 379 142q-122 100 -251.5 221.5t-217.5 216.5q-107 -86 -155 -160t-48 -154zM391 1206q0 -52 34.5 -115.5t115.5 -156.5q91 74 133.5 138.5t42.5 139.5 q0 68 -40 111t-120 43q-72 0 -119 -45t-47 -115z" />
<glyph unicode="'" horiz-adv-x="407" d="M106 1432h195l-29 -471h-137z" />
<glyph unicode="(" horiz-adv-x="620" d="M143 582q0 539 301 1017l134 -63q-254 -436 -254 -944q0 -522 256 -952l-138 -68q-169 267 -234 511.5t-65 498.5z" />
<glyph unicode=")" horiz-adv-x="620" d="M51 1534l139 65q167 -266 232 -510t65 -497q0 -543 -301 -1020l-133 66q254 431 254 942q0 521 -256 954z" />
<glyph unicode="*" horiz-adv-x="765" d="M78 1096l211 92l-211 94l69 119l185 -135l-23 229h137l-24 -229l186 135l68 -119l-211 -92l211 -94l-70 -119l-184 135l22 -229h-137l23 229l-185 -135z" />
<glyph unicode="+" d="M86 532v154h389v410h174v-410h391v-154h-391v-411h-174v411h-389z" />
<glyph unicode="," horiz-adv-x="466" d="M53 -246q174 187 88 295q-26 39 -24.5 79.5t33.5 71.5t79 31q73 0 107 -66q45 -87 -8 -217q-54 -132 -197 -263z" />
<glyph unicode="-" horiz-adv-x="675" d="M96 512v152h484v-152h-484z" />
<glyph unicode="." horiz-adv-x="466" d="M106 109q0 53 37 90t90 37q54 0 90.5 -37t36.5 -90t-36.5 -90t-90.5 -37q-53 0 -90 37t-37 90z" />
<glyph unicode="/" horiz-adv-x="897" d="M6 -330l717 1880h176l-717 -1880h-176z" />
<glyph unicode="0" d="M96 672q0 171 35.5 302.5t100 213.5t151 123t192.5 41q82 0 148.5 -20t124.5 -68.5t97 -124.5t61 -192t22 -267q0 -148 -26.5 -268t-71.5 -199.5t-107 -132.5t-129.5 -76.5t-142.5 -23.5q-113 0 -195.5 36.5t-141.5 117t-88.5 214.5t-29.5 324zM295 684 q0 -288 60.5 -417.5t205.5 -129.5q129 0 198.5 133t69.5 398q0 196 -29.5 312.5t-87 166t-151.5 49.5q-59 0 -106 -27t-83.5 -85.5t-56.5 -159.5t-20 -240z" />
<glyph unicode="1" d="M150 1188l403 143h147v-1165h316v-166h-864v166h358v979l-328 -129z" />
<glyph unicode="2" d="M119 0v150l293 288q139 133 211.5 222t95 147.5t22.5 128.5q0 108 -70.5 179t-193.5 71q-85 0 -164.5 -30.5t-136.5 -74.5l-45 160q173 109 379 109q207 0 319.5 -111t112.5 -272q0 -137 -68 -257.5t-260 -299.5l-247 -236v-2q172 4 421 4h203v-176h-872z" />
<glyph unicode="3" d="M158 12l20 166q121 -41 252 -41q163 0 251.5 67t88.5 179q0 111 -86 174.5t-246 63.5q-104 0 -200 -11v148h47q220 0 339 61.5t119 184.5q0 91 -67 142.5t-184 51.5q-151 0 -293 -76l-19 162q167 68 344 68q199 0 306.5 -89t107.5 -231q0 -117 -66 -196t-188 -115l-2 -2 q124 -12 206.5 -101.5t82.5 -209.5q0 -196 -152 -312t-407 -116q-133 0 -254 32z" />
<glyph unicode="4" d="M47 457l565 874h250v-856h219v-168h-219v-307h-182v307h-619zM236 469q123 6 446 6v672h-2z" />
<glyph unicode="5" d="M174 8v170q119 -39 260 -39q162 0 251 74t89 201q0 121 -93 184.5t-255 63.5q-133 0 -223 -17v686h721v-176h-549v-348q70 4 112 4q230 0 358 -105.5t128 -269.5q0 -205 -152 -329.5t-401 -124.5q-130 0 -246 26z" />
<glyph unicode="6" d="M106 541q0 209 50 366t142 253t214 143t274 47q70 0 121 -7v-161q-68 10 -135 10q-386 0 -467 -428q-8 -40 -16 -100h2q49 84 136 129t194 45q193 0 303 -110t110 -279q0 -212 -127 -340.5t-336 -128.5q-218 0 -341.5 147.5t-123.5 413.5zM309 432q0 -130 73.5 -215.5 t205.5 -85.5q121 0 189.5 79t68.5 208q0 122 -68.5 194t-195.5 72q-121 0 -197 -79t-76 -173z" />
<glyph unicode="7" d="M115 1151v180h899v-160q-150 -279 -284.5 -589t-227.5 -582h-215q232 637 514 1155q-94 -4 -506 -4h-180z" />
<glyph unicode="8" d="M111 313q0 61 22 114.5t65 97.5t88.5 77.5t108.5 69.5q-125 64 -188.5 140.5t-63.5 186.5q0 154 120 253.5t310 99.5q189 0 298.5 -90t109.5 -234q0 -45 -13.5 -86t-35.5 -73t-56.5 -64t-69 -56t-79.5 -51q50 -26 87 -48.5t77 -56t65 -68t41.5 -82t16.5 -101.5 q0 -164 -131 -263t-332 -99q-200 0 -320 90.5t-120 242.5zM303 328q0 -89 70 -143t196 -54q109 0 180.5 51.5t71.5 141.5q0 35 -9.5 65.5t-30 56t-42 45.5t-57 41t-62.5 34.5t-71 33.5q-58 -32 -94.5 -56.5t-75 -58.5t-57.5 -73t-19 -84zM334 1016q0 -79 54 -131.5 t185 -116.5q52 30 85.5 52.5t67.5 53t50.5 65t16.5 73.5q0 90 -63.5 141t-170.5 51q-104 0 -164.5 -54t-60.5 -134z" />
<glyph unicode="9" d="M92 889q0 209 128.5 336t330.5 127q217 0 339 -138.5t122 -422.5q0 -213 -50.5 -371t-143 -252.5t-214.5 -140t-274 -45.5q-90 0 -164 14v166q86 -21 184 -21q195 0 306 100t147 300q9 59 18 98h-2q-50 -72 -132.5 -112t-186.5 -40q-191 0 -299.5 112.5t-108.5 289.5z M279 918q0 -126 68 -199.5t190 -73.5q126 0 198 73.5t72 182.5q0 133 -71 216t-199 83q-118 0 -188 -80t-70 -202z" />
<glyph unicode=":" horiz-adv-x="585" d="M197 109q0 53 37.5 90t89.5 37t89.5 -37t37.5 -90t-37.5 -90t-89.5 -37t-89.5 37t-37.5 90zM197 709q0 53 37.5 90t89.5 37t89.5 -37t37.5 -90q0 -54 -37 -90.5t-90 -36.5t-90 36.5t-37 90.5z" />
<glyph unicode=";" horiz-adv-x="585" d="M145 -246q174 187 88 295q-26 39 -24 79.5t34 71.5t79 31q73 0 107 -66q45 -87 -9 -217q-55 -133 -197 -263zM197 709q0 53 37.5 90t89.5 37t89.5 -37t37.5 -90q0 -54 -37 -90.5t-90 -36.5t-90 36.5t-37 90.5z" />
<glyph unicode="&#x3c;" d="M147 618l648 582l118 -119l-530 -460l530 -455l-118 -127z" />
<glyph unicode="=" d="M115 358v152h897v-152h-897zM115 707v153h897v-153h-897z" />
<glyph unicode="&#x3e;" d="M213 158l530 460l-530 455l119 127l647 -579l-647 -582z" />
<glyph unicode="?" horiz-adv-x="911" d="M172 1286l23 168q275 -9 434 -123t159 -274q0 -60 -18 -112t-46 -88.5t-63 -74t-69 -67.5t-63.5 -69t-47 -79t-19.5 -98t19 -125h-180q-21 65 -24.5 122.5t8 101t32.5 82.5t49 70.5t58 61t59 58.5t52 58.5t37 65t14 74.5q0 103 -113 172t-301 76zM268 102q0 51 35.5 86 t87.5 35q53 0 89 -35t36 -86t-36 -85.5t-89 -34.5q-52 0 -87.5 34.5t-35.5 85.5z" />
<glyph unicode="@" horiz-adv-x="2002" d="M176 575q0 198 71.5 372t193 294.5t286 190t346.5 69.5q145 0 266.5 -35.5t207 -98t145 -147.5t88 -183t28.5 -206q0 -267 -130 -417t-335 -150q-119 0 -173.5 65.5t-41.5 157.5h-6q-30 -75 -118.5 -149t-188.5 -74q-99 0 -150 71.5t-51 205.5q0 114 29.5 213t86 174.5 t146.5 118.5t203 43q136 0 250 -29l-78 -436q-38 -209 121 -209q119 0 193.5 105t74.5 300q0 82 -19.5 157.5t-63.5 145t-109.5 120t-164.5 80.5t-220 30q-198 0 -361.5 -95.5t-259.5 -269t-96 -389.5q0 -292 163 -457.5t470 -165.5q170 0 344 54l27 -150q-177 -57 -394 -57 q-369 0 -574.5 201.5t-205.5 549.5zM770 573q0 -157 88 -157q81 0 160.5 110.5t118.5 313.5l22 108q-54 13 -119 13q-67 0 -121 -38t-85 -98t-47.5 -125t-16.5 -127z" />
<glyph unicode="A" horiz-adv-x="1259" d="M20 0l502 1382h213l506 -1382h-211l-115 324h-587l-115 -324h-193zM375 473h491l-184 518q-30 80 -59 189h-5q-30 -112 -57 -185z" />
<glyph unicode="B" horiz-adv-x="1167" d="M174 0v1382q350 7 404 7q219 0 330.5 -87t111.5 -245q0 -111 -63 -197.5t-175 -124.5v-4q127 -17 204 -103.5t77 -213.5q0 -60 -16 -116.5t-55.5 -112.5t-99 -97.5t-154 -67.5t-212.5 -26q-57 0 -183 2.5t-169 3.5zM362 156q102 -11 177 -11q161 0 243 71.5t82 186.5 q0 240 -372 240q-97 0 -130 -2v-485zM362 786q39 -2 125 -2q167 0 251.5 63t84.5 179q0 100 -63.5 156.5t-212.5 56.5q-79 0 -185 -4v-449z" />
<glyph unicode="C" horiz-adv-x="1193" d="M94 657q0 161 40.5 293.5t121.5 233t212 156t302 55.5q172 0 317 -43l-30 -172q-154 53 -307 53q-92 0 -167.5 -27.5t-127.5 -77t-87.5 -118t-52 -149.5t-16.5 -173q0 -260 116 -398t353 -138q75 0 158 19t145 50l31 -164q-177 -73 -379 -73q-163 0 -285 49.5t-196.5 141 t-111 212t-36.5 270.5z" />
<glyph unicode="D" horiz-adv-x="1388" d="M174 0v1380q8 0 165.5 4.5t248.5 4.5q341 0 523.5 -167t182.5 -515q0 -174 -56.5 -310.5t-159 -224.5t-243 -134t-311.5 -46q-74 0 -189 4t-161 4zM362 164q76 -12 183 -12q254 0 402.5 135.5t148.5 406.5q0 541 -527 541q-54 0 -207 -6v-1065z" />
<glyph unicode="E" horiz-adv-x="1026" d="M174 0v1382h711v-155h-523v-439h498v-151h-498v-479h523v-158h-711z" />
<glyph unicode="F" horiz-adv-x="960" d="M174 0v1382h705v-155h-517v-449h490v-151h-490v-627h-188z" />
<glyph unicode="G" horiz-adv-x="1396" d="M88 657q0 163 48 298.5t139.5 235t233.5 155t322 55.5q190 0 383 -60l-40 -170q-179 68 -361 68q-109 0 -197.5 -29.5t-148.5 -81t-100.5 -122.5t-59 -151t-18.5 -169q0 -257 135 -399t377 -142q124 0 243 37v523h187v-644q-212 -79 -457 -79q-323 0 -504.5 179 t-181.5 496z" />
<glyph unicode="H" horiz-adv-x="1429" d="M174 0v1382h188v-585h705v585h188v-1382h-188v637h-705v-637h-188z" />
<glyph unicode="I" horiz-adv-x="536" d="M174 0v1382h188v-1382h-188z" />
<glyph unicode="J" horiz-adv-x="673" d="M2 2v164q71 -23 141 -23q87 0 128.5 49.5t41.5 180.5v1009h189v-1022q0 -374 -346 -374q-85 0 -154 16z" />
<glyph unicode="K" horiz-adv-x="1196" d="M174 0v1382h188v-651l549 651h234l-586 -667l606 -715h-256l-547 684v-684h-188z" />
<glyph unicode="L" horiz-adv-x="872" d="M174 0v1382h188v-1220h496v-162h-684z" />
<glyph unicode="M" horiz-adv-x="1820" d="M98 0l203 1382h229l293 -872q28 -78 80 -274h2q42 161 76 262l299 884h233l209 -1382h-196l-117 801q-33 247 -43 350h-4q-34 -146 -72 -260l-295 -891h-200l-281 834q-59 176 -88 317h-4q-8 -147 -37 -367l-94 -784h-193z" />
<glyph unicode="N" horiz-adv-x="1447" d="M174 0v1382h250l530 -870q86 -146 152 -281q-14 401 -14 799v352h182v-1382h-250l-537 887q-93 154 -145 272q14 -254 14 -774v-385h-182z" />
<glyph unicode="O" horiz-adv-x="1443" d="M86 674q0 169 51.5 308.5t141 230.5t208.5 140.5t254 49.5q204 0 344 -87t206.5 -241t66.5 -366q0 -169 -52 -308.5t-142 -230.5t-208.5 -140.5t-253.5 -49.5q-204 0 -343.5 87t-206 241t-66.5 366zM287 702q0 -257 110 -406t324 -149q187 0 311.5 142.5t124.5 390.5 q0 257 -111 407t-323 150q-187 0 -311.5 -143.5t-124.5 -391.5z" />
<glyph unicode="P" horiz-adv-x="1073" d="M174 0v1382q229 9 340 9q235 0 364.5 -109.5t129.5 -296.5q0 -202 -150 -331.5t-385 -129.5q-74 0 -111 4v-528h-188zM362 688q47 -8 113 -8q154 2 245 79.5t91 207.5q0 268 -317 268q-93 0 -132 -2v-545z" />
<glyph unicode="Q" horiz-adv-x="1441" d="M86 674q0 169 51.5 308.5t141 230.5t208.5 140.5t254 49.5q204 0 344 -87t206.5 -241t66.5 -366q0 -221 -87.5 -386t-248.5 -235h5q52 0 115 -19q66 -20 140 -35q45 -9 94 -9q32 0 66 4v-166q-67 -7 -118 -7q-32 0 -58 3q-66 7 -130.5 26.5t-111 40.5t-118 37.5 t-150.5 16.5h-54q-204 0 -343.5 87t-206 241t-66.5 366zM287 702q0 -257 110 -406t324 -149q90 0 169 36t138.5 102.5t94 168.5t34.5 226q0 257 -111 407t-323 150q-187 0 -311.5 -143.5t-124.5 -391.5z" />
<glyph unicode="R" horiz-adv-x="1132" d="M174 0v1382q141 9 346 9q105 0 188.5 -19.5t147.5 -61.5t98.5 -112.5t34.5 -167.5q0 -170 -116 -273t-289 -116q52 -62 118 -147l377 -494h-239l-453 618h-25v-618h-188zM362 762q40 -4 117 -4q147 0 230.5 68t83.5 180q0 122 -76 176.5t-230 54.5q-51 0 -125 -4v-471z " />
<glyph unicode="S" horiz-adv-x="1030" d="M104 1010q0 175 128 283t356 108q133 0 250 -27l-23 -166q-119 37 -237 37q-137 0 -208 -57.5t-71 -157.5q0 -60 35 -105t90.5 -73.5t123.5 -54.5t135.5 -57.5t123 -71.5t90.5 -107t35 -155q0 -187 -141 -305.5t-371 -118.5q-172 0 -303 38l22 181q141 -56 291 -56 q131 0 215 58t84 178q0 50 -21.5 89t-57.5 65.5t-83 49t-99 42.5t-103.5 42t-98.5 52t-83 68t-57.5 94.5t-21.5 126.5z" />
<glyph unicode="T" horiz-adv-x="1056" d="M37 1225v157h985v-157h-399v-1225h-189v1225h-397z" />
<glyph unicode="U" horiz-adv-x="1419" d="M174 465v917h188v-903q0 -77 15 -135t51.5 -107.5t106 -75.5t170.5 -26q185 0 269.5 87t84.5 292v868h184v-854q0 -271 -140 -409.5t-411 -138.5q-125 0 -219 27.5t-150 71.5t-90.5 109.5t-46.5 131t-12 145.5z" />
<glyph unicode="V" horiz-adv-x="1265" d="M23 1382h208l310 -888q60 -178 88 -283h4q38 145 96 297l318 874h194l-510 -1382h-211z" />
<glyph unicode="W" horiz-adv-x="1949" d="M70 1382h200l234 -901q32 -117 55 -266h2q22 138 55 256l256 911h213l265 -917q37 -135 55 -246h2q18 107 47 225l240 938h186l-364 -1382h-232l-264 930q-37 148 -51 239h-2q-10 -78 -49 -239l-259 -930h-225z" />
<glyph unicode="X" horiz-adv-x="1226" d="M35 0l454 713l-426 669h218l327 -528l322 528h213l-420 -663l469 -719h-236l-352 571l-350 -571h-219z" />
<glyph unicode="Y" horiz-adv-x="1099" d="M18 1382h207l219 -467q61 -128 105 -239h2q33 84 119 264l213 442h196l-440 -884v-498h-188v498z" />
<glyph unicode="Z" horiz-adv-x="1103" d="M94 0v139l580 914q92 139 112 166q-165 -5 -303 -5h-368v168h891v-143l-611 -950q-48 -73 -82 -121q43 4 344 4h357v-172h-920z" />
<glyph unicode="[" horiz-adv-x="659" d="M176 -408v1987h406v-141h-234v-1700h234v-146h-406z" />
<glyph unicode="\" horiz-adv-x="905" d="M23 1550h178l717 -1880h-179z" />
<glyph unicode="]" horiz-adv-x="659" d="M78 -262h233v1700h-233v141h405v-1987h-405v146z" />
<glyph unicode="^" d="M131 770l338 612h149l353 -610l-135 -70l-295 543l-283 -543z" />
<glyph unicode="_" d="M0 -365h1126v-145h-1126v145z" />
<glyph unicode="`" horiz-adv-x="755" d="M166 1401l100 123l287 -256l-78 -101z" />
<glyph unicode="a" horiz-adv-x="1067" d="M94 256q0 165 161 257.5t452 92.5v47q0 125 -49 182.5t-166 57.5q-70 0 -154.5 -21t-153.5 -53l-34 146q174 73 366 73q204 0 289.5 -90.5t85.5 -265.5v-389q0 -161 6 -293h-180q0 146 10 203h-4q-38 -97 -131 -159t-215 -62q-126 0 -204.5 75.5t-78.5 198.5zM276 283 q0 -67 43.5 -111.5t112.5 -44.5q118 0 196.5 99t78.5 225v26q-121 0 -207.5 -15.5t-134 -43.5t-68.5 -61t-21 -74z" />
<glyph unicode="b" horiz-adv-x="1142" d="M174 27v1468h184v-494q0 -113 -18 -190l4 -2q41 107 130.5 167t205.5 60q181 0 278 -123.5t97 -355.5q0 -266 -142 -418.5t-389 -152.5q-196 0 -350 41zM358 156q83 -25 181 -25q152 0 237.5 99.5t85.5 310.5q0 344 -225 344q-66 0 -120.5 -36t-88.5 -94t-52 -125.5 t-18 -135.5v-338z" />
<glyph unicode="c" horiz-adv-x="890" d="M84 475q0 254 128.5 406.5t367.5 152.5q138 0 249 -43l-34 -157q-110 47 -232 47q-135 0 -209.5 -104.5t-74.5 -276.5q0 -79 14 -140.5t45.5 -112t89 -77.5t139.5 -27q132 0 238 50l29 -154q-135 -55 -304 -55q-96 0 -173.5 25t-140.5 79.5t-97.5 152.5t-34.5 234z" />
<glyph unicode="d" horiz-adv-x="1140" d="M84 461q0 266 141.5 418.5t384.5 152.5q70 0 172 -10v473h185v-1495h-179q0 123 17 207l-4 2q-43 -105 -133.5 -166t-208.5 -61q-184 0 -279.5 126t-95.5 353zM279 477q0 -344 225 -344q66 0 120.5 36t88 94t51.5 126t18 137v338q-100 23 -180 23q-153 0 -238 -99 t-85 -311z" />
<glyph unicode="e" horiz-adv-x="1040" d="M84 504q0 152 53.5 272t159 190t246.5 70q104 0 183 -33t126 -91.5t70.5 -132t23.5 -161.5q0 -44 -6 -106h-666v-27q0 -176 74 -262q80 -92 248 -92q155 0 291 59l26 -145q-157 -63 -352 -63q-477 0 -477 522zM281 643h477v11q0 108 -59 174q-62 68 -169 69 q-99 0 -165.5 -68t-83.5 -186z" />
<glyph unicode="f" horiz-adv-x="716" d="M14 874v144h209v76q0 413 391 413q86 0 168 -18l-16 -154q-68 23 -150 23q-108 0 -158 -63t-50 -199v-78h282v-144h-282v-874h-185v874h-209z" />
<glyph unicode="g" horiz-adv-x="1107" d="M82 -219q0 85 48.5 157t121.5 113q-46 20 -73 60.5t-27 91.5q0 54 30.5 100.5t81.5 71.5q-149 89 -149 280q0 161 115.5 271t316.5 110q67 0 143 -18h346v-146h-168q82 -66 82 -188q0 -164 -110.5 -266.5t-319.5 -102.5q-52 0 -108 15q-66 -31 -66 -86q0 -42 40 -59.5 t134 -20.5l187 -6q165 -6 253.5 -82t88.5 -213q0 -164 -151.5 -275.5t-387.5 -111.5q-199 0 -313.5 79.5t-114.5 225.5zM266 -186q0 -89 76.5 -141t198.5 -52q151 0 236 61t85 158q0 75 -52 118t-157 46l-196 8q-44 0 -60 2q-131 -90 -131 -200zM297 672q0 -106 61 -164.5 t174 -58.5q110 0 173 59t63 164t-60 166t-169 61q-113 0 -177.5 -63.5t-64.5 -163.5z" />
<glyph unicode="h" horiz-adv-x="1177" d="M174 0v1495h184v-483q0 -132 -18 -203l4 -2q45 107 137 168t217 61q85 0 146 -25t95.5 -70.5t50.5 -102t16 -127.5v-711h-185v655q0 114 -39 172t-135 58q-125 0 -207 -114t-82 -284v-487h-184z" />
<glyph unicode="i" horiz-adv-x="532" d="M143 1339q0 51 36 86t87 35t87 -35t36 -86q0 -49 -36 -83.5t-87 -34.5q-52 0 -87.5 33.5t-35.5 84.5zM174 0v1018h184v-1018h-184z" />
<glyph unicode="j" horiz-adv-x="544" d="M-121 -502l17 162q70 -25 129 -25q95 0 129 49.5t34 186.5v1147h183v-1131q0 -211 -78.5 -309t-272.5 -98q-80 0 -141 18zM158 1339q0 51 36 86t87 35q50 0 85 -35t35 -86q0 -49 -35 -83.5t-85 -34.5q-52 0 -87.5 33.5t-35.5 84.5z" />
<glyph unicode="k" horiz-adv-x="1009" d="M174 0v1495h184v-924l359 447h223l-391 -465l422 -553h-236l-377 524v-524h-184z" />
<glyph unicode="l" horiz-adv-x="532" d="M174 0v1495h184v-1495h-184z" />
<glyph unicode="m" horiz-adv-x="1800" d="M174 0v1018h178q0 -130 -14 -215l2 -2q45 109 138.5 172t215.5 63q76 0 132.5 -23.5t86.5 -61.5t44.5 -73.5t17.5 -72.5q14 31 33.5 61t51 61.5t68 55t87.5 38.5t108 15q303 0 303 -334v-702h-184v653q0 114 -36 173t-130 59q-114 0 -199.5 -111.5t-85.5 -290.5v-483 h-182v653q0 53 -6.5 91.5t-24 72t-51.5 51t-84 17.5q-119 0 -202 -114.5t-83 -287.5v-483h-184z" />
<glyph unicode="n" horiz-adv-x="1177" d="M174 0v1018h178q0 -134 -16 -215h4q46 108 138.5 170.5t219.5 62.5q85 0 146 -25t95.5 -70.5t50.5 -102t16 -127.5v-711h-185v655q0 114 -39 172t-135 58q-125 0 -207 -114t-82 -284v-487h-184z" />
<glyph unicode="o" horiz-adv-x="1116" d="M80 500q0 150 59 271t172.5 193t263.5 72q100 0 181.5 -28.5t145 -88t98 -159.5t34.5 -234q0 -234 -137.5 -389t-359.5 -155q-215 0 -336 129t-121 389zM272 518q0 -185 74 -283t213 -98q122 0 202.5 97t80.5 282q0 176 -72 271.5t-211 95.5q-56 0 -106.5 -22 t-91.5 -65.5t-65 -115t-24 -162.5z" />
<glyph unicode="p" horiz-adv-x="1142" d="M174 -506v1524h178q0 -131 -16 -207l4 -2q43 107 132.5 167t209.5 60q179 0 276 -123.5t97 -355.5q0 -271 -138.5 -420t-386.5 -149q-101 0 -172 12v-506h-184zM358 156q83 -25 181 -25q152 0 237.5 99.5t85.5 310.5q0 344 -225 344q-87 0 -153 -62.5t-96 -150 t-30 -180.5v-336z" />
<glyph unicode="q" horiz-adv-x="1142" d="M88 459q0 269 142.5 422t394.5 153q162 0 344 -28v-1512h-183v529q0 106 15 182l-4 2q-41 -105 -129.5 -165t-202.5 -60q-182 0 -279.5 121t-97.5 356zM283 477q0 -344 223 -344q66 0 121 36t88.5 94t52 127t18.5 138v338q-92 21 -182 21q-152 0 -236.5 -99.5 t-84.5 -310.5z" />
<glyph unicode="r" horiz-adv-x="727" d="M174 0v1018h178q0 -126 -22 -242h4q17 57 45 103.5t69.5 86t101.5 58.5q44 14 96 14q19 0 38 -2l-8 -182q-33 6 -62 6q-114 0 -177 -90q-79 -113 -79 -360v-410h-184z" />
<glyph unicode="s" horiz-adv-x="870" d="M102 731q0 136 105 220.5t301 84.5q95 0 197 -20l-15 -152q-102 31 -198 31q-99 0 -149 -38.5t-50 -106.5q0 -45 26 -76.5t68 -49.5t92.5 -33.5t101.5 -35.5t93 -48t68 -79t26 -121q0 -142 -117 -233.5t-313 -91.5q-134 0 -225 26l16 164q100 -41 225 -41q99 0 160 42.5 t61 113.5q0 46 -26 77.5t-68 48.5t-92.5 31.5t-100.5 34t-92 47.5t-68 80t-26 125z" />
<glyph unicode="t" horiz-adv-x="759" d="M6 874v144h209v330l184 51v-381h285v-144h-285v-520q0 -125 30.5 -169t115.5 -44q66 0 129 17l18 -152q-93 -22 -205 -22q-154 0 -213 69t-59 236v585h-209z" />
<glyph unicode="u" horiz-adv-x="1177" d="M174 307v711h182v-656q0 -114 39.5 -171.5t134.5 -57.5q125 0 207 113.5t82 283.5v488h185v-1018h-179q0 129 17 215h-4q-46 -107 -139 -170t-220 -63q-305 0 -305 325z" />
<glyph unicode="v" horiz-adv-x="995" d="M16 1018h207l215 -606q40 -116 60 -193h4q21 76 57 187l221 612h199l-389 -1018h-191z" />
<glyph unicode="w" horiz-adv-x="1624" d="M33 1018h203l155 -543q58 -201 74 -266h2q24 106 70 262l174 547h196l176 -541q63 -206 78 -270h2q20 87 70 262l164 549h194l-329 -1018h-207l-203 600q-29 93 -57 203h-2q-20 -91 -72 -256l-170 -547h-205z" />
<glyph unicode="x" horiz-adv-x="1060" d="M43 0l373 510l-355 508h226l252 -383l256 383h209l-353 -502l369 -516h-240l-256 391l-258 -391h-223z" />
<glyph unicode="y" horiz-adv-x="983" d="M-49 -510l20 164q53 -16 123 -16q85 0 149.5 54.5t118.5 196.5l41 111l-385 1018h209l193 -529q29 -82 78 -251h4q25 98 100 313l164 467h201l-418 -1104q-91 -244 -198.5 -340t-280.5 -96q-53 0 -119 12z" />
<glyph unicode="z" horiz-adv-x="915" d="M98 0v131l488 727q-114 -4 -269 -4h-208v164h692v-129l-482 -723q110 4 277 4h215v-170h-713z" />
<glyph unicode="{" horiz-adv-x="698" d="M59 575v146q123 6 170 52t47 169v240q0 190 74 293.5t246 103.5h37v-141q-106 0 -146.5 -53t-40.5 -197v-238q0 -264 -190 -299v-4q92 -14 141 -91t49 -212v-356q0 -144 40.5 -197t146.5 -53v-146h-37q-171 0 -245.5 98t-74.5 302v358q0 120 -48.5 169.5t-168.5 55.5z " />
<glyph unicode="|" horiz-adv-x="583" d="M217 -506v2048h145v-2048h-145z" />
<glyph unicode="}" horiz-adv-x="692" d="M78 -262q106 0 146 53t40 197v356q0 134 49 211.5t142 91.5v4q-191 24 -191 291v246q0 144 -40 197t-146 53v141h37q172 0 245.5 -103.5t73.5 -293.5v-232q0 -128 46.5 -175.5t170.5 -53.5v-146q-120 -6 -168.5 -55.5t-48.5 -169.5v-358q0 -205 -74 -302.5t-245 -97.5 h-37v146z" />
<glyph unicode="~" d="M111 899v21q0 135 74.5 218t199.5 83q53 0 96.5 -17t69.5 -42t52 -55t45.5 -55t48 -42t61.5 -17q61 0 91 48.5t32 134.5h137v-21q0 -133 -74 -216t-199 -83q-53 0 -96.5 16.5t-69.5 41.5t-51.5 54.5t-45 54.5t-48 41.5t-61.5 16.5q-122 0 -125 -182h-137z" />
<glyph unicode="&#xa1;" horiz-adv-x="655" d="M186 915q0 51 35.5 86t87.5 35t87.5 -35t35.5 -86t-35.5 -85.5t-87.5 -34.5t-87.5 34.5t-35.5 85.5zM199 -422l30 1096h156l33 -1096h-219z" />
<glyph unicode="&#xa2;" d="M162 674q0 193 107 317t300 156v184h144v-178q121 -3 233 -47l-35 -154q-114 52 -235 52q-150 0 -236 -83.5t-86 -240.5q0 -146 77.5 -230.5t240.5 -84.5q137 0 243 61l48 -147q-122 -59 -250 -68v-211h-144v211q-197 12 -302 131.5t-105 331.5z" />
<glyph unicode="&#xa3;" d="M111 588v143h196q-24 152 -24 225q0 396 405 396q127 0 246 -35l-41 -158q-118 41 -219 41q-102 0 -153.5 -57.5t-51.5 -165.5q0 -61 27 -246h325v-143h-307q12 -71 12 -137q0 -89 -37 -157t-118 -138q90 4 166 4h446v-160h-833v127q97 82 143.5 156.5t46.5 156.5 q0 74 -12 148h-217z" />
<glyph unicode="&#xa4;" d="M123 223l149 185q-82 95 -82 266q0 157 93 256l-160 196l135 99l152 -207q67 37 168 37q94 0 163 -35l154 207l131 -101l-158 -198q68 -88 68 -242q0 -147 -82 -248l172 -213l-135 -102l-164 221q-79 -49 -180 -49q-73 0 -139 27l-148 -199zM356 678q0 -111 50.5 -178.5 t160.5 -67.5q84 0 143.5 68.5t59.5 183.5q0 108 -51 171t-162 63q-86 0 -143.5 -65.5t-57.5 -174.5z" />
<glyph unicode="&#xa5;" d="M70 1331h204l193 -411q29 -62 94 -236h4q45 124 107 248l188 399h199l-361 -725h293v-125h-338v-143h338v-125h-338v-213h-186v213h-338v125h338v143h-338v125h293z" />
<glyph unicode="&#xa6;" horiz-adv-x="583" d="M217 268h145v-774h-145v774zM217 788v754h145v-754h-145z" />
<glyph unicode="&#xa7;" horiz-adv-x="1064" d="M147 694q0 166 162 291q-80 103 -80 211q0 136 93.5 223.5t275.5 87.5q79 0 154 -16l-13 -156q-76 21 -143 21q-85 0 -128.5 -39t-43.5 -109q0 -49 34.5 -104t86 -103.5t112 -108.5t112 -118.5t86 -135.5t34.5 -157q0 -167 -162 -288q80 -107 80 -216 q0 -132 -99.5 -223.5t-287.5 -91.5q-75 0 -162 23l14 155q79 -24 154 -24q88 0 137 42.5t49 112.5q0 50 -34.5 105t-86 102.5t-112 106.5t-112 116.5t-86 134.5t-34.5 158zM322 717q0 -31 7.5 -60.5t26.5 -61.5t35.5 -56t50.5 -60.5t55 -57t66 -64t66 -64.5q86 61 86 164 q0 45 -16 87.5t-51.5 88t-65.5 77.5t-86.5 87.5t-85.5 85.5q-88 -65 -88 -166z" />
<glyph unicode="&#xa8;" horiz-adv-x="1118" d="M236 1339q0 46 32 78.5t78 32.5t77.5 -32.5t31.5 -78.5t-31.5 -78t-77.5 -32t-78 32t-32 78zM629 1339q0 46 32 78.5t78 32.5t77.5 -32.5t31.5 -78.5t-31.5 -78t-77.5 -32t-78 32t-32 78z" />
<glyph unicode="&#xa9;" horiz-adv-x="1548" d="M82 684q0 187 92 345t250 249.5t346 91.5q189 0 347 -90.5t249.5 -247.5t91.5 -344t-92 -345.5t-250.5 -250.5t-345.5 -92q-143 0 -271 53.5t-219.5 145t-144.5 218t-53 267.5zM229 688q0 -148 72.5 -274.5t197 -200.5t271.5 -74q148 0 273 73t197.5 198.5t72.5 273.5 q0 147 -72.5 273t-197.5 200t-273 74q-147 0 -271.5 -72.5t-197 -197.5t-72.5 -273zM446 676q0 77 20 142.5t61 118.5t112 83.5t164 30.5q86 0 162 -27l-17 -131q-68 33 -147 33q-102 0 -148.5 -66t-46.5 -178q0 -227 187 -227q85 0 159 30l21 -127q-90 -34 -203 -34 q-162 0 -243 95.5t-81 256.5z" />
<glyph unicode="&#xaa;" horiz-adv-x="796" d="M98 864q0 117 108 183.5t296 66.5v37q0 123 -133 123q-114 0 -215 -53l-15 135q111 43 252 43q73 0 126 -18.5t81.5 -52t41.5 -72t13 -85.5v-290q0 -144 2 -179h-151q0 65 10 109l-4 2q-21 -51 -80.5 -88t-126.5 -37q-102 0 -153.5 48t-51.5 128zM117 432v146h590v-146 h-590zM250 889q0 -36 23.5 -57t64.5 -21q53 0 92.5 34t55.5 73.5t16 72.5v19q-252 0 -252 -121z" />
<glyph unicode="&#xab;" horiz-adv-x="1042" d="M111 600l233 373l139 -72l-188 -299l190 -295l-143 -74zM506 600l252 369l135 -72l-205 -295l207 -291l-139 -73z" />
<glyph unicode="&#xac;" d="M86 532v154h901v-475h-162v321h-739z" />
<glyph unicode="&#xad;" horiz-adv-x="675" d="M96 512v152h484v-152h-484z" />
<glyph unicode="&#xae;" horiz-adv-x="1150" d="M123 1083q0 186 132 316.5t320 130.5q189 0 320 -129t131 -318q0 -184 -133 -316t-318 -132q-191 0 -321.5 129.5t-130.5 318.5zM248 1085q0 -137 95.5 -236t231.5 -99t232 97t96 232q0 137 -96 236.5t-232 99.5t-231.5 -96.5t-95.5 -233.5zM424 852v467h162 q159 0 159 -123q0 -57 -28.5 -91.5t-79.5 -43.5q12 -12 39 -60l88 -149h-123l-109 195h-8v-195h-100zM524 1112h29q44 0 65 21t21 51t-16.5 43.5t-55.5 13.5h-43v-129z" />
<glyph unicode="&#xaf;" horiz-adv-x="808" d="M145 1262v139h519v-139h-519z" />
<glyph unicode="&#xb0;" horiz-adv-x="770" d="M109 1247q0 80 41 141t103 91t132 30q131 0 199.5 -73t68.5 -185q0 -118 -83.5 -190t-196.5 -72q-121 0 -192.5 69.5t-71.5 188.5zM254 1249q0 -65 34.5 -102t90.5 -37q57 0 94 39t37 100q0 56 -31.5 99t-97.5 43q-55 0 -91 -40t-36 -102z" />
<glyph unicode="&#xb1;" d="M86 688v152h389v401h176v-401h389v-152h-389v-403h-176v403h-389zM90 0v154h946v-154h-946z" />
<glyph unicode="&#xb2;" horiz-adv-x="649" d="M94 729v107l150 133q64 56 88 92.5t24 75.5q0 38 -26 63t-74 25q-67 0 -115 -39l-41 114q91 48 195 48q114 0 171.5 -53t57.5 -132q0 -59 -29.5 -111t-101.5 -112l-98 -84h250v-127h-451z" />
<glyph unicode="&#xb3;" horiz-adv-x="626" d="M94 729l21 109q62 -17 108 -17q125 0 125 84q0 54 -46 72t-161 6v98h43q152 0 152 88q0 32 -23.5 53t-72.5 21q-55 0 -109 -26l-29 98q74 33 177 33q108 0 161.5 -45t53.5 -113q0 -101 -95 -146q55 -7 86 -45.5t31 -91.5q0 -94 -76 -144t-211 -50q-69 0 -135 16z" />
<glyph unicode="&#xb4;" horiz-adv-x="796" d="M225 1266l287 258l100 -123l-309 -234z" />
<glyph unicode="&#xb5;" horiz-adv-x="1259" d="M174 -506v1524h184v-643q0 -118 42.5 -179t144.5 -61q117 0 196.5 106t79.5 255v522h185v-719q0 -99 13 -132.5t48 -33.5q52 0 88 74l82 -74q-31 -67 -92 -109t-146 -42q-94 0 -130 64.5t-23 156.5h-2q-36 -98 -122.5 -158.5t-195.5 -60.5q-121 0 -186 59l29 -549h-195z " />
<glyph unicode="&#xb6;" horiz-adv-x="1179" d="M135 948q0 190 127 312t330 122v-876q-114 0 -203 35t-143.5 96.5t-82.5 140t-28 170.5zM596 -53h149v1435h312v-143h-146v-1436h-315v144z" />
<glyph unicode="&#xb7;" horiz-adv-x="479" d="M109 608q0 56 38 94.5t93 38.5t93 -38.5t38 -94.5q0 -54 -38 -92.5t-93 -38.5t-93 38.5t-38 92.5z" />
<glyph unicode="&#xb8;" horiz-adv-x="819" d="M336 -481q56 70 78 121.5t13 104.5t-56 112l157 61q51 -67 60.5 -135t-17 -131.5t-86.5 -132.5h-149z" />
<glyph unicode="&#xb9;" horiz-adv-x="632" d="M90 1251l193 80h141v-602h-156v473l-143 -65z" />
<glyph unicode="&#xba;" horiz-adv-x="858" d="M96 1044q0 157 95.5 257t242.5 100q64 0 118 -16.5t101 -54t74 -107.5t27 -168q0 -163 -97 -264t-249 -101q-145 0 -228.5 85t-83.5 269zM127 432v146h598v-146h-598zM260 1049q0 -45 7.5 -82t24.5 -70t49.5 -51.5t78.5 -18.5q78 0 124 56t46 170q0 93 -38.5 152 t-125.5 59q-69 0 -117.5 -53t-48.5 -162z" />
<glyph unicode="&#xbb;" horiz-adv-x="1042" d="M147 309l207 295l-204 291l139 74l250 -363l-256 -368zM559 305l189 299l-189 295l143 74l230 -367l-236 -373z" />
<glyph unicode="&#xbc;" horiz-adv-x="1437" d="M100 1315l183 67h133v-663h-158v520l-133 -55zM133 43l991 1382l121 -86l-993 -1382zM760 231l258 433h217v-412h100v-121h-100v-131h-154v131h-313zM897 250h184v303z" />
<glyph unicode="&#xbd;" horiz-adv-x="1480" d="M100 1315l183 67h133v-663h-158v520l-133 -55zM133 43l991 1382l121 -86l-993 -1382zM891 0v119l147 139q64 57 89.5 100.5t25.5 85.5q0 47 -25.5 74t-76.5 27q-71 0 -131 -37l-21 125q95 43 197 43q112 0 168.5 -54t56.5 -143q0 -122 -133 -252l-103 -96q72 4 261 4 v-135h-455z" />
<glyph unicode="&#xbe;" horiz-adv-x="1472" d="M123 719l16 115q55 -19 113 -19q55 0 90 28t35 75q0 52 -53 77.5t-170 8.5v102q215 0 215 106q0 74 -93 74q-63 0 -129 -29l-16 109q80 29 184 29q102 0 155.5 -43.5t53.5 -120.5q0 -116 -112 -158q56 -9 91.5 -52t35.5 -97q0 -100 -75.5 -158.5t-205.5 -58.5 q-74 0 -135 12zM168 43l993 1382l119 -86l-991 -1382zM795 231l258 433h217v-412h102v-121h-102v-131h-152v131h-315zM932 250h184v303z" />
<glyph unicode="&#xbf;" horiz-adv-x="911" d="M123 -39q0 60 18 112t46 88.5t63 74t69 67.5t64 69t47.5 79t20 98t-18.5 125h180q26 -90 24.5 -153.5t-25 -119t-58 -94.5t-74.5 -79.5t-74 -74.5t-56.5 -79t-22.5 -94q0 -102 113.5 -171.5t301.5 -76.5l-24 -168q-275 9 -434.5 123t-159.5 274zM397 915q0 51 35.5 86 t87.5 35t87.5 -35t35.5 -86t-35.5 -85.5t-87.5 -34.5t-87.5 34.5t-35.5 85.5z" />
<glyph unicode="&#xc0;" horiz-adv-x="1259" d="M20 0l502 1382h213l506 -1382h-211l-115 324h-587l-115 -324h-193zM334 1599l53 144l373 -152l-35 -106zM375 473h491l-184 518q-30 80 -59 189h-5q-30 -112 -57 -185z" />
<glyph unicode="&#xc1;" horiz-adv-x="1259" d="M20 0l502 1382h213l506 -1382h-211l-115 324h-587l-115 -324h-193zM375 473h491l-184 518q-30 80 -59 189h-5q-30 -112 -57 -185zM479 1591l373 152l53 -144l-389 -114z" />
<glyph unicode="&#xc2;" horiz-adv-x="1259" d="M20 0l502 1382h213l506 -1382h-211l-115 324h-587l-115 -324h-193zM303 1583l322 172l327 -164l-55 -108l-279 125l-268 -125zM375 473h491l-184 518q-30 80 -59 189h-5q-30 -112 -57 -185z" />
<glyph unicode="&#xc3;" horiz-adv-x="1259" d="M20 0l502 1382h213l506 -1382h-211l-115 324h-587l-115 -324h-193zM270 1587q40 73 99.5 112.5t130.5 39.5q47 0 88.5 -16.5t66 -37t55.5 -37t60 -16.5q70 0 129 90l94 -67q-86 -150 -229 -150q-47 0 -88.5 16.5t-66 37t-55.5 37t-60 16.5q-73 0 -129 -92zM375 473h491 l-184 518q-30 80 -59 189h-5q-30 -112 -57 -185z" />
<glyph unicode="&#xc4;" horiz-adv-x="1259" d="M20 0l502 1382h213l506 -1382h-211l-115 324h-587l-115 -324h-193zM299 1597q0 46 31.5 77.5t75.5 31.5q46 0 77 -31.5t31 -77.5q0 -44 -31 -75t-77 -31q-44 0 -75.5 31t-31.5 75zM375 473h491l-184 518q-30 80 -59 189h-5q-30 -112 -57 -185zM735 1597q0 45 32 77t77 32 q46 0 77 -31.5t31 -77.5q0 -44 -31 -75t-77 -31q-45 0 -77 31t-32 75z" />
<glyph unicode="&#xc5;" horiz-adv-x="1259" d="M20 0l502 1382h213l506 -1382h-211l-115 324h-587l-115 -324h-193zM375 473h491l-184 518q-30 80 -59 189h-5q-30 -112 -57 -185zM418 1665q0 88 65 150.5t154 62.5q93 0 155 -59t62 -148q0 -86 -65 -148.5t-154 -62.5q-92 0 -154.5 57.5t-62.5 147.5zM532 1669 q0 -43 30.5 -74.5t72.5 -31.5q43 0 73.5 31.5t30.5 74.5t-30.5 74t-73.5 31t-73 -31t-30 -74z" />
<glyph unicode="&#xc6;" horiz-adv-x="1599" d="M-88 0l735 1382h791v-155h-512v-439h493v-151h-493v-479h530v-158h-715v334h-458l-174 -334h-197zM352 483h389v742h-4q-70 -155 -135 -281z" />
<glyph unicode="&#xc7;" horiz-adv-x="1193" d="M94 657q0 161 40.5 293.5t121.5 233t212 156t302 55.5q172 0 317 -43l-30 -172q-154 53 -307 53q-92 0 -167.5 -27.5t-127.5 -77t-87.5 -118t-52 -149.5t-16.5 -173q0 -260 116 -398t353 -138q75 0 158 19t145 50l31 -164q-177 -73 -379 -73q-163 0 -285 49.5t-196.5 141 t-111 212t-36.5 270.5zM541 -481q56 70 78 121.5t12.5 104.5t-56.5 112l158 61q51 -67 60.5 -135t-17 -131.5t-86.5 -132.5h-149z" />
<glyph unicode="&#xc8;" horiz-adv-x="1026" d="M174 0v1382h711v-155h-523v-439h498v-151h-498v-479h523v-158h-711zM238 1599l53 144l373 -152l-35 -106z" />
<glyph unicode="&#xc9;" horiz-adv-x="1026" d="M174 0v1382h711v-155h-523v-439h498v-151h-498v-479h523v-158h-711zM381 1591l373 152l53 -144l-389 -114z" />
<glyph unicode="&#xca;" horiz-adv-x="1026" d="M174 0v1382h711v-155h-523v-439h498v-151h-498v-479h523v-158h-711zM205 1583l321 172l328 -164l-55 -108l-279 125l-268 -125z" />
<glyph unicode="&#xcb;" horiz-adv-x="1026" d="M174 0v1382h711v-155h-523v-439h498v-151h-498v-479h523v-158h-711zM193 1597q0 46 31 77.5t75 31.5q46 0 77.5 -31.5t31.5 -77.5q0 -44 -31.5 -75t-77.5 -31q-44 0 -75 31t-31 75zM629 1597q0 45 31.5 77t76.5 32q46 0 77.5 -31.5t31.5 -77.5q0 -44 -31.5 -75t-77.5 -31 q-44 0 -76 31t-32 75z" />
<glyph unicode="&#xcc;" horiz-adv-x="536" d="M-27 1599l54 144l372 -152l-34 -106zM174 0v1382h188v-1382h-188z" />
<glyph unicode="&#xcd;" horiz-adv-x="536" d="M139 1591l373 152l53 -144l-389 -114zM174 0v1382h188v-1382h-188z" />
<glyph unicode="&#xce;" horiz-adv-x="536" d="M-53 1583l321 172l328 -164l-55 -108l-279 125l-268 -125zM174 0v1382h188v-1382h-188z" />
<glyph unicode="&#xcf;" horiz-adv-x="536" d="M-59 1597q0 46 31 77.5t75 31.5q46 0 77.5 -31.5t31.5 -77.5q0 -44 -31.5 -75t-77.5 -31q-44 0 -75 31t-31 75zM174 0v1382h188v-1382h-188zM377 1597q0 45 31.5 77t76.5 32q46 0 77.5 -31.5t31.5 -77.5q0 -44 -31.5 -75t-77.5 -31q-44 0 -76 31t-32 75z" />
<glyph unicode="&#xd0;" horiz-adv-x="1406" d="M6 639v143h187v598q10 0 166 4.5t245 4.5q343 0 526 -167t183 -515q0 -172 -56 -308t-158 -224.5t-243.5 -135t-314.5 -47.5q-73 0 -188 4t-160 4v639h-187zM379 164q76 -12 182 -12q255 0 404 135.5t149 406.5q0 541 -528 541q-54 0 -207 -6v-447h293v-143h-293v-475z " />
<glyph unicode="&#xd1;" horiz-adv-x="1447" d="M174 0v1382h250l530 -870q86 -146 152 -281q-14 401 -14 799v352h182v-1382h-250l-537 887q-93 154 -145 272q14 -254 14 -774v-385h-182zM365 1587q84 152 229 152q47 0 88.5 -16.5t66 -37t55.5 -37t60 -16.5q70 0 129 90l94 -67q-86 -150 -229 -150q-47 0 -88.5 16.5 t-66 37t-55.5 37t-60 16.5q-73 0 -129 -92z" />
<glyph unicode="&#xd2;" horiz-adv-x="1443" d="M86 674q0 169 51.5 308.5t141 230.5t208.5 140.5t254 49.5q204 0 344 -87t206.5 -241t66.5 -366q0 -169 -52 -308.5t-142 -230.5t-208.5 -140.5t-253.5 -49.5q-204 0 -343.5 87t-206 241t-66.5 366zM287 702q0 -257 110 -406t324 -149q187 0 311.5 142.5t124.5 390.5 q0 257 -111 407t-323 150q-187 0 -311.5 -143.5t-124.5 -391.5zM418 1599l53 144l373 -152l-35 -106z" />
<glyph unicode="&#xd3;" horiz-adv-x="1443" d="M86 674q0 169 51.5 308.5t141 230.5t208.5 140.5t254 49.5q204 0 344 -87t206.5 -241t66.5 -366q0 -169 -52 -308.5t-142 -230.5t-208.5 -140.5t-253.5 -49.5q-204 0 -343.5 87t-206 241t-66.5 366zM287 702q0 -257 110 -406t324 -149q187 0 311.5 142.5t124.5 390.5 q0 257 -111 407t-323 150q-187 0 -311.5 -143.5t-124.5 -391.5zM612 1591l373 152l53 -144l-389 -114z" />
<glyph unicode="&#xd4;" horiz-adv-x="1443" d="M86 674q0 169 51.5 308.5t141 230.5t208.5 140.5t254 49.5q204 0 344 -87t206.5 -241t66.5 -366q0 -169 -52 -308.5t-142 -230.5t-208.5 -140.5t-253.5 -49.5q-204 0 -343.5 87t-206 241t-66.5 366zM287 702q0 -257 110 -406t324 -149q187 0 311.5 142.5t124.5 390.5 q0 257 -111 407t-323 150q-187 0 -311.5 -143.5t-124.5 -391.5zM410 1583l321 172l328 -164l-55 -108l-279 125l-268 -125z" />
<glyph unicode="&#xd5;" horiz-adv-x="1443" d="M86 674q0 169 51.5 308.5t141 230.5t208.5 140.5t254 49.5q204 0 344 -87t206.5 -241t66.5 -366q0 -169 -52 -308.5t-142 -230.5t-208.5 -140.5t-253.5 -49.5q-204 0 -343.5 87t-206 241t-66.5 366zM287 702q0 -257 110 -406t324 -149q187 0 311.5 142.5t124.5 390.5 q0 257 -111 407t-323 150q-187 0 -311.5 -143.5t-124.5 -391.5zM360 1587q40 73 99.5 112.5t130.5 39.5q47 0 88.5 -16.5t66 -37t55.5 -37t60 -16.5q70 0 129 90l94 -67q-86 -150 -229 -150q-47 0 -88.5 16.5t-66 37t-55.5 37t-60 16.5q-73 0 -129 -92z" />
<glyph unicode="&#xd6;" horiz-adv-x="1443" d="M86 674q0 169 51.5 308.5t141 230.5t208.5 140.5t254 49.5q204 0 344 -87t206.5 -241t66.5 -366q0 -169 -52 -308.5t-142 -230.5t-208.5 -140.5t-253.5 -49.5q-204 0 -343.5 87t-206 241t-66.5 366zM287 702q0 -257 110 -406t324 -149q187 0 311.5 142.5t124.5 390.5 q0 257 -111 407t-323 150q-187 0 -311.5 -143.5t-124.5 -391.5zM403 1597q0 46 31.5 77.5t75.5 31.5q46 0 77 -31.5t31 -77.5q0 -44 -31 -75t-77 -31q-44 0 -75.5 31t-31.5 75zM840 1597q0 45 32 77t76 32q46 0 77.5 -31.5t31.5 -77.5q0 -44 -31.5 -75t-77.5 -31 q-44 0 -76 31t-32 75z" />
<glyph unicode="&#xd7;" d="M113 260l344 344l-344 342l112 113l342 -344l344 344l103 -103l-344 -342l344 -344l-113 -112l-344 344l-342 -344z" />
<glyph unicode="&#xd8;" horiz-adv-x="1443" d="M86 676q0 169 51.5 307.5t141 229.5t208.5 140.5t254 49.5q92 0 179 -19l81 203l138 -57l-82 -201q147 -72 224 -232.5t77 -394.5q0 -169 -50.5 -306.5t-140 -228t-210 -139t-261.5 -48.5q-98 0 -188 22l-86 -211l-137 57l88 211q-146 81 -216.5 240.5t-70.5 376.5z M281 702q0 -167 44.5 -287t127.5 -182l397 994q-54 14 -129 14q-88 0 -166.5 -35.5t-140 -101.5t-97.5 -170t-36 -232zM580 162q58 -19 131 -19q94 0 175 34t143 99.5t97 170t35 235.5q0 354 -182 479z" />
<glyph unicode="&#xd9;" horiz-adv-x="1419" d="M174 465v917h188v-903q0 -77 15 -135t51.5 -107.5t106 -75.5t170.5 -26q185 0 269.5 87t84.5 292v868h184v-854q0 -271 -140 -409.5t-411 -138.5q-125 0 -219 27.5t-150 71.5t-90.5 109.5t-46.5 131t-12 145.5zM383 1599l53 144l373 -152l-35 -106z" />
<glyph unicode="&#xda;" horiz-adv-x="1419" d="M174 465v917h188v-903q0 -77 15 -135t51.5 -107.5t106 -75.5t170.5 -26q185 0 269.5 87t84.5 292v868h184v-854q0 -271 -140 -409.5t-411 -138.5q-125 0 -219 27.5t-150 71.5t-90.5 109.5t-46.5 131t-12 145.5zM639 1591l373 152l53 -144l-389 -114z" />
<glyph unicode="&#xdb;" horiz-adv-x="1419" d="M174 465v917h188v-903q0 -77 15 -135t51.5 -107.5t106 -75.5t170.5 -26q185 0 269.5 87t84.5 292v868h184v-854q0 -271 -140 -409.5t-411 -138.5q-125 0 -219 27.5t-150 71.5t-90.5 109.5t-46.5 131t-12 145.5zM391 1583l322 172l327 -164l-55 -108l-278 125l-269 -125z " />
<glyph unicode="&#xdc;" horiz-adv-x="1419" d="M174 465v917h188v-903q0 -77 15 -135t51.5 -107.5t106 -75.5t170.5 -26q185 0 269.5 87t84.5 292v868h184v-854q0 -271 -140 -409.5t-411 -138.5q-125 0 -219 27.5t-150 71.5t-90.5 109.5t-46.5 131t-12 145.5zM381 1597q0 46 31 77.5t75 31.5q46 0 77.5 -31.5 t31.5 -77.5q0 -44 -31.5 -75t-77.5 -31q-44 0 -75 31t-31 75zM817 1597q0 45 32 77t77 32q46 0 77 -31.5t31 -77.5q0 -44 -31 -75t-77 -31q-45 0 -77 31t-32 75z" />
<glyph unicode="&#xdd;" horiz-adv-x="1099" d="M18 1382h207l219 -467q61 -128 105 -239h2q33 84 119 264l213 442h196l-440 -884v-498h-188v498zM471 1591l373 152l53 -144l-389 -114z" />
<glyph unicode="&#xde;" horiz-adv-x="1085" d="M174 0v1382h188v-208q110 4 173 4q243 0 378.5 -109t135.5 -317q0 -213 -157 -345.5t-405 -132.5q-67 0 -125 9v-283h-188zM362 438q55 -8 142 -8q165 0 257.5 79.5t92.5 227.5q0 135 -86 211t-268 76q-63 0 -138 -10v-576z" />
<glyph unicode="&#xdf;" horiz-adv-x="1214" d="M174 0v1024q0 129 35 224t99 150t144 81t179 26q175 0 274 -76t99 -200q0 -65 -20.5 -115t-51.5 -78t-67.5 -55.5t-67.5 -48t-51.5 -53.5t-20.5 -74q0 -43 22.5 -77.5t58 -59.5t79 -49t86.5 -52t78.5 -61.5t58 -85t22.5 -115.5q0 -143 -111 -234t-296 -91q-109 0 -203 22 l12 162q100 -35 189 -35q110 0 165.5 44t55.5 110q0 44 -22 79.5t-58 60t-79 48t-85.5 50.5t-78.5 60.5t-58 85.5t-22 117q0 68 28.5 119.5t69 83.5t81 62t69 70.5t28.5 92.5q0 73 -52.5 111.5t-141.5 38.5q-263 0 -263 -328v-1034h-184z" />
<glyph unicode="&#xe0;" horiz-adv-x="1067" d="M94 256q0 165 161 257.5t452 92.5v47q0 125 -49 182.5t-166 57.5q-70 0 -154.5 -21t-153.5 -53l-34 146q174 73 366 73q204 0 289.5 -90.5t85.5 -265.5v-389q0 -161 6 -293h-180q0 146 10 203h-4q-38 -97 -131 -159t-215 -62q-126 0 -204.5 75.5t-78.5 198.5zM258 1401 l100 123l287 -256l-78 -101zM276 283q0 -67 43.5 -111.5t112.5 -44.5q118 0 196.5 99t78.5 225v26q-121 0 -207.5 -15.5t-134 -43.5t-68.5 -61t-21 -74z" />
<glyph unicode="&#xe1;" horiz-adv-x="1067" d="M94 256q0 165 161 257.5t452 92.5v47q0 125 -49 182.5t-166 57.5q-70 0 -154.5 -21t-153.5 -53l-34 146q174 73 366 73q204 0 289.5 -90.5t85.5 -265.5v-389q0 -161 6 -293h-180q0 146 10 203h-4q-38 -97 -131 -159t-215 -62q-126 0 -204.5 75.5t-78.5 198.5zM276 283 q0 -67 43.5 -111.5t112.5 -44.5q118 0 196.5 99t78.5 225v26q-121 0 -207.5 -15.5t-134 -43.5t-68.5 -61t-21 -74zM420 1266l287 258l100 -123l-309 -234z" />
<glyph unicode="&#xe2;" horiz-adv-x="1067" d="M94 256q0 165 161 257.5t452 92.5v47q0 125 -49 182.5t-166 57.5q-70 0 -154.5 -21t-153.5 -53l-34 146q174 73 366 73q204 0 289.5 -90.5t85.5 -265.5v-389q0 -161 6 -293h-180q0 146 10 203h-4q-38 -97 -131 -159t-215 -62q-126 0 -204.5 75.5t-78.5 198.5zM244 1253 l286 271l283 -267l-82 -90l-203 174l-204 -174zM276 283q0 -67 43.5 -111.5t112.5 -44.5q118 0 196.5 99t78.5 225v26q-121 0 -207.5 -15.5t-134 -43.5t-68.5 -61t-21 -74z" />
<glyph unicode="&#xe3;" horiz-adv-x="1067" d="M94 256q0 165 161 257.5t452 92.5v47q0 125 -49 182.5t-166 57.5q-70 0 -154.5 -21t-153.5 -53l-34 146q174 73 366 73q204 0 289.5 -90.5t85.5 -265.5v-389q0 -161 6 -293h-180q0 146 10 203h-4q-38 -97 -131 -159t-215 -62q-126 0 -204.5 75.5t-78.5 198.5zM174 1303 q83 159 223 159q37 0 69.5 -11.5t55.5 -27.5t44 -32t44.5 -27.5t46.5 -11.5q68 0 123 94l90 -72q-83 -160 -223 -160q-37 0 -69.5 11.5t-55.5 28t-44 33.5t-44.5 28.5t-46.5 11.5q-68 0 -121 -96zM276 283q0 -67 43.5 -111.5t112.5 -44.5q118 0 196.5 99t78.5 225v26 q-121 0 -207.5 -15.5t-134 -43.5t-68.5 -61t-21 -74z" />
<glyph unicode="&#xe4;" horiz-adv-x="1067" d="M94 256q0 165 161 257.5t452 92.5v47q0 125 -49 182.5t-166 57.5q-70 0 -154.5 -21t-153.5 -53l-34 146q174 73 366 73q204 0 289.5 -90.5t85.5 -265.5v-389q0 -161 6 -293h-180q0 146 10 203h-4q-38 -97 -131 -159t-215 -62q-126 0 -204.5 75.5t-78.5 198.5zM219 1339 q0 46 32.5 78.5t78.5 32.5q45 0 76.5 -32.5t31.5 -78.5t-31 -78t-77 -32t-78.5 32t-32.5 78zM276 283q0 -67 43.5 -111.5t112.5 -44.5q118 0 196.5 99t78.5 225v26q-121 0 -207.5 -15.5t-134 -43.5t-68.5 -61t-21 -74zM612 1339q0 46 32.5 78.5t78.5 32.5q45 0 76.5 -32.5 t31.5 -78.5t-31 -78t-77 -32t-78.5 32t-32.5 78z" />
<glyph unicode="&#xe5;" horiz-adv-x="1067" d="M94 256q0 165 161 257.5t452 92.5v47q0 125 -49 182.5t-166 57.5q-70 0 -154.5 -21t-153.5 -53l-34 146q174 73 366 73q204 0 289.5 -90.5t85.5 -265.5v-389q0 -161 6 -293h-180q0 146 10 203h-4q-38 -97 -131 -159t-215 -62q-126 0 -204.5 75.5t-78.5 198.5zM276 283 q0 -67 43.5 -111.5t112.5 -44.5q118 0 196.5 99t78.5 225v26q-121 0 -207.5 -15.5t-134 -43.5t-68.5 -61t-21 -74zM301 1356q0 94 70 160.5t166 66.5q99 0 166 -63t67 -158q0 -94 -70 -161.5t-165 -67.5q-98 0 -166 63t-68 160zM422 1358q0 -47 33 -81t80 -34t80.5 34 t33.5 81q0 48 -33.5 82.5t-80.5 34.5t-80 -34.5t-33 -82.5z" />
<glyph unicode="&#xe6;" horiz-adv-x="1652" d="M94 256q0 165 161 257.5t452 92.5v68q0 110 -51 164.5t-173 54.5q-70 0 -151 -21.5t-144 -54.5l-38 150q170 71 362 71q242 0 315 -159h2q48 71 133 114t191 43q104 0 183.5 -33.5t127 -93.5t71.5 -135.5t24 -165.5q0 -24 -7 -96h-663q-7 -196 73.5 -288.5t245.5 -92.5 q155 0 291 62l27 -148q-157 -63 -352 -63q-163 0 -265.5 64t-140.5 169h-2q-48 -100 -149 -166.5t-238 -66.5q-128 0 -206.5 75.5t-78.5 198.5zM276 283q0 -67 42.5 -111.5t111.5 -44.5q80 0 144.5 48t98.5 121.5t34 154.5v26q-431 0 -431 -194zM893 643h477 q3 117 -58 185.5t-167 68.5q-100 0 -167.5 -68.5t-84.5 -185.5z" />
<glyph unicode="&#xe7;" horiz-adv-x="890" d="M84 475q0 254 128.5 406.5t367.5 152.5q138 0 249 -43l-34 -157q-110 47 -232 47q-135 0 -209.5 -104.5t-74.5 -276.5q0 -79 14 -140.5t45.5 -112t89 -77.5t139.5 -27q132 0 238 50l29 -154q-135 -55 -304 -55q-96 0 -173.5 25t-140.5 79.5t-97.5 152.5t-34.5 234z M369 -481q56 70 78 121.5t12.5 104.5t-56.5 112l158 61q51 -67 60.5 -135t-17 -131.5t-86.5 -132.5h-149z" />
<glyph unicode="&#xe8;" horiz-adv-x="1040" d="M84 504q0 152 53.5 272t159 190t246.5 70q104 0 183 -33t126 -91.5t70.5 -132t23.5 -161.5q0 -44 -6 -106h-666q-6 -197 74 -289t248 -92q155 0 291 59l26 -145q-157 -63 -352 -63q-477 0 -477 522zM262 1401l100 123l287 -256l-78 -101zM281 643h477q3 117 -59 185.5 t-169 68.5q-99 0 -165.5 -68t-83.5 -186z" />
<glyph unicode="&#xe9;" horiz-adv-x="1040" d="M84 504q0 152 53.5 272t159 190t246.5 70q104 0 183 -33t126 -91.5t70.5 -132t23.5 -161.5q0 -44 -6 -106h-666q-6 -197 74 -289t248 -92q155 0 291 59l26 -145q-157 -63 -352 -63q-477 0 -477 522zM281 643h477q3 117 -59 185.5t-169 68.5q-99 0 -165.5 -68t-83.5 -186z M420 1266l287 258l100 -123l-309 -234z" />
<glyph unicode="&#xea;" horiz-adv-x="1040" d="M84 504q0 152 53.5 272t159 190t246.5 70q104 0 183 -33t126 -91.5t70.5 -132t23.5 -161.5q0 -44 -6 -106h-666q-6 -197 74 -289t248 -92q155 0 291 59l26 -145q-157 -63 -352 -63q-477 0 -477 522zM252 1253l287 271l282 -267l-82 -90l-202 174l-205 -174zM281 643h477 q3 117 -59 185.5t-169 68.5q-99 0 -165.5 -68t-83.5 -186z" />
<glyph unicode="&#xeb;" horiz-adv-x="1040" d="M84 504q0 152 53.5 272t159 190t246.5 70q104 0 183 -33t126 -91.5t70.5 -132t23.5 -161.5q0 -44 -6 -106h-666q-6 -197 74 -289t248 -92q155 0 291 59l26 -145q-157 -63 -352 -63q-477 0 -477 522zM231 1339q0 46 32.5 78.5t78.5 32.5t77.5 -32.5t31.5 -78.5t-31.5 -78 t-77.5 -32t-78.5 32t-32.5 78zM281 643h477q3 117 -59 185.5t-169 68.5q-99 0 -165.5 -68t-83.5 -186zM625 1339q0 46 32 78.5t78 32.5t77.5 -32.5t31.5 -78.5t-31.5 -78t-77.5 -32t-78 32t-32 78z" />
<glyph unicode="&#xec;" horiz-adv-x="532" d="M23 1401l100 123l287 -256l-78 -101zM174 0v1018h184v-1018h-184z" />
<glyph unicode="&#xed;" horiz-adv-x="532" d="M115 1266l286 258l101 -123l-309 -234zM174 0v1018h184v-1018h-184z" />
<glyph unicode="&#xee;" horiz-adv-x="532" d="M-18 1253l286 271l283 -267l-82 -90l-203 174l-205 -174zM174 0v1018h184v-1018h-184z" />
<glyph unicode="&#xef;" horiz-adv-x="532" d="M-41 1339q0 46 32.5 78.5t78.5 32.5q45 0 76.5 -32.5t31.5 -78.5t-31 -78t-77 -32t-78.5 32t-32.5 78zM174 0v1018h184v-1018h-184zM352 1339q0 46 32.5 78.5t78.5 32.5q45 0 76.5 -32.5t31.5 -78.5t-31 -78t-77 -32t-78.5 32t-32.5 78z" />
<glyph unicode="&#xf0;" horiz-adv-x="1118" d="M82 500q0 232 132 383t349 151q70 0 128 -22.5t87 -69.5q-16 31 -61 105q-54 94 -131 176l-209 -95l-78 97l193 86q-43 39 -166 135l184 78q88 -72 154 -140l204 91l80 -97l-198 -86q280 -339 280 -733q0 -143 -37.5 -254.5t-103.5 -181t-153 -105.5t-191 -36 q-214 0 -338.5 131t-124.5 387zM272 514q0 -180 77.5 -278.5t215.5 -98.5q122 0 198.5 98.5t76.5 299.5q0 162 -72.5 255t-210.5 93q-57 0 -107 -22.5t-90.5 -66t-64 -116t-23.5 -164.5z" />
<glyph unicode="&#xf1;" horiz-adv-x="1177" d="M174 0v1018h178q0 -134 -16 -215h4q46 108 138.5 170.5t219.5 62.5q85 0 146 -25t95.5 -70.5t50.5 -102t16 -127.5v-711h-185v655q0 114 -39 172t-135 58q-125 0 -207 -114t-82 -284v-487h-184zM248 1303q83 159 223 159q37 0 69.5 -11.5t55.5 -27.5t44 -32t44.5 -27.5 t46.5 -11.5q68 0 123 94l90 -72q-83 -160 -223 -160q-37 0 -69.5 11.5t-55.5 28t-44 33.5t-44.5 28.5t-46.5 11.5q-68 0 -121 -96z" />
<glyph unicode="&#xf2;" horiz-adv-x="1116" d="M80 500q0 150 59 271t172.5 193t263.5 72q100 0 181.5 -28.5t145 -88t98 -159.5t34.5 -234q0 -234 -137.5 -389t-359.5 -155q-215 0 -336 129t-121 389zM272 518q0 -185 74 -283t213 -98q122 0 202.5 97t80.5 282q0 176 -72 271.5t-211 95.5q-56 0 -106.5 -22 t-91.5 -65.5t-65 -115t-24 -162.5zM295 1401l100 123l287 -256l-78 -101z" />
<glyph unicode="&#xf3;" horiz-adv-x="1116" d="M80 500q0 150 59 271t172.5 193t263.5 72q100 0 181.5 -28.5t145 -88t98 -159.5t34.5 -234q0 -234 -137.5 -389t-359.5 -155q-215 0 -336 129t-121 389zM272 518q0 -185 74 -283t213 -98q122 0 202.5 97t80.5 282q0 176 -72 271.5t-211 95.5q-56 0 -106.5 -22 t-91.5 -65.5t-65 -115t-24 -162.5zM449 1266l286 258l101 -123l-310 -234z" />
<glyph unicode="&#xf4;" horiz-adv-x="1116" d="M80 500q0 150 59 271t172.5 193t263.5 72q100 0 181.5 -28.5t145 -88t98 -159.5t34.5 -234q0 -234 -137.5 -389t-359.5 -155q-215 0 -336 129t-121 389zM272 518q0 -185 74 -283t213 -98q122 0 202.5 97t80.5 282q0 176 -72 271.5t-211 95.5q-56 0 -106.5 -22 t-91.5 -65.5t-65 -115t-24 -162.5zM279 1253l286 271l283 -267l-82 -90l-203 174l-205 -174z" />
<glyph unicode="&#xf5;" horiz-adv-x="1116" d="M80 500q0 150 59 271t172.5 193t263.5 72q100 0 181.5 -28.5t145 -88t98 -159.5t34.5 -234q0 -234 -137.5 -389t-359.5 -155q-215 0 -336 129t-121 389zM221 1303q83 159 223 159q45 0 84.5 -17t63.5 -38t54.5 -38t58.5 -17q67 0 122 94l91 -72q-83 -160 -224 -160 q-37 0 -69.5 11.5t-55.5 28t-44 33.5t-44.5 28.5t-46.5 11.5q-68 0 -121 -96zM272 518q0 -185 74 -283t213 -98q122 0 202.5 97t80.5 282q0 176 -72 271.5t-211 95.5q-56 0 -106.5 -22t-91.5 -65.5t-65 -115t-24 -162.5z" />
<glyph unicode="&#xf6;" horiz-adv-x="1116" d="M80 500q0 150 59 271t172.5 193t263.5 72q100 0 181.5 -28.5t145 -88t98 -159.5t34.5 -234q0 -234 -137.5 -389t-359.5 -155q-215 0 -336 129t-121 389zM256 1339q0 46 32.5 78.5t78.5 32.5q45 0 76.5 -32.5t31.5 -78.5t-31 -78t-77 -32t-78.5 32t-32.5 78zM272 518 q0 -185 74 -283t213 -98q122 0 202.5 97t80.5 282q0 176 -72 271.5t-211 95.5q-56 0 -106.5 -22t-91.5 -65.5t-65 -115t-24 -162.5zM649 1339q0 46 32.5 78.5t78.5 32.5q45 0 76.5 -32.5t31.5 -78.5t-31 -78t-77 -32t-78.5 32t-32.5 78z" />
<glyph unicode="&#xf7;" d="M86 532v154h954v-154h-954zM436 197q0 51 36.5 86.5t88.5 35.5q51 0 87 -35.5t36 -86.5q0 -52 -36 -88.5t-87 -36.5q-53 0 -89 36t-36 89zM436 1020q0 51 36.5 87t88.5 36q51 0 87 -36t36 -87t-36 -87t-87 -36q-52 0 -88.5 36t-36.5 87z" />
<glyph unicode="&#xf8;" horiz-adv-x="1120" d="M80 500q0 150 58.5 271t173.5 193t266 72q64 0 122 -12l84 186l115 -47l-82 -184q219 -124 219 -453q0 -154 -60 -277t-173.5 -195t-261.5 -72q-80 0 -158 20l-92 -207l-115 49l92 211q-95 62 -141.5 178t-46.5 267zM260 518q0 -203 96 -293l273 660q-34 6 -70 6 q-56 0 -107.5 -20.5t-95.5 -62.5t-70 -117t-26 -173zM457 147q46 -18 104 -18q129 0 212 99t83 288q0 223 -121 303z" />
<glyph unicode="&#xf9;" horiz-adv-x="1177" d="M174 307v711h182v-656q0 -114 39.5 -171.5t134.5 -57.5q125 0 207 113.5t82 283.5v488h185v-1018h-179q0 129 17 215h-4q-46 -107 -139 -170t-220 -63q-305 0 -305 325zM305 1401l101 123l286 -256l-78 -101z" />
<glyph unicode="&#xfa;" horiz-adv-x="1177" d="M174 307v711h182v-656q0 -114 39.5 -171.5t134.5 -57.5q125 0 207 113.5t82 283.5v488h185v-1018h-179q0 129 17 215h-4q-46 -107 -139 -170t-220 -63q-305 0 -305 325zM489 1266l287 258l101 -123l-310 -234z" />
<glyph unicode="&#xfb;" horiz-adv-x="1177" d="M174 307v711h182v-656q0 -114 39.5 -171.5t134.5 -57.5q125 0 207 113.5t82 283.5v488h185v-1018h-179q0 129 17 215h-4q-46 -107 -139 -170t-220 -63q-305 0 -305 325zM303 1253l287 271l282 -267l-81 -90l-203 174l-205 -174z" />
<glyph unicode="&#xfc;" horiz-adv-x="1177" d="M174 307v711h182v-656q0 -114 39.5 -171.5t134.5 -57.5q125 0 207 113.5t82 283.5v488h185v-1018h-179q0 129 17 215h-4q-46 -107 -139 -170t-220 -63q-305 0 -305 325zM281 1339q0 46 32 78.5t78 32.5t77.5 -32.5t31.5 -78.5t-31.5 -78t-77.5 -32t-78 32t-32 78z M674 1339q0 46 32 78.5t78 32.5t77.5 -32.5t31.5 -78.5t-31.5 -78t-77.5 -32t-78 32t-32 78z" />
<glyph unicode="&#xfd;" horiz-adv-x="983" d="M-49 -510l20 164q53 -16 123 -16q85 0 149.5 54.5t118.5 196.5l41 111l-385 1018h209l193 -529q29 -82 78 -251h4q25 98 100 313l164 467h201l-418 -1104q-91 -244 -198.5 -340t-280.5 -96q-53 0 -119 12zM397 1266l287 258l100 -123l-309 -234z" />
<glyph unicode="&#xfe;" horiz-adv-x="1142" d="M174 -506v2001h184v-446q0 -145 -12 -228l4 -2q41 100 127.5 158.5t204.5 58.5q179 0 276 -123.5t97 -355.5q0 -271 -138.5 -420t-386.5 -149q-101 0 -172 12v-506h-184zM358 156q83 -25 181 -25q152 0 237.5 99.5t85.5 310.5q0 344 -225 344q-87 0 -153 -62.5t-96 -150 t-30 -180.5v-336z" />
<glyph unicode="&#xff;" horiz-adv-x="983" d="M-49 -510l20 164q53 -16 123 -16q85 0 149.5 54.5t118.5 196.5l41 111l-385 1018h209l193 -529q29 -82 78 -251h4q25 98 100 313l164 467h201l-418 -1104q-91 -244 -198.5 -340t-280.5 -96q-53 0 -119 12zM190 1339q0 46 32.5 78.5t78.5 32.5t77.5 -32.5t31.5 -78.5 t-31.5 -78t-77.5 -32t-78.5 32t-32.5 78zM584 1339q0 46 32 78.5t78 32.5t77.5 -32.5t31.5 -78.5t-31.5 -78t-77.5 -32t-78 32t-32 78z" />
<glyph unicode="&#x152;" horiz-adv-x="1767" d="M86 676q0 168 51.5 307t140.5 230t207 140.5t252 49.5q92 0 207 -21h682v-155h-524v-439h500v-151h-500v-479h524v-158h-698q-123 -20 -226 -20q-304 0 -460 186t-156 510zM287 702q0 -256 109.5 -405.5t322.5 -149.5q98 0 196 29v1032q-98 29 -190 29 q-88 0 -166.5 -35.5t-139.5 -101t-96.5 -168.5t-35.5 -230z" />
<glyph unicode="&#x153;" horiz-adv-x="1785" d="M80 500q0 150 59 271t172.5 193t263.5 72q116 0 213 -48t152 -144q55 90 142.5 141t203.5 51q104 0 184 -33.5t128 -93.5t72 -135.5t24 -165.5q0 -34 -6 -96h-666q-6 -196 74.5 -288.5t246.5 -92.5q155 0 291 62l27 -148q-157 -63 -352 -63q-284 0 -394 206 q-59 -95 -154 -150.5t-224 -55.5q-215 0 -336 129t-121 389zM272 518q0 -185 74 -283t213 -98q122 0 202.5 97t80.5 282q0 176 -72 271.5t-211 95.5q-56 0 -106.5 -22t-91.5 -65.5t-65 -115t-24 -162.5zM1028 643h477q3 117 -58.5 185.5t-168.5 68.5q-100 0 -167.5 -68.5 t-82.5 -185.5z" />
<glyph unicode="&#x178;" horiz-adv-x="1099" d="M18 1382h207l219 -467q61 -128 105 -239h2q33 84 119 264l213 442h196l-440 -884v-498h-188v498zM229 1597q0 46 31.5 77.5t75.5 31.5q46 0 77 -31.5t31 -77.5q0 -44 -31 -75t-77 -31q-44 0 -75.5 31t-31.5 75zM666 1597q0 45 32 77t76 32q46 0 77.5 -31.5t31.5 -77.5 q0 -44 -31.5 -75t-77.5 -31q-44 0 -76 31t-32 75z" />
<glyph unicode="&#x2c6;" horiz-adv-x="886" d="M154 1253l286 271l283 -267l-82 -90l-203 174l-205 -174z" />
<glyph unicode="&#x2dc;" horiz-adv-x="1015" d="M154 1303q83 159 223 159q37 0 69.5 -11.5t55.5 -27.5t44 -32t44.5 -27.5t46.5 -11.5q68 0 123 94l90 -72q-83 -160 -223 -160q-37 0 -69.5 11.5t-55.5 28t-44 33.5t-44.5 28.5t-46.5 11.5q-68 0 -121 -96z" />
<glyph unicode="&#x2000;" horiz-adv-x="939" />
<glyph unicode="&#x2001;" horiz-adv-x="1878" />
<glyph unicode="&#x2002;" horiz-adv-x="939" />
<glyph unicode="&#x2003;" horiz-adv-x="1878" />
<glyph unicode="&#x2004;" horiz-adv-x="626" />
<glyph unicode="&#x2005;" horiz-adv-x="469" />
<glyph unicode="&#x2006;" horiz-adv-x="313" />
<glyph unicode="&#x2007;" horiz-adv-x="313" />
<glyph unicode="&#x2008;" horiz-adv-x="234" />
<glyph unicode="&#x2009;" horiz-adv-x="375" />
<glyph unicode="&#x200a;" horiz-adv-x="104" />
<glyph unicode="&#x2010;" horiz-adv-x="675" d="M96 512v152h484v-152h-484z" />
<glyph unicode="&#x2011;" horiz-adv-x="675" d="M96 512v152h484v-152h-484z" />
<glyph unicode="&#x2012;" horiz-adv-x="675" d="M96 512v152h484v-152h-484z" />
<glyph unicode="&#x2013;" d="M0 530v160h1126v-160h-1126z" />
<glyph unicode="&#x2014;" horiz-adv-x="2048" d="M242 530v160h1564v-160h-1564z" />
<glyph unicode="&#x2018;" horiz-adv-x="499" d="M132 1053q-45 86 6 217q54 134 198 266l80 -72q-173 -186 -88 -293q26 -40 24.5 -80.5t-34 -72t-80.5 -31.5q-72 0 -106 66z" />
<glyph unicode="&#x2019;" horiz-adv-x="499" d="M80 1044q173 186 88 293q-26 40 -24.5 81t34 72.5t80.5 31.5q72 0 106 -66q45 -86 -6 -217q-55 -134 -198 -266z" />
<glyph unicode="&#x201a;" horiz-adv-x="499" d="M80 -246q174 187 88 295q-26 39 -24.5 79.5t34 71.5t80.5 31q72 0 107 -66q45 -87 -8 -217q-54 -133 -197 -263z" />
<glyph unicode="&#x201c;" horiz-adv-x="886" d="M132 1053q-45 86 6 217q54 134 198 266l80 -72q-173 -186 -88 -293q26 -40 24.5 -80.5t-34 -72t-80.5 -31.5q-72 0 -106 66zM521 1053q-45 86 6 217q55 134 198 266l80 -72q-173 -186 -88 -293q26 -40 24.5 -80.5t-34 -72t-80.5 -31.5q-72 0 -106 66z" />
<glyph unicode="&#x201d;" horiz-adv-x="886" d="M80 1044q173 186 88 293q-26 40 -24.5 81t34 72.5t80.5 31.5q72 0 106 -66q45 -86 -6 -217q-55 -134 -198 -266zM469 1044q173 186 88 293q-26 40 -24.5 81t34 72.5t80.5 31.5q72 0 106 -66q45 -86 -6 -217q-55 -134 -198 -266z" />
<glyph unicode="&#x201e;" horiz-adv-x="886" d="M80 -246q174 187 88 295q-26 39 -24.5 79.5t34 71.5t80.5 31q72 0 107 -66q45 -87 -8 -217q-54 -133 -197 -263zM469 -246q174 187 88 295q-26 39 -24.5 79.5t34 71.5t80.5 31q72 0 107 -66q45 -87 -8 -217q-54 -133 -197 -263z" />
<glyph unicode="&#x2022;" horiz-adv-x="860" d="M182 608q0 103 72.5 175.5t175.5 72.5t175.5 -72.5t72.5 -175.5t-72.5 -175.5t-175.5 -72.5t-175.5 72.5t-72.5 175.5z" />
<glyph unicode="&#x202f;" horiz-adv-x="375" />
<glyph unicode="&#x2039;" horiz-adv-x="641" d="M109 600l245 371l135 -74l-196 -295l199 -291l-140 -75z" />
<glyph unicode="&#x203a;" horiz-adv-x="641" d="M150 309l200 295l-198 291l139 76l241 -365l-247 -370z" />
<glyph unicode="&#x205f;" horiz-adv-x="469" />
<glyph unicode="&#x20ac;" d="M23 455v123h170q-3 30 -3 65q0 25 5 117h-172v123h190q40 217 174.5 343t368.5 126q144 0 278 -56l-45 -147q-116 53 -258 53q-262 0 -328 -319h390v-123h-410q0 -15 -1 -46.5t-1 -49.5q0 -59 2 -86h410v-123h-396q27 -163 112 -241.5t243 -78.5q125 0 258 58l43 -144 q-156 -69 -336 -69q-226 0 -354 116t-160 359h-180z" />
<glyph unicode="&#x2122;" horiz-adv-x="1431" d="M90 1270v112h442v-112h-149v-463h-141v463h-152zM567 807l90 575h177l92 -315l20 -94l19 86l96 323h176l88 -575h-141l-45 301l-15 111l-24 -97l-92 -315h-142l-90 321l-22 91l-6 -76l-50 -336h-131z" />
<glyph unicode="&#x25fc;" horiz-adv-x="1013" d="M0 0v1014h1014v-1014h-1014z" />
</font>
</defs>
</svg>
