<?xml version="1.0" standalone="no"?>
<!DOCTYPE svg PUBLIC "-//W3C//DTD SVG 1.1//EN" "http://www.w3.org/Graphics/SVG/1.1/DTD/svg11.dtd" >
<svg xmlns="http://www.w3.org/2000/svg">
<metadata></metadata>
<defs>
<font id="thesansbw7_bold_italic" horiz-adv-x="1126" >
<font-face units-per-em="2048" ascent="1516" descent="-532" />
<missing-glyph horiz-adv-x="446" />
<glyph unicode="&#x2e;&#x2e;&#x2e;" horiz-adv-x="1452" d="M41 131q0 69 48.5 117.5t113.5 48.5t109 -45.5t44 -108.5q0 -70 -48 -118t-113 -48t-109.5 45.5t-44.5 108.5zM510 131q0 69 48 117.5t114 48.5q65 0 108 -45.5t43 -108.5q0 -70 -47 -118t-114 -48q-64 0 -108 46t-44 108zM979 131q0 69 48.5 117.5t113.5 48.5 q64 0 107.5 -46t43.5 -108q0 -70 -47.5 -118t-114.5 -48q-64 0 -107.5 46t-43.5 108z" />
<glyph unicode="&#xfb01;" horiz-adv-x="1193" d="M-305 -489l61 215q63 -17 121 -17q90 0 140.5 54.5t78.5 201.5l162 850h-174l41 203h172l6 37q36 225 176.5 340.5t397.5 115.5q160 0 309 -38l-86 -216q-119 39 -236 39q-135 0 -208 -55.5t-93 -169.5l-10 -53h608l-194 -1018h-256l155 815h-354l-160 -852 q-45 -242 -165 -356.5t-314 -114.5q-88 0 -178 19z" />
<glyph unicode="&#xfb02;" horiz-adv-x="1191" d="M-305 -489l61 215q63 -17 121 -17q90 0 140.5 54.5t78.5 201.5l162 850h-174l41 203h172l18 106q37 191 174 289t367 98q180 0 393 -34l-280 -1477h-256l245 1286q-71 12 -139 12q-107 0 -168.5 -46.5t-81.5 -145.5l-16 -88h217l-41 -203h-217l-160 -852 q-45 -242 -165 -356.5t-314 -114.5q-88 0 -178 19z" />
<glyph unicode="&#xfb03;" horiz-adv-x="1804" d="M-305 -489l61 215q63 -17 121 -17q90 0 140.5 54.5t78.5 201.5l160 850h-174l41 203h174l12 72q35 202 170.5 306.5t364.5 104.5q169 0 317 -57q126 69 326 69q156 0 309 -36l-86 -217q-116 38 -235 38q-134 0 -208 -56t-96 -175l-8 -49h609l-195 -1018h-256l156 815 h-353l-157 -838q-48 -254 -184 -363.5t-365 -109.5q-153 0 -291 56q-105 -68 -254 -68q-88 0 -178 19zM283 -248q67 -33 168 -33q110 0 171 56t85 186l161 854h-356l-160 -852q-24 -128 -69 -211zM553 1018h352l8 43q22 117 76 192q-80 35 -164 35q-226 0 -262 -209z" />
<glyph unicode="&#xfb04;" horiz-adv-x="1806" d="M-305 -489l61 215q63 -17 121 -17q90 0 140.5 54.5t78.5 201.5l162 850h-174l41 203h172l12 72q37 202 172.5 306.5t364.5 104.5q164 0 307 -55q122 67 315 67q182 0 394 -34l-283 -1479h-254l244 1288q-67 12 -137 12q-213 0 -252 -194l-15 -88h232l-39 -203h-234 l-157 -838q-48 -254 -184 -363.5t-365 -109.5q-153 0 -291 56q-105 -68 -254 -68q-88 0 -178 19zM283 -248q67 -33 168 -33q110 0 171 56t85 186l161 854h-354l-162 -852q-24 -128 -69 -211zM553 1018h354l21 106q16 81 51 133q-74 31 -154 31q-224 0 -260 -209z" />
<glyph horiz-adv-x="0" />
<glyph horiz-adv-x="0" />
<glyph horiz-adv-x="682" />
<glyph unicode="&#xd;" horiz-adv-x="1024" />
<glyph unicode=" "  horiz-adv-x="446" />
<glyph unicode="&#x09;" horiz-adv-x="446" />
<glyph unicode="&#xa0;" horiz-adv-x="446" />
<glyph unicode="!" horiz-adv-x="645" d="M119 123q0 71 49.5 118.5t118.5 47.5q66 0 108.5 -44t42.5 -104q0 -71 -49.5 -117.5t-118.5 -46.5q-66 0 -108.5 43t-42.5 103zM217 385l162 1065h301l-242 -1065h-221z" />
<glyph unicode="&#x22;" horiz-adv-x="813" d="M209 918l65 520h258l-133 -520h-190zM588 918l65 520h256l-131 -520h-190z" />
<glyph unicode="#" d="M33 350l35 180h174l82 281h-156l35 178h174l100 342h191l-101 -342h260l99 342h190l-98 -342h153l-32 -178h-174l-82 -281h153l-32 -180h-175l-104 -350h-190l104 350h-260l-105 -350h-190l104 350h-155zM432 530h260l82 281h-260z" />
<glyph unicode="$" d="M127 57l47 236q133 -45 258 -45q109 0 177.5 46.5t68.5 113.5q0 42 -24 75t-63 56t-85.5 44.5t-93 48.5t-85.5 61.5t-63 90.5t-24 127q0 146 109.5 257t281.5 137l35 190h188l-33 -180q90 -3 193 -23l-45 -225q-106 35 -228 35q-106 0 -165.5 -41.5t-59.5 -106.5 q0 -37 24.5 -67t64 -51.5t86.5 -43t94.5 -49.5t87 -63t64 -90t24.5 -125q0 -157 -116.5 -275t-297.5 -149l-41 -215h-187l41 205q-103 0 -233 26z" />
<glyph unicode="%" horiz-adv-x="1525" d="M102 80l1254 1292l139 -125l-1253 -1292zM172 942q0 96 33.5 176t87.5 130.5t119 78t131 27.5q125 0 192.5 -60.5t67.5 -175.5q0 -98 -33.5 -179.5t-88 -132.5t-119.5 -78.5t-132 -27.5q-126 0 -192 63.5t-66 178.5zM367 958q0 -92 82 -92q67 0 113 68t46 164 q0 92 -82 92q-67 0 -113 -69t-46 -163zM803 217q0 96 33.5 176.5t87 131t118 78.5t129.5 28q125 0 193 -61t68 -177q0 -97 -33.5 -178t-87 -132t-118.5 -78.5t-132 -27.5q-127 0 -192.5 62.5t-65.5 177.5zM997 236q0 -51 20 -73t60 -22q68 0 114 68.5t46 163.5 q0 49 -19.5 70.5t-60.5 21.5q-68 0 -114 -68t-46 -161z" />
<glyph unicode="&#x26;" horiz-adv-x="1599" d="M76 328q0 65 20.5 127t52 110t80.5 98t93.5 85t103.5 77q-117 182 -117 305q0 153 123.5 267t312.5 114q172 0 255 -71t83 -195q0 -66 -24.5 -126.5t-74 -117t-100.5 -100.5t-126 -100q124 -161 295 -326q80 93 137 214t78 249h254q-22 -170 -100.5 -329t-192.5 -287 q128 -114 233 -189l-180 -180q-131 96 -248 201q-249 -177 -547 -177q-206 0 -308.5 98t-102.5 253zM348 377q0 -77 49 -126.5t144 -49.5q170 0 315 108q-202 202 -307 344q-97 -72 -149 -136t-52 -140zM567 1157q0 -66 68 -188q47 35 72.5 55.5t57.5 53t46 65t14 69.5 q0 47 -27 75t-79 28q-65 0 -108.5 -45.5t-43.5 -112.5z" />
<glyph unicode="'" horiz-adv-x="432" d="M209 918l65 520h258l-133 -520h-190z" />
<glyph unicode="(" horiz-adv-x="614" d="M92 262q0 333 135.5 685.5t390.5 662.5l179 -90q-198 -256 -325.5 -603.5t-127.5 -642.5q0 -360 98 -626l-206 -88q-144 332 -144 702z" />
<glyph unicode=")" horiz-adv-x="614" d="M-129 -350q198 256 325.5 603.5t127.5 641.5q0 356 -101 627l209 88q141 -330 141 -703q0 -332 -134.5 -684t-389.5 -663z" />
<glyph unicode="*" horiz-adv-x="772" d="M184 1116l222 66l-189 98l123 150l145 -152l15 227l182 -24l-78 -211l195 125l61 -168l-221 -68l186 -96l-120 -152l-146 152l-16 -225l-183 24l78 209l-192 -125z" />
<glyph unicode="+" d="M86 500l43 219h356l72 379h250l-72 -379h359l-41 -219h-361l-71 -381h-250l73 381h-358z" />
<glyph unicode="," horiz-adv-x="518" d="M-68 -244q82 67 122.5 122t42 99.5t-24.5 85.5q-22 35 -22.5 78t17.5 79t55.5 60.5t86.5 24.5q83 0 129 -69q57 -86 15 -214q-63 -191 -320 -372l-6 -4z" />
<glyph unicode="-" horiz-adv-x="675" d="M90 463l41 211h496l-41 -211h-496z" />
<glyph unicode="." horiz-adv-x="524" d="M41 137q0 73 51 123.5t121 50.5q68 0 115 -47.5t47 -111.5q0 -73 -51 -124t-121 -51q-68 0 -115 48t-47 112z" />
<glyph unicode="/" horiz-adv-x="929" d="M-186 -330l1067 1880h260l-1065 -1880h-262z" />
<glyph unicode="0" d="M84 389q0 102 15.5 208t46.5 216t84 206t122 171.5t166.5 119.5t212.5 44q193 0 291 -100.5t98 -311.5q0 -102 -15.5 -208t-46.5 -215.5t-84 -206t-122 -172t-166 -119.5t-211 -44q-195 0 -293 98.5t-98 313.5zM358 406q0 -107 33.5 -155t116.5 -48q69 0 128 58.5 t96 145.5t63.5 190t37.5 188.5t11 144.5q0 107 -33.5 155t-114.5 48q-70 0 -129 -58.5t-96.5 -145.5t-64 -190t-37.5 -188.5t-11 -144.5z" />
<glyph unicode="1" d="M45 0l45 236h336l156 821l-316 -115l-2 250l432 139h209l-209 -1095h293l-45 -236h-899z" />
<glyph unicode="2" d="M14 0l43 217l256 211q186 148 282.5 243.5t130.5 159.5t34 134q0 66 -47 107.5t-138 41.5q-151 0 -301 -94l-16 235q196 99 408 99q194 0 294.5 -93t100.5 -239q0 -72 -17.5 -134t-63.5 -136t-133 -159.5t-220 -189.5l-191 -153v-2q180 4 375 4h158l-49 -252h-906z" />
<glyph unicode="3" d="M51 6l62 227q89 -36 231 -36q171 0 262.5 69.5t91.5 165.5q0 70 -61.5 111t-183.5 41q-106 0 -226 -13l39 203h60q220 0 339 67.5t119 172.5q0 57 -47 90t-141 33q-138 0 -295 -68l-2 219q184 66 365 66q205 0 305 -76.5t100 -212.5q0 -118 -77 -210t-214 -128l-2 -6 q100 -17 155.5 -85t55.5 -169q0 -64 -21.5 -128.5t-73.5 -130.5t-128 -116.5t-195.5 -82.5t-265.5 -32t-252 29z" />
<glyph unicode="4" d="M27 289l18 221l660 821h358l-154 -807h187l-47 -235h-185l-55 -289h-256l53 289h-579zM315 520q184 4 342 4l105 541h-2z" />
<glyph unicode="5" d="M72 2l47 238q119 -37 241 -37q156 0 251.5 71t95.5 189q0 80 -69.5 117.5t-215.5 37.5q-132 0 -217 -16l139 729h766l-47 -246h-518l-49 -262q25 2 77 2q214 0 320 -87.5t106 -229.5q0 -155 -88.5 -277t-239 -188t-335.5 -66q-145 0 -264 25z" />
<glyph unicode="6" d="M84 385q0 84 14 173t46 184t78.5 182.5t116.5 166t154.5 136t198 91.5t242.5 34q102 0 166 -11l-41 -225q-86 14 -158 14q-316 0 -461 -313q-23 -38 -45 -96h2q52 60 133 93.5t172 33.5q171 0 263 -87t92 -235q0 -238 -162.5 -393.5t-411.5 -155.5q-195 0 -297 103.5 t-102 304.5zM346 371q0 -82 45.5 -131.5t132.5 -49.5q109 0 185.5 82t76.5 201q0 76 -44 118t-130 42q-117 0 -191.5 -77t-74.5 -185z" />
<glyph unicode="7" d="M176 0q140 272 317.5 566.5t333.5 512.5q-114 -4 -424 -4h-184l49 256h920l-43 -225q-179 -249 -350.5 -542t-307.5 -564h-311z" />
<glyph unicode="8" d="M53 272q0 73 24 135t69.5 110.5t98 85t122.5 71.5q-74 49 -116 108.5t-42 141.5q0 178 149.5 304t366.5 126q191 0 293 -75.5t102 -207.5q0 -121 -70.5 -212t-211.5 -165q88 -54 138 -117.5t50 -156.5q0 -132 -80.5 -235t-204.5 -155.5t-264 -52.5q-204 0 -314 78 t-110 217zM328 313q0 -56 47 -91.5t135 -35.5q102 0 172 53t70 146q0 58 -46 98.5t-133 83.5q-139 -68 -192 -128t-53 -126zM477 965q0 -51 39 -87.5t115 -76.5q121 60 170 112t49 121q0 54 -40 85.5t-116 31.5q-99 0 -158 -54t-59 -132z" />
<glyph unicode="9" d="M66 -6l45 233q80 -26 188 -26q162 0 282.5 85t180.5 230q12 36 26 70h-2q-120 -107 -286 -107q-164 0 -260.5 85.5t-96.5 242.5q0 104 39.5 202t110.5 175t179.5 123.5t236.5 46.5q193 0 299 -98.5t106 -307.5q0 -73 -10.5 -153.5t-38 -176.5t-69 -184.5t-109.5 -172 t-153 -145t-205 -99t-261 -37.5q-122 0 -202 14zM412 856q0 -78 43 -119t125 -41q109 0 187.5 76.5t78.5 194.5q0 80 -44.5 127t-127.5 47q-116 0 -189 -85.5t-73 -199.5z" />
<glyph unicode=":" horiz-adv-x="604" d="M100 137q0 73 51 123.5t121 50.5q68 0 115 -47.5t47 -111.5q0 -73 -51 -124t-119 -51t-116 48t-48 112zM211 717q0 73 51 123.5t121 50.5q67 0 114.5 -48t47.5 -112q0 -73 -50.5 -123.5t-119.5 -50.5q-68 0 -116 48t-48 112z" />
<glyph unicode=";" horiz-adv-x="604" d="M-4 -244q81 67 121 122t41 99.5t-25 85.5q-22 35 -22 78t18 79t55.5 60.5t85.5 24.5q84 0 131 -70q56 -86 13 -214q-63 -192 -321 -373q-1 -1 -3 -2zM211 717q0 73 51 123.5t121 50.5q67 0 114.5 -48t47.5 -112q0 -73 -50.5 -123.5t-119.5 -50.5q-68 0 -116 48t-48 112z " />
<glyph unicode="&#x3c;" d="M158 631l749 588l154 -181l-565 -426l407 -434l-190 -166z" />
<glyph unicode="=" d="M80 307l39 211h907l-39 -211h-907zM154 698l39 211h907l-37 -211h-909z" />
<glyph unicode="&#x3e;" d="M123 193l565 425l-409 435l192 166l553 -621l-750 -586z" />
<glyph unicode="?" horiz-adv-x="905" d="M166 123q0 71 49.5 118.5t118.5 47.5q67 0 109 -43.5t42 -104.5q0 -71 -49.5 -117.5t-118.5 -46.5q-66 0 -108.5 43t-42.5 103zM242 385q-12 83 3 152.5t48.5 118t77 90t89 76t84 67t63 71.5t24.5 82q0 82 -95 129t-253 60l75 237q274 -14 418 -119t144 -259 q0 -75 -25.5 -138t-66 -107.5t-89 -84.5t-95 -78t-83.5 -79t-55.5 -96.5t-9.5 -121.5h-254z" />
<glyph unicode="@" horiz-adv-x="1970" d="M178 471q0 203 75.5 391.5t205.5 331t318 228t401 85.5q164 0 292 -44.5t208.5 -123.5t121.5 -184t41 -231q0 -182 -64 -330t-190.5 -238t-294.5 -90q-110 0 -159.5 55t-36.5 142h-6q-46 -76 -130 -136.5t-174 -60.5q-89 0 -136.5 58.5t-47.5 173.5q0 79 17.5 159.5 t58.5 162t100.5 144.5t152.5 102.5t206 39.5q145 0 247 -41l-112 -406q-29 -100 -13 -144t78 -44q117 0 194 117.5t77 306.5q0 83 -25.5 153.5t-78.5 127.5t-145.5 89.5t-215.5 32.5q-160 0 -298.5 -68t-230.5 -179.5t-144 -253.5t-52 -291q0 -219 130 -339t392 -120 q180 0 363 59l18 -204q-102 -33 -219.5 -51.5t-214.5 -18.5q-345 0 -527 169t-182 470zM811 551q0 -82 51 -82q65 0 137 91.5t123 268.5l25 91q-34 12 -82 12q-66 0 -125.5 -58t-94 -146t-34.5 -177z" />
<glyph unicode="A" horiz-adv-x="1257" d="M-86 0l731 1382h307l215 -1382h-280l-39 283h-514l-148 -283h-272zM438 494h383l-59 409q-17 143 -19 193h-4q-34 -86 -86 -191z" />
<glyph unicode="B" horiz-adv-x="1163" d="M53 0l262 1380q211 11 439 11q197 0 301 -70.5t104 -210.5q0 -138 -71 -233t-191 -144v-2q84 -21 133 -91t49 -159q0 -99 -43 -187t-120.5 -154.5t-196 -105t-260.5 -38.5q-35 0 -172.5 2t-233.5 2zM356 217q87 -6 133 -6q145 0 227.5 73t82.5 177q0 149 -228 149 q-112 0 -141 -2zM469 811q31 -2 94 -2q143 0 227 64t84 176q0 63 -43.5 96t-146.5 33q-63 0 -145 -4z" />
<glyph unicode="C" horiz-adv-x="1124" d="M96 467q0 142 32.5 276.5t99.5 253t162 207t229 140t290 51.5q154 0 293 -39l-72 -244q-124 45 -247 45q-105 0 -190.5 -40.5t-140 -105.5t-91.5 -151t-52.5 -171.5t-15.5 -172.5q0 -141 68 -216t227 -75q145 0 281 58l-2 -242q-169 -57 -357 -57q-121 0 -214 29 t-148.5 75t-91 111.5t-48 129.5t-12.5 138z" />
<glyph unicode="D" horiz-adv-x="1339" d="M53 2l262 1378q291 11 433 11q291 0 438 -127.5t147 -372.5q0 -141 -35 -271.5t-107.5 -245t-176 -199.5t-250.5 -134t-320 -49q-104 0 -391 10zM358 229q58 -10 125 -10q120 0 218.5 42t161 108.5t105.5 153t61 172t18 169.5q0 147 -77.5 225t-262.5 78q-109 0 -170 -6z " />
<glyph unicode="E" horiz-adv-x="987" d="M53 0l262 1382h263h473l-41 -223h-475l-66 -340h453l-41 -217h-453l-70 -373h473l-43 -229h-473h-262z" />
<glyph unicode="F" horiz-adv-x="933" d="M53 0l262 1382h263h462l-43 -227h-462l-68 -354h438l-43 -219h-436l-111 -582h-262z" />
<glyph unicode="G" horiz-adv-x="1353" d="M98 508q0 190 66.5 356t182.5 284.5t280 186.5t352 68q215 0 395 -55l-78 -254q-160 71 -342 71q-131 0 -240 -51t-181 -137t-112 -198.5t-40 -237.5q0 -52 11 -98t37 -87.5t64.5 -71.5t96.5 -47.5t131 -17.5q97 0 197 27l92 479h260l-127 -664q-219 -81 -469 -81 q-286 0 -431 142.5t-145 385.5z" />
<glyph unicode="H" horiz-adv-x="1378" d="M53 0l262 1382h263l-107 -553h576l104 553h262l-262 -1382h-262l115 600h-574l-115 -600h-262z" />
<glyph unicode="I" horiz-adv-x="542" d="M53 0l262 1382h263l-263 -1382h-262z" />
<glyph unicode="J" horiz-adv-x="669" d="M-88 -2l45 229q48 -20 111 -20q78 0 125.5 42t66.5 142l189 991h260l-195 -1020q-70 -380 -438 -380q-74 0 -164 16z" />
<glyph unicode="K" horiz-adv-x="1173" d="M53 0l262 1382h263l-119 -626l516 626h336l-606 -688l346 -694h-326l-285 664l-125 -664h-262z" />
<glyph unicode="L" horiz-adv-x="860" d="M53 0l262 1382h263l-220 -1149h441l-45 -233h-439h-262z" />
<glyph unicode="M" horiz-adv-x="1765" d="M-25 0l471 1382h302l90 -710q14 -118 18 -291h4q52 136 131 287l365 714h311l-49 -1382h-272l26 655q10 194 23 334h-4q-29 -77 -129 -295l-349 -694h-256l-82 645q-20 196 -20 322v22h-2q-56 -195 -107 -352l-198 -637h-273z" />
<glyph unicode="N" horiz-adv-x="1378" d="M53 0l262 1382h310l258 -653q51 -139 104 -328q24 189 66 410l106 571h256l-264 -1382h-307l-264 690q-59 158 -95 301q-19 -155 -63 -395l-113 -596h-256z" />
<glyph unicode="O" horiz-adv-x="1411" d="M90 481q0 185 62.5 355t169.5 295t258 199.5t319 74.5q249 0 379.5 -131.5t130.5 -374.5q0 -195 -64.5 -367.5t-173 -293.5t-257 -191t-312.5 -70q-257 0 -384.5 131.5t-127.5 372.5zM373 526q0 -147 68 -227t198 -80q137 0 250 88.5t176 237t63 323.5q0 138 -68.5 217.5 t-205.5 79.5q-141 0 -253 -91.5t-170 -236t-58 -311.5z" />
<glyph unicode="P" horiz-adv-x="1064" d="M53 0l262 1382q169 9 373 9q205 0 319.5 -91.5t114.5 -261.5q0 -153 -83.5 -280.5t-226.5 -201t-314 -73.5q-28 0 -90 4l-93 -487h-262zM451 713q37 -6 75 -6q132 0 227 87t95 210q0 170 -203 170q-63 0 -106 -3z" />
<glyph unicode="Q" horiz-adv-x="1413" d="M90 481q0 186 61.5 356t167 295t256 199t320.5 74q250 0 382 -131.5t132 -374.5q0 -257 -113 -467t-292 -299q38 -1 96 -17.5t101 -23.5q21 -4 53 -4q35 0 83 4l-43 -227q-66 -8 -113 -8q-26 0 -47 3q-59 6 -119 25t-104 39.5t-114.5 36.5t-151.5 16h-43 q-257 0 -384.5 131.5t-127.5 372.5zM373 526q0 -147 68 -227t198 -80q137 0 250 88.5t176 237t63 323.5q0 138 -68.5 217.5t-205.5 79.5q-141 0 -253 -91.5t-170 -236t-58 -311.5z" />
<glyph unicode="R" horiz-adv-x="1136" d="M53 0l262 1382q164 9 383 9q435 0 435 -316q0 -179 -116.5 -302.5t-305.5 -166.5q24 -46 73 -151l226 -455h-308l-258 571h-20l-109 -571h-262zM461 768q36 -4 90 -4q133 0 218 73t85 189q0 148 -199 148q-71 0 -118 -7z" />
<glyph unicode="S" horiz-adv-x="942" d="M33 8l47 252q104 -49 221 -49q131 0 200.5 53t69.5 148q0 40 -22 74.5t-56.5 61t-76.5 53t-84.5 58t-77 68.5t-56.5 92.5t-22 122.5q0 95 35 178t101.5 147t172 101t236.5 37q121 0 227 -19l-45 -235q-95 33 -194 33q-124 0 -187 -52t-63 -128q0 -42 22 -78t57 -64 t77.5 -56t85.5 -60.5t78 -70.5t57 -93.5t22 -122.5q0 -204 -162.5 -343t-412.5 -139q-153 0 -250 31z" />
<glyph unicode="T" horiz-adv-x="1024" d="M164 1155l43 227h960l-41 -227h-350l-221 -1155h-262l221 1155h-350z" />
<glyph unicode="U" horiz-adv-x="1366" d="M147 506l166 876h262l-172 -897q-10 -51 -9 -92q0 -77 32 -123q52 -71 197 -71q155 0 239.5 77t116.5 254l164 852h258l-168 -874q-102 -531 -647 -531q-454 0 -454 377q0 70 15 152z" />
<glyph unicode="V" horiz-adv-x="1261" d="M182 1382h275l112 -809q20 -152 25 -270h4q56 135 137 287l416 792h279l-738 -1382h-303z" />
<glyph unicode="W" horiz-adv-x="1912" d="M225 1382h267l43 -766q1 -29 1 -59q0 -101 -8 -219h2q66 184 105 272l352 772h279l65 -768q6 -75 6 -150q0 -60 -4 -120h2q36 110 99 266l331 772h273l-608 -1382h-322l-53 762q-1 53 -1 103q0 99 5 182h-2q-38 -125 -103 -279l-344 -768h-305z" />
<glyph unicode="X" horiz-adv-x="1259" d="M-70 0l572 713l-279 669h293l186 -477l361 477h307l-534 -682l311 -700h-316l-196 508l-387 -508h-318z" />
<glyph unicode="Y" d="M180 1382h275l104 -397q34 -140 49 -229h4q38 71 158 256l238 370h288l-602 -893l-92 -489h-262l94 487z" />
<glyph unicode="Z" horiz-adv-x="1064" d="M2 0l39 205l621 811q61 78 112 131q-98 -4 -242 -4h-294l43 239h862l-39 -215l-651 -829q-42 -56 -80 -96q33 4 291 4h272l-47 -246h-887z" />
<glyph unicode="[" horiz-adv-x="657" d="M-23 -420l383 2011h443l-43 -207h-199l-305 -1593h201l-39 -211h-441z" />
<glyph unicode="\" horiz-adv-x="962" d="M225 1550h234l362 -1880h-235z" />
<glyph unicode="]" horiz-adv-x="657" d="M-94 -420l39 211h200l304 1593h-201l41 207h442l-383 -2011h-442z" />
<glyph unicode="^" d="M162 782l444 600h199l227 -598l-196 -94l-164 506l-350 -506z" />
<glyph unicode="_" d="M-143 -504l39 211h1126l-39 -211h-1126z" />
<glyph unicode="`" horiz-adv-x="722" d="M207 1374l127 170l332 -258l-105 -139z" />
<glyph unicode="a" horiz-adv-x="1110" d="M61 295q0 117 25 225t77.5 202.5t128 164t184.5 109.5t239 40q210 0 360 -30q-157 -824 -186 -1006h-254q25 111 96 324h-4q-187 -347 -426 -347q-240 0 -240 318zM326 344q0 -141 77 -141q68 0 148.5 93t139 219.5t79.5 236.5l14 65q-58 14 -114 14q-68 0 -126 -30.5 t-97.5 -80t-67 -113.5t-40.5 -130.5t-13 -132.5z" />
<glyph unicode="b" horiz-adv-x="1110" d="M55 18l283 1477h256l-84 -434q-18 -105 -111 -367h4q81 161 189 253.5t237 92.5q240 0 240 -317q0 -117 -24.5 -225t-77 -202.5t-128.5 -164t-184.5 -109.5t-238.5 -40q-201 0 -361 36zM346 201q66 -15 115 -15q84 0 152.5 46t109 119t61.5 156.5t21 166.5q0 141 -78 141 q-68 0 -148.5 -93t-139 -218.5t-79.5 -233.5z" />
<glyph unicode="c" horiz-adv-x="827" d="M63 332q0 146 42.5 274.5t118.5 224.5t190 151.5t250 55.5q101 0 200 -26l-59 -226q-70 31 -158 31q-62 0 -114 -26.5t-87 -69.5t-60 -99.5t-36.5 -115t-11.5 -117.5q0 -180 178 -180q101 0 189 37l-17 -223q-115 -43 -248 -43q-377 0 -377 352z" />
<glyph unicode="d" horiz-adv-x="1110" d="M61 295q0 117 25 225t77.5 202.5t128 164t184.5 109.5t239 40q51 0 108 -8l88 467h258l-215 -1128q-46 -244 -65 -367h-252q15 88 94 324h-4q-187 -347 -426 -347q-240 0 -240 318zM326 344q0 -141 77 -141q68 0 148.5 93t139 219.5t79.5 236.5l14 65q-58 14 -114 14 q-68 0 -126 -30.5t-97.5 -80t-67 -113.5t-40.5 -130.5t-13 -132.5z" />
<glyph unicode="e" horiz-adv-x="993" d="M66 324q0 156 45.5 290.5t123 227t183 144.5t223.5 52q91 0 157.5 -21t102.5 -57t53 -78t17 -91q0 -98 -50.5 -170.5t-141.5 -115t-202 -64t-247 -25.5q-6 -60 -6 -80q0 -87 39.5 -118.5t146.5 -31.5q143 0 295 60l4 -201q-174 -65 -383 -65q-189 0 -274.5 85.5 t-85.5 258.5zM358 590q181 6 270 46t89 120q0 43 -27.5 66.5t-77.5 23.5q-93 0 -158 -73t-96 -183z" />
<glyph unicode="f" horiz-adv-x="710" d="M-305 -489l61 215q63 -17 121 -17q89 0 139 55t78 201l162 850h-174l41 203h174l12 76q38 209 152 313t325 104q95 0 166 -16l-59 -213q-59 16 -121 16q-90 0 -137.5 -48.5t-69.5 -164.5l-12 -67h231l-39 -203h-233l-160 -852q-45 -242 -165 -356.5t-314 -114.5 q-88 0 -178 19z" />
<glyph unicode="g" horiz-adv-x="1103" d="M-47 -469l59 240q126 -60 279 -60q148 0 228 60.5t106 195.5q25 130 104 350l-4 2q-186 -342 -424 -342q-240 0 -240 318q0 117 25 225t77.5 202.5t128 164t184.5 109.5t239 40q210 0 360 -30l-205 -1069q-20 -108 -64 -189t-117.5 -140.5t-184 -89.5t-256.5 -30 q-168 0 -295 43zM326 344q0 -141 77 -141q68 0 148.5 93t139 219.5t79.5 236.5l14 65q-58 14 -114 14q-68 0 -126 -30.5t-97.5 -80t-67 -113.5t-40.5 -130.5t-13 -132.5z" />
<glyph unicode="h" horiz-adv-x="1144" d="M51 0l285 1495h256l-80 -430q-24 -121 -111 -363h5q77 151 184.5 244.5t243.5 93.5q142 0 195 -91q34 -59 34 -145q0 -47 -10 -102l-133 -702h-258l122 639q10 52 10 88q0 29 -6 47q-14 41 -65 41q-65 0 -144 -89.5t-139.5 -219t-83.5 -248.5l-49 -258h-256z" />
<glyph unicode="i" horiz-adv-x="536" d="M51 0l195 1018h256l-195 -1018h-256zM270 1319q0 71 51.5 119.5t120.5 48.5q66 0 110 -44t44 -104q0 -72 -51.5 -121t-120.5 -49q-66 0 -110 44.5t-44 105.5z" />
<glyph unicode="j" horiz-adv-x="542" d="M-305 -492l55 224q52 -21 109 -21q82 0 122.5 50.5t67.5 181.5l207 1075h256l-211 -1104q-42 -210 -151 -316t-316 -106q-77 0 -139 16zM276 1319q0 71 52 119.5t121 48.5q66 0 109.5 -44t43.5 -104q0 -72 -51.5 -121t-120.5 -49q-66 0 -110 44.5t-44 105.5z" />
<glyph unicode="k" horiz-adv-x="1030" d="M51 0l285 1495h256l-168 -887l438 469l203 -133l-406 -391l273 -553h-311l-213 516l-101 -516h-256z" />
<glyph unicode="l" horiz-adv-x="534" d="M51 0l285 1495h256l-285 -1495h-256z" />
<glyph unicode="m" horiz-adv-x="1740" d="M51 0l103 532q51 265 88 486h252q-20 -103 -93 -316h5q173 338 421 338q96 0 151.5 -50.5t55.5 -147.5q0 -46 -30 -148h4q173 346 426 346q140 0 192 -91q33 -58 34 -142q0 -48 -11 -105l-136 -702h-256l123 639q9 47 9 82q0 96 -68 96q-59 0 -135 -81.5t-139.5 -213 t-88.5 -264.5l-47 -258h-256l123 639q9 52 9 87q0 30 -6 49q-14 42 -62 42q-59 0 -135 -81.5t-139.5 -213t-88.5 -264.5l-49 -258h-256z" />
<glyph unicode="n" horiz-adv-x="1144" d="M51 0l103 532q51 265 88 486h252q-21 -106 -93 -316h5q77 151 184.5 244.5t243.5 93.5q142 0 195 -91q34 -59 34 -145q0 -47 -10 -102l-133 -702h-258l122 639q10 52 10 88q0 29 -6 47q-14 41 -65 41q-65 0 -144 -89.5t-139.5 -219t-83.5 -248.5l-49 -258h-256z" />
<glyph unicode="o" horiz-adv-x="1116" d="M63 344q0 155 50 287t134.5 220.5t195.5 137.5t233 49q208 0 303.5 -99t95.5 -271q0 -153 -51 -284t-136.5 -218.5t-196 -136.5t-230.5 -49q-207 0 -302.5 93t-95.5 271zM332 385q0 -180 164 -180q133 0 221 127.5t88 302.5q0 90 -40.5 135t-127.5 45q-91 0 -162.5 -66 t-107 -163t-35.5 -201z" />
<glyph unicode="p" horiz-adv-x="1110" d="M-43 -494l197 1024q56 298 88 488h252q-17 -84 -93 -320l5 -2q79 159 186.5 251.5t236.5 92.5q240 0 240 -317q0 -117 -24.5 -225t-77 -202.5t-128.5 -164t-184.5 -109.5t-238.5 -40q-54 0 -111 8l-90 -484h-258zM348 205q63 -19 115 -19q83 0 151 46t108 119t61.5 156.5 t21.5 166.5q0 141 -78 141q-68 0 -148.5 -93t-139 -218.5t-79.5 -233.5z" />
<glyph unicode="q" horiz-adv-x="1110" d="M61 295q0 117 25 225t77.5 202.5t128 164t184.5 109.5t239 40q200 0 360 -32l-284 -1498h-256l77 420q33 167 119 398h-4q-187 -347 -426 -347q-240 0 -240 318zM326 344q0 -141 77 -141q68 0 148.5 93t139 219.5t79.5 236.5l14 65q-58 14 -114 14q-68 0 -126 -30.5 t-97.5 -80t-67 -113.5t-40.5 -130.5t-13 -132.5z" />
<glyph unicode="r" horiz-adv-x="718" d="M51 0l103 532q51 265 88 486h247q-21 -117 -88 -307h5q92 179 182 263q73 67 167 68q23 0 46 -4l-56 -252q-18 6 -36 6q-55 0 -117 -54q-80 -70 -145.5 -208.5t-96.5 -308.5l-43 -221h-256z" />
<glyph unicode="s" horiz-adv-x="772" d="M18 -2l48 219q76 -29 155 -29t124.5 29t45.5 84q0 37 -27 71t-65.5 64t-77 64.5t-65.5 88t-27 120.5q0 146 113 237.5t325 91.5q101 0 172 -14l-47 -201q-68 21 -137 21q-78 0 -118 -29t-40 -80q0 -29 19.5 -58t49 -53t64 -56t64 -64t49 -78.5t19.5 -99.5 q0 -66 -29 -126.5t-84 -110t-146.5 -79.5t-205.5 -30q-103 0 -179 18z" />
<glyph unicode="t" horiz-adv-x="751" d="M78 815l41 203h172l59 313l266 53l-69 -366h241l-40 -203h-240l-86 -459q-9 -47 -9 -79q0 -29 8 -45q16 -32 79 -31q62 0 127 14l-25 -209q-110 -26 -209 -26q-163 0 -216 82q-32 49 -32 133q0 58 15 133l92 487h-174z" />
<glyph unicode="u" horiz-adv-x="1142" d="M111 315l135 703h256l-123 -639q-9 -52 -9 -87q0 -29 6 -48q14 -41 64 -41q65 0 144 89.5t139.5 219t83.5 248.5l49 258h256l-102 -533q-2 -9 -88 -485h-250q17 102 90 315h-4q-77 -151 -184.5 -244.5t-243.5 -93.5q-142 0 -195 91q-34 59 -34 145q0 47 10 102z" />
<glyph unicode="v" horiz-adv-x="1007" d="M115 1018h272l68 -443q18 -118 24 -241h4l359 729l250 -76l-533 -987h-270z" />
<glyph unicode="w" horiz-adv-x="1599" d="M131 1018h268l33 -385q17 -216 19 -299h2q101 227 323 684h248l49 -385q19 -207 23 -301h2q114 260 329 729l248 -72l-491 -989h-291l-53 438q-15 131 -15 230h-2q-119 -262 -319 -668h-264z" />
<glyph unicode="x" horiz-adv-x="1071" d="M-51 66l438 464l-231 488h286l144 -334l340 393l207 -123l-422 -458l239 -496h-301l-141 336l-346 -397z" />
<glyph unicode="y" horiz-adv-x="1048" d="M-197 -494l43 226q59 -21 125 -21q107 0 191 84q94 94 94 262q0 392 -160 961h289q45 -174 73.5 -372.5t28.5 -354.5q0 -41 -10 -86h4q192 356 389 856l244 -70q-218 -505 -400.5 -816t-365.5 -494q-194 -191 -393 -191q-83 0 -152 16z" />
<glyph unicode="z" horiz-adv-x="894" d="M4 0l35 186l489 600q-78 -4 -204 -4h-160l45 236h690l-37 -187l-481 -593q43 2 217 2h160l-45 -240h-709z" />
<glyph unicode="{" horiz-adv-x="727" d="M70 543l39 196q109 6 165 52.5t78 169.5l33 178q39 229 147 340.5t304 111.5h45l-39 -207q-101 0 -145.5 -47.5t-71.5 -193.5l-33 -176q-32 -161 -94.5 -237t-153.5 -89v-4q83 -13 117.5 -93t5.5 -235l-53 -274q-28 -149 -3.5 -196.5t124.5 -47.5l-41 -211h-41 q-194 0 -259.5 111t-19.5 346l53 276q25 123 -14.5 173.5t-142.5 56.5z" />
<glyph unicode="|" horiz-adv-x="577" d="M2 -494l389 2048h205l-391 -2048h-203z" />
<glyph unicode="}" horiz-adv-x="727" d="M-96 -418l39 209q99 0 143.5 49.5t71.5 196.5l53 272q58 306 250 332v4q-181 27 -123 322l33 176q15 76 16 122t-14 73t-43.5 36.5t-79.5 9.5l39 207h41q194 0 259 -110.5t21 -341.5l-37 -178q-24 -123 15.5 -169.5t144.5 -52.5l-37 -196q-109 -6 -164.5 -55t-80.5 -175 l-54 -274q-46 -242 -151 -349.5t-299 -107.5h-43z" />
<glyph unicode="~" d="M176 881q9 173 98.5 268.5t233.5 95.5q47 0 86 -12t65 -31t47.5 -41.5t38.5 -45.5t33 -42t36.5 -31t43.5 -12q98 0 117 166h194q-7 -174 -96.5 -269.5t-234.5 -95.5q-65 0 -114 22t-77.5 53.5t-51.5 62.5t-49.5 53t-58.5 22q-97 0 -116 -163h-195z" />
<glyph unicode="&#xa1;" horiz-adv-x="645" d="M-14 -432l241 1065h219l-161 -1065h-299zM227 877q0 71 49 117t119 46q66 0 108 -42.5t42 -102.5q0 -71 -49 -118.5t-119 -47.5q-66 0 -108 44t-42 104z" />
<glyph unicode="&#xa2;" d="M178 555q0 237 138.5 399t363.5 199l33 178h198l-32 -170q104 -3 198 -45l-92 -209q-88 45 -199 45q-146 0 -237.5 -102t-91.5 -248q0 -91 56 -137.5t163 -46.5q115 0 227 49l35 -203q-115 -53 -242 -63l-39 -201h-198l39 203q-154 18 -237 106t-83 246z" />
<glyph unicode="&#xa3;" d="M51 0l33 178q132 94 179 176t50 207h-196l37 203h170q2 64 8 118t21 116.5t39 111.5t64.5 96.5t94 78.5t131 50t172.5 19q124 0 256 -33l-80 -219q-107 39 -205 39q-58 0 -100.5 -19.5t-68 -51t-40.5 -82t-21 -102t-7 -122.5h309l-37 -203h-285q-1 -110 -40 -190.5 t-123 -149.5q86 4 149 4h397l-43 -225h-864z" />
<glyph unicode="&#xa4;" d="M45 248l174 176q-33 53 -33 147q0 207 138 353l-113 188l221 137l109 -198q74 26 151 26q76 0 127 -22l182 196l175 -151l-181 -182q27 -49 27 -123q0 -200 -133 -357l123 -200l-224 -142l-116 211q-84 -33 -158 -33q-65 0 -111 19l-178 -195zM420 610q0 -67 32.5 -106 t100.5 -39q57 0 103 27t74 70t43 92t15 98q0 135 -139 135q-103 0 -166 -83.5t-63 -193.5z" />
<glyph unicode="&#xa5;" d="M61 201l31 166h318l22 120h-317l32 168h256l-196 676h280l88 -342q15 -61 41 -205h5q56 107 124 211l218 336h290l-462 -676h256l-33 -168h-318l-22 -120h317l-30 -166h-318l-39 -201h-264l39 201h-318z" />
<glyph unicode="&#xa6;" horiz-adv-x="577" d="M2 -494l148 775h202l-147 -775h-203zM250 801l141 753h205l-143 -753h-203z" />
<glyph unicode="&#xa7;" horiz-adv-x="1062" d="M70 -322l55 222q89 -27 151 -27q57 0 99.5 16.5t64 42.5t31.5 51.5t10 51.5q0 43 -33.5 91.5t-80.5 96.5t-94.5 101.5t-81 126.5t-33.5 153q0 109 55 202t158 163q-45 77 -45 159q0 46 15 95.5t52 101.5t90.5 93t138.5 67t189 26q93 0 178 -16l-53 -217q-70 20 -139 20 q-54 0 -93.5 -14.5t-59.5 -39t-29 -50t-9 -53.5q0 -40 33.5 -86t81 -94.5t95 -104t81 -134t33.5 -165.5q0 -102 -57 -195t-154 -157q41 -61 41 -150q0 -93 -43.5 -170t-115.5 -125.5t-160.5 -75t-182.5 -26.5q-112 0 -188 20zM395 653q0 -33 12 -65.5t45 -76t59.5 -74 t86.5 -95.5q94 62 94 170q0 27 -9.5 56t-19 48.5t-40.5 59t-45.5 56.5t-63.5 72q-14 16 -22 25q-97 -64 -97 -176z" />
<glyph unicode="&#xa8;" horiz-adv-x="995" d="M158 1323q0 62 43.5 103.5t103.5 41.5q58 0 96.5 -39.5t38.5 -95.5q0 -62 -43 -104.5t-102 -42.5q-58 0 -97.5 40.5t-39.5 96.5zM571 1325q0 60 44 101.5t104 41.5q58 0 96.5 -39.5t38.5 -95.5q0 -62 -43 -104.5t-102 -42.5q-58 0 -98 41t-40 98z" />
<glyph unicode="&#xa9;" horiz-adv-x="1529" d="M106 647q0 153 60.5 290.5t160.5 234.5t234.5 153.5t278.5 56.5q139 0 263 -52t213 -140t141 -210.5t52 -258.5q0 -155 -60.5 -293.5t-161 -235t-234 -152.5t-277.5 -56q-188 0 -342 88.5t-241 240.5t-87 334zM305 657q0 -199 140 -340t341 -141q102 0 198 41t167.5 111 t114.5 169.5t43 211.5q0 129 -63.5 240t-174.5 176t-242 65q-139 0 -259 -69t-192.5 -192t-72.5 -272zM471 586q0 91 29 174.5t82 147.5t132.5 102.5t174.5 38.5q101 0 172 -31l-62 -172q-45 33 -120 33q-50 0 -89 -24t-61 -63t-33.5 -84t-11.5 -92q0 -114 111 -114 q81 0 147 28l6 -168q-91 -40 -205 -40q-130 0 -201 69.5t-71 194.5z" />
<glyph unicode="&#xaa;" horiz-adv-x="823" d="M88 360l39 203h641l-37 -203h-643zM135 879q0 105 31 198.5t88.5 166t149 115t204.5 42.5q139 0 271 -23q-113 -593 -129 -712h-203q12 57 55 182h-2q-113 -199 -281 -199q-184 0 -184 230zM348 926q0 -49 12 -70.5t39 -21.5q70 0 144 107.5t94 236.5l8 45q-45 10 -78 10 q-66 0 -117.5 -47.5t-76.5 -116.5t-25 -143z" />
<glyph unicode="&#xab;" horiz-adv-x="1067" d="M111 612l288 389l191 -100l-230 -301l123 -307l-215 -92zM551 610l307 381l182 -100l-239 -291l141 -295l-211 -94z" />
<glyph unicode="&#xac;" d="M86 500l43 219h922l-101 -524h-231l57 305h-690z" />
<glyph unicode="&#xad;" horiz-adv-x="675" d="M90 463l41 211h496l-41 -211h-496z" />
<glyph unicode="&#xae;" horiz-adv-x="1132" d="M211 1057q0 142 70 258.5t183.5 180t242.5 63.5q191 0 320.5 -128t129.5 -319q0 -105 -41.5 -199t-110.5 -159t-159.5 -102.5t-186.5 -37.5q-190 0 -319 127.5t-129 315.5zM371 1071q0 -127 86 -219t211 -92q132 0 230.5 100t98.5 246q0 125 -86.5 216t-210.5 91 q-133 0 -231 -99t-98 -243zM479 864l86 457h176q146 0 146 -104q0 -112 -119 -154q5 -8 25 -59l41 -140h-142l-43 174h-18l-33 -174h-119zM649 1122h23q34 0 56 19.5t22 50.5q0 35 -48 35h-34z" />
<glyph unicode="&#xaf;" horiz-adv-x="808" d="M207 1229l35 188h540l-34 -188h-541z" />
<glyph unicode="&#xb0;" horiz-adv-x="778" d="M231 1198q0 75 29.5 136t77 98.5t105 58t116.5 20.5q145 0 215 -73t70 -185q0 -77 -29 -139t-77 -99.5t-106 -57t-120 -19.5q-135 0 -208 71.5t-73 188.5zM426 1217q0 -52 28 -82.5t78 -30.5q51 0 84 36.5t33 96.5q0 42 -25 76.5t-77 34.5q-51 0 -86 -35.5t-35 -95.5z " />
<glyph unicode="&#xb1;" d="M-2 0l43 219h950l-41 -219h-952zM127 709l39 217h358l74 372h248l-72 -372h359l-41 -217h-359l-69 -375h-250l71 375h-358z" />
<glyph unicode="&#xb2;" horiz-adv-x="647" d="M135 725l29 145l135 103q83 57 113 93.5t30 70.5q0 51 -63 51q-49 0 -117 -33l-16 154q108 43 209 43q111 0 166 -43.5t55 -116.5q0 -69 -39 -126.5t-131 -121.5l-78 -57h211l-33 -162h-471z" />
<glyph unicode="&#xb3;" horiz-adv-x="630" d="M139 721l37 133q47 -14 98 -14q62 0 94.5 21.5t32.5 60.5q0 71 -178 45l21 120h26q168 0 168 89q0 43 -65 43q-57 0 -113 -27l-10 127q86 33 194 33q109 0 160 -39t51 -103q0 -123 -118 -172q42 -6 66 -36t24 -74q0 -94 -84.5 -158.5t-255.5 -64.5q-71 0 -148 16z" />
<glyph unicode="&#xb4;" horiz-adv-x="811" d="M199 1290l368 254l107 -178l-387 -219z" />
<glyph unicode="&#xb5;" horiz-adv-x="1171" d="M-12 -494q6 205 33 382.5t81 415t72 331.5l72 383h256l-109 -572q-26 -142 -13.5 -192.5t64.5 -50.5q64 0 142 89.5t139 219.5t82 248l49 258h256l-108 -576q-23 -121 -23 -178q0 -36 11.5 -50.5t39.5 -14.5q19 0 35 4l-16 -209q-59 -12 -115 -12q-104 0 -151.5 38 t-47.5 123q0 73 35 172h-2q-70 -149 -163.5 -240t-188.5 -91q-118 0 -135 96q-5 -123 -7 -137q-33 -220 -30 -437h-258z" />
<glyph unicode="&#xb6;" horiz-adv-x="1193" d="M188 838q0 196 123.5 343t317.5 187q57 14 133 14l-172 -909q-199 -1 -300.5 97.5t-101.5 267.5zM479 -197l39 209h139l263 1370h346l-37 -208h-131l-262 -1371h-357z" />
<glyph unicode="&#xb7;" horiz-adv-x="550" d="M133 606q0 71 52.5 122.5t123.5 51.5q69 0 117.5 -49.5t48.5 -116.5q0 -72 -53 -123t-125 -51q-70 0 -117 49t-47 117z" />
<glyph unicode="&#xb8;" horiz-adv-x="694" d="M49 -479q61 62 89 112.5t26.5 104.5t-37.5 115l223 65q108 -206 -92 -397h-209z" />
<glyph unicode="&#xb9;" horiz-adv-x="636" d="M236 1260l194 71h193l-115 -606h-207l82 436l-143 -57z" />
<glyph unicode="&#xba;" horiz-adv-x="854" d="M92 360l37 203h631l-39 -203h-629zM170 913q0 135 52.5 246.5t153 178.5t230.5 67q154 0 221.5 -73.5t67.5 -196.5q0 -111 -36 -204t-97 -154t-140.5 -94.5t-166.5 -33.5q-143 0 -214 69.5t-71 194.5zM385 948q0 -117 100 -117q87 0 141 82.5t54 192.5q0 115 -100 115 q-51 0 -91 -27t-61.5 -70t-32 -88t-10.5 -88z" />
<glyph unicode="&#xbb;" horiz-adv-x="1067" d="M90 311l242 293l-142 295l211 92l181 -399l-308 -381zM543 301l229 303l-125 307l215 90l158 -411l-287 -387z" />
<glyph unicode="&#xbc;" horiz-adv-x="1433" d="M29 72l1255 1358l150 -119l-1258 -1358zM244 1143v172l184 67h184l-127 -663h-211l91 471zM692 111l15 141l303 412h299l-76 -394h88l-29 -159h-90l-20 -111h-203l20 111h-307zM887 266q41 2 139 2l51 256z" />
<glyph unicode="&#xbd;" horiz-adv-x="1458" d="M29 72l1257 1358l150 -119l-1258 -1358zM244 1143v172l184 67h184l-127 -663h-211l91 471zM788 0l31 164l135 102q146 105 146 170q0 64 -68 64q-48 0 -123 -33v174q98 37 207 37q112 0 166.5 -47.5t54.5 -126.5q0 -70 -40 -133t-130 -131l-82 -66q55 4 209 4l-32 -178 h-474z" />
<glyph unicode="&#xbe;" horiz-adv-x="1462" d="M59 72l1258 1358l147 -119l-1255 -1358zM152 717l47 145q43 -18 106 -18q53 0 87 26t34 62t-47 51.5t-143 1.5l26 129q106 0 158.5 27t52.5 67q0 49 -65 49q-59 0 -129 -28v143q91 27 194 27q217 0 217 -152q0 -114 -137 -176q41 -10 64.5 -43.5t23.5 -79.5 q0 -104 -91 -175t-251 -71q-66 0 -147 15zM721 111l14 141l305 412h297l-75 -394h88l-29 -159h-90l-21 -111h-202l20 111h-307zM915 266q41 2 142 2l49 256z" />
<glyph unicode="&#xbf;" horiz-adv-x="905" d="M6 -72q0 75 25.5 138t66 107.5t89 84.5t95 78t83.5 79t55.5 96.5t9.5 121.5h252q12 -83 -2.5 -152.5t-48 -118.5t-77 -90.5t-89.5 -76t-84.5 -66.5t-63 -71.5t-24.5 -82.5q0 -82 95 -128.5t255 -59.5l-78 -238q-138 7 -246.5 40t-176 84t-102 116t-34.5 139zM440 877 q0 71 48.5 117t117.5 46q67 0 109.5 -42.5t42.5 -102.5q0 -71 -49 -118.5t-119 -47.5q-66 0 -108 44t-42 104z" />
<glyph unicode="&#xc0;" horiz-adv-x="1257" d="M-86 0l731 1382h307l215 -1382h-280l-39 283h-514l-148 -283h-272zM438 494h383l-59 409q-17 143 -19 193h-4q-34 -86 -86 -191zM502 1575l80 188l405 -153l-59 -144z" />
<glyph unicode="&#xc1;" horiz-adv-x="1257" d="M-86 0l731 1382h307l215 -1382h-280l-39 283h-514l-148 -283h-272zM438 494h383l-59 409q-17 143 -19 193h-4q-34 -86 -86 -191zM633 1610l436 153l37 -188l-444 -109z" />
<glyph unicode="&#xc2;" horiz-adv-x="1257" d="M-86 0l731 1382h307l215 -1382h-280l-39 283h-514l-148 -283h-272zM438 494h383l-59 409q-17 143 -19 193h-4q-34 -86 -86 -191zM481 1591l355 178l311 -174l-72 -131l-258 123l-287 -123z" />
<glyph unicode="&#xc3;" horiz-adv-x="1257" d="M-86 0l731 1382h307l215 -1382h-280l-39 283h-514l-148 -283h-272zM438 494h383l-59 409q-17 143 -19 193h-4q-34 -86 -86 -191zM442 1589q102 168 258 168q46 0 86 -15t62.5 -33t51 -33t54.5 -15q63 0 119 86l125 -88q-47 -82 -113.5 -125t-144.5 -43q-47 0 -87 15 t-62 33t-50 33t-53 15q-64 0 -121 -88z" />
<glyph unicode="&#xc4;" horiz-adv-x="1257" d="M-86 0l731 1382h307l215 -1382h-280l-39 283h-514l-148 -283h-272zM438 494h383l-59 409q-17 143 -19 193h-4q-34 -86 -86 -191zM471 1599q0 61 40.5 102.5t96.5 41.5t93.5 -38.5t37.5 -92.5q0 -60 -41 -99.5t-98 -39.5q-55 0 -92 36.5t-37 89.5zM901 1599 q0 61 40.5 102.5t96.5 41.5q55 0 92 -39t37 -92q0 -60 -40 -99.5t-97 -39.5q-55 0 -92 36.5t-37 89.5z" />
<glyph unicode="&#xc5;" horiz-adv-x="1257" d="M-86 0l731 1382h307l215 -1382h-280l-39 283h-514l-148 -283h-272zM438 494h383l-59 409q-17 143 -19 193h-4q-34 -86 -86 -191zM604 1673q0 105 73.5 173.5t174.5 68.5q96 0 160.5 -62.5t64.5 -154.5q0 -102 -74 -172t-174 -70q-96 0 -160.5 62.5t-64.5 154.5zM741 1681 q0 -40 27.5 -68t67.5 -28q43 0 72.5 31.5t29.5 75.5q0 39 -26 67.5t-66 28.5q-43 0 -74 -32t-31 -75z" />
<glyph unicode="&#xc6;" horiz-adv-x="1562" d="M-168 0l916 1382h75h135h668l-43 -223h-467l-63 -340h450l-41 -217h-450l-74 -373h483l-43 -229h-614h-121l59 297h-393l-196 -297h-281zM438 508h305l123 653h-2q-106 -184 -186 -303z" />
<glyph unicode="&#xc7;" horiz-adv-x="1124" d="M96 467q0 142 32.5 276.5t99.5 253t162 207t229 140t290 51.5q154 0 293 -39l-72 -244q-124 45 -247 45q-105 0 -190.5 -40.5t-140 -105.5t-91.5 -151t-52.5 -171.5t-15.5 -172.5q0 -141 68 -216t227 -75q145 0 281 58l-2 -242q-169 -57 -357 -57q-121 0 -214 29 t-148.5 75t-91 111.5t-48 129.5t-12.5 138zM328 -479q61 62 89 112.5t26.5 104.5t-37.5 115l223 65q108 -206 -92 -397h-209z" />
<glyph unicode="&#xc8;" horiz-adv-x="987" d="M53 0l262 1382h263h473l-41 -223h-475l-66 -340h453l-41 -217h-453l-70 -373h473l-43 -229h-473h-262zM401 1575l80 188l406 -153l-60 -144z" />
<glyph unicode="&#xc9;" horiz-adv-x="987" d="M53 0l262 1382h263h473l-41 -223h-475l-66 -340h453l-41 -217h-453l-70 -373h473l-43 -229h-473h-262zM518 1610l436 153l37 -188l-444 -109z" />
<glyph unicode="&#xca;" horiz-adv-x="987" d="M53 0l262 1382h263h473l-41 -223h-475l-66 -340h453l-41 -217h-453l-70 -373h473l-43 -229h-473h-262zM371 1591l354 178l311 -174l-71 -131l-258 123l-287 -123z" />
<glyph unicode="&#xcb;" horiz-adv-x="987" d="M53 0l262 1382h263h473l-41 -223h-475l-66 -340h453l-41 -217h-453l-70 -373h473l-43 -229h-473h-262zM354 1599q0 61 41 102.5t97 41.5t93.5 -38.5t37.5 -92.5q0 -60 -41.5 -99.5t-98.5 -39.5q-55 0 -92 36.5t-37 89.5zM784 1599q0 61 41 102.5t97 41.5q55 0 92 -39 t37 -92q0 -60 -40.5 -99.5t-97.5 -39.5q-55 0 -92 36.5t-37 89.5z" />
<glyph unicode="&#xcc;" horiz-adv-x="542" d="M53 0l262 1382h263l-263 -1382h-262zM166 1575l80 188l405 -153l-59 -144z" />
<glyph unicode="&#xcd;" horiz-adv-x="542" d="M53 0l262 1382h263l-263 -1382h-262zM287 1610l436 153l37 -188l-445 -109z" />
<glyph unicode="&#xce;" horiz-adv-x="542" d="M53 0l262 1382h263l-263 -1382h-262zM137 1591l355 178l311 -174l-72 -131l-258 123l-287 -123z" />
<glyph unicode="&#xcf;" horiz-adv-x="542" d="M53 0l262 1382h263l-263 -1382h-262zM123 1599q0 61 40.5 102.5t96.5 41.5t93.5 -38.5t37.5 -92.5q0 -60 -41 -99.5t-98 -39.5q-55 0 -92 36.5t-37 89.5zM553 1599q0 61 40.5 102.5t96.5 41.5q55 0 92 -39t37 -92q0 -60 -40 -99.5t-97 -39.5q-55 0 -92 36.5t-37 89.5z " />
<glyph unicode="&#xd0;" horiz-adv-x="1355" d="M33 602l39 201h151l109 577q291 11 432 11q291 0 438.5 -127.5t147.5 -372.5q0 -141 -35 -271.5t-107.5 -245t-176 -199.5t-250.5 -134t-320 -49q-186 0 -391 10l114 600h-151zM375 229q62 -10 125 -10q120 0 218.5 42t161.5 108.5t106 153t61 172t18 169.5 q0 146 -78.5 224.5t-263.5 78.5q-109 0 -170 -6l-70 -358h246l-39 -201h-246z" />
<glyph unicode="&#xd1;" horiz-adv-x="1378" d="M53 0l262 1382h310l258 -653q51 -139 104 -328q24 189 66 410l106 571h256l-264 -1382h-307l-264 690q-59 158 -95 301q-19 -155 -63 -395l-113 -596h-256zM530 1589q102 168 258 168q46 0 86 -15t62.5 -33t51 -33t54.5 -15q63 0 119 86l125 -88q-47 -82 -113.5 -125 t-144.5 -43q-47 0 -87 15t-62 33t-50 33t-53 15q-64 0 -121 -88z" />
<glyph unicode="&#xd2;" horiz-adv-x="1411" d="M90 481q0 185 62.5 355t169.5 295t258 199.5t319 74.5q249 0 379.5 -131.5t130.5 -374.5q0 -195 -64.5 -367.5t-173 -293.5t-257 -191t-312.5 -70q-257 0 -384.5 131.5t-127.5 372.5zM373 526q0 -147 68 -227t198 -80q137 0 250 88.5t176 237t63 323.5q0 138 -68.5 217.5 t-205.5 79.5q-141 0 -253 -91.5t-170 -236t-58 -311.5zM618 1575l80 188l406 -153l-60 -144z" />
<glyph unicode="&#xd3;" horiz-adv-x="1411" d="M90 481q0 185 62.5 355t169.5 295t258 199.5t319 74.5q249 0 379.5 -131.5t130.5 -374.5q0 -195 -64.5 -367.5t-173 -293.5t-257 -191t-312.5 -70q-257 0 -384.5 131.5t-127.5 372.5zM373 526q0 -147 68 -227t198 -80q137 0 250 88.5t176 237t63 323.5q0 138 -68.5 217.5 t-205.5 79.5q-141 0 -253 -91.5t-170 -236t-58 -311.5zM741 1610l437 153l36 -188l-444 -109z" />
<glyph unicode="&#xd4;" horiz-adv-x="1411" d="M90 481q0 185 62.5 355t169.5 295t258 199.5t319 74.5q249 0 379.5 -131.5t130.5 -374.5q0 -195 -64.5 -367.5t-173 -293.5t-257 -191t-312.5 -70q-257 0 -384.5 131.5t-127.5 372.5zM373 526q0 -147 68 -227t198 -80q137 0 250 88.5t176 237t63 323.5q0 138 -68.5 217.5 t-205.5 79.5q-141 0 -253 -91.5t-170 -236t-58 -311.5zM588 1591l354 178l311 -174l-71 -131l-258 123l-287 -123z" />
<glyph unicode="&#xd5;" horiz-adv-x="1411" d="M90 481q0 185 62.5 355t169.5 295t258 199.5t319 74.5q249 0 379.5 -131.5t130.5 -374.5q0 -195 -64.5 -367.5t-173 -293.5t-257 -191t-312.5 -70q-257 0 -384.5 131.5t-127.5 372.5zM373 526q0 -147 68 -227t198 -80q137 0 250 88.5t176 237t63 323.5q0 138 -68.5 217.5 t-205.5 79.5q-141 0 -253 -91.5t-170 -236t-58 -311.5zM555 1589q102 168 258 168q46 0 86 -15t62.5 -33t51 -33t54.5 -15q63 0 119 86l125 -88q-47 -82 -113.5 -125t-144.5 -43q-47 0 -87 15t-62 33t-50 33t-53 15q-64 0 -121 -88z" />
<glyph unicode="&#xd6;" horiz-adv-x="1411" d="M90 481q0 185 62.5 355t169.5 295t258 199.5t319 74.5q249 0 379.5 -131.5t130.5 -374.5q0 -195 -64.5 -367.5t-173 -293.5t-257 -191t-312.5 -70q-257 0 -384.5 131.5t-127.5 372.5zM373 526q0 -147 68 -227t198 -80q137 0 250 88.5t176 237t63 323.5q0 138 -68.5 217.5 t-205.5 79.5q-141 0 -253 -91.5t-170 -236t-58 -311.5zM584 1599q0 61 40.5 102.5t96.5 41.5t93.5 -38.5t37.5 -92.5q0 -60 -41 -99.5t-98 -39.5q-55 0 -92 36.5t-37 89.5zM1014 1599q0 61 40.5 102.5t96.5 41.5q55 0 92 -39t37 -92q0 -60 -40 -99.5t-97 -39.5 q-55 0 -92 36.5t-37 89.5z" />
<glyph unicode="&#xd7;" d="M59 297l381 319l-256 320l176 141l254 -315l373 315l131 -155l-377 -318l258 -321l-176 -142l-256 318l-377 -318z" />
<glyph unicode="&#xd8;" horiz-adv-x="1411" d="M90 481q0 186 61.5 356t167 295t256 199t320.5 74q69 0 113 -10l100 190l184 -65l-98 -185q215 -119 215 -436q0 -195 -64.5 -367.5t-173 -293.5t-257 -191t-312.5 -70q-66 0 -129 13l-106 -205l-187 70l107 198q-197 124 -197 428zM362 522q0 -132 68 -203l457 848 q-39 3 -96 -4q-126 -20 -225 -114t-151.5 -232.5t-52.5 -294.5zM596 219q56 -6 117 6q182 34 303 218t121 429q0 142 -76 209z" />
<glyph unicode="&#xd9;" horiz-adv-x="1366" d="M147 506l166 876h262l-172 -897q-28 -144 23.5 -215t196.5 -71q155 0 239.5 77t116.5 254l164 852h258l-168 -874q-102 -531 -647 -531q-538 0 -439 529zM563 1575l80 188l406 -153l-60 -144z" />
<glyph unicode="&#xda;" horiz-adv-x="1366" d="M147 506l166 876h262l-172 -897q-28 -144 23.5 -215t196.5 -71q155 0 239.5 77t116.5 254l164 852h258l-168 -874q-102 -531 -647 -531q-538 0 -439 529zM737 1610l437 153l36 -188l-444 -109z" />
<glyph unicode="&#xdb;" horiz-adv-x="1366" d="M147 506l166 876h262l-172 -897q-28 -144 23.5 -215t196.5 -71q155 0 239.5 77t116.5 254l164 852h258l-168 -874q-102 -531 -647 -531q-538 0 -439 529zM547 1591l354 178l311 -174l-71 -131l-258 123l-287 -123z" />
<glyph unicode="&#xdc;" horiz-adv-x="1366" d="M147 506l166 876h262l-172 -897q-28 -144 23.5 -215t196.5 -71q155 0 239.5 77t116.5 254l164 852h258l-168 -874q-102 -531 -647 -531q-538 0 -439 529zM532 1599q0 61 41 102.5t97 41.5t93.5 -38.5t37.5 -92.5q0 -60 -41 -99.5t-98 -39.5q-55 0 -92.5 36.5t-37.5 89.5z M963 1599q0 61 40.5 102.5t96.5 41.5q55 0 92 -39t37 -92q0 -60 -40 -99.5t-97 -39.5q-55 0 -92 36.5t-37 89.5z" />
<glyph unicode="&#xdd;" d="M180 1382h275l104 -397q34 -140 49 -229h4q38 71 158 256l238 370h288l-602 -893l-92 -489h-262l94 487zM627 1610l436 153l37 -188l-445 -109z" />
<glyph unicode="&#xde;" horiz-adv-x="1091" d="M53 0l262 1382h263l-37 -192q90 4 147 4q213 0 324.5 -93t111.5 -263q0 -119 -46.5 -225.5t-130 -186t-206 -126t-266.5 -46.5q-82 0 -113 4l-49 -258h-260zM406 479q47 -8 104 -8q153 0 245.5 94t92.5 228q0 85 -54.5 134.5t-168.5 49.5q-49 0 -127 -8z" />
<glyph unicode="&#xdf;" horiz-adv-x="1206" d="M-338 -494l59 211q42 -12 109 -12q91 0 138.5 55t76.5 203l199 1049q48 251 192.5 374t362.5 123q168 0 266 -72.5t98 -199.5q0 -67 -22.5 -122t-55.5 -88.5t-72.5 -67t-72.5 -59t-55.5 -61.5t-22.5 -77q0 -37 23 -75t55 -73.5t64.5 -74.5t55.5 -93t23 -114 q0 -69 -29.5 -132t-84.5 -112.5t-143.5 -78.5t-198.5 -29q-87 0 -176 14l45 219q76 -29 151 -29q78 0 121 33t43 92q0 40 -22 78.5t-53.5 72.5t-63.5 71.5t-54 90t-22 111.5q0 54 16.5 99.5t42.5 78.5t57.5 62t63.5 55t58 52t42.5 59t16.5 71q0 43 -33 70t-94 27 q-100 0 -167.5 -70t-94.5 -213l-203 -1063q-46 -249 -165.5 -360t-323.5 -111q-56 0 -150 16z" />
<glyph unicode="&#xe0;" horiz-adv-x="1110" d="M61 295q0 117 25 225t77.5 202.5t128 164t184.5 109.5t239 40q210 0 360 -30q-157 -824 -186 -1006h-254q25 111 96 324h-4q-187 -347 -426 -347q-240 0 -240 318zM326 344q0 -141 77 -141q68 0 148.5 93t139 219.5t79.5 236.5l14 65q-58 14 -114 14q-68 0 -126 -30.5 t-97.5 -80t-67 -113.5t-40.5 -130.5t-13 -132.5zM477 1374l127 170l332 -258l-105 -139z" />
<glyph unicode="&#xe1;" horiz-adv-x="1110" d="M61 295q0 117 25 225t77.5 202.5t128 164t184.5 109.5t239 40q210 0 360 -30q-157 -824 -186 -1006h-254q25 111 96 324h-4q-187 -347 -426 -347q-240 0 -240 318zM326 344q0 -141 77 -141q68 0 148.5 93t139 219.5t79.5 236.5l14 65q-58 14 -114 14q-68 0 -126 -30.5 t-97.5 -80t-67 -113.5t-40.5 -130.5t-13 -132.5zM582 1290l368 254l107 -178l-387 -219z" />
<glyph unicode="&#xe2;" horiz-adv-x="1110" d="M61 295q0 117 25 225t77.5 202.5t128 164t184.5 109.5t239 40q210 0 360 -30q-157 -824 -186 -1006h-254q25 111 96 324h-4q-187 -347 -426 -347q-240 0 -240 318zM326 344q0 -141 77 -141q68 0 148.5 93t139 219.5t79.5 236.5l14 65q-58 14 -114 14q-68 0 -126 -30.5 t-97.5 -80t-67 -113.5t-40.5 -130.5t-13 -132.5zM432 1266l356 278l259 -276l-115 -121l-178 166l-236 -166z" />
<glyph unicode="&#xe3;" horiz-adv-x="1110" d="M61 295q0 117 25 225t77.5 202.5t128 164t184.5 109.5t239 40q210 0 360 -30q-157 -824 -186 -1006h-254q25 111 96 324h-4q-187 -347 -426 -347q-240 0 -240 318zM326 344q0 -141 77 -141q68 0 148.5 93t139 219.5t79.5 236.5l14 65q-58 14 -114 14q-68 0 -126 -30.5 t-97.5 -80t-67 -113.5t-40.5 -130.5t-13 -132.5zM375 1294q94 183 254 183q44 0 82 -16t60 -35.5t49 -35.5t52 -16q66 0 119 92l121 -96q-45 -88 -112 -135t-144 -47q-45 0 -83 16t-59.5 35t-49 35t-52.5 16q-63 0 -116 -92z" />
<glyph unicode="&#xe4;" horiz-adv-x="1110" d="M61 295q0 117 25 225t77.5 202.5t128 164t184.5 109.5t239 40q210 0 360 -30q-157 -824 -186 -1006h-254q25 111 96 324h-4q-187 -347 -426 -347q-240 0 -240 318zM326 344q0 -141 77 -141q68 0 148.5 93t139 219.5t79.5 236.5l14 65q-58 14 -114 14q-68 0 -126 -30.5 t-97.5 -80t-67 -113.5t-40.5 -130.5t-13 -132.5zM385 1323q0 62 43.5 103.5t103.5 41.5q58 0 97 -39.5t39 -95.5q0 -62 -43.5 -104.5t-102.5 -42.5q-58 0 -97.5 40.5t-39.5 96.5zM799 1325q0 60 43.5 101.5t103.5 41.5q58 0 96.5 -39.5t38.5 -95.5q0 -62 -43 -104.5 t-102 -42.5q-58 0 -97.5 40.5t-39.5 98.5z" />
<glyph unicode="&#xe5;" horiz-adv-x="1110" d="M61 295q0 117 25 225t77.5 202.5t128 164t184.5 109.5t239 40q210 0 360 -30q-157 -824 -186 -1006h-254q25 111 96 324h-4q-187 -347 -426 -347q-240 0 -240 318zM326 344q0 -141 77 -141q68 0 148.5 93t139 219.5t79.5 236.5l14 65q-58 14 -114 14q-68 0 -126 -30.5 t-97.5 -80t-67 -113.5t-40.5 -130.5t-13 -132.5zM512 1354q0 114 81.5 188t190.5 74q106 0 177 -68.5t71 -169.5q0 -111 -81 -185.5t-191 -74.5q-106 0 -177 67.5t-71 168.5zM666 1362q0 -44 28.5 -74.5t71.5 -30.5q46 0 79.5 33t33.5 82q0 43 -28.5 74t-72.5 31 q-47 0 -79.5 -34.5t-32.5 -80.5z" />
<glyph unicode="&#xe6;" horiz-adv-x="1560" d="M31 219q0 363 641 383l12 53q20 89 -16 135t-142 46q-152 0 -297 -74v215q171 63 355 63q123 0 189.5 -32.5t100.5 -92.5q61 51 150 88t180 37q93 0 160.5 -21t104 -58t53 -79t16.5 -91q0 -82 -34 -144.5t-108.5 -111t-200 -76t-300.5 -33.5q-6 -41 -6 -90 q0 -87 40.5 -118.5t147.5 -31.5q145 0 297 60v-201q-171 -65 -381 -65q-146 0 -219.5 51t-101.5 149q-57 -88 -157 -144t-212 -56q-142 0 -207 67.5t-65 171.5zM283 264q0 -37 26.5 -61.5t69.5 -24.5q98 0 171 74.5t89 177.5q-85 -3 -146.5 -12t-110.5 -27.5t-74 -50 t-25 -76.5zM926 598q85 4 146 13t111 26.5t75.5 47t25.5 71.5q0 43 -29 67.5t-79 24.5q-90 0 -155 -71.5t-95 -178.5z" />
<glyph unicode="&#xe7;" horiz-adv-x="827" d="M63 332q0 146 42.5 274.5t118.5 224.5t190 151.5t250 55.5q101 0 200 -26l-59 -226q-70 31 -158 31q-62 0 -114 -26.5t-87 -69.5t-60 -99.5t-36.5 -115t-11.5 -117.5q0 -180 178 -180q101 0 189 37l-17 -223q-115 -43 -248 -43q-377 0 -377 352zM139 -479q61 62 89 112.5 t26.5 104.5t-37.5 115l223 65q108 -206 -92 -397h-209z" />
<glyph unicode="&#xe8;" horiz-adv-x="993" d="M66 324q0 156 45.5 290.5t123 227t183 144.5t223.5 52q91 0 157.5 -21t102.5 -57t53 -78t17 -91q0 -98 -50.5 -170.5t-141.5 -115t-202 -64t-247 -25.5q-6 -60 -6 -80q0 -87 39.5 -118.5t146.5 -31.5q143 0 295 60l4 -201q-174 -65 -383 -65q-189 0 -274.5 85.5 t-85.5 258.5zM358 590q181 6 270 46t89 120q0 43 -27.5 66.5t-77.5 23.5q-93 0 -158 -73t-96 -183zM410 1374l127 170l331 -258l-104 -139z" />
<glyph unicode="&#xe9;" horiz-adv-x="993" d="M66 324q0 156 45.5 290.5t123 227t183 144.5t223.5 52q91 0 157.5 -21t102.5 -57t53 -78t17 -91q0 -98 -50.5 -170.5t-141.5 -115t-202 -64t-247 -25.5q-6 -60 -6 -80q0 -87 39.5 -118.5t146.5 -31.5q143 0 295 60l4 -201q-174 -65 -383 -65q-189 0 -274.5 85.5 t-85.5 258.5zM358 590q181 6 270 46t89 120q0 43 -27.5 66.5t-77.5 23.5q-93 0 -158 -73t-96 -183zM496 1290l368 254l107 -178l-387 -219z" />
<glyph unicode="&#xea;" horiz-adv-x="993" d="M66 324q0 156 45.5 290.5t123 227t183 144.5t223.5 52q91 0 157.5 -21t102.5 -57t53 -78t17 -91q0 -98 -50.5 -170.5t-141.5 -115t-202 -64t-247 -25.5q-6 -60 -6 -80q0 -87 39.5 -118.5t146.5 -31.5q143 0 295 60l4 -201q-174 -65 -383 -65q-189 0 -274.5 85.5 t-85.5 258.5zM358 590q181 6 270 46t89 120q0 43 -27.5 66.5t-77.5 23.5q-93 0 -158 -73t-96 -183zM367 1266l356 278l258 -276l-115 -121l-178 166l-235 -166z" />
<glyph unicode="&#xeb;" horiz-adv-x="993" d="M66 324q0 156 45.5 290.5t123 227t183 144.5t223.5 52q91 0 157.5 -21t102.5 -57t53 -78t17 -91q0 -98 -50.5 -170.5t-141.5 -115t-202 -64t-247 -25.5q-6 -60 -6 -80q0 -87 39.5 -118.5t146.5 -31.5q143 0 295 60l4 -201q-174 -65 -383 -65q-189 0 -274.5 85.5 t-85.5 258.5zM342 1323q0 62 43.5 103.5t103.5 41.5q58 0 97 -39.5t39 -95.5q0 -62 -43.5 -104.5t-102.5 -42.5q-58 0 -97.5 40.5t-39.5 96.5zM358 590q181 6 270 46t89 120q0 43 -27.5 66.5t-77.5 23.5q-93 0 -158 -73t-96 -183zM756 1325q0 60 43.5 101.5t103.5 41.5 q58 0 96.5 -39.5t38.5 -95.5q0 -62 -43 -104.5t-102 -42.5q-58 0 -97.5 40.5t-39.5 98.5z" />
<glyph unicode="&#xec;" horiz-adv-x="536" d="M51 0l195 1018h256l-195 -1018h-256zM141 1374l127 170l332 -258l-104 -139z" />
<glyph unicode="&#xed;" horiz-adv-x="536" d="M51 0l195 1018h256l-195 -1018h-256zM207 1290l368 254l107 -178l-387 -219z" />
<glyph unicode="&#xee;" horiz-adv-x="536" d="M51 0l195 1018h256l-195 -1018h-256zM104 1266l357 278l258 -276l-115 -121l-178 166l-236 -166z" />
<glyph unicode="&#xef;" horiz-adv-x="536" d="M51 0l195 1018h256l-195 -1018h-256zM66 1323q0 62 43.5 103.5t103.5 41.5q58 0 96.5 -39.5t38.5 -95.5q0 -62 -43 -104.5t-102 -42.5q-58 0 -97.5 40.5t-39.5 96.5zM479 1325q0 60 44 101.5t104 41.5q58 0 96.5 -39.5t38.5 -95.5q0 -62 -43.5 -104.5t-102.5 -42.5 q-58 0 -97.5 40.5t-39.5 98.5z" />
<glyph unicode="&#xf0;" horiz-adv-x="1120" d="M61 356q0 143 47 269.5t126 216t187.5 141t227.5 51.5q122 0 160 -63q-14 46 -33 84q-40 88 -78 141l-209 -88l-77 129l186 78q-32 34 -123 112l250 109q69 -62 117 -119l200 84l80 -129l-190 -80q147 -233 147 -514q0 -186 -50 -339t-134.5 -252t-193.5 -153t-230 -54 q-196 0 -303 92t-107 284zM332 408q0 -98 44 -151.5t122 -53.5q68 0 122.5 33t87 82t54.5 110.5t30.5 113.5t8.5 95q0 82 -42 131t-122 49q-91 0 -162 -59t-107 -151.5t-36 -198.5z" />
<glyph unicode="&#xf1;" horiz-adv-x="1144" d="M51 0l103 532q51 265 88 486h252q-21 -106 -93 -316h5q77 151 184.5 244.5t243.5 93.5q142 0 195 -91t24 -247l-133 -702h-258l122 639q18 94 3.5 135t-64.5 41q-65 0 -144 -89.5t-139.5 -219t-83.5 -248.5l-49 -258h-256zM346 1294q94 183 254 183q44 0 82.5 -16 t60.5 -35.5t49 -35.5t52 -16q66 0 119 92l120 -96q-45 -88 -112 -135t-144 -47q-45 0 -83 16t-59.5 35t-48.5 35t-52 16q-64 0 -117 -92z" />
<glyph unicode="&#xf2;" horiz-adv-x="1116" d="M63 344q0 155 50 287t134.5 220.5t195.5 137.5t233 49q208 0 303.5 -99t95.5 -271q0 -153 -51 -284t-136.5 -218.5t-196 -136.5t-230.5 -49q-207 0 -302.5 93t-95.5 271zM332 385q0 -180 164 -180q133 0 221 127.5t88 302.5q0 90 -40.5 135t-127.5 45q-91 0 -162.5 -66 t-107 -163t-35.5 -201zM436 1374l127 170l332 -258l-104 -139z" />
<glyph unicode="&#xf3;" horiz-adv-x="1116" d="M63 344q0 155 50 287t134.5 220.5t195.5 137.5t233 49q208 0 303.5 -99t95.5 -271q0 -153 -51 -284t-136.5 -218.5t-196 -136.5t-230.5 -49q-207 0 -302.5 93t-95.5 271zM332 385q0 -180 164 -180q133 0 221 127.5t88 302.5q0 90 -40.5 135t-127.5 45q-91 0 -162.5 -66 t-107 -163t-35.5 -201zM547 1290l368 254l107 -178l-387 -219z" />
<glyph unicode="&#xf4;" horiz-adv-x="1116" d="M63 344q0 155 50 287t134.5 220.5t195.5 137.5t233 49q208 0 303.5 -99t95.5 -271q0 -153 -51 -284t-136.5 -218.5t-196 -136.5t-230.5 -49q-207 0 -302.5 93t-95.5 271zM332 385q0 -180 164 -180q133 0 221 127.5t88 302.5q0 90 -40.5 135t-127.5 45q-91 0 -162.5 -66 t-107 -163t-35.5 -201zM420 1266l356 278l258 -276l-114 -121l-179 166l-235 -166z" />
<glyph unicode="&#xf5;" horiz-adv-x="1116" d="M63 344q0 155 50 287t134.5 220.5t195.5 137.5t233 49q208 0 303.5 -99t95.5 -271q0 -153 -51 -284t-136.5 -218.5t-196 -136.5t-230.5 -49q-207 0 -302.5 93t-95.5 271zM332 385q0 -180 164 -180q133 0 221 127.5t88 302.5q0 90 -40.5 135t-127.5 45q-91 0 -162.5 -66 t-107 -163t-35.5 -201zM352 1294q94 183 254 183q44 0 82.5 -16t60.5 -35.5t49 -35.5t52 -16q66 0 119 92l121 -96q-45 -88 -112 -135t-144 -47q-45 0 -83 16t-59.5 35t-49 35t-52.5 16q-64 0 -117 -92z" />
<glyph unicode="&#xf6;" horiz-adv-x="1116" d="M63 344q0 155 50 287t134.5 220.5t195.5 137.5t233 49q208 0 303.5 -99t95.5 -271q0 -153 -51 -284t-136.5 -218.5t-196 -136.5t-230.5 -49q-207 0 -302.5 93t-95.5 271zM332 385q0 -180 164 -180q133 0 221 127.5t88 302.5q0 90 -40.5 135t-127.5 45q-91 0 -162.5 -66 t-107 -163t-35.5 -201zM377 1323q0 62 43.5 103.5t103.5 41.5q58 0 96.5 -39.5t38.5 -95.5q0 -62 -43 -104.5t-102 -42.5q-58 0 -97.5 40.5t-39.5 96.5zM791 1325q0 60 43.5 101.5t103.5 41.5q58 0 96.5 -39.5t38.5 -95.5q0 -62 -43 -104.5t-102 -42.5q-58 0 -97.5 40.5 t-39.5 98.5z" />
<glyph unicode="&#xf7;" d="M86 500l43 219h965l-41 -219h-967zM350 193q0 70 48.5 117.5t115.5 47.5q65 0 109.5 -45.5t44.5 -107.5q0 -70 -48.5 -118t-115.5 -48q-65 0 -109.5 45.5t-44.5 108.5zM508 1016q0 68 49 117t115 49q65 0 110 -46.5t45 -109.5q0 -70 -48.5 -118t-116.5 -48 q-65 0 -109.5 46t-44.5 110z" />
<glyph unicode="&#xf8;" horiz-adv-x="1116" d="M63 344q0 198 77.5 356.5t218 248t317.5 89.5q48 0 92 -6l119 211l139 -65l-111 -193q160 -86 160 -317q0 -153 -51 -284t-136 -218.5t-195.5 -136.5t-229.5 -49q-56 0 -111 10l-116 -207l-142 67l109 191q-140 86 -140 303zM307 393q0 -77 33 -127l322 568q-31 3 -62 0 q-80 -8 -148 -71.5t-106.5 -162.5t-38.5 -207zM459 188q38 -7 76 -4q85 12 154.5 83.5t105.5 170.5t36 201q0 77 -45 131z" />
<glyph unicode="&#xf9;" horiz-adv-x="1142" d="M111 315l135 703h256l-123 -639q-17 -94 -3 -135t64 -41q65 0 144 89.5t139.5 219t83.5 248.5l49 258h256l-102 -533q-2 -9 -88 -485h-250q17 102 90 315h-4q-77 -151 -184.5 -244.5t-243.5 -93.5q-142 0 -195 91t-24 247zM412 1374l127 170l331 -258l-104 -139z" />
<glyph unicode="&#xfa;" horiz-adv-x="1142" d="M111 315l135 703h256l-123 -639q-17 -94 -3 -135t64 -41q65 0 144 89.5t139.5 219t83.5 248.5l49 258h256l-102 -533q-2 -9 -88 -485h-250q17 102 90 315h-4q-77 -151 -184.5 -244.5t-243.5 -93.5q-142 0 -195 91t-24 247zM555 1290l369 254l106 -178l-387 -219z" />
<glyph unicode="&#xfb;" horiz-adv-x="1142" d="M111 315l135 703h256l-123 -639q-17 -94 -3 -135t64 -41q65 0 144 89.5t139.5 219t83.5 248.5l49 258h256l-102 -533q-2 -9 -88 -485h-250q17 102 90 315h-4q-77 -151 -184.5 -244.5t-243.5 -93.5q-142 0 -195 91t-24 247zM410 1266l356 278l258 -276l-115 -121l-178 166 l-235 -166z" />
<glyph unicode="&#xfc;" horiz-adv-x="1142" d="M111 315l135 703h256l-123 -639q-17 -94 -3 -135t64 -41q65 0 144 89.5t139.5 219t83.5 248.5l49 258h256l-102 -533q-2 -9 -88 -485h-250q17 102 90 315h-4q-77 -151 -184.5 -244.5t-243.5 -93.5q-142 0 -195 91t-24 247zM369 1323q0 62 43.5 103.5t103.5 41.5 q58 0 96.5 -39.5t38.5 -95.5q0 -62 -43 -104.5t-102 -42.5q-58 0 -97.5 40.5t-39.5 96.5zM782 1325q0 60 44 101.5t104 41.5q58 0 96.5 -39.5t38.5 -95.5q0 -62 -43 -104.5t-102 -42.5q-58 0 -98 41t-40 98z" />
<glyph unicode="&#xfd;" horiz-adv-x="1048" d="M-197 -494l43 226q59 -21 125 -21q107 0 191 84q94 94 94 262q0 392 -160 961h289q45 -174 73.5 -372.5t28.5 -354.5q0 -41 -10 -86h4q192 356 389 856l244 -70q-218 -505 -400.5 -816t-365.5 -494q-194 -191 -393 -191q-83 0 -152 16zM489 1290l369 254l107 -178 l-387 -219z" />
<glyph unicode="&#xfe;" horiz-adv-x="1110" d="M-43 -494l381 1989h260l-66 -338q-24 -123 -51 -220.5t-78 -229.5l7 -2q80 154 187.5 244.5t236.5 90.5q118 0 176.5 -77.5t58.5 -239.5q0 -117 -24.5 -225t-77 -202.5t-128.5 -164t-184.5 -109.5t-238.5 -40q-54 0 -111 8l-90 -484h-258zM348 205q63 -19 115 -19 q83 0 151 46t108 119t61.5 156.5t21.5 166.5q0 141 -78 141q-68 0 -148.5 -93t-139 -218.5t-79.5 -233.5z" />
<glyph unicode="&#xff;" horiz-adv-x="1048" d="M-197 -494l43 226q59 -21 125 -21q107 0 191 84q94 94 94 262q0 392 -160 961h289q45 -174 73.5 -372.5t28.5 -354.5q0 -41 -10 -86h4q192 356 389 856l244 -70q-218 -505 -400.5 -816t-365.5 -494q-194 -191 -393 -191q-83 0 -152 16zM303 1323q0 62 44 103.5t104 41.5 q58 0 96.5 -39.5t38.5 -95.5q0 -62 -43.5 -104.5t-102.5 -42.5q-58 0 -97.5 40.5t-39.5 96.5zM717 1325q0 60 43.5 101.5t103.5 41.5q58 0 96.5 -39.5t38.5 -95.5q0 -62 -43 -104.5t-102 -42.5q-58 0 -97.5 40.5t-39.5 98.5z" />
<glyph unicode="&#x152;" horiz-adv-x="1726" d="M90 481q0 185 62.5 355t169.5 295t258 199.5t319 74.5q107 0 207 -23h684l-43 -223h-475l-64 -340h451l-41 -217h-451l-71 -373h475l-45 -229h-711q-115 -23 -213 -23q-257 0 -384.5 131.5t-127.5 372.5zM373 526q0 -148 67 -227.5t199 -79.5q104 0 201 33l166 887 q-76 26 -152 26q-141 0 -253 -91.5t-170 -236t-58 -311.5z" />
<glyph unicode="&#x153;" horiz-adv-x="1695" d="M63 344q0 155 50 287t134.5 220.5t195.5 137.5t233 49q235 0 321 -153q143 153 349 153q91 0 157.5 -21t102.5 -57t52.5 -78t16.5 -91q0 -171 -161.5 -268.5t-479.5 -106.5q-1 -9 -2.5 -25t-2.5 -29t-1 -26q0 -88 41 -119t145 -31q146 0 295 60l4 -201q-174 -65 -383 -65 q-123 0 -196.5 37t-102.5 118q-72 -74 -168 -114.5t-200 -40.5q-208 0 -304 93t-96 271zM332 385q0 -180 164 -180q133 0 221 127.5t88 302.5q0 90 -40.5 135t-127.5 45q-91 0 -162.5 -66t-107 -163t-35.5 -201zM1063 590q180 6 269 46t89 120q0 43 -27.5 66.5t-76.5 23.5 q-93 0 -158 -73t-96 -183z" />
<glyph unicode="&#x178;" d="M180 1382h275l104 -397q34 -140 49 -229h4q38 71 158 256l238 370h288l-602 -893l-92 -489h-262l94 487zM414 1599q0 61 40.5 102.5t96.5 41.5t93.5 -38.5t37.5 -92.5q0 -60 -41 -99.5t-98 -39.5q-55 0 -92 36.5t-37 89.5zM844 1599q0 61 40.5 102.5t96.5 41.5 q55 0 92 -39t37 -92q0 -60 -40 -99.5t-97 -39.5q-55 0 -92 36.5t-37 89.5z" />
<glyph unicode="&#x2c6;" horiz-adv-x="870" d="M160 1266l356 278l258 -276l-115 -121l-178 166l-235 -166z" />
<glyph unicode="&#x2dc;" horiz-adv-x="942" d="M147 1294q94 183 254 183q44 0 82.5 -16t60.5 -35.5t49 -35.5t52 -16q66 0 119 92l121 -96q-45 -88 -112 -135t-144 -47q-45 0 -83 16t-59.5 35t-49 35t-52.5 16q-64 0 -117 -92z" />
<glyph unicode="&#x2000;" horiz-adv-x="957" />
<glyph unicode="&#x2001;" horiz-adv-x="1915" />
<glyph unicode="&#x2002;" horiz-adv-x="957" />
<glyph unicode="&#x2003;" horiz-adv-x="1915" />
<glyph unicode="&#x2004;" horiz-adv-x="638" />
<glyph unicode="&#x2005;" horiz-adv-x="478" />
<glyph unicode="&#x2006;" horiz-adv-x="319" />
<glyph unicode="&#x2007;" horiz-adv-x="319" />
<glyph unicode="&#x2008;" horiz-adv-x="239" />
<glyph unicode="&#x2009;" horiz-adv-x="383" />
<glyph unicode="&#x200a;" horiz-adv-x="106" />
<glyph unicode="&#x2010;" horiz-adv-x="675" d="M90 463l41 211h496l-41 -211h-496z" />
<glyph unicode="&#x2011;" horiz-adv-x="675" d="M90 463l41 211h496l-41 -211h-496z" />
<glyph unicode="&#x2012;" horiz-adv-x="675" d="M90 463l41 211h496l-41 -211h-496z" />
<glyph unicode="&#x2013;" d="M6 496l43 227h1127l-43 -227h-1127z" />
<glyph unicode="&#x2014;" horiz-adv-x="2048" d="M231 496l45 227h1594l-43 -227h-1596z" />
<glyph unicode="&#x2018;" horiz-adv-x="534" d="M226 1167q63 191 320 372l5 3l94 -110q-81 -67 -121 -122.5t-41 -99.5t25 -86q22 -35 22 -77.5t-18 -78.5t-55.5 -60.5t-85.5 -24.5q-84 0 -131 70q-57 86 -14 214z" />
<glyph unicode="&#x2019;" horiz-adv-x="534" d="M166 971q82 68 121 123t40.5 99.5t-24.5 86.5q-22 35 -22 77.5t18 78t55.5 60t85.5 24.5q84 0 131 -69q57 -86 15 -214q-62 -189 -317 -369q-4 -3 -9 -6z" />
<glyph unicode="&#x201a;" horiz-adv-x="534" d="M-66 -244q82 67 121.5 122t41 99.5t-24.5 85.5q-22 35 -22 78t18 79t55.5 60.5t85.5 24.5q84 0 131 -70q56 -86 13 -214q-63 -192 -321 -373q-1 -1 -3 -2z" />
<glyph unicode="&#x201c;" horiz-adv-x="972" d="M225 1172q63 189 318 369q4 2 8 5l94 -108q-82 -68 -121.5 -123.5t-40.5 -100t25 -86.5q22 -35 22 -77t-18 -78t-55.5 -60t-85.5 -24q-84 0 -131 69q-57 86 -15 214zM679 1173q64 190 320 370l5 3l94 -108q-82 -68 -121.5 -123.5t-40.5 -100t25 -86.5q22 -35 22 -77 t-18.5 -78t-56 -60t-85.5 -24q-84 0 -130 69q-57 86 -14 215z" />
<glyph unicode="&#x201d;" horiz-adv-x="972" d="M166 981q81 67 121 122t41 99.5t-25 85.5q-22 35 -22 78t18 79t55.5 60.5t85.5 24.5q84 0 131 -69q57 -86 15 -214q-62 -189 -317 -369q-4 -3 -9 -6zM618 981q82 67 121.5 122t41 99.5t-24.5 85.5q-22 35 -22 78t18 79t55.5 60.5t85.5 24.5q84 0 130 -69q57 -86 15 -215 q-63 -190 -319 -370l-6 -4z" />
<glyph unicode="&#x201e;" horiz-adv-x="972" d="M-66 -244q82 67 121.5 122t41 99.5t-24.5 85.5q-22 35 -22 78t18 79t55.5 60.5t85.5 24.5q84 0 131 -70q56 -86 13 -214q-63 -192 -321 -373q-1 -1 -3 -2zM387 -244q81 67 121 122t41 99.5t-25 85.5q-22 35 -22 78t18.5 79t56 60.5t85.5 24.5q84 0 131 -70 q57 -86 14 -214q-64 -191 -321 -372l-5 -3z" />
<glyph unicode="&#x2022;" horiz-adv-x="866" d="M160 600q0 129 89.5 220t215.5 91q125 0 211 -86.5t86 -208.5q0 -129 -90 -220t-215 -91q-126 0 -211.5 86t-85.5 209z" />
<glyph unicode="&#x202f;" horiz-adv-x="383" />
<glyph unicode="&#x2039;" horiz-adv-x="626" d="M109 612l299 385l186 -100l-238 -297l131 -301l-211 -94z" />
<glyph unicode="&#x203a;" horiz-adv-x="626" d="M90 305l238 297l-131 301l213 94l165 -407l-299 -385z" />
<glyph unicode="&#x205f;" horiz-adv-x="478" />
<glyph unicode="&#x20ac;" d="M16 430l31 162h150q7 77 28 151h-149l30 162h175q40 96 97 174.5t136.5 141.5t187 98t234.5 35q144 0 272 -54l-88 -208q-98 55 -225 55q-220 0 -338 -242h334l-31 -162h-368q-18 -62 -29 -151h368l-28 -162h-348q2 -118 51.5 -177.5t167.5 -62.5q134 -8 282 54l35 -201 q-163 -66 -352 -66q-239 0 -349 114.5t-108 338.5h-166z" />
<glyph unicode="&#x2122;" horiz-adv-x="1384" d="M203 1225l30 157h449l-29 -157h-131l-80 -418h-182l80 418h-137zM592 807l196 575h220l20 -252l2 -83l27 79l119 256h219l-17 -575h-190l12 248l6 96l-35 -88l-114 -256h-170l-17 262l-2 82l-18 -74l-86 -270h-172z" />
<glyph unicode="&#x25fc;" horiz-adv-x="1075" d="M0 0v1075h1075v-1075h-1075z" />
</font>
</defs>
</svg>
