<?xml version="1.0" standalone="no"?>
<!DOCTYPE svg PUBLIC "-//W3C//DTD SVG 1.1//EN" "http://www.w3.org/Graphics/SVG/1.1/DTD/svg11.dtd" >
<svg xmlns="http://www.w3.org/2000/svg">
<metadata></metadata>
<defs>
<font id="thesansbw5_plain_italic" horiz-adv-x="1126" >
<font-face units-per-em="2048" ascent="1516" descent="-532" />
<missing-glyph horiz-adv-x="446" />
<glyph unicode="&#x2e;&#x2e;&#x2e;" horiz-adv-x="1335" d="M47 98q0 56 37 93.5t90 37.5q50 0 82.5 -35t32.5 -83q0 -55 -37.5 -92t-89.5 -37q-50 0 -82.5 34.5t-32.5 81.5zM477 98q0 56 37.5 93.5t89.5 37.5q50 0 83.5 -35t33.5 -83q0 -55 -37.5 -92t-89.5 -37q-50 0 -83.5 34.5t-33.5 81.5zM909 98q0 56 37.5 93.5t89.5 37.5 q50 0 82.5 -35t32.5 -83q0 -55 -37 -92t-90 -37q-50 0 -82.5 34.5t-32.5 81.5z" />
<glyph unicode="&#xfb01;" horiz-adv-x="1177" d="M-350 -502l45 156q71 -21 143 -21q112 0 176 69.5t97 242.5l176 929h-205l29 144h206l7 45q69 444 540 444q148 0 283 -37l-64 -153q-109 39 -231 39q-293 0 -344 -273l-12 -65h614l-195 -1018h-180l166 874h-434l-174 -925q-46 -246 -161.5 -357.5t-305.5 -111.5 q-94 0 -176 18z" />
<glyph unicode="&#xfb02;" horiz-adv-x="1175" d="M-350 -502l45 156q71 -21 143 -21q112 0 176 69.5t97 242.5l176 929h-205l29 144h204l21 110q75 379 508 379q179 0 352 -30l-281 -1477h-180l256 1343q-85 15 -166 15q-135 0 -209.5 -57t-99.5 -181l-20 -102h270l-31 -144h-268l-174 -925q-46 -246 -161.5 -357.5 t-305.5 -111.5q-94 0 -176 18z" />
<glyph unicode="&#xfb03;" horiz-adv-x="1792" d="M-350 -502l45 156q71 -21 143 -21q112 0 176 69.5t97 242.5l176 929h-205l29 144h204l11 63q39 206 167.5 313t346.5 107q171 0 325 -65q122 73 314 73q140 0 282 -39l-63 -151q-119 39 -232 39q-147 0 -232.5 -69t-113.5 -214l-10 -57h614l-194 -1018h-180l166 874h-433 l-176 -931q-48 -245 -178.5 -351t-343.5 -106q-154 0 -307 61q-98 -67 -252 -67q-94 0 -176 18zM195 -315q96 -47 215 -47q132 0 207.5 69t105.5 225l178 942h-434l-174 -925q-35 -171 -98 -264zM496 1018h434l8 51q25 146 100 236q-99 47 -215 47q-135 0 -214 -69 t-101 -198z" />
<glyph unicode="&#xfb04;" horiz-adv-x="1792" d="M-350 -502l45 156q71 -21 143 -21q112 0 176 69.5t97 242.5l176 929h-205l29 144h204l13 63q37 206 165.5 313t346.5 107q168 0 315 -61q123 69 305 69q175 0 352 -30l-282 -1479h-180l256 1343q-97 17 -166 17q-135 0 -210 -58t-100 -182l-18 -102h277l-31 -144h-275 l-176 -931q-48 -245 -178.5 -351t-343.5 -106q-154 0 -307 61q-98 -67 -252 -67q-94 0 -176 18zM195 -315q96 -47 215 -47q132 0 207.5 69t105.5 225l180 942h-434l-176 -925q-35 -171 -98 -264zM496 1018h434l22 110q21 111 76 181q-94 43 -203 43q-271 0 -317 -267z" />
<glyph horiz-adv-x="0" />
<glyph horiz-adv-x="0" />
<glyph horiz-adv-x="682" />
<glyph unicode="&#xd;" horiz-adv-x="1024" />
<glyph unicode=" "  horiz-adv-x="446" />
<glyph unicode="&#x09;" horiz-adv-x="446" />
<glyph unicode="&#xa0;" horiz-adv-x="446" />
<glyph unicode="!" horiz-adv-x="643" d="M147 98q0 53 37 89t90 36q51 0 84 -34.5t33 -82.5q0 -54 -36 -89t-89 -35q-52 0 -85.5 34t-33.5 82zM240 344l176 1096h213l-238 -1096h-151z" />
<glyph unicode="&#x22;" horiz-adv-x="733" d="M225 961l60 471h190l-119 -471h-131zM559 961l62 471h190l-119 -471h-133z" />
<glyph unicode="#" d="M41 373l25 127h192l102 344h-180l25 127h192l107 360h139l-104 -360h299l104 360h141l-106 -360h178l-25 -127h-190l-102 -344h178l-25 -127h-190l-113 -373h-139l110 373h-299l-110 -373h-141l112 373h-180zM399 500h299l101 344h-299z" />
<glyph unicode="$" d="M133 63l37 173q44 -18 117 -33t143 -15q132 0 213.5 62t81.5 145q0 51 -25.5 91.5t-66 67.5t-90 52t-98.5 53t-89.5 62t-66 87.5t-25.5 121.5q0 139 109 242.5t284 125.5l37 197h140l-37 -188q91 -2 202 -25l-34 -162q-110 35 -230 35q-131 0 -204.5 -55t-73.5 -137 q0 -46 26 -83t67 -62.5t90.5 -50.5t99.5 -53.5t91 -64t67 -90t26 -123.5q0 -142 -114.5 -255.5t-297.5 -139.5l-41 -215h-137l39 207q-120 0 -240 30z" />
<glyph unicode="%" horiz-adv-x="1505" d="M109 47l1251 1323l100 -90l-1251 -1323zM180 936q0 95 32 175t84.5 131.5t116.5 80.5t130 29q118 0 179.5 -58.5t61.5 -165.5q0 -96 -31.5 -176.5t-83.5 -132t-116 -80t-131 -28.5q-120 0 -181 58.5t-61 166.5zM330 952q0 -60 25.5 -89t80.5 -29q83 0 142 79t59 197 q0 117 -109 117q-83 0 -140.5 -79t-57.5 -196zM791 205q0 95 32 175.5t84 132t116 80t130 28.5q119 0 180.5 -58t61.5 -166q0 -95 -32 -175.5t-84 -132.5t-116 -80.5t-131 -28.5q-119 0 -180 59t-61 166zM940 223q0 -62 26 -90.5t83 -28.5q81 0 139.5 79t58.5 198 q0 59 -26 88t-82 29q-81 0 -140 -79t-59 -196z" />
<glyph unicode="&#x26;" horiz-adv-x="1595" d="M86 313q0 70 22.5 135.5t55 115.5t86 102.5t99 88t110.5 81.5q-123 197 -123 313q0 147 112 252.5t287 105.5q150 0 223.5 -65.5t73.5 -175.5q0 -55 -19 -107.5t-47.5 -94t-77 -88t-90.5 -79t-106 -78.5q132 -182 363 -413q87 91 149.5 225t83.5 287h182 q-26 -182 -103.5 -342t-190.5 -279q130 -124 241 -207l-127 -129q-130 102 -250 213q-123 -95 -269 -144.5t-296 -49.5q-194 0 -291.5 94.5t-97.5 238.5zM279 352q0 -93 58.5 -154t178.5 -61q218 0 404 148q-251 259 -373 430q-62 -44 -103.5 -79.5t-82.5 -81t-61.5 -96.5 t-20.5 -106zM520 1169q0 -85 90 -229q60 42 92 67.5t71.5 65t57 80.5t17.5 88q0 57 -33.5 91t-97.5 34q-89 0 -143 -56t-54 -141z" />
<glyph unicode="'" horiz-adv-x="399" d="M225 961l60 471h190l-119 -471h-131z" />
<glyph unicode="(" horiz-adv-x="608" d="M123 264q0 338 136.5 687t383.5 651l125 -68q-202 -253 -334.5 -598t-132.5 -660q0 -373 107 -638l-144 -66q-141 327 -141 692z" />
<glyph unicode=")" horiz-adv-x="608" d="M-113 -360q202 254 335.5 598.5t133.5 658.5q0 369 -108 639l145 66q139 -329 139 -693q0 -339 -136.5 -687.5t-383.5 -649.5z" />
<glyph unicode="*" horiz-adv-x="749" d="M195 1110l223 84l-187 104l84 111l160 -141l25 233l137 -18l-70 -217l201 127l51 -125l-225 -84l186 -105l-86 -112l-159 143l-25 -233l-137 18l67 217l-194 -127z" />
<glyph unicode="+" d="M94 532l29 154h389l78 410h174l-78 -410h391l-30 -154h-392l-77 -411h-175l78 411h-387z" />
<glyph unicode="," horiz-adv-x="458" d="M-70 -236q76 65 115 120t41.5 96.5t-16.5 78.5q-19 38 -14 76.5t37 67t77 28.5q71 0 103 -62q42 -80 -14 -200q-68 -145 -261 -284z" />
<glyph unicode="-" horiz-adv-x="671" d="M100 512l29 152h481l-30 -152h-480z" />
<glyph unicode="." horiz-adv-x="462" d="M45 104q0 55 38 93.5t91 38.5q51 0 86 -36.5t35 -84.5q0 -57 -37.5 -95t-91.5 -38q-51 0 -86 36t-35 86z" />
<glyph unicode="/" horiz-adv-x="878" d="M-170 -330l1065 1880h180l-1063 -1880h-182z" />
<glyph unicode="0" d="M100 377q0 81 10.5 169t34 183.5t58 184.5t86 169t114.5 139.5t147.5 94.5t180.5 35q361 0 361 -398q0 -81 -10.5 -169t-33.5 -183.5t-57.5 -184t-86 -169t-114 -139.5t-147 -94t-180.5 -35q-363 0 -363 397zM297 393q0 -129 45 -192.5t150 -63.5q71 0 133 43.5 t104.5 115t76 158t53 178.5t29 170t9.5 138q0 129 -44 192.5t-148 63.5q-85 0 -156.5 -62t-116.5 -155.5t-77 -206t-45 -209.5t-13 -170z" />
<glyph unicode="1" d="M59 0l31 166h356l187 977l-350 -127l-2 172l428 143h151l-221 -1165h313l-30 -166h-863z" />
<glyph unicode="2" d="M25 0l28 152l373 305q166 135 253.5 227t119.5 160.5t32 148.5q0 87 -55.5 140t-161.5 53q-83 0 -169.5 -30.5t-151.5 -74.5l-27 162q195 107 402 107q180 0 275 -89.5t95 -228.5q0 -71 -17 -132t-62 -136t-131.5 -162t-219.5 -192l-293 -236v-2q164 4 420 4h197 l-33 -176h-874z" />
<glyph unicode="3" d="M72 12l41 166q103 -41 235 -41q103 0 183.5 26t127.5 69.5t71 94.5t24 105q0 88 -72.5 138.5t-210.5 50.5q-112 0 -211 -11l29 148h45q110 0 198.5 16.5t146 44.5t95.5 65.5t54 78t16 84.5q0 70 -55 110.5t-156 40.5q-145 0 -307 -76l-4 160q183 70 352 70 q183 0 276.5 -73.5t93.5 -199.5q0 -127 -85 -223.5t-228 -134.5l-2 -2q110 -15 169.5 -85t59.5 -177q0 -64 -21.5 -128t-71 -127.5t-121.5 -112t-183 -79t-246 -30.5q-138 0 -243 32z" />
<glyph unicode="4" d="M27 307l14 152l729 872h252l-164 -856h221l-32 -168h-222l-57 -307h-182l57 307h-616zM240 469q185 6 438 6l129 666h-2z" />
<glyph unicode="5" d="M82 6l33 172q112 -39 239 -39q186 0 298 92t112 238q0 193 -309 193q-137 0 -224 -17l131 686h721l-34 -176h-547l-68 -348q74 4 111 4q209 0 315.5 -86t106.5 -225q0 -107 -47 -202.5t-129.5 -165t-201.5 -110t-257 -40.5q-151 0 -250 24z" />
<glyph unicode="6" d="M102 379q0 66 11 144.5t39 173.5t70 185t109.5 176t152 150t203.5 103t257 39q69 0 125 -9l-29 -159q-65 10 -131 10q-383 0 -544 -420q-17 -35 -41 -106h2q57 81 152.5 126.5t199.5 45.5q172 0 263 -86.5t91 -229.5q0 -151 -72 -275t-199.5 -195.5t-283.5 -71.5 q-182 0 -278.5 103t-96.5 296zM291 358q0 -105 57 -166t168 -61q135 0 229.5 101.5t94.5 252.5q0 93 -55.5 146t-163.5 53q-97 0 -174 -48t-116.5 -122t-39.5 -156z" />
<glyph unicode="7" d="M193 0q367 657 731 1155q-94 -4 -490 -4h-194l34 180h900l-31 -160q-406 -561 -729 -1171h-221z" />
<glyph unicode="8" d="M74 260q0 134 90.5 233.5t265.5 184.5q-90 51 -141 113.5t-51 152.5q0 107 62 200.5t174.5 150.5t250.5 57q174 0 268 -72.5t94 -196.5q0 -129 -77.5 -217.5t-245.5 -175.5q50 -28 85.5 -54t70 -61.5t52 -80t17.5 -97.5q0 -124 -75.5 -221t-193 -146.5t-251.5 -49.5 q-188 0 -291.5 74.5t-103.5 205.5zM268 287q0 -70 59.5 -113t168.5 -43q78 0 144.5 26t110.5 82.5t44 133.5q0 41 -16 75t-50.5 62t-66 46.5t-82.5 43.5q-179 -84 -245.5 -159t-66.5 -154zM428 973q0 -64 48 -109.5t140 -95.5q156 77 217.5 140t61.5 147q0 70 -52.5 109.5 t-142.5 39.5q-123 0 -197.5 -69t-74.5 -162z" />
<glyph unicode="9" d="M72 -4l30 166q86 -21 172 -21q196 0 330.5 103.5t206.5 298.5q24 65 33 86h-2q-63 -66 -149 -104t-185 -38q-163 0 -254.5 85t-91.5 237q0 102 38.5 199t106.5 173.5t172 123.5t226 47q179 0 279.5 -96t100.5 -293q0 -61 -9 -134t-34 -170t-64 -188.5t-105 -181.5 t-150 -157t-207 -108.5t-268 -41.5q-105 0 -176 14zM352 846q0 -97 53.5 -149t153.5 -52q138 0 236 96t98 234q0 100 -56.5 162.5t-160.5 62.5q-94 0 -169.5 -52t-115 -132.5t-39.5 -169.5z" />
<glyph unicode=":" horiz-adv-x="583" d="M125 104q0 55 38 93.5t91 38.5t89 -36.5t36 -86.5q0 -55 -37.5 -93t-91.5 -38q-52 0 -88.5 36t-36.5 86zM240 705q0 55 38 93t91 38t89 -36.5t36 -88.5q0 -55 -37.5 -92t-91.5 -37q-52 0 -88.5 36t-36.5 87z" />
<glyph unicode=";" horiz-adv-x="583" d="M16 -236q76 65 115 120t41.5 96.5t-16.5 78.5q-19 38 -14 76.5t36.5 67t75.5 28.5q71 0 105 -62q42 -80 -13 -199q-68 -146 -262 -285zM240 705q0 55 38 93t91 38t89 -36.5t36 -88.5q0 -55 -37.5 -92t-91.5 -37q-52 0 -88.5 36t-36.5 87z" />
<glyph unicode="&#x3c;" d="M172 633l741 567l107 -127l-612 -455l448 -460l-133 -119z" />
<glyph unicode="=" d="M88 358l31 152h897l-29 -152h-899zM156 707l28 153h897l-26 -153h-899z" />
<glyph unicode="&#x3e;" d="M156 166l610 455l-447 460l134 119l551 -594l-742 -567z" />
<glyph unicode="?" horiz-adv-x="894" d="M190 98q0 53 37 89t90 36q51 0 84 -34.5t33 -82.5q0 -54 -36 -89t-89 -35q-52 0 -85.5 34t-33.5 82zM266 344q-12 87 3.5 161t50.5 125.5t79.5 96.5t91.5 83t86.5 74t65 81t25.5 94q0 90 -95 149.5t-251 77.5l55 168q234 -20 363.5 -124t129.5 -247q0 -70 -26 -130 t-67 -103t-90 -84t-95.5 -82.5t-83.5 -87.5t-54.5 -110.5t-7.5 -141.5h-180z" />
<glyph unicode="@" horiz-adv-x="1974" d="M188 475q0 205 77.5 394.5t209 328t314 221t382.5 82.5q166 0 294.5 -46.5t207.5 -128.5t119.5 -188t40.5 -231q0 -181 -64.5 -327.5t-182 -231t-265.5 -84.5q-121 0 -170.5 65.5t-26.5 157.5h-6q-39 -76 -131.5 -149.5t-187.5 -73.5q-181 0 -181 219q0 77 17 157 t56.5 161.5t96.5 145t146 103.5t196 40q139 0 250 -29l-120 -436q-60 -209 94 -209q136 0 224.5 133.5t88.5 343.5q0 73 -17.5 138.5t-57 125.5t-98 103t-147 68.5t-198.5 25.5q-164 0 -312 -70t-251.5 -187t-164.5 -274.5t-61 -326.5q0 -242 143.5 -380.5t416.5 -138.5 q169 0 350 54l10 -150q-183 -57 -393 -57q-335 0 -517 173t-182 478zM778 522q0 -106 70 -106q83 0 173.5 110.5t147.5 313.5l31 108q-50 13 -108 13q-80 0 -153 -61.5t-117 -163.5t-44 -214z" />
<glyph unicode="A" horiz-adv-x="1239" d="M-74 0l756 1382h209l231 -1382h-198l-47 324h-580l-174 -324h-197zM373 473h481l-84 516q-19 153 -22 191h-3q-69 -145 -92 -187z" />
<glyph unicode="B" horiz-adv-x="1142" d="M80 0l262 1382q343 7 387 7q193 0 288 -70t95 -197q0 -147 -81 -247.5t-206 -143.5v-2q96 -21 151.5 -92t55.5 -164q0 -98 -40 -184t-114.5 -152t-190 -104.5t-257.5 -38.5q-49 0 -179 2.5t-171 3.5zM293 156q96 -11 168 -11q175 0 275 90.5t100 221.5q0 186 -295 186 q-123 0 -156 -2zM412 786q39 -2 118 -2q173 0 279 78.5t106 218.5q0 76 -52 117t-183 41q-76 0 -182 -4z" />
<glyph unicode="C" horiz-adv-x="1150" d="M109 459q0 147 32 283.5t98 255.5t158.5 207.5t223 139t282.5 50.5q170 0 307 -41l-51 -170q-140 49 -282 49q-116 0 -212 -44t-160 -116.5t-108.5 -169.5t-64 -200t-19.5 -211q0 -79 17 -138.5t56 -106t107.5 -71t165.5 -24.5q163 0 318 67l6 -164q-183 -71 -377 -71 q-115 0 -203 26.5t-143 70t-89.5 106.5t-48 128.5t-13.5 143.5z" />
<glyph unicode="D" horiz-adv-x="1359" d="M80 0l262 1380q14 0 165.5 4.5t231.5 4.5q305 0 448.5 -133t143.5 -369q0 -139 -34 -268t-106.5 -243.5t-176.5 -199.5t-253.5 -134.5t-328.5 -49.5q-83 0 -196.5 4t-155.5 4zM293 164q77 -12 166 -12q141 0 256.5 43t191.5 113.5t128.5 164.5t75 193t22.5 202 q0 83 -21 147t-68 115t-131 78t-202 27q-60 0 -213 -6z" />
<glyph unicode="E" horiz-adv-x="1005" d="M80 0l262 1382h184h512l-30 -155h-512l-84 -439h489l-29 -151h-489l-90 -479h514l-31 -158h-512h-184z" />
<glyph unicode="F" horiz-adv-x="940" d="M80 0l262 1382h184h506l-31 -155h-505l-84 -449h479l-29 -151h-479l-119 -627h-184z" />
<glyph unicode="G" horiz-adv-x="1368" d="M106 510q0 192 67.5 359t183.5 283t276 182.5t340 66.5q209 0 377 -58l-54 -178q-172 74 -344 74q-186 0 -335 -96.5t-230.5 -258.5t-81.5 -356q0 -58 13 -112t43 -104t75 -86.5t113.5 -58.5t152.5 -22q134 0 265 41l98 519h184l-123 -646q-211 -77 -454 -77 q-278 0 -422 143.5t-144 384.5z" />
<glyph unicode="H" horiz-adv-x="1400" d="M80 0l262 1382h184l-112 -585h692l111 585h184l-262 -1382h-185l123 637h-692l-121 -637h-184z" />
<glyph unicode="I" horiz-adv-x="526" d="M80 0l262 1382h184l-262 -1382h-184z" />
<glyph unicode="J" horiz-adv-x="657" d="M-92 2l33 164q63 -23 125 -23q88 0 141.5 49t77.5 170l192 1020h185l-197 -1032q-34 -177 -130 -270.5t-276 -93.5q-85 0 -151 16z" />
<glyph unicode="K" horiz-adv-x="1130" d="M80 0l262 1382h184l-125 -651l607 651h239l-661 -684l405 -698h-231l-367 684l-129 -684h-184z" />
<glyph unicode="L" horiz-adv-x="854" d="M80 0l262 1382h184l-231 -1220h483l-30 -162h-484h-184z" />
<glyph unicode="M" horiz-adv-x="1779" d="M4 0l461 1382h221l119 -870q19 -156 22 -274h2q41 96 125 264l457 880h240l-60 -1382h-190l37 788q10 230 22 351h-4q-32 -81 -115 -250l-456 -889h-197l-113 831q-26 202 -26 308h-2q-61 -215 -107 -359l-241 -780h-195z" />
<glyph unicode="N" horiz-adv-x="1400" d="M80 0l262 1382h217l350 -827q70 -179 109 -303q46 296 84 493l117 637h182l-264 -1382h-215l-355 846q-60 146 -104 293q-38 -266 -84 -514l-117 -625h-182z" />
<glyph unicode="O" horiz-adv-x="1415" d="M102 483q0 185 61 354t165 293.5t251.5 198.5t313.5 74q240 0 369 -131.5t129 -372.5q0 -193 -63 -364.5t-170 -292.5t-253.5 -191.5t-308.5 -70.5q-246 0 -370 131t-124 372zM301 510q0 -170 83.5 -266.5t238.5 -96.5q154 0 285 96.5t207.5 265.5t76.5 370 q0 169 -83.5 263.5t-246.5 94.5q-160 0 -289.5 -100t-200.5 -266t-71 -361z" />
<glyph unicode="P" horiz-adv-x="1050" d="M80 0l262 1382q230 9 334 9q199 0 305 -89t106 -245q0 -151 -85.5 -274.5t-224.5 -191t-300 -67.5q-59 0 -112 6l-101 -530h-184zM395 690q41 -8 109 -8q103 0 192.5 44.5t144 125t54.5 178.5q0 207 -256 207q-59 0 -141 -4z" />
<glyph unicode="Q" horiz-adv-x="1415" d="M102 483q0 186 60.5 355t164.5 293.5t252 198t314 73.5q240 0 369 -131.5t129 -372.5q0 -284 -131 -505.5t-334 -305.5q40 -1 89 -13.5t87 -26t98 -20.5q32 -4 65 -4q30 0 62 3l-31 -162q-62 -7 -109 -7q-27 0 -49 2q-59 7 -120 26.5t-107 40.5t-119 37t-155 16h-41 q-246 0 -370 131t-124 372zM301 510q0 -170 83.5 -266.5t238.5 -96.5q154 0 285 96.5t207.5 265.5t76.5 370q0 169 -83.5 263.5t-246.5 94.5q-160 0 -289.5 -100t-200.5 -266t-71 -361z" />
<glyph unicode="R" horiz-adv-x="1110" d="M80 0l262 1382q141 9 330 9q409 0 409 -304q0 -96 -39 -177.5t-106.5 -137.5t-153 -91t-182.5 -46q17 -28 44.5 -78.5t37.5 -67.5l272 -489h-221l-327 618h-25l-117 -618h-184zM408 762q46 -4 110 -4q161 0 265 80t104 221q0 92 -58 135t-186 43q-71 0 -145 -4z" />
<glyph unicode="S" horiz-adv-x="929" d="M39 10l35 180q103 -45 209 -45q157 0 244 70t87 188q0 48 -23 89t-60 72t-81.5 60.5t-88.5 63t-81 72t-60 94.5t-23 123q0 86 33.5 162.5t96.5 135.5t161 93.5t219 34.5q106 0 208 -21l-34 -168q-90 33 -193 33q-144 0 -220.5 -67.5t-76.5 -159.5q0 -50 23.5 -93 t60.5 -75.5t82 -63.5t90 -65t82 -72.5t60.5 -94t23.5 -122.5q0 -194 -154 -324t-393 -130q-138 0 -227 30z" />
<glyph unicode="T" horiz-adv-x="1036" d="M176 1225l29 157h964l-28 -157h-389l-236 -1225h-184l235 1225h-391z" />
<glyph unicode="U" horiz-adv-x="1386" d="M168 481l170 901h184l-174 -909q-12 -60 -12 -109q0 -92 40 -146q61 -84 240 -83q182 0 284.5 90t141.5 301l164 856h180l-165 -876q-102 -526 -631 -526q-438 0 -438 354q0 67 16 147z" />
<glyph unicode="V" horiz-adv-x="1239" d="M193 1382h196l135 -888q25 -174 33 -287h4q44 104 150 301l477 874h198l-759 -1382h-209z" />
<glyph unicode="W" horiz-adv-x="1914" d="M240 1382h188l59 -903q3 -68 3 -134t-3 -130h2q58 152 105 258l424 909h211l86 -917q9 -86 9 -190q0 -28 -1 -58h2q42 125 88 227l412 938h192l-620 -1382h-230l-80 930q-7 91 -7 180q0 30 1 59h-2q-41 -122 -94 -239l-428 -930h-223z" />
<glyph unicode="X" horiz-adv-x="1200" d="M-61 0l585 719l-293 663h207l224 -524l413 524h217l-544 -671l321 -711h-221l-238 569l-448 -569h-223z" />
<glyph unicode="Y" horiz-adv-x="1077" d="M188 1382h193l127 -467q30 -106 57 -239h2q31 56 166 266l287 440h207l-600 -884l-95 -498h-184l94 498z" />
<glyph unicode="Z" horiz-adv-x="1060" d="M-2 0l27 139l712 914q53 64 144 166q-157 -5 -287 -5h-344l33 168h852l-29 -143l-750 -950q-59 -74 -102 -121q41 4 338 4h319l-32 -172h-881z" />
<glyph unicode="[" horiz-adv-x="645" d="M2 -408l379 1987h397l-28 -141h-226l-325 -1700h229l-29 -146h-397z" />
<glyph unicode="\" horiz-adv-x="886" d="M229 1550h160l356 -1880h-165z" />
<glyph unicode="]" horiz-adv-x="645" d="M-94 -408l28 146h228l323 1700h-227l27 141h397l-379 -1987h-397z" />
<glyph unicode="^" d="M176 770l449 612h145l229 -610l-141 -70l-186 543l-379 -543z" />
<glyph unicode="_" d="M-123 -510l29 145h1126l-28 -145h-1127z" />
<glyph unicode="`" horiz-adv-x="729" d="M264 1407l109 117l260 -262l-88 -95z" />
<glyph unicode="a" horiz-adv-x="1101" d="M72 289q0 115 23.5 221.5t74 202.5t124 167t181 112.5t236.5 41.5q162 0 319 -30q-138 -722 -188 -1004h-183q24 119 119 414l-4 2q-204 -436 -475 -436q-227 0 -227 309zM258 324q0 -187 104 -187q69 0 144 67t135 167.5t105 211.5t63 205l16 82q-78 19 -145 19 q-108 0 -192 -52t-132.5 -137t-73 -181t-24.5 -195z" />
<glyph unicode="b" horiz-adv-x="1101" d="M82 18l280 1477h183l-96 -496q-13 -83 -113 -391l4 -2q84 196 204.5 314t268.5 118q227 0 227 -309q0 -115 -23.5 -221.5t-74.5 -202.5t-124.5 -167t-181 -112.5t-237.5 -41.5q-161 0 -317 34zM287 147q77 -18 145 -18q108 0 192 52t132.5 137t73 181t24.5 195 q0 187 -104 187q-69 0 -144 -67t-135 -167t-105 -211t-63 -203z" />
<glyph unicode="c" horiz-adv-x="843" d="M74 319q0 196 68.5 357.5t203 259.5t311.5 98q110 0 215 -30l-41 -160q-86 39 -186 39q-75 0 -138.5 -32.5t-107 -85.5t-74 -121.5t-45 -140.5t-14.5 -143q0 -215 213 -215q122 0 223 48v-156q-135 -53 -274 -53q-354 0 -354 335z" />
<glyph unicode="d" horiz-adv-x="1101" d="M72 289q0 115 23.5 221.5t74 202.5t124 167t181 112.5t236.5 41.5q67 0 143 -12l88 473h182l-215 -1126q-13 -68 -35 -192.5t-32 -176.5h-180q22 121 116 414l-4 2q-204 -436 -475 -436q-227 0 -227 309zM258 324q0 -187 104 -187q69 0 144 67t135 167.5t105 211.5 t63 205l16 82q-78 19 -145 19q-108 0 -192 -52t-132.5 -137t-73 -181t-24.5 -195z" />
<glyph unicode="e" horiz-adv-x="976" d="M78 311q0 147 40.5 279.5t111.5 231t176.5 156.5t228.5 58q153 0 226 -65.5t73 -165.5q0 -169 -171.5 -257t-488.5 -99q-10 -48 -10 -119q0 -117 47 -158t172 -41q148 0 285 59l6 -145q-157 -63 -354 -63q-176 0 -259 79t-83 250zM297 584q235 9 345 57t110 141 q0 54 -37.5 84.5t-100.5 30.5q-116 0 -197.5 -87.5t-119.5 -225.5z" />
<glyph unicode="f" horiz-adv-x="694" d="M-352 -502l45 156q71 -21 145 -21q111 0 174.5 69.5t96.5 242.5l178 929h-207l31 144h202l15 72q37 211 150 314t310 103q84 0 170 -18l-45 -152q-79 21 -143 21q-111 0 -174 -64.5t-88 -206.5l-12 -69h276l-31 -144h-274l-176 -925q-46 -246 -161.5 -357.5 t-305.5 -111.5q-91 0 -176 18z" />
<glyph unicode="g" horiz-adv-x="1097" d="M-41 -483l41 178q120 -57 272 -57q163 0 254.5 72t124.5 241q21 111 44 195.5t79 259.5h-4q-203 -426 -471 -426q-227 0 -227 309q0 115 23.5 221.5t74.5 202.5t124.5 167t180.5 112.5t236 41.5q162 0 319 -30l-209 -1098q-82 -428 -588 -428q-159 0 -274 39zM258 324 q0 -187 104 -187q69 0 144 67t135 167.5t105 211.5t63 205l16 82q-78 19 -145 19q-108 0 -192 -52t-132.5 -137t-73 -181t-24.5 -195z" />
<glyph unicode="h" horiz-adv-x="1153" d="M78 0l284 1495h181l-90 -477q-28 -142 -117 -402h4q38 85 85 157.5t106 133.5t131 96t149 35q138 0 191 -92q33 -58 34 -143q0 -50 -12 -111l-133 -692h-180l125 651q12 61 12 105q0 43 -12 70q-22 55 -91 55q-67 0 -141.5 -66t-134 -165.5t-105 -212t-63.5 -208.5 l-43 -229h-180z" />
<glyph unicode="i" horiz-adv-x="520" d="M78 0l194 1018h181l-195 -1018h-180zM303 1333q0 54 37.5 90.5t89.5 36.5q50 0 82.5 -33t32.5 -79q0 -54 -37 -90.5t-88 -36.5t-84 32.5t-33 79.5z" />
<glyph unicode="j" horiz-adv-x="528" d="M-307 -504l37 160q61 -23 114 -23q101 0 147 59t77 218l213 1108h180l-219 -1145q-40 -202 -135.5 -297.5t-282.5 -95.5q-75 0 -131 16zM311 1333q0 54 37 90.5t88 36.5q50 0 83.5 -33.5t33.5 -78.5q0 -54 -37.5 -90.5t-89.5 -36.5q-50 0 -82.5 32.5t-32.5 79.5z" />
<glyph unicode="k" horiz-adv-x="972" d="M78 0l284 1495h181l-172 -907l475 481l133 -104l-434 -406l307 -559h-221l-269 541l-104 -541h-180z" />
<glyph unicode="l" horiz-adv-x="520" d="M78 0l284 1495h181l-285 -1495h-180z" />
<glyph unicode="m" horiz-adv-x="1763" d="M78 0l102 530q14 76 44 239t46 249h181q-31 -152 -115 -402h4q37 85 83.5 157.5t104 133.5t129 96t146.5 35q98 0 151.5 -51.5t53.5 -146.5q0 -71 -50 -226l5 -2q37 86 83 159.5t104 135t129 96.5t146 35q135 0 187 -92q32 -57 32 -142q0 -51 -12 -112l-131 -692h-182 l125 651q12 60 12 104q0 128 -96 128q-79 0 -171 -97.5t-165 -249.5t-102 -307l-43 -229h-181l125 651q12 63 12 109q1 41 -9 67q-20 56 -87 56q-79 0 -171.5 -97t-165.5 -249.5t-101 -307.5l-43 -229h-180z" />
<glyph unicode="n" horiz-adv-x="1153" d="M78 0l102 530q14 76 44 239t46 249h181q-30 -146 -115 -402h4q38 85 85 157.5t106 133.5t131 96t149 35q138 0 191 -92q33 -58 34 -143q0 -50 -12 -111l-133 -692h-180l125 651q12 61 12 105q0 43 -12 70q-22 55 -91 55q-67 0 -141.5 -66t-134 -165.5t-105 -212 t-63.5 -208.5l-43 -229h-180z" />
<glyph unicode="o" horiz-adv-x="1103" d="M76 344q0 149 45.5 278.5t124.5 220t188 142t232 51.5q193 0 285.5 -98t92.5 -268q0 -153 -50 -284t-132.5 -218.5t-190 -136.5t-222.5 -49q-373 0 -373 362zM264 375q0 -117 51 -176.5t164 -59.5q152 0 262.5 145.5t110.5 364.5q0 232 -215 232q-108 0 -194.5 -73.5 t-132.5 -188.5t-46 -244z" />
<glyph unicode="p" horiz-adv-x="1101" d="M-18 -506l198 1036q14 76 44 239t46 249h181q-27 -134 -115 -408l4 -2q84 194 204.5 312t268.5 118q227 0 227 -309q0 -115 -23.5 -221.5t-74.5 -202t-124.5 -166t-181 -112t-237.5 -41.5q-69 0 -143 12l-94 -504h-180zM287 156q77 -25 147 -25q86 0 158 34.5t119.5 91 t80.5 130.5t47.5 151.5t14.5 155.5q0 187 -104 187q-69 0 -144 -67t-135 -167t-105 -211t-63 -203z" />
<glyph unicode="q" horiz-adv-x="1101" d="M72 289q0 115 23.5 221.5t74 202.5t124 167t181 112.5t236.5 41.5q162 0 319 -30l-287 -1510h-180l88 469q34 176 127 451l-4 2q-204 -436 -475 -436q-227 0 -227 309zM258 324q0 -187 104 -187q69 0 144 67t135 167.5t105 211.5t63 205l16 82q-78 19 -145 19 q-108 0 -192 -52t-132.5 -137t-73 -181t-24.5 -195z" />
<glyph unicode="r" horiz-adv-x="714" d="M78 0l102 530q14 76 44 239t46 249h176q-25 -136 -104 -375l4 -2q47 102 89.5 172.5t95.5 128.5t115 82q41 16 87 16q23 0 47 -4l-37 -178q-17 5 -35 5q-51 -1 -105 -41q-73 -54 -132 -152t-104.5 -215t-65.5 -226l-43 -229h-180z" />
<glyph unicode="s" horiz-adv-x="780" d="M31 -4l32 166q85 -29 166 -29q103 0 163.5 41t60.5 119q0 38 -23 71.5t-57 58t-74 56t-74 62.5t-57 79.5t-23 106.5q0 136 106 222.5t298 86.5q85 0 174 -14l-33 -150q-70 23 -153 23q-97 0 -150 -40.5t-53 -106.5q0 -44 32 -84.5t77 -74t90.5 -70t77.5 -90t32 -116.5 q0 -65 -28.5 -123.5t-81.5 -105.5t-138 -74.5t-190 -27.5q-103 0 -174 14z" />
<glyph unicode="t" horiz-adv-x="745" d="M78 874l28 144h205l64 330l190 43l-71 -373h276l-29 -144h-276l-100 -532q-12 -64 -12 -105q1 -35 9 -55q20 -42 95 -41q71 0 141 17l-12 -154q-98 -20 -191 -20q-154 0 -203 76q-29 46 -29 127q0 55 13 126l109 561h-207z" />
<glyph unicode="u" horiz-adv-x="1153" d="M139 326l131 692h183l-125 -651q-12 -62 -11 -107q-1 -42 9 -68q22 -55 90 -55q67 0 141.5 66t134.5 165t106 211.5t64 208.5l43 230h180l-102 -531q-53 -282 -90 -487h-180q24 136 112 401h-4q-38 -85 -84.5 -157t-105 -133t-130.5 -96t-149 -35q-138 0 -191 92 q-33 58 -33 143q0 51 11 111z" />
<glyph unicode="v" horiz-adv-x="966" d="M121 1018h194l95 -598q16 -100 22 -197h4l428 838l172 -60l-547 -1001h-188z" />
<glyph unicode="w" horiz-adv-x="1585" d="M139 1018h193l49 -543q16 -188 16 -254h2q65 134 389 797h191l74 -541q16 -163 22 -258h2q78 169 398 840l170 -55l-504 -1004h-209l-78 578q-13 104 -16 204h-2q-72 -150 -206 -422t-177 -360h-201z" />
<glyph unicode="x" horiz-adv-x="1050" d="M-43 47l463 475l-252 496h209l180 -379l397 430l138 -96l-451 -469l264 -504h-215l-188 383l-402 -436z" />
<glyph unicode="y" horiz-adv-x="995" d="M-246 -506l31 166q59 -20 129 -20q54 0 113.5 30.5t111.5 85.5q61 65 88 141t27 185q0 398 -150 936h205q52 -200 83.5 -419t31.5 -380q0 -55 -14 -127h2q230 404 460 967l170 -51q-422 -991 -778 -1344q-187 -184 -366 -184q-87 0 -144 14z" />
<glyph unicode="z" horiz-adv-x="880" d="M2 0l25 131l589 727q-118 -4 -249 -4h-191l33 164h663l-26 -129l-584 -723q110 4 260 4h197l-33 -170h-684z" />
<glyph unicode="{" horiz-adv-x="686" d="M76 575l28 146q122 6 177.5 52.5t78.5 168.5l46 240q33 189 125 293t262 104h38l-26 -141q-106 0 -155 -53t-77 -197l-45 -238q-29 -145 -89 -218t-156 -85v-4q86 -12 120.5 -88.5t8.5 -210.5l-70 -356q-28 -144 1 -197t132 -53l-26 -146h-37q-166 0 -221 102t-17 298 l72 358q24 120 -16 169.5t-154 55.5z" />
<glyph unicode="|" horiz-adv-x="571" d="M25 -506l389 2048h143l-389 -2048h-143z" />
<glyph unicode="}" horiz-adv-x="686" d="M-94 -406l26 146q106 0 155 53t77 197l67 354q53 280 246 305v4q-88 12 -121.5 86.5t-7.5 210.5l47 240q28 144 -1 196t-132 52l27 143h33q319 0 241 -397l-49 -242q-24 -120 15 -167.5t155 -53.5l-29 -146q-122 -6 -177 -53.5t-79 -171.5l-67 -356q-39 -209 -129 -304.5 t-258 -95.5h-39z" />
<glyph unicode="~" d="M199 899q7 148 87.5 235t207.5 87q63 0 110.5 -23.5t76 -57t53 -67t56 -57t70.5 -23.5q61 0 97 50.5t44 132.5h138q-7 -148 -87.5 -234t-207.5 -86q-63 0 -110.5 23t-76.5 56.5t-53.5 66.5t-56 56t-70.5 23q-61 0 -97 -50t-44 -132h-137z" />
<glyph unicode="&#xa1;" horiz-adv-x="643" d="M23 -422l237 1096h154l-178 -1096h-213zM260 911q0 53 37 89t90 36q51 0 84 -34t33 -82q0 -54 -36 -89.5t-89 -35.5q-52 0 -85.5 34t-33.5 82z" />
<glyph unicode="&#xa2;" d="M186 547q0 254 143 411.5t365 188.5l35 184h145l-34 -178q112 -3 221 -49l-64 -152q-104 52 -223 52q-173 0 -283 -119.5t-110 -302.5q0 -217 256 -217q128 0 262 61l25 -147q-130 -59 -265 -68l-38 -211h-146l41 211q-330 29 -330 336z" />
<glyph unicode="&#xa3;" d="M55 0l25 127q115 86 171 152.5t75.5 134t19.5 174.5h-217l27 143h196q1 70 6 129t19 124.5t36 117t59.5 100t87 80.5t121 51t159.5 19q130 0 243 -35l-57 -158q-109 41 -211 41q-59 0 -104.5 -17.5t-75 -51.5t-49 -74.5t-29.5 -98t-13.5 -109t-4.5 -118.5h327l-26 -143 h-308q-1 -148 -50.5 -244t-166.5 -188q90 4 162 4h445l-31 -160h-836z" />
<glyph unicode="&#xa4;" d="M72 227l184 185q-41 59 -41 161q0 99 37 193t113 166l-121 198l151 95l113 -207q75 37 172 37q100 0 158 -35l192 207l117 -107l-197 -198q33 -51 33 -136q0 -205 -139 -352l131 -213l-150 -98l-125 221q-88 -49 -184 -49q-81 0 -137 27l-182 -199zM385 600 q0 -77 39.5 -122.5t122.5 -45.5q78 0 141 50.5t95 124t32 151.5q0 73 -40.5 116.5t-125.5 43.5q-82 0 -144 -48t-91 -119t-29 -151z" />
<glyph unicode="&#xa5;" d="M78 213l22 125h338l27 143h-338l25 125h294l-215 725h197l115 -411q26 -95 53 -230h2q64 115 150 242l268 399h205l-502 -725h293l-23 -125h-340l-26 -143h338l-23 -125h-338l-41 -213h-186l41 213h-336z" />
<glyph unicode="&#xa6;" horiz-adv-x="571" d="M25 -506l145 774h143l-145 -774h-143zM270 788l144 754h143l-143 -754h-144z" />
<glyph unicode="&#xa7;" horiz-adv-x="1042" d="M102 -315l37 157q77 -26 148 -26q59 0 104 19.5t69.5 50.5t36 63.5t11.5 64.5q0 37 -18 76.5t-46.5 77.5t-63.5 78t-70 84.5t-63.5 90t-46.5 101.5t-18 113q0 204 217 354q-45 83 -45 162q0 42 13 87.5t45 94t78 87t119.5 63t162.5 24.5q86 0 158 -16l-37 -156 q-74 21 -129 21q-61 0 -105.5 -19.5t-67 -51t-32.5 -63t-10 -63.5q0 -46 33.5 -100.5t80.5 -109t94.5 -115t81 -139t33.5 -160.5q0 -99 -55 -189t-160 -158q41 -74 41 -153q0 -160 -125.5 -266.5t-300.5 -106.5q-90 0 -170 23zM356 666q0 -29 10 -61.5t20 -56t38 -63 t42 -57.5t54 -67.5t53 -65.5q127 79 127 209q0 36 -9.5 70t-37.5 78.5t-43 66.5t-64 83t-63 79q-127 -79 -127 -215z" />
<glyph unicode="&#xa8;" horiz-adv-x="1046" d="M242 1335q0 49 33.5 82t80.5 33q45 0 76 -31t31 -73q0 -50 -34 -83.5t-81 -33.5q-45 0 -75.5 31.5t-30.5 74.5zM635 1337q0 47 34.5 80t80.5 33q45 0 75.5 -31t30.5 -73q0 -50 -34 -83.5t-81 -33.5q-45 0 -75.5 31.5t-30.5 76.5z" />
<glyph unicode="&#xa9;" horiz-adv-x="1517" d="M104 653q0 120 37.5 231.5t105.5 198.5t157 152t196.5 100t220.5 35q137 0 260 -50.5t210.5 -137.5t138.5 -207.5t51 -255.5q0 -151 -58.5 -285.5t-156.5 -229t-228.5 -149.5t-271.5 -55q-140 0 -263.5 51t-210.5 138.5t-137.5 208t-50.5 255.5zM252 659 q0 -105 40.5 -201t110 -166t166 -111.5t203.5 -41.5q112 0 215 44t179.5 119t122.5 182.5t46 228.5q0 104 -40.5 200t-110 165.5t-166 111t-203.5 41.5q-112 0 -215 -43.5t-179.5 -118.5t-122.5 -182t-46 -228zM465 575q0 130 49.5 237.5t146 173t220.5 65.5q99 0 168 -27 l-41 -129q-57 31 -140 31q-52 0 -94.5 -21t-69.5 -54t-45.5 -76.5t-26 -86.5t-7.5 -86q0 -147 141 -147q86 0 166 30l4 -127q-98 -34 -203 -34q-134 0 -201 66t-67 185z" />
<glyph unicode="&#xaa;" horiz-adv-x="788" d="M117 432l26 146h592l-26 -146h-592zM160 899q0 99 28.5 187.5t82 158t138.5 110t191 40.5q125 0 234 -19q-107 -553 -123 -674h-152q13 62 62 205h-3q-52 -104 -125 -160.5t-161 -56.5q-172 0 -172 209zM313 934q0 -60 17 -85.5t53 -25.5q85 0 164 115t108 268l11 56 q-44 10 -97 10q-77 0 -137 -51t-89.5 -127t-29.5 -160z" />
<glyph unicode="&#xab;" horiz-adv-x="1011" d="M131 610l295 363l129 -78l-242 -293l146 -297l-152 -72zM522 610l312 359l127 -78l-256 -289l161 -291l-147 -73z" />
<glyph unicode="&#xac;" d="M94 532l29 154h901l-90 -475h-162l62 321h-740z" />
<glyph unicode="&#xad;" horiz-adv-x="671" d="M100 512l29 152h481l-30 -152h-480z" />
<glyph unicode="&#xae;" horiz-adv-x="1128" d="M231 1055q0 134 66.5 244.5t173.5 170.5t229 60q180 0 301 -121t121 -303q0 -130 -66 -239.5t-173.5 -170.5t-227.5 -61q-181 0 -302.5 121t-121.5 299zM358 1069q0 -132 88 -226.5t216 -94.5q136 0 236.5 102t100.5 250q0 129 -88 223t-215 94q-136 0 -237 -100.5 t-101 -247.5zM487 854l88 467h152q143 0 143 -102q0 -61 -39 -102.5t-100 -55.5q16 -23 29 -62l57 -145h-112l-70 193h-14l-37 -193h-97zM635 1116h29q44 0 71 25t27 61q0 22 -13 31.5t-42 9.5h-48z" />
<glyph unicode="&#xaf;" horiz-adv-x="800" d="M260 1262l25 139h506l-25 -139h-506z" />
<glyph unicode="&#xb0;" horiz-adv-x="753" d="M256 1225q0 88 44.5 153.5t109.5 96t137 30.5q126 0 191 -66.5t65 -170.5q0 -133 -87.5 -208t-205.5 -75q-120 0 -187 66.5t-67 173.5zM401 1237q0 -61 32.5 -96t90.5 -35t95.5 40.5t37.5 108.5q0 50 -28 90.5t-90 40.5q-59 0 -98.5 -41t-39.5 -108z" />
<glyph unicode="&#xb1;" d="M-4 0l31 154h946l-31 -154h-946zM123 688l29 152h389l77 401h175l-76 -401h389l-29 -152h-389l-76 -403h-176l78 403h-391z" />
<glyph unicode="&#xb2;" horiz-adv-x="636" d="M139 729l21 109l172 133q83 61 113 102t30 86q0 29 -20 47.5t-58 18.5q-65 0 -121 -37l-28 112q98 48 194 48q99 0 150 -42.5t51 -111.5q0 -71 -38.5 -130.5t-127.5 -123.5l-112 -84h241l-24 -127h-443z" />
<glyph unicode="&#xb3;" horiz-adv-x="622" d="M145 729l31 109q62 -17 100 -17q150 0 150 107q0 80 -190 55l16 98h39q89 0 130.5 30t41.5 77q0 24 -19 39.5t-59 15.5q-52 0 -113 -26l-18 98q81 33 178 33q95 0 142 -37.5t47 -96.5q0 -120 -121 -172q43 -6 66.5 -35t23.5 -73q0 -97 -82.5 -159t-233.5 -62 q-71 0 -129 16z" />
<glyph unicode="&#xb4;" horiz-adv-x="790" d="M242 1270l315 254l88 -127l-332 -230z" />
<glyph unicode="&#xb5;" horiz-adv-x="1181" d="M16 -506q2 181 22.5 349t45 276t62 267t57.5 271l69 361h181l-111 -580q-30 -169 -9.5 -235t91.5 -66q65 0 138.5 66t132.5 165t104.5 212t62.5 208l43 230h182l-116 -608q-25 -131 -25 -201q0 -38 14 -54t44 -16q23 0 43 6l-9 -149q-52 -12 -94 -12q-87 0 -129.5 36 t-42.5 121q0 102 57 260h-2q-49 -116 -112.5 -207.5t-147 -151.5t-168.5 -60q-144 0 -161 133q-4 -100 -9 -146q-32 -219 -32 -475h-181z" />
<glyph unicode="&#xb6;" horiz-adv-x="1157" d="M209 852q0 180 111.5 324t285.5 188q68 18 144 18l-166 -876q-186 0 -280.5 93.5t-94.5 252.5zM455 -197l26 144h148l272 1435h303l-24 -143h-144l-272 -1436h-309z" />
<glyph unicode="&#xb7;" horiz-adv-x="479" d="M131 604q0 57 40.5 97t96.5 40q53 0 90 -37.5t37 -89.5q0 -57 -41 -97t-96 -40q-53 0 -90 37.5t-37 89.5z" />
<glyph unicode="&#xb8;" horiz-adv-x="749" d="M127 -481q65 70 95.5 122.5t30 106.5t-37.5 113l164 57q107 -188 -92 -399h-160z" />
<glyph unicode="&#xb9;" horiz-adv-x="618" d="M238 1251l200 80h140l-115 -602h-152l88 469l-153 -65z" />
<glyph unicode="&#xba;" horiz-adv-x="841" d="M121 432l29 146h571l-29 -146h-571zM188 934q0 125 48 230.5t141 171t213 65.5q140 0 204 -66.5t64 -183.5q0 -110 -35 -199.5t-93.5 -145.5t-131.5 -86t-152 -30q-258 0 -258 244zM352 963q0 -136 117 -136q98 0 160.5 87.5t62.5 213.5q0 136 -121 136q-47 0 -85 -20 t-62.5 -51.5t-41 -72t-23.5 -80t-7 -77.5z" />
<glyph unicode="&#xbb;" horiz-adv-x="1011" d="M119 317l256 289l-162 291l147 74l197 -373l-311 -358zM524 313l242 293l-143 297l149 72l176 -377l-295 -362z" />
<glyph unicode="&#xbc;" horiz-adv-x="1409" d="M41 43l1229 1382l110 -86l-1228 -1382zM252 1184v131l192 67h134l-129 -663h-156l100 520zM680 131l10 105l332 428h219l-80 -412h101l-21 -121h-102l-23 -131h-149l22 131h-309zM834 250h178l59 303z" />
<glyph unicode="&#xbd;" horiz-adv-x="1452" d="M43 43l1227 1382l110 -86l-1228 -1382zM252 1184v131l192 67h134l-129 -663h-156l100 520zM778 0l21 119l174 139q155 123 155 201q0 86 -90 86q-69 0 -139 -39v131q90 39 193 39q101 0 152.5 -47.5t51.5 -128.5q0 -131 -176 -273l-121 -96q66 4 254 4l-24 -135h-451z " />
<glyph unicode="&#xbe;" horiz-adv-x="1443" d="M78 43l1229 1382l108 -86l-1227 -1382zM162 719l39 115q46 -19 104 -19q65 0 105.5 35t40.5 86q0 44 -50.5 63t-152.5 5l20 102q113 0 172.5 32t59.5 85q0 63 -78 63q-62 0 -131 -29v111q80 27 170 27q196 0 196 -142q0 -61 -37.5 -108.5t-107.5 -71.5q46 -10 71 -43.5 t25 -83.5q0 -100 -85 -169.5t-228 -69.5q-71 0 -133 12zM717 131l8 105l332 428h219l-80 -412h100l-20 -121h-102l-23 -131h-150l23 131h-307zM868 250h179l59 303z" />
<glyph unicode="&#xbf;" horiz-adv-x="894" d="M35 -66q0 70 26 130t67 103.5t90 84t95.5 82t83.5 88t54.5 111t7.5 141.5h180q12 -87 -3.5 -161t-50.5 -125.5t-80 -96.5t-92 -83t-86.5 -74t-65 -81t-25.5 -94q0 -90 95 -149.5t251 -77.5l-54 -168q-235 19 -364 123t-129 247zM469 911q0 53 37 89t90 36q52 0 85.5 -34 t33.5 -82q0 -53 -37 -89t-90 -36q-52 0 -85.5 34t-33.5 82z" />
<glyph unicode="&#xc0;" horiz-adv-x="1239" d="M-74 0l756 1382h209l231 -1382h-198l-47 324h-580l-174 -324h-197zM373 473h481l-84 516q-19 153 -22 191h-3q-69 -145 -92 -187zM498 1599l63 144l369 -152l-45 -106z" />
<glyph unicode="&#xc1;" horiz-adv-x="1239" d="M-74 0l756 1382h209l231 -1382h-198l-47 324h-580l-174 -324h-197zM373 473h481l-84 516q-19 153 -22 191h-3q-69 -145 -92 -187zM653 1591l389 152l35 -144l-397 -114z" />
<glyph unicode="&#xc2;" horiz-adv-x="1239" d="M-74 0l756 1382h209l231 -1382h-198l-47 324h-580l-174 -324h-197zM373 473h481l-84 516q-19 153 -22 191h-3q-69 -145 -92 -187zM477 1581l342 174l295 -170l-59 -102l-250 129l-287 -129z" />
<glyph unicode="&#xc3;" horiz-adv-x="1239" d="M-74 0l756 1382h209l231 -1382h-198l-47 324h-580l-174 -324h-197zM373 473h481l-84 516q-19 153 -22 191h-3q-69 -145 -92 -187zM449 1587q87 152 231 152q46 0 85.5 -16.5t63 -37t53.5 -37t58 -16.5q68 0 131 90l90 -67q-89 -150 -231 -150q-46 0 -85.5 16.5t-63 37 t-53.5 37t-58 16.5q-72 0 -131 -92z" />
<glyph unicode="&#xc4;" horiz-adv-x="1239" d="M-74 0l756 1382h209l231 -1382h-198l-47 324h-580l-174 -324h-197zM373 473h481l-84 516q-19 153 -22 191h-3q-69 -145 -92 -187zM487 1593q0 47 32 80t77 33q44 0 74 -30.5t30 -73.5q0 -47 -32.5 -79t-77.5 -32q-44 0 -73.5 29.5t-29.5 72.5zM913 1593q0 47 33 80t78 33 q44 0 73 -30.5t29 -73.5q0 -47 -32.5 -79t-77.5 -32q-43 0 -73 29.5t-30 72.5z" />
<glyph unicode="&#xc5;" horiz-adv-x="1239" d="M-74 0l756 1382h209l231 -1382h-198l-47 324h-580l-174 -324h-197zM373 473h481l-84 516q-19 153 -22 191h-3q-69 -145 -92 -187zM612 1655q0 97 68.5 160t159.5 63q86 0 143 -56t57 -141q0 -93 -67.5 -157t-157.5 -64q-87 0 -145 55.5t-58 139.5zM721 1663 q0 -43 29 -73.5t71 -30.5q45 0 78 33.5t33 82.5q0 42 -28 73.5t-70 31.5q-45 0 -79 -35t-34 -82z" />
<glyph unicode="&#xc6;" horiz-adv-x="1550" d="M-180 0l973 1382h67h123h600l-29 -155h-503l-84 -439h485l-29 -151h-485l-92 -479h522l-29 -158h-587h-115l63 330h-446l-231 -330h-203zM350 479h381l141 748h-6q-73 -126 -186 -287z" />
<glyph unicode="&#xc7;" horiz-adv-x="1150" d="M109 459q0 147 32 283.5t98 255.5t158.5 207.5t223 139t282.5 50.5q170 0 307 -41l-51 -170q-140 49 -282 49q-116 0 -212 -44t-160 -116.5t-108.5 -169.5t-64 -200t-19.5 -211q0 -79 17 -138.5t56 -106t107.5 -71t165.5 -24.5q163 0 318 67l6 -164q-183 -71 -377 -71 q-115 0 -203 26.5t-143 70t-89.5 106.5t-48 128.5t-13.5 143.5zM360 -481q66 70 96 122.5t30 106.5t-37 113l163 57q107 -188 -92 -399h-160z" />
<glyph unicode="&#xc8;" horiz-adv-x="1005" d="M80 0l262 1382h184h512l-30 -155h-512l-84 -439h489l-29 -151h-489l-90 -479h514l-31 -158h-512h-184zM422 1599l63 144l369 -152l-45 -106z" />
<glyph unicode="&#xc9;" horiz-adv-x="1005" d="M80 0l262 1382h184h512l-30 -155h-512l-84 -439h489l-29 -151h-489l-90 -479h514l-31 -158h-512h-184zM557 1591l389 152l35 -144l-397 -114z" />
<glyph unicode="&#xca;" horiz-adv-x="1005" d="M80 0l262 1382h184h512l-30 -155h-512l-84 -439h489l-29 -151h-489l-90 -479h514l-31 -158h-512h-184zM389 1581l342 174l295 -170l-59 -102l-250 129l-287 -129z" />
<glyph unicode="&#xcb;" horiz-adv-x="1005" d="M80 0l262 1382h184h512l-30 -155h-512l-84 -439h489l-29 -151h-489l-90 -479h514l-31 -158h-512h-184zM391 1593q0 47 32 80t77 33q44 0 74 -30.5t30 -73.5q0 -47 -32.5 -79t-77.5 -32q-44 0 -73.5 29.5t-29.5 72.5zM817 1593q0 47 33 80t78 33q44 0 73 -30.5t29 -73.5 q0 -47 -32.5 -79t-77.5 -32q-43 0 -73 29.5t-30 72.5z" />
<glyph unicode="&#xcc;" horiz-adv-x="526" d="M80 0l262 1382h184l-262 -1382h-184zM158 1599l63 144l369 -152l-45 -106z" />
<glyph unicode="&#xcd;" horiz-adv-x="526" d="M80 0l262 1382h184l-262 -1382h-184zM309 1591l389 152l35 -144l-397 -114z" />
<glyph unicode="&#xce;" horiz-adv-x="526" d="M80 0l262 1382h184l-262 -1382h-184zM141 1581l342 174l295 -170l-59 -102l-250 129l-287 -129z" />
<glyph unicode="&#xcf;" horiz-adv-x="526" d="M80 0l262 1382h184l-262 -1382h-184zM139 1593q0 47 32 80t77 33q44 0 74 -30.5t30 -73.5q0 -47 -32.5 -79t-77.5 -32q-44 0 -73.5 29.5t-29.5 72.5zM565 1593q0 47 33 80t78 33q44 0 73 -30.5t29 -73.5q0 -47 -32.5 -79t-77.5 -32q-43 0 -73 29.5t-30 72.5z" />
<glyph unicode="&#xd0;" horiz-adv-x="1376" d="M35 639l26 143h183l112 598q16 0 167.5 4.5t232.5 4.5q305 0 448.5 -133t143.5 -369q0 -139 -34 -268t-107 -243.5t-177.5 -199.5t-254.5 -134.5t-329 -49.5q-81 0 -200.5 3.5t-151.5 4.5l121 639h-180zM309 164q77 -12 166 -12q140 0 255.5 43t192 113.5t128.5 164.5 t75 193t23 202q0 83 -21 147t-68 115t-131.5 78t-203.5 27q-54 0 -213 -6l-86 -447h291l-29 -143h-289z" />
<glyph unicode="&#xd1;" horiz-adv-x="1400" d="M80 0l262 1382h217l350 -827q70 -179 109 -303q46 296 84 493l117 637h182l-264 -1382h-215l-355 846q-60 146 -104 293q-38 -266 -84 -514l-117 -625h-182zM555 1587q87 152 231 152q46 0 85.5 -16.5t63.5 -37t54 -37t58 -16.5q68 0 131 90l90 -67q-89 -150 -232 -150 q-46 0 -85.5 16.5t-63 37t-53.5 37t-58 16.5q-72 0 -131 -92z" />
<glyph unicode="&#xd2;" horiz-adv-x="1415" d="M102 483q0 185 61 354t165 293.5t251.5 198.5t313.5 74q240 0 369 -131.5t129 -372.5q0 -193 -63 -364.5t-170 -292.5t-253.5 -191.5t-308.5 -70.5q-246 0 -370 131t-124 372zM301 510q0 -170 83.5 -266.5t238.5 -96.5q154 0 285 96.5t207.5 265.5t76.5 370 q0 169 -83.5 263.5t-246.5 94.5q-160 0 -289.5 -100t-200.5 -266t-71 -361zM623 1599l63 144l369 -152l-45 -106z" />
<glyph unicode="&#xd3;" horiz-adv-x="1415" d="M102 483q0 185 61 354t165 293.5t251.5 198.5t313.5 74q240 0 369 -131.5t129 -372.5q0 -193 -63 -364.5t-170 -292.5t-253.5 -191.5t-308.5 -70.5q-246 0 -370 131t-124 372zM301 510q0 -170 83.5 -266.5t238.5 -96.5q154 0 285 96.5t207.5 265.5t76.5 370 q0 169 -83.5 263.5t-246.5 94.5q-160 0 -289.5 -100t-200.5 -266t-71 -361zM774 1591l389 152l35 -144l-397 -114z" />
<glyph unicode="&#xd4;" horiz-adv-x="1415" d="M102 483q0 185 61 354t165 293.5t251.5 198.5t313.5 74q240 0 369 -131.5t129 -372.5q0 -193 -63 -364.5t-170 -292.5t-253.5 -191.5t-308.5 -70.5q-246 0 -370 131t-124 372zM301 510q0 -170 83.5 -266.5t238.5 -96.5q154 0 285 96.5t207.5 265.5t76.5 370 q0 169 -83.5 263.5t-246.5 94.5q-160 0 -289.5 -100t-200.5 -266t-71 -361zM592 1581l342 174l295 -170l-60 -102l-249 129l-287 -129z" />
<glyph unicode="&#xd5;" horiz-adv-x="1415" d="M102 483q0 185 61 354t165 293.5t251.5 198.5t313.5 74q240 0 369 -131.5t129 -372.5q0 -193 -63 -364.5t-170 -292.5t-253.5 -191.5t-308.5 -70.5q-246 0 -370 131t-124 372zM301 510q0 -170 83.5 -266.5t238.5 -96.5q154 0 285 96.5t207.5 265.5t76.5 370 q0 169 -83.5 263.5t-246.5 94.5q-160 0 -289.5 -100t-200.5 -266t-71 -361zM573 1587q87 152 232 152q46 0 85.5 -16.5t63 -37t53.5 -37t58 -16.5q68 0 131 90l90 -67q-89 -150 -231 -150q-46 0 -85.5 16.5t-63 37t-53.5 37t-58 16.5q-72 0 -131 -92z" />
<glyph unicode="&#xd6;" horiz-adv-x="1415" d="M102 483q0 185 61 354t165 293.5t251.5 198.5t313.5 74q240 0 369 -131.5t129 -372.5q0 -193 -63 -364.5t-170 -292.5t-253.5 -191.5t-308.5 -70.5q-246 0 -370 131t-124 372zM301 510q0 -170 83.5 -266.5t238.5 -96.5q154 0 285 96.5t207.5 265.5t76.5 370 q0 169 -83.5 263.5t-246.5 94.5q-160 0 -289.5 -100t-200.5 -266t-71 -361zM610 1593q0 47 32 80t77 33q44 0 74 -30.5t30 -73.5q0 -47 -32.5 -79t-77.5 -32q-44 0 -73.5 29.5t-29.5 72.5zM1036 1593q0 47 33 80t78 33q44 0 73 -30.5t29 -73.5q0 -47 -32.5 -79t-77.5 -32 q-43 0 -73 29.5t-30 72.5z" />
<glyph unicode="&#xd7;" d="M68 268l411 346l-278 347l123 98l278 -342l408 342l92 -111l-410 -344l279 -346l-123 -100l-277 344l-409 -344z" />
<glyph unicode="&#xd8;" horiz-adv-x="1415" d="M102 483q0 186 60.5 355t164.5 293.5t252 198t314 73.5q67 0 143 -17l105 191l131 -53l-103 -185q222 -119 222 -440q0 -193 -63 -364.5t-170 -292.5t-253.5 -191.5t-308.5 -70.5q-82 0 -160 20l-110 -207l-133 55l110 201q-201 122 -201 434zM297 508q0 -192 104 -277 l549 998q-65 11 -119 8q-152 -10 -275 -112t-191 -265t-68 -352zM524 160q57 -15 133 -8q146 10 269.5 107.5t196.5 262.5t73 359q0 197 -117 286z" />
<glyph unicode="&#xd9;" horiz-adv-x="1386" d="M168 481l170 901h184l-174 -909q-33 -171 28 -254.5t240 -83.5q182 0 284.5 90t141.5 301l164 856h180l-165 -876q-102 -526 -631 -526q-521 0 -422 501zM598 1599l64 144l368 -152l-45 -106z" />
<glyph unicode="&#xda;" horiz-adv-x="1386" d="M168 481l170 901h184l-174 -909q-33 -171 28 -254.5t240 -83.5q182 0 284.5 90t141.5 301l164 856h180l-165 -876q-102 -526 -631 -526q-521 0 -422 501zM760 1591l389 152l35 -144l-398 -114z" />
<glyph unicode="&#xdb;" horiz-adv-x="1386" d="M168 481l170 901h184l-174 -909q-33 -171 28 -254.5t240 -83.5q182 0 284.5 90t141.5 301l164 856h180l-165 -876q-102 -526 -631 -526q-521 0 -422 501zM559 1581l342 174l295 -170l-59 -102l-250 129l-287 -129z" />
<glyph unicode="&#xdc;" horiz-adv-x="1386" d="M168 481l170 901h184l-174 -909q-33 -171 28 -254.5t240 -83.5q182 0 284.5 90t141.5 301l164 856h180l-165 -876q-102 -526 -631 -526q-521 0 -422 501zM569 1593q0 47 32 80t77 33q44 0 74 -30.5t30 -73.5q0 -47 -32.5 -79t-77.5 -32q-44 0 -73.5 29.5t-29.5 72.5z M995 1593q0 47 33 80t78 33q44 0 73 -30.5t29 -73.5q0 -47 -32.5 -79t-77.5 -32q-43 0 -73 29.5t-30 72.5z" />
<glyph unicode="&#xdd;" horiz-adv-x="1077" d="M188 1382h193l127 -467q30 -106 57 -239h2q31 56 166 266l287 440h207l-600 -884l-95 -498h-184l94 498zM608 1591l389 152l35 -144l-397 -114z" />
<glyph unicode="&#xde;" horiz-adv-x="1062" d="M78 0l262 1382h184l-39 -208q110 4 177 4q210 0 316.5 -91.5t106.5 -250.5q0 -111 -44 -212t-124.5 -179t-203.5 -124.5t-271 -46.5q-72 0 -127 9l-53 -283h-184zM344 438q57 -8 131 -8q193 0 304.5 109t111.5 266q0 103 -68.5 161t-212.5 58q-80 0 -155 -10z" />
<glyph unicode="&#xdf;" horiz-adv-x="1161" d="M-362 -506l40 154q70 -17 129 -17q111 0 169 66.5t92 247.5l204 1079q94 481 516 481q149 0 234.5 -66t85.5 -173q0 -61 -18.5 -111t-48.5 -83t-66 -61t-72 -52.5t-66 -49.5t-48.5 -60t-18.5 -77q0 -46 26 -90t62.5 -80.5t73 -76t62.5 -94t26 -116.5q0 -141 -116 -237 t-310 -96q-99 0 -170 14l33 164q85 -29 157 -29q101 0 158 44t57 120q0 40 -18 78t-45.5 66.5t-59 63t-59 67t-45.5 79.5t-18 99q0 58 18.5 105.5t48 79.5t65 60t71 53t65 51.5t48 63t18.5 80.5q0 54 -39.5 87.5t-112.5 33.5q-245 0 -309 -328l-207 -1089 q-50 -255 -161.5 -361t-305.5 -106q-59 0 -145 16z" />
<glyph unicode="&#xe0;" horiz-adv-x="1101" d="M72 289q0 115 23.5 221.5t74 202.5t124 167t181 112.5t236.5 41.5q162 0 319 -30q-138 -722 -188 -1004h-183q24 119 119 414l-4 2q-204 -436 -475 -436q-227 0 -227 309zM258 324q0 -187 104 -187q69 0 144 67t135 167.5t105 211.5t63 205l16 82q-78 19 -145 19 q-108 0 -192 -52t-132.5 -137t-73 -181t-24.5 -195zM502 1407l108 117l260 -262l-88 -95z" />
<glyph unicode="&#xe1;" horiz-adv-x="1101" d="M72 289q0 115 23.5 221.5t74 202.5t124 167t181 112.5t236.5 41.5q162 0 319 -30q-138 -722 -188 -1004h-183q24 119 119 414l-4 2q-204 -436 -475 -436q-227 0 -227 309zM258 324q0 -187 104 -187q69 0 144 67t135 167.5t105 211.5t63 205l16 82q-78 19 -145 19 q-108 0 -192 -52t-132.5 -137t-73 -181t-24.5 -195zM627 1270l315 254l88 -127l-332 -230z" />
<glyph unicode="&#xe2;" horiz-adv-x="1101" d="M72 289q0 115 23.5 221.5t74 202.5t124 167t181 112.5t236.5 41.5q162 0 319 -30q-138 -722 -188 -1004h-183q24 119 119 414l-4 2q-204 -436 -475 -436q-227 0 -227 309zM258 324q0 -187 104 -187q69 0 144 67t135 167.5t105 211.5t63 205l16 82q-78 19 -145 19 q-108 0 -192 -52t-132.5 -137t-73 -181t-24.5 -195zM455 1253l325 271l234 -267l-90 -90l-170 174l-230 -174z" />
<glyph unicode="&#xe3;" horiz-adv-x="1101" d="M72 289q0 115 23.5 221.5t74 202.5t124 167t181 112.5t236.5 41.5q162 0 319 -30q-138 -722 -188 -1004h-183q24 119 119 414l-4 2q-204 -436 -475 -436q-227 0 -227 309zM258 324q0 -187 104 -187q69 0 144 67t135 167.5t105 211.5t63 205l16 82q-78 19 -145 19 q-108 0 -192 -52t-132.5 -137t-73 -181t-24.5 -195zM387 1307q86 157 225 157q36 0 67.5 -11.5t54 -27.5t42.5 -32t42.5 -27.5t45.5 -11.5q70 0 125 94l90 -72q-39 -76 -99 -117.5t-128 -41.5q-44 0 -82.5 17.5t-60.5 38.5t-50.5 38.5t-56.5 17.5q-65 0 -127 -96z" />
<glyph unicode="&#xe4;" horiz-adv-x="1101" d="M72 289q0 115 23.5 221.5t74 202.5t124 167t181 112.5t236.5 41.5q162 0 319 -30q-138 -722 -188 -1004h-183q24 119 119 414l-4 2q-204 -436 -475 -436q-227 0 -227 309zM258 324q0 -187 104 -187q69 0 144 67t135 167.5t105 211.5t63 205l16 82q-78 19 -145 19 q-108 0 -192 -52t-132.5 -137t-73 -181t-24.5 -195zM414 1335q0 49 33.5 82t80.5 33q45 0 76 -31t31 -73q0 -50 -34 -83.5t-81 -33.5q-45 0 -75.5 31.5t-30.5 74.5zM807 1337q0 47 34.5 80t80.5 33q45 0 75.5 -31t30.5 -73q0 -50 -34 -83.5t-81 -33.5q-45 0 -75.5 31.5 t-30.5 76.5z" />
<glyph unicode="&#xe5;" horiz-adv-x="1101" d="M72 289q0 115 23.5 221.5t74 202.5t124 167t181 112.5t236.5 41.5q162 0 319 -30q-138 -722 -188 -1004h-183q24 119 119 414l-4 2q-204 -436 -475 -436q-227 0 -227 309zM258 324q0 -187 104 -187q69 0 144 67t135 167.5t105 211.5t63 205l16 82q-78 19 -145 19 q-108 0 -192 -52t-132.5 -137t-73 -181t-24.5 -195zM539 1341q0 104 74 172t171 68q93 0 155 -60.5t62 -150.5q0 -100 -73.5 -170t-169.5 -70q-94 0 -156.5 59.5t-62.5 151.5zM657 1350q0 -47 30 -79t77 -32q48 0 83.5 36t35.5 89q0 45 -30 77t-75 32q-50 0 -85.5 -35.5 t-35.5 -87.5z" />
<glyph unicode="&#xe6;" horiz-adv-x="1562" d="M39 199q0 70 22.5 126t66.5 96t101.5 69.5t134.5 48.5t158 29.5t180 15.5l15 67q26 122 -12.5 181t-159.5 59q-71 0 -155.5 -22.5t-151.5 -61.5v160q172 71 342 71q135 0 199 -41.5t91 -115.5q58 65 152 110t199 45q154 0 227.5 -65.5t73.5 -165.5q0 -60 -19 -107.5 t-65.5 -90.5t-121 -73.5t-190 -51.5t-268.5 -29q-8 -62 -8 -123q0 -116 47.5 -157.5t171.5 -41.5q149 0 289 59v-147q-153 -61 -350 -61q-152 0 -223 58.5t-97 168.5q-53 -93 -161.5 -160t-231.5 -67q-129 0 -192.5 59.5t-63.5 157.5zM221 236q0 -48 33.5 -78.5t87.5 -30.5 q122 0 216 96t118 230q-109 -7 -184 -18.5t-140.5 -35t-98 -64t-32.5 -99.5zM885 588q110 7 185.5 18t139.5 32t95.5 57t31.5 87q0 55 -37.5 86t-99.5 31q-114 0 -195.5 -87t-119.5 -224z" />
<glyph unicode="&#xe7;" horiz-adv-x="843" d="M74 319q0 196 68.5 357.5t203 259.5t311.5 98q110 0 215 -30l-41 -160q-86 39 -186 39q-75 0 -138.5 -32.5t-107 -85.5t-74 -121.5t-45 -140.5t-14.5 -143q0 -215 213 -215q122 0 223 48v-156q-135 -53 -274 -53q-354 0 -354 335zM166 -481q65 70 95.5 122.5t30 106.5 t-37.5 113l164 57q107 -188 -92 -399h-160z" />
<glyph unicode="&#xe8;" horiz-adv-x="976" d="M78 311q0 147 40.5 279.5t111.5 231t176.5 156.5t228.5 58q153 0 226 -65.5t73 -165.5q0 -169 -171.5 -257t-488.5 -99q-10 -48 -10 -119q0 -117 47 -158t172 -41q148 0 285 59l6 -145q-157 -63 -354 -63q-176 0 -259 79t-83 250zM297 584q235 9 345 57t110 141 q0 54 -37.5 84.5t-100.5 30.5q-116 0 -197.5 -87.5t-119.5 -225.5zM444 1407l109 117l260 -262l-88 -95z" />
<glyph unicode="&#xe9;" horiz-adv-x="976" d="M78 311q0 147 40.5 279.5t111.5 231t176.5 156.5t228.5 58q153 0 226 -65.5t73 -165.5q0 -169 -171.5 -257t-488.5 -99q-10 -48 -10 -119q0 -117 47 -158t172 -41q148 0 285 59l6 -145q-157 -63 -354 -63q-176 0 -259 79t-83 250zM297 584q235 9 345 57t110 141 q0 54 -37.5 84.5t-100.5 30.5q-116 0 -197.5 -87.5t-119.5 -225.5zM539 1270l315 254l88 -127l-332 -230z" />
<glyph unicode="&#xea;" horiz-adv-x="976" d="M78 311q0 147 40.5 279.5t111.5 231t176.5 156.5t228.5 58q153 0 226 -65.5t73 -165.5q0 -169 -171.5 -257t-488.5 -99q-10 -48 -10 -119q0 -117 47 -158t172 -41q148 0 285 59l6 -145q-157 -63 -354 -63q-176 0 -259 79t-83 250zM297 584q235 9 345 57t110 141 q0 54 -37.5 84.5t-100.5 30.5q-116 0 -197.5 -87.5t-119.5 -225.5zM381 1253l326 271l233 -267l-90 -90l-170 174l-229 -174z" />
<glyph unicode="&#xeb;" horiz-adv-x="976" d="M78 311q0 147 40.5 279.5t111.5 231t176.5 156.5t228.5 58q153 0 226 -65.5t73 -165.5q0 -169 -171.5 -257t-488.5 -99q-10 -48 -10 -119q0 -117 47 -158t172 -41q148 0 285 59l6 -145q-157 -63 -354 -63q-176 0 -259 79t-83 250zM297 584q235 9 345 57t110 141 q0 54 -37.5 84.5t-100.5 30.5q-116 0 -197.5 -87.5t-119.5 -225.5zM381 1335q0 49 34 82t81 33q45 0 75.5 -31t30.5 -73q0 -50 -34 -83.5t-81 -33.5q-45 0 -75.5 31.5t-30.5 74.5zM774 1337q0 47 34.5 80t80.5 33q45 0 75.5 -31t30.5 -73q0 -50 -33.5 -83.5t-80.5 -33.5 q-45 0 -76 31.5t-31 76.5z" />
<glyph unicode="&#xec;" horiz-adv-x="520" d="M78 0l194 1018h181l-195 -1018h-180zM176 1407l109 117l260 -262l-88 -95z" />
<glyph unicode="&#xed;" horiz-adv-x="520" d="M78 0l194 1018h181l-195 -1018h-180zM236 1270l315 254l88 -127l-332 -230z" />
<glyph unicode="&#xee;" horiz-adv-x="520" d="M78 0l194 1018h181l-195 -1018h-180zM121 1253l325 271l234 -267l-90 -90l-170 174l-230 -174z" />
<glyph unicode="&#xef;" horiz-adv-x="520" d="M78 0l194 1018h181l-195 -1018h-180zM100 1335q0 49 34 82t81 33q45 0 76 -31t31 -73q0 -50 -34 -83.5t-81 -33.5q-45 0 -76 31.5t-31 74.5zM494 1337q0 47 34 80t80 33q45 0 76 -31t31 -73q0 -50 -34 -83.5t-81 -33.5q-45 0 -75.5 31.5t-30.5 76.5z" />
<glyph unicode="&#xf0;" horiz-adv-x="1105" d="M70 350q0 181 71.5 337t205 251.5t300.5 95.5q162 0 205 -92q-17 61 -39 105q-46 108 -94 174l-227 -95l-60 101l211 88q-47 52 -131 129l180 80q76 -72 125 -135l225 92l56 -103l-211 -88q155 -243 155 -536q0 -216 -72.5 -391.5t-207.5 -278t-307 -102.5 q-184 0 -284.5 91.5t-100.5 276.5zM260 391q0 -121 57 -187.5t160 -66.5q68 0 125.5 27t96.5 72t68.5 100t46 114.5t24.5 111.5t8 95q0 103 -54.5 164.5t-158.5 61.5q-84 0 -156 -43t-118.5 -113t-72.5 -157.5t-26 -178.5z" />
<glyph unicode="&#xf1;" horiz-adv-x="1153" d="M78 0l102 530q14 76 44 239t46 249h181q-30 -146 -115 -402h4q38 85 85 157.5t106 133.5t131 96t149 35q138 0 191 -91.5t22 -254.5l-133 -692h-180l125 651q23 120 0.5 175t-91.5 55q-67 0 -141.5 -66t-134 -165.5t-105 -212t-63.5 -208.5l-43 -229h-180zM371 1307 q86 157 225 157q36 0 67.5 -11.5t54 -27.5t42.5 -32t42.5 -27.5t45.5 -11.5q70 0 125 94l90 -72q-39 -76 -99 -117.5t-128 -41.5q-44 0 -82.5 17.5t-60.5 38.5t-50.5 38.5t-56.5 17.5q-65 0 -127 -96z" />
<glyph unicode="&#xf2;" horiz-adv-x="1103" d="M76 344q0 149 45.5 278.5t124.5 220t188 142t232 51.5q193 0 285.5 -98t92.5 -268q0 -153 -50 -284t-132.5 -218.5t-190 -136.5t-222.5 -49q-373 0 -373 362zM264 375q0 -117 51 -176.5t164 -59.5q152 0 262.5 145.5t110.5 364.5q0 232 -215 232q-108 0 -194.5 -73.5 t-132.5 -188.5t-46 -244zM481 1407l109 117l260 -262l-88 -95z" />
<glyph unicode="&#xf3;" horiz-adv-x="1103" d="M76 344q0 149 45.5 278.5t124.5 220t188 142t232 51.5q193 0 285.5 -98t92.5 -268q0 -153 -50 -284t-132.5 -218.5t-190 -136.5t-222.5 -49q-373 0 -373 362zM264 375q0 -117 51 -176.5t164 -59.5q152 0 262.5 145.5t110.5 364.5q0 232 -215 232q-108 0 -194.5 -73.5 t-132.5 -188.5t-46 -244zM586 1270l315 254l88 -127l-332 -230z" />
<glyph unicode="&#xf4;" horiz-adv-x="1103" d="M76 344q0 149 45.5 278.5t124.5 220t188 142t232 51.5q193 0 285.5 -98t92.5 -268q0 -153 -50 -284t-132.5 -218.5t-190 -136.5t-222.5 -49q-373 0 -373 362zM264 375q0 -117 51 -176.5t164 -59.5q152 0 262.5 145.5t110.5 364.5q0 232 -215 232q-108 0 -194.5 -73.5 t-132.5 -188.5t-46 -244zM438 1253l326 271l233 -267l-90 -90l-170 174l-229 -174z" />
<glyph unicode="&#xf5;" horiz-adv-x="1103" d="M76 344q0 149 45.5 278.5t124.5 220t188 142t232 51.5q193 0 285.5 -98t92.5 -268q0 -153 -50 -284t-132.5 -218.5t-190 -136.5t-222.5 -49q-373 0 -373 362zM264 375q0 -117 51 -176.5t164 -59.5q152 0 262.5 145.5t110.5 364.5q0 232 -215 232q-108 0 -194.5 -73.5 t-132.5 -188.5t-46 -244zM365 1307q86 157 225 157q36 0 67.5 -11.5t54 -27.5t42.5 -32t42.5 -27.5t45.5 -11.5q70 0 125 94l90 -72q-39 -76 -99.5 -117.5t-128.5 -41.5q-44 0 -82 17.5t-60 38.5t-50.5 38.5t-56.5 17.5q-65 0 -127 -96z" />
<glyph unicode="&#xf6;" horiz-adv-x="1103" d="M76 344q0 149 45.5 278.5t124.5 220t188 142t232 51.5q193 0 285.5 -98t92.5 -268q0 -153 -50 -284t-132.5 -218.5t-190 -136.5t-222.5 -49q-373 0 -373 362zM264 375q0 -117 51 -176.5t164 -59.5q152 0 262.5 145.5t110.5 364.5q0 232 -215 232q-108 0 -194.5 -73.5 t-132.5 -188.5t-46 -244zM414 1335q0 49 33.5 82t80.5 33q45 0 76 -31t31 -73q0 -50 -34 -83.5t-81 -33.5q-45 0 -75.5 31.5t-30.5 74.5zM807 1337q0 47 34.5 80t80.5 33q45 0 75.5 -31t30.5 -73q0 -50 -34 -83.5t-81 -33.5q-45 0 -75.5 31.5t-30.5 76.5z" />
<glyph unicode="&#xf7;" d="M94 532l29 154h954l-30 -154h-953zM379 193q0 54 36 90t89 36q51 0 85 -35t34 -85q0 -54 -36 -90.5t-87 -36.5q-52 0 -86.5 35.5t-34.5 85.5zM539 1018q0 54 36.5 90.5t88.5 36.5q51 0 85.5 -35.5t34.5 -85.5q0 -54 -37 -90.5t-88 -36.5q-52 0 -86 35.5t-34 85.5z" />
<glyph unicode="&#xf8;" horiz-adv-x="1103" d="M76 344q0 195 74 352.5t209 248.5t307 91q48 0 100 -10l115 205l108 -53l-106 -189q161 -88 161 -319q0 -153 -50 -284t-132.5 -218.5t-190 -136.5t-222.5 -49q-76 0 -125 16l-119 -209l-109 55l111 199q-131 85 -131 301zM252 379q0 -113 51 -176l385 684q-23 4 -67 4 q-104 -4 -189.5 -76.5t-132.5 -188.5t-47 -247zM401 139q44 -13 97 -10q99 6 183 76.5t134.5 189t50.5 256.5q0 126 -73 187z" />
<glyph unicode="&#xf9;" horiz-adv-x="1153" d="M139 326l131 692h183l-125 -651q-23 -120 -1.5 -175t89.5 -55q67 0 141.5 66t134.5 165t106 211.5t64 208.5l43 230h180l-102 -531q-53 -282 -90 -487h-180q24 136 112 401h-4q-38 -85 -84.5 -157t-105 -133t-130.5 -96t-149 -35q-138 0 -191 91.5t-22 254.5zM457 1407 l108 117l260 -262l-88 -95z" />
<glyph unicode="&#xfa;" horiz-adv-x="1153" d="M139 326l131 692h183l-125 -651q-23 -120 -1.5 -175t89.5 -55q67 0 141.5 66t134.5 165t106 211.5t64 208.5l43 230h180l-102 -531q-53 -282 -90 -487h-180q24 136 112 401h-4q-38 -85 -84.5 -157t-105 -133t-130.5 -96t-149 -35q-138 0 -191 91.5t-22 254.5zM594 1270 l315 254l88 -127l-331 -230z" />
<glyph unicode="&#xfb;" horiz-adv-x="1153" d="M139 326l131 692h183l-125 -651q-23 -120 -1.5 -175t89.5 -55q67 0 141.5 66t134.5 165t106 211.5t64 208.5l43 230h180l-102 -531q-53 -282 -90 -487h-180q24 136 112 401h-4q-38 -85 -84.5 -157t-105 -133t-130.5 -96t-149 -35q-138 0 -191 91.5t-22 254.5zM436 1253 l326 271l233 -267l-90 -90l-170 174l-229 -174z" />
<glyph unicode="&#xfc;" horiz-adv-x="1153" d="M139 326l131 692h183l-125 -651q-23 -120 -1.5 -175t89.5 -55q67 0 141.5 66t134.5 165t106 211.5t64 208.5l43 230h180l-102 -531q-53 -282 -90 -487h-180q24 136 112 401h-4q-38 -85 -84.5 -157t-105 -133t-130.5 -96t-149 -35q-138 0 -191 91.5t-22 254.5zM416 1335 q0 49 33.5 82t80.5 33q45 0 76 -31t31 -73q0 -50 -34 -83.5t-81 -33.5q-45 0 -75.5 31.5t-30.5 74.5zM809 1337q0 47 34.5 80t80.5 33q45 0 75.5 -31t30.5 -73q0 -50 -34 -83.5t-81 -33.5q-45 0 -75.5 31.5t-30.5 76.5z" />
<glyph unicode="&#xfd;" horiz-adv-x="995" d="M-246 -506l31 166q59 -20 129 -20q54 0 113.5 30.5t111.5 85.5q61 65 88 141t27 185q0 398 -150 936h205q52 -200 83.5 -419t31.5 -380q0 -55 -14 -127h2q230 404 460 967l170 -51q-422 -991 -778 -1344q-187 -184 -366 -184q-87 0 -144 14zM492 1270l315 254l88 -127 l-332 -230z" />
<glyph unicode="&#xfe;" horiz-adv-x="1101" d="M-18 -506l380 2001h185l-80 -408q-44 -218 -129 -473l6 -2q83 191 202.5 308.5t266.5 117.5q227 0 227 -309q0 -115 -23.5 -221.5t-74.5 -202t-124.5 -166t-181 -112t-237.5 -41.5q-69 0 -143 12l-94 -504h-180zM287 156q77 -25 147 -25q86 0 158 34.5t119.5 91 t80.5 130.5t47.5 151.5t14.5 155.5q0 187 -104 187q-69 0 -144 -67t-135 -167t-105 -211t-63 -203z" />
<glyph unicode="&#xff;" horiz-adv-x="995" d="M-246 -506l31 166q59 -20 129 -20q54 0 113.5 30.5t111.5 85.5q61 65 88 141t27 185q0 398 -150 936h205q52 -200 83.5 -419t31.5 -380q0 -55 -14 -127h2q230 404 460 967l170 -51q-422 -991 -778 -1344q-187 -184 -366 -184q-87 0 -144 14zM315 1335q0 49 34 82t81 33 q45 0 76 -31t31 -73q0 -50 -34 -83.5t-81 -33.5q-45 0 -76 31.5t-31 74.5zM709 1337q0 47 34 80t80 33q45 0 76 -31t31 -73q0 -50 -34 -83.5t-81 -33.5q-45 0 -75.5 31.5t-30.5 76.5z" />
<glyph unicode="&#x152;" horiz-adv-x="1732" d="M102 483q0 185 61 354t165 293.5t251.5 198.5t313.5 74q100 0 203 -21h669l-30 -155h-512l-84 -439h487l-29 -151h-487l-90 -479h512l-31 -158h-684q-123 -20 -221 -20q-246 0 -370 131t-124 372zM301 510q0 -170 83 -266.5t239 -96.5q111 0 217 29l194 1032 q-89 29 -172 29q-160 0 -289.5 -100t-200.5 -266t-71 -361z" />
<glyph unicode="&#x153;" horiz-adv-x="1714" d="M76 344q0 149 45.5 278.5t124.5 220t188 142t232 51.5q252 0 331 -194q146 194 377 194q153 0 226 -65.5t73 -165.5q0 -161 -163 -252.5t-496 -103.5q-10 -68 -10 -119q0 -119 49 -159t170 -40q145 0 282 59l8 -145q-157 -63 -354 -63q-132 0 -208.5 46t-100.5 148 q-73 -92 -179 -143t-222 -51q-373 0 -373 362zM264 375q0 -117 51 -176.5t164 -59.5q152 0 262.5 145.5t110.5 364.5q0 232 -215 232q-108 0 -194.5 -73.5t-132.5 -188.5t-46 -244zM1036 584q234 9 344.5 57.5t110.5 140.5q0 55 -37 85t-100 30q-116 0 -198 -87.5 t-120 -225.5z" />
<glyph unicode="&#x178;" horiz-adv-x="1077" d="M188 1382h193l127 -467q30 -106 57 -239h2q31 56 166 266l287 440h207l-600 -884l-95 -498h-184l94 498zM412 1593q0 47 32 80t76 33t74.5 -30.5t30.5 -73.5q0 -47 -33 -79t-78 -32q-44 0 -73 29.5t-29 72.5zM838 1593q0 47 32.5 80t77.5 33q44 0 73.5 -30.5t29.5 -73.5 q0 -47 -33 -79t-78 -32q-43 0 -72.5 29.5t-29.5 72.5z" />
<glyph unicode="&#x2c6;" horiz-adv-x="876" d="M211 1253l326 271l233 -267l-90 -90l-170 174l-229 -174z" />
<glyph unicode="&#x2dc;" horiz-adv-x="997" d="M209 1307q86 157 225 157q36 0 67.5 -11.5t54 -27.5t42.5 -32t42.5 -27.5t45.5 -11.5q70 0 125 94l90 -72q-39 -76 -99 -117.5t-128 -41.5q-44 0 -82.5 17.5t-60.5 38.5t-50.5 38.5t-56.5 17.5q-65 0 -127 -96z" />
<glyph unicode="&#x2000;" horiz-adv-x="939" />
<glyph unicode="&#x2001;" horiz-adv-x="1878" />
<glyph unicode="&#x2002;" horiz-adv-x="939" />
<glyph unicode="&#x2003;" horiz-adv-x="1878" />
<glyph unicode="&#x2004;" horiz-adv-x="626" />
<glyph unicode="&#x2005;" horiz-adv-x="469" />
<glyph unicode="&#x2006;" horiz-adv-x="313" />
<glyph unicode="&#x2007;" horiz-adv-x="313" />
<glyph unicode="&#x2008;" horiz-adv-x="234" />
<glyph unicode="&#x2009;" horiz-adv-x="375" />
<glyph unicode="&#x200a;" horiz-adv-x="104" />
<glyph unicode="&#x2010;" horiz-adv-x="671" d="M100 512l29 152h481l-30 -152h-480z" />
<glyph unicode="&#x2011;" horiz-adv-x="671" d="M100 512l29 152h481l-30 -152h-480z" />
<glyph unicode="&#x2012;" horiz-adv-x="671" d="M100 512l29 152h481l-30 -152h-480z" />
<glyph unicode="&#x2013;" d="M6 530l31 160h1126l-30 -160h-1127z" />
<glyph unicode="&#x2014;" horiz-adv-x="2048" d="M248 530l31 160h1566l-30 -160h-1567z" />
<glyph unicode="&#x2018;" horiz-adv-x="489" d="M248 1047q-43 81 12 200q67 146 262 285l70 -80q-210 -174 -139 -293q19 -38 14 -77t-37.5 -68t-77.5 -29q-71 0 -104 62z" />
<glyph unicode="&#x2019;" horiz-adv-x="489" d="M184 1051q77 63 116 117.5t41 95.5t-17 79q-18 38 -13.5 77t36.5 68.5t77 29.5q71 0 104 -62q43 -81 -12 -200q-68 -146 -264 -285z" />
<glyph unicode="&#x201a;" horiz-adv-x="489" d="M-70 -236q210 176 142 295q-19 38 -14.5 76.5t36 67t76.5 28.5q71 0 105 -62q42 -80 -13 -199q-68 -146 -262 -285z" />
<glyph unicode="&#x201c;" horiz-adv-x="870" d="M248 1049q-43 81 12 200q67 146 262 285l70 -80q-210 -174 -139 -293q18 -38 13 -77t-37 -68t-77 -29q-71 0 -104 62zM637 1049q-43 81 12 200q67 146 262 285l68 -80q-207 -174 -139 -293q19 -38 14 -77t-37 -68t-76 -29q-71 0 -104 62z" />
<glyph unicode="&#x201d;" horiz-adv-x="870" d="M184 1055q211 175 140 293q-32 56 -0.5 115t100.5 59q71 0 104 -62q43 -81 -12 -200q-68 -146 -264 -285zM571 1055q211 175 140 293q-32 56 -0.5 115t100.5 59q71 0 104 -62q43 -81 -12 -200q-68 -146 -264 -285z" />
<glyph unicode="&#x201e;" horiz-adv-x="870" d="M-70 -236q210 176 142 295q-19 38 -14.5 76.5t36 67t76.5 28.5q71 0 105 -62q42 -80 -13 -199q-68 -146 -262 -285zM319 -236q77 65 116 120t42 96.5t-18 78.5q-18 38 -13 76.5t36.5 67t76.5 28.5q72 0 104 -62q43 -80 -13 -199q-68 -146 -263 -285z" />
<glyph unicode="&#x2022;" horiz-adv-x="860" d="M207 600q0 107 74.5 181.5t177.5 74.5q101 0 171 -71t70 -169q0 -106 -74.5 -181t-176.5 -75t-172 71t-70 169z" />
<glyph unicode="&#x202f;" horiz-adv-x="375" />
<glyph unicode="&#x2039;" horiz-adv-x="628" d="M131 612l303 359l127 -80l-250 -289l148 -291l-146 -75z" />
<glyph unicode="&#x203a;" horiz-adv-x="628" d="M119 315l250 289l-148 291l146 76l184 -377l-303 -358z" />
<glyph unicode="&#x205f;" horiz-adv-x="469" />
<glyph unicode="&#x20ac;" d="M16 455l23 123h168q9 88 37 182h-170l22 123h187q38 99 92 179.5t130.5 147.5t182.5 104.5t232 37.5q130 0 264 -56l-62 -151q-105 57 -235 57q-279 0 -410 -319h389l-22 -123h-412q-25 -85 -35 -182h410l-21 -123h-397q-3 -76 8 -131.5t40.5 -99.5t84.5 -66t137 -23 q139 -3 285 60l31 -146q-163 -69 -344 -69q-125 0 -212.5 33t-136.5 97.5t-69 148.5t-16 196h-181z" />
<glyph unicode="&#x2122;" horiz-adv-x="1402" d="M238 1270l20 112h432l-20 -112h-146l-88 -463h-139l90 463h-149zM616 807l197 575h174l29 -315l4 -94l33 86l155 323h172l-20 -575h-139l12 301l8 111l-41 -97l-151 -315h-138l-28 321l-6 91l-21 -76l-111 -336h-129z" />
<glyph unicode="&#x25fc;" horiz-adv-x="1064" d="M0 0v1065h1065v-1065h-1065z" />
</font>
</defs>
</svg>
