<?xml version="1.0" standalone="no"?>
<!DOCTYPE svg PUBLIC "-//W3C//DTD SVG 1.1//EN" "http://www.w3.org/Graphics/SVG/1.1/DTD/svg11.dtd" >
<svg xmlns="http://www.w3.org/2000/svg">
<metadata></metadata>
<defs>
<font id="thesansbw9_black" horiz-adv-x="1126" >
<font-face units-per-em="2048" ascent="1516" descent="-532" />
<missing-glyph horiz-adv-x="446" />
<glyph unicode="&#x2e;&#x2e;&#x2e;" horiz-adv-x="1654" d="M82 184q0 88 62.5 150.5t150.5 62.5t150.5 -62.5t62.5 -150.5t-62.5 -150.5t-150.5 -62.5t-150.5 62.5t-62.5 150.5zM614 184q0 88 62.5 150.5t150.5 62.5t150.5 -62.5t62.5 -150.5t-62.5 -150.5t-150.5 -62.5t-150.5 62.5t-62.5 150.5zM1147 184q0 88 62.5 150.5 t150.5 62.5t150.5 -62.5t62.5 -150.5t-62.5 -150.5t-150.5 -62.5t-150.5 62.5t-62.5 150.5z" />
<glyph unicode="&#xfb01;" horiz-adv-x="1234" d="M20 731v287h130v24q0 243 131 359.5t411 116.5q178 0 359 -39l-60 -310q-132 39 -252 39q-117 0 -167 -35.5t-50 -117.5v-37h617v-1018h-373v731h-244v-731h-372v731h-130z" />
<glyph unicode="&#xfb02;" horiz-adv-x="1234" d="M20 731v287h130v72q0 95 29.5 170.5t92.5 134.5t172 91t258 32q169 0 437 -43v-1475h-373v1202q-41 8 -94 8q-71 0 -110.5 -32t-39.5 -95v-65h150v-287h-150v-731h-372v731h-130z" />
<glyph unicode="&#xfb03;" horiz-adv-x="1843" d="M20 731v287h130v45q0 223 132 329.5t394 106.5q149 0 299 -43q126 66 346 66q173 0 371 -39l-64 -309q-149 38 -264 38q-117 0 -171 -37.5t-54 -119.5v-37h616v-1018h-373v731h-243v-731h-373v731h-244v-731h-372v731h-130zM522 1018h244v24q0 74 12 136q-49 16 -119 16 q-137 0 -137 -123v-53z" />
<glyph unicode="&#xfb04;" horiz-adv-x="1843" d="M20 731v287h130v45q0 223 132 329.5t394 106.5q153 0 303 -43q132 66 340 66q168 0 436 -43v-1479h-373v1206q-41 8 -94 8q-70 0 -109.5 -33.5t-39.5 -97.5v-65h149v-287h-149v-731h-373v731h-244v-731h-372v731h-130zM522 1018h244v72q0 44 6 90q-48 14 -113 14 q-137 0 -137 -123v-53z" />
<glyph horiz-adv-x="0" />
<glyph horiz-adv-x="0" />
<glyph horiz-adv-x="682" />
<glyph unicode="&#xd;" horiz-adv-x="1024" />
<glyph unicode=" "  horiz-adv-x="446" />
<glyph unicode="&#x09;" horiz-adv-x="446" />
<glyph unicode="&#xa0;" horiz-adv-x="446" />
<glyph unicode="!" horiz-adv-x="663" d="M129 1464h436l-51 -1022h-328zM131 176q0 87 61.5 146t151.5 59t151.5 -59t61.5 -146t-61.5 -146t-151.5 -59t-151.5 59t-61.5 146z" />
<glyph unicode="&#x22;" horiz-adv-x="944" d="M66 1448h362l-41 -594h-281zM516 1448h363l-41 -594h-281z" />
<glyph unicode="#" d="M41 317v258h149l19 185h-123v258h150l32 313h264l-32 -313h198l33 313h264l-32 -313h122v-258h-149l-18 -185h122v-258h-149l-33 -317h-264l33 317h-199l-33 -317h-264l33 317h-123zM455 575h198l19 185h-199z" />
<glyph unicode="$" d="M113 920q0 137 85.5 242t225.5 143v190h260v-170q101 -3 201 -25l-27 -307q-114 33 -221 33q-133 0 -133 -74q0 -26 28 -46.5t72 -36.5t98 -34.5t108 -48.5t98 -70.5t72 -108.5t28 -156q0 -138 -90 -248t-242 -156v-221h-260v203q-96 2 -238 20l25 326q121 -39 250 -39 q76 0 116.5 21.5t40.5 62.5q0 31 -27.5 53t-71 38t-96.5 33.5t-106.5 45.5t-97 67.5t-71 107t-27.5 155.5z" />
<glyph unicode="%" horiz-adv-x="1587" d="M61 1071q0 152 100.5 247t239.5 95q144 0 236 -81t92 -240q0 -155 -102 -253t-240 -98q-150 0 -238 89.5t-88 240.5zM156 117l1038 1315l229 -168l-1038 -1315zM330 1077q0 -112 65 -112q28 0 48 29t20 85q0 66 -16.5 88.5t-47.5 22.5q-29 0 -49 -29t-20 -84zM858 301 q0 152 100.5 247t239.5 95q144 0 236 -81t92 -240q0 -155 -102 -253t-240 -98q-150 0 -238 89.5t-88 240.5zM1126 307q0 -112 66 -112q28 0 48 29t20 85q0 66 -16.5 88.5t-47.5 22.5q-29 0 -49.5 -29t-20.5 -84z" />
<glyph unicode="&#x26;" horiz-adv-x="1638" d="M72 389q0 219 221 397q-76 94 -113 177.5t-37 175.5q0 161 125 270t344 109q201 0 310.5 -89t109.5 -247q0 -107 -57.5 -201t-171.5 -186q123 -101 256 -197v-2q49 85 73.5 185.5t24.5 189.5h369q0 -151 -46 -302.5t-134 -275.5q206 -144 245 -170l-248 -282 q-173 117 -266 186q-232 -156 -516 -156q-128 0 -225.5 35t-153.5 95.5t-83 132.5t-27 155zM461 432q0 -55 42 -98t115 -43q95 0 179 43q-135 102 -279 227q-57 -63 -57 -129zM512 1159q0 -74 68 -153q84 80 84 155q0 34 -19.5 57t-54.5 23q-34 0 -56 -23.5t-22 -58.5z" />
<glyph unicode="'" horiz-adv-x="493" d="M66 1448h362l-41 -594h-281z" />
<glyph unicode="(" horiz-adv-x="634" d="M53 586q0 563 309 1042l279 -121q-219 -410 -219 -913q0 -506 227 -926l-289 -125q-307 482 -307 1043z" />
<glyph unicode=")" horiz-adv-x="634" d="M-12 1503l288 125q304 -486 304 -1042q0 -564 -312 -1043l-278 121q221 408 221 914q0 501 -223 925z" />
<glyph unicode="*" horiz-adv-x="819" d="M41 1077l205 66l-205 65l129 222l158 -146l-47 211h256l-45 -211l157 146l129 -222l-205 -65l205 -66l-129 -221l-157 145l47 -210h-258l47 210l-160 -143z" />
<glyph unicode="+" d="M72 455v311h313v336h356v-336h314v-311h-314v-340h-356v340h-313z" />
<glyph unicode="," horiz-adv-x="614" d="M61 -276q113 120 129 195t-51 149q-38 43 -45.5 102.5t13 112.5t74 90t126.5 37q109 0 174 -90q73 -103 45 -259q-39 -215 -255 -418q-29 -27 -60 -53z" />
<glyph unicode="-" horiz-adv-x="696" d="M82 391v297h532v-297h-532z" />
<glyph unicode="." horiz-adv-x="614" d="M82 197q0 92 66.5 158.5t158.5 66.5t158.5 -66.5t66.5 -158.5t-66.5 -159t-158.5 -67t-158.5 67t-66.5 159z" />
<glyph unicode="/" horiz-adv-x="1024" d="M-63 -330l718 1880h375l-717 -1880h-376z" />
<glyph unicode="0" d="M37 670q0 339 143.5 514.5t392.5 175.5q267 0 390.5 -164.5t123.5 -523.5q0 -171 -41 -306.5t-114 -220.5t-169 -129.5t-210 -44.5q-80 0 -145 13t-125 43t-103.5 82.5t-76.5 128.5t-49.5 185t-16.5 247zM438 674q0 -89 3 -152.5t11.5 -105t17 -66t25 -36.5t30.5 -15.5 t38 -3.5q45 0 69.5 24.5t39 107.5t14.5 241q0 126 -7.5 202.5t-25 113t-37.5 47.5t-55 11q-43 0 -67.5 -26t-40 -108.5t-15.5 -233.5z" />
<glyph unicode="1" d="M100 1196l420 135h279v-995h260v-336h-950v336h303v602l-254 -98z" />
<glyph unicode="2" d="M82 0v307l65 62q179 168 274 272.5t121.5 153t26.5 90.5q0 57 -40 90t-119 33q-136 0 -258 -76l-60 340q179 86 410 86q127 0 223.5 -34t152.5 -92t83.5 -128t27.5 -150q0 -141 -73 -266.5t-267 -296.5l-35 -31v-4q163 6 316 6h104v-362h-952z" />
<glyph unicode="3" d="M100 4l31 313q112 -36 264 -36q116 0 169.5 37.5t53.5 95.5q0 114 -229 114q-117 0 -223 -14v283h80q103 0 179.5 13.5t124.5 46.5t48 83q0 109 -176 109q-159 0 -275 -58l-30 307q173 62 389 62q242 0 363.5 -91.5t121.5 -250.5q0 -106 -53 -179t-147 -106l-5 -6 q108 -20 173 -98t65 -183q0 -151 -84 -259.5t-227.5 -162t-331.5 -53.5q-155 0 -281 33z" />
<glyph unicode="4" d="M23 580l421 751h508v-735h135v-334h-135v-262h-366v262h-527zM393 594q45 2 201 2v360h-2z" />
<glyph unicode="5" d="M141 2v330q134 -39 291 -39q89 0 140 35t51 96q0 64 -62 98.5t-178 34.5q-129 0 -238 -16v790h832v-348h-473v-135h33q236 0 369.5 -105.5t133.5 -285.5q0 -221 -173 -352.5t-455 -131.5q-142 0 -271 29z" />
<glyph unicode="6" d="M43 584q0 360 192 565t533 205q116 0 203 -11v-321q-103 20 -211 20q-234 0 -316 -188q-13 -26 -20 -55h2q94 63 238 63q199 0 311 -112.5t112 -282.5q0 -235 -142.5 -365.5t-377.5 -130.5q-248 0 -386 148t-138 465zM430 428q0 -71 38 -112.5t112 -41.5q59 0 94 40.5 t35 101.5q0 143 -144 143q-64 0 -99.5 -37.5t-35.5 -93.5z" />
<glyph unicode="7" d="M86 965v366h948v-321q-110 -217 -206.5 -489.5t-163.5 -520.5h-426q62 238 169 521t191 450q-222 -6 -342 -6h-170z" />
<glyph unicode="8" d="M43 346q0 178 184 309q-155 111 -155 291q0 126 67 221t182 144t261 49q218 0 345.5 -97.5t127.5 -250.5q0 -177 -164 -299q192 -114 192 -310q0 -86 -29 -158t-79.5 -122t-118.5 -84.5t-146 -51t-163 -16.5q-238 0 -371 99.5t-133 275.5zM428 375q0 -47 36.5 -78 t106.5 -31q59 0 93 30t34 75q0 46 -41.5 77.5t-124.5 65.5q-104 -66 -104 -139zM444 981q0 -40 35.5 -71t102.5 -62q100 63 100 133q0 37 -28 64.5t-95 27.5q-59 0 -87 -26.5t-28 -65.5z" />
<glyph unicode="9" d="M37 864q0 231 145 363.5t377 132.5q247 0 385.5 -154.5t138.5 -457.5q0 -361 -189 -566t-529 -205q-135 0 -222 17v321q104 -26 230 -26q120 0 194 47t115 141q13 26 20 55h-2q-94 -63 -237 -63q-200 0 -313 112.5t-113 282.5zM408 915q0 -143 143 -143q64 0 99.5 37.5 t35.5 93.5q0 72 -37.5 113t-111.5 41q-59 0 -94 -40.5t-35 -101.5z" />
<glyph unicode=":" horiz-adv-x="645" d="M113 197q0 92 66.5 158.5t158.5 66.5t158.5 -66.5t66.5 -158.5t-66.5 -159t-158.5 -67t-158.5 67t-66.5 159zM113 748q0 92 66.5 158.5t158.5 66.5t158.5 -66.5t66.5 -158.5t-66.5 -159t-158.5 -67t-158.5 67t-66.5 159z" />
<glyph unicode=";" horiz-adv-x="645" d="M92 -276q113 120 129 195t-51 149q-38 43 -45.5 102.5t13 112.5t74 90t126.5 37q109 0 174 -90q73 -103 45 -259q-39 -215 -255 -418q-29 -27 -60 -53zM113 748q0 92 66.5 158.5t158.5 66.5t158.5 -66.5t66.5 -158.5t-66.5 -159t-158.5 -67t-158.5 67t-66.5 159z" />
<glyph unicode="&#x3c;" d="M104 610l658 635l248 -248l-424 -385l426 -387l-246 -252z" />
<glyph unicode="=" d="M102 233v297h922v-297h-922zM102 684v297h922v-297h-922z" />
<glyph unicode="&#x3e;" d="M115 993l245 252l662 -637l-657 -635l-248 248l424 385z" />
<glyph unicode="?" horiz-adv-x="940" d="M88 1151l45 338q160 -2 289 -28.5t213.5 -69t141.5 -100.5t81.5 -121t24.5 -132q0 -62 -16.5 -115t-42.5 -89t-59 -70.5t-65.5 -59t-61.5 -54t-48 -57t-24.5 -67.5t9.5 -84h-364q-33 86 -26.5 155.5t36 115t73 86t83.5 68.5t69 63t29 69q0 76 -96.5 111.5t-290.5 40.5z M186 176q0 87 61.5 146t151.5 59t151.5 -59t61.5 -146t-61.5 -146t-151.5 -59t-151.5 59t-61.5 146z" />
<glyph unicode="@" horiz-adv-x="1964" d="M147 571q0 202 70 378.5t192 301t292 196t364 71.5q175 0 314.5 -48.5t230.5 -135.5t138.5 -205.5t47.5 -260.5q0 -294 -146 -448t-390 -154q-93 0 -148 42t-61 118h-9q-46 -73 -112.5 -116.5t-149.5 -43.5q-99 0 -159 81t-60 241q0 116 30 212.5t89.5 170.5t157 115.5 t225.5 41.5q70 0 139 -16t113 -39l-62 -362q-16 -91 -7.5 -124.5t50.5 -33.5q76 0 123 68.5t47 228.5q0 77 -22 141t-69.5 116t-131 81t-196.5 29q-117 0 -220.5 -43.5t-180 -121.5t-121 -194.5t-44.5 -255.5q0 -227 119 -341t391 -114q174 0 375 68l57 -283 q-111 -40 -242.5 -63t-236.5 -23q-199 0 -351.5 51t-250 146t-146.5 228t-49 300zM834 641q0 -54 6.5 -74t25.5 -20q37 0 75 65t65 203l12 64q-20 10 -47 10q-57 0 -97 -80t-40 -168z" />
<glyph unicode="A" horiz-adv-x="1312" d="M-23 0l441 1382h456l463 -1382h-415l-70 225h-430l-68 -225h-377zM510 524h250l-76 254q-32 109 -49 195h-4q-21 -104 -47 -197z" />
<glyph unicode="B" horiz-adv-x="1216" d="M98 0v1380q226 13 539 13q231 0 361 -90t130 -267q0 -94 -43.5 -170.5t-121.5 -117.5v-7q89 -31 145.5 -115t56.5 -184q0 -95 -36.5 -175.5t-107.5 -141t-184 -95t-257 -34.5q-23 0 -185 2t-297 2zM479 307q50 -4 103 -4q78 0 125 36t47 99q0 57 -45 92t-131 35 q-76 0 -99 -2v-256zM479 848q23 -2 82 -2q162 0 162 131q0 53 -40 83t-108 30q-29 0 -96 -5v-237z" />
<glyph unicode="C" horiz-adv-x="1107" d="M55 635q0 350 188.5 554t524.5 204q148 0 266 -37l-47 -348q-98 39 -219 39q-136 0 -214.5 -91.5t-78.5 -257.5q0 -183 74 -275.5t233 -92.5q120 0 205 43l51 -340q-140 -51 -327 -51q-113 0 -207 22t-160.5 58.5t-118.5 89t-83.5 109t-51.5 123t-27.5 127t-7.5 124.5z " />
<glyph unicode="D" horiz-adv-x="1333" d="M98 2v1376q236 13 498 13q125 0 226.5 -21t188.5 -69.5t146 -124.5t92 -190t33 -261q0 -349 -201.5 -542t-543.5 -193q-231 0 -439 12zM479 326q28 -7 88 -7q135 0 219 95t84 280q0 70 -6 122t-24.5 102t-50.5 81.5t-86 50.5t-128 19q-67 0 -96 -4v-739z" />
<glyph unicode="E" horiz-adv-x="983" d="M98 0v1382h809v-323h-428v-195h406v-311h-406v-223h428v-330h-809z" />
<glyph unicode="F" horiz-adv-x="942" d="M98 0v1382h789v-327h-408v-224h385v-313h-385v-518h-381z" />
<glyph unicode="G" horiz-adv-x="1359" d="M53 635q0 359 211 564.5t592 205.5q222 0 406 -57l-74 -349q-158 62 -346 62q-189 0 -282 -102.5t-93 -278.5q0 -168 83.5 -262t254.5 -94q45 0 78 10v420h381v-682q-219 -97 -498 -97q-352 0 -532.5 177t-180.5 483z" />
<glyph unicode="H" horiz-adv-x="1372" d="M98 0v1382h381v-503h414v503h381v-1382h-381v545h-414v-545h-381z" />
<glyph unicode="I" horiz-adv-x="577" d="M98 0v1382h381v-1382h-381z" />
<glyph unicode="J" horiz-adv-x="702" d="M0 -6v319q50 -16 104 -16q61 0 92 32t31 103v950h381v-958q0 -70 -11.5 -131.5t-41 -121t-75 -101.5t-118.5 -67.5t-167 -25.5q-105 0 -195 17z" />
<glyph unicode="K" horiz-adv-x="1259" d="M98 0v1382h381v-591l299 591h461l-395 -665l418 -717h-490l-293 631v-631h-381z" />
<glyph unicode="L" horiz-adv-x="884" d="M98 0v1382h381v-1042h381v-340h-762z" />
<glyph unicode="M" horiz-adv-x="1781" d="M14 0l230 1382h432l145 -487q42 -133 74 -313h4q38 195 78 319l145 481h420l227 -1382h-395l-76 475q-19 127 -41 342h-4q-48 -250 -88 -397l-116 -420h-344l-115 383q-68 234 -94 434h-4q-21 -244 -39 -375l-58 -442h-381z" />
<glyph unicode="N" horiz-adv-x="1404" d="M98 0v1382h500l258 -557q62 -134 102 -274q-14 132 -14 491v340h363v-1382h-498l-268 582q-71 158 -95 264q15 -154 15 -488v-358h-363z" />
<glyph unicode="O" horiz-adv-x="1435" d="M43 664q0 167 55.5 308t150.5 236.5t223 149t273 53.5q320 0 484 -181.5t164 -510.5q0 -167 -55.5 -308.5t-151 -237t-223.5 -149t-273 -53.5q-320 0 -483.5 182t-163.5 511zM449 700q0 -378 266 -378q126 0 199 94t73 266q0 185 -66 283t-200 98q-126 0 -199 -95 t-73 -268z" />
<glyph unicode="P" horiz-adv-x="1110" d="M98 0v1382q233 11 418 11q278 0 424.5 -117.5t146.5 -345.5q0 -102 -34.5 -192t-100.5 -161t-173 -112t-242 -41q-31 0 -58 2v-426h-381zM479 743q14 -2 29 -2q78 0 132 47t54 130q0 74 -43 119.5t-135 45.5q-21 0 -37 -2v-338z" />
<glyph unicode="Q" horiz-adv-x="1435" d="M43 664q0 167 55.5 308t150.5 236.5t223 149t273 53.5q320 0 484 -181.5t164 -510.5q0 -182 -59.5 -317.5t-153.5 -202.5q30 -1 75.5 -10t73.5 -11h13q30 0 88 6v-319q-92 -13 -155 -13h-32q-71 5 -136.5 24t-110.5 40t-108.5 38t-129.5 17h-68q-320 0 -483.5 182 t-163.5 511zM449 700q0 -378 266 -378q126 0 199 94t73 266q0 185 -66 283t-200 98q-126 0 -199 -95t-73 -268z" />
<glyph unicode="R" horiz-adv-x="1200" d="M98 0v1382q177 11 473 11q271 0 410 -103.5t139 -328.5q0 -126 -67 -231.5t-181 -147.5q57 -84 101 -160l244 -422h-463l-256 504h-19v-504h-381zM479 778q28 -4 64 -4q80 0 128 41.5t48 116.5q0 67 -40 107t-128 40q-48 0 -72 -4v-297z" />
<glyph unicode="S" horiz-adv-x="1028" d="M51 958q0 208 152.5 329.5t423.5 121.5q131 0 254 -27l-33 -329q-115 41 -236 41q-76 0 -113.5 -25.5t-37.5 -67.5q0 -35 29.5 -61.5t76.5 -46.5t103.5 -41.5t113 -53.5t103.5 -74t76.5 -112t29.5 -159q0 -206 -160 -343t-407 -137q-202 0 -342 35l33 363 q156 -66 317 -66q58 0 95.5 25t37.5 73q0 40 -28.5 68.5t-74 47t-100.5 37.5t-110 48.5t-100.5 71t-74 114t-28.5 168.5z" />
<glyph unicode="T" horiz-adv-x="1028" d="M25 1055v327h979v-327h-299v-1055h-381v1055h-299z" />
<glyph unicode="U" horiz-adv-x="1359" d="M98 500v882h381v-864q0 -116 44.5 -171.5t158.5 -55.5t158.5 53t44.5 184v854h377v-833q0 -293 -158 -435.5t-445 -142.5q-130 0 -228.5 27.5t-161 74t-101.5 115.5t-54.5 144t-15.5 168z" />
<glyph unicode="V" horiz-adv-x="1318" d="M-16 1382h409l211 -692q46 -148 64 -246h4q30 142 69 267l205 671h389l-448 -1382h-449z" />
<glyph unicode="W" horiz-adv-x="1945" d="M20 1382h404l127 -565q30 -132 43 -301h2q22 180 51 295l146 571h383l139 -551q40 -161 55 -303h2q22 164 55 322l115 532h383l-336 -1382h-463l-114 518q-31 133 -54 352h-2q-11 -162 -51 -338l-121 -532h-432z" />
<glyph unicode="X" horiz-adv-x="1374" d="M0 0l422 700l-397 682h440l217 -409l211 409h434l-391 -688l438 -694h-481l-219 418l-219 -418h-455z" />
<glyph unicode="Y" horiz-adv-x="1222" d="M-14 1382h413l129 -299q51 -117 82 -211h4q26 76 101 242l119 268h403l-438 -905v-477h-381v475z" />
<glyph unicode="Z" horiz-adv-x="1093" d="M88 0v301l381 664q25 41 53 77q-23 -2 -174 -2h-248v342h895v-315l-401 -659q-37 -56 -39 -58q20 2 231 2h220v-352h-918z" />
<glyph unicode="[" horiz-adv-x="688" d="M102 -436v2044h519v-301h-166v-1440h166v-303h-519z" />
<glyph unicode="\" horiz-adv-x="1093" d="M0 1550h375l719 -1880h-377z" />
<glyph unicode="]" horiz-adv-x="688" d="M68 -133h165v1440h-165v301h518v-2044h-518v303z" />
<glyph unicode="^" d="M86 799l330 583h278l346 -579l-262 -131l-229 452l-219 -452z" />
<glyph unicode="_" d="M0 -193h1126v-303h-1126v303z" />
<glyph unicode="`" horiz-adv-x="778" d="M96 1321l152 252l434 -252l-123 -207z" />
<glyph unicode="a" horiz-adv-x="1083" d="M51 289q0 80 28.5 142.5t78 103.5t121 67.5t151.5 37.5t176 11v23q0 49 -30.5 68.5t-102.5 19.5q-65 0 -150.5 -18t-158.5 -46l-53 281q84 30 195.5 49t215.5 19q133 0 223 -23t142 -70.5t74 -112.5t22 -157v-467q0 -141 8 -217h-348q0 82 8 129h-2 q-36 -71 -116.5 -112.5t-178.5 -41.5q-146 0 -224.5 90t-78.5 224zM408 326q0 -29 19.5 -49.5t53.5 -20.5q54 0 89.5 39.5t35.5 93.5v31q-115 0 -156.5 -22t-41.5 -72z" />
<glyph unicode="b" horiz-adv-x="1144" d="M96 31v1464h373v-356q0 -115 -14 -211h2q35 52 103.5 83t160.5 31q182 0 277.5 -127t95.5 -348q0 -123 -37 -229.5t-107.5 -188.5t-182 -129t-251.5 -47q-221 0 -420 58zM469 281q36 -9 72 -9q159 0 159 256q0 109 -24 156t-76 47q-55 0 -93 -61.5t-38 -173.5v-215z" />
<glyph unicode="c" horiz-adv-x="837" d="M49 477q0 92 20 174t63 154t107 124.5t156.5 82.5t206.5 30q99 0 184 -26l-51 -324q-73 29 -131 29q-164 0 -164 -219q0 -99 43.5 -150t120.5 -51q79 0 141 29l41 -316q-104 -39 -258 -39q-246 0 -362.5 131.5t-116.5 370.5z" />
<glyph unicode="d" horiz-adv-x="1144" d="M51 449q0 122 37 229.5t106 188.5t176 128t238 47q32 0 68 -4v457h373v-1495h-338q0 70 6 115h-4q-94 -142 -293 -142q-179 0 -274 128t-95 348zM444 489q0 -108 24.5 -156t76.5 -48q55 0 93 63t38 180v209q-31 8 -72 8q-160 0 -160 -256z" />
<glyph unicode="e" horiz-adv-x="1073" d="M49 496q0 237 140 391.5t378 154.5q115 0 202 -33.5t140.5 -95t80 -143t26.5 -180.5q0 -118 -15 -201h-575q11 -129 219 -129q147 0 301 62l33 -277q-200 -70 -393 -70q-537 0 -537 521zM424 631h229v13q0 61 -25 93q-28 35 -79 35q-54 0 -88 -39t-37 -102z" />
<glyph unicode="f" horiz-adv-x="739" d="M20 731v287h130v94q0 206 100 306t330 100q88 0 163 -17l-22 -303q-41 16 -94 16q-55 0 -80 -23t-25 -77v-96h174v-287h-174v-731h-372v731h-130z" />
<glyph unicode="g" horiz-adv-x="1130" d="M51 -199q0 64 41 129.5t96 92.5q-96 50 -96 161q0 65 37 120.5t92 76.5q-71 36 -112 106t-41 166q0 80 29.5 149.5t86 124t149 86t210.5 31.5q97 0 196 -26h346v-293h-94q4 -12 4 -43q0 -173 -113.5 -268t-332.5 -95h-37q-25 -13 -25 -34q0 -25 22.5 -31.5t111.5 -9.5 l114 -4q172 -6 262 -79t90 -229q0 -85 -41 -163t-114.5 -138.5t-186 -96.5t-245.5 -36q-217 0 -333 76t-116 227zM416 -125q0 -43 34.5 -69.5t102.5 -26.5q82 0 126 29.5t44 74.5q0 75 -92 78l-144 4h-30q-41 -41 -41 -90zM420 674q0 -49 29.5 -79t87.5 -30q52 0 81 28.5 t29 76.5q0 49 -29.5 78.5t-87.5 29.5q-52 0 -81 -28t-29 -76z" />
<glyph unicode="h" horiz-adv-x="1155" d="M96 0v1495h373v-373q0 -124 -18 -211h2q46 60 124.5 95.5t180.5 35.5q82 0 141.5 -25t93.5 -70.5t50 -101.5t16 -124v-721h-373v643q0 84 -57 84q-61 0 -110.5 -73t-49.5 -160v-494h-373z" />
<glyph unicode="i" horiz-adv-x="565" d="M59 1311q0 89 66 152t158 63t157.5 -63t65.5 -152t-65.5 -152t-157.5 -63t-158 63t-66 152zM96 0v1018h373v-1018h-373z" />
<glyph unicode="j" horiz-adv-x="567" d="M-139 -469l18 313q58 -22 113 -22q56 0 81 27.5t25 84.5v1084h373v-1041q0 -466 -459 -466q-76 0 -151 20zM59 1311q0 89 66 152t158 63t157.5 -63t65.5 -152t-65.5 -152t-157.5 -63t-158 63t-66 152z" />
<glyph unicode="k" horiz-adv-x="1157" d="M96 0v1495h373v-868l209 391h459l-310 -467l330 -551h-461l-227 471v-471h-373z" />
<glyph unicode="l" horiz-adv-x="565" d="M96 0v1495h373v-1495h-373z" />
<glyph unicode="m" horiz-adv-x="1736" d="M96 0v1018h346q0 -71 -10 -137h2q48 75 130.5 118t183.5 43q215 0 276 -161q43 75 124.5 118t182.5 43q153 0 231 -87.5t78 -260.5v-694h-372v631q0 96 -58 96q-56 0 -106.5 -71t-50.5 -164v-492h-369v631q0 96 -57 96t-107.5 -71t-50.5 -164v-492h-373z" />
<glyph unicode="n" horiz-adv-x="1155" d="M96 0v1018h344q0 -79 -10 -135h2q51 73 133 116t193 43q82 0 141.5 -25t93.5 -70.5t50 -101.5t16 -124v-721h-373v643q0 84 -57 84q-61 0 -110.5 -72.5t-49.5 -158.5v-496h-373z" />
<glyph unicode="o" horiz-adv-x="1155" d="M47 479q0 127 43 233.5t118 178t177 111.5t219 40q248 0 376 -132t128 -378q0 -166 -75 -294t-200.5 -195.5t-279.5 -67.5q-506 0 -506 504zM434 520q0 -119 32 -170t107 -51q71 0 109.5 57t38.5 154q0 111 -32 162t-107 51q-61 0 -104.5 -51.5t-43.5 -151.5z" />
<glyph unicode="p" horiz-adv-x="1144" d="M96 -477v1495h338q0 -70 -4 -115h4q88 139 291 139q179 0 274 -126.5t95 -346.5q0 -131 -33 -236.5t-99 -185t-173 -122.5t-248 -43q-45 0 -72 6v-465h-373zM469 281q45 -9 72 -9q159 0 159 256q0 109 -24 157t-76 48q-55 0 -93 -63.5t-38 -180.5v-208z" />
<glyph unicode="q" horiz-adv-x="1144" d="M51 446q0 98 22.5 186.5t70 163.5t115.5 129.5t163.5 85.5t210.5 31q214 0 416 -34v-1485h-373v362q0 120 14 221h-4q-37 -63 -104 -98t-152 -35q-186 0 -282.5 121t-96.5 352zM444 489q0 -108 24 -156t75 -48q56 0 94.5 65t38.5 187v202q-48 6 -72 6q-160 0 -160 -256z " />
<glyph unicode="r" horiz-adv-x="729" d="M96 0v1018h344q0 -60 -10 -152h2q95 178 275 178h12l-19 -368q-39 10 -71 10q-64 0 -102 -40q-58 -60 -58 -220v-426h-373z" />
<glyph unicode="s" horiz-adv-x="829" d="M55 690q0 155 118 254.5t353 99.5q82 0 170 -16l-8 -287q-77 25 -168 25q-76 0 -76 -47q0 -21 25 -39t62 -31.5t81 -38.5t81 -56.5t62 -88.5t25 -131q0 -168 -130.5 -263.5t-344.5 -95.5q-115 0 -225 29l16 299q87 -43 205 -43q39 0 60.5 12t21.5 33q0 22 -18 38.5 t-47 29t-64 26.5t-70 36.5t-64 53t-47 82.5t-18 119z" />
<glyph unicode="t" horiz-adv-x="778" d="M20 731v287h130v287l372 100v-387h191v-287h-191v-342q0 -57 20 -80.5t66 -23.5q48 0 94 12l21 -289q-136 -33 -246 -33q-188 0 -257.5 71t-69.5 267v418h-130z" />
<glyph unicode="u" horiz-adv-x="1150" d="M94 297v721h373v-643q0 -84 57 -84q61 0 110.5 72.5t49.5 158.5v496h373v-1018h-344q0 79 10 135h-2q-112 -160 -326 -160q-82 0 -141.5 25.5t-93.5 71t-50 101.5t-16 124z" />
<glyph unicode="v" horiz-adv-x="1095" d="M-10 1018h405l82 -244q55 -167 80 -272h4q31 139 70 262l80 254h395l-369 -1018h-377z" />
<glyph unicode="w" horiz-adv-x="1638" d="M0 1018h403l41 -158q63 -237 91 -364h4q28 176 77 344l50 178h333l48 -158q62 -212 92 -364h4q35 204 71 344l46 178h378l-309 -1018h-393l-68 238q-31 104 -61 262h-2q-20 -107 -64 -256l-69 -244h-365z" />
<glyph unicode="x" horiz-adv-x="1110" d="M-6 0l317 518l-295 500h439l118 -268l117 268h408l-271 -502l289 -516h-461l-110 272l-111 -272h-440z" />
<glyph unicode="y" horiz-adv-x="1093" d="M-16 -477l43 315q71 -22 141 -22q31 0 63 9.5t66 39.5t47 76l16 59l-360 1018h410l59 -187q43 -133 82 -319h4q47 205 92 336l58 170h399l-387 -1034q-54 -143 -113 -237.5t-129.5 -147t-144 -73t-170.5 -20.5q-76 0 -176 17z" />
<glyph unicode="z" horiz-adv-x="931" d="M86 0v266l295 420q-28 -4 -143 -4h-140v336h742v-268l-283 -410q25 2 164 2h125v-342h-760z" />
<glyph unicode="{" horiz-adv-x="802" d="M49 494v274q44 2 75 11t58.5 31.5t41.5 67t14 111.5v86q0 290 105 411.5t343 121.5h53v-301q-65 0 -95 -15t-44 -63.5t-14 -153.5v-86q0 -96 -14.5 -165t-42 -108t-59 -58t-71.5 -25v-4q187 -26 187 -369v-156q0 -105 14 -154.5t44 -66t95 -16.5v-303h-53 q-237 0 -342.5 124t-105.5 414v158q0 128 -50 179.5t-139 54.5z" />
<glyph unicode="|" horiz-adv-x="598" d="M143 -477v2048h297v-2048h-297z" />
<glyph unicode="}" horiz-adv-x="802" d="M63 -133q49 0 76 7.5t46 33.5t25.5 71.5t6.5 124.5v156q0 343 186 369v4q-40 6 -71.5 25t-58.5 58t-41.5 108t-14.5 165v86q0 79 -6.5 124t-26 69.5t-46 31.5t-75.5 7v301h54q238 0 343 -121.5t105 -411.5v-86q0 -67 14 -111.5t41.5 -67t58.5 -31.5t75 -11v-274 q-89 -3 -139 -54.5t-50 -179.5v-158q0 -290 -105.5 -414t-342.5 -124h-54v303z" />
<glyph unicode="~" d="M51 852v61q0 168 97 267.5t262 99.5q67 0 119 -20.5t80.5 -49t50 -57.5t41 -49.5t40.5 -20.5q31 0 44.5 32t13.5 110h276v-62q0 -168 -96.5 -267t-261.5 -99q-57 0 -103 14.5t-73.5 36.5t-51 47t-38 47t-31.5 36.5t-35 14.5q-31 0 -44 -31t-13 -110h-277z" />
<glyph unicode="&#xa1;" horiz-adv-x="663" d="M98 -446l52 1021h327l58 -1021h-437zM106 842q0 87 61.5 146t151.5 59t151.5 -59t61.5 -146t-61.5 -146t-151.5 -59t-151.5 59t-61.5 146z" />
<glyph unicode="&#xa2;" d="M133 662q0 187 98.5 318t286.5 183v168h275v-157q74 -5 178 -35l-78 -295q-74 33 -170 33q-89 0 -144 -53.5t-55 -145.5q0 -87 59.5 -135.5t143.5 -48.5q95 0 170 41l88 -295q-83 -40 -192 -52v-188h-275v188q-192 27 -288.5 156t-96.5 318z" />
<glyph unicode="&#xa3;" d="M80 522v287h129q-8 78 -8 102q0 239 135 344t387 105q109 0 264 -31l-76 -311q-112 35 -202 35q-129 0 -129 -117q0 -41 8 -127h282v-287h-249q2 -10 2 -39q0 -106 -64 -170q86 4 129 4h344v-317h-907v252q121 83 121 227q0 31 -2 43h-164z" />
<glyph unicode="&#xa4;" d="M37 268l127 162q-53 89 -53 232q0 140 63 241l-135 178l293 203l137 -186q65 10 119 10q30 0 84 -4l129 184l293 -211l-123 -159q45 -92 45 -226q0 -130 -66 -239l144 -185l-295 -209l-146 197q-58 -10 -112 -10q-24 0 -74 4l-133 -187zM430 676q0 -75 33.5 -119.5 t95.5 -44.5q58 0 97.5 39t39.5 133q0 83 -32 120.5t-99 37.5q-54 0 -94.5 -42t-40.5 -124z" />
<glyph unicode="&#xa5;" d="M0 1331h412l94 -239q34 -86 57 -168h4q9 28 62 163l96 244h401l-284 -606h198v-227h-288v-88h288v-228h-288v-182h-377v182h-289v228h289v88h-289v227h201z" />
<glyph unicode="&#xa6;" horiz-adv-x="598" d="M143 297h297v-774h-297v774zM143 817v754h297v-754h-297z" />
<glyph unicode="&#xa7;" horiz-adv-x="1114" d="M84 627q0 94 42 176t110 129q-72 84 -72 211q0 61 16.5 114.5t55 102t97 83t148.5 55t203 20.5q104 0 186 -15l-16 -309q-64 20 -149 20q-74 0 -106 -15.5t-32 -51.5q0 -26 24.5 -53t63.5 -55t86.5 -60t94.5 -74.5t86 -92.5t63.5 -120.5t24.5 -150.5q0 -92 -44 -174.5 t-110 -130.5q74 -84 74 -216q0 -55 -17.5 -105.5t-60 -99.5t-106 -85t-163 -58t-223.5 -22q-90 0 -182 18l21 312q77 -23 161 -23t124 22.5t40 55.5q0 29 -24.5 56.5t-63 53.5t-85.5 56t-94 70t-85.5 87.5t-63 117t-24.5 151.5zM416 674q0 -58 40.5 -104.5t190.5 -157.5 q33 30 33 80q0 30 -8 53t-31.5 48.5t-44 42.5t-67.5 54.5t-80 65.5q-33 -33 -33 -82z" />
<glyph unicode="&#xa8;" horiz-adv-x="1118" d="M131 1311q0 77 54.5 131.5t131.5 54.5t132 -55t55 -131q0 -77 -55 -132t-132 -55q-76 0 -131 55t-55 132zM575 1311q0 76 55 131t132 55q76 0 131 -54.5t55 -131.5t-55 -132t-131 -55t-131.5 55t-55.5 132z" />
<glyph unicode="&#xa9;" horiz-adv-x="1576" d="M70 680q0 146 57 279.5t153 229.5t229 153t279 57t279.5 -57t229.5 -153t153 -229.5t57 -279.5t-57 -279.5t-153 -229.5t-229.5 -153t-279.5 -57t-279 57t-229 153t-153 229.5t-57 279.5zM342 680q0 -185 131 -316t315 -131t315.5 131.5t131.5 315.5t-131 315t-316 131 q-184 0 -315 -131t-131 -315zM444 676q0 162 94.5 266.5t268.5 104.5q106 0 178 -37l-45 -236q-14 15 -42 25t-60 10q-97 0 -97 -131q0 -56 23 -82.5t61 -26.5q66 0 117 29l55 -231q-95 -50 -217 -50q-145 0 -240.5 96t-95.5 263z" />
<glyph unicode="&#xaa;" horiz-adv-x="870" d="M55 817q0 79 35.5 137.5t97 90t132.5 46t153 13.5v22q0 26 -20 41t-80 15q-116 0 -238 -56l-29 234q142 49 314 49q95 0 163 -20.5t105 -57t53.5 -80t16.5 -96.5v-375q0 -96 4 -168h-266q0 59 6 88h-2q-26 -52 -83 -82t-124 -30q-119 0 -178.5 63t-59.5 166zM80 254v287 h706v-287h-706zM322 856q0 -21 15 -35t40 -14q42 0 69 29t27 69v23q-78 0 -114.5 -14.5t-36.5 -57.5z" />
<glyph unicode="&#xab;" horiz-adv-x="1167" d="M49 596l211 444l295 -120l-154 -324l160 -317l-307 -123zM569 596l236 428l285 -125l-168 -303l174 -297l-297 -127z" />
<glyph unicode="&#xac;" d="M72 455v311h952v-594h-334v283h-618z" />
<glyph unicode="&#xad;" horiz-adv-x="696" d="M82 391v297h532v-297h-532z" />
<glyph unicode="&#xae;" horiz-adv-x="1159" d="M59 1092q0 141 70 257.5t189.5 183t261.5 66.5t261 -66.5t189 -183t70 -257.5t-70 -258t-189 -183.5t-261 -66.5t-261.5 66.5t-189.5 183.5t-70 258zM270 1092q0 -128 91 -219t219 -91q127 0 218 91t91 219t-90.5 218.5t-218.5 90.5t-219 -91t-91 -218zM389 872v441h229 q84 0 125 -35.5t41 -97.5q0 -84 -63 -121q12 -12 22 -45l43 -142h-184l-33 144h-22v-144h-158zM547 1124h14q20 0 32.5 9.5t12.5 27.5q0 35 -43 35h-16v-72z" />
<glyph unicode="&#xaf;" horiz-adv-x="808" d="M102 1178v266h605v-266h-605z" />
<glyph unicode="&#xb0;" horiz-adv-x="829" d="M53 1208q0 75 31.5 137.5t83.5 102.5t115.5 62t128.5 22q91 0 159.5 -25t108.5 -70t59 -100.5t19 -122.5q0 -106 -53.5 -182.5t-134.5 -111.5t-177 -35q-159 0 -249.5 85.5t-90.5 237.5zM319 1210q0 -45 24.5 -70.5t64.5 -25.5t62 29t22 74q0 36 -23 63t-57 27 q-41 0 -67 -27t-26 -70z" />
<glyph unicode="&#xb1;" d="M72 741v308h313v333h356v-333h314v-308h-314v-335h-356v335h-313zM84 0v311h958v-311h-958z" />
<glyph unicode="&#xb2;" horiz-adv-x="675" d="M76 717v201l71 51q117 86 117 129q0 19 -10 27t-33 8q-48 0 -110 -27l-31 213q136 37 233 37q147 0 212 -55.5t65 -145.5q0 -51 -32.5 -99.5t-108.5 -105.5l-25 -18h176v-215h-524z" />
<glyph unicode="&#xb3;" horiz-adv-x="655" d="M70 711l22 168q43 -15 101 -15q81 0 81 43q0 66 -170 37v152h9q88 0 119.5 14t31.5 41q0 18 -11.5 25.5t-41.5 7.5q-67 0 -113 -27l-24 166q106 33 223 33q145 0 208.5 -48.5t63.5 -123.5q0 -110 -92 -152q51 -4 84 -43.5t33 -83.5q0 -101 -85.5 -157t-260.5 -56 q-86 0 -178 19z" />
<glyph unicode="&#xb4;" horiz-adv-x="819" d="M199 1319l434 254l151 -252l-462 -207z" />
<glyph unicode="&#xb5;" horiz-adv-x="1292" d="M96 -477v1495h373v-643q0 -84 57 -84q70 0 115 66t45 173v488h373v-637q0 -84 9.5 -108.5t37.5 -24.5q32 0 72 43l114 -176q-58 -68 -132.5 -104t-186.5 -36q-60 0 -104 13t-69 37t-38 48t-21 54h-2q-72 -141 -231 -141q-42 0 -74 16l55 -479h-393z" />
<glyph unicode="&#xb6;" horiz-adv-x="1273" d="M78 901q0 151 69 261t188 165t275 55v-960q-138 0 -242.5 38.5t-166.5 105.5t-92.5 151.5t-30.5 183.5zM643 106h133v1276h422v-303h-117v-1276h-438v303z" />
<glyph unicode="&#xb7;" horiz-adv-x="655" d="M102 610q0 92 67 159t159 67t158.5 -67t66.5 -159t-66.5 -158.5t-158.5 -66.5t-159 66.5t-67 158.5z" />
<glyph unicode="&#xb8;" horiz-adv-x="819" d="M213 -477q46 51 62.5 98t3 102t-61.5 119l299 78q53 -77 64 -151t-15.5 -135t-85.5 -111h-266z" />
<glyph unicode="&#xb9;" horiz-adv-x="675" d="M68 1270l184 61h276v-614h-295v395l-120 -45z" />
<glyph unicode="&#xba;" horiz-adv-x="890" d="M51 989q0 196 119 309t293 113q186 0 281.5 -101t95.5 -302q0 -188 -118.5 -303t-297.5 -115q-78 0 -143 21.5t-117.5 67t-82.5 124.5t-30 186zM80 254v287h731v-287h-731zM336 999q0 -74 26 -116.5t78 -42.5q49 0 81 36t32 123q0 84 -25.5 122t-83.5 38 q-45 0 -76.5 -38.5t-31.5 -121.5z" />
<glyph unicode="&#xbb;" horiz-adv-x="1167" d="M72 897l297 127l229 -424l-236 -428l-284 125l168 303zM606 918l307 122l205 -440l-211 -444l-295 120l154 324z" />
<glyph unicode="&#xbc;" horiz-adv-x="1499" d="M70 117l1083 1317l229 -168l-1083 -1317zM70 1317l163 65h261v-663h-299v401l-84 -37zM778 266l193 398h415v-367h74v-215h-74v-82h-286v82h-309zM1008 293h88v188z" />
<glyph unicode="&#xbd;" horiz-adv-x="1499" d="M70 117l1083 1317l229 -168l-1083 -1317zM70 1317l163 65h261v-663h-299v401l-84 -37zM903 0v231l68 45q112 75 112 123q0 20 -9 26.5t-32 6.5q-56 0 -104 -22l-29 233q121 41 238 41q139 0 201.5 -55.5t62.5 -149.5q0 -57 -28 -109.5t-95 -113.5l-22 -20q51 4 153 4 v-240h-516z" />
<glyph unicode="&#xbe;" horiz-adv-x="1519" d="M84 713l22 188q52 -14 117 -14q34 0 55 11t21 28q0 12 -11.5 21.5t-51.5 17t-117 -8.5v170q67 0 109 11t54.5 23.5t12.5 27.5q0 29 -53 29q-67 0 -129 -29l-27 180q107 35 242 35q140 0 203 -49.5t63 -128.5q0 -92 -98 -152q47 -15 77.5 -56t30.5 -91q0 -105 -85 -166.5 t-259 -61.5q-92 0 -176 15zM92 117l1084 1317l229 -168l-1083 -1317zM801 266l192 398h416v-367h74v-215h-74v-82h-287v82h-309zM1030 293h88v188z" />
<glyph unicode="&#xbf;" horiz-adv-x="940" d="M57 -20q0 55 13 103.5t34.5 82.5t49.5 66.5t57 55.5t57.5 49t51.5 48t38 52.5t17 62t-10 75.5h364q33 -86 26.5 -155.5t-36 -115t-73 -86t-83.5 -68.5t-69 -63t-29 -69q0 -76 96.5 -111t290.5 -40l-45 -338q-160 2 -289 28.5t-213.5 69t-141.5 100.5t-81.5 121t-24.5 132 zM328 842q0 87 61.5 146t151.5 59t151.5 -59t61.5 -146t-61.5 -146t-151.5 -59t-151.5 59t-61.5 146z" />
<glyph unicode="&#xc0;" horiz-adv-x="1312" d="M-23 0l441 1382h456l463 -1382h-415l-70 225h-430l-68 -225h-377zM299 1540l72 252l499 -156l-53 -196zM510 524h250l-76 254q-32 109 -49 195h-4q-21 -104 -47 -197z" />
<glyph unicode="&#xc1;" horiz-adv-x="1312" d="M-23 0l441 1382h456l463 -1382h-415l-70 225h-430l-68 -225h-377zM418 1636l500 156l71 -252l-518 -100zM510 524h250l-76 254q-32 109 -49 195h-4q-21 -104 -47 -197z" />
<glyph unicode="&#xc2;" horiz-adv-x="1312" d="M-23 0l441 1382h456l463 -1382h-415l-70 225h-430l-68 -225h-377zM287 1616l360 178l361 -170l-78 -184l-291 98l-281 -96zM510 524h250l-76 254q-32 109 -49 195h-4q-21 -104 -47 -197z" />
<glyph unicode="&#xc3;" horiz-adv-x="1312" d="M-23 0l441 1382h456l463 -1382h-415l-70 225h-430l-68 -225h-377zM233 1589q111 195 297 195q48 0 89 -13t63 -28t47.5 -28t48.5 -13q35 0 58.5 19t46.5 61l180 -119q-111 -195 -297 -195q-48 0 -89 13t-63 28t-47.5 28t-48.5 13q-35 0 -58 -19t-46 -61zM510 524h250 l-76 254q-32 109 -49 195h-4q-21 -104 -47 -197z" />
<glyph unicode="&#xc4;" horiz-adv-x="1312" d="M-23 0l441 1382h456l463 -1382h-415l-70 225h-430l-68 -225h-377zM244 1620q0 74 52 126t126 52t126 -52t52 -126q0 -73 -52 -124.5t-126 -51.5t-126 51.5t-52 124.5zM510 524h250l-76 254q-32 109 -49 195h-4q-21 -104 -47 -197zM690 1620q0 74 52 126t126 52 t126.5 -52.5t52.5 -125.5t-52.5 -124.5t-126.5 -51.5t-126 51.5t-52 124.5z" />
<glyph unicode="&#xc5;" horiz-adv-x="1312" d="M-23 0l441 1382h456l463 -1382h-415l-70 225h-430l-68 -225h-377zM383 1710q0 111 78 183.5t192 72.5t193.5 -72.5t79.5 -183.5t-79.5 -183.5t-193.5 -72.5t-192 72.5t-78 183.5zM510 524h250l-76 254q-32 109 -49 195h-4q-21 -104 -47 -197zM565 1710q0 -35 26.5 -61.5 t61.5 -26.5t62.5 26.5t27.5 61.5t-27.5 61.5t-62.5 26.5t-61.5 -26.5t-26.5 -61.5z" />
<glyph unicode="&#xc6;" horiz-adv-x="1622" d="M-66 0l613 1382h991v-323h-424v-195h410v-311h-410v-223h432v-330h-796v264h-324l-107 -264h-385zM547 559h203v504h-2q-57 -155 -117 -301z" />
<glyph unicode="&#xc7;" horiz-adv-x="1107" d="M55 635q0 350 188.5 554t524.5 204q148 0 266 -37l-47 -348q-98 39 -219 39q-136 0 -214.5 -91.5t-78.5 -257.5q0 -183 74 -275.5t233 -92.5q120 0 205 43l51 -340q-140 -51 -327 -51q-113 0 -207 22t-160.5 58.5t-118.5 89t-83.5 109t-51.5 123t-27.5 127t-7.5 124.5z M453 -477q46 51 62.5 98t3 102t-61.5 119l299 78q53 -77 64 -151t-15.5 -135t-85.5 -111h-266z" />
<glyph unicode="&#xc8;" horiz-adv-x="983" d="M98 0v1382h809v-323h-428v-195h406v-311h-406v-223h428v-330h-809zM147 1540l72 252l500 -156l-53 -196z" />
<glyph unicode="&#xc9;" horiz-adv-x="983" d="M98 0v1382h809v-323h-428v-195h406v-311h-406v-223h428v-330h-809zM270 1636l500 156l72 -252l-518 -100z" />
<glyph unicode="&#xca;" horiz-adv-x="983" d="M98 0v1382h809v-323h-428v-195h406v-311h-406v-223h428v-330h-809zM141 1616l361 178l360 -170l-78 -184l-290 98l-281 -96z" />
<glyph unicode="&#xcb;" horiz-adv-x="983" d="M98 0v1382h809v-323h-428v-195h406v-311h-406v-223h428v-330h-809zM98 1620q0 74 52 126t126 52t126.5 -52.5t52.5 -125.5t-52.5 -124.5t-126.5 -51.5t-126 51.5t-52 124.5zM545 1620q0 74 52.5 126t125.5 52t125.5 -52t52.5 -126q0 -73 -52 -124.5t-126 -51.5t-126 51.5 t-52 124.5z" />
<glyph unicode="&#xcc;" horiz-adv-x="577" d="M-57 1540l71 252l500 -156l-53 -196zM98 0v1382h381v-1382h-381z" />
<glyph unicode="&#xcd;" horiz-adv-x="577" d="M63 1636l500 156l72 -252l-518 -100zM98 0v1382h381v-1382h-381z" />
<glyph unicode="&#xce;" horiz-adv-x="577" d="M-70 1616l361 178l360 -170l-78 -184l-290 98l-281 -96zM98 0v1382h381v-1382h-381z" />
<glyph unicode="&#xcf;" horiz-adv-x="577" d="M-115 1620q0 74 52.5 126t125.5 52q74 0 126.5 -52.5t52.5 -125.5t-52.5 -124.5t-126.5 -51.5t-126 51.5t-52 124.5zM98 0v1382h381v-1382h-381zM332 1620q0 74 52 126t126 52t126 -52t52 -126q0 -73 -52 -124.5t-126 -51.5t-126 51.5t-52 124.5z" />
<glyph unicode="&#xd0;" horiz-adv-x="1353" d="M12 549v287h107v542q236 13 497 13q103 0 191 -15t166 -46.5t138 -84t103.5 -125t66 -172.5t22.5 -223q0 -341 -197 -537.5t-549 -197.5q-229 0 -438 12v547h-107zM494 326q32 -7 90 -7q138 0 222.5 94.5t84.5 280.5q0 71 -6 123t-25 102t-51 81t-86.5 50t-130.5 19 q-67 0 -98 -4v-229h186v-287h-186v-223z" />
<glyph unicode="&#xd1;" horiz-adv-x="1404" d="M98 0v1382h500l258 -557q62 -134 102 -274q-14 132 -14 491v340h363v-1382h-498l-268 582q-71 158 -95 264q15 -154 15 -488v-358h-363zM293 1589q111 195 297 195q48 0 89 -13t63 -28t47.5 -28t48.5 -13q35 0 58 19t46 61l180 -119q-111 -195 -297 -195q-48 0 -88.5 13 t-62.5 28t-47.5 28t-48.5 13q-35 0 -58.5 -19t-46.5 -61z" />
<glyph unicode="&#xd2;" horiz-adv-x="1435" d="M43 664q0 167 55.5 308t150.5 236.5t223 149t273 53.5q320 0 484 -181.5t164 -510.5q0 -167 -55.5 -308.5t-151 -237t-223.5 -149t-273 -53.5q-320 0 -483.5 182t-163.5 511zM381 1540l72 252l499 -156l-53 -196zM449 700q0 -378 266 -378q126 0 199 94t73 266 q0 185 -66 283t-200 98q-126 0 -199 -95t-73 -268z" />
<glyph unicode="&#xd3;" horiz-adv-x="1435" d="M43 664q0 167 55.5 308t150.5 236.5t223 149t273 53.5q320 0 484 -181.5t164 -510.5q0 -167 -55.5 -308.5t-151 -237t-223.5 -149t-273 -53.5q-320 0 -483.5 182t-163.5 511zM449 700q0 -378 266 -378q126 0 199 94t73 266q0 185 -66 283t-200 98q-126 0 -199 -95 t-73 -268zM512 1636l500 156l71 -252l-518 -100z" />
<glyph unicode="&#xd4;" horiz-adv-x="1435" d="M43 664q0 167 55.5 308t150.5 236.5t223 149t273 53.5q320 0 484 -181.5t164 -510.5q0 -167 -55.5 -308.5t-151 -237t-223.5 -149t-273 -53.5q-320 0 -483.5 182t-163.5 511zM379 1616l360 178l361 -170l-78 -184l-291 98l-280 -96zM449 700q0 -378 266 -378 q126 0 199 94t73 266q0 185 -66 283t-200 98q-126 0 -199 -95t-73 -268z" />
<glyph unicode="&#xd5;" horiz-adv-x="1435" d="M43 664q0 167 55.5 308t150.5 236.5t223 149t273 53.5q320 0 484 -181.5t164 -510.5q0 -167 -55.5 -308.5t-151 -237t-223.5 -149t-273 -53.5q-320 0 -483.5 182t-163.5 511zM309 1589q111 195 297 195q48 0 89 -13t63 -28t47.5 -28t48.5 -13q35 0 58 19t46 61l181 -119 q-111 -195 -297 -195q-48 0 -89 13t-63 28t-47.5 28t-48.5 13q-35 0 -58.5 -19t-46.5 -61zM449 700q0 -378 266 -378q126 0 199 94t73 266q0 185 -66 283t-200 98q-126 0 -199 -95t-73 -268z" />
<glyph unicode="&#xd6;" horiz-adv-x="1435" d="M43 664q0 167 55.5 308t150.5 236.5t223 149t273 53.5q320 0 484 -181.5t164 -510.5q0 -167 -55.5 -308.5t-151 -237t-223.5 -149t-273 -53.5q-320 0 -483.5 182t-163.5 511zM332 1620q0 74 52 126t126 52t126 -52t52 -126q0 -73 -52 -124.5t-126 -51.5t-126 51.5 t-52 124.5zM449 700q0 -378 266 -378q126 0 199 94t73 266q0 185 -66 283t-200 98q-126 0 -199 -95t-73 -268zM778 1620q0 74 52 126t126 52t126.5 -52.5t52.5 -125.5t-52.5 -124.5t-126.5 -51.5t-126 51.5t-52 124.5z" />
<glyph unicode="&#xd7;" d="M72 319l274 277l-274 274l229 230l274 -275l277 275l203 -203l-277 -274l277 -277l-230 -229l-276 276l-275 -276z" />
<glyph unicode="&#xd8;" horiz-adv-x="1435" d="M43 672q0 164 55.5 303t150.5 234t223.5 148.5t272.5 53.5q70 0 156 -14l103 205l260 -117l-99 -199q228 -176 228 -571q0 -220 -94 -391t-253.5 -262t-355.5 -91q-84 0 -174 17l-98 -199l-258 119l98 196q-215 176 -215 568zM432 700q0 -42 6.5 -98.5t9.5 -79.5t-4 -55 l299 608h-2q-4 0 -12 1t-12 1q-55 0 -104.5 -21.5t-90.5 -65t-65.5 -118.5t-24.5 -172zM676 309q5 0 16.5 -1t16.5 -1q52 0 100.5 19t94 61t73 121.5t27.5 187.5q0 54 -8 113t-12.5 80t1.5 49z" />
<glyph unicode="&#xd9;" horiz-adv-x="1359" d="M98 500v882h381v-864q0 -116 44.5 -171.5t158.5 -55.5t158.5 53t44.5 184v854h377v-833q0 -293 -158 -435.5t-445 -142.5q-130 0 -228.5 27.5t-161 74t-101.5 115.5t-54.5 144t-15.5 168zM270 1540l72 252l500 -156l-54 -196z" />
<glyph unicode="&#xda;" horiz-adv-x="1359" d="M98 500v882h381v-864q0 -116 44.5 -171.5t158.5 -55.5t158.5 53t44.5 184v854h377v-833q0 -293 -158 -435.5t-445 -142.5q-130 0 -228.5 27.5t-161 74t-101.5 115.5t-54.5 144t-15.5 168zM563 1636l500 156l72 -252l-519 -100z" />
<glyph unicode="&#xdb;" horiz-adv-x="1359" d="M98 500v882h381v-864q0 -116 44.5 -171.5t158.5 -55.5t158.5 53t44.5 184v854h377v-833q0 -293 -158 -435.5t-445 -142.5q-130 0 -228.5 27.5t-161 74t-101.5 115.5t-54.5 144t-15.5 168zM324 1616l360 178l360 -170l-77 -184l-291 98l-281 -96z" />
<glyph unicode="&#xdc;" horiz-adv-x="1359" d="M98 500v882h381v-864q0 -116 44.5 -171.5t158.5 -55.5t158.5 53t44.5 184v854h377v-833q0 -293 -158 -435.5t-445 -142.5q-130 0 -228.5 27.5t-161 74t-101.5 115.5t-54.5 144t-15.5 168zM279 1620q0 74 52.5 126t125.5 52t125.5 -52t52.5 -126q0 -73 -52 -124.5 t-126 -51.5t-126 51.5t-52 124.5zM725 1620q0 74 52.5 126t125.5 52t125.5 -52t52.5 -126q0 -73 -52 -124.5t-126 -51.5t-126 51.5t-52 124.5z" />
<glyph unicode="&#xdd;" horiz-adv-x="1222" d="M-14 1382h413l129 -299q51 -117 82 -211h4q26 76 101 242l119 268h403l-438 -905v-477h-381v475zM471 1636l500 156l71 -252l-518 -100z" />
<glyph unicode="&#xde;" horiz-adv-x="1155" d="M98 0v1382h381v-170q78 5 119 5q252 0 393.5 -121t141.5 -355q0 -107 -39.5 -201t-112 -165t-184 -112.5t-246.5 -41.5q-49 0 -72 2v-223h-381zM479 537q47 -7 84 -7q74 0 125 49t51 144q0 80 -45.5 132t-140.5 52q-20 0 -74 -4v-366z" />
<glyph unicode="&#xdf;" horiz-adv-x="1288" d="M96 0v995q0 109 28.5 197t78 147t118.5 99t146.5 57.5t165.5 17.5q139 0 246 -37.5t171 -116t64 -188.5q0 -68 -18.5 -120.5t-45 -84t-53 -57.5t-45 -56.5t-18.5 -66.5q0 -28 23.5 -54t58.5 -46t76.5 -51.5t76.5 -66.5t58.5 -93.5t23.5 -130.5q0 -171 -126 -272 t-320 -101q-154 0 -240 39l17 295q87 -51 186 -51q94 0 94 57q0 28 -23 52.5t-57 43t-74.5 48t-74.5 62.5t-57 90.5t-23 129.5q0 65 17.5 117.5t42 87.5t49 66t42 67t17.5 76q0 36 -24.5 56t-71.5 20q-72 0 -114 -56.5t-42 -160.5v-1010h-373z" />
<glyph unicode="&#xe0;" horiz-adv-x="1083" d="M51 289q0 80 28.5 142.5t78 103.5t121 67.5t151.5 37.5t176 11v23q0 49 -30.5 68.5t-102.5 19.5q-65 0 -150.5 -18t-158.5 -46l-53 281q84 30 195.5 49t215.5 19q133 0 223 -23t142 -70.5t74 -112.5t22 -157v-467q0 -141 8 -217h-348q0 82 8 129h-2 q-36 -71 -116.5 -112.5t-178.5 -41.5q-146 0 -224.5 90t-78.5 224zM190 1321l152 252l434 -252l-123 -207zM408 326q0 -29 19.5 -49.5t53.5 -20.5q54 0 89.5 39.5t35.5 93.5v31q-115 0 -156.5 -22t-41.5 -72z" />
<glyph unicode="&#xe1;" horiz-adv-x="1083" d="M51 289q0 80 28.5 142.5t78 103.5t121 67.5t151.5 37.5t176 11v23q0 49 -30.5 68.5t-102.5 19.5q-65 0 -150.5 -18t-158.5 -46l-53 281q84 30 195.5 49t215.5 19q133 0 223 -23t142 -70.5t74 -112.5t22 -157v-467q0 -141 8 -217h-348q0 82 8 129h-2 q-36 -71 -116.5 -112.5t-178.5 -41.5q-146 0 -224.5 90t-78.5 224zM344 1319l434 254l152 -252l-463 -207zM408 326q0 -29 19.5 -49.5t53.5 -20.5q54 0 89.5 39.5t35.5 93.5v31q-115 0 -156.5 -22t-41.5 -72z" />
<glyph unicode="&#xe2;" horiz-adv-x="1083" d="M51 289q0 80 28.5 142.5t78 103.5t121 67.5t151.5 37.5t176 11v23q0 49 -30.5 68.5t-102.5 19.5q-65 0 -150.5 -18t-158.5 -46l-53 281q84 30 195.5 49t215.5 19q133 0 223 -23t142 -70.5t74 -112.5t22 -157v-467q0 -141 8 -217h-348q0 82 8 129h-2 q-36 -71 -116.5 -112.5t-178.5 -41.5q-146 0 -224.5 90t-78.5 224zM207 1282l356 291l357 -291l-134 -168l-223 158l-223 -158zM408 326q0 -29 19.5 -49.5t53.5 -20.5q54 0 89.5 39.5t35.5 93.5v31q-115 0 -156.5 -22t-41.5 -72z" />
<glyph unicode="&#xe3;" horiz-adv-x="1083" d="M51 289q0 80 28.5 142.5t78 103.5t121 67.5t151.5 37.5t176 11v23q0 49 -30.5 68.5t-102.5 19.5q-65 0 -150.5 -18t-158.5 -46l-53 281q84 30 195.5 49t215.5 19q133 0 223 -23t142 -70.5t74 -112.5t22 -157v-467q0 -141 8 -217h-348q0 82 8 129h-2 q-36 -71 -116.5 -112.5t-178.5 -41.5q-146 0 -224.5 90t-78.5 224zM166 1270q105 217 285 217q47 0 86 -14.5t60 -31.5t46 -31.5t47 -14.5q33 0 55 21t46 67l172 -131q-105 -217 -285 -217q-47 0 -86.5 14.5t-60.5 31.5t-46 31.5t-47 14.5q-33 0 -54.5 -20.5t-45.5 -67.5z M408 326q0 -29 19.5 -49.5t53.5 -20.5q54 0 89.5 39.5t35.5 93.5v31q-115 0 -156.5 -22t-41.5 -72z" />
<glyph unicode="&#xe4;" horiz-adv-x="1083" d="M51 289q0 80 28.5 142.5t78 103.5t121 67.5t151.5 37.5t176 11v23q0 49 -30.5 68.5t-102.5 19.5q-65 0 -150.5 -18t-158.5 -46l-53 281q84 30 195.5 49t215.5 19q133 0 223 -23t142 -70.5t74 -112.5t22 -157v-467q0 -141 8 -217h-348q0 82 8 129h-2 q-36 -71 -116.5 -112.5t-178.5 -41.5q-146 0 -224.5 90t-78.5 224zM154 1311q0 77 55 131.5t131 54.5t131 -54.5t55 -131.5t-55 -132t-131 -55t-131 55t-55 132zM408 326q0 -29 19.5 -49.5t53.5 -20.5q54 0 89.5 39.5t35.5 93.5v31q-115 0 -156.5 -22t-41.5 -72zM598 1311 q0 77 55 131.5t131 54.5q77 0 132 -55t55 -131q0 -77 -55.5 -132t-131.5 -55t-131 55t-55 132z" />
<glyph unicode="&#xe5;" horiz-adv-x="1083" d="M51 289q0 80 28.5 142.5t78 103.5t121 67.5t151.5 37.5t176 11v23q0 49 -30.5 68.5t-102.5 19.5q-65 0 -150.5 -18t-158.5 -46l-53 281q84 30 195.5 49t215.5 19q133 0 223 -23t142 -70.5t74 -112.5t22 -157v-467q0 -141 8 -217h-348q0 82 8 129h-2 q-36 -71 -116.5 -112.5t-178.5 -41.5q-146 0 -224.5 90t-78.5 224zM262 1382q0 123 87.5 204t213.5 81t213.5 -81t87.5 -204t-87.5 -203.5t-213.5 -80.5t-213.5 80.5t-87.5 203.5zM408 326q0 -29 19.5 -49.5t53.5 -20.5q54 0 89.5 39.5t35.5 93.5v31q-115 0 -156.5 -22 t-41.5 -72zM465 1382q0 -40 29 -69t69 -29t69.5 29t29.5 69t-29.5 69.5t-69.5 29.5t-69 -29.5t-29 -69.5z" />
<glyph unicode="&#xe6;" horiz-adv-x="1619" d="M51 289q0 80 28.5 143t78 104.5t120.5 68.5t152 38.5t176 11.5v27q0 43 -36.5 61.5t-125.5 18.5q-132 0 -274 -64l-59 289q187 60 399 60q221 0 326 -82h2q46 37 116.5 58t149.5 21q153 0 258 -65t153 -174t48 -254q0 -71 -13 -160h-577q5 -57 60 -93t159 -36 q156 0 301 64l33 -279q-181 -72 -393 -72q-152 0 -259.5 44t-154.5 128h-2q-105 -172 -357 -172q-150 0 -229.5 89.5t-79.5 224.5zM401 326q0 -29 20.5 -49.5t55.5 -20.5q56 0 92.5 39.5t36.5 93.5v35q-117 0 -161 -24t-44 -74zM971 633h229q3 71 -25 106t-79 35 q-54 0 -88 -39t-37 -102z" />
<glyph unicode="&#xe7;" horiz-adv-x="837" d="M49 477q0 92 20 174t63 154t107 124.5t156.5 82.5t206.5 30q99 0 184 -26l-51 -324q-73 29 -131 29q-164 0 -164 -219q0 -99 43.5 -150t120.5 -51q79 0 141 29l41 -316q-104 -39 -258 -39q-246 0 -362.5 131.5t-116.5 370.5zM276 -477q46 51 63 98t3.5 102.5t-61.5 118.5 l299 78q53 -77 64 -151t-15.5 -135t-85.5 -111h-267z" />
<glyph unicode="&#xe8;" horiz-adv-x="1073" d="M49 496q0 237 140 391.5t378 154.5q115 0 202 -33.5t140.5 -95t80 -143t26.5 -180.5q0 -118 -15 -201h-575q11 -129 219 -129q147 0 301 62l33 -277q-200 -70 -393 -70q-537 0 -537 521zM193 1321l151 252l434 -252l-123 -207zM424 631h229q3 71 -25 106t-79 35 q-54 0 -88 -39t-37 -102z" />
<glyph unicode="&#xe9;" horiz-adv-x="1073" d="M49 496q0 237 140 391.5t378 154.5q115 0 202 -33.5t140.5 -95t80 -143t26.5 -180.5q0 -118 -15 -201h-575q11 -129 219 -129q147 0 301 62l33 -277q-200 -70 -393 -70q-537 0 -537 521zM338 1319l434 254l152 -252l-463 -207zM424 631h229q3 71 -25 106t-79 35 q-54 0 -88 -39t-37 -102z" />
<glyph unicode="&#xea;" horiz-adv-x="1073" d="M49 496q0 237 140 391.5t378 154.5q115 0 202 -33.5t140.5 -95t80 -143t26.5 -180.5q0 -118 -15 -201h-575q11 -129 219 -129q147 0 301 62l33 -277q-200 -70 -393 -70q-537 0 -537 521zM203 1282l356 291l356 -291l-133 -168l-223 158l-223 -158zM424 631h229 q3 71 -25 106t-79 35q-54 0 -88 -39t-37 -102z" />
<glyph unicode="&#xeb;" horiz-adv-x="1073" d="M49 496q0 237 140 391.5t378 154.5q115 0 202 -33.5t140.5 -95t80 -143t26.5 -180.5q0 -118 -15 -201h-575q11 -129 219 -129q147 0 301 62l33 -277q-200 -70 -393 -70q-537 0 -537 521zM150 1311q0 77 55 131.5t131 54.5t131 -54.5t55 -131.5t-55 -132t-131 -55t-131 55 t-55 132zM424 631h229q3 71 -25 106t-79 35q-54 0 -88 -39t-37 -102zM594 1311q0 77 55 131.5t131 54.5q77 0 132 -55t55 -131q0 -77 -55.5 -132t-131.5 -55t-131 55t-55 132z" />
<glyph unicode="&#xec;" horiz-adv-x="565" d="M-37 1321l152 252l434 -252l-123 -207zM96 0v1018h373v-1018h-373z" />
<glyph unicode="&#xed;" horiz-adv-x="565" d="M18 1319l435 254l151 -252l-463 -207zM96 0v1018h373v-1018h-373z" />
<glyph unicode="&#xee;" horiz-adv-x="565" d="M-74 1282l357 291l356 -291l-133 -168l-223 158l-224 -158zM96 0v1018h373v-1018h-373z" />
<glyph unicode="&#xef;" horiz-adv-x="565" d="M-125 1311q0 77 54.5 131.5t131.5 54.5t132 -55t55 -131q0 -77 -55 -132t-132 -55q-76 0 -131 55t-55 132zM96 0v1018h373v-1018h-373zM319 1311q0 76 55 131t132 55q76 0 131 -54.5t55 -131.5t-55 -132t-131 -55t-131.5 55t-55.5 132z" />
<glyph unicode="&#xf0;" horiz-adv-x="1161" d="M49 479q0 130 41.5 237t112 175.5t162 105.5t192.5 37q56 0 86 -18q-9 12 -35 51q-26 42 -76 92l-161 -69l-146 161l140 60q-52 40 -140 92l361 151q77 -58 121 -100l149 64l145 -162l-147 -62q250 -312 250 -708q0 -149 -43 -267.5t-118 -192.5t-171.5 -112.5 t-208.5 -38.5q-113 0 -206 30.5t-162.5 90.5t-107.5 158t-38 225zM436 510q0 -104 39 -157.5t107 -53.5q133 0 133 233q0 191 -140 191q-62 0 -100.5 -54.5t-38.5 -158.5z" />
<glyph unicode="&#xf1;" horiz-adv-x="1155" d="M96 0v1018h344q0 -79 -10 -135h2q51 73 133 116t193 43q82 0 141.5 -25t93.5 -70.5t50 -101.5t16 -124v-721h-373v643q0 84 -57 84q-61 0 -110.5 -72.5t-49.5 -158.5v-496h-373zM182 1270q105 217 285 217q47 0 86.5 -14.5t60.5 -31.5t46 -31.5t47 -14.5q33 0 54.5 20.5 t45.5 67.5l172 -131q-105 -217 -285 -217q-47 0 -86 14.5t-60 31.5t-46 31.5t-47 14.5q-33 0 -55 -21t-46 -67z" />
<glyph unicode="&#xf2;" horiz-adv-x="1155" d="M47 479q0 127 43 233.5t118 178t177 111.5t219 40q248 0 376 -132t128 -378q0 -166 -75 -294t-200.5 -195.5t-279.5 -67.5q-506 0 -506 504zM213 1321l152 252l434 -252l-123 -207zM434 520q0 -119 32 -170t107 -51q71 0 109.5 57t38.5 154q0 111 -32 162t-107 51 q-61 0 -104.5 -51.5t-43.5 -151.5z" />
<glyph unicode="&#xf3;" horiz-adv-x="1155" d="M47 479q0 127 43 233.5t118 178t177 111.5t219 40q248 0 376 -132t128 -378q0 -166 -75 -294t-200.5 -195.5t-279.5 -67.5q-506 0 -506 504zM356 1319l435 254l151 -252l-463 -207zM434 520q0 -119 32 -170t107 -51q71 0 109.5 57t38.5 154q0 111 -32 162t-107 51 q-61 0 -104.5 -51.5t-43.5 -151.5z" />
<glyph unicode="&#xf4;" horiz-adv-x="1155" d="M47 479q0 127 43 233.5t118 178t177 111.5t219 40q248 0 376 -132t128 -378q0 -166 -75 -294t-200.5 -195.5t-279.5 -67.5q-506 0 -506 504zM244 1282l356 291l356 -291l-133 -168l-223 158l-223 -158zM434 520q0 -119 32 -170t107 -51q71 0 109.5 57t38.5 154 q0 111 -32 162t-107 51q-61 0 -104.5 -51.5t-43.5 -151.5z" />
<glyph unicode="&#xf5;" horiz-adv-x="1155" d="M47 479q0 127 43 233.5t118 178t177 111.5t219 40q248 0 376 -132t128 -378q0 -166 -75 -294t-200.5 -195.5t-279.5 -67.5q-506 0 -506 504zM203 1270q105 217 284 217q47 0 86.5 -14.5t60.5 -31.5t46 -31.5t47 -14.5q33 0 54.5 20.5t45.5 67.5l172 -131 q-105 -217 -284 -217q-47 0 -86.5 14.5t-60.5 31.5t-46 31.5t-47 14.5q-33 0 -54.5 -20.5t-45.5 -67.5zM434 520q0 -119 32 -170t107 -51q71 0 109.5 57t38.5 154q0 111 -32 162t-107 51q-61 0 -104.5 -51.5t-43.5 -151.5z" />
<glyph unicode="&#xf6;" horiz-adv-x="1155" d="M47 479q0 127 43 233.5t118 178t177 111.5t219 40q248 0 376 -132t128 -378q0 -166 -75 -294t-200.5 -195.5t-279.5 -67.5q-506 0 -506 504zM190 1311q0 76 55 131t132 55t131.5 -54.5t54.5 -131.5t-55 -132t-131 -55q-77 0 -132 55t-55 132zM434 520q0 -119 32 -170 t107 -51q71 0 109.5 57t38.5 154q0 111 -32 162t-107 51q-61 0 -104.5 -51.5t-43.5 -151.5zM635 1311q0 77 54.5 131.5t131.5 54.5t132 -55t55 -131q0 -77 -55 -132t-132 -55q-76 0 -131 55t-55 132z" />
<glyph unicode="&#xf7;" d="M72 455v311h983v-311h-983zM350 201q0 88 62.5 150.5t150.5 62.5t150.5 -62.5t62.5 -150.5t-62.5 -150.5t-150.5 -62.5t-150.5 62.5t-62.5 150.5zM350 1020q0 88 62.5 150.5t150.5 62.5t150.5 -62.5t62.5 -150.5t-62.5 -150.5t-150.5 -62.5t-150.5 62.5t-62.5 150.5z" />
<glyph unicode="&#xf8;" horiz-adv-x="1163" d="M47 479q0 256 156.5 409.5t404.5 153.5q82 0 164 -16l107 172l184 -92l-105 -170q158 -134 158 -404q0 -252 -156.5 -404.5t-402.5 -152.5q-89 0 -176 19l-115 -189l-184 93l113 186q-148 126 -148 395zM399 522q0 -43 7 -94l196 322h-14q-81 0 -135 -57.5t-54 -170.5z M553 272h25q94 0 140 63.5t46 174.5q0 52 -6 96z" />
<glyph unicode="&#xf9;" horiz-adv-x="1150" d="M94 297v721h373v-643q0 -84 57 -84q61 0 110.5 72.5t49.5 158.5v496h373v-1018h-344q0 79 10 135h-2q-112 -160 -326 -160q-82 0 -141.5 25.5t-93.5 71t-50 101.5t-16 124zM193 1321l151 252l434 -252l-123 -207z" />
<glyph unicode="&#xfa;" horiz-adv-x="1150" d="M94 297v721h373v-643q0 -84 57 -84q61 0 110.5 72.5t49.5 158.5v496h373v-1018h-344q0 79 10 135h-2q-112 -160 -326 -160q-82 0 -141.5 25.5t-93.5 71t-50 101.5t-16 124zM379 1319l434 254l152 -252l-463 -207z" />
<glyph unicode="&#xfb;" horiz-adv-x="1150" d="M94 297v721h373v-643q0 -84 57 -84q61 0 110.5 72.5t49.5 158.5v496h373v-1018h-344q0 79 10 135h-2q-112 -160 -326 -160q-82 0 -141.5 25.5t-93.5 71t-50 101.5t-16 124zM219 1282l356 291l357 -291l-133 -168l-224 158l-223 -158z" />
<glyph unicode="&#xfc;" horiz-adv-x="1150" d="M94 297v721h373v-643q0 -84 57 -84q61 0 110.5 72.5t49.5 158.5v496h373v-1018h-344q0 79 10 135h-2q-112 -160 -326 -160q-82 0 -141.5 25.5t-93.5 71t-50 101.5t-16 124zM168 1311q0 77 55 131.5t131 54.5q77 0 132 -55t55 -131q0 -77 -55.5 -132t-131.5 -55t-131 55 t-55 132zM612 1311q0 76 55 131t132 55t131.5 -54.5t54.5 -131.5t-55 -132t-131 -55q-77 0 -132 55t-55 132z" />
<glyph unicode="&#xfd;" horiz-adv-x="1093" d="M-16 -477l43 315q71 -22 141 -22q31 0 63 9.5t66 39.5t47 76l16 59l-360 1018h410l59 -187q43 -133 82 -319h4q47 205 92 336l58 170h399l-387 -1034q-54 -143 -113 -237.5t-129.5 -147t-144 -73t-170.5 -20.5q-76 0 -176 17zM356 1319l435 254l151 -252l-463 -207z" />
<glyph unicode="&#xfe;" horiz-adv-x="1144" d="M96 -477v1972h373v-373q0 -114 -8 -184h4q86 104 260 104q179 0 274 -126.5t95 -346.5q0 -131 -33 -236.5t-99 -185t-173 -122.5t-248 -43q-45 0 -72 6v-465h-373zM469 281q45 -9 72 -9q159 0 159 256q0 109 -24 157t-76 48q-55 0 -93 -63.5t-38 -180.5v-208z" />
<glyph unicode="&#xff;" horiz-adv-x="1093" d="M-16 -477l43 315q71 -22 141 -22q31 0 63 9.5t66 39.5t47 76l16 59l-360 1018h410l59 -187q43 -133 82 -319h4q47 205 92 336l58 170h399l-387 -1034q-54 -143 -113 -237.5t-129.5 -147t-144 -73t-170.5 -20.5q-76 0 -176 17zM150 1311q0 77 55 131.5t131 54.5t131 -54.5 t55 -131.5t-55 -132t-131 -55t-131 55t-55 132zM594 1311q0 77 55 131.5t131 54.5q77 0 132 -55t55 -131q0 -77 -55.5 -132t-131.5 -55t-131 55t-55 132z" />
<glyph unicode="&#x152;" horiz-adv-x="1753" d="M43 672q0 163 55 303t148.5 234.5t218.5 148t264 53.5q114 0 227 -29h721v-323h-428v-195h406v-311h-406v-223h428v-330h-768q-114 -29 -219 -29q-320 0 -483.5 183t-163.5 518zM449 700q0 -378 260 -378q78 0 159 38v676q-73 27 -151 27q-52 0 -98.5 -21t-85 -62.5 t-61.5 -113.5t-23 -166z" />
<glyph unicode="&#x153;" horiz-adv-x="1722" d="M47 479q0 170 73.5 299t199.5 196.5t284 67.5q84 0 166.5 -23t140.5 -67q122 92 295 92q153 0 258 -65t153 -174t48 -254q0 -77 -12 -160h-578q5 -57 60 -93t159 -36q156 0 301 64l33 -279q-181 -72 -393 -72q-227 0 -358 107q-58 -49 -145.5 -78t-178.5 -29 q-506 0 -506 504zM434 520q0 -119 32 -170t107 -51q71 0 109.5 57t38.5 154q0 111 -32 162t-107 51q-61 0 -104.5 -51.5t-43.5 -151.5zM1073 633h230q3 71 -25 106t-80 35q-54 0 -88 -39t-37 -102z" />
<glyph unicode="&#x178;" horiz-adv-x="1222" d="M-14 1382h413l129 -299q51 -117 82 -211h4q26 76 101 242l119 268h403l-438 -905v-477h-381v475zM217 1620q0 74 52.5 126t125.5 52t125.5 -52t52.5 -126q0 -73 -52 -124.5t-126 -51.5t-126 51.5t-52 124.5zM664 1620q0 74 52 126t126 52t126 -52t52 -126 q0 -73 -52 -124.5t-126 -51.5t-126 51.5t-52 124.5z" />
<glyph unicode="&#x2c6;" horiz-adv-x="851" d="M70 1282l356 291l356 -291l-133 -168l-223 158l-223 -158z" />
<glyph unicode="&#x2dc;" horiz-adv-x="870" d="M45 1270q105 217 285 217q47 0 86 -14.5t60 -31.5t46 -31.5t47 -14.5q33 0 55 21t46 67l172 -131q-105 -217 -285 -217q-47 0 -86.5 14.5t-60.5 31.5t-46 31.5t-47 14.5q-33 0 -54.5 -20.5t-45.5 -67.5z" />
<glyph unicode="&#x2000;" horiz-adv-x="983" />
<glyph unicode="&#x2001;" horiz-adv-x="1966" />
<glyph unicode="&#x2002;" horiz-adv-x="983" />
<glyph unicode="&#x2003;" horiz-adv-x="1966" />
<glyph unicode="&#x2004;" horiz-adv-x="655" />
<glyph unicode="&#x2005;" horiz-adv-x="491" />
<glyph unicode="&#x2006;" horiz-adv-x="327" />
<glyph unicode="&#x2007;" horiz-adv-x="327" />
<glyph unicode="&#x2008;" horiz-adv-x="245" />
<glyph unicode="&#x2009;" horiz-adv-x="393" />
<glyph unicode="&#x200a;" horiz-adv-x="109" />
<glyph unicode="&#x2010;" horiz-adv-x="696" d="M82 391v297h532v-297h-532z" />
<glyph unicode="&#x2011;" horiz-adv-x="696" d="M82 391v297h532v-297h-532z" />
<glyph unicode="&#x2012;" horiz-adv-x="696" d="M82 391v297h532v-297h-532z" />
<glyph unicode="&#x2013;" d="M0 446v328h1126v-328h-1126z" />
<glyph unicode="&#x2014;" horiz-adv-x="2048" d="M205 446v328h1638v-328h-1638z" />
<glyph unicode="&#x2018;" horiz-adv-x="614" d="M88 1094q39 215 255 418q29 27 60 53l150 -133q-113 -120 -129 -195.5t51 -149.5q38 -43 45.5 -102.5t-13 -112.5t-74 -90t-126.5 -37q-109 0 -174 90q-73 103 -45 259z" />
<glyph unicode="&#x2019;" horiz-adv-x="614" d="M61 856q113 120 129 195t-51 149q-38 43 -45.5 102.5t13 112.5t74 90t126.5 37q109 0 174 -90q73 -103 45 -259q-39 -215 -256 -418q-28 -26 -59 -52z" />
<glyph unicode="&#x201a;" horiz-adv-x="614" d="M61 -276q113 120 129 195t-51 149q-38 43 -45.5 102.5t13 112.5t74 90t126.5 37q109 0 174 -90q73 -103 45 -259q-39 -215 -255 -418q-29 -27 -60 -53z" />
<glyph unicode="&#x201c;" horiz-adv-x="1146" d="M88 1094q39 215 255 418q29 27 60 53l150 -133q-113 -120 -129 -195.5t51 -149.5q38 -43 45.5 -102.5t-13 -112.5t-74 -90t-126.5 -37q-109 0 -174 90q-73 103 -45 259zM621 1094q39 215 255 418q29 27 60 53l149 -133q-113 -120 -128.5 -196t51.5 -149 q38 -43 45.5 -102.5t-13 -112.5t-74 -90t-126.5 -37q-109 0 -174 90q-73 103 -45 259z" />
<glyph unicode="&#x201d;" horiz-adv-x="1146" d="M61 856q113 120 129 195t-51 149q-38 43 -45.5 102.5t13 112.5t74 90t126.5 37q109 0 174 -90q73 -103 45 -259q-39 -215 -256 -418q-28 -26 -59 -52zM594 856q113 120 129 195t-51 149q-38 43 -45.5 102.5t13 112.5t74 90t126.5 37q109 0 174 -90q73 -103 44 -259 q-39 -215 -256 -418q-28 -26 -59 -52z" />
<glyph unicode="&#x201e;" horiz-adv-x="1146" d="M61 -276q113 120 129 195t-51 149q-38 43 -45.5 102.5t13 112.5t74 90t126.5 37q109 0 174 -90q73 -103 45 -259q-39 -215 -255 -418q-29 -27 -60 -53zM594 -276q113 120 129 195t-51 149q-38 43 -45.5 102.5t13 112.5t74 90t126.5 37q109 0 174 -90q73 -103 44 -259 q-39 -215 -255 -418q-29 -27 -60 -53z" />
<glyph unicode="&#x2022;" horiz-adv-x="872" d="M51 608q0 159 113 272t272 113q158 0 271.5 -113.5t113.5 -271.5t-113.5 -271.5t-271.5 -113.5q-159 0 -272 113t-113 272z" />
<glyph unicode="&#x202f;" horiz-adv-x="393" />
<glyph unicode="&#x2039;" horiz-adv-x="636" d="M45 596l223 438l291 -125l-162 -313l168 -307l-303 -127z" />
<glyph unicode="&#x203a;" horiz-adv-x="636" d="M72 907l303 127l217 -434l-223 -438l-291 125l162 313z" />
<glyph unicode="&#x205f;" horiz-adv-x="491" />
<glyph unicode="&#x20ac;" d="M23 395v219h122v39v64h-122v219h159q28 93 76.5 168t121.5 133.5t178 90.5t235 32q142 0 290 -51l-84 -293q-96 49 -221 49q-151 0 -211 -129h264v-219h-307v-41v-62h307v-219h-268q28 -71 81 -100t136 -29q114 0 224 49l81 -280q-150 -64 -354 -64q-112 0 -201 22 t-163.5 70t-125 131.5t-75.5 200.5h-143z" />
<glyph unicode="&#x2122;" horiz-adv-x="1382" d="M14 1159v223h486v-223h-113v-352h-252v352h-121zM487 807l97 575h288l37 -159l13 -70l10 70l31 159h292l103 -575h-268l-25 170l-6 78l-12 -78l-29 -170h-221l-33 176l-10 72l-4 -72l-21 -176h-242z" />
<glyph unicode="&#x25fc;" horiz-adv-x="1013" d="M0 0v1014h1014v-1014h-1014z" />
</font>
</defs>
</svg>
