<?xml version="1.0" encoding="utf-8"?>
<!-- Generator: Adobe Illustrator 17.1.0, SVG Export Plug-In . SVG Version: 6.00 Build 0)  -->
<!DOCTYPE svg PUBLIC "-//W3C//DTD SVG 1.1//EN" "http://www.w3.org/Graphics/SVG/1.1/DTD/svg11.dtd">
<svg version="1.1" id="Ebene_1" xmlns="http://www.w3.org/2000/svg" xmlns:xlink="http://www.w3.org/1999/xlink" x="0px" y="0px"
	 viewBox="0 0 595.28 595.28" enable-background="new 0 0 595.28 595.28" xml:space="preserve">
<g>
	<path d="M145.537,203.191l-9.247-7.929l0.488-0.569l8.96,7.682l16.133-3.74l-6.204-7.388l9.571-4.08
		c1.099-0.668,2.143-1.503,2.327-1.859c-0.025-0.007-0.058-0.014-0.101-0.02c-1.765-0.26-12.806-4.983-13.274-5.184l-0.457-0.196
		l11.595-14.246l10.666,3.822l6.686,7.083l4.384,6.948l3.896,0.107l10.076-0.027l-5.184-13.406l-10.44-6.677l-7.219,3.629
		l2.783-21.319l0.744,0.097l-2.6,19.917l6.337-3.185l11.007,7.038l5.665,14.653l-11.178,0.03l-4.308-0.119l-4.553-7.229
		l-6.579-6.959l-9.935-3.519l-10.633,13.064c4.06,1.732,11.345,4.747,12.631,4.936c0.547,0.081,0.713,0.354,0.756,0.568
		c0.157,0.779-1.409,1.909-2.751,2.719l-8.687,3.708l6.34,7.549L145.537,203.191z"/>
</g>
<g>
	<polygon points="186.655,193.234 165.294,187.874 165.476,187.147 186.648,192.459 193.088,190.723 192.362,184.03 
		193.108,183.949 193.902,191.279 	"/>
</g>
<g>
	<polygon points="167.816,185.144 167.221,184.687 170.818,180.006 182.99,177.503 183.141,178.238 171.243,180.685 	"/>
</g>
<g>
	<polygon points="172.548,207.652 172.423,206.913 181.151,205.433 186.304,192.706 186.999,192.987 181.689,206.103 	"/>
</g>
<g>
	<polygon points="212.759,193.257 193.458,191.374 193.532,190.628 212.063,192.436 212.746,182.533 207.494,178.387 
		202.316,184.36 201.75,183.869 207.396,177.355 213.521,182.189 	"/>
</g>
<g>
	<polygon points="172.169,215.372 172.112,207.458 162.308,199.148 162.794,198.575 172.859,207.108 172.913,214.494 181.023,213.2 
		192.868,213.195 206.917,200.28 214.813,200.28 220.824,190.931 220.447,179.816 212.028,173.084 201.514,162.867 192.23,167.648 
		191.887,166.98 201.65,161.953 212.524,172.522 221.186,179.446 221.582,191.14 215.222,201.03 207.209,201.03 193.161,213.945 
		181.082,213.945 	"/>
</g>
<g>
	<rect x="178.396" y="153.764" transform="matrix(0.7742 0.6329 -0.6329 0.7742 140.7919 -86.3808)" width="26.137" height="0.75"/>
</g>
<g>
	<path d="M138.5,244.44l-14.355-4.054l1.477-16.799l16.142,5.883l5.853-13.848l14.456,3.132l10.329-4.169l0.28,0.695l-10.542,4.256
		l-14.073-3.05l-5.587,13.219l11.458,3.42l-3.615,8.282l-11.789-2.038L138.5,244.44z M124.947,239.833l12.809,3.618l0.032-4.972
		l12.081,2.089l3.041-6.966l-10.725-3.202l-0.008,0.019l-15.894-5.793L124.947,239.833z"/>
</g>
<g>
	<polygon points="137.97,262.108 111.337,256.339 111.497,255.605 137.247,261.184 137.753,243.935 138.503,243.957 	"/>
</g>
<g>
	<polygon points="208.621,255.21 199.856,255.21 189.581,246.426 171.052,247.139 152.657,250.439 149.737,241.1 150.453,240.876 
		153.175,249.585 170.971,246.395 189.846,245.665 200.134,254.46 207.836,254.46 207.419,245.285 203.054,245.89 198.734,232.593 
		193.8,229.042 192.171,233.906 179.498,231.481 172.985,229.903 180.743,213.411 181.421,213.73 174.056,229.391 179.657,230.749 
		191.668,233.046 193.413,227.839 199.372,232.128 203.573,245.061 208.131,244.429 	"/>
</g>
<g>
	<polygon points="207.939,220.659 192.861,213.913 193.168,213.228 207.776,219.764 212.9,214.676 223.836,212.294 220.832,191.088 
		221.574,190.982 224.676,212.879 213.273,215.362 	"/>
</g>
<g>
	<path d="M240.086,184.395l0.794-10.262l-10.21-2.938l-11.986-7.081v-5.327l-19.391-5.031l-7.751-15.283l0.669-0.339l7.598,14.981
		l19.625,5.092v5.479l11.576,6.839l10.664,3.055l-0.773,10.002l10.6-0.782l-1.072-18.317l-16.691,0.638l-0.525-7.721l11.601-14.261
		l-15.234-0.958l-7.757,9.163l-15.622-3.167l-0.068-0.207c-0.088-0.27-2.154-6.633-0.764-8.963c0.292-0.491,0.711-0.788,1.246-0.884
		c2.682-0.481,15.629-2.779,18.965-3.372l-10.973-9.298l0.484-0.572l12.191,10.33l-0.786,0.139c0,0-16.665,2.957-19.749,3.511
		c-0.316,0.057-0.556,0.23-0.734,0.529c-0.972,1.629,0.168,6.239,0.767,8.139l14.757,2.992l7.714-9.112l17.064,1.073l-12.333,15.163
		l0.456,6.699l16.698-0.638l1.158,19.788L240.086,184.395z"/>
</g>
<g>
	<polygon points="245.194,142.872 242.66,127.539 229.491,127.539 230.057,118.46 230.806,118.506 230.289,126.789 243.296,126.789 
		245.935,142.75 	"/>
</g>
<g>
	<path d="M282.995,155.782l-28.334-7.636l-1.289-15.194v-13.641l-17.269-2.509l0.107-0.742l17.911,2.603v14.018l20.225,6.654
		l3.914-4.986l8.689,3.496l0.337,8.97L282.995,155.782z M255.364,147.56l27.223,7.336l3.942-8.238l-0.311-8.298l-7.715-3.105
		l-3.891,4.957l-20.443-6.726L255.364,147.56z"/>
</g>
<g>
	<polygon points="251.018,164.387 250.547,163.803 257.733,158.008 254.7,148.111 245.388,143.142 245.741,142.48 255.326,147.595 
		258.599,158.273 	"/>
</g>
<g>
	<path d="M276.332,212.922l-18.541-5.357v-15.049l16.91-2.139l-3.006-21.075l-0.004-16.854h0.75v16.802l3.111,21.776l-17.01,2.152
		v13.823l17.768,5.134l14.559-5.161l2.257-3.764l-8.981-8.142l6.271-15.937l-7.313-10.097l11.488-8.792l6.725-4.594l11.535,3.337
		l15.377-3.918l-3.578-14.451l-18.959,2.566l-6.392-0.088l-2.857-7.881l4.271-7.843l-10.237-3.636l2.343-14.506l17.01,2.973
		l-12.566,23.074l2.566,7.077l5.817,0.084l19.57-2.652l3.918,15.827l-16.295,4.153l-11.393-3.296l-6.417,4.383l-10.892,8.336
		l7.126,9.838l-6.232,15.836l9.054,8.207l-2.712,4.523L276.332,212.922z M291.314,123.237l9.761,3.466l7.594-13.944l-15.232-2.662
		L291.314,123.237z"/>
</g>
<g>
	<polygon points="278.309,135.169 271.191,133.761 272.754,118.79 254.514,114.615 254.121,119.021 253.373,118.954 
		253.843,113.692 273.57,118.207 272.008,133.158 278.455,134.434 	"/>
</g>
<g>
	<polygon points="359.888,193.123 339.651,193.123 339.651,184.485 334.328,184.485 330.116,178.457 322.283,179.985 
		315.228,184.342 302.178,179.753 311.204,167.117 325.431,169.814 327.262,155.557 328.006,155.653 326.073,170.698 
		311.536,167.943 303.369,179.377 315.139,183.516 322.072,179.262 330.452,177.628 334.719,183.735 340.401,183.735 
		340.401,192.373 359.138,192.373 359.138,185.081 351.124,177.79 358.89,173.411 324.672,140.47 325.191,139.93 360.136,173.569 
		352.395,177.934 359.888,184.749 	"/>
</g>
<g>
	<polygon points="319.715,217.548 316.705,207.981 302.622,191.638 314.275,188.44 314.811,183.885 315.556,183.973 314.961,189.03 
		303.964,192.047 317.397,207.683 320.221,216.657 339.086,212.184 353.696,199.734 363.209,200.205 366.882,192.447 
		387.964,184.842 387.964,174.879 379.847,175.169 379.747,175.105 365.511,165.896 365.511,158.155 346.718,152.914 
		346.718,146.84 327.519,124.672 311.472,123.077 311.546,122.331 327.89,123.955 347.468,146.561 347.468,152.344 366.261,157.585 
		366.261,165.488 380.056,174.411 388.714,174.102 388.714,185.369 367.427,193.048 363.672,200.978 353.956,200.498 
		339.348,212.893 	"/>
</g>
<g>
	<polygon points="369.563,150.254 347.053,147.844 347.133,147.098 369.2,149.461 376.31,139.19 374.728,133.805 348.268,124.285 
		340.172,123.052 339.198,127.135 327.626,124.68 327.782,123.947 338.638,126.249 339.603,122.206 348.451,123.561 375.34,133.227 
		377.131,139.322 	"/>
</g>
<g>
	<rect x="324.773" y="107.842" transform="matrix(0.8721 0.4894 -0.4894 0.8721 98.4366 -144.2696)" width="0.75" height="16.586"/>
</g>
<g>
	
		<rect x="301.145" y="128.093" transform="matrix(0.6087 0.7934 -0.7934 0.6087 225.5527 -200.3907)" width="29.573" height="0.75"/>
</g>
<g>
	<polygon points="347.382,146.939 346.804,146.462 353.42,138.459 348.073,137.645 348.02,123.933 348.77,123.93 348.821,137.001 
		354.842,137.917 	"/>
</g>
<g>
	<polygon points="388.475,185.455 388.203,184.756 391.571,183.46 396.548,183.044 394.813,163.641 379.693,164.287 
		379.185,157.723 390.023,143.661 376.612,139.615 376.829,138.898 391.281,143.257 379.954,157.952 380.385,163.506 
		395.497,162.86 397.362,183.729 391.688,184.202 	"/>
</g>
<g>
	<polygon points="403.747,197.707 392.014,197.707 391.228,183.854 391.977,183.812 392.723,196.957 403.155,196.957 
		404.243,192.391 421.155,191.321 418.682,166.981 416.054,156.739 417.961,152.895 414.752,150.211 399.952,147.82 
		390.505,143.804 390.8,143.114 400.159,147.105 415.074,149.503 418.896,152.699 416.849,156.823 419.418,166.85 421.979,192.02 
		404.845,193.105 	"/>
</g>
<g>
	<polygon points="390.07,234.847 378.106,232.57 378.517,224.226 370.604,212.651 370.6,212.543 368.843,167.862 369.593,167.833 
		371.345,212.406 379.278,224.011 378.888,231.955 389.32,233.941 389.32,226.54 376.196,209.469 392.138,197.036 392.599,197.628 
		377.245,209.602 390.07,226.285 	"/>
</g>
<g>
	<path d="M313.637,249.455c-3.765,0-8.876-0.232-13.47-0.495l-0.24-0.014l-2.573-6.609l-10.093-3.337l-0.273,6.199l-14.412-4.414
		v-16.676l16.577,7.477l10.715,4.225l5.699-17.101l-10.192-1.356l-5.162-9.691l0.662-0.353l4.98,9.351l10.71,1.424l-6.236,18.713
		l-11.468-4.522l-15.535-7.006v14.961l12.955,3.967l0.274-6.221l11.37,3.759l2.525,6.489c7.763,0.44,16.277,0.671,17.896,0.287
		c-1.371-2.569-8.694-18.925-9.02-19.655l-0.324-0.724l11.486,3.136l8.515-16.291l0.664,0.348l-8.794,16.826l-10.539-2.877
		c2.978,6.645,8.239,18.277,8.797,19.102c0.105,0.155,0.114,0.342,0.024,0.499C318.914,249.298,316.729,249.455,313.637,249.455z"/>
</g>
<g>
	<polygon points="369.385,257.727 347.216,254.815 347.126,254.724 338.726,246.209 330.114,233.955 320.608,232.077 
		320.753,231.342 330.556,233.277 330.642,233.4 339.299,245.73 347.569,254.105 369.051,256.926 376.501,247.099 374.941,241.426 
		349.519,246.657 346.787,230.688 363.046,233.992 377.719,222.439 378.184,223.027 363.237,234.796 347.711,231.641 
		350.128,245.766 375.478,240.55 377.323,247.257 	"/>
</g>
<g>
	<polygon points="338.665,234.79 330.299,233.989 330.371,233.242 338.257,233.998 347.849,217.423 339.088,212.861 
		339.434,212.196 348.89,217.121 	"/>
</g>
<g>
	<polygon points="354.883,221.116 348.194,217.604 348.544,216.94 354.68,220.162 359.958,213.463 370.975,213.463 370.975,214.213 
		360.321,214.213 	"/>
</g>
<g>
	<path d="M439.84,313.339l-8.167-7.968l5.686-16.221l10.571-2.934l10.981-11.491l-16.952-6.166l5.496-6.027l-14.54-5.902
		l-1.908-12.544l-11.947-5.208l0.25-11.906l-7.198-3.883l-17.299-3.342l2.918-22.464l0.744,0.097l-2.828,21.765l16.771,3.257
		l7.652,4.128l-0.25,11.862l11.867,5.171l1.906,12.532l14.631,5.939l11.365,3.679l13.712-3.724l1.43,12.59l-6.097,4.845l8.99,7.383
		l-16.082,5.787l-0.626,4.921l-9.935,4.36l3.816,6.499L439.84,313.339z M432.538,305.168l7.499,7.315l13.644-4.527l-3.773-6.427
		l10.319-4.528l0.63-4.956l15.272-5.496l-8.688-7.134l6.497-5.163l-1.283-11.309l-13.085,3.553l-11.36-3.678l-4.941,5.418
		l16.98,6.176l-11.917,12.47l-10.394,2.885L432.538,305.168z"/>
</g>
<g>
	<path d="M422.513,212.67l-16.711-5.634l-2.846-10.08h28.561l9.087,10.736L422.513,212.67z M406.417,206.453l16.117,5.434
		l16.738-4.605l-8.104-9.574h-27.223L406.417,206.453z"/>
</g>
<g>
	<polygon points="431.71,197.407 430.976,197.257 434.661,179.21 427.623,171.778 433.208,163.031 433.841,163.434 428.57,171.688 
		435.474,178.977 	"/>
</g>
<g>
	<polygon points="440.03,207.85 439.847,207.124 459.337,202.183 449.582,192.034 450.123,191.514 460.77,202.593 	"/>
</g>
<g>
	<path d="M446.349,234.611l-9.238-3.449l4.577-13.943l-2.115-9.652l0.732-0.16l1.628,7.424l13.295,2.525L446.349,234.611z
		 M438.048,230.712l7.939,2.963l8.113-15.769l-11.994-2.278l0.358,1.631L438.048,230.712z"/>
</g>
<g>
	<polygon points="461.008,265.358 451.566,248.36 466.739,248.742 455.42,229.922 467.161,230.548 471.514,219.311 472.213,219.582 
		467.665,231.326 456.791,230.747 468.087,249.526 452.859,249.143 461.664,264.994 	"/>
</g>
<g>
	<polygon points="446.855,251.027 443.097,242.003 432.415,238.884 431.718,243.877 430.976,243.774 431.792,237.921 
		443.651,241.384 447.275,250.085 452.089,248.398 452.337,249.105 	"/>
</g>
<g>
	<polygon points="422.707,248.929 398.341,241.755 398.305,241.52 394.859,219.505 395.6,219.389 399.009,241.17 422.191,247.996 
		424.22,240.775 424.942,240.978 	"/>
</g>
<g>
	<polygon points="399.311,255.113 390.292,251.856 389.321,234.415 390.069,234.373 391.013,251.319 398.866,254.155 
		403.105,242.739 403.809,243 	"/>
</g>
<g>
	<rect x="375.774" y="249.65" transform="matrix(0.9782 0.2078 -0.2078 0.9782 60.306 -74.1751)" width="15.042" height="0.75"/>
</g>
<g>
	<path d="M398.333,293.519l-1.408-20.635l-0.417-0.075l0.133-0.738l0.232,0.042l-0.312-4.581l7.573-1.734l-4.288-13.833l0.717-0.222
		l4.526,14.606l-7.737,1.771l0.282,4.129l23.196,4.154v10.424L398.333,293.519z M397.685,273.02l1.331,19.513l21.062-6.266v-9.236
		L397.685,273.02z"/>
</g>
<g>
	<polygon points="430.122,263.148 400.075,252.206 400.331,251.501 429.796,262.231 433.311,256.327 433.956,256.711 	"/>
</g>
<g>
	<polygon points="396.539,272.814 379.727,271.234 380.029,263.582 390.366,251.345 390.938,251.83 380.768,263.87 380.504,270.554 
		396.609,272.066 	"/>
</g>
<g>
	<polygon points="387.97,292.7 387.97,282.472 376.935,282.472 375.637,278.796 364.795,273.674 364.055,267.254 346.312,262.289 
		347.02,254.427 347.766,254.494 347.115,261.735 364.742,266.667 365.492,273.174 376.24,278.251 377.467,281.722 388.72,281.722 
		388.72,291.856 398.498,290.699 398.586,291.444 	"/>
</g>
<g>
	<polygon points="425.356,321.475 413.222,318.391 406.585,316.223 405.75,307.902 404.769,302.22 421.638,298.838 420.082,286.594 
		420.826,286.499 422.47,299.435 405.632,302.811 406.492,307.802 407.282,315.662 413.431,317.671 425.294,320.685 
		436.903,315.681 439.661,312.658 440.216,313.164 437.274,316.338 	"/>
</g>
<g>
	<polygon points="466.688,316.522 454.038,308.482 454.44,307.85 466.794,315.699 474.828,313.121 481.395,303.996 460.462,297.618 
		460.681,296.9 482.616,303.584 475.293,313.76 	"/>
</g>
<g>
	<polygon points="368.884,302.22 367.855,287.956 357.635,283.912 348.072,271.494 325.02,247.223 338.948,245.573 339.036,246.318 
		326.594,247.792 348.641,271.007 358.103,283.29 368.57,287.432 369.552,301.058 388.18,291.941 388.51,292.615 	"/>
</g>
<g>
	<path d="M253.281,255.182l-7.843-4.793l-3.579-21.963l-12.015-17.58l14.259-13.272v-13.459h0.75v13.785l-14.026,13.055
		l11.59,16.958l11.344,0.296l-0.825,11.588l5.716,2.621L253.281,255.182z M246.123,249.929l6.806,4.158l4.751-11.29l-5.528-2.535
		l0.806-11.324l-10.299-0.269L246.123,249.929z"/>
</g>
<g>
	<polygon points="264.276,223.155 249.936,220.972 244.115,197.828 244.842,197.645 250.541,220.306 263.712,222.311 
		266.813,209.796 267.54,209.977 	"/>
</g>
<g>
	<polygon points="273.71,249.525 258.021,242.954 258.311,242.262 273.517,248.632 279.397,242.311 279.946,242.821 	"/>
</g>
<g>
	<polygon points="283.32,263.422 253.823,252.983 254.074,252.276 282.719,262.415 285.548,244.422 286.29,244.538 	"/>
</g>
<g>
	<polygon points="278.507,321.863 278.426,321.861 267.108,321.515 258.854,318.254 258.333,306.048 259.082,306.017 
		259.583,317.734 267.323,320.793 278.366,321.109 292.658,315.095 283.413,305.116 283.962,304.606 293.936,315.37 	"/>
</g>
<g>
	<polygon points="300.825,343.956 289.721,341.458 294.954,327.18 289.886,317.285 290.554,316.943 295.771,327.129 
		290.719,340.913 300.47,343.106 309.763,328.131 320.628,325.611 318.365,315.798 329.063,314.24 333.796,303.664 315.794,296.536 
		306.737,300.474 309.812,306.771 291.797,311.153 291.619,310.425 308.73,306.263 305.72,300.099 315.78,295.725 334.8,303.256 
		329.579,314.924 319.279,316.423 321.526,326.172 310.235,328.791 	"/>
</g>
<g>
	<polygon points="138.441,306.893 109.628,306.834 110.874,301.242 126.136,300.134 125.515,279.484 108.438,272.715 
		108.714,272.018 126.249,278.968 126.907,300.829 111.485,301.949 110.563,306.086 137.814,306.141 141.447,285.951 
		156.803,285.494 164.334,276.437 147.713,267.331 152.123,260.452 164.599,265.577 152.621,250.243 153.211,249.781 
		166.933,267.346 152.416,261.383 148.779,267.059 165.492,276.216 157.164,286.233 142.078,286.683 	"/>
</g>
<g>
	<rect x="116.266" y="279.959" transform="matrix(0.0872 0.9962 -0.9962 0.0872 394.8831 148.0726)" width="0.75" height="19.115"/>
</g>
<g>
	<path d="M166.594,293.658l-13.303-7.361l0.363-0.656l12.842,7.106l3.214-2.77l12.737-4.199l-4.684-6.117l7.833-7.739l9.242,3.997
		l8.579-3.693l6.784,7.847l-10.837,10.035l-4.825-13.5l-8.776-3.795l-7.003,6.919l4.924,6.43l-13.667,4.506L166.594,293.658z
		 M195.31,276.532l4.379,12.253l9.472-8.77l-5.951-6.883L195.31,276.532z"/>
</g>
<g>
	<polygon points="221.265,258.728 208.131,255.198 208.326,254.473 220.957,257.869 227.606,248.558 245.056,247.565 
		245.099,248.314 228.007,249.287 	"/>
</g>
<g>
	<polygon points="304.414,288.801 290.167,286.789 290.272,286.046 303.998,287.985 311.291,274.27 296.221,270.266 
		286.152,278.246 285.686,277.658 296.05,269.444 312.396,273.788 	"/>
</g>
<g>
	<polygon points="334.544,303.743 334.052,303.177 338.963,298.914 339.676,291.883 347.366,292.325 357.622,283.319 
		358.116,283.883 347.63,293.092 340.35,292.673 339.68,299.285 	"/>
</g>
<g>
	<polygon points="207.869,245.22 207.682,244.494 226.521,239.645 216.47,232.684 229.841,222.636 223.934,212.779 224.578,212.394 
		230.831,222.83 217.751,232.659 228.297,239.963 	"/>
</g>
<g>
	<rect x="157.389" y="217.924" transform="matrix(0.8535 0.5211 -0.5211 0.8535 141.0252 -49.0643)" width="0.75" height="16.66"/>
</g>
<g>
	<polygon points="162.682,326.24 146.451,324.06 145.66,316.147 144.446,309.978 163.43,306.498 157.409,298.315 169.717,296.028 
		169.453,290.351 170.202,290.316 170.496,296.647 158.722,298.834 164.744,307.02 145.329,310.579 146.401,316.038 
		147.139,323.396 162.706,325.494 174.831,324.65 172.404,313.856 181.877,313.833 186.374,297.803 192.45,298.328 212.479,298.262 
		212.608,289.825 205.343,284.142 205.805,283.551 213.364,289.463 213.218,299.009 192.419,299.076 186.929,298.604 
		182.447,314.581 173.34,314.604 175.755,325.338 	"/>
</g>
<g>
	
		<rect x="162.713" y="310.119" transform="matrix(0.7618 0.6479 -0.6479 0.7618 241.2994 -35.1779)" width="11.533" height="0.751"/>
</g>
<g>
	<rect x="170.054" y="296.896" transform="matrix(0.9937 0.1121 -0.1121 0.9937 34.4437 -18.1204)" width="16.65" height="0.75"/>
</g>
<g>
	<polygon points="141.422,286.473 137.895,278.758 125.908,279.6 125.855,278.852 138.361,277.974 142.104,286.161 	"/>
</g>
<g>
	<rect x="115.378" y="268.713" transform="matrix(0.0354 0.9994 -0.9994 0.0354 389.9952 134.1123)" width="20.289" height="0.75"/>
</g>
<g>
	<path fill="none" stroke="#000000" stroke-width="0.75" stroke-miterlimit="10" d="M148.544,323.963"/>
</g>
<g>
	<polygon points="155.686,343.883 142.363,338.883 148.194,323.827 148.894,324.099 143.336,338.447 155.95,343.18 	"/>
</g>
<g>
	<rect x="153.433" y="342.677" transform="matrix(0.9352 0.3542 -0.3542 0.9352 133.0979 -31.9442)" width="0.75" height="9.841"/>
</g>
<g>
	<polygon points="156.13,359.919 155.246,359.919 155.236,359.686 155.206,359.699 151.726,352.053 152.409,351.742 155.767,359.12 
		195.07,355.585 195.137,356.331 156.096,359.844 	"/>
</g>
<g>
	<rect x="157.558" y="339.894" transform="matrix(0.9811 0.1937 -0.1937 0.9811 69.1132 -26.1522)" width="21.407" height="0.751"/>
</g>
<g>
	<rect x="159.833" y="325.398" transform="matrix(0.9292 0.3696 -0.3696 0.9292 134.0802 -35.7035)" width="0.75" height="13.265"/>
</g>
<g>
	<rect x="156.365" y="337.503" transform="matrix(0.9102 0.4141 -0.4141 0.9102 155.0269 -34.3509)" width="0.75" height="5.751"/>
</g>
<g>
	<rect x="159.216" y="348.383" transform="matrix(0.4269 0.9043 -0.9043 0.4269 412.4211 46.7661)" width="20.197" height="0.75"/>
</g>
<g>
	<rect x="137.64" y="308.022" transform="matrix(0.8738 0.4863 -0.4863 0.8738 167.8179 -29.8942)" width="7.736" height="0.751"/>
</g>
<g>
	<polygon points="131.915,321.065 131.8,321.036 112.262,316.366 111.876,306.531 112.625,306.502 112.99,315.769 131.86,320.279 
		145.716,314.847 145.989,315.544 	"/>
</g>
<g>
	<polygon points="126.973,336.526 116.717,332.253 120.319,317.332 121.048,317.508 117.596,331.808 127.261,335.835 	"/>
</g>
<g>
	<polygon points="139.712,355.514 125.341,349.386 126.744,336.142 127.49,336.22 126.146,348.913 140.006,354.824 	"/>
</g>
<g>
	<rect x="134.476" y="360.561" transform="matrix(0.0687 0.9976 -0.9976 0.0687 490.7094 196.2261)" width="11.561" height="0.75"/>
</g>
<g>
	<polygon points="136.774,373.346 120.721,368.676 120.931,367.955 136.449,372.471 140.339,366.498 140.968,366.908 	"/>
</g>
<g>
	<polygon points="129.551,358.371 115.077,352.771 115.347,352.071 129.144,357.41 131.542,351.751 132.233,352.044 	"/>
</g>
<g>
	<polygon points="143.376,337.44 127.486,333.447 127.443,336.645 126.693,336.635 126.748,332.488 143.558,336.713 	"/>
</g>
<g>
	<polygon points="140.234,355.169 139.484,355.169 139.484,347.334 152.193,351.847 151.942,352.554 140.234,348.397 	"/>
</g>
<g>
	<rect x="164.704" y="277.636" transform="matrix(0.9696 0.2447 -0.2447 0.9696 73.2542 -33.5382)" width="13.767" height="0.75"/>
</g>
<g>
	<rect x="173.235" y="257.205" transform="matrix(0.2463 0.9692 -0.9692 0.2463 387.4891 31.3175)" width="0.75" height="15.17"/>
</g>
<g>
	<polygon points="178.632,279.755 177.892,279.636 180.59,262.859 179.288,247.023 180.035,246.962 181.333,262.888 	"/>
</g>
<g>
	<polygon points="219.431,272.678 218.681,272.678 218.681,266.051 199.441,263.242 199.62,254.828 200.37,254.843 200.205,262.595 
		219.431,265.403 	"/>
</g>
<g>
	<polygon points="219.056,273.053 203.149,273.053 178.886,246.706 179.438,246.198 203.478,272.303 219.056,272.303 	"/>
</g>
<g>
	<polygon points="170.684,246.889 164.627,229.753 156.929,227.837 157.11,227.109 165.199,229.123 171.391,246.639 	"/>
</g>
<g>
	<rect x="175.615" y="238.204" transform="matrix(0.562 0.8271 -0.8271 0.562 278.2168 -48.2238)" width="18.053" height="0.75"/>
</g>
<g>
	<rect x="196.814" y="216.009" transform="matrix(0.8464 0.5326 -0.5326 0.8464 148.9259 -70.8026)" width="0.75" height="13.465"/>
</g>
<g>
	<rect x="193.418" y="230.181" transform="matrix(0.9842 0.1771 -0.1771 0.9842 44.0885 -32.7312)" width="23.882" height="0.75"/>
</g>
<g>
	<polygon points="230.962,234.773 229.962,222.764 230.709,222.702 231.647,233.961 243.012,232.99 243.076,233.737 	"/>
</g>
<g>
	<rect x="254.149" y="221.282" transform="matrix(0.9504 0.3111 -0.3111 0.9504 82.6479 -68.0244)" width="0.75" height="7.478"/>
</g>
<g>
	<rect x="242.782" y="117.471" transform="matrix(0.9993 0.0364 -0.0364 0.9993 4.6168 -8.7757)" width="0.749" height="9.696"/>
</g>
<g>
	<polygon points="286.959,138.102 286.209,138.102 286.209,131.578 296.961,134.886 296.74,135.602 286.959,132.594 	"/>
</g>
<g>
	<rect x="301.011" y="150.63" transform="matrix(0.3331 0.9429 -0.9429 0.3331 349.0477 -191.4843)" width="17.752" height="0.75"/>
</g>
<g>
	<rect x="294.11" y="163.66" transform="matrix(0.9212 0.389 -0.389 0.9212 87.6901 -104.9902)" width="17.969" height="0.75"/>
</g>
<g>
	<rect x="290.14" y="178.955" transform="matrix(0.9993 0.0373 -0.0373 0.9993 6.8982 -10.9376)" width="12.638" height="0.75"/>
</g>
<g>
	<polygon points="347.625,183.917 342.51,183.821 341.983,156.984 342.733,156.969 343.246,183.085 347.258,183.16 351.461,177.635 
		352.059,178.089 	"/>
</g>
<g>
	<polygon points="313.285,265.77 313.163,265.503 305.668,249.021 306.352,248.71 313.725,264.926 326.352,262.609 325.457,247.94 
		318.878,248.956 318.763,248.215 326.156,247.074 327.142,263.228 	"/>
</g>
<g>
	<polygon points="313.465,265.721 300.961,264.351 284.14,254.962 284.505,254.307 301.26,263.658 313.545,264.975 	"/>
</g>
<g>
	<rect x="297.765" y="262.889" transform="matrix(0.8473 0.531 -0.531 0.8473 187.1197 -117.6178)" width="0.75" height="7.543"/>
</g>
<g>
	<polygon points="334.919,293.133 334.793,292.987 322.887,279.226 326.372,274.836 326.372,262.918 327.122,262.918 
		327.122,275.098 323.861,279.205 335.233,292.35 339.977,291.904 340.048,292.651 	"/>
</g>
<g>
	<rect x="311.287" y="276.247" transform="matrix(0.912 0.4102 -0.4102 0.912 141.4328 -105.9445)" width="12.643" height="0.75"/>
</g>
<g>
	<polygon points="340.005,275.654 333.734,271.744 326.921,275.3 326.573,274.635 333.768,270.88 340.02,274.78 347.667,270.395 
		348.04,271.045 	"/>
</g>
<g>
	<polygon points="316.145,296.239 315.429,296.022 317.698,288.545 329.674,286.211 329.816,286.948 318.284,289.194 	"/>
</g>
<g>
	<rect x="303.799" y="290.334" transform="matrix(0.94 0.3411 -0.3411 0.94 117.786 -88.5065)" width="13.582" height="0.75"/>
</g>
<g>
	<polygon points="334.325,303.834 334.27,303.086 360.039,301.222 360.039,290.931 353.711,287.42 354.074,286.764 360.789,290.49 
		360.789,301.919 	"/>
</g>
<g>
	<rect x="331.215" y="312.948" transform="matrix(0.2056 0.9786 -0.9786 0.2056 580.1876 -67.3687)" width="0.75" height="21.483"/>
</g>
<g>
	<polygon points="341.746,321.759 341.23,321.214 354.614,308.572 363.293,308.572 368.923,301.407 369.513,301.87 363.658,309.322 
		354.913,309.322 	"/>
</g>
<g>
	<rect x="359.781" y="311.976" transform="matrix(0.1262 0.992 -0.992 0.1262 633.6856 -94.6725)" width="21.597" height="0.75"/>
</g>
<g>
	<polygon points="356.146,330.233 341.304,321.812 341.673,321.16 355.926,329.245 361.143,321.863 371.971,322.69 371.914,323.438 
		361.51,322.643 	"/>
</g>
<g>
	
		<rect x="307.278" y="310.939" transform="matrix(0.7055 0.7087 -0.7087 0.7055 313.1073 -130.8863)" width="13.537" height="0.75"/>
</g>
<g>
	
		<rect x="334.909" y="283.201" transform="matrix(0.4569 0.8895 -0.8895 0.4569 439.2414 -152.2558)" width="18.794" height="0.751"/>
</g>
<g>
	
		<rect x="357.972" y="265.783" transform="matrix(0.2475 0.9689 -0.9689 0.2475 534.3024 -141.6588)" width="0.75" height="14.714"/>
</g>
<g>
	<rect x="411.725" y="209.034" transform="matrix(0.9887 0.1496 -0.1496 0.9887 36.9406 -59.2219)" width="0.751" height="13.777"/>
</g>
<g>
	<rect x="410.474" y="267.766" transform="matrix(0.0812 0.9967 -0.9967 0.0812 652.8802 -171.9504)" width="18.46" height="0.75"/>
</g>
<g>
	<polygon points="437.32,289.643 431.81,279.831 420.366,277.081 420.542,276.352 432.304,279.178 437.975,289.276 	"/>
</g>
<g>
	<path d="M370.777,368.885l-17.325-3.777l-7.01-0.326l-7.97-8.344l-19.213,2.134l-8.001-19.97l10.538,1.329l16.202,3.195l3.98-3.72
		l0.18,0.026l21.434,3.209l14.998-9.127v9.66l11.735,0.605l-0.153-7.592l-14.063-18.005l10.022-12.007l5.527-1.187v-12.712h0.75
		v13.318l-5.867,1.261l-9.468,11.343l13.843,17.724l0.175,8.648l-13.251-0.684v-9.039l-14.09,8.574l-0.135-0.02l-20.832-3.118
		l7.089,13.334l4.377,1.656l21.391-5.695l1.47,7.395L370.777,368.885z M346.778,364.047l6.772,0.319l16.833,3.665l5.94-11.171
		l-1.263-6.351l-20.85,5.553l-4.867-1.842l-7.342-13.809l-3.771,3.524l-16.554-3.266l-9.249-1.165l7.315,18.257l19.014-2.112
		L346.778,364.047z"/>
</g>
<g>
	<rect x="349.819" y="359.964" transform="matrix(0.057 0.9984 -0.9984 0.057 694.0454 -14.1196)" width="9.355" height="0.749"/>
</g>
<g>
	<rect x="362.7" y="346.164" transform="matrix(0.8573 0.5148 -0.5148 0.8573 231.1187 -140.7755)" width="13.622" height="0.75"/>
</g>
<g>
	
		<rect x="322.522" y="348.215" transform="matrix(0.6467 0.7627 -0.7627 0.6467 383.2591 -130.3019)" width="19.545" height="0.75"/>
</g>
<g>
	<polygon points="284.599,372.349 253.558,364.302 257.451,352.623 252.261,350.272 253.88,337.03 254.624,337.122 253.073,349.817 
		258.375,352.219 254.524,363.776 284.196,371.47 287.414,364.958 285.568,355.933 271.285,349.542 273.491,337.257 263.49,330.849 
		265.041,321.426 265.781,321.547 264.31,330.483 274.318,336.896 272.127,349.097 286.225,355.405 288.2,365.06 	"/>
</g>
<g>
	<polygon points="299.212,359.472 297.649,352.262 301.291,343.389 301.984,343.674 298.431,352.33 299.811,358.694 
		319.484,357.792 319.52,358.542 	"/>
</g>
<g>
	<rect x="273.904" y="336.701" width="18.34" height="0.75"/>
</g>
<g>
	<rect x="257.819" y="353.67" transform="matrix(0.9933 0.1153 -0.1153 0.9933 42.6328 -28.9882)" width="28.171" height="0.749"/>
</g>
<g>
	<rect x="291.593" y="347.681" transform="matrix(0.2682 0.9634 -0.9634 0.2682 554.6758 -22.2274)" width="0.75" height="12.603"/>
</g>
<g>
	<rect x="295.333" y="327.433" transform="matrix(0.996 0.0889 -0.0889 0.996 30.3483 -25.6164)" width="14.695" height="0.749"/>
</g>
<g>
	<rect x="325.269" y="323.231" transform="matrix(0.9006 0.4347 -0.4347 0.9006 176.7876 -108.527)" width="0.75" height="17.96"/>
</g>
<g>
	
		<rect x="368.696" y="328.248" transform="matrix(0.4914 0.8709 -0.8709 0.4914 476.9648 -159.5336)" width="12.766" height="0.75"/>
</g>
<g>
	
		<rect x="397.985" y="296.969" transform="matrix(0.2056 0.9786 -0.9786 0.2056 613.9171 -148.3872)" width="0.75" height="13.981"/>
</g>
<g>
	<rect x="405.212" y="303.701" transform="matrix(0.9961 0.0886 -0.0886 0.9961 28.5903 -35.9026)" width="26.947" height="0.749"/>
</g>
<g>
	<rect x="447.521" y="289.06" transform="matrix(0.9148 0.4039 -0.4039 0.9148 155.6434 -158.983)" width="14.287" height="0.75"/>
</g>
<g>
	<rect x="458.933" y="276.62" transform="matrix(0.8675 0.4975 -0.4975 0.8675 199.2699 -194.0291)" width="9.75" height="0.75"/>
</g>
<g>
	<rect x="444.396" y="233.893" transform="matrix(0.9376 0.3477 -0.3477 0.9376 110.4582 -139.787)" width="0.75" height="8.051"/>
</g>
<g>
	<rect x="434.014" y="320.34" transform="matrix(0.3943 0.919 -0.919 0.3943 560.7034 -209.3209)" width="10.277" height="0.75"/>
</g>
<g>
	<path d="M254.547,337.451h-12.929l-0.109-0.184l-11.64-19.632l11.255-11.932l2.753-0.866v-12.551l29.402-5.029l1.603,14.012
		l-15.799,0.728v3.636l25.639-1.604l5.096-17.574l-4.129-8.128h-13.002l-3.901-10.901l3.824-8.218l0.68,0.316l-3.694,7.939
		l3.62,10.114h12.934l4.472,8.803l-5.326,18.364l-26.962,1.688v-5.151l15.713-0.724l-1.422-12.426l-27.997,4.789v11.887l6.987,1.412
		l-3.053,22.6l7.86,0.862L254.547,337.451z M242.045,336.701h11.911l1.536-6.368l-7.778-0.853l3.062-22.666l-6.504-1.315
		l-2.737,0.86l-10.733,11.379L242.045,336.701z"/>
</g>
<g>
	<polygon points="249.374,291.687 247.771,267.115 257.293,265.951 252.757,254.775 253.452,254.493 258.357,266.577 
		248.566,267.773 250.122,291.638 	"/>
</g>
<g>
	<polygon points="248.118,273.024 233.803,271.047 233.803,265.221 245.482,249.931 246.078,250.386 234.553,265.475 
		234.553,270.394 248.22,272.281 	"/>
</g>
<g>
	<rect x="247.889" y="274.927" transform="matrix(0.9779 0.2091 -0.2091 0.9779 63.3228 -48.3957)" width="25.342" height="0.75"/>
</g>
<g>
	<rect x="267.77" y="282.797" transform="matrix(0.0077 1 -1 0.0077 554.0611 8.0169)" width="10.442" height="0.75"/>
</g>
<g>
	<polygon points="243.887,292.689 241.512,282.538 232.071,281.533 218.852,272.993 219.259,272.363 232.402,280.854 
		242.121,281.846 244.617,292.518 	"/>
</g>
<g>
	<rect x="233.031" y="285.35" transform="matrix(0.3814 0.9244 -0.9244 0.3814 419.0099 -31.9876)" width="0.75" height="23.473"/>
</g>
<g>
	<polygon points="222.185,301.577 221.894,286.409 209.517,280.38 209.845,279.707 222.635,285.935 222.935,301.564 	"/>
</g>
<g>
	<polygon points="175.381,325.358 175.205,324.63 196.374,319.494 206.946,307.736 215.813,308.46 221.982,301.393 222.547,301.885 
		216.13,309.239 207.255,308.514 196.776,320.168 	"/>
</g>
<g>
	<polygon points="209.822,329.66 195.821,320.275 196.239,319.652 209.54,328.568 212.77,322.286 224.267,323.54 222.186,301.605 
		222.933,301.535 225.101,324.386 213.202,323.087 	"/>
</g>
<g>
	<rect x="180.11" y="323.161" transform="matrix(0.9842 0.177 -0.177 0.9842 61.772 -26.6946)" width="0.75" height="19.337"/>
</g>
<g>
	<polygon points="192.555,342.718 178.762,342.718 178.762,341.968 192.102,341.968 201.664,323.788 202.328,324.138 	"/>
</g>
<g>
	<rect x="193.603" y="341.588" transform="matrix(0.9807 0.1953 -0.1953 0.9807 70.732 -33.5591)" width="23.94" height="0.751"/>
</g>
<g>
	<rect x="224.183" y="328.671" transform="matrix(0.6461 0.7633 -0.7633 0.6461 337.5994 -51.7113)" width="0.75" height="18.988"/>
</g>
<g>
	<rect x="221.735" y="327.74" transform="matrix(0.7013 0.7129 -0.7129 0.7013 301.9955 -64.4914)" width="12.436" height="0.75"/>
</g>
<g>
	<polygon points="245.304,343.37 231.429,343.37 231.429,332.03 232.179,332.03 232.179,342.62 244.106,342.62 241.495,337.24 
		242.169,336.912 	"/>
</g>
<g>
	<polygon points="204.165,354.473 200.867,341.189 201.594,341.007 204.726,353.617 227.084,349.847 217.138,344.633 
		217.487,343.969 229.404,350.216 	"/>
</g>
<g>
	<polygon points="253.969,364.407 245.438,362.727 244.331,343.017 245.08,342.974 246.154,362.103 254.113,363.671 	"/>
</g>
<g>
	<polygon points="224.224,368.195 201.017,365.211 194.824,356.213 178.521,342.631 179.002,342.055 195.413,355.745 
		201.444,364.51 223.819,367.387 229.297,357.666 228.693,350.306 229.44,350.245 230.064,357.834 	"/>
</g>
<g>
	<polygon points="252.042,384.165 235.718,383.624 234.133,374.405 245.521,362.159 246.07,362.671 234.935,374.644 
		236.354,382.896 251.292,383.39 251.292,376.978 258.548,375.409 253.697,364.188 254.385,363.891 259.599,375.949 
		252.042,377.584 	"/>
</g>
<g>
	<rect x="229.537" y="358.894" transform="matrix(0.9822 0.1877 -0.1877 0.9822 71.638 -38.2091)" width="16.185" height="0.75"/>
</g>
<g>
	<rect x="200.022" y="359.816" transform="matrix(0.3175 0.9483 -0.9483 0.3175 482.4925 50.0124)" width="12.962" height="0.75"/>
</g>
<g>
	<rect x="300.427" y="367.347" transform="matrix(0.3686 0.9296 -0.9296 0.3686 537.7025 -56.2379)" width="19.651" height="0.75"/>
</g>
<g>
	<rect x="286.959" y="370.833" transform="matrix(0.9157 0.4019 -0.4019 0.9157 174.5751 -89.6783)" width="28.1" height="0.751"/>
</g>
<g>
	<rect x="321.189" y="367.632" transform="matrix(0.1796 0.9837 -0.9837 0.1796 633.1505 -8.3206)" width="0.751" height="15.635"/>
</g>
<g>
	<rect x="314.938" y="365.73" transform="matrix(0.5032 0.8642 -0.8642 0.5032 477.4066 -98.2157)" width="18.371" height="0.75"/>
</g>
<g>
	<polygon points="339.382,384.255 339.061,383.577 347.677,379.515 328.648,374.405 328.844,373.681 349.847,379.321 	"/>
</g>
<g>
	<rect x="332.859" y="378.401" transform="matrix(0.0806 0.9967 -0.9967 0.0806 689.5306 21.2722)" width="0.751" height="12.015"/>
</g>
<g>
	<rect x="327.622" y="373.991" transform="matrix(0.9904 0.1381 -0.1381 0.9904 55.5544 -41.6646)" width="0.749" height="10.961"/>
</g>
<g>
	
		<rect x="324.959" y="384.167" transform="matrix(0.7427 0.6697 -0.6697 0.7427 342.9023 -118.2689)" width="0.749" height="5.716"/>
</g>
<g>
	
		<rect x="295.436" y="383.277" transform="matrix(0.9257 0.3782 -0.3782 0.9257 168.1365 -88.7387)" width="29.064" height="0.749"/>
</g>
<g>
	<rect x="298.347" y="371.055" transform="matrix(0.8236 0.5672 -0.5672 0.8236 265.395 -103.2887)" width="0.751" height="7.786"/>
</g>
<g>
	<rect x="289.594" y="374.827" transform="matrix(0.5899 0.8074 -0.8074 0.5899 428.0972 -77.111)" width="0.75" height="16.207"/>
</g>
<g>
	<rect x="273.029" y="387.331" width="10.393" height="0.75"/>
</g>
<g>
	<rect x="266.525" y="381.843" transform="matrix(0.1683 0.9857 -0.9857 0.1683 603.0602 49.6747)" width="11.134" height="0.75"/>
</g>
<g>
	<rect x="271.717" y="368.85" transform="matrix(0.9722 0.2343 -0.2343 0.9722 94.9221 -53.3688)" width="0.75" height="7.991"/>
</g>
<g>
	<rect x="251.488" y="385.366" transform="matrix(0.9835 0.1809 -0.1809 0.9835 74.0981 -41.0898)" width="21.721" height="0.751"/>
</g>
<g>
	<rect x="241.048" y="393.029" transform="matrix(0.0395 0.9992 -0.9992 0.0395 633.744 127.5181)" width="18.989" height="0.75"/>
</g>
<g>
	<rect x="262.569" y="387.814" transform="matrix(0.2229 0.9749 -0.9749 0.2229 594.4279 54.6401)" width="0.749" height="24.668"/>
</g>
<g>
	<rect x="274.594" y="387.706" width="0.75" height="9.699"/>
</g>
<g>
	<rect x="280.961" y="392.18" transform="matrix(0.5905 0.807 -0.807 0.5905 434.3266 -70.8426)" width="12.018" height="0.75"/>
</g>
<g>
	<rect x="290.519" y="397.03" width="12.243" height="0.75"/>
</g>
<g>
	
		<rect x="307.519" y="383.064" transform="matrix(0.7727 0.6348 -0.6348 0.7727 318.3025 -106.533)" width="0.751" height="16.178"/>
</g>
<g>
	<rect x="302.043" y="400.33" transform="matrix(0.9094 0.4159 -0.4159 0.9094 194.7603 -92.6255)" width="15.866" height="0.75"/>
</g>
<g>
	<polygon points="317.543,404.132 316.838,403.878 318.977,397.941 331.327,396.347 331.423,397.091 319.527,398.627 	"/>
</g>
<g>
	<rect x="321.908" y="392.559" transform="matrix(0.7244 0.6894 -0.6894 0.7244 361.136 -117.4074)" width="10.981" height="0.75"/>
</g>
<g>
	<polygon points="335.657,403.158 331.073,396.941 331.677,396.496 336.001,402.361 349.313,400.772 349.403,401.516 	"/>
</g>
<g>
	<polygon points="349,401.256 345.286,389.367 338.984,384.206 339.459,383.626 345.935,388.93 345.969,389.036 349.717,401.031 	
		"/>
</g>
<g>
	<rect x="360.119" y="377.875" transform="matrix(0.3911 0.9203 -0.9203 0.3911 572.9862 -97.9118)" width="0.749" height="12.45"/>
</g>
<g>
	<polygon points="366.599,381.667 365.849,381.667 365.849,375.247 346.811,370.893 346.237,364.447 346.983,364.381 
		347.511,370.283 366.599,374.649 	"/>
</g>
<g>
	<polygon points="390.709,404.005 389.959,404.005 389.959,394.022 378.399,394.667 378.399,389.367 365.413,381.993 
		365.784,381.341 379.149,388.93 379.149,393.874 390.709,393.228 	"/>
</g>
<g>
	<rect x="394.028" y="399.603" transform="matrix(0.0781 0.9969 -0.9969 0.0781 766.0498 -21.0428)" width="0.75" height="8.163"/>
</g>
<g>
	<rect x="386.704" y="392.14" transform="matrix(0.0812 0.9967 -0.9967 0.0812 756.5424 -35.6165)" width="21.768" height="0.75"/>
</g>
<g>
	<polygon points="396.705,382.042 381.589,382.042 381.589,375.342 381.645,375.252 391.715,358.887 392.353,359.279 
		382.339,375.555 382.339,381.292 396.705,381.292 	"/>
</g>
<g>
	<rect x="376.641" y="357.626" transform="matrix(0.9902 0.14 -0.14 0.9902 53.886 -50.2709)" width="15.47" height="0.75"/>
</g>
<g>
	
		<rect x="383.889" y="351.255" transform="matrix(0.0885 0.9961 -0.9961 0.0885 706.9648 -69.3407)" width="14.966" height="0.749"/>
</g>
<g>
	
		<rect x="391.298" y="361.373" transform="matrix(0.8583 0.5131 -0.5131 0.8583 241.7811 -152.1902)" width="10.39" height="0.751"/>
</g>
<g>
	<polygon points="401.307,364.537 400.598,364.291 404.632,352.684 400.577,349.609 400.577,336.556 401.327,336.556 
		401.327,349.236 405.519,352.416 	"/>
</g>
<g>
	<rect x="390.539" y="335.93" transform="matrix(0.9988 0.048 -0.048 0.9988 16.5945 -18.6037)" width="10.419" height="0.751"/>
</g>
<g>
	<polygon points="403.81,330.522 396.645,330.097 391.667,305.367 392.401,305.219 397.266,329.382 403.854,329.773 	"/>
</g>
<g>
	<rect x="402.017" y="329.839" transform="matrix(0.9124 0.4094 -0.4094 0.9124 171.7383 -135.521)" width="0.749" height="7.026"/>
</g>
<g>
	<rect x="403.802" y="330.301" transform="matrix(0.9934 0.1143 -0.1143 0.9934 40.4909 -44.5327)" width="9.232" height="0.749"/>
</g>
<g>
	<rect x="412.784" y="318.026" transform="matrix(0.9997 0.0235 -0.0235 0.9997 7.7293 -9.6035)" width="0.75" height="13.179"/>
</g>
<g>
	<polygon points="431.959,356.015 418.404,350.272 420.797,337.247 412.236,331.515 412.654,330.892 421.623,336.897 
		419.25,349.817 432.252,355.323 	"/>
</g>
<g>
	<polygon points="432.48,355.684 431.73,355.654 432.012,348.374 443.833,353.328 443.544,354.02 432.719,349.483 	"/>
</g>
<g>
	<polygon points="444.027,353.834 443.35,353.514 455.789,327.171 441.144,325.81 441.213,325.065 456.924,326.522 	"/>
</g>
<g>
	<polygon points="447.789,345.118 435.701,341.386 440.821,325.323 441.536,325.552 436.646,340.892 448.01,344.401 	"/>
</g>
<g>
	<rect x="420.939" y="338.73" transform="matrix(0.965 0.2622 -0.2622 0.965 103.9288 -100.5514)" width="15.507" height="0.751"/>
</g>
<g>
	<polygon points="446.977,359.47 443.373,353.877 444.004,353.471 447.372,358.696 465.765,357.654 458.997,338.888 451.457,337.44 
		451.598,336.704 459.558,338.231 466.811,358.346 	"/>
</g>
<g>
	<polygon points="461.989,376.802 433.308,366.641 433.558,365.934 460.593,375.511 453.328,359.236 454.014,358.93 	"/>
</g>
<g>
	<rect x="427.419" y="360.603" transform="matrix(0.124 0.9923 -0.9923 0.124 737.2888 -113.2179)" width="10.701" height="0.75"/>
</g>
<g>
	<polygon points="430.47,373.204 400.85,364.774 401.055,364.054 430.071,372.311 433.096,366.122 433.77,366.452 	"/>
</g>
<g>
	<polygon points="397.08,381.672 396.33,381.662 396.396,376.85 404.57,375.169 400.601,364.545 401.304,364.283 405.58,375.728 
		397.139,377.463 	"/>
</g>
<g>
	<rect x="396.438" y="384.917" transform="matrix(0.9737 0.2277 -0.2277 0.9737 98.4586 -82.995)" width="25.102" height="0.75"/>
</g>
<g>
	<polygon points="420.864,388.296 415.773,376.273 419.696,369.738 420.339,370.125 416.613,376.332 421.556,388.003 	"/>
</g>
<g>
	<rect x="421.21" y="387.774" width="11.19" height="0.75"/>
</g>
<g>
	<polygon points="432.203,388.281 431.502,388.018 434.62,379.726 444.62,378.186 444.733,378.929 435.167,380.399 	"/>
</g>
<g>
	<rect x="446.111" y="371.114" transform="matrix(0.8886 0.4587 -0.4587 0.8886 221.783 -163.0196)" width="0.75" height="7.883"/>
</g>
<g>
	<polygon points="450.2,398.521 435.774,398.401 435.78,397.651 449.845,397.767 459.692,385.556 444.526,378.901 444.827,378.214 
		460.892,385.263 	"/>
</g>
<g>
	<rect x="428.646" y="392.772" transform="matrix(0.4165 0.9091 -0.9091 0.4165 610.721 -165.3008)" width="10.993" height="0.75"/>
</g>
<g>
	<polygon points="402.451,416.393 402.43,415.643 430.005,414.852 436.079,398.017 436.784,398.271 430.536,415.586 
		430.281,415.594 	"/>
</g>
<g>
	<polygon points="402.803,416.113 402.078,415.922 403.405,410.915 421.173,409.05 420.835,388.155 421.585,388.144 
		421.935,409.724 403.997,411.606 	"/>
</g>
<g>
	
		<rect x="409.466" y="388.309" transform="matrix(0.2737 0.9618 -0.9618 0.2737 682.5089 -103.5821)" width="0.749" height="23.641"/>
</g>
<g>
	<polygon points="362.745,393.229 354.533,386.829 348.475,379.66 349.049,379.176 355.051,386.291 363.206,392.638 	"/>
</g>
<g>
	
		<rect x="355.494" y="388.849" transform="matrix(0.5026 0.8645 -0.8645 0.5026 520.2621 -110.1586)" width="0.75" height="16.451"/>
</g>
<g>
	<polygon points="370.296,411.261 369.546,411.261 369.546,398.263 362.753,393.235 363.198,392.632 370.296,397.884 	"/>
</g>
<g>
	<rect x="379.752" y="396.801" transform="matrix(0.3357 0.942 -0.942 0.3357 636.4943 -87.2787)" width="0.751" height="21.664"/>
</g>
<g>
	<rect x="384.572" y="409.636" transform="matrix(0.0416 0.9991 -0.9991 0.0416 783.9975 2.7141)" width="12.023" height="0.751"/>
</g>
<g>
	<rect x="390.834" y="415.643" width="11.606" height="0.75"/>
</g>
<g>
	<polygon points="423.141,430.951 423.079,430.941 405.403,428.21 402.079,416.117 402.802,415.918 405.997,427.542 
		423.133,430.191 435.623,428.02 435.752,428.758 	"/>
</g>
<g>
	<polygon points="411.145,443.038 395.553,440.998 390.467,416.093 391.201,415.942 396.18,440.324 410.497,442.196 
		412.255,428.423 412.999,428.519 	"/>
</g>
<g>
	<polygon points="388.405,446.677 376.113,429.615 385.497,416.538 390.771,415.647 390.896,416.388 385.927,417.226 
		377.037,429.615 389.015,446.239 	"/>
</g>
<g>
	<polygon points="403.445,447.764 388.686,446.832 388.733,446.084 402.695,446.965 402.695,441.603 403.445,441.603 	"/>
</g>
<g>
	<rect x="381.123" y="454.555" transform="matrix(0.1099 0.9939 -0.9939 0.1099 798.9905 17.6385)" width="17.049" height="0.751"/>
</g>
<g>
	<polygon points="376.74,454.753 377.593,442.591 378.341,442.644 377.545,453.985 389.423,453.735 389.438,454.485 	"/>
</g>
<g>
	<rect x="340.365" y="451.361" transform="matrix(0.9782 0.2077 -0.2077 0.9782 101.4973 -63.2166)" width="22.86" height="0.751"/>
</g>
<g>
	<polygon points="338.444,453.755 326.072,452.108 326.172,451.364 338.052,452.946 340.292,449.171 340.936,449.554 	"/>
</g>
<g>
	<polygon points="356.513,476.269 346.975,476.269 325.839,451.982 326.405,451.49 347.316,475.519 355.595,475.519 
		353.411,464.845 354.145,464.694 	"/>
</g>
<g>
	<polygon points="353.872,465.133 353.685,464.406 374.045,459.147 362.831,454.456 363.12,453.765 376.391,459.315 	"/>
</g>
<g>
	<rect x="371.273" y="464.102" transform="matrix(0.2777 0.9607 -0.9607 0.2777 718.3143 -26.4311)" width="10.922" height="0.75"/>
</g>
<g>
	<polygon points="353.774,465.145 348.158,465.084 346.71,451.191 347.456,451.113 348.834,464.342 353.782,464.395 	"/>
</g>
<g>
	<polygon points="317.754,467.501 309.897,447.982 326.198,451.369 326.046,452.103 311.116,449.002 318.449,467.222 	"/>
</g>
<g>
	<rect x="328.163" y="456.218" transform="matrix(0.0652 0.9979 -0.9979 0.0652 772.7884 108.3944)" width="0.75" height="20.918"/>
</g>
<g>
	<rect x="325.747" y="467.326" width="0.75" height="18.118"/>
</g>
<g>
	<rect x="323.102" y="474.292" transform="matrix(0.6931 0.7209 -0.7209 0.6931 444.5196 -94.6808)" width="20.688" height="0.75"/>
</g>
<g>
	<polygon points="298.728,470.139 297.27,462.677 298.006,462.532 299.33,469.309 318.056,466.989 318.147,467.733 	"/>
</g>
<g>
	<rect x="302.726" y="435.336" transform="matrix(0.9228 0.3852 -0.3852 0.9228 196.5338 -82.0648)" width="0.75" height="28.363"/>
</g>
<g>
	<polygon points="315.71,437.469 315.642,437.462 308.53,436.804 308.599,436.058 315.642,436.709 330.144,432.637 330.347,433.359 
			"/>
</g>
<g>
	<rect x="325.231" y="431.879" transform="matrix(0.8902 0.4555 -0.4555 0.8902 237.0994 -99.7936)" width="0.75" height="20.341"/>
</g>
<g>
	<rect x="334.463" y="427.521" transform="matrix(0.1744 0.9847 -0.9847 0.1744 701.985 27.0884)" width="0.75" height="9.328"/>
</g>
<g>
	<rect x="338.839" y="433.318" transform="matrix(0.8778 0.479 -0.479 0.8778 249.7227 -111.6317)" width="9.689" height="0.75"/>
</g>
<g>
	
		<rect x="343.899" y="435.076" transform="matrix(0.8766 0.4813 -0.4813 0.8766 255.5612 -111.0518)" width="0.751" height="15.224"/>
</g>
<g>
	<polygon points="355.886,439.683 347.793,436.36 348.078,435.667 355.573,438.743 359.467,432.23 371.433,431 371.509,431.746 
		359.918,432.938 	"/>
</g>
<g>
	<polygon points="363.204,454.408 362.747,453.812 377.477,442.52 371.145,431.56 371.796,431.185 378.456,442.715 	"/>
</g>
<g>
	<rect x="360.61" y="420.942" transform="matrix(0.0768 0.997 -0.997 0.0768 762.287 19.3472)" width="20.172" height="0.75"/>
</g>
<g>
	<polygon points="339.692,431.642 339.169,431.104 351.61,418.962 360.676,418.93 370.227,410.78 370.714,411.351 360.953,419.68 
		351.917,419.71 	"/>
</g>
<g>
	<rect x="312.869" y="429.505" transform="matrix(0.2641 0.9645 -0.9645 0.2641 649.1786 8.9241)" width="11.744" height="0.749"/>
</g>
<g>
	<polygon points="330.526,424.591 317.19,424.591 317.19,423.841 329.964,423.841 333.157,412.947 317.014,404.336 317.367,403.674 
		334.048,412.572 	"/>
</g>
<g>
	<polygon points="316.926,424.481 302.013,409.665 311.639,407.493 316.973,403.699 317.408,404.31 311.878,408.209 
		303.511,410.097 317.455,423.95 	"/>
</g>
<g>
	<rect x="301.251" y="410.468" transform="matrix(0.2124 0.9772 -0.9772 0.2124 647.8076 35.9118)" width="0.75" height="18.7"/>
</g>
<g>
	<rect x="290.855" y="421.504" transform="matrix(0.8913 0.4534 -0.4534 0.8913 224.05 -85.931)" width="0.749" height="5.55"/>
</g>
<g>
	<rect x="287.911" y="429.848" transform="matrix(0.4799 0.8773 -0.8773 0.4799 529.2508 -32.3004)" width="7.914" height="0.75"/>
</g>
<g>
	<rect x="293.641" y="434.687" transform="matrix(0.9833 0.1818 -0.1818 0.9833 84.1273 -47.5082)" width="15.049" height="0.751"/>
</g>
<g>
	<polygon points="300.618,455.603 288.946,452.505 293.401,433.608 294.131,433.78 289.843,451.968 300.81,454.878 	"/>
</g>
<g>
	<rect x="273.75" y="445.25" transform="matrix(0.9818 0.1899 -0.1899 0.9818 89.7738 -45.4937)" width="16.978" height="0.75"/>
</g>
<g>
	<polygon points="285.381,466.341 271.024,460.551 273.534,443.957 274.275,444.068 271.854,460.076 285.662,465.646 	"/>
</g>
<g>
	<polygon points="285.896,465.993 285.146,465.993 285.146,457.643 297.774,462.579 297.501,463.278 285.896,458.74 	"/>
</g>
<g>
	<rect x="280.206" y="471.407" transform="matrix(0.0851 0.9964 -0.9964 0.0851 731.7598 146.6741)" width="11.619" height="0.75"/>
</g>
<g>
	<rect x="285.606" y="481.75" transform="matrix(0.9242 0.3818 -0.3818 0.9242 206.612 -77.0756)" width="23.862" height="0.75"/>
</g>
<g>
	<rect x="300.729" y="477.357" transform="matrix(0.3934 0.9194 -0.9194 0.3934 627.5413 4.3649)" width="19.467" height="0.75"/>
</g>
<g>
	<polygon points="283.596,484.144 250.697,475.413 250.889,474.689 283.201,483.263 286.175,477.4 286.844,477.74 	"/>
</g>
<g>
	<rect x="253.416" y="461.346" transform="matrix(0.909 0.4167 -0.4167 0.909 218.3271 -63.14)" width="0.75" height="14.361"/>
</g>
<g>
	<polygon points="274.667,469.238 256.655,462.353 256.923,461.651 274.389,468.328 278.174,462.938 278.789,463.369 	"/>
</g>
<g>
	<polygon points="256.635,462.344 252.642,460.545 254.542,441.081 255.288,441.153 253.44,460.082 256.943,461.66 	"/>
</g>
<g>
	<rect x="254.915" y="440.742" width="9.619" height="0.75"/>
</g>
<g>
	<rect x="264.329" y="442.19" transform="matrix(0.9605 0.2783 -0.2783 0.9605 133.802 -57.5234)" width="10.405" height="0.75"/>
</g>
<g>
	<rect x="265.44" y="428.062" transform="matrix(0.9807 0.1954 -0.1954 0.9807 90.0415 -43.5568)" width="0.75" height="13.181"/>
</g>
<g>
	<polygon points="276.501,432.592 276.358,432.53 266.949,428.532 267.242,427.843 276.509,431.779 289.829,426.403 
		290.109,427.099 	"/>
</g>
<g>
	<rect x="140.203" y="368.931" transform="matrix(0.9419 0.336 -0.336 0.9419 132.6947 -28.2406)" width="15.494" height="0.751"/>
</g>
<g>
	<polygon points="167.594,375.72 155.146,372.271 155.346,371.548 166.342,374.595 160.25,359.199 160.947,358.924 	"/>
</g>
<g>
	<polygon points="167.045,375.524 166.89,374.79 181.724,371.653 173.307,358.088 173.945,357.693 182.925,372.165 	"/>
</g>
<g>
	<rect x="169.96" y="369.395" transform="matrix(0.7705 0.6374 -0.6374 0.7705 278.7491 -34.7389)" width="35.324" height="0.751"/>
</g>
<g>
	<rect x="196.839" y="378.619" transform="matrix(0.4699 0.8827 -0.8827 0.4699 442.7591 29.0224)" width="0.75" height="9.103"/>
</g>
<g>
	<rect x="181.392" y="371.886" transform="matrix(0.9965 0.0834 -0.0834 0.9965 32.1845 -13.8357)" width="0.75" height="13.178"/>
</g>
<g>
	<rect x="151.456" y="370.868" transform="matrix(0.8675 0.4975 -0.4975 0.8675 206.5996 -25.8569)" width="0.75" height="7.939"/>
</g>
<g>
	<rect x="149.079" y="381.636" transform="matrix(0.9175 0.3978 -0.3978 0.9175 165.0576 -31.5076)" width="18.756" height="0.75"/>
</g>
<g>
	<rect x="161.065" y="383.324" transform="matrix(0.6874 0.7263 -0.7263 0.6874 334.5023 5.0026)" width="0.75" height="15.488"/>
</g>
<g>
	<polygon points="155.818,396.77 144.234,396.77 137.039,387.747 141.718,378.976 149.805,377.908 149.902,378.652 142.198,379.669 
		137.932,387.665 144.596,396.02 155.818,396.02 	"/>
</g>
<g>
	<rect x="166.657" y="387.508" transform="matrix(0.9309 0.3652 -0.3652 0.9309 153.5621 -36.212)" width="11.724" height="0.749"/>
</g>
<g>
	<rect x="179.218" y="384.561" transform="matrix(0.8388 0.5444 -0.5444 0.8388 239.9366 -35.3075)" width="0.75" height="5.941"/>
</g>
<g>
	<rect x="188.181" y="401.841" transform="matrix(0.9999 0.0166 -0.0166 0.9999 6.7045 -3.1733)" width="12.589" height="0.75"/>
</g>
<g>
	<rect x="175.168" y="395.692" transform="matrix(0.6451 0.7641 -0.7641 0.6451 367.597 0.6687)" width="15.82" height="0.75"/>
</g>
<g>
	<polygon points="168.367,403.147 167.818,402.635 172.336,397.789 183.559,396.323 183.656,397.067 172.701,398.498 	"/>
</g>
<g>
	
		<rect x="155.012" y="399.268" transform="matrix(0.8839 0.4678 -0.4678 0.8839 205.7514 -29.3396)" width="13.887" height="0.749"/>
</g>
<g>
	<rect x="167.155" y="402.808" transform="matrix(0.9581 0.2864 -0.2864 0.9581 122.9229 -31.0231)" width="0.75" height="3.913"/>
</g>
<g>
	<polygon points="171.195,427.011 155.829,411.005 166.82,406.294 167.116,406.983 157.121,411.267 171.736,426.491 	"/>
</g>
<g>
	<polygon points="171.556,427.115 171.376,426.387 183.338,423.434 187.838,413.178 188.525,413.478 183.876,424.072 	"/>
</g>
<g>
	<rect x="166.453" y="409.609" transform="matrix(0.9537 0.3007 -0.3007 0.9537 131.5167 -34.4239)" width="22.243" height="0.75"/>
</g>
<g>
	<rect x="190.129" y="410.216" transform="matrix(0.2853 0.9585 -0.9585 0.2853 531.6562 112.3421)" width="0.75" height="4.846"/>
</g>
<g>
	<rect x="185.065" y="406.656" transform="matrix(0.427 0.9043 -0.9043 0.427 477.2195 60.9666)" width="10.88" height="0.75"/>
</g>
<g>
	<polygon points="192.842,412.324 192.812,411.574 213.161,410.775 213.161,400.715 207.732,397.005 208.155,396.386 
		213.911,400.318 213.911,411.496 	"/>
</g>
<g>
	<polygon points="200.5,403.008 198.595,391.257 192.07,385.317 187.592,382.094 181.385,385.372 181.035,384.708 187.653,381.213 
		192.541,384.735 199.293,390.878 201.037,401.633 207.712,396.4 208.175,396.99 	"/>
</g>
<g>
	<rect x="199.123" y="386.164" transform="matrix(0.7449 0.6672 -0.6672 0.7449 310.7909 -39.7556)" width="16.52" height="0.75"/>
</g>
<g>
	<rect x="210.365" y="390.737" transform="matrix(0.6397 0.7687 -0.7687 0.6397 379.0759 -19.8784)" width="0.75" height="7.27"/>
</g>
<g>
	<rect x="211.441" y="375.269" transform="matrix(0.1432 0.9897 -0.9897 0.1432 560.2444 118.2639)" width="0.75" height="14.893"/>
</g>
<g>
	<polygon points="219.561,381.653 218.811,381.653 218.811,375.397 200.855,371.443 200.855,364.86 201.605,364.86 201.605,370.84 
		219.561,374.793 	"/>
</g>
<g>
	<rect x="218.188" y="384.936" transform="matrix(0.8614 0.508 -0.508 0.8614 226.9643 -61.0771)" width="14.402" height="0.75"/>
</g>
<g>
	<polygon points="231.217,394.795 231.217,388.054 231.967,388.054 231.967,393.949 243.14,392.608 243.229,393.353 	"/>
</g>
<g>
	<rect x="237.475" y="398.149" transform="matrix(0.0552 0.9985 -0.9985 0.0552 627.4575 133.9148)" width="10.979" height="0.75"/>
</g>
<g>
	<rect x="246.718" y="399.582" transform="matrix(0.1445 0.9895 -0.9895 0.1445 610.5955 100.6431)" width="0.75" height="7.731"/>
</g>
<g>
	<rect x="232.099" y="396.475" transform="matrix(0.3454 0.9384 -0.9384 0.3454 535.0353 48.8869)" width="0.749" height="23.003"/>
</g>
<g>
	<polygon points="222.055,411.957 221.305,411.941 221.621,396.915 213.356,392.379 213.716,391.721 222.381,396.476 	"/>
</g>
<g>
	<rect x="244.047" y="404.117" transform="matrix(0.9998 0.0208 -0.0208 0.9998 8.579 -4.9942)" width="0.75" height="11.767"/>
</g>
<g>
	<polygon points="241.323,445.896 229.644,428.163 239.996,415.508 244.297,415.508 244.297,416.258 240.352,416.258 
		230.573,428.212 241.949,445.483 	"/>
</g>
<g>
	<rect x="241.614" y="445.843" transform="matrix(0.9966 0.0828 -0.0828 0.9966 37.7915 -18.9991)" width="12.775" height="0.751"/>
</g>
<g>
	<polygon points="254.841,441.484 248.122,440.13 249.794,414.609 250.542,414.658 248.913,439.524 254.989,440.75 	"/>
</g>
<g>
	<rect x="246.837" y="412.639" transform="matrix(0.1067 0.9943 -0.9943 0.1067 634.0193 125.4109)" width="0.75" height="5.864"/>
</g>
<g>
	<polygon points="267.047,428.56 257.42,427.3 256.393,411.64 273.557,408.543 274.595,397.37 275.342,397.44 274.251,409.18 
		257.185,412.259 258.128,426.636 267.145,427.815 	"/>
</g>
<g>
	<rect x="250.528" y="415.196" transform="matrix(0.9957 0.0923 -0.0923 0.9957 39.4601 -21.6715)" width="6.768" height="0.749"/>
</g>
<g>
	<rect x="211.705" y="422.244" transform="matrix(0.0728 0.9973 -0.9973 0.0728 628.0839 169.6295)" width="22.209" height="0.75"/>
</g>
<g>
	<polygon points="208.024,439.876 192.665,432.523 192.989,431.848 207.863,438.968 213.368,433.33 223.592,432.624 
		223.644,433.372 213.705,434.059 	"/>
</g>
<g>
	<polygon points="193.093,432.45 192.561,431.921 205.033,419.415 205.18,419.408 215.626,418.969 221.707,411.31 222.294,411.777 
		216,419.703 205.357,420.151 	"/>
</g>
<g>
	<polygon points="172.792,435.067 171.099,426.826 171.833,426.676 173.387,434.237 192.781,431.814 192.873,432.558 	"/>
</g>
<g>
	<polygon points="215.749,454.106 192.223,450.013 200.447,436.364 201.09,436.751 193.431,449.462 215.878,453.368 	"/>
</g>
<g>
	<rect x="223.204" y="438.586" transform="matrix(0.5832 0.8123 -0.8123 0.5832 457.2394 5.1722)" width="0.75" height="19.132"/>
</g>
<g>
	<rect x="221.414" y="437.998" transform="matrix(0.6368 0.7711 -0.7711 0.6368 420.6447 -16.1674)" width="12.136" height="0.75"/>
</g>
<g>
	<polygon points="242.966,455.615 230.285,455.615 230.971,442.547 231.72,442.586 231.075,454.865 242.966,454.865 	"/>
</g>
<g>
	<rect x="237.479" y="450.09" transform="matrix(0.1379 0.9904 -0.9904 0.1379 655.0412 148.3497)" width="9.643" height="0.75"/>
</g>
<g>
	<rect x="234.866" y="463.26" transform="matrix(0.0358 0.9994 -0.9994 0.0358 697.9077 203.9491)" width="16.8" height="0.75"/>
</g>
<g>
	<rect x="243.263" y="473.165" transform="matrix(0.9226 0.3858 -0.3858 0.9226 201.8006 -58.6993)" width="7.833" height="0.749"/>
</g>
<g>
	<polygon points="244.248,472.707 228.122,470.569 228.122,460.541 215.641,454.07 215.986,453.404 228.872,460.086 
		228.872,469.913 244.346,471.963 	"/>
</g>
<g>
	
		<rect x="219.243" y="453.832" transform="matrix(0.3044 0.9525 -0.9525 0.3044 593.9241 112.9552)" width="0.751" height="18.643"/>
</g>
<g>
	<rect x="195.614" y="455.262" transform="matrix(0.0971 0.9953 -0.9953 0.0971 634.355 212.0445)" width="9.397" height="0.75"/>
</g>
<g>
	<rect x="270.589" y="401.561" transform="matrix(0.0456 0.999 -0.999 0.0456 673.4489 125.6586)" width="0.751" height="27.394"/>
</g>
<g>
	<rect x="287.208" y="396.919" transform="matrix(0.9464 0.3229 -0.3229 0.9464 146.5083 -71.1112)" width="0.75" height="18.201"/>
</g>
<g>
	<rect x="283.255" y="417.846" transform="matrix(0.7379 0.6749 -0.6749 0.7379 357.8771 -85.145)" width="10.628" height="0.749"/>
</g>
<g>
	<path fill="#FFFFFF" d="M297.636,488.059c-105.388,0-191.128-85.741-191.128-191.131c0-105.388,85.74-191.128,191.128-191.128
		c105.391,0,191.132,85.74,191.132,191.128C488.768,402.317,403.026,488.059,297.636,488.059z M297.636,106.799
		c-104.837,0-190.128,85.291-190.128,190.128c0,104.838,85.291,190.131,190.128,190.131c104.839,0,190.132-85.293,190.132-190.131
		C487.768,192.09,402.475,106.799,297.636,106.799z"/>
</g>
</svg>
