<?xml version="1.0" encoding="utf-8"?>
<!-- Generator: Adobe Illustrator 17.1.0, SVG Export Plug-In . SVG Version: 6.00 Build 0)  -->
<!DOCTYPE svg PUBLIC "-//W3C//DTD SVG 1.1//EN" "http://www.w3.org/Graphics/SVG/1.1/DTD/svg11.dtd">
<svg version="1.1" id="Ebene_1" xmlns="http://www.w3.org/2000/svg" xmlns:xlink="http://www.w3.org/1999/xlink" x="0px" y="0px"
	 viewBox="0 0 841.89 595.28" enable-background="new 0 0 841.89 595.28" xml:space="preserve">
<g>
	<path d="M268.842,203.191l-9.247-7.929l0.488-0.569l8.96,7.682l16.133-3.74l-6.204-7.388l9.571-4.08
		c1.099-0.668,2.143-1.503,2.327-1.859c-0.025-0.007-0.058-0.014-0.101-0.02c-1.765-0.26-12.806-4.983-13.274-5.184l-0.457-0.196
		l11.595-14.246l10.666,3.822l6.686,7.083l4.384,6.948l3.896,0.107l10.076-0.027l-5.184-13.406l-10.44-6.677l-7.219,3.629
		l2.783-21.319l0.744,0.097l-2.6,19.917l6.337-3.185l11.007,7.038l5.665,14.653l-11.178,0.03l-4.308-0.119l-4.553-7.229
		l-6.579-6.959l-9.935-3.519l-10.633,13.064c4.06,1.732,11.345,4.747,12.631,4.936c0.547,0.081,0.713,0.354,0.756,0.568
		c0.157,0.779-1.409,1.909-2.751,2.719l-8.687,3.708l6.34,7.549L268.842,203.191z"/>
</g>
<g>
	<polygon points="309.96,193.234 288.599,187.874 288.781,187.147 309.953,192.459 316.393,190.723 315.667,184.03 316.413,183.949 
		317.207,191.279 	"/>
</g>
<g>
	<polygon points="291.121,185.144 290.526,184.687 294.123,180.006 306.295,177.503 306.446,178.238 294.548,180.685 	"/>
</g>
<g>
	<polygon points="295.853,207.652 295.728,206.913 304.456,205.433 309.609,192.706 310.304,192.987 304.994,206.103 	"/>
</g>
<g>
	<polygon points="336.064,193.257 316.763,191.374 316.837,190.628 335.368,192.436 336.051,182.533 330.799,178.387 
		325.621,184.36 325.055,183.869 330.701,177.355 336.826,182.189 	"/>
</g>
<g>
	<polygon points="295.474,215.372 295.417,207.458 285.613,199.148 286.099,198.575 296.164,207.108 296.218,214.494 304.328,213.2 
		316.173,213.195 330.222,200.28 338.118,200.28 344.129,190.931 343.752,179.816 335.333,173.084 324.819,162.867 315.535,167.648 
		315.192,166.98 324.955,161.953 335.829,172.522 344.491,179.446 344.887,191.14 338.527,201.03 330.514,201.03 316.466,213.945 
		304.387,213.945 	"/>
</g>
<g>
	
		<rect x="301.706" y="153.757" transform="matrix(-0.7742 -0.6329 0.6329 -0.7742 460.9263 472.6889)" width="26.136" height="0.75"/>
</g>
<g>
	<path d="M261.805,244.44l-14.355-4.054l1.477-16.799l16.142,5.883l5.853-13.848l14.456,3.132l10.329-4.169l0.28,0.695
		l-10.542,4.256l-14.073-3.05l-5.587,13.219l11.458,3.42l-3.615,8.282l-11.789-2.038L261.805,244.44z M248.252,239.833l12.809,3.618
		l0.032-4.972l12.081,2.089l3.041-6.966L265.49,230.4l-0.008,0.019l-15.894-5.793L248.252,239.833z"/>
</g>
<g>
	<polygon points="261.275,262.108 234.642,256.339 234.802,255.605 260.552,261.184 261.058,243.935 261.808,243.957 	"/>
</g>
<g>
	<polygon points="331.926,255.21 323.161,255.21 312.886,246.426 294.357,247.139 275.962,250.439 273.042,241.1 273.758,240.876 
		276.48,249.585 294.276,246.395 313.151,245.665 323.439,254.46 331.141,254.46 330.724,245.285 326.359,245.89 322.039,232.593 
		317.105,229.042 315.476,233.906 302.803,231.481 296.29,229.903 304.048,213.411 304.726,213.73 297.361,229.391 302.962,230.749 
		314.973,233.046 316.718,227.839 322.677,232.128 326.878,245.061 331.436,244.429 	"/>
</g>
<g>
	<polygon points="331.244,220.659 316.166,213.913 316.473,213.228 331.081,219.764 336.205,214.676 347.141,212.294 
		344.137,191.088 344.879,190.982 347.981,212.879 336.578,215.362 	"/>
</g>
<g>
	<path d="M363.391,184.395l0.794-10.262l-10.21-2.938l-11.986-7.081v-5.327l-19.391-5.031l-7.751-15.283l0.669-0.339l7.598,14.981
		l19.625,5.092v5.479l11.576,6.839l10.664,3.055l-0.773,10.002l10.6-0.782l-1.072-18.317l-16.691,0.638l-0.525-7.721l11.601-14.261
		l-15.234-0.958l-7.757,9.163l-15.622-3.167l-0.068-0.207c-0.088-0.27-2.154-6.633-0.764-8.963c0.292-0.491,0.711-0.788,1.246-0.884
		c2.682-0.481,15.629-2.779,18.965-3.372l-10.973-9.298l0.484-0.572l12.191,10.33l-0.786,0.139c0,0-16.665,2.957-19.749,3.511
		c-0.316,0.057-0.556,0.23-0.734,0.529c-0.972,1.629,0.168,6.239,0.767,8.139l14.757,2.992l7.714-9.112l17.064,1.073l-12.333,15.163
		l0.456,6.699l16.698-0.638l1.158,19.788L363.391,184.395z"/>
</g>
<g>
	<polygon points="368.499,142.872 365.965,127.539 352.796,127.539 353.362,118.46 354.111,118.506 353.594,126.789 
		366.601,126.789 369.24,142.75 	"/>
</g>
<g>
	<path d="M406.3,155.782l-28.334-7.636l-1.289-15.194v-13.641l-17.269-2.509l0.107-0.742l17.911,2.603v14.018l20.225,6.654
		l3.914-4.986l8.689,3.496l0.337,8.97L406.3,155.782z M378.669,147.56l27.223,7.336l3.942-8.238l-0.311-8.298l-7.715-3.105
		l-3.891,4.957l-20.443-6.726L378.669,147.56z"/>
</g>
<g>
	<polygon points="374.323,164.387 373.852,163.803 381.038,158.008 378.005,148.111 368.693,143.142 369.046,142.48 
		378.631,147.595 381.904,158.273 	"/>
</g>
<g>
	<path d="M399.637,212.922l-18.541-5.357v-15.049l16.91-2.139L395,169.302l-0.004-16.854h0.75v16.802l3.111,21.776l-17.01,2.152
		v13.823l17.768,5.134l14.559-5.161l2.257-3.764l-8.981-8.142l6.271-15.937l-7.313-10.097l11.488-8.792l6.725-4.594l11.535,3.337
		l15.377-3.918l-3.578-14.451l-18.959,2.566l-6.392-0.088l-2.857-7.881l4.271-7.843l-10.237-3.636l2.343-14.506l17.01,2.973
		l-12.566,23.074l2.566,7.077l5.817,0.084l19.57-2.652l3.918,15.827l-16.295,4.153l-11.393-3.296l-6.417,4.383l-10.892,8.336
		l7.126,9.838l-6.232,15.836l9.054,8.207l-2.712,4.523L399.637,212.922z M414.619,123.237l9.761,3.466l7.594-13.944l-15.232-2.662
		L414.619,123.237z"/>
</g>
<g>
	<polygon points="401.614,135.169 394.496,133.761 396.059,118.79 377.819,114.615 377.426,119.021 376.678,118.954 
		377.148,113.692 396.875,118.207 395.313,133.158 401.76,134.434 	"/>
</g>
<g>
	<polygon points="483.193,193.123 462.956,193.123 462.956,184.485 457.633,184.485 453.421,178.457 445.588,179.985 
		438.533,184.342 425.483,179.753 434.509,167.117 448.736,169.814 450.567,155.557 451.311,155.653 449.378,170.698 
		434.841,167.943 426.674,179.377 438.444,183.516 445.377,179.262 453.757,177.628 458.024,183.735 463.706,183.735 
		463.706,192.373 482.443,192.373 482.443,185.081 474.429,177.79 482.195,173.411 447.977,140.47 448.496,139.93 483.441,173.569 
		475.7,177.934 483.193,184.749 	"/>
</g>
<g>
	<polygon points="443.02,217.548 440.01,207.981 425.927,191.638 437.58,188.44 438.116,183.885 438.861,183.973 438.266,189.03 
		427.269,192.047 440.702,207.683 443.526,216.657 462.391,212.184 477.001,199.734 486.514,200.205 490.187,192.447 
		511.269,184.842 511.269,174.879 503.152,175.169 503.052,175.105 488.816,165.896 488.816,158.155 470.023,152.914 
		470.023,146.84 450.824,124.672 434.777,123.077 434.851,122.331 451.195,123.955 470.773,146.561 470.773,152.344 
		489.566,157.585 489.566,165.488 503.361,174.411 512.019,174.102 512.019,185.369 490.732,193.048 486.977,200.978 
		477.261,200.498 462.653,212.893 	"/>
</g>
<g>
	<polygon points="492.868,150.254 470.358,147.844 470.438,147.098 492.505,149.461 499.615,139.19 498.033,133.805 
		471.573,124.285 463.477,123.052 462.503,127.135 450.931,124.68 451.087,123.947 461.943,126.249 462.908,122.206 
		471.756,123.561 498.645,133.227 500.436,139.322 	"/>
</g>
<g>
	
		<rect x="448.092" y="107.846" transform="matrix(-0.8721 -0.4894 0.4894 -0.8721 782.7242 436.8924)" width="0.75" height="16.587"/>
</g>
<g>
	
		<rect x="424.452" y="128.093" transform="matrix(-0.6087 -0.7934 0.7934 -0.6087 604.6769 555.1583)" width="29.573" height="0.75"/>
</g>
<g>
	<polygon points="470.687,146.939 470.109,146.462 476.725,138.459 471.378,137.645 471.325,123.933 472.075,123.93 
		472.126,137.001 478.147,137.917 	"/>
</g>
<g>
	<polygon points="511.78,185.455 511.508,184.756 514.876,183.46 519.853,183.044 518.118,163.641 502.998,164.287 502.49,157.723 
		513.328,143.661 499.917,139.615 500.134,138.898 514.586,143.257 503.259,157.952 503.69,163.506 518.802,162.86 520.667,183.729 
		514.993,184.202 	"/>
</g>
<g>
	<polygon points="527.052,197.707 515.319,197.707 514.533,183.854 515.282,183.812 516.028,196.957 526.46,196.957 
		527.548,192.391 544.46,191.321 541.987,166.981 539.359,156.739 541.266,152.895 538.057,150.211 523.257,147.82 513.81,143.804 
		514.105,143.114 523.464,147.105 538.379,149.503 542.201,152.699 540.154,156.823 542.723,166.85 545.284,192.02 528.15,193.105 	
		"/>
</g>
<g>
	<polygon points="513.375,234.847 501.411,232.57 501.822,224.226 493.909,212.651 493.905,212.543 492.148,167.862 
		492.898,167.833 494.65,212.406 502.583,224.011 502.193,231.955 512.625,233.941 512.625,226.54 499.501,209.469 515.443,197.036 
		515.904,197.628 500.55,209.602 513.375,226.285 	"/>
</g>
<g>
	<path d="M436.942,249.455c-3.765,0-8.876-0.232-13.47-0.495l-0.24-0.014l-2.573-6.609L410.566,239l-0.273,6.199l-14.412-4.414
		v-16.676l16.577,7.477l10.715,4.225l5.699-17.101l-10.192-1.356l-5.162-9.691l0.662-0.353l4.98,9.351l10.71,1.424l-6.236,18.713
		l-11.468-4.522l-15.535-7.006v14.961l12.955,3.967l0.274-6.221l11.37,3.759l2.525,6.489c7.763,0.44,16.277,0.671,17.896,0.287
		c-1.371-2.569-8.694-18.925-9.02-19.655l-0.324-0.724l11.486,3.136l8.515-16.291l0.664,0.348l-8.794,16.826l-10.539-2.877
		c2.978,6.645,8.239,18.277,8.797,19.102c0.105,0.155,0.114,0.342,0.024,0.499C442.219,249.298,440.034,249.455,436.942,249.455z"/>
</g>
<g>
	<polygon points="492.69,257.727 470.521,254.815 470.431,254.724 462.031,246.209 453.419,233.955 443.913,232.077 
		444.058,231.342 453.861,233.277 453.947,233.4 462.604,245.73 470.874,254.105 492.356,256.926 499.806,247.099 498.246,241.426 
		472.824,246.657 470.092,230.688 486.351,233.992 501.024,222.439 501.489,223.027 486.542,234.796 471.016,231.641 
		473.433,245.766 498.783,240.55 500.628,247.257 	"/>
</g>
<g>
	<polygon points="461.97,234.79 453.604,233.989 453.676,233.242 461.562,233.998 471.154,217.423 462.393,212.861 462.739,212.196 
		472.195,217.121 	"/>
</g>
<g>
	<polygon points="478.188,221.116 471.499,217.604 471.849,216.94 477.985,220.162 483.263,213.463 494.28,213.463 494.28,214.213 
		483.626,214.213 	"/>
</g>
<g>
	<path d="M563.145,313.339l-8.167-7.968l5.686-16.221l10.571-2.934l10.981-11.491l-16.952-6.166l5.496-6.027l-14.54-5.902
		l-1.908-12.544l-11.947-5.208l0.25-11.906l-7.198-3.883l-17.299-3.342l2.918-22.464l0.744,0.097l-2.828,21.765l16.771,3.257
		l7.652,4.128l-0.25,11.862l11.867,5.171l1.906,12.532l14.631,5.939l11.365,3.679l13.712-3.724l1.43,12.59l-6.097,4.845l8.99,7.383
		l-16.082,5.787l-0.626,4.921l-9.935,4.36l3.816,6.499L563.145,313.339z M555.843,305.168l7.499,7.315l13.644-4.527l-3.773-6.427
		l10.319-4.528l0.63-4.956l15.272-5.496l-8.688-7.134l6.497-5.163l-1.283-11.309l-13.085,3.553l-11.36-3.678l-4.941,5.418
		l16.98,6.176l-11.917,12.47l-10.394,2.885L555.843,305.168z"/>
</g>
<g>
	<path d="M545.818,212.67l-16.711-5.634l-2.846-10.08h28.561l9.087,10.736L545.818,212.67z M529.722,206.453l16.117,5.434
		l16.738-4.605l-8.104-9.574H527.25L529.722,206.453z"/>
</g>
<g>
	<polygon points="555.015,197.407 554.281,197.257 557.966,179.21 550.928,171.778 556.513,163.031 557.146,163.434 
		551.875,171.688 558.779,178.977 	"/>
</g>
<g>
	<polygon points="563.335,207.85 563.152,207.124 582.642,202.183 572.887,192.034 573.428,191.514 584.075,202.593 	"/>
</g>
<g>
	<path d="M569.654,234.611l-9.238-3.449l4.577-13.943l-2.115-9.652l0.732-0.16l1.628,7.424l13.295,2.525L569.654,234.611z
		 M561.353,230.712l7.939,2.963l8.113-15.769l-11.994-2.278l0.358,1.631L561.353,230.712z"/>
</g>
<g>
	<polygon points="584.313,265.358 574.871,248.36 590.044,248.742 578.725,229.922 590.466,230.548 594.819,219.311 
		595.518,219.582 590.97,231.326 580.096,230.747 591.392,249.526 576.164,249.143 584.969,264.994 	"/>
</g>
<g>
	<polygon points="570.16,251.027 566.402,242.003 555.72,238.884 555.023,243.877 554.281,243.774 555.097,237.921 566.956,241.384 
		570.58,250.085 575.394,248.398 575.642,249.105 	"/>
</g>
<g>
	<polygon points="546.012,248.929 521.646,241.755 521.61,241.52 518.164,219.505 518.905,219.389 522.314,241.17 545.496,247.996 
		547.525,240.775 548.247,240.978 	"/>
</g>
<g>
	<polygon points="522.616,255.113 513.597,251.856 512.626,234.415 513.374,234.373 514.318,251.319 522.171,254.155 
		526.41,242.739 527.114,243 	"/>
</g>
<g>
	
		<rect x="499.074" y="249.673" transform="matrix(-0.9782 -0.2078 0.2078 -0.9782 950.1738 599.9056)" width="15.042" height="0.75"/>
</g>
<g>
	<path d="M521.638,293.519l-1.408-20.635l-0.417-0.075l0.133-0.738l0.232,0.042l-0.312-4.581l7.573-1.734l-4.288-13.833l0.717-0.222
		l4.526,14.606l-7.737,1.771l0.282,4.129l23.196,4.154v10.424L521.638,293.519z M520.99,273.02l1.331,19.513l21.062-6.266v-9.236
		L520.99,273.02z"/>
</g>
<g>
	<polygon points="553.427,263.148 523.38,252.206 523.636,251.501 553.101,262.231 556.616,256.327 557.261,256.711 	"/>
</g>
<g>
	<polygon points="519.844,272.814 503.032,271.234 503.334,263.582 513.671,251.345 514.243,251.83 504.073,263.87 503.809,270.554 
		519.914,272.066 	"/>
</g>
<g>
	<polygon points="511.275,292.7 511.275,282.472 500.24,282.472 498.942,278.796 488.1,273.674 487.36,267.254 469.617,262.289 
		470.325,254.427 471.071,254.494 470.42,261.735 488.047,266.667 488.797,273.174 499.545,278.251 500.772,281.722 
		512.025,281.722 512.025,291.856 521.803,290.699 521.891,291.444 	"/>
</g>
<g>
	<polygon points="548.661,321.475 536.527,318.391 529.89,316.223 529.055,307.902 528.074,302.22 544.943,298.838 543.387,286.594 
		544.131,286.499 545.775,299.435 528.937,302.811 529.797,307.802 530.587,315.662 536.736,317.671 548.599,320.685 
		560.208,315.681 562.966,312.658 563.521,313.164 560.579,316.338 	"/>
</g>
<g>
	<polygon points="589.993,316.522 577.343,308.482 577.745,307.85 590.099,315.699 598.133,313.121 604.7,303.996 583.767,297.618 
		583.986,296.9 605.921,303.584 598.598,313.76 	"/>
</g>
<g>
	<polygon points="492.189,302.22 491.16,287.956 480.94,283.912 471.377,271.494 448.325,247.223 462.253,245.573 462.341,246.318 
		449.899,247.792 471.946,271.007 481.408,283.29 491.875,287.432 492.857,301.058 511.485,291.941 511.815,292.615 	"/>
</g>
<g>
	<path d="M376.586,255.182l-7.843-4.793l-3.579-21.963l-12.015-17.58l14.259-13.272v-13.459h0.75V197.9l-14.026,13.055l11.59,16.958
		l11.344,0.296l-0.825,11.588l5.716,2.621L376.586,255.182z M369.428,249.929l6.806,4.158l4.751-11.29l-5.528-2.535l0.806-11.324
		l-10.299-0.269L369.428,249.929z"/>
</g>
<g>
	<polygon points="387.581,223.155 373.241,220.972 367.42,197.828 368.147,197.645 373.846,220.306 387.017,222.311 
		390.118,209.796 390.845,209.977 	"/>
</g>
<g>
	<polygon points="397.015,249.525 381.326,242.954 381.616,242.262 396.822,248.632 402.702,242.311 403.251,242.821 	"/>
</g>
<g>
	<polygon points="406.625,263.422 377.128,252.983 377.379,252.276 406.024,262.415 408.853,244.422 409.595,244.538 	"/>
</g>
<g>
	<polygon points="401.812,321.863 401.731,321.861 390.413,321.515 382.159,318.254 381.638,306.048 382.387,306.017 
		382.888,317.734 390.628,320.793 401.671,321.109 415.963,315.095 406.718,305.116 407.267,304.606 417.241,315.37 	"/>
</g>
<g>
	<polygon points="424.13,343.956 413.026,341.458 418.259,327.18 413.191,317.285 413.859,316.943 419.076,327.129 414.024,340.913 
		423.775,343.106 433.068,328.131 443.933,325.611 441.67,315.798 452.368,314.24 457.101,303.664 439.099,296.536 430.042,300.474 
		433.117,306.771 415.102,311.153 414.924,310.425 432.035,306.263 429.025,300.099 439.085,295.725 458.105,303.256 
		452.884,314.924 442.584,316.423 444.831,326.172 433.54,328.791 	"/>
</g>
<g>
	<polygon points="261.746,306.893 232.933,306.834 234.179,301.242 249.441,300.134 248.82,279.484 231.743,272.715 
		232.019,272.018 249.554,278.968 250.212,300.829 234.79,301.949 233.868,306.086 261.119,306.141 264.752,285.951 
		280.108,285.494 287.639,276.437 271.018,267.331 275.428,260.452 287.904,265.577 275.926,250.243 276.516,249.781 
		290.238,267.346 275.721,261.383 272.084,267.059 288.797,276.216 280.469,286.233 265.383,286.683 	"/>
</g>
<g>
	
		<rect x="239.568" y="279.959" transform="matrix(-0.0872 -0.9962 0.9962 -0.0872 -27.5478 553.7906)" width="0.75" height="19.115"/>
</g>
<g>
	<path d="M289.899,293.658l-13.303-7.361l0.363-0.656l12.842,7.106l3.214-2.77l12.737-4.199l-4.684-6.117l7.833-7.739l9.242,3.997
		l8.579-3.693l6.784,7.847l-10.837,10.035l-4.825-13.5l-8.776-3.795l-7.003,6.919l4.924,6.43l-13.667,4.506L289.899,293.658z
		 M318.615,276.532l4.379,12.253l9.472-8.77l-5.951-6.883L318.615,276.532z"/>
</g>
<g>
	<polygon points="344.57,258.728 331.436,255.198 331.631,254.473 344.262,257.869 350.911,248.558 368.361,247.565 
		368.404,248.314 351.312,249.287 	"/>
</g>
<g>
	<polygon points="427.719,288.801 413.472,286.789 413.577,286.046 427.303,287.985 434.596,274.27 419.526,270.266 
		409.457,278.246 408.991,277.658 419.355,269.444 435.701,273.788 	"/>
</g>
<g>
	<polygon points="457.849,303.743 457.357,303.177 462.268,298.914 462.981,291.883 470.671,292.325 480.927,283.319 
		481.421,283.883 470.935,293.092 463.655,292.673 462.985,299.285 	"/>
</g>
<g>
	<polygon points="331.174,245.22 330.987,244.494 349.826,239.645 339.775,232.684 353.146,222.636 347.239,212.779 
		347.883,212.394 354.136,222.83 341.056,232.659 351.602,239.963 	"/>
</g>
<g>
	
		<rect x="280.706" y="217.924" transform="matrix(-0.8535 -0.5211 0.5211 -0.8535 403.0818 565.8323)" width="0.75" height="16.66"/>
</g>
<g>
	<polygon points="285.987,326.24 269.756,324.06 268.965,316.147 267.751,309.978 286.735,306.498 280.714,298.315 293.022,296.028 
		292.758,290.351 293.507,290.316 293.801,296.647 282.027,298.834 288.049,307.02 268.634,310.579 269.706,316.038 
		270.444,323.396 286.011,325.494 298.136,324.65 295.709,313.856 305.182,313.833 309.679,297.803 315.755,298.328 
		335.784,298.262 335.913,289.825 328.648,284.142 329.11,283.551 336.669,289.463 336.523,299.009 315.724,299.076 
		310.234,298.604 305.752,314.581 296.645,314.604 299.06,325.338 	"/>
</g>
<g>
	
		<rect x="286.016" y="310.139" transform="matrix(-0.7618 -0.6479 0.6479 -0.7618 312.8791 736.0866)" width="11.534" height="0.751"/>
</g>
<g>
	
		<rect x="293.355" y="296.899" transform="matrix(-0.9937 -0.1121 0.1121 -0.9937 568.1339 626.4927)" width="16.65" height="0.75"/>
</g>
<g>
	<polygon points="264.727,286.473 261.2,278.758 249.213,279.6 249.16,278.852 261.666,277.974 265.409,286.161 	"/>
</g>
<g>
	<rect x="238.672" y="268.71" transform="matrix(-0.0354 -0.9994 0.9994 -0.0354 -11.2915 527.2717)" width="20.29" height="0.75"/>
</g>
<g>
	<path fill="none" stroke="#000000" stroke-width="0.75" stroke-miterlimit="10" d="M271.849,323.963"/>
</g>
<g>
	<polygon points="278.991,343.883 265.668,338.883 271.499,323.827 272.199,324.099 266.641,338.447 279.255,343.18 	"/>
</g>
<g>
	<rect x="276.75" y="342.687" transform="matrix(-0.9352 -0.3542 0.3542 -0.9352 413.1659 770.8363)" width="0.75" height="9.841"/>
</g>
<g>
	<polygon points="279.435,359.919 278.551,359.919 278.541,359.686 278.511,359.699 275.031,352.053 275.714,351.742 
		279.072,359.12 318.375,355.585 318.442,356.331 279.401,359.844 	"/>
</g>
<g>
	
		<rect x="280.885" y="339.903" transform="matrix(-0.9811 -0.1937 0.1937 -0.9811 511.7473 730.5916)" width="21.408" height="0.751"/>
</g>
<g>
	<rect x="283.157" y="325.4" transform="matrix(-0.9292 -0.3696 0.3696 -0.9292 424.2696 745.3464)" width="0.75" height="13.265"/>
</g>
<g>
	
		<rect x="279.671" y="337.492" transform="matrix(-0.9102 -0.4141 0.4141 -0.9102 394.0008 766.1495)" width="0.75" height="5.751"/>
</g>
<g>
	
		<rect x="282.526" y="348.387" transform="matrix(-0.4269 -0.9043 0.9043 -0.4269 102.1608 762.2685)" width="20.197" height="0.75"/>
</g>
<g>
	
		<rect x="260.931" y="308.023" transform="matrix(-0.8738 -0.4863 0.4863 -0.8738 346.2052 706.6467)" width="7.736" height="0.751"/>
</g>
<g>
	<polygon points="255.22,321.065 255.105,321.036 235.567,316.366 235.181,306.531 235.93,306.502 236.295,315.769 255.165,320.279 
		269.021,314.847 269.294,315.544 	"/>
</g>
<g>
	<polygon points="250.278,336.526 240.022,332.253 243.624,317.332 244.353,317.508 240.901,331.808 250.566,335.835 	"/>
</g>
<g>
	<polygon points="263.017,355.514 248.646,349.386 250.049,336.142 250.795,336.22 249.451,348.913 263.311,354.824 	"/>
</g>
<g>
	<rect x="257.8" y="360.567" transform="matrix(-0.0687 -0.9976 0.9976 -0.0687 -78.4005 648.6974)" width="11.561" height="0.75"/>
</g>
<g>
	<polygon points="260.079,373.346 244.026,368.676 244.236,367.955 259.754,372.471 263.644,366.498 264.273,366.908 	"/>
</g>
<g>
	<polygon points="252.856,358.371 238.382,352.771 238.652,352.071 252.449,357.41 254.847,351.751 255.538,352.044 	"/>
</g>
<g>
	<polygon points="266.681,337.44 250.791,333.447 250.748,336.645 249.998,336.635 250.053,332.488 266.863,336.713 	"/>
</g>
<g>
	<polygon points="263.539,355.169 262.789,355.169 262.789,347.334 275.498,351.847 275.247,352.554 263.539,348.397 	"/>
</g>
<g>
	
		<rect x="288.018" y="277.634" transform="matrix(-0.9696 -0.2447 0.2447 -0.9696 512.8083 619.7279)" width="13.767" height="0.75"/>
</g>
<g>
	
		<rect x="296.545" y="257.213" transform="matrix(-0.2463 -0.9692 0.9692 -0.2463 113.4099 617.7903)" width="0.75" height="15.17"/>
</g>
<g>
	<polygon points="301.937,279.755 301.197,279.636 303.895,262.859 302.593,247.023 303.34,246.962 304.638,262.888 	"/>
</g>
<g>
	<polygon points="342.736,272.678 341.986,272.678 341.986,266.051 322.746,263.242 322.925,254.828 323.675,254.843 
		323.51,262.595 342.736,265.403 	"/>
</g>
<g>
	<polygon points="342.361,273.053 326.454,273.053 302.191,246.706 302.743,246.198 326.783,272.303 342.361,272.303 	"/>
</g>
<g>
	<polygon points="293.989,246.889 287.932,229.753 280.234,227.837 280.415,227.109 288.504,229.123 294.696,246.639 	"/>
</g>
<g>
	<rect x="298.935" y="238.2" transform="matrix(-0.562 -0.8271 0.8271 -0.562 283.7103 627.3806)" width="18.052" height="0.75"/>
</g>
<g>
	
		<rect x="320.125" y="216.016" transform="matrix(-0.8464 -0.5326 0.5326 -0.8464 473.1302 581.9712)" width="0.75" height="13.465"/>
</g>
<g>
	
		<rect x="316.735" y="230.176" transform="matrix(-0.9842 -0.1771 0.1771 -0.9842 611.3271 515.666)" width="23.882" height="0.75"/>
</g>
<g>
	<polygon points="354.267,234.773 353.267,222.764 354.014,222.702 354.952,233.961 366.317,232.99 366.381,233.737 	"/>
</g>
<g>
	
		<rect x="377.473" y="221.279" transform="matrix(-0.9504 -0.3111 0.3111 -0.9504 666.9463 556.4166)" width="0.75" height="7.478"/>
</g>
<g>
	
		<rect x="366.081" y="117.461" transform="matrix(-0.9993 -0.0364 0.0364 -0.9993 728.2162 257.8755)" width="0.749" height="9.696"/>
</g>
<g>
	<polygon points="410.264,138.102 409.514,138.102 409.514,131.578 420.266,134.886 420.045,135.602 410.264,132.594 	"/>
</g>
<g>
	
		<rect x="424.317" y="150.633" transform="matrix(-0.3331 -0.9429 0.9429 -0.3331 435.1048 609.7631)" width="17.752" height="0.75"/>
</g>
<g>
	<rect x="417.412" y="163.648" transform="matrix(-0.9212 -0.389 0.389 -0.9212 755.3989 480.9994)" width="17.968" height="0.75"/>
</g>
<g>
	
		<rect x="413.447" y="178.95" transform="matrix(-0.9993 -0.0373 0.0373 -0.9993 832.5504 374.1822)" width="12.638" height="0.75"/>
</g>
<g>
	<polygon points="470.93,183.917 465.815,183.821 465.288,156.984 466.038,156.969 466.551,183.085 470.563,183.16 474.766,177.635 
		475.364,178.089 	"/>
</g>
<g>
	<polygon points="436.59,265.77 436.468,265.503 428.973,249.021 429.657,248.71 437.03,264.926 449.657,262.609 448.762,247.94 
		442.183,248.956 442.068,248.215 449.461,247.074 450.447,263.228 	"/>
</g>
<g>
	<polygon points="436.77,265.721 424.266,264.351 407.445,254.962 407.81,254.307 424.565,263.658 436.85,264.975 	"/>
</g>
<g>
	<rect x="421.067" y="262.865" transform="matrix(-0.8474 -0.531 0.531 -0.8474 636.9592 716.3698)" width="0.75" height="7.543"/>
</g>
<g>
	<polygon points="458.224,293.133 458.098,292.987 446.192,279.226 449.677,274.836 449.677,262.918 450.427,262.918 
		450.427,275.098 447.166,279.205 458.538,292.35 463.282,291.904 463.353,292.651 	"/>
</g>
<g>
	<rect x="434.605" y="276.243" transform="matrix(-0.912 -0.4102 0.4102 -0.912 729.5815 709.7594)" width="12.643" height="0.75"/>
</g>
<g>
	<polygon points="463.31,275.654 457.039,271.744 450.226,275.3 449.878,274.635 457.073,270.88 463.325,274.78 470.972,270.395 
		471.345,271.045 	"/>
</g>
<g>
	<polygon points="439.45,296.239 438.734,296.022 441.003,288.545 452.979,286.211 453.121,286.948 441.589,289.194 	"/>
</g>
<g>
	<rect x="427.094" y="290.327" transform="matrix(-0.94 -0.3411 0.3411 -0.94 742.5858 711.9711)" width="13.582" height="0.75"/>
</g>
<g>
	<polygon points="457.63,303.834 457.575,303.086 483.344,301.222 483.344,290.931 477.016,287.42 477.379,286.764 484.094,290.49 
		484.094,301.919 	"/>
</g>
<g>
	
		<rect x="454.53" y="312.935" transform="matrix(-0.2056 -0.9786 0.9786 -0.2056 231.6764 835.4117)" width="0.75" height="21.482"/>
</g>
<g>
	<polygon points="465.051,321.759 464.535,321.214 477.919,308.572 486.598,308.572 492.228,301.407 492.818,301.87 
		486.963,309.322 478.218,309.322 	"/>
</g>
<g>
	<rect x="483.107" y="311.986" transform="matrix(-0.1262 -0.992 0.992 -0.1262 246.3731 841.7379)" width="21.597" height="0.75"/>
</g>
<g>
	<polygon points="479.451,330.233 464.609,321.812 464.978,321.16 479.231,329.245 484.448,321.863 495.276,322.69 495.219,323.438 
		484.815,322.643 	"/>
</g>
<g>
	
		<rect x="430.575" y="310.935" transform="matrix(-0.7055 -0.7087 0.7087 -0.7055 525.2648 840.8893)" width="13.537" height="0.75"/>
</g>
<g>
	
		<rect x="458.222" y="283.195" transform="matrix(-0.4569 -0.8895 0.8895 -0.4569 429.0369 829.0893)" width="18.794" height="0.751"/>
</g>
<g>
	
		<rect x="481.278" y="265.789" transform="matrix(-0.2475 -0.9689 0.9689 -0.2475 336.2129 807.4166)" width="0.75" height="14.714"/>
</g>
<g>
	
		<rect x="535.012" y="209.023" transform="matrix(-0.9887 -0.1496 0.1496 -0.9887 1032.4474 509.4895)" width="0.751" height="13.776"/>
</g>
<g>
	
		<rect x="533.779" y="267.767" transform="matrix(-0.0812 -0.9967 0.9967 -0.0812 319.8451 831.1306)" width="18.46" height="0.75"/>
</g>
<g>
	<polygon points="560.625,289.643 555.115,279.831 543.671,277.081 543.847,276.352 555.609,279.178 561.28,289.276 	"/>
</g>
<g>
	<path d="M494.082,368.885l-17.325-3.777l-7.01-0.326l-7.97-8.344l-19.213,2.134l-8.001-19.97l10.538,1.329l16.202,3.195l3.98-3.72
		l0.18,0.026l21.434,3.209l14.998-9.127v9.66l11.735,0.605l-0.153-7.592l-14.063-18.005l10.022-12.007l5.527-1.187v-12.712h0.75
		v13.318l-5.867,1.261l-9.468,11.343l13.843,17.724l0.175,8.648l-13.251-0.684v-9.039l-14.09,8.574l-0.135-0.02l-20.832-3.118
		l7.089,13.334l4.377,1.656l21.391-5.695l1.47,7.395L494.082,368.885z M470.083,364.047l6.772,0.319l16.833,3.665l5.94-11.171
		l-1.263-6.351l-20.85,5.553l-4.867-1.842l-7.342-13.809l-3.771,3.524l-16.554-3.266l-9.249-1.165l7.315,18.257l19.014-2.112
		L470.083,364.047z"/>
</g>
<g>
	<rect x="473.117" y="359.974" transform="matrix(-0.057 -0.9984 0.9984 -0.057 145.2652 857.9064)" width="9.355" height="0.749"/>
</g>
<g>
	
		<rect x="485.996" y="346.162" transform="matrix(-0.8573 -0.5148 0.5148 -0.8573 736.8958 897.3245)" width="13.622" height="0.75"/>
</g>
<g>
	
		<rect x="445.817" y="348.197" transform="matrix(-0.6467 -0.7627 0.7627 -0.6467 484.3639 921.4915)" width="19.544" height="0.75"/>
</g>
<g>
	<polygon points="407.904,372.349 376.863,364.302 380.756,352.623 375.566,350.272 377.185,337.03 377.929,337.122 
		376.378,349.817 381.68,352.219 377.829,363.776 407.501,371.47 410.719,364.958 408.873,355.933 394.59,349.542 396.796,337.257 
		386.795,330.849 388.346,321.426 389.086,321.547 387.615,330.483 397.623,336.896 395.432,349.097 409.53,355.405 411.505,365.06 
			"/>
</g>
<g>
	<polygon points="422.517,359.472 420.954,352.262 424.596,343.389 425.289,343.674 421.736,352.33 423.116,358.694 
		442.789,357.792 442.825,358.542 	"/>
</g>
<g>
	<rect x="397.209" y="336.701" width="18.34" height="0.75"/>
</g>
<g>
	
		<rect x="381.114" y="353.66" transform="matrix(-0.9933 -0.1153 0.1153 -0.9933 746.9411 751.2761)" width="28.17" height="0.749"/>
</g>
<g>
	
		<rect x="414.885" y="347.691" transform="matrix(-0.2682 -0.9634 0.9634 -0.2682 185.6041 848.9774)" width="0.75" height="12.603"/>
</g>
<g>
	
		<rect x="418.634" y="327.414" transform="matrix(-0.996 -0.0889 0.0889 -0.996 821.1337 692.1497)" width="14.694" height="0.749"/>
</g>
<g>
	<rect x="448.58" y="323.239" transform="matrix(-0.9006 -0.4347 0.4347 -0.9006 708.8632 826.5667)" width="0.75" height="17.96"/>
</g>
<g>
	
		<rect x="492.003" y="328.233" transform="matrix(-0.4914 -0.8709 0.8709 -0.4914 457.1068 924.1479)" width="12.766" height="0.75"/>
</g>
<g>
	
		<rect x="521.295" y="296.952" transform="matrix(-0.2056 -0.9786 0.9786 -0.2056 331.4813 876.9591)" width="0.75" height="13.98"/>
</g>
<g>
	
		<rect x="528.533" y="303.708" transform="matrix(-0.9961 -0.0886 0.0886 -0.9961 1054.9414 654.9894)" width="26.948" height="0.749"/>
</g>
<g>
	
		<rect x="570.829" y="289.056" transform="matrix(-0.9148 -0.4039 0.4039 -0.9148 989.802 787.6473)" width="14.287" height="0.75"/>
</g>
<g>
	<rect x="582.248" y="276.634" transform="matrix(-0.8675 -0.4975 0.4975 -0.8675 958.6295 809.3907)" width="9.75" height="0.75"/>
</g>
<g>
	
		<rect x="567.681" y="233.907" transform="matrix(-0.9376 -0.3477 0.3477 -0.9376 1017.9391 658.533)" width="0.75" height="8.051"/>
</g>
<g>
	<rect x="557.291" y="320.343" transform="matrix(-0.3943 -0.919 0.919 -0.3943 489.4563 964.0391)" width="10.277" height="0.75"/>
</g>
<g>
	<path d="M377.852,337.451h-12.929l-0.109-0.184l-11.64-19.632l11.255-11.932l2.753-0.866v-12.551l29.402-5.029l1.603,14.012
		l-15.799,0.728v3.636l25.639-1.604l5.096-17.574l-4.129-8.128h-13.002l-3.901-10.901l3.824-8.218l0.68,0.316l-3.694,7.939
		l3.62,10.114h12.934l4.472,8.803l-5.326,18.364l-26.962,1.688v-5.151l15.713-0.724l-1.422-12.426l-27.997,4.789v11.887l6.987,1.412
		l-3.053,22.6l7.86,0.862L377.852,337.451z M365.35,336.701h11.911l1.536-6.368l-7.778-0.853l3.062-22.666l-6.504-1.315l-2.737,0.86
		l-10.733,11.379L365.35,336.701z"/>
</g>
<g>
	<polygon points="372.679,291.687 371.076,267.115 380.598,265.951 376.062,254.775 376.757,254.493 381.662,266.577 
		371.871,267.773 373.427,291.638 	"/>
</g>
<g>
	<polygon points="371.423,273.024 357.108,271.047 357.108,265.221 368.787,249.931 369.383,250.386 357.858,265.475 
		357.858,270.394 371.525,272.281 	"/>
</g>
<g>
	
		<rect x="371.193" y="274.93" transform="matrix(-0.9779 -0.2091 0.2091 -0.9779 701.6761 624.7902)" width="25.342" height="0.75"/>
</g>
<g>
	<rect x="391.075" y="282.813" transform="matrix(-0.0077 -1 1 -0.0077 116.1676 681.6531)" width="10.442" height="0.75"/>
</g>
<g>
	<polygon points="367.192,292.689 364.817,282.538 355.376,281.533 342.157,272.993 342.564,272.363 355.707,280.854 
		365.426,281.846 367.922,292.518 	"/>
</g>
<g>
	
		<rect x="356.334" y="285.345" transform="matrix(-0.3814 -0.9244 0.9244 -0.3814 218.1344 740.1348)" width="0.75" height="23.473"/>
</g>
<g>
	<polygon points="345.49,301.577 345.199,286.409 332.822,280.38 333.15,279.707 345.94,285.935 346.24,301.564 	"/>
</g>
<g>
	<polygon points="298.686,325.358 298.51,324.63 319.679,319.494 330.251,307.736 339.118,308.46 345.287,301.393 345.852,301.885 
		339.435,309.239 330.56,308.514 320.081,320.168 	"/>
</g>
<g>
	<polygon points="333.127,329.66 319.126,320.275 319.544,319.652 332.845,328.568 336.075,322.286 347.572,323.54 345.491,301.605 
		346.238,301.535 348.406,324.386 336.507,323.087 	"/>
</g>
<g>
	<rect x="303.424" y="323.154" transform="matrix(-0.9842 -0.177 0.177 -0.9842 543.892 714.1621)" width="0.75" height="19.337"/>
</g>
<g>
	<polygon points="315.86,342.718 302.067,342.718 302.067,341.968 315.407,341.968 324.969,323.788 325.633,324.138 	"/>
</g>
<g>
	
		<rect x="316.887" y="341.577" transform="matrix(-0.9807 -0.1953 0.1953 -0.9807 584.5945 741.549)" width="23.939" height="0.751"/>
</g>
<g>
	
		<rect x="347.495" y="328.688" transform="matrix(-0.6461 -0.7633 0.7633 -0.6461 314.4954 822.1934)" width="0.75" height="18.989"/>
</g>
<g>
	
		<rect x="345.033" y="327.748" transform="matrix(-0.7013 -0.7129 0.7129 -0.7013 363.6635 808.6314)" width="12.436" height="0.75"/>
</g>
<g>
	<polygon points="368.609,343.37 354.734,343.37 354.734,332.03 355.484,332.03 355.484,342.62 367.411,342.62 364.8,337.24 
		365.474,336.912 	"/>
</g>
<g>
	<polygon points="327.47,354.473 324.172,341.189 324.899,341.007 328.031,353.617 350.389,349.847 340.443,344.633 
		340.792,343.969 352.709,350.216 	"/>
</g>
<g>
	<polygon points="377.274,364.407 368.743,362.727 367.636,343.017 368.385,342.974 369.459,362.103 377.418,363.671 	"/>
</g>
<g>
	<polygon points="347.529,368.195 324.322,365.211 318.129,356.213 301.826,342.631 302.307,342.055 318.718,355.745 
		324.749,364.51 347.124,367.387 352.602,357.666 351.998,350.306 352.745,350.245 353.369,357.834 	"/>
</g>
<g>
	<polygon points="375.347,384.165 359.023,383.624 357.438,374.405 368.826,362.159 369.375,362.671 358.24,374.644 
		359.659,382.896 374.597,383.39 374.597,376.978 381.853,375.409 377.002,364.188 377.69,363.891 382.904,375.949 375.347,377.584 
			"/>
</g>
<g>
	
		<rect x="352.816" y="358.893" transform="matrix(-0.9822 -0.1877 0.1877 -0.9822 647.9644 779.8943)" width="16.185" height="0.75"/>
</g>
<g>
	
		<rect x="323.312" y="359.825" transform="matrix(-0.3175 -0.9483 0.9483 -0.3175 92.9342 787.2892)" width="12.963" height="0.75"/>
</g>
<g>
	
		<rect x="423.707" y="367.34" transform="matrix(-0.3686 -0.9296 0.9296 -0.3686 251.5062 906.2606)" width="19.651" height="0.75"/>
</g>
<g>
	
		<rect x="410.275" y="370.837" transform="matrix(-0.9157 -0.4019 0.4019 -0.9157 663.6861 881.6611)" width="28.1" height="0.751"/>
</g>
<g>
	
		<rect x="444.503" y="367.616" transform="matrix(-0.1796 -0.9837 0.9837 -0.1796 155.4542 880.508)" width="0.751" height="15.634"/>
</g>
<g>
	
		<rect x="438.237" y="365.741" transform="matrix(-0.5032 -0.8642 0.8642 -0.5032 356.1707 936.9932)" width="18.371" height="0.75"/>
</g>
<g>
	<polygon points="462.687,384.255 462.366,383.577 470.982,379.515 451.953,374.405 452.149,373.681 473.152,379.321 	"/>
</g>
<g>
	
		<rect x="456.179" y="378.383" transform="matrix(-0.0806 -0.9967 0.9967 -0.0806 110.2147 870.4424)" width="0.751" height="12.014"/>
</g>
<g>
	
		<rect x="450.928" y="373.98" transform="matrix(-0.9904 -0.1381 0.1381 -0.9904 845.8755 817.6105)" width="0.749" height="10.961"/>
</g>
<g>
	
		<rect x="448.267" y="384.192" transform="matrix(-0.7427 -0.6697 0.6697 -0.7427 522.6367 974.9384)" width="0.749" height="5.716"/>
</g>
<g>
	
		<rect x="418.75" y="383.263" transform="matrix(-0.9257 -0.3782 0.3782 -0.9257 689.2849 902.6492)" width="29.063" height="0.749"/>
</g>
<g>
	
		<rect x="421.682" y="371.061" transform="matrix(-0.8236 -0.5672 0.5672 -0.8236 556.9877 923.1478)" width="0.751" height="7.786"/>
</g>
<g>
	
		<rect x="412.902" y="374.798" transform="matrix(-0.5899 -0.8074 0.8074 -0.5899 347.9108 942.488)" width="0.75" height="16.206"/>
</g>
<g>
	<rect x="396.334" y="387.331" width="10.393" height="0.75"/>
</g>
<g>
	
		<rect x="389.839" y="381.828" transform="matrix(-0.1683 -0.9857 0.9857 -0.1683 85.2043 836.2955)" width="11.134" height="0.75"/>
</g>
<g>
	
		<rect x="395.022" y="368.867" transform="matrix(-0.9722 -0.2343 0.2343 -0.9722 692.4304 827.9857)" width="0.75" height="7.991"/>
</g>
<g>
	
		<rect x="374.782" y="385.37" transform="matrix(-0.9835 -0.1809 0.1809 -0.9835 695.1403 834.8902)" width="21.721" height="0.751"/>
</g>
<g>
	
		<rect x="364.362" y="393.025" transform="matrix(-0.0395 -0.9992 0.9992 -0.0395 -4.4688 782.5036)" width="18.989" height="0.75"/>
</g>
<g>
	
		<rect x="385.864" y="387.842" transform="matrix(-0.2229 -0.9748 0.9748 -0.2229 82.2165 865.8936)" width="0.749" height="24.669"/>
</g>
<g>
	<rect x="397.899" y="387.706" width="0.75" height="9.699"/>
</g>
<g>
	<rect x="404.287" y="392.171" transform="matrix(-0.5905 -0.807 0.807 -0.5905 335.7881 955.4698)" width="12.018" height="0.75"/>
</g>
<g>
	<rect x="413.824" y="397.03" width="12.243" height="0.75"/>
</g>
<g>
	
		<rect x="430.838" y="383.073" transform="matrix(-0.7727 -0.6348 0.6348 -0.7727 516.101 967.1375)" width="0.751" height="16.178"/>
</g>
<g>
	
		<rect x="425.371" y="400.32" transform="matrix(-0.9094 -0.4159 0.4159 -0.9094 660.7043 945.3027)" width="15.866" height="0.75"/>
</g>
<g>
	<polygon points="440.848,404.132 440.143,403.878 442.282,397.941 454.632,396.347 454.728,397.091 442.832,398.627 	"/>
</g>
<g>
	
		<rect x="445.229" y="392.567" transform="matrix(-0.7244 -0.6894 0.6894 -0.7244 506.3258 988.308)" width="10.981" height="0.75"/>
</g>
<g>
	<polygon points="458.962,403.158 454.378,396.941 454.982,396.496 459.306,402.361 472.618,400.772 472.708,401.516 	"/>
</g>
<g>
	<polygon points="472.305,401.256 468.591,389.367 462.289,384.206 462.764,383.626 469.24,388.93 469.274,389.036 473.022,401.031 
			"/>
</g>
<g>
	
		<rect x="483.418" y="377.847" transform="matrix(-0.3911 -0.9203 0.9203 -0.3911 319.5358 979.5435)" width="0.749" height="12.449"/>
</g>
<g>
	<polygon points="489.904,381.667 489.154,381.667 489.154,375.247 470.116,370.893 469.542,364.447 470.288,364.381 
		470.816,370.283 489.904,374.649 	"/>
</g>
<g>
	<polygon points="514.014,404.005 513.264,404.005 513.264,394.022 501.704,394.667 501.704,389.367 488.718,381.993 
		489.089,381.341 502.454,388.93 502.454,393.874 514.014,393.228 	"/>
</g>
<g>
	<rect x="517.35" y="399.584" transform="matrix(-0.0781 -0.9969 0.9969 -0.0781 155.7285 951.3361)" width="0.75" height="8.163"/>
</g>
<g>
	
		<rect x="510.028" y="392.157" transform="matrix(-0.0812 -0.9967 0.9967 -0.0812 171.9743 943.5969)" width="21.768" height="0.75"/>
</g>
<g>
	<polygon points="520.01,382.042 504.894,382.042 504.894,375.342 504.95,375.252 515.02,358.887 515.658,359.279 505.644,375.555 
		505.644,381.292 520.01,381.292 	"/>
</g>
<g>
	<rect x="499.945" y="357.659" transform="matrix(-0.9902 -0.14 0.14 -0.9902 960.2381 783.6147)" width="15.471" height="0.75"/>
</g>
<g>
	
		<rect x="507.165" y="351.25" transform="matrix(-0.0885 -0.9961 0.9961 -0.0885 209.9488 895.371)" width="14.966" height="0.749"/>
</g>
<g>
	
		<rect x="514.588" y="361.364" transform="matrix(-0.8583 -0.5131 0.5131 -0.8583 780.3107 938.9346)" width="10.39" height="0.751"/>
</g>
<g>
	<polygon points="524.612,364.537 523.903,364.291 527.937,352.684 523.882,349.609 523.882,336.556 524.632,336.556 
		524.632,349.236 528.824,352.416 	"/>
</g>
<g>
	
		<rect x="513.821" y="335.919" transform="matrix(-0.9988 -0.048 0.048 -0.9988 1021.3197 697.1153)" width="10.419" height="0.751"/>
</g>
<g>
	<polygon points="527.115,330.522 519.95,330.097 514.972,305.367 515.706,305.219 520.571,329.382 527.159,329.773 	"/>
</g>
<g>
	
		<rect x="525.336" y="329.855" transform="matrix(-0.9124 -0.4094 0.4094 -0.9124 868.8746 852.7385)" width="0.749" height="7.026"/>
</g>
<g>
	
		<rect x="527.106" y="330.268" transform="matrix(-0.9934 -0.1143 0.1143 -0.9934 1022.1649 719.8966)" width="9.232" height="0.749"/>
</g>
<g>
	
		<rect x="536.066" y="318.035" transform="matrix(-0.9997 -0.0235 0.0235 -0.9997 1065.1047 661.7647)" width="0.75" height="13.179"/>
</g>
<g>
	<polygon points="555.264,356.015 541.709,350.272 544.102,337.247 535.541,331.515 535.959,330.892 544.928,336.897 
		542.555,349.817 555.557,355.323 	"/>
</g>
<g>
	<polygon points="555.785,355.684 555.035,355.654 555.317,348.374 567.138,353.328 566.849,354.02 556.024,349.483 	"/>
</g>
<g>
	<polygon points="567.332,353.834 566.655,353.514 579.094,327.171 564.449,325.81 564.518,325.065 580.229,326.522 	"/>
</g>
<g>
	<polygon points="571.094,345.118 559.006,341.386 564.126,325.323 564.841,325.552 559.951,340.892 571.315,344.401 	"/>
</g>
<g>
	
		<rect x="544.255" y="338.713" transform="matrix(-0.965 -0.2622 0.2622 -0.965 995.7936 811.0519)" width="15.507" height="0.751"/>
</g>
<g>
	<polygon points="570.282,359.47 566.678,353.877 567.309,353.471 570.677,358.696 589.07,357.654 582.302,338.888 574.762,337.44 
		574.903,336.704 582.863,338.231 590.116,358.346 	"/>
</g>
<g>
	<polygon points="585.294,376.802 556.613,366.641 556.863,365.934 583.898,375.511 576.633,359.236 577.319,358.93 	"/>
</g>
<g>
	<rect x="550.708" y="360.606" transform="matrix(-0.124 -0.9923 0.9923 -0.124 266.8142 957.5087)" width="10.701" height="0.75"/>
</g>
<g>
	<polygon points="553.775,373.204 524.155,364.774 524.36,364.054 553.376,372.311 556.401,366.122 557.075,366.452 	"/>
</g>
<g>
	<polygon points="520.385,381.672 519.635,381.662 519.701,376.85 527.875,375.169 523.906,364.545 524.609,364.283 
		528.885,375.728 520.444,377.463 	"/>
</g>
<g>
	<rect x="519.715" y="384.916" transform="matrix(-0.9737 -0.2277 0.2277 -0.9737 962.8143 881.66)" width="25.101" height="0.75"/>
</g>
<g>
	<polygon points="544.169,388.296 539.078,376.273 543.001,369.738 543.644,370.125 539.918,376.332 544.861,388.003 	"/>
</g>
<g>
	<rect x="544.515" y="387.774" width="11.19" height="0.75"/>
</g>
<g>
	<polygon points="555.508,388.281 554.807,388.018 557.925,379.726 567.925,378.186 568.038,378.929 558.472,380.399 	"/>
</g>
<g>
	
		<rect x="569.422" y="371.116" transform="matrix(-0.8886 -0.4587 0.4587 -0.8886 904.0779 969.6957)" width="0.75" height="7.883"/>
</g>
<g>
	<polygon points="573.505,398.521 559.079,398.401 559.085,397.651 573.15,397.767 582.997,385.556 567.831,378.901 
		568.132,378.214 584.197,385.263 	"/>
</g>
<g>
	
		<rect x="551.94" y="392.749" transform="matrix(-0.4165 -0.9091 0.9091 -0.4165 432.2158 1063.6472)" width="10.993" height="0.75"/>
</g>
<g>
	<polygon points="525.756,416.393 525.735,415.643 553.31,414.852 559.384,398.017 560.089,398.271 553.841,415.586 
		553.586,415.594 	"/>
</g>
<g>
	<polygon points="526.108,416.113 525.383,415.922 526.71,410.915 544.478,409.05 544.14,388.155 544.89,388.144 545.24,409.724 
		527.302,411.606 	"/>
</g>
<g>
	
		<rect x="532.768" y="388.298" transform="matrix(-0.2737 -0.9618 0.9618 -0.2737 294.227 1022.4159)" width="0.749" height="23.641"/>
</g>
<g>
	<polygon points="486.05,393.229 477.838,386.829 471.78,379.66 472.354,379.176 478.356,386.291 486.511,392.638 	"/>
</g>
<g>
	
		<rect x="478.781" y="388.834" transform="matrix(-0.5026 -0.8645 0.8645 -0.5026 376.7198 1010.8625)" width="0.75" height="16.451"/>
</g>
<g>
	<polygon points="493.601,411.261 492.851,411.261 492.851,398.263 486.058,393.235 486.503,392.632 493.601,397.884 	"/>
</g>
<g>
	
		<rect x="503.042" y="396.811" transform="matrix(-0.3357 -0.942 0.942 -0.3357 288.4211 1018.6916)" width="0.751" height="21.665"/>
</g>
<g>
	
		<rect x="507.897" y="409.627" transform="matrix(-0.0416 -0.9991 0.9991 -0.0416 125.6399 940.5226)" width="12.023" height="0.751"/>
</g>
<g>
	<rect x="514.139" y="415.643" width="11.606" height="0.75"/>
</g>
<g>
	<polygon points="546.446,430.951 546.384,430.941 528.708,428.21 525.384,416.117 526.107,415.918 529.302,427.542 
		546.438,430.191 558.928,428.02 559.057,428.758 	"/>
</g>
<g>
	<polygon points="534.45,443.038 518.858,440.998 513.772,416.093 514.506,415.942 519.485,440.324 533.802,442.196 535.56,428.423 
		536.304,428.519 	"/>
</g>
<g>
	<polygon points="511.71,446.677 499.418,429.615 508.802,416.538 514.076,415.647 514.201,416.388 509.232,417.226 
		500.342,429.615 512.32,446.239 	"/>
</g>
<g>
	<polygon points="526.75,447.764 511.991,446.832 512.038,446.084 526,446.965 526,441.603 526.75,441.603 	"/>
</g>
<g>
	
		<rect x="504.438" y="454.531" transform="matrix(-0.1099 -0.9939 0.9939 -0.1099 117.189 1014.7571)" width="17.048" height="0.751"/>
</g>
<g>
	<polygon points="500.045,454.753 500.898,442.591 501.646,442.644 500.85,453.985 512.728,453.735 512.743,454.485 	"/>
</g>
<g>
	
		<rect x="463.672" y="451.364" transform="matrix(-0.9782 -0.2077 0.2077 -0.9782 846.0187 992.3066)" width="22.86" height="0.751"/>
</g>
<g>
	<polygon points="461.749,453.755 449.377,452.108 449.477,451.364 461.357,452.946 463.597,449.171 464.241,449.554 	"/>
</g>
<g>
	<polygon points="479.818,476.269 470.28,476.269 449.144,451.982 449.71,451.49 470.621,475.519 478.9,475.519 476.716,464.845 
		477.45,464.694 	"/>
</g>
<g>
	<polygon points="477.177,465.133 476.99,464.406 497.35,459.147 486.136,454.456 486.425,453.765 499.696,459.315 	"/>
</g>
<g>
	
		<rect x="494.554" y="464.108" transform="matrix(-0.2777 -0.9607 0.9607 -0.2777 192.6507 1073.8152)" width="10.922" height="0.75"/>
</g>
<g>
	<polygon points="477.079,465.145 471.463,465.084 470.015,451.191 470.761,451.113 472.139,464.342 477.087,464.395 	"/>
</g>
<g>
	<polygon points="441.059,467.501 433.202,447.982 449.503,451.369 449.351,452.103 434.421,449.002 441.754,467.222 	"/>
</g>
<g>
	
		<rect x="451.442" y="456.211" transform="matrix(-0.0652 -0.9979 0.9979 -0.0652 15.5978 947.9516)" width="0.75" height="20.919"/>
</g>
<g>
	<rect x="449.052" y="467.326" width="0.75" height="18.118"/>
</g>
<g>
	
		<rect x="446.404" y="474.317" transform="matrix(-0.6931 -0.7209 0.7209 -0.6931 431.1165 1132.9435)" width="20.689" height="0.75"/>
</g>
<g>
	<polygon points="422.033,470.139 420.575,462.677 421.311,462.532 422.635,469.309 441.361,466.989 441.452,467.733 	"/>
</g>
<g>
	
		<rect x="426.011" y="435.323" transform="matrix(-0.9228 -0.3852 0.3852 -0.9228 646.7131 1028.5688)" width="0.75" height="28.362"/>
</g>
<g>
	<polygon points="439.015,437.469 438.947,437.462 431.835,436.804 431.904,436.058 438.947,436.709 453.449,432.637 
		453.652,433.359 	"/>
</g>
<g>
	<rect x="448.53" y="431.862" transform="matrix(-0.8902 -0.4555 0.4555 -0.8902 647.1813 1040.025)" width="0.75" height="20.34"/>
</g>
<g>
	
		<rect x="457.738" y="427.512" transform="matrix(-0.1744 -0.9847 0.9847 -0.1744 112.4525 958.6391)" width="0.75" height="9.328"/>
</g>
<g>
	<rect x="462.13" y="433.313" transform="matrix(-0.8778 -0.479 0.479 -0.8778 669.1498 1038.0686)" width="9.689" height="0.75"/>
</g>
<g>
	
		<rect x="467.216" y="435.096" transform="matrix(-0.8766 -0.4813 0.4813 -0.8766 664.3994 1055.8136)" width="0.751" height="15.225"/>
</g>
<g>
	<polygon points="479.191,439.683 471.098,436.36 471.383,435.667 478.878,438.743 482.772,432.23 494.738,431 494.814,431.746 
		483.223,432.938 	"/>
</g>
<g>
	<polygon points="486.509,454.408 486.052,453.812 500.782,442.52 494.45,431.56 495.101,431.185 501.761,442.715 	"/>
</g>
<g>
	<rect x="483.923" y="420.913" transform="matrix(-0.0768 -0.997 0.997 -0.0768 111.9062 946.1939)" width="20.171" height="0.75"/>
</g>
<g>
	<polygon points="462.997,431.642 462.474,431.104 474.915,418.962 483.981,418.93 493.532,410.78 494.019,411.351 484.258,419.68 
		475.222,419.71 	"/>
</g>
<g>
	
		<rect x="436.172" y="429.506" transform="matrix(-0.2641 -0.9645 0.9645 -0.2641 144.1693 969.7618)" width="11.744" height="0.749"/>
</g>
<g>
	<polygon points="453.831,424.591 440.495,424.591 440.495,423.841 453.269,423.841 456.462,412.947 440.319,404.336 
		440.672,403.674 457.353,412.572 	"/>
</g>
<g>
	<polygon points="440.231,424.481 425.318,409.665 434.944,407.493 440.278,403.699 440.713,404.31 435.183,408.209 
		426.816,410.097 440.76,423.95 	"/>
</g>
<g>
	<rect x="424.557" y="410.48" transform="matrix(-0.2124 -0.9772 0.9772 -0.2124 104.9348 924.2369)" width="0.75" height="18.7"/>
</g>
<g>
	<rect x="414.185" y="421.497" transform="matrix(-0.8913 -0.4534 0.4534 -0.8913 591.693 990.3912)" width="0.749" height="5.55"/>
</g>
<g>
	
		<rect x="411.232" y="429.844" transform="matrix(-0.4799 -0.8773 0.8773 -0.4799 237.0025 1000.9383)" width="7.914" height="0.75"/>
</g>
<g>
	
		<rect x="416.95" y="434.665" transform="matrix(-0.9833 -0.1818 0.1818 -0.9833 762.7806 940.0031)" width="15.048" height="0.751"/>
</g>
<g>
	<polygon points="423.923,455.603 412.251,452.505 416.706,433.608 417.436,433.78 413.148,451.968 424.115,454.878 	"/>
</g>
<g>
	
		<rect x="397.068" y="445.243" transform="matrix(-0.9818 -0.1899 0.1899 -0.9818 719.1108 960.1429)" width="16.978" height="0.75"/>
</g>
<g>
	<polygon points="408.686,466.341 394.329,460.551 396.839,443.957 397.58,444.068 395.159,460.076 408.967,465.646 	"/>
</g>
<g>
	<polygon points="409.201,465.993 408.451,465.993 408.451,457.643 421.079,462.579 420.806,463.278 409.201,458.74 	"/>
</g>
<g>
	
		<rect x="403.511" y="471.434" transform="matrix(-0.0851 -0.9964 0.9964 -0.0851 -25.9437 919.7947)" width="11.619" height="0.75"/>
</g>
<g>
	
		<rect x="408.895" y="481.729" transform="matrix(-0.9242 -0.3818 0.3818 -0.9242 625.6934 1088.3607)" width="23.861" height="0.75"/>
</g>
<g>
	
		<rect x="424.022" y="477.369" transform="matrix(-0.3934 -0.9194 0.9194 -0.3934 165.1652 1064.4656)" width="19.468" height="0.75"/>
</g>
<g>
	<polygon points="406.901,484.144 374.002,475.413 374.194,474.689 406.506,483.263 409.48,477.4 410.149,477.74 	"/>
</g>
<g>
	<rect x="376.718" y="461.325" transform="matrix(-0.909 -0.4167 0.4167 -0.909 524.6505 1051.5347)" width="0.75" height="14.36"/>
</g>
<g>
	<polygon points="397.972,469.238 379.96,462.353 380.228,461.651 397.694,468.328 401.479,462.938 402.094,463.369 	"/>
</g>
<g>
	<polygon points="379.94,462.344 375.947,460.545 377.847,441.081 378.593,441.153 376.745,460.082 380.248,461.66 	"/>
</g>
<g>
	<rect x="378.22" y="440.742" width="9.619" height="0.75"/>
</g>
<g>
	
		<rect x="387.624" y="442.196" transform="matrix(-0.9605 -0.2783 0.2783 -0.9605 646.9668 976.9808)" width="10.405" height="0.75"/>
</g>
<g>
	
		<rect x="388.725" y="428.057" transform="matrix(-0.9807 -0.1954 0.1954 -0.9807 685.7675 936.9475)" width="0.75" height="13.181"/>
</g>
<g>
	<polygon points="399.806,432.592 399.663,432.53 390.254,428.532 390.547,427.843 399.814,431.779 413.134,426.403 
		413.414,427.099 	"/>
</g>
<g>
	<rect x="263.52" y="368.945" transform="matrix(-0.9419 -0.336 0.336 -0.9419 402.6767 808.3132)" width="15.495" height="0.751"/>
</g>
<g>
	<polygon points="290.899,375.72 278.451,372.271 278.651,371.548 289.647,374.595 283.555,359.199 284.252,358.924 	"/>
</g>
<g>
	<polygon points="290.35,375.524 290.195,374.79 305.029,371.653 296.612,358.088 297.25,357.693 306.23,372.165 	"/>
</g>
<g>
	
		<rect x="293.264" y="369.384" transform="matrix(-0.7705 -0.6374 0.6374 -0.7705 314.8084 852.8553)" width="35.323" height="0.751"/>
</g>
<g>
	
		<rect x="320.135" y="378.604" transform="matrix(-0.4699 -0.8827 0.8827 -0.4699 132.9039 846.1221)" width="0.75" height="9.103"/>
</g>
<g>
	
		<rect x="304.68" y="371.885" transform="matrix(-0.9965 -0.0834 0.0834 -0.9965 577.4829 781.0715)" width="0.75" height="13.178"/>
</g>
<g>
	
		<rect x="274.761" y="370.881" transform="matrix(-0.8675 -0.4975 0.4975 -0.8675 327.3273 836.8993)" width="0.75" height="7.939"/>
</g>
<g>
	
		<rect x="272.405" y="381.647" transform="matrix(-0.9175 -0.3978 0.3978 -0.9175 388.3478 844.608)" width="18.756" height="0.75"/>
</g>
<g>
	
		<rect x="284.373" y="383.332" transform="matrix(-0.6874 -0.7263 0.7263 -0.6874 196.4469 866.7083)" width="0.75" height="15.488"/>
</g>
<g>
	<polygon points="279.123,396.77 267.539,396.77 260.344,387.747 265.023,378.976 273.11,377.908 273.207,378.652 265.503,379.669 
		261.237,387.665 267.901,396.02 279.123,396.02 	"/>
</g>
<g>
	
		<rect x="289.948" y="387.497" transform="matrix(-0.9309 -0.3652 0.3652 -0.9309 429.533 856.9842)" width="11.724" height="0.749"/>
</g>
<g>
	
		<rect x="302.537" y="384.554" transform="matrix(-0.8388 -0.5444 0.5444 -0.8388 346.0274 877.4957)" width="0.75" height="5.941"/>
</g>
<g>
	
		<rect x="311.494" y="401.856" transform="matrix(-0.9999 -0.0166 0.0166 -0.9999 628.857 809.6812)" width="12.589" height="0.75"/>
</g>
<g>
	
		<rect x="298.461" y="395.686" transform="matrix(-0.6451 -0.7641 0.7641 -0.6451 201.3803 885.6579)" width="15.82" height="0.75"/>
</g>
<g>
	<polygon points="291.672,403.147 291.123,402.635 295.641,397.789 306.864,396.323 306.961,397.067 296.006,398.498 	"/>
</g>
<g>
	
		<rect x="278.312" y="399.293" transform="matrix(-0.8838 -0.4678 0.4678 -0.8838 350.4258 886.3475)" width="13.888" height="0.749"/>
</g>
<g>
	
		<rect x="290.439" y="402.806" transform="matrix(-0.9581 -0.2864 0.2864 -0.9581 453.5202 875.8589)" width="0.75" height="3.913"/>
</g>
<g>
	<polygon points="294.5,427.011 279.134,411.005 290.125,406.294 290.421,406.983 280.426,411.267 295.041,426.491 	"/>
</g>
<g>
	<polygon points="294.861,427.115 294.681,426.387 306.643,423.434 311.143,413.178 311.83,413.478 307.181,424.072 	"/>
</g>
<g>
	<rect x="289.771" y="409.6" transform="matrix(-0.9537 -0.3007 0.3007 -0.9537 464.5769 891.4542)" width="22.243" height="0.75"/>
</g>
<g>
	<rect x="313.422" y="410.243" transform="matrix(-0.2853 -0.9584 0.9584 -0.2853 7.8015 831.1498)" width="0.75" height="4.846"/>
</g>
<g>
	<rect x="308.352" y="406.667" transform="matrix(-0.427 -0.9043 0.9043 -0.427 79.7029 864.5917)" width="10.88" height="0.75"/>
</g>
<g>
	<polygon points="316.147,412.324 316.117,411.574 336.466,410.775 336.466,400.715 331.037,397.005 331.46,396.386 
		337.216,400.318 337.216,411.496 	"/>
</g>
<g>
	<polygon points="323.805,403.008 321.9,391.257 315.375,385.317 310.897,382.094 304.69,385.372 304.34,384.708 310.958,381.213 
		315.846,384.735 322.598,390.878 324.342,401.633 331.017,396.4 331.48,396.99 	"/>
</g>
<g>
	
		<rect x="322.417" y="386.168" transform="matrix(-0.7449 -0.6672 0.6672 -0.7449 319.0962 895.0986)" width="16.52" height="0.75"/>
</g>
<g>
	<rect x="333.662" y="390.762" transform="matrix(-0.6397 -0.7687 0.7687 -0.6397 244.5534 903.4382)" width="0.75" height="7.27"/>
</g>
<g>
	<rect x="334.733" y="375.257" transform="matrix(-0.1432 -0.9897 0.9897 -0.1432 4.3362 769.16)" width="0.75" height="14.893"/>
</g>
<g>
	<polygon points="342.866,381.653 342.116,381.653 342.116,375.397 324.16,371.443 324.16,364.86 324.91,364.86 324.91,370.84 
		342.866,374.793 	"/>
</g>
<g>
	<rect x="341.48" y="384.952" transform="matrix(-0.8614 -0.508 0.508 -0.8614 453.2853 894.3598)" width="14.403" height="0.75"/>
</g>
<g>
	<polygon points="354.522,394.795 354.522,388.054 355.272,388.054 355.272,393.949 366.445,392.608 366.534,393.353 	"/>
</g>
<g>
	
		<rect x="360.758" y="398.138" transform="matrix(-0.0552 -0.9985 0.9985 -0.0552 -11.4415 786.2004)" width="10.979" height="0.75"/>
</g>
<g>
	<rect x="370.019" y="399.574" transform="matrix(-0.1445 -0.9895 0.9895 -0.1445 24.7108 828.2439)" width="0.75" height="7.731"/>
</g>
<g>
	
		<rect x="355.417" y="396.454" transform="matrix(-0.3454 -0.9384 0.9384 -0.3454 95.8432 882.7623)" width="0.749" height="23.002"/>
</g>
<g>
	<polygon points="345.36,411.957 344.61,411.941 344.926,396.915 336.661,392.379 337.021,391.721 345.686,396.476 	"/>
</g>
<g>
	
		<rect x="367.354" y="404.125" transform="matrix(-0.9998 -0.0208 0.0208 -0.9998 726.8506 827.5765)" width="0.75" height="11.767"/>
</g>
<g>
	<polygon points="364.628,445.896 352.949,428.163 363.301,415.508 367.602,415.508 367.602,416.258 363.657,416.258 
		353.878,428.212 365.254,445.483 	"/>
</g>
<g>
	
		<rect x="364.92" y="445.861" transform="matrix(-0.9966 -0.0828 0.0828 -0.9966 704.3937 921.6846)" width="12.775" height="0.751"/>
</g>
<g>
	<polygon points="378.146,441.484 371.427,440.13 373.099,414.609 373.847,414.658 372.218,439.524 378.294,440.75 	"/>
</g>
<g>
	<rect x="370.125" y="412.623" transform="matrix(-0.1067 -0.9943 0.9943 -0.1067 -3.1515 828.2791)" width="0.75" height="5.864"/>
</g>
<g>
	<polygon points="390.352,428.56 380.725,427.3 379.698,411.64 396.862,408.543 397.9,397.37 398.647,397.44 397.556,409.18 
		380.49,412.259 381.433,426.636 390.45,427.815 	"/>
</g>
<g>
	
		<rect x="373.844" y="415.174" transform="matrix(-0.9957 -0.0923 0.0923 -0.9957 714.4895 864.1416)" width="6.768" height="0.749"/>
</g>
<g>
	
		<rect x="335.028" y="422.229" transform="matrix(-0.0728 -0.9973 0.9973 -0.0728 -50.1516 798.584)" width="22.208" height="0.75"/>
</g>
<g>
	<polygon points="331.329,439.876 315.97,432.523 316.294,431.848 331.168,438.968 336.673,433.33 346.897,432.624 346.949,433.372 
		337.01,434.059 	"/>
</g>
<g>
	<polygon points="316.398,432.45 315.866,431.921 328.338,419.415 328.485,419.408 338.931,418.969 345.012,411.31 345.599,411.777 
		339.305,419.703 328.662,420.151 	"/>
</g>
<g>
	<polygon points="296.097,435.067 294.404,426.826 295.138,426.676 296.692,434.237 316.086,431.814 316.178,432.558 	"/>
</g>
<g>
	<polygon points="339.054,454.106 315.528,450.013 323.752,436.364 324.395,436.751 316.736,449.462 339.183,453.368 	"/>
</g>
<g>
	
		<rect x="346.527" y="438.582" transform="matrix(-0.5832 -0.8123 0.8123 -0.5832 185.1808 991.3083)" width="0.75" height="19.132"/>
</g>
<g>
	<rect x="344.713" y="438.025" transform="matrix(-0.6368 -0.7711 0.7711 -0.6368 236.1142 988.03)" width="12.137" height="0.75"/>
</g>
<g>
	<polygon points="366.271,455.615 353.59,455.615 354.276,442.547 355.025,442.586 354.38,454.865 366.271,454.865 	"/>
</g>
<g>
	
		<rect x="360.798" y="450.068" transform="matrix(-0.1379 -0.9904 0.9904 -0.1379 -30.0994 874.6877)" width="9.643" height="0.75"/>
</g>
<g>
	
		<rect x="358.164" y="463.292" transform="matrix(-0.0358 -0.9994 0.9994 -0.0358 -83.6828 846.5957)" width="16.801" height="0.75"/>
</g>
<g>
	
		<rect x="366.545" y="473.176" transform="matrix(-0.9226 -0.3858 0.3858 -0.9226 529.5518 1053.3622)" width="7.833" height="0.749"/>
</g>
<g>
	<polygon points="367.553,472.707 351.427,470.569 351.427,460.541 338.946,454.07 339.291,453.404 352.177,460.086 
		352.177,469.913 367.651,471.963 	"/>
</g>
<g>
	
		<rect x="342.552" y="453.805" transform="matrix(-0.3044 -0.9525 0.9525 -0.3044 6.1728 930.7591)" width="0.751" height="18.642"/>
</g>
<g>
	
		<rect x="318.916" y="455.283" transform="matrix(-0.0971 -0.9953 0.9953 -0.0971 -98.4678 821.9868)" width="9.397" height="0.75"/>
</g>
<g>
	<rect x="393.892" y="401.59" transform="matrix(-0.0456 -0.999 0.999 -0.0456 -2.611 828.0813)" width="0.751" height="27.395"/>
</g>
<g>
	<rect x="410.503" y="396.906" transform="matrix(-0.9464 -0.3229 0.3229 -0.9464 668.6418 922.9392)" width="0.75" height="18.2"/>
</g>
<g>
	
		<rect x="406.546" y="417.841" transform="matrix(-0.7379 -0.6749 0.6749 -0.7379 433.5185 1004.7845)" width="10.628" height="0.749"/>
</g>
</svg>
