<?xml version="1.0" encoding="utf-8"?>
<!-- Generator: Adobe Illustrator 17.1.0, SVG Export Plug-In . SVG Version: 6.00 Build 0)  -->
<!DOCTYPE svg PUBLIC "-//W3C//DTD SVG 1.1//EN" "http://www.w3.org/Graphics/SVG/1.1/DTD/svg11.dtd">
<svg version="1.1" id="Ebene_1" xmlns="http://www.w3.org/2000/svg" xmlns:xlink="http://www.w3.org/1999/xlink" x="0px" y="0px"
	 viewBox="0 0 841.89 595.28" enable-background="new 0 0 841.89 595.28" xml:space="preserve">
<g>
	<polyline fill="none" stroke="#000000" stroke-miterlimit="10" points="463.269,111.173 466.465,122.092 476.058,128.203 
		479.256,139.125 488.668,145.029 494.57,154.439 505.487,157.634 511.604,167.23 522.74,170.615 526.121,181.747 535.714,187.858 
		538.912,198.781 548.325,204.685 554.227,214.095 565.144,217.292 571.263,226.889 582.399,230.274 585.782,241.407 
		595.375,247.52 598.575,258.443 608.174,264.561 	"/>
</g>
<g>
	<polyline fill="none" stroke="#000000" stroke-miterlimit="10" points="358.48,116.624 365.811,133.091 379.544,144.758 
		386.88,161.23 400.432,172.691 411.889,186.24 428.351,193.569 440.03,207.31 456.716,214.833 464.236,231.515 477.968,243.182 
		485.305,259.654 498.858,271.115 510.315,284.666 526.78,291.997 538.456,305.737 555.146,313.263 562.667,329.946 
		576.401,341.614 583.74,358.088 597.481,369.766 	"/>
</g>
<g>
	<polyline fill="none" stroke="#000000" stroke-miterlimit="10" points="287.333,161.376 290.612,172.377 300.279,178.564 
		303.561,189.568 313.049,195.549 319.028,205.036 330.028,208.314 336.221,217.987 347.438,221.453 350.902,232.667 
		360.57,238.854 363.852,249.859 373.526,256.053 	"/>
</g>
<g>
	<polyline fill="none" stroke="#000000" stroke-miterlimit="10" points="234.777,277.55 240.063,290.579 251.598,298.611 
		256.886,311.645 268.279,319.519 276.15,330.908 289.177,336.193 297.219,347.734 310.418,353.174 315.854,366.37 327.39,374.404 
		332.68,387.438 344.222,395.479 	"/>
</g>
<g>
	<polyline fill="none" stroke="#000000" stroke-miterlimit="10" points="497.994,315.309 500.757,325.786 509.955,331.511 
		512.72,341.99 521.727,347.494 527.229,356.5 537.704,359.262 543.435,368.465 554.143,371.426 557.102,382.131 566.301,387.856 
		569.067,398.337 578.27,404.068 	"/>
</g>
<g>
	<polyline fill="none" stroke="#000000" stroke-miterlimit="10" points="243.183,230.313 244.508,239.317 252.433,243.804 
		253.765,252.819 261.459,257.027 265.657,264.714 274.666,266.043 279.158,273.972 288.173,275.304 	"/>
</g>
<g>
	<polyline fill="none" stroke="#000000" stroke-miterlimit="10" points="240.482,340.668 242.822,350.716 251.638,356.066 
		253.981,366.118 262.596,371.233 267.709,379.846 277.754,382.185 283.11,391.005 293.401,393.554 295.947,403.842 
		304.764,409.192 307.106,419.244 315.722,424.359 320.836,432.974 330.882,435.315 336.24,444.136 346.532,446.685 
		349.078,456.975 357.897,462.326 360.241,472.379 369.062,477.735 	"/>
</g>
<g>
	<polyline fill="none" stroke="#000000" stroke-miterlimit="10" points="406.052,280.099 408.644,290.403 417.688,295.976 
		420.282,306.283 429.13,311.629 434.474,320.477 444.778,323.067 450.357,332.116 460.897,334.911 463.689,345.448 
		472.734,351.022 475.328,361.33 484.377,366.908 	"/>
</g>
<g>
	<polyline fill="none" stroke="#000000" stroke-miterlimit="10" points="515.57,389.648 515.99,397.716 523.15,401.468 
		523.576,409.545 530.468,412.967 533.881,419.853 541.953,420.277 545.711,427.439 553.786,427.865 	"/>
</g>
<g>
	<polyline fill="none" stroke="#000000" stroke-miterlimit="10" points="503.614,208.034 512.94,225.12 528.348,237.008 
		537.678,254.1 552.988,265.883 564.765,281.186 581.848,290.51 593.745,305.926 610.838,315.256 	"/>
</g>
<g>
	<polyline fill="none" stroke="#000000" stroke-miterlimit="10" points="353.878,171.37 361.53,186.776 375.318,197.051 
		382.974,212.462 396.649,222.613 406.796,236.284 422.198,243.932 432.481,257.728 447.892,265.383 	"/>
</g>
<g>
	<polyline fill="none" stroke="#000000" stroke-miterlimit="10" points="302.491,227.946 311.544,244.759 326.687,256.383 
		335.745,273.201 350.787,284.718 362.298,299.755 379.106,308.805 390.741,323.957 407.559,333.015 	"/>
</g>
<g>
	<polyline fill="none" stroke="#000000" stroke-miterlimit="10" points="309.921,297.028 313.558,308.393 323.554,314.902 
		327.193,326.271 337.018,332.585 343.33,342.406 354.692,346.043 361.208,356.043 372.778,359.859 376.591,371.425 
		386.587,377.935 390.227,389.303 400.052,395.617 406.365,405.44 417.727,409.077 424.244,419.078 435.815,422.896 439.63,434.462 
		449.626,440.974 453.268,452.342 463.269,458.859 	"/>
</g>
</svg>
