<?xml version="1.0" encoding="utf-8"?>
<!-- Generator: Adobe Illustrator 17.1.0, SVG Export Plug-In . SVG Version: 6.00 Build 0)  -->
<!DOCTYPE svg PUBLIC "-//W3C//DTD SVG 1.1//EN" "http://www.w3.org/Graphics/SVG/1.1/DTD/svg11.dtd">
<svg version="1.1" id="Ebene_1" xmlns="http://www.w3.org/2000/svg" xmlns:xlink="http://www.w3.org/1999/xlink" x="0px" y="0px"
	 viewBox="0 0 595.28 595.28" enable-background="new 0 0 595.28 595.28" xml:space="preserve">
<g>
	<rect x="202.945" y="132.077" fill="#010202" width="0.5" height="329.805"/>
</g>
<g>
	<rect x="184.586" y="144.108" fill="#010202" width="0.5" height="305.769"/>
</g>
<g>
	<rect x="166.733" y="159.024" fill="#010202" width="0.5" height="276.074"/>
</g>
<g>
	<rect x="259.692" y="110.621" fill="#010202" width="0.5" height="372.664"/>
</g>
<g>
	<rect x="241.334" y="115.244" fill="#010202" width="0.5" height="363.469"/>
</g>
<g>
	<rect x="223.48" y="121.656" fill="#010202" width="0.5" height="350.442"/>
</g>
<g>
	<rect x="111.551" y="254.874" fill="#010202" width="0.5" height="81.529"/>
</g>
<g>
	<rect x="149.939" y="177.132" fill="#010202" width="0.5" height="239.623"/>
</g>
<g>
	<rect x="132.087" y="203.211" fill="#010202" width="0.5" height="187.669"/>
</g>
<g>
	<rect x="313.944" y="107.531" fill="#010202" width="0.5" height="378.845"/>
</g>
<g>
	<rect x="295.584" y="106.841" fill="#010202" width="0.5" height="380.251"/>
</g>
<g>
	<rect x="277.731" y="107.863" fill="#010202" width="0.5" height="378.258"/>
</g>
<g>
	<rect x="368.429" y="120.506" fill="#010202" width="0.5" height="352.766"/>
</g>
<g>
	<rect x="350.069" y="114.223" fill="#010202" width="0.5" height="365.461"/>
</g>
<g>
	<rect x="332.216" y="109.983" fill="#010202" width="0.5" height="373.915"/>
</g>
<g>
	<rect x="425.175" y="156.342" fill="#010202" width="0.5" height="281.272"/>
</g>
<g>
	<rect x="406.816" y="141.527" fill="#010202" width="0.5" height="310.8"/>
</g>
<g>
	<rect x="388.964" y="130.417" fill="#010202" width="0.5" height="333.073"/>
</g>
<g>
	<rect x="479.427" y="242.726" fill="#010202" width="0.5" height="109.076"/>
</g>
<g>
	<rect x="461.066" y="200.505" fill="#010202" width="0.5" height="192.945"/>
</g>
<g>
	<rect x="443.215" y="175.116" fill="#010202" width="0.5" height="243.597"/>
</g>
<g>
	<rect x="126.463" y="379.294" fill="#010202" width="342.567" height="0.5"/>
</g>
<g>
	<rect x="136.575" y="397.618" fill="#010202" width="322.161" height="0.5"/>
</g>
<g>
	<rect x="149.218" y="415.434" fill="#010202" width="296.795" height="0.5"/>
</g>
<g>
	<rect x="109.319" y="322.659" fill="#010202" width="376.719" height="0.5"/>
</g>
<g>
	<rect x="112.642" y="340.983" fill="#010202" width="370.001" height="0.5"/>
</g>
<g>
	<rect x="118.005" y="358.801" fill="#010202" width="359.403" height="0.5"/>
</g>
<g>
	<rect x="220.762" y="470.506" fill="#010202" width="153.533" height="0.5"/>
</g>
<g>
	<rect x="164.217" y="432.195" fill="#010202" width="266.498" height="0.5"/>
</g>
<g>
	<rect x="185.386" y="450.013" fill="#010202" width="224.412" height="0.5"/>
</g>
<g>
	<rect x="109.677" y="268.514" fill="#010202" width="376.029" height="0.5"/>
</g>
<g>
	<rect x="107.716" y="286.838" fill="#010202" width="379.842" height="0.5"/>
</g>
<g>
	<rect x="107.716" y="304.655" fill="#010202" width="379.842" height="0.5"/>
</g>
<g>
	<rect x="126.433" y="214.138" fill="#010202" width="342.416" height="0.5"/>
</g>
<g>
	<rect x="118.667" y="232.462" fill="#010202" width="357.918" height="0.5"/>
</g>
<g>
	<rect x="113.278" y="250.278" fill="#010202" width="368.698" height="0.5"/>
</g>
<g>
	<rect x="168.347" y="157.504" fill="#010202" width="258.663" height="0.5"/>
</g>
<g>
	<rect x="150.953" y="175.827" fill="#010202" width="293.297" height="0.5"/>
</g>
<g>
	<rect x="137.901" y="193.644" fill="#010202" width="319.351" height="0.5"/>
</g>
<g>
	<rect x="223.466" y="121.683" fill="#010202" width="148.196" height="0.5"/>
</g>
<g>
	<rect x="190.926" y="139.499" fill="#010202" width="213.352" height="0.5"/>
</g>
<g>
	<path fill="#FFFFFF" d="M297.636,488.059c-105.388,0-191.128-85.741-191.128-191.131c0-105.389,85.74-191.128,191.128-191.128
		c105.391,0,191.132,85.74,191.132,191.128C488.768,402.317,403.026,488.059,297.636,488.059z M297.636,106.799
		c-104.837,0-190.128,85.291-190.128,190.128c0,104.839,85.291,190.131,190.128,190.131c104.839,0,190.132-85.292,190.132-190.131
		C487.768,192.09,402.475,106.799,297.636,106.799z"/>
</g>
</svg>
