<?xml version="1.0" encoding="utf-8"?>
<!-- Generator: Adobe Illustrator 17.1.0, SVG Export Plug-In . SVG Version: 6.00 Build 0)  -->
<!DOCTYPE svg PUBLIC "-//W3C//DTD SVG 1.1//EN" "http://www.w3.org/Graphics/SVG/1.1/DTD/svg11.dtd">
<svg version="1.1" id="Ebene_1" xmlns="http://www.w3.org/2000/svg" xmlns:xlink="http://www.w3.org/1999/xlink" x="0px" y="0px"
	 viewBox="0 0 841.89 595.28" enable-background="new 0 0 841.89 595.28" xml:space="preserve">
<g>
	<rect x="326.25" y="132.077" fill="#010202" width="0.5" height="329.805"/>
</g>
<g>
	<rect x="307.891" y="144.108" fill="#010202" width="0.5" height="305.769"/>
</g>
<g>
	<rect x="290.038" y="159.024" fill="#010202" width="0.5" height="276.074"/>
</g>
<g>
	<rect x="382.997" y="110.621" fill="#010202" width="0.5" height="372.664"/>
</g>
<g>
	<rect x="364.639" y="115.244" fill="#010202" width="0.5" height="363.469"/>
</g>
<g>
	<rect x="346.785" y="121.656" fill="#010202" width="0.5" height="350.442"/>
</g>
<g>
	<rect x="234.856" y="254.874" fill="#010202" width="0.5" height="81.529"/>
</g>
<g>
	<rect x="273.244" y="177.132" fill="#010202" width="0.5" height="239.623"/>
</g>
<g>
	<rect x="255.392" y="203.211" fill="#010202" width="0.5" height="187.669"/>
</g>
<g>
	<rect x="437.249" y="107.531" fill="#010202" width="0.5" height="378.845"/>
</g>
<g>
	<rect x="418.889" y="106.841" fill="#010202" width="0.5" height="380.251"/>
</g>
<g>
	<rect x="401.036" y="107.863" fill="#010202" width="0.5" height="378.258"/>
</g>
<g>
	<rect x="491.734" y="120.506" fill="#010202" width="0.5" height="352.766"/>
</g>
<g>
	<rect x="473.374" y="114.223" fill="#010202" width="0.5" height="365.461"/>
</g>
<g>
	<rect x="455.521" y="109.983" fill="#010202" width="0.5" height="373.915"/>
</g>
<g>
	<rect x="548.48" y="156.342" fill="#010202" width="0.5" height="281.272"/>
</g>
<g>
	<rect x="530.121" y="141.527" fill="#010202" width="0.5" height="310.8"/>
</g>
<g>
	<rect x="512.269" y="130.417" fill="#010202" width="0.5" height="333.073"/>
</g>
<g>
	<rect x="602.732" y="242.726" fill="#010202" width="0.5" height="109.076"/>
</g>
<g>
	<rect x="584.371" y="200.505" fill="#010202" width="0.5" height="192.945"/>
</g>
<g>
	<rect x="566.52" y="175.116" fill="#010202" width="0.5" height="243.597"/>
</g>
<g>
	<rect x="249.768" y="379.294" fill="#010202" width="342.567" height="0.5"/>
</g>
<g>
	<rect x="259.88" y="397.618" fill="#010202" width="322.161" height="0.5"/>
</g>
<g>
	<rect x="272.523" y="415.434" fill="#010202" width="296.795" height="0.5"/>
</g>
<g>
	<rect x="232.624" y="322.659" fill="#010202" width="376.719" height="0.5"/>
</g>
<g>
	<rect x="235.947" y="340.983" fill="#010202" width="370.001" height="0.5"/>
</g>
<g>
	<rect x="241.31" y="358.801" fill="#010202" width="359.403" height="0.5"/>
</g>
<g>
	<rect x="344.067" y="470.506" fill="#010202" width="153.533" height="0.5"/>
</g>
<g>
	<rect x="287.522" y="432.195" fill="#010202" width="266.498" height="0.5"/>
</g>
<g>
	<rect x="308.691" y="450.013" fill="#010202" width="224.412" height="0.5"/>
</g>
<g>
	<rect x="232.982" y="268.514" fill="#010202" width="376.029" height="0.5"/>
</g>
<g>
	<rect x="231.021" y="286.838" fill="#010202" width="379.842" height="0.5"/>
</g>
<g>
	<rect x="231.021" y="304.655" fill="#010202" width="379.842" height="0.5"/>
</g>
<g>
	<rect x="249.738" y="214.138" fill="#010202" width="342.416" height="0.5"/>
</g>
<g>
	<rect x="241.972" y="232.462" fill="#010202" width="357.918" height="0.5"/>
</g>
<g>
	<rect x="236.583" y="250.278" fill="#010202" width="368.698" height="0.5"/>
</g>
<g>
	<rect x="291.652" y="157.504" fill="#010202" width="258.663" height="0.5"/>
</g>
<g>
	<rect x="274.258" y="175.827" fill="#010202" width="293.297" height="0.5"/>
</g>
<g>
	<rect x="261.206" y="193.644" fill="#010202" width="319.351" height="0.5"/>
</g>
<g>
	<rect x="346.771" y="121.683" fill="#010202" width="148.196" height="0.5"/>
</g>
<g>
	<rect x="314.231" y="139.499" fill="#010202" width="213.352" height="0.5"/>
</g>
</svg>
