<?xml version="1.0" encoding="utf-8"?>
<!-- Generator: Adobe Illustrator 17.1.0, SVG Export Plug-In . SVG Version: 6.00 Build 0)  -->
<!DOCTYPE svg PUBLIC "-//W3C//DTD SVG 1.1//EN" "http://www.w3.org/Graphics/SVG/1.1/DTD/svg11.dtd">
<svg version="1.1" id="Ebene_1" xmlns="http://www.w3.org/2000/svg" xmlns:xlink="http://www.w3.org/1999/xlink" x="0px" y="0px"
	 viewBox="0 0 841.89 595.28" enable-background="new 0 0 841.89 595.28" xml:space="preserve">
<g>
	<rect x="289.913" y="168.031" width="41.308" height="1.5"/>
</g>
<g>
	<rect x="319.145" y="162.118" width="1.5" height="33.313"/>
</g>
<g>
	<rect x="380.527" y="233.991" width="49.971" height="1.5"/>
</g>
<g>
	<rect x="425.416" y="218.084" width="1.5" height="41.975"/>
</g>
<g>
	<rect x="343.463" y="329.019" width="1.5" height="45.973"/>
</g>
<g>
	<rect x="333.554" y="364.913" width="39.31" height="1.5"/>
</g>
<g>
	<rect x="405.426" y="310.696" width="1.5" height="31.98"/>
</g>
<g>
	<rect x="385.523" y="312.944" width="28.924" height="1.5"/>
</g>
<g>
	<rect x="455.396" y="249.066" width="1.5" height="38.644"/>
</g>
<g>
	<rect x="448.151" y="257.311" width="47.306" height="1.5"/>
</g>
<g>
	<rect x="498.038" y="194.433" width="1.5" height="31.315"/>
</g>
<g>
	<rect x="491.127" y="219.001" width="36.646" height="1.5"/>
</g>
<g>
	<rect x="397.874" y="136.8" width="1.5" height="48.638"/>
</g>
<g>
	<rect x="386.964" y="175.36" width="52.967" height="1.5"/>
</g>
<g>
	<rect x="440.719" y="120.81" width="1.5" height="31.315"/>
</g>
<g>
	<rect x="421.521" y="131.387" width="75.249" height="1.5"/>
</g>
<g>
	<rect x="453.828" y="407.972" width="1.5" height="71.289"/>
</g>
<g>
	<rect x="409.41" y="467.853" width="64.822" height="1.5"/>
</g>
<g>
	<rect x="370.115" y="386.984" width="1.5" height="67.959"/>
</g>
<g>
	<rect x="358.871" y="394.895" width="49.304" height="1.5"/>
</g>
<g>
	<rect x="235.778" y="315.051" width="61.963" height="1.5"/>
</g>
<g>
	<rect x="239.692" y="292.261" width="1.5" height="30.648"/>
</g>
<g>
	<rect x="261.847" y="210.089" width="1.5" height="47.305"/>
</g>
<g>
	<rect x="253.934" y="216.669" width="53.968" height="1.5"/>
</g>
<g>
	<rect x="299.49" y="239.072" width="1.5" height="25.984"/>
</g>
<g>
	<rect x="296.907" y="247.316" width="33.315" height="1.5"/>
</g>
<g>
	<rect x="334.469" y="270.387" width="1.5" height="29.037"/>
</g>
<g>
	<rect x="319.895" y="276.299" width="35.312" height="1.5"/>
</g>
<g>
	<rect x="402.762" y="264.056" width="1.5" height="31.315"/>
</g>
<g>
	<rect x="390.854" y="289.679" width="33.589" height="1.5"/>
</g>
<g>
	<rect x="543.679" y="190.101" width="1.5" height="54.967"/>
</g>
<g>
	<rect x="539.766" y="200.012" width="39.309" height="1.5"/>
</g>
<g>
	<rect x="579.99" y="234.741" width="1.5" height="34.312"/>
</g>
<g>
	<rect x="566.082" y="268.303" width="31.98" height="1.5"/>
</g>
<g>
	<rect x="451.399" y="335.014" width="1.5" height="38.645"/>
</g>
<g>
	<rect x="429.535" y="337.928" width="38.604" height="1.5"/>
</g>
<g>
	<rect x="523.357" y="280.38" width="1.5" height="60.629"/>
</g>
<g>
	<rect x="496.124" y="286.681" width="40.644" height="1.5"/>
</g>
<g>
	<rect x="545.342" y="321.689" width="1.5" height="65.295"/>
</g>
<g>
	<rect x="523.774" y="378.904" width="31.98" height="1.5"/>
</g>
<g>
	<rect x="572.993" y="323.354" width="1.5" height="54.635"/>
</g>
<g>
	<rect x="567.747" y="331.268" width="38.643" height="1.5"/>
</g>
<g>
	<rect x="295.159" y="346.341" width="1.5" height="59.964"/>
</g>
<g>
	<rect x="281.585" y="398.225" width="56.632" height="1.5"/>
</g>
<g>
	<rect x="320.811" y="410.634" width="1.5" height="42.643"/>
</g>
<g>
	<rect x="310.234" y="438.203" width="31.98" height="1.5"/>
</g>
<g>
	<rect x="403.427" y="416.301" width="1.5" height="33.979"/>
</g>
<g>
	<rect x="383.524" y="446.198" width="27.983" height="1.5"/>
</g>
<g>
	<rect x="469.873" y="388.649" width="1.5" height="34.269"/>
</g>
<g>
	<rect x="466.142" y="387.899" width="30.647" height="1.5"/>
</g>
<g>
	<rect x="516.694" y="396.978" width="1.5" height="53.302"/>
</g>
<g>
	<rect x="486.13" y="442.866" width="45.305" height="1.5"/>
</g>
<g>
	<rect x="475.384" y="310.362" width="1.5" height="65.96"/>
</g>
<g>
	<rect x="464.141" y="318.275" width="25.984" height="1.5"/>
</g>
<g>
	<rect x="364.118" y="127.14" width="1.5" height="64.629"/>
</g>
<g>
	<rect x="351.209" y="129.721" width="32.314" height="1.5"/>
</g>
<g>
	<rect x="518.359" y="153.124" width="1.5" height="33.313"/>
</g>
<g>
	<rect x="513.778" y="160.369" width="29.983" height="1.5"/>
</g>
<g>
	<rect x="334.219" y="206.009" width="76.788" height="1.5"/>
</g>
<g>
	<rect x="342.464" y="197.43" width="1.5" height="28.317"/>
</g>
<g>
	<rect x="253.601" y="343.926" width="36.312" height="1.5"/>
</g>
<g>
	<rect x="262.178" y="337.68" width="1.5" height="25.984"/>
</g>
<g>
	<rect x="497.791" y="246.818" width="34.646" height="1.5"/>
</g>
<g>
	<rect x="524.025" y="242.738" width="1.5" height="25.318"/>
</g>
<g>
	<rect x="438.643" y="292.374" width="1.5" height="21.321"/>
</g>
<g>
	<rect x="431.495" y="308.279" width="20.653" height="1.5"/>
</g>
<g>
	<rect x="426.747" y="389.648" width="1.5" height="40.308"/>
</g>
<g>
	<rect x="421.443" y="422.168" width="17.95" height="1.5"/>
</g>
<g>
	<rect x="494.706" y="343.343" width="1.5" height="26.317"/>
</g>
<g>
	<rect x="490.125" y="364.247" width="27.318" height="1.5"/>
</g>
<g>
	<rect x="500.037" y="402.307" width="1.5" height="26.652"/>
</g>
<g>
	<rect x="490.125" y="422.878" width="16.324" height="1.5"/>
</g>
<g>
	<rect x="541.678" y="401.31" width="1.5" height="29.316"/>
</g>
<g>
	<rect x="537.431" y="403.226" width="29.316" height="1.5"/>
</g>
<g>
	<rect x="555.004" y="271.386" width="1.5" height="41.974"/>
</g>
<g>
	<rect x="551.756" y="307.668" width="51.304" height="1.5"/>
</g>
<g>
	<rect x="280.835" y="260.393" width="1.5" height="33.979"/>
</g>
<g>
	<rect x="276.254" y="285.96" width="35.645" height="1.5"/>
</g>
<g>
	<rect x="363.451" y="298.59" width="1.5" height="50.417"/>
</g>
<g>
	<rect x="355.373" y="306.837" width="22.986" height="1.5"/>
</g>
<g>
	<rect x="441.071" y="187.77" width="1.5" height="45.305"/>
</g>
<g>
	<rect x="436.825" y="223.831" width="44.64" height="1.5"/>
</g>
<g>
	<rect x="481.714" y="147.46" width="1.5" height="48.638"/>
</g>
<g>
	<rect x="459.144" y="158.037" width="30.981" height="1.5"/>
</g>
<g>
	<rect x="340.383" y="249.315" width="45.14" height="1.5"/>
</g>
<g>
	<rect x="365.117" y="242.737" width="1.5" height="30.315"/>
</g>
<g>
	<rect x="311.149" y="321.689" width="1.5" height="47.971"/>
</g>
<g>
	<rect x="306.904" y="328.269" width="25.317" height="1.5"/>
</g>
<g>
	<rect x="392.768" y="335.679" width="1.5" height="37.313"/>
</g>
<g>
	<rect x="388.604" y="362.914" width="38.394" height="1.5"/>
</g>
</svg>
