<?xml version="1.0" encoding="utf-8"?>
<!-- Generator: Adobe Illustrator 17.1.0, SVG Export Plug-In . SVG Version: 6.00 Build 0)  -->
<!DOCTYPE svg PUBLIC "-//W3C//DTD SVG 1.1//EN" "http://www.w3.org/Graphics/SVG/1.1/DTD/svg11.dtd">
<svg version="1.1" id="Ebene_1" xmlns="http://www.w3.org/2000/svg" xmlns:xlink="http://www.w3.org/1999/xlink" x="0px" y="0px"
	 viewBox="0 0 595.28 595.28" enable-background="new 0 0 595.28 595.28" xml:space="preserve">
<g>
	<rect x="166.608" y="168.031" width="41.308" height="1.5"/>
</g>
<g>
	<rect x="195.84" y="162.118" width="1.5" height="33.313"/>
</g>
<g>
	<rect x="257.222" y="233.991" width="49.971" height="1.5"/>
</g>
<g>
	<rect x="302.111" y="218.084" width="1.5" height="41.975"/>
</g>
<g>
	<rect x="220.158" y="329.019" width="1.5" height="45.973"/>
</g>
<g>
	<rect x="210.249" y="364.913" width="39.31" height="1.5"/>
</g>
<g>
	<rect x="282.121" y="310.696" width="1.5" height="31.98"/>
</g>
<g>
	<rect x="262.218" y="312.944" width="28.924" height="1.5"/>
</g>
<g>
	<rect x="332.091" y="249.066" width="1.5" height="38.644"/>
</g>
<g>
	<rect x="324.846" y="257.311" width="47.306" height="1.5"/>
</g>
<g>
	<rect x="374.733" y="194.433" width="1.5" height="31.315"/>
</g>
<g>
	<rect x="367.822" y="219.001" width="36.646" height="1.5"/>
</g>
<g>
	<rect x="274.569" y="136.8" width="1.5" height="48.638"/>
</g>
<g>
	<rect x="263.659" y="175.36" width="52.967" height="1.5"/>
</g>
<g>
	<rect x="317.414" y="120.81" width="1.5" height="31.315"/>
</g>
<g>
	<rect x="298.216" y="131.387" width="75.249" height="1.5"/>
</g>
<g>
	<rect x="330.523" y="407.972" width="1.5" height="71.289"/>
</g>
<g>
	<rect x="286.105" y="467.853" width="64.822" height="1.5"/>
</g>
<g>
	<rect x="246.81" y="386.984" width="1.5" height="67.959"/>
</g>
<g>
	<rect x="235.566" y="394.895" width="49.304" height="1.5"/>
</g>
<g>
	<rect x="112.473" y="315.051" width="61.963" height="1.5"/>
</g>
<g>
	<rect x="116.387" y="292.261" width="1.5" height="30.648"/>
</g>
<g>
	<rect x="138.542" y="210.089" width="1.5" height="47.305"/>
</g>
<g>
	<rect x="130.629" y="216.669" width="53.968" height="1.5"/>
</g>
<g>
	<rect x="176.185" y="239.072" width="1.5" height="25.984"/>
</g>
<g>
	<rect x="173.602" y="247.316" width="33.315" height="1.5"/>
</g>
<g>
	<rect x="211.164" y="270.387" width="1.5" height="29.037"/>
</g>
<g>
	<rect x="196.59" y="276.299" width="35.312" height="1.5"/>
</g>
<g>
	<rect x="279.457" y="264.056" width="1.5" height="31.315"/>
</g>
<g>
	<rect x="267.549" y="289.679" width="33.589" height="1.5"/>
</g>
<g>
	<rect x="420.374" y="190.101" width="1.5" height="54.967"/>
</g>
<g>
	<rect x="416.461" y="200.012" width="39.309" height="1.5"/>
</g>
<g>
	<rect x="456.685" y="234.741" width="1.5" height="34.312"/>
</g>
<g>
	<rect x="442.777" y="268.303" width="31.98" height="1.5"/>
</g>
<g>
	<rect x="328.094" y="335.014" width="1.5" height="38.645"/>
</g>
<g>
	<rect x="306.23" y="337.928" width="38.604" height="1.5"/>
</g>
<g>
	<rect x="400.052" y="280.38" width="1.5" height="60.629"/>
</g>
<g>
	<rect x="372.819" y="286.681" width="40.644" height="1.5"/>
</g>
<g>
	<rect x="422.037" y="321.689" width="1.5" height="65.295"/>
</g>
<g>
	<rect x="400.469" y="378.904" width="31.98" height="1.5"/>
</g>
<g>
	<rect x="449.688" y="323.354" width="1.5" height="54.635"/>
</g>
<g>
	<rect x="444.442" y="331.268" width="38.643" height="1.5"/>
</g>
<g>
	<rect x="171.854" y="346.341" width="1.5" height="59.964"/>
</g>
<g>
	<rect x="158.28" y="398.225" width="56.632" height="1.5"/>
</g>
<g>
	<rect x="197.506" y="410.634" width="1.5" height="42.643"/>
</g>
<g>
	<rect x="186.929" y="438.203" width="31.98" height="1.5"/>
</g>
<g>
	<rect x="280.122" y="416.301" width="1.5" height="33.979"/>
</g>
<g>
	<rect x="260.219" y="446.198" width="27.983" height="1.5"/>
</g>
<g>
	<rect x="346.568" y="388.649" width="1.5" height="34.269"/>
</g>
<g>
	<rect x="342.837" y="387.899" width="30.647" height="1.5"/>
</g>
<g>
	<rect x="393.389" y="396.978" width="1.5" height="53.302"/>
</g>
<g>
	<rect x="362.825" y="442.866" width="45.305" height="1.5"/>
</g>
<g>
	<rect x="352.079" y="310.362" width="1.5" height="65.96"/>
</g>
<g>
	<rect x="340.836" y="318.275" width="25.984" height="1.5"/>
</g>
<g>
	<rect x="240.813" y="127.14" width="1.5" height="64.629"/>
</g>
<g>
	<rect x="227.904" y="129.721" width="32.314" height="1.5"/>
</g>
<g>
	<rect x="395.054" y="153.124" width="1.5" height="33.313"/>
</g>
<g>
	<rect x="390.473" y="160.369" width="29.983" height="1.5"/>
</g>
<g>
	<rect x="210.914" y="206.009" width="76.788" height="1.5"/>
</g>
<g>
	<rect x="219.159" y="197.43" width="1.5" height="28.317"/>
</g>
<g>
	<rect x="130.296" y="343.926" width="36.312" height="1.5"/>
</g>
<g>
	<rect x="138.873" y="337.68" width="1.5" height="25.984"/>
</g>
<g>
	<rect x="374.486" y="246.818" width="34.646" height="1.5"/>
</g>
<g>
	<rect x="400.72" y="242.738" width="1.5" height="25.318"/>
</g>
<g>
	<rect x="315.338" y="292.374" width="1.5" height="21.321"/>
</g>
<g>
	<rect x="308.19" y="308.279" width="20.653" height="1.5"/>
</g>
<g>
	<rect x="303.442" y="389.648" width="1.5" height="40.308"/>
</g>
<g>
	<rect x="298.138" y="422.168" width="17.95" height="1.5"/>
</g>
<g>
	<rect x="371.401" y="343.343" width="1.5" height="26.317"/>
</g>
<g>
	<rect x="366.82" y="364.247" width="27.318" height="1.5"/>
</g>
<g>
	<rect x="376.732" y="402.307" width="1.5" height="26.652"/>
</g>
<g>
	<rect x="366.82" y="422.878" width="16.324" height="1.5"/>
</g>
<g>
	<rect x="418.373" y="401.31" width="1.5" height="29.316"/>
</g>
<g>
	<rect x="414.126" y="403.226" width="29.316" height="1.5"/>
</g>
<g>
	<rect x="431.699" y="271.386" width="1.5" height="41.974"/>
</g>
<g>
	<rect x="428.451" y="307.668" width="51.304" height="1.5"/>
</g>
<g>
	<rect x="157.53" y="260.393" width="1.5" height="33.979"/>
</g>
<g>
	<rect x="152.949" y="285.96" width="35.645" height="1.5"/>
</g>
<g>
	<rect x="240.146" y="298.59" width="1.5" height="50.417"/>
</g>
<g>
	<rect x="232.068" y="306.837" width="22.986" height="1.5"/>
</g>
<g>
	<rect x="317.766" y="187.77" width="1.5" height="45.305"/>
</g>
<g>
	<rect x="313.52" y="223.831" width="44.64" height="1.5"/>
</g>
<g>
	<rect x="358.409" y="147.46" width="1.5" height="48.638"/>
</g>
<g>
	<rect x="335.839" y="158.037" width="30.981" height="1.5"/>
</g>
<g>
	<rect x="217.078" y="249.315" width="45.14" height="1.5"/>
</g>
<g>
	<rect x="241.812" y="242.737" width="1.5" height="30.315"/>
</g>
<g>
	<rect x="187.844" y="321.689" width="1.5" height="47.971"/>
</g>
<g>
	<rect x="183.599" y="328.269" width="25.317" height="1.5"/>
</g>
<g>
	<rect x="269.463" y="335.679" width="1.5" height="37.313"/>
</g>
<g>
	<rect x="265.299" y="362.914" width="38.394" height="1.5"/>
</g>
<g>
	<path fill="#FFFFFF" d="M297.636,488.059c-105.388,0-191.128-85.741-191.128-191.131c0-105.388,85.74-191.128,191.128-191.128
		c105.391,0,191.132,85.74,191.132,191.128C488.768,402.317,403.026,488.059,297.636,488.059z M297.636,106.799
		c-104.837,0-190.128,85.291-190.128,190.128c0,104.838,85.291,190.131,190.128,190.131c104.839,0,190.132-85.293,190.132-190.131
		C487.768,192.09,402.475,106.799,297.636,106.799z"/>
</g>
</svg>
