<?xml version="1.0" encoding="utf-8"?>
<!-- Generator: Adobe Illustrator 17.1.0, SVG Export Plug-In . SVG Version: 6.00 Build 0)  -->
<!DOCTYPE svg PUBLIC "-//W3C//DTD SVG 1.1//EN" "http://www.w3.org/Graphics/SVG/1.1/DTD/svg11.dtd">
<svg version="1.1" id="Ebene_1" xmlns="http://www.w3.org/2000/svg" xmlns:xlink="http://www.w3.org/1999/xlink" x="0px" y="0px"
	 viewBox="0 0 841.89 595.28" enable-background="new 0 0 841.89 595.28" xml:space="preserve">
<g>
	
		<rect x="231.639" y="422.37" transform="matrix(-0.7085 -0.7057 0.7057 -0.7085 205.5896 932.1588)" width="127.343" height="2.5"/>
</g>
<g>
	
		<rect x="196.35" y="397.963" transform="matrix(-0.7071 -0.7071 0.7071 -0.7071 261.3318 906.6727)" width="244.189" height="2.5"/>
</g>
<g>
	
		<rect x="188.712" y="370.186" transform="matrix(-0.7071 -0.7071 0.7071 -0.7071 328.1378 878.7921)" width="314.721" height="2.5"/>
</g>
<g>
	
		<rect x="196.218" y="342.423" transform="matrix(-0.7071 -0.7071 0.7071 -0.7071 396.2941 851.4958)" width="356.56" height="2.5"/>
</g>
<g>
	
		<rect x="213.791" y="314.431" transform="matrix(-0.7071 -0.7071 0.7071 -0.7071 463.1897 823.2211)" width="376.596" height="2.5"/>
</g>
<g>
	
		<rect x="240.877" y="286.346" transform="matrix(-0.7071 -0.7071 0.7071 -0.7071 531.3814 795.2968)" width="379.049" height="2.5"/>
</g>
<g>
	
		<rect x="278.205" y="256.729" transform="matrix(-0.7071 -0.7071 0.7071 -0.7071 602.8661 765.673)" width="363.608" height="2.5"/>
</g>
<g>
	
		<rect x="322.541" y="229.058" transform="matrix(-0.7071 -0.7071 0.7071 -0.7071 669.0922 737.7626)" width="329.601" height="2.5"/>
</g>
<g>
	
		<rect x="373.321" y="204.039" transform="matrix(-0.7071 -0.7071 0.7071 -0.7071 728.6448 712.392)" width="277.084" height="2.5"/>
</g>
<g>
	
		<rect x="439.512" y="180.832" transform="matrix(-0.7071 -0.7071 0.7071 -0.7071 786.8938 690.1056)" width="193.721" height="2.5"/>
</g>
<g>
	
		<rect x="544.204" y="349.445" transform="matrix(-0.7071 -0.7071 0.7071 -0.7071 633.6149 1104.0035)" width="2.5" height="142.662"/>
</g>
<g>
	
		<rect x="521.892" y="276.022" transform="matrix(-0.7071 -0.7071 0.7071 -0.7071 611.0953 1050.6393)" width="2.5" height="245.472"/>
</g>
<g>
	
		<rect x="494.792" y="214.569" transform="matrix(-0.7071 -0.7071 0.7071 -0.7071 583.837 985.5944)" width="2.5" height="314.624"/>
</g>
<g>
	
		<rect x="466.687" y="165.579" transform="matrix(-0.7071 -0.7071 0.7071 -0.7071 555.7162 917.7839)" width="2.5" height="356.441"/>
</g>
<g>
	
		<rect x="437.407" y="126.179" transform="matrix(-0.7071 -0.7071 0.7071 -0.7071 526.3416 847.3242)" width="2.5" height="376.949"/>
</g>
<g>
	
		<rect x="409.148" y="96.926" transform="matrix(-0.7071 -0.7071 0.7071 -0.7071 497.9897 779.3228)" width="2.5" height="379.197"/>
</g>
<g>
	
		<rect x="380.968" y="76.156" transform="matrix(-0.7071 -0.7071 0.7071 -0.7071 469.8354 711.2264)" width="2.5" height="364.301"/>
</g>
<g>
	<rect x="354.93" y="65.716" transform="matrix(-0.7071 -0.7071 0.7071 -0.7071 443.8741 648.1812)" width="2.5" height="332.89"/>
</g>
<g>
	
		<rect x="328.915" y="66.529" transform="matrix(-0.7071 -0.7071 0.7071 -0.7071 418.0915 584.8151)" width="2.5" height="278.578"/>
</g>
<g>
	<rect x="303.46" y="86.277" transform="matrix(-0.7071 -0.7071 0.7071 -0.7071 392.381 523.9766)" width="2.5" height="188.892"/>
</g>
</svg>
