<?xml version="1.0" encoding="utf-8"?>
<!-- Generator: Adobe Illustrator 17.1.0, SVG Export Plug-In . SVG Version: 6.00 Build 0)  -->
<!DOCTYPE svg PUBLIC "-//W3C//DTD SVG 1.1//EN" "http://www.w3.org/Graphics/SVG/1.1/DTD/svg11.dtd">
<svg version="1.1" id="Ebene_1" xmlns="http://www.w3.org/2000/svg" xmlns:xlink="http://www.w3.org/1999/xlink" x="0px" y="0px"
	 viewBox="0 0 595.28 595.28" enable-background="new 0 0 595.28 595.28" xml:space="preserve">
<g>
	<rect x="108.312" y="422.364" transform="matrix(0.7085 0.7057 -0.7057 0.7085 349.0996 2.1199)" width="127.344" height="2.5"/>
</g>
<g>
	<rect x="73.041" y="397.967" transform="matrix(0.7071 0.7071 -0.7071 0.7071 339.4443 -21.0546)" width="244.191" height="2.5"/>
</g>
<g>
	<rect x="65.406" y="370.191" transform="matrix(0.7071 0.7071 -0.7071 0.7071 327.8944 -48.7287)" width="314.724" height="2.5"/>
</g>
<g>
	<rect x="72.91" y="342.427" transform="matrix(0.7071 0.7071 -0.7071 0.7071 316.5891 -76.9588)" width="356.563" height="2.5"/>
</g>
<g>
	<rect x="90.485" y="314.435" transform="matrix(0.7071 0.7071 -0.7071 0.7071 304.8765 -104.6689)" width="376.6" height="2.5"/>
</g>
<g>
	<rect x="117.571" y="286.35" transform="matrix(0.7071 0.7071 -0.7071 0.7071 293.3104 -132.9149)" width="379.053" height="2.5"/>
</g>
<g>
	
		<rect x="154.899" y="256.733" transform="matrix(0.7071 0.7071 -0.7071 0.7071 281.0402 -162.5247)" width="363.611" height="2.5"/>
</g>
<g>
	
		<rect x="199.235" y="229.062" transform="matrix(0.7071 0.7071 -0.7071 0.7071 269.4798 -189.9564)" width="329.604" height="2.5"/>
</g>
<g>
	
		<rect x="250.016" y="204.043" transform="matrix(0.7071 0.7071 -0.7071 0.7071 258.9709 -214.6244)" width="277.087" height="2.5"/>
</g>
<g>
	
		<rect x="316.211" y="180.835" transform="matrix(0.7071 0.7071 -0.7071 0.7071 249.7362 -238.7541)" width="193.723" height="2.5"/>
</g>
<g>
	<rect x="420.899" y="349.45" transform="matrix(0.7071 0.7071 -0.7071 0.7071 421.1822 -175.2603)" width="2.5" height="142.663"/>
</g>
<g>
	
		<rect x="398.603" y="276.026" transform="matrix(0.7071 0.7071 -0.7071 0.7071 399.0664 -165.9437)" width="2.5" height="245.474"/>
</g>
<g>
	<rect x="371.487" y="214.572" transform="matrix(0.7071 0.7071 -0.7071 0.7071 372.1347 -154.642)" width="2.5" height="314.627"/>
</g>
<g>
	
		<rect x="343.382" y="165.582" transform="matrix(0.7071 0.7071 -0.7071 0.7071 344.0469 -142.9937)" width="2.5" height="356.444"/>
</g>
<g>
	<rect x="314.114" y="126.181" transform="matrix(0.7071 0.7071 -0.7071 0.7071 314.8528 -130.835)" width="2.5" height="376.953"/>
</g>
<g>
	<rect x="285.843" y="96.928" transform="matrix(0.7071 0.7071 -0.7071 0.7071 286.6938 -119.0834)" width="2.5" height="379.201"/>
</g>
<g>
	<rect x="257.663" y="76.158" transform="matrix(0.7071 0.7071 -0.7071 0.7071 258.4865 -107.4216)" width="2.5" height="364.305"/>
</g>
<g>
	<rect x="231.634" y="65.718" transform="matrix(0.7071 0.7071 -0.7071 0.7071 232.366 -96.6745)" width="2.5" height="332.893"/>
</g>
<g>
	<rect x="205.61" y="66.53" transform="matrix(0.7071 0.7071 -0.7071 0.7071 206.1249 -85.9884)" width="2.5" height="278.581"/>
</g>
<g>
	<rect x="180.155" y="86.279" transform="matrix(0.7071 0.7071 -0.7071 0.7071 180.9245 -75.3393)" width="2.5" height="188.894"/>
</g>
<g>
	<path fill="none" stroke="#FFFFFF" stroke-miterlimit="10" d="M488.268,296.927c0,105.284-85.348,190.631-190.632,190.631
		c-105.28,0-190.628-85.348-190.628-190.631c0-105.282,85.348-190.628,190.628-190.628
		C402.92,106.299,488.268,191.645,488.268,296.927z"/>
</g>
</svg>
