<?xml version="1.0" encoding="utf-8"?>
<!-- Generator: Adobe Illustrator 17.1.0, SVG Export Plug-In . SVG Version: 6.00 Build 0)  -->
<!DOCTYPE svg PUBLIC "-//W3C//DTD SVG 1.1//EN" "http://www.w3.org/Graphics/SVG/1.1/DTD/svg11.dtd">
<svg version="1.1" id="Ebene_1" xmlns="http://www.w3.org/2000/svg" xmlns:xlink="http://www.w3.org/1999/xlink" x="0px" y="0px"
	 viewBox="0 0 841.89 595.28" enable-background="new 0 0 841.89 595.28" xml:space="preserve">
<g>
	<path d="M279.36,171.477l-0.384-0.924l11.083-4.602l0.384,0.924L279.36,171.477z M301.525,162.274l-0.384-0.924l11.083-4.602
		l0.384,0.924L301.525,162.274z M323.69,153.071l-0.384-0.924l11.083-4.602l0.384,0.924L323.69,153.071z M345.856,143.868
		l-0.384-0.924l11.082-4.602l0.384,0.924L345.856,143.868z M368.021,134.665l-0.384-0.924l11.083-4.602l0.384,0.924L368.021,134.665
		z M390.186,125.461l-0.384-0.924l11.082-4.602l0.384,0.924L390.186,125.461z M412.351,116.258l-0.384-0.924l11.083-4.602
		l0.383,0.924L412.351,116.258z"/>
</g>
<g>
	<path d="M252.689,209.523l-0.384-0.924l11.082-4.602l0.384,0.924L252.689,209.523z M274.854,200.319l-0.384-0.924l11.083-4.602
		l0.384,0.924L274.854,200.319z M297.02,191.116l-0.384-0.924l11.082-4.602l0.384,0.924L297.02,191.116z M319.185,181.913
		l-0.384-0.924l11.083-4.602l0.384,0.924L319.185,181.913z M341.35,172.71l-0.384-0.924l11.083-4.602l0.384,0.924L341.35,172.71z
		 M363.515,163.506l-0.384-0.924l11.083-4.602l0.384,0.924L363.515,163.506z M385.68,154.303l-0.384-0.924l11.083-4.602l0.384,0.924
		L385.68,154.303z M407.846,145.099l-0.384-0.924l11.082-4.602l0.384,0.924L407.846,145.099z M430.011,135.896l-0.383-0.924
		l11.082-4.602l0.383,0.924L430.011,135.896z M452.176,126.692l-0.383-0.924l11.082-4.602l0.383,0.924L452.176,126.692z
		 M474.341,117.489l-0.383-0.924l3.22-1.337l0.383,0.924L474.341,117.489z"/>
</g>
<g>
	<path d="M239.399,242.014l-0.384-0.924l11.082-4.602l0.384,0.924L239.399,242.014z M261.564,232.811l-0.384-0.924l11.083-4.602
		l0.384,0.924L261.564,232.811z M283.729,223.607l-0.384-0.924l11.083-4.602l0.384,0.924L283.729,223.607z M305.894,214.404
		l-0.384-0.924l11.083-4.602l0.384,0.924L305.894,214.404z M328.059,205.2l-0.384-0.924l11.083-4.602l0.384,0.924L328.059,205.2z
		 M350.225,195.997l-0.384-0.924l11.083-4.602l0.384,0.924L350.225,195.997z M372.39,186.794l-0.384-0.924l11.083-4.602l0.384,0.924
		L372.39,186.794z M394.555,177.59l-0.384-0.924l11.082-4.602l0.384,0.924L394.555,177.59z M416.72,168.387l-0.384-0.924
		l11.083-4.602l0.383,0.924L416.72,168.387z M438.885,159.183l-0.383-0.924l11.083-4.602l0.383,0.924L438.885,159.183z
		 M461.05,149.98l-0.383-0.924l11.083-4.602l0.383,0.924L461.05,149.98z M483.215,140.776l-0.383-0.924l11.083-4.602l0.383,0.924
		L483.215,140.776z M505.381,131.573l-0.383-0.924l4.511-1.873l0.383,0.924L505.381,131.573z"/>
</g>
<g>
	<path d="M233.038,271.626l-0.384-0.924l11.082-4.602l0.384,0.924L233.038,271.626z M255.203,262.423l-0.384-0.924l11.083-4.602
		l0.384,0.924L255.203,262.423z M277.368,253.219l-0.384-0.924l11.082-4.602l0.384,0.924L277.368,253.219z M299.534,244.016
		l-0.384-0.924l11.083-4.602l0.384,0.924L299.534,244.016z M321.699,234.812l-0.384-0.924l11.082-4.602l0.384,0.924L321.699,234.812
		z M343.864,225.609l-0.384-0.924l11.083-4.602l0.384,0.924L343.864,225.609z M366.03,216.406l-0.384-0.924l11.083-4.602
		l0.384,0.924L366.03,216.406z M388.195,207.203l-0.384-0.924l11.082-4.602l0.384,0.924L388.195,207.203z M410.36,197.999
		l-0.384-0.924l11.083-4.602l0.384,0.924L410.36,197.999z M432.525,188.796l-0.383-0.924l11.083-4.602l0.383,0.924L432.525,188.796z
		 M454.69,179.593l-0.383-0.924l11.083-4.602l0.383,0.924L454.69,179.593z M476.856,170.389l-0.383-0.924l11.082-4.602l0.383,0.924
		L476.856,170.389z M499.021,161.186l-0.383-0.924l11.082-4.602l0.383,0.924L499.021,161.186z M521.186,151.983l-0.383-0.924
		l11.083-4.602l0.383,0.924L521.186,151.983z"/>
</g>
<g>
	<path d="M231.159,299.379l-0.384-0.923l11.082-4.602l0.384,0.924L231.159,299.379z M253.324,290.176l-0.384-0.924l11.083-4.602
		l0.384,0.924L253.324,290.176z M275.49,280.973l-0.384-0.924l11.083-4.602l0.384,0.924L275.49,280.973z M297.655,271.769
		l-0.384-0.924l11.083-4.602l0.384,0.924L297.655,271.769z M319.82,262.566l-0.384-0.924l11.083-4.602l0.384,0.924L319.82,262.566z
		 M341.985,253.362l-0.384-0.924l11.082-4.602l0.384,0.924L341.985,253.362z M364.15,244.159l-0.384-0.924l11.083-4.602l0.384,0.924
		L364.15,244.159z M386.316,234.956l-0.384-0.924l11.082-4.601l0.384,0.924L386.316,234.956z M408.481,225.752l-0.384-0.924
		l11.082-4.602l0.384,0.924L408.481,225.752z M430.646,216.549l-0.383-0.924l11.082-4.602l0.383,0.924L430.646,216.549z
		 M452.811,207.346l-0.383-0.924l11.083-4.602l0.383,0.924L452.811,207.346z M474.976,198.142l-0.383-0.924l11.083-4.602
		l0.383,0.924L474.976,198.142z M497.141,188.939l-0.383-0.924l11.083-4.602l0.383,0.924L497.141,188.939z M519.307,179.735
		l-0.383-0.924l11.082-4.601l0.383,0.924L519.307,179.735z M541.472,170.532l-0.383-0.924l11.082-4.602l0.383,0.924L541.472,170.532
		z"/>
</g>
<g>
	<path d="M233.153,325.524l-0.384-0.924l11.082-4.602l0.384,0.924L233.153,325.524z M255.318,316.321l-0.384-0.924l11.083-4.602
		l0.384,0.924L255.318,316.321z M277.483,307.117l-0.384-0.924l11.083-4.602l0.384,0.924L277.483,307.117z M299.648,297.914
		l-0.384-0.924l11.083-4.602l0.384,0.924L299.648,297.914z M321.814,288.711l-0.384-0.924l11.082-4.602l0.384,0.924L321.814,288.711
		z M343.979,279.507l-0.384-0.924l11.083-4.602l0.384,0.924L343.979,279.507z M366.144,270.304l-0.384-0.924l11.083-4.602
		l0.384,0.924L366.144,270.304z M388.309,261.101l-0.384-0.924l11.082-4.602l0.384,0.924L388.309,261.101z M410.474,251.897
		l-0.384-0.924l11.083-4.602l0.384,0.924L410.474,251.897z M432.639,242.694l-0.383-0.924l11.083-4.602l0.383,0.924L432.639,242.694
		z M454.804,233.49l-0.383-0.924l11.083-4.602l0.383,0.924L454.804,233.49z M476.97,224.287l-0.383-0.924l11.082-4.602l0.383,0.924
		L476.97,224.287z M499.135,215.083l-0.383-0.924l11.082-4.602l0.383,0.924L499.135,215.083z M521.3,205.88l-0.383-0.924
		L532,200.354l0.383,0.924L521.3,205.88z M543.465,196.677l-0.383-0.924l11.083-4.602l0.383,0.924L543.465,196.677z M565.63,187.474
		l-0.383-0.924l8.145-3.382l0.383,0.924L565.63,187.474z"/>
</g>
<g>
	<path d="M238.54,350.259l-0.384-0.924l11.082-4.602l0.384,0.924L238.54,350.259z M260.705,341.056l-0.384-0.924l11.083-4.602
		l0.384,0.924L260.705,341.056z M282.871,331.852l-0.384-0.924l11.083-4.602l0.384,0.924L282.871,331.852z M305.036,322.648
		l-0.384-0.924l11.083-4.602l0.384,0.924L305.036,322.648z M327.201,313.445l-0.384-0.924l11.083-4.602l0.384,0.924L327.201,313.445
		z M349.366,304.242l-0.384-0.924l11.083-4.602l0.384,0.924L349.366,304.242z M371.532,295.039l-0.384-0.924l11.083-4.601
		l0.384,0.924L371.532,295.039z M393.697,285.835l-0.384-0.924l11.082-4.602l0.384,0.924L393.697,285.835z M415.862,276.632
		l-0.384-0.924l11.084-4.602l0.383,0.924L415.862,276.632z M438.027,267.428l-0.383-0.924l11.083-4.602l0.383,0.924L438.027,267.428
		z M460.193,258.225l-0.383-0.924l11.082-4.602l0.383,0.924L460.193,258.225z M482.358,249.021l-0.383-0.924l11.082-4.602
		l0.383,0.924L482.358,249.021z M504.523,239.818l-0.383-0.924l11.083-4.602l0.383,0.924L504.523,239.818z M526.688,230.615
		l-0.383-0.924l11.083-4.602l0.383,0.924L526.688,230.615z M548.853,221.412l-0.383-0.924l11.083-4.602l0.383,0.924L548.853,221.412
		z M571.019,212.208l-0.383-0.924l11.082-4.602l0.383,0.924L571.019,212.208z"/>
</g>
<g>
	<path d="M247.03,373.708l-0.384-0.924l11.082-4.602l0.384,0.924L247.03,373.708z M269.195,364.505l-0.384-0.924l11.083-4.602
		l0.384,0.924L269.195,364.505z M291.36,355.301l-0.384-0.924l11.082-4.602l0.384,0.924L291.36,355.301z M313.525,346.098
		l-0.384-0.924l11.083-4.602l0.384,0.924L313.525,346.098z M335.69,336.895l-0.384-0.924l11.083-4.602l0.384,0.924L335.69,336.895z
		 M357.856,327.691l-0.384-0.924l11.082-4.603l0.384,0.924L357.856,327.691z M380.021,318.487l-0.384-0.924l11.083-4.602
		l0.384,0.924L380.021,318.487z M402.186,309.284l-0.384-0.924l11.082-4.602l0.384,0.924L402.186,309.284z M424.351,300.081
		l-0.383-0.924l11.083-4.602l0.383,0.924L424.351,300.081z M446.516,290.877l-0.383-0.924l11.083-4.602l0.383,0.924L446.516,290.877
		z M468.681,281.674l-0.383-0.924l11.083-4.602l0.383,0.924L468.681,281.674z M490.847,272.47l-0.383-0.924l11.082-4.602
		l0.383,0.924L490.847,272.47z M513.012,263.267l-0.383-0.924l11.082-4.602l0.383,0.924L513.012,263.267z M535.177,254.064
		l-0.383-0.924l11.083-4.602l0.383,0.924L535.177,254.064z M557.342,244.86l-0.383-0.924l11.083-4.602l0.383,0.924L557.342,244.86z
		 M579.507,235.657l-0.383-0.924l11.083-4.602l0.383,0.924L579.507,235.657z"/>
</g>
<g>
	<path d="M258.618,395.867l-0.384-0.924l11.082-4.602l0.384,0.924L258.618,395.867z M280.784,386.664l-0.384-0.924l11.083-4.602
		l0.384,0.924L280.784,386.664z M302.949,377.46l-0.384-0.924l11.082-4.602l0.384,0.924L302.949,377.46z M325.114,368.257
		l-0.384-0.924l11.083-4.602l0.384,0.924L325.114,368.257z M347.28,359.054l-0.384-0.924l11.083-4.602l0.384,0.924L347.28,359.054z
		 M369.445,349.851l-0.384-0.924l11.082-4.603l0.384,0.924L369.445,349.851z M391.61,340.647l-0.384-0.924l11.083-4.602l0.384,0.924
		L391.61,340.647z M413.775,331.443l-0.384-0.924l11.082-4.602l0.383,0.924L413.775,331.443z M435.94,322.24l-0.383-0.924
		l11.083-4.602l0.383,0.924L435.94,322.24z M458.105,313.036l-0.383-0.924l11.083-4.602l0.383,0.924L458.105,313.036z
		 M480.27,303.833l-0.383-0.924l11.083-4.602l0.383,0.924L480.27,303.833z M502.436,294.63l-0.383-0.924l11.082-4.602l0.383,0.924
		L502.436,294.63z M524.601,285.426l-0.383-0.924L535.3,279.9l0.383,0.924L524.601,285.426z M546.766,276.223l-0.383-0.924
		l11.083-4.602l0.383,0.924L546.766,276.223z M568.931,267.02l-0.383-0.924l11.083-4.602l0.383,0.924L568.931,267.02z
		 M591.096,257.816l-0.383-0.924l11.083-4.602l0.383,0.924L591.096,257.816z"/>
</g>
<g>
	<path d="M275.586,415.795l-0.384-0.924l11.082-4.602l0.384,0.924L275.586,415.795z M297.751,406.592l-0.384-0.924l11.083-4.602
		l0.384,0.924L297.751,406.592z M319.916,397.388l-0.384-0.924l11.083-4.602l0.384,0.924L319.916,397.388z M342.081,388.185
		l-0.384-0.924l11.083-4.602l0.384,0.924L342.081,388.185z M364.247,378.981l-0.384-0.924l11.083-4.602l0.384,0.924L364.247,378.981
		z M386.412,369.777l-0.384-0.924l11.083-4.601l0.384,0.924L386.412,369.777z M408.577,360.574l-0.384-0.924l11.083-4.602
		l0.384,0.924L408.577,360.574z M430.741,351.371l-0.383-0.924l11.083-4.602l0.383,0.924L430.741,351.371z M452.907,342.168
		l-0.383-0.924l11.083-4.603l0.383,0.924L452.907,342.168z M475.073,332.964l-0.383-0.924l11.082-4.602l0.383,0.924L475.073,332.964
		z M497.238,323.761l-0.383-0.924l11.083-4.602l0.383,0.924L497.238,323.761z M519.403,314.558l-0.383-0.924l11.083-4.602
		l0.383,0.924L519.403,314.558z M541.568,305.353l-0.383-0.924l11.083-4.602l0.383,0.924L541.568,305.353z M563.734,296.15
		l-0.383-0.924l11.082-4.602l0.383,0.924L563.734,296.15z M585.899,286.947l-0.383-0.924l11.082-4.602l0.383,0.924L585.899,286.947z
		 M608.064,277.744l-0.383-0.924l1.954-0.811l0.383,0.924L608.064,277.744z"/>
</g>
<g>
	<path d="M291.442,436.184l-0.384-0.924l11.082-4.602l0.384,0.924L291.442,436.184z M313.607,426.98l-0.384-0.924l11.083-4.603
		l0.384,0.924L313.607,426.98z M335.773,417.776l-0.384-0.924l11.082-4.602l0.384,0.924L335.773,417.776z M357.938,408.573
		l-0.384-0.924l11.083-4.602l0.384,0.924L357.938,408.573z M380.103,399.37l-0.384-0.924l11.083-4.602l0.384,0.924L380.103,399.37z
		 M402.268,390.166l-0.384-0.924l11.082-4.602l0.384,0.924L402.268,390.166z M424.433,380.963l-0.383-0.924l11.083-4.602
		l0.383,0.924L424.433,380.963z M446.598,371.76l-0.383-0.924l11.083-4.603l0.383,0.924L446.598,371.76z M468.763,362.556
		l-0.383-0.924l11.083-4.602l0.383,0.924L468.763,362.556z M490.928,353.353l-0.383-0.924l11.083-4.602l0.383,0.924L490.928,353.353
		z M513.094,344.149l-0.383-0.924l11.082-4.603l0.383,0.924L513.094,344.149z M535.259,334.945l-0.383-0.924l11.082-4.602
		l0.383,0.924L535.259,334.945z M557.424,325.742l-0.383-0.924l11.083-4.602l0.383,0.924L557.424,325.742z M579.589,316.539
		l-0.383-0.924l11.083-4.603l0.383,0.924L579.589,316.539z M601.754,307.335l-0.383-0.924l9.378-3.893l0.383,0.924L601.754,307.335z
		"/>
</g>
<g>
	<path d="M313.804,453.87l-0.384-0.924l11.083-4.602l0.384,0.924L313.804,453.87z M335.969,444.667l-0.384-0.924l11.083-4.602
		l0.384,0.924L335.969,444.667z M358.135,435.463l-0.384-0.924l11.082-4.602l0.384,0.924L358.135,435.463z M380.3,426.26
		l-0.384-0.924l11.083-4.602l0.384,0.924L380.3,426.26z M402.465,417.057l-0.384-0.924l11.083-4.602l0.384,0.924L402.465,417.057z
		 M424.629,407.853l-0.383-0.924l11.083-4.602l0.383,0.924L424.629,407.853z M446.795,398.649l-0.383-0.924l11.082-4.602
		l0.383,0.924L446.795,398.649z M468.96,389.446l-0.383-0.924l11.082-4.602l0.383,0.924L468.96,389.446z M491.125,380.242
		l-0.383-0.924l11.082-4.602l0.383,0.924L491.125,380.242z M513.29,371.039l-0.383-0.924l11.083-4.602l0.383,0.924L513.29,371.039z
		 M535.455,361.836l-0.383-0.924l11.083-4.602l0.383,0.924L535.455,361.836z M557.62,352.632l-0.383-0.924l11.083-4.602l0.383,0.924
		L557.62,352.632z M579.786,343.429l-0.383-0.924l11.082-4.602l0.383,0.924L579.786,343.429z M601.951,334.226l-0.383-0.924
		l5.86-2.434l0.383,0.924L601.951,334.226z"/>
</g>
<g>
	<path d="M341.057,469.527l-0.384-0.924l11.082-4.601l0.384,0.924L341.057,469.527z M363.222,460.324l-0.384-0.924l11.083-4.602
		l0.384,0.924L363.222,460.324z M385.388,451.12l-0.384-0.924l11.083-4.602l0.384,0.924L385.388,451.12z M407.553,441.917
		l-0.384-0.924l11.082-4.602l0.384,0.924L407.553,441.917z M429.718,432.713l-0.383-0.924l11.082-4.602l0.383,0.924L429.718,432.713
		z M451.883,423.51l-0.383-0.924l11.082-4.602l0.383,0.924L451.883,423.51z M474.048,414.307l-0.383-0.924l11.083-4.602l0.383,0.924
		L474.048,414.307z M496.213,405.103l-0.383-0.924l11.083-4.602l0.383,0.924L496.213,405.103z M518.378,395.899l-0.383-0.924
		l11.083-4.602l0.383,0.924L518.378,395.899z M540.543,386.696l-0.383-0.924l11.083-4.603l0.383,0.924L540.543,386.696z
		 M562.709,377.492l-0.383-0.924l11.082-4.602l0.383,0.924L562.709,377.492z M584.874,368.289l-0.383-0.924l11.082-4.602
		l0.383,0.924L584.874,368.289z"/>
</g>
<g>
	<path d="M376.456,481.801l-0.384-0.924l11.083-4.602l0.384,0.924L376.456,481.801z M398.621,472.598l-0.384-0.924l11.083-4.602
		l0.384,0.924L398.621,472.598z M420.787,463.394l-0.384-0.924l11.083-4.602l0.383,0.924L420.787,463.394z M442.951,454.19
		l-0.383-0.924l11.083-4.602l0.383,0.924L442.951,454.19z M465.116,444.987l-0.383-0.924l11.083-4.602l0.383,0.924L465.116,444.987z
		 M487.282,435.783l-0.383-0.924l11.083-4.602l0.383,0.924L487.282,435.783z M509.448,426.58l-0.383-0.924l11.082-4.602l0.383,0.924
		L509.448,426.58z M531.613,417.377l-0.383-0.924l11.082-4.602l0.383,0.924L531.613,417.377z M553.778,408.173l-0.383-0.924
		l11.083-4.602l0.383,0.924L553.778,408.173z M575.943,398.97l-0.383-0.924l7.524-3.124l0.383,0.924L575.943,398.97z"/>
</g>
<g>
	<path d="M428.606,487.118l-0.383-0.924l11.083-4.602l0.383,0.924L428.606,487.118z M450.771,477.915l-0.383-0.924l11.083-4.602
		l0.383,0.924L450.771,477.915z M472.937,468.712l-0.383-0.924l11.082-4.602l0.383,0.924L472.937,468.712z M495.102,459.509
		l-0.383-0.924l11.082-4.602l0.383,0.924L495.102,459.509z M517.267,450.306l-0.383-0.924l11.083-4.603l0.383,0.924L517.267,450.306
		z M539.432,441.102l-0.383-0.924l11.083-4.602l0.383,0.924L539.432,441.102z"/>
</g>
</svg>
