<?xml version="1.0" encoding="utf-8"?>
<!-- Generator: Adobe Illustrator 17.1.0, SVG Export Plug-In . SVG Version: 6.00 Build 0)  -->
<!DOCTYPE svg PUBLIC "-//W3C//DTD SVG 1.1//EN" "http://www.w3.org/Graphics/SVG/1.1/DTD/svg11.dtd">
<svg version="1.1" id="Ebene_1" xmlns="http://www.w3.org/2000/svg" xmlns:xlink="http://www.w3.org/1999/xlink" x="0px" y="0px"
	 viewBox="0 0 595.28 595.28" enable-background="new 0 0 595.28 595.28" xml:space="preserve">
<g>
	<path d="M156.055,171.477l-0.384-0.924l11.083-4.602l0.384,0.924L156.055,171.477z M178.22,162.274l-0.384-0.924l11.083-4.602
		l0.384,0.924L178.22,162.274z M200.385,153.071l-0.384-0.924l11.083-4.602l0.384,0.924L200.385,153.071z M222.551,143.868
		l-0.384-0.924l11.082-4.602l0.384,0.924L222.551,143.868z M244.716,134.665l-0.384-0.924l11.083-4.602l0.384,0.924L244.716,134.665
		z M266.881,125.461l-0.384-0.924l11.082-4.602l0.384,0.924L266.881,125.461z M289.046,116.258l-0.384-0.924l11.083-4.602
		l0.383,0.924L289.046,116.258z"/>
</g>
<g>
	<path d="M129.384,209.523l-0.384-0.924l11.082-4.602l0.384,0.924L129.384,209.523z M151.549,200.319l-0.384-0.924l11.083-4.602
		l0.384,0.924L151.549,200.319z M173.715,191.116l-0.384-0.924l11.082-4.602l0.384,0.924L173.715,191.116z M195.88,181.913
		l-0.384-0.924l11.083-4.602l0.384,0.924L195.88,181.913z M218.045,172.71l-0.384-0.924l11.083-4.602l0.384,0.924L218.045,172.71z
		 M240.21,163.506l-0.384-0.924l11.083-4.602l0.384,0.924L240.21,163.506z M262.375,154.303l-0.384-0.924l11.083-4.602l0.384,0.924
		L262.375,154.303z M284.541,145.099l-0.384-0.924l11.082-4.602l0.384,0.924L284.541,145.099z M306.706,135.896l-0.383-0.924
		l11.082-4.602l0.383,0.924L306.706,135.896z M328.871,126.692l-0.383-0.924l11.082-4.602l0.383,0.924L328.871,126.692z
		 M351.036,117.489l-0.383-0.924l3.22-1.337l0.383,0.924L351.036,117.489z"/>
</g>
<g>
	<path d="M116.094,242.014l-0.384-0.924l11.082-4.602l0.384,0.924L116.094,242.014z M138.259,232.811l-0.384-0.924l11.083-4.602
		l0.384,0.924L138.259,232.811z M160.424,223.607l-0.384-0.924l11.083-4.602l0.384,0.924L160.424,223.607z M182.589,214.404
		l-0.384-0.924l11.083-4.602l0.384,0.924L182.589,214.404z M204.754,205.2l-0.384-0.924l11.083-4.602l0.384,0.924L204.754,205.2z
		 M226.92,195.997l-0.384-0.924l11.083-4.602l0.384,0.924L226.92,195.997z M249.085,186.794l-0.384-0.924l11.083-4.602l0.384,0.924
		L249.085,186.794z M271.25,177.59l-0.384-0.924l11.082-4.602l0.384,0.924L271.25,177.59z M293.415,168.387l-0.384-0.924
		l11.083-4.602l0.383,0.924L293.415,168.387z M315.58,159.183l-0.383-0.924l11.083-4.602l0.383,0.924L315.58,159.183z
		 M337.745,149.98l-0.383-0.924l11.083-4.602l0.383,0.924L337.745,149.98z M359.91,140.776l-0.383-0.924l11.083-4.602l0.383,0.924
		L359.91,140.776z M382.076,131.573l-0.383-0.924l4.511-1.873l0.383,0.924L382.076,131.573z"/>
</g>
<g>
	<path d="M109.733,271.626l-0.384-0.924l11.082-4.602l0.384,0.924L109.733,271.626z M131.898,262.423l-0.384-0.924l11.083-4.602
		l0.384,0.924L131.898,262.423z M154.063,253.219l-0.384-0.924l11.082-4.602l0.384,0.924L154.063,253.219z M176.229,244.016
		l-0.384-0.924l11.083-4.602l0.384,0.924L176.229,244.016z M198.394,234.812l-0.384-0.924l11.082-4.602l0.384,0.924L198.394,234.812
		z M220.559,225.609l-0.384-0.924l11.083-4.602l0.384,0.924L220.559,225.609z M242.725,216.406l-0.384-0.924l11.083-4.602
		l0.384,0.924L242.725,216.406z M264.89,207.203l-0.384-0.924l11.082-4.602l0.384,0.924L264.89,207.203z M287.055,197.999
		l-0.384-0.924l11.083-4.602l0.384,0.924L287.055,197.999z M309.22,188.796l-0.383-0.924l11.083-4.602l0.383,0.924L309.22,188.796z
		 M331.385,179.593l-0.383-0.924l11.083-4.602l0.383,0.924L331.385,179.593z M353.551,170.389l-0.383-0.924l11.082-4.602
		l0.383,0.924L353.551,170.389z M375.716,161.186l-0.383-0.924l11.082-4.602l0.383,0.924L375.716,161.186z M397.881,151.983
		l-0.383-0.924l11.083-4.602l0.383,0.924L397.881,151.983z"/>
</g>
<g>
	<path d="M107.854,299.379l-0.384-0.923l11.082-4.602l0.384,0.924L107.854,299.379z M130.019,290.176l-0.384-0.924l11.083-4.602
		l0.384,0.924L130.019,290.176z M152.185,280.973l-0.384-0.924l11.083-4.602l0.384,0.924L152.185,280.973z M174.35,271.769
		l-0.384-0.924l11.083-4.602l0.384,0.924L174.35,271.769z M196.515,262.566l-0.384-0.924l11.083-4.602l0.384,0.924L196.515,262.566z
		 M218.68,253.362l-0.384-0.924l11.082-4.602l0.384,0.924L218.68,253.362z M240.845,244.159l-0.384-0.924l11.083-4.602l0.384,0.924
		L240.845,244.159z M263.011,234.956l-0.384-0.924l11.082-4.601l0.384,0.924L263.011,234.956z M285.176,225.752l-0.384-0.924
		l11.082-4.602l0.384,0.924L285.176,225.752z M307.341,216.549l-0.383-0.924l11.082-4.602l0.383,0.924L307.341,216.549z
		 M329.506,207.346l-0.383-0.924l11.083-4.602l0.383,0.924L329.506,207.346z M351.671,198.142l-0.383-0.924l11.083-4.602
		l0.383,0.924L351.671,198.142z M373.836,188.939l-0.383-0.924l11.083-4.602l0.383,0.924L373.836,188.939z M396.002,179.735
		l-0.383-0.924l11.082-4.601l0.383,0.924L396.002,179.735z M418.167,170.532l-0.383-0.924l11.082-4.602l0.383,0.924L418.167,170.532
		z"/>
</g>
<g>
	<path d="M109.848,325.524l-0.384-0.924l11.082-4.602l0.384,0.924L109.848,325.524z M132.013,316.321l-0.384-0.924l11.083-4.602
		l0.384,0.924L132.013,316.321z M154.178,307.117l-0.384-0.924l11.083-4.602l0.384,0.924L154.178,307.117z M176.343,297.914
		l-0.384-0.924l11.083-4.602l0.384,0.924L176.343,297.914z M198.509,288.711l-0.384-0.924l11.082-4.602l0.384,0.924L198.509,288.711
		z M220.674,279.507l-0.384-0.924l11.083-4.602l0.384,0.924L220.674,279.507z M242.839,270.304l-0.384-0.924l11.083-4.602
		l0.384,0.924L242.839,270.304z M265.004,261.101l-0.384-0.924l11.082-4.602l0.384,0.924L265.004,261.101z M287.169,251.897
		l-0.384-0.924l11.083-4.602l0.384,0.924L287.169,251.897z M309.334,242.694l-0.383-0.924l11.083-4.602l0.383,0.924L309.334,242.694
		z M331.499,233.49l-0.383-0.924l11.083-4.602l0.383,0.924L331.499,233.49z M353.665,224.287l-0.383-0.924l11.082-4.602l0.383,0.924
		L353.665,224.287z M375.83,215.083l-0.383-0.924l11.082-4.602l0.383,0.924L375.83,215.083z M397.995,205.88l-0.383-0.924
		l11.083-4.602l0.383,0.924L397.995,205.88z M420.16,196.677l-0.383-0.924l11.083-4.602l0.383,0.924L420.16,196.677z
		 M442.325,187.474l-0.383-0.924l8.145-3.382l0.383,0.924L442.325,187.474z"/>
</g>
<g>
	<path d="M115.235,350.259l-0.384-0.924l11.082-4.602l0.384,0.924L115.235,350.259z M137.4,341.056l-0.384-0.924l11.083-4.602
		l0.384,0.924L137.4,341.056z M159.566,331.852l-0.384-0.924l11.083-4.602l0.384,0.924L159.566,331.852z M181.731,322.648
		l-0.384-0.924l11.083-4.602l0.384,0.924L181.731,322.648z M203.896,313.445l-0.384-0.924l11.083-4.602l0.384,0.924L203.896,313.445
		z M226.061,304.242l-0.384-0.924l11.083-4.602l0.384,0.924L226.061,304.242z M248.227,295.039l-0.384-0.924l11.083-4.601
		l0.384,0.924L248.227,295.039z M270.392,285.835l-0.384-0.924l11.082-4.602l0.384,0.924L270.392,285.835z M292.557,276.632
		l-0.384-0.924l11.084-4.602l0.383,0.924L292.557,276.632z M314.722,267.428l-0.383-0.924l11.083-4.602l0.383,0.924L314.722,267.428
		z M336.888,258.225l-0.383-0.924l11.082-4.602l0.383,0.924L336.888,258.225z M359.053,249.021l-0.383-0.924l11.082-4.602
		l0.383,0.924L359.053,249.021z M381.218,239.818l-0.383-0.924l11.083-4.602l0.383,0.924L381.218,239.818z M403.383,230.615
		L403,229.691l11.083-4.602l0.383,0.924L403.383,230.615z M425.548,221.412l-0.383-0.924l11.083-4.602l0.383,0.924L425.548,221.412z
		 M447.714,212.208l-0.383-0.924l11.082-4.602l0.383,0.924L447.714,212.208z"/>
</g>
<g>
	<path d="M123.725,373.708l-0.384-0.924l11.082-4.602l0.384,0.924L123.725,373.708z M145.89,364.505l-0.384-0.924l11.083-4.602
		l0.384,0.924L145.89,364.505z M168.055,355.301l-0.384-0.924l11.082-4.602l0.384,0.924L168.055,355.301z M190.22,346.098
		l-0.384-0.924l11.083-4.602l0.384,0.924L190.22,346.098z M212.385,336.895l-0.384-0.924l11.083-4.602l0.384,0.924L212.385,336.895z
		 M234.551,327.691l-0.384-0.924l11.082-4.603l0.384,0.924L234.551,327.691z M256.716,318.487l-0.384-0.924l11.083-4.602
		l0.384,0.924L256.716,318.487z M278.881,309.284l-0.384-0.924l11.082-4.602l0.384,0.924L278.881,309.284z M301.046,300.081
		l-0.383-0.924l11.083-4.602l0.383,0.924L301.046,300.081z M323.211,290.877l-0.383-0.924l11.083-4.602l0.383,0.924L323.211,290.877
		z M345.376,281.674l-0.383-0.924l11.083-4.602l0.383,0.924L345.376,281.674z M367.542,272.47l-0.383-0.924l11.082-4.602
		l0.383,0.924L367.542,272.47z M389.707,263.267l-0.383-0.924l11.082-4.602l0.383,0.924L389.707,263.267z M411.872,254.064
		l-0.383-0.924l11.083-4.602l0.383,0.924L411.872,254.064z M434.037,244.86l-0.383-0.924l11.083-4.602l0.383,0.924L434.037,244.86z
		 M456.202,235.657l-0.383-0.924l11.083-4.602l0.383,0.924L456.202,235.657z"/>
</g>
<g>
	<path d="M135.313,395.867l-0.384-0.924l11.082-4.602l0.384,0.924L135.313,395.867z M157.479,386.664l-0.384-0.924l11.083-4.602
		l0.384,0.924L157.479,386.664z M179.644,377.46l-0.384-0.924l11.082-4.602l0.384,0.924L179.644,377.46z M201.809,368.257
		l-0.384-0.924l11.083-4.602l0.384,0.924L201.809,368.257z M223.975,359.054l-0.384-0.924l11.083-4.602l0.384,0.924L223.975,359.054
		z M246.14,349.851l-0.384-0.924l11.082-4.603l0.384,0.924L246.14,349.851z M268.305,340.647l-0.384-0.924l11.083-4.602l0.384,0.924
		L268.305,340.647z M290.47,331.443l-0.384-0.924l11.082-4.602l0.383,0.924L290.47,331.443z M312.635,322.24l-0.383-0.924
		l11.083-4.602l0.383,0.924L312.635,322.24z M334.8,313.036l-0.383-0.924l11.083-4.602l0.383,0.924L334.8,313.036z M356.965,303.833
		l-0.383-0.924l11.083-4.602l0.383,0.924L356.965,303.833z M379.131,294.63l-0.383-0.924l11.082-4.602l0.383,0.924L379.131,294.63z
		 M401.296,285.426l-0.383-0.924l11.082-4.602l0.383,0.924L401.296,285.426z M423.461,276.223l-0.383-0.924l11.083-4.602
		l0.383,0.924L423.461,276.223z M445.626,267.02l-0.383-0.924l11.083-4.602l0.383,0.924L445.626,267.02z M467.791,257.816
		l-0.383-0.924l11.083-4.602l0.383,0.924L467.791,257.816z"/>
</g>
<g>
	<path d="M152.281,415.795l-0.384-0.924l11.082-4.602l0.384,0.924L152.281,415.795z M174.446,406.592l-0.384-0.924l11.083-4.602
		l0.384,0.924L174.446,406.592z M196.611,397.388l-0.384-0.924l11.083-4.602l0.384,0.924L196.611,397.388z M218.776,388.185
		l-0.384-0.924l11.083-4.602l0.384,0.924L218.776,388.185z M240.942,378.981l-0.384-0.924l11.083-4.602l0.384,0.924L240.942,378.981
		z M263.107,369.777l-0.384-0.924l11.083-4.601l0.384,0.924L263.107,369.777z M285.272,360.574l-0.384-0.924l11.083-4.602
		l0.384,0.924L285.272,360.574z M307.436,351.371l-0.383-0.924l11.083-4.602l0.383,0.924L307.436,351.371z M329.602,342.168
		l-0.383-0.924l11.083-4.603l0.383,0.924L329.602,342.168z M351.768,332.964l-0.383-0.924l11.082-4.602l0.383,0.924L351.768,332.964
		z M373.933,323.761l-0.383-0.924l11.083-4.602l0.383,0.924L373.933,323.761z M396.098,314.558l-0.383-0.924l11.083-4.602
		l0.383,0.924L396.098,314.558z M418.263,305.353l-0.383-0.924l11.083-4.602l0.383,0.924L418.263,305.353z M440.429,296.15
		l-0.383-0.924l11.082-4.602l0.383,0.924L440.429,296.15z M462.594,286.947l-0.383-0.924l11.082-4.602l0.383,0.924L462.594,286.947z
		 M484.759,277.744l-0.383-0.924l1.954-0.811l0.383,0.924L484.759,277.744z"/>
</g>
<g>
	<path d="M168.137,436.184l-0.384-0.924l11.082-4.602l0.384,0.924L168.137,436.184z M190.302,426.98l-0.384-0.924l11.083-4.603
		l0.384,0.924L190.302,426.98z M212.468,417.776l-0.384-0.924l11.082-4.602l0.384,0.924L212.468,417.776z M234.633,408.573
		l-0.384-0.924l11.083-4.602l0.384,0.924L234.633,408.573z M256.798,399.37l-0.384-0.924l11.083-4.602l0.384,0.924L256.798,399.37z
		 M278.963,390.166l-0.384-0.924l11.082-4.602l0.384,0.924L278.963,390.166z M301.128,380.963l-0.383-0.924l11.083-4.602
		l0.383,0.924L301.128,380.963z M323.293,371.76l-0.383-0.924l11.083-4.603l0.383,0.924L323.293,371.76z M345.458,362.556
		l-0.383-0.924l11.083-4.602l0.383,0.924L345.458,362.556z M367.623,353.353l-0.383-0.924l11.083-4.602l0.383,0.924L367.623,353.353
		z M389.789,344.149l-0.383-0.924l11.082-4.603l0.383,0.924L389.789,344.149z M411.954,334.945l-0.383-0.924l11.082-4.602
		l0.383,0.924L411.954,334.945z M434.119,325.742l-0.383-0.924l11.083-4.602l0.383,0.924L434.119,325.742z M456.284,316.539
		l-0.383-0.924l11.083-4.603l0.383,0.924L456.284,316.539z M478.449,307.335l-0.383-0.924l9.378-3.893l0.383,0.924L478.449,307.335z
		"/>
</g>
<g>
	<path d="M190.499,453.87l-0.384-0.924l11.083-4.602l0.384,0.924L190.499,453.87z M212.664,444.667l-0.384-0.924l11.083-4.602
		l0.384,0.924L212.664,444.667z M234.83,435.463l-0.384-0.924l11.082-4.602l0.384,0.924L234.83,435.463z M256.995,426.26
		l-0.384-0.924l11.083-4.602l0.384,0.924L256.995,426.26z M279.16,417.057l-0.384-0.924l11.083-4.602l0.384,0.924L279.16,417.057z
		 M301.324,407.853l-0.383-0.924l11.083-4.602l0.383,0.924L301.324,407.853z M323.49,398.649l-0.383-0.924l11.082-4.602l0.383,0.924
		L323.49,398.649z M345.655,389.446l-0.383-0.924l11.082-4.602l0.383,0.924L345.655,389.446z M367.82,380.242l-0.383-0.924
		l11.082-4.602l0.383,0.924L367.82,380.242z M389.985,371.039l-0.383-0.924l11.083-4.602l0.383,0.924L389.985,371.039z
		 M412.15,361.836l-0.383-0.924l11.083-4.602l0.383,0.924L412.15,361.836z M434.315,352.632l-0.383-0.924l11.083-4.602l0.383,0.924
		L434.315,352.632z M456.481,343.429l-0.383-0.924l11.082-4.602l0.383,0.924L456.481,343.429z M478.646,334.226l-0.383-0.924
		l5.86-2.434l0.383,0.924L478.646,334.226z"/>
</g>
<g>
	<path d="M217.752,469.527l-0.384-0.924l11.082-4.601l0.384,0.924L217.752,469.527z M239.917,460.324l-0.384-0.924l11.083-4.602
		l0.384,0.924L239.917,460.324z M262.083,451.12l-0.384-0.924l11.083-4.602l0.384,0.924L262.083,451.12z M284.248,441.917
		l-0.384-0.924l11.082-4.602l0.384,0.924L284.248,441.917z M306.413,432.713l-0.383-0.924l11.082-4.602l0.383,0.924L306.413,432.713
		z M328.578,423.51l-0.383-0.924l11.082-4.602l0.383,0.924L328.578,423.51z M350.743,414.307l-0.383-0.924l11.083-4.602l0.383,0.924
		L350.743,414.307z M372.908,405.103l-0.383-0.924l11.083-4.602l0.383,0.924L372.908,405.103z M395.073,395.899l-0.383-0.924
		l11.083-4.602l0.383,0.924L395.073,395.899z M417.238,386.696l-0.383-0.924l11.083-4.603l0.383,0.924L417.238,386.696z
		 M439.404,377.492l-0.383-0.924l11.082-4.602l0.383,0.924L439.404,377.492z M461.569,368.289l-0.383-0.924l11.082-4.602
		l0.383,0.924L461.569,368.289z"/>
</g>
<g>
	<path d="M253.151,481.801l-0.384-0.924l11.083-4.602l0.384,0.924L253.151,481.801z M275.316,472.598l-0.384-0.924l11.083-4.602
		l0.384,0.924L275.316,472.598z M297.482,463.394l-0.384-0.924l11.083-4.602l0.383,0.924L297.482,463.394z M319.646,454.19
		l-0.383-0.924l11.083-4.602l0.383,0.924L319.646,454.19z M341.811,444.987l-0.383-0.924l11.083-4.602l0.383,0.924L341.811,444.987z
		 M363.977,435.783l-0.383-0.924l11.083-4.602l0.383,0.924L363.977,435.783z M386.143,426.58l-0.383-0.924l11.082-4.602l0.383,0.924
		L386.143,426.58z M408.308,417.377l-0.383-0.924l11.082-4.602l0.383,0.924L408.308,417.377z M430.473,408.173l-0.383-0.924
		l11.083-4.602l0.383,0.924L430.473,408.173z M452.638,398.97l-0.383-0.924l7.524-3.124l0.383,0.924L452.638,398.97z"/>
</g>
<g>
	<path d="M305.301,487.118l-0.383-0.924l11.083-4.602l0.383,0.924L305.301,487.118z M327.466,477.915l-0.383-0.924l11.083-4.602
		l0.383,0.924L327.466,477.915z M349.632,468.712l-0.383-0.924l11.082-4.602l0.383,0.924L349.632,468.712z M371.797,459.509
		l-0.383-0.924l11.082-4.602l0.383,0.924L371.797,459.509z M393.962,450.306l-0.383-0.924l11.083-4.603l0.383,0.924L393.962,450.306
		z M416.127,441.102l-0.383-0.924l11.083-4.602l0.383,0.924L416.127,441.102z"/>
</g>
<g>
	<path fill="#FFFFFF" d="M297.636,488.059c-105.388,0-191.128-85.741-191.128-191.131c0-105.389,85.74-191.128,191.128-191.128
		c105.391,0,191.132,85.74,191.132,191.128C488.768,402.317,403.026,488.059,297.636,488.059z M297.636,106.799
		c-104.837,0-190.128,85.291-190.128,190.128c0,104.838,85.291,190.131,190.128,190.131c104.839,0,190.132-85.293,190.132-190.131
		C487.768,192.09,402.475,106.799,297.636,106.799z"/>
</g>
</svg>
