<?xml version="1.0" encoding="utf-8"?>
<!-- Generator: Adobe Illustrator 17.1.0, SVG Export Plug-In . SVG Version: 6.00 Build 0)  -->
<!DOCTYPE svg PUBLIC "-//W3C//DTD SVG 1.1//EN" "http://www.w3.org/Graphics/SVG/1.1/DTD/svg11.dtd">
<svg version="1.1" id="Ebene_1" xmlns="http://www.w3.org/2000/svg" xmlns:xlink="http://www.w3.org/1999/xlink" x="0px" y="0px"
	 viewBox="0 0 595.28 595.28" enable-background="new 0 0 595.28 595.28" xml:space="preserve">
<g>
	<rect x="213.246" y="397.532" width="7.995" height="59.963"/>
</g>
<g>
	<rect x="253.222" y="377.49" width="7.995" height="59.963"/>
</g>
<g>
	<rect x="253.222" y="457.495" width="7.995" height="23.982"/>
</g>
<g>
	<rect x="293.198" y="397.532" width="7.994" height="59.963"/>
</g>
<g>
	<rect x="333.173" y="457.495" width="7.995" height="24.7"/>
</g>
<g>
	<rect x="293.198" y="477.426" width="7.994" height="9.539"/>
</g>
<g>
	<rect x="332.673" y="377.625" width="7.996" height="59.963"/>
</g>
<g>
	<rect x="373.148" y="397.532" width="7.996" height="59.963"/>
</g>
<g>
	<rect x="373.148" y="317.525" width="7.996" height="59.963"/>
</g>
<g>
	<rect x="373.148" y="237.576" width="7.996" height="59.961"/>
</g>
<g>
	<rect x="373.148" y="157.759" width="7.996" height="59.963"/>
</g>
<g>
	<rect x="413.125" y="217.587" width="7.995" height="59.963"/>
</g>
<g>
	<rect x="413.125" y="151.736" width="7.995" height="45.999"/>
</g>
<g>
	<rect x="373.148" y="126.035" width="7.996" height="11.736"/>
</g>
<g>
	<rect x="413.125" y="297.538" width="7.995" height="59.962"/>
</g>
<g>
	<rect x="453.101" y="317.66" width="7.995" height="59.963"/>
</g>
<g>
	<rect x="453.101" y="237.576" width="7.995" height="59.961"/>
</g>
<g>
	<rect x="413.125" y="377.488" width="7.995" height="59.963"/>
</g>
<g>
	<rect x="333.173" y="297.538" width="7.995" height="59.962"/>
</g>
<g>
	<rect x="332.673" y="217.588" width="7.996" height="59.963"/>
</g>
<g>
	<rect x="332.673" y="137.773" width="7.996" height="59.963"/>
</g>
<g>
	<rect x="294.03" y="157.76" width="7.995" height="59.963"/>
</g>
<g>
	<rect x="293.198" y="107.056" width="7.994" height="30.25"/>
</g>
<g>
	<rect x="333.173" y="112.219" width="7.995" height="6.153"/>
</g>
<g>
	<rect x="253.222" y="111.939" width="7.995" height="6.435"/>
</g>
<g>
	<rect x="213.246" y="126.193" width="7.995" height="11.578"/>
</g>
<g>
	<rect x="453.101" y="198.882" width="7.995" height="18.839"/>
</g>
<g>
	<rect x="294.03" y="237.711" width="7.995" height="59.963"/>
</g>
<g>
	<rect x="294.03" y="317.662" width="7.995" height="59.963"/>
</g>
<g>
	<rect x="213.246" y="317.525" width="7.995" height="59.965"/>
</g>
<g>
	<rect x="253.222" y="297.538" width="7.995" height="59.962"/>
</g>
<g>
	<rect x="213.246" y="237.576" width="7.995" height="59.961"/>
</g>
<g>
	<rect x="253.222" y="217.588" width="7.995" height="59.963"/>
</g>
<g>
	<rect x="213.246" y="158.015" width="7.995" height="59.963"/>
</g>
<g>
	<rect x="173.271" y="153.387" width="7.995" height="44.348"/>
</g>
<g>
	<rect x="133.294" y="200.556" width="7.995" height="17.165"/>
</g>
<g>
	<rect x="173.271" y="217.588" width="7.995" height="59.963"/>
</g>
<g>
	<rect x="133.294" y="237.576" width="7.995" height="59.961"/>
</g>
<g>
	<rect x="133.294" y="317.66" width="7.995" height="59.963"/>
</g>
<g>
	<rect x="173.271" y="300.869" width="7.995" height="59.963"/>
</g>
<g>
	<rect x="173.271" y="377.625" width="7.995" height="59.963"/>
</g>
<g>
	<rect x="253.222" y="137.638" width="7.995" height="59.963"/>
</g>
<g>
	<path fill="#FFFFFF" d="M297.636,488.059c-105.388,0-191.128-85.741-191.128-191.131c0-105.389,85.74-191.128,191.128-191.128
		c105.391,0,191.132,85.74,191.132,191.128C488.768,402.317,403.026,488.059,297.636,488.059z M297.636,106.799
		c-104.837,0-190.128,85.291-190.128,190.128c0,104.838,85.291,190.131,190.128,190.131c104.839,0,190.132-85.293,190.132-190.131
		C487.768,192.09,402.475,106.799,297.636,106.799z"/>
</g>
</svg>
