<?xml version="1.0" encoding="utf-8"?>
<!-- Generator: Adobe Illustrator 17.1.0, SVG Export Plug-In . SVG Version: 6.00 Build 0)  -->
<!DOCTYPE svg PUBLIC "-//W3C//DTD SVG 1.1//EN" "http://www.w3.org/Graphics/SVG/1.1/DTD/svg11.dtd">
<svg version="1.1" id="Ebene_1" xmlns="http://www.w3.org/2000/svg" xmlns:xlink="http://www.w3.org/1999/xlink" x="0px" y="0px"
	 viewBox="0 0 841.89 595.28" enable-background="new 0 0 841.89 595.28" xml:space="preserve">
<g>
	<rect x="336.551" y="397.532" width="7.995" height="59.963"/>
</g>
<g>
	<rect x="376.527" y="377.49" width="7.995" height="59.963"/>
</g>
<g>
	<rect x="376.527" y="457.495" width="7.995" height="23.982"/>
</g>
<g>
	<rect x="416.503" y="397.532" width="7.994" height="59.963"/>
</g>
<g>
	<rect x="456.478" y="457.495" width="7.995" height="24.7"/>
</g>
<g>
	<rect x="416.503" y="477.426" width="7.994" height="9.539"/>
</g>
<g>
	<rect x="455.978" y="377.625" width="7.996" height="59.963"/>
</g>
<g>
	<rect x="496.453" y="397.532" width="7.996" height="59.963"/>
</g>
<g>
	<rect x="496.453" y="317.525" width="7.996" height="59.963"/>
</g>
<g>
	<rect x="496.453" y="237.576" width="7.996" height="59.961"/>
</g>
<g>
	<rect x="496.453" y="157.759" width="7.996" height="59.963"/>
</g>
<g>
	<rect x="536.43" y="217.587" width="7.995" height="59.963"/>
</g>
<g>
	<rect x="536.43" y="151.736" width="7.995" height="45.999"/>
</g>
<g>
	<rect x="496.453" y="126.035" width="7.996" height="11.736"/>
</g>
<g>
	<rect x="536.43" y="297.538" width="7.995" height="59.962"/>
</g>
<g>
	<rect x="576.406" y="317.66" width="7.995" height="59.963"/>
</g>
<g>
	<rect x="576.406" y="237.576" width="7.995" height="59.961"/>
</g>
<g>
	<rect x="536.43" y="377.488" width="7.995" height="59.963"/>
</g>
<g>
	<rect x="456.478" y="297.538" width="7.995" height="59.962"/>
</g>
<g>
	<rect x="455.978" y="217.588" width="7.996" height="59.963"/>
</g>
<g>
	<rect x="455.978" y="137.773" width="7.996" height="59.963"/>
</g>
<g>
	<rect x="417.335" y="157.76" width="7.995" height="59.963"/>
</g>
<g>
	<rect x="416.503" y="107.056" width="7.994" height="30.25"/>
</g>
<g>
	<rect x="456.478" y="112.219" width="7.995" height="6.153"/>
</g>
<g>
	<rect x="376.527" y="111.939" width="7.995" height="6.435"/>
</g>
<g>
	<rect x="336.551" y="126.193" width="7.995" height="11.578"/>
</g>
<g>
	<rect x="576.406" y="198.882" width="7.995" height="18.839"/>
</g>
<g>
	<rect x="417.335" y="237.711" width="7.995" height="59.963"/>
</g>
<g>
	<rect x="417.335" y="317.662" width="7.995" height="59.963"/>
</g>
<g>
	<rect x="336.551" y="317.525" width="7.995" height="59.965"/>
</g>
<g>
	<rect x="376.527" y="297.538" width="7.995" height="59.962"/>
</g>
<g>
	<rect x="336.551" y="237.576" width="7.995" height="59.961"/>
</g>
<g>
	<rect x="376.527" y="217.588" width="7.995" height="59.963"/>
</g>
<g>
	<rect x="336.551" y="158.015" width="7.995" height="59.963"/>
</g>
<g>
	<rect x="296.576" y="153.387" width="7.995" height="44.348"/>
</g>
<g>
	<rect x="256.599" y="200.556" width="7.995" height="17.165"/>
</g>
<g>
	<rect x="296.576" y="217.588" width="7.995" height="59.963"/>
</g>
<g>
	<rect x="256.599" y="237.576" width="7.995" height="59.961"/>
</g>
<g>
	<rect x="256.599" y="317.66" width="7.995" height="59.963"/>
</g>
<g>
	<rect x="296.576" y="300.869" width="7.995" height="59.963"/>
</g>
<g>
	<rect x="296.576" y="377.625" width="7.995" height="59.963"/>
</g>
<g>
	<rect x="376.527" y="137.638" width="7.995" height="59.963"/>
</g>
</svg>
