<?xml version="1.0" encoding="utf-8"?>
<!-- Generator: Adobe Illustrator 17.1.0, SVG Export Plug-In . SVG Version: 6.00 Build 0)  -->
<!DOCTYPE svg PUBLIC "-//W3C//DTD SVG 1.1//EN" "http://www.w3.org/Graphics/SVG/1.1/DTD/svg11.dtd">
<svg version="1.1" id="Ebene_1" xmlns="http://www.w3.org/2000/svg" xmlns:xlink="http://www.w3.org/1999/xlink" x="0px" y="0px"
	 viewBox="0 0 595.28 595.28" enable-background="new 0 0 595.28 595.28" xml:space="preserve">
<g>
	<rect x="161.872" y="188.062" width="65.874" height="1"/>
</g>
<g>
	<rect x="161.872" y="175.754" width="65.874" height="1"/>
</g>
<g>
	<rect x="161.872" y="171.198" width="65.874" height="1"/>
</g>
<g>
	<rect x="161.872" y="164.689" width="65.874" height="1"/>
</g>
<g>
	<rect x="176.879" y="149.749" width="50.867" height="1"/>
</g>
<g>
	<rect x="185.485" y="143.048" width="42.261" height="1"/>
</g>
<g>
	<rect x="197.767" y="134.752" width="29.979" height="1"/>
</g>
<g>
	<rect x="161.872" y="201.136" width="65.874" height="1"/>
</g>
<g>
	<rect x="161.872" y="205.692" width="65.874" height="1"/>
</g>
<g>
	<rect x="161.872" y="212.2" width="65.874" height="1"/>
</g>
<g>
	<rect x="161.872" y="228.471" width="65.874" height="1"/>
</g>
<g>
	<rect x="161.872" y="242.138" width="65.874" height="1"/>
</g>
<g>
	<rect x="161.872" y="248.441" width="65.874" height="1"/>
</g>
<g>
	<rect x="161.872" y="253.852" width="65.874" height="1"/>
</g>
<g>
	<rect x="161.872" y="270.123" width="65.874" height="1"/>
</g>
<g>
	<rect x="161.872" y="286.585" width="65.874" height="1"/>
</g>
<g>
	<rect x="161.872" y="303.314" width="65.874" height="1"/>
</g>
<g>
	<rect x="161.872" y="311.775" width="65.874" height="1"/>
</g>
<g>
	<rect x="161.872" y="315.029" width="65.874" height="1"/>
</g>
<g>
	<rect x="161.872" y="318.935" width="65.874" height="1"/>
</g>
<g>
	<rect x="161.872" y="322.839" width="65.874" height="1"/>
</g>
<g>
	<rect x="161.872" y="339.11" width="65.874" height="1"/>
</g>
<g>
	<rect x="161.872" y="348.872" width="65.874" height="1"/>
</g>
<g>
	<rect x="161.872" y="357.287" width="65.874" height="1"/>
</g>
<g>
	<rect x="125.535" y="215.846" width="36.337" height="1"/>
</g>
<g>
	<rect x="129.313" y="208.252" width="32.559" height="1"/>
</g>
<g>
	<rect x="136.861" y="194.627" width="25.011" height="1"/>
</g>
<g>
	<rect x="146.772" y="180.96" width="15.1" height="1"/>
</g>
<g>
	<rect x="120.533" y="228.92" width="41.339" height="1"/>
</g>
<g>
	<rect x="118.307" y="233.476" width="43.565" height="1"/>
</g>
<g>
	<rect x="116.609" y="239.984" width="45.263" height="1"/>
</g>
<g>
	<rect x="111.85" y="256.254" width="50.022" height="1"/>
</g>
<g>
	<rect x="109.403" y="269.922" width="52.469" height="1"/>
</g>
<g>
	<rect x="108.546" y="276.226" width="53.326" height="1"/>
</g>
<g>
	<rect x="108.112" y="281.636" width="53.76" height="1"/>
</g>
<g>
	<rect x="107.507" y="297.907" width="54.365" height="1"/>
</g>
<g>
	<rect x="108.294" y="314.369" width="53.578" height="1"/>
</g>
<g>
	<rect x="110.559" y="331.098" width="51.313" height="1"/>
</g>
<g>
	<rect x="112.288" y="339.56" width="49.584" height="1"/>
</g>
<g>
	<rect x="113.06" y="342.814" width="48.812" height="1"/>
</g>
<g>
	<rect x="114.068" y="346.719" width="47.804" height="1"/>
</g>
<g>
	<rect x="115.408" y="350.623" width="46.464" height="1"/>
</g>
<g>
	<rect x="120.742" y="366.895" width="41.13" height="1"/>
</g>
<g>
	<rect x="125.186" y="376.656" width="36.686" height="1"/>
</g>
<g>
	<rect x="129.038" y="385.071" width="32.834" height="1"/>
</g>
<g>
	<rect x="135.351" y="396.502" width="26.521" height="1"/>
</g>
<g>
	<rect x="142.758" y="406.541" width="19.114" height="1"/>
</g>
<g>
	<rect x="154.581" y="422.414" width="7.291" height="1"/>
</g>
<g>
	<rect x="161.872" y="372.044" width="65.874" height="1"/>
</g>
<g>
	<rect x="161.872" y="381.413" width="65.874" height="1"/>
</g>
<g>
	<rect x="161.872" y="386.137" width="65.874" height="1"/>
</g>
<g>
	<rect x="161.872" y="393.127" width="65.874" height="1"/>
</g>
<g>
	<rect x="161.872" y="396.502" width="65.874" height="1"/>
</g>
<g>
	<rect x="161.872" y="402.238" width="65.874" height="1"/>
</g>
<g>
	<rect x="161.872" y="416.558" width="65.874" height="1"/>
</g>
<g>
	<rect x="161.872" y="422.414" width="65.874" height="1"/>
</g>
<g>
	<rect x="161.872" y="428.924" width="65.874" height="1"/>
</g>
<g>
	<rect x="180.046" y="446.011" width="47.7" height="1"/>
</g>
<g>
	<rect x="211.484" y="466.671" width="16.262" height="1"/>
</g>
<g>
	<rect x="212.979" y="466.673" width="14.767" height="1"/>
</g>
<g>
	<rect x="227.746" y="140.551" width="65.874" height="1"/>
</g>
<g>
	<rect x="227.746" y="134.752" width="65.874" height="1"/>
</g>
<g>
	<rect x="227.746" y="123.688" width="65.874" height="1"/>
</g>
<g>
	<rect x="233.628" y="117.831" width="59.992" height="1"/>
</g>
<g>
	<rect x="245.236" y="113.926" width="48.384" height="1"/>
</g>
<g>
	<rect x="255.494" y="111.323" width="38.126" height="1"/>
</g>
<g>
	<rect x="227.746" y="153.625" width="65.874" height="1"/>
</g>
<g>
	<rect x="227.746" y="158.181" width="65.874" height="1"/>
</g>
<g>
	<rect x="227.746" y="164.689" width="65.874" height="1"/>
</g>
<g>
	<rect x="227.746" y="180.96" width="65.874" height="1"/>
</g>
<g>
	<rect x="227.746" y="194.627" width="65.874" height="1"/>
</g>
<g>
	<rect x="227.746" y="200.931" width="65.874" height="1"/>
</g>
<g>
	<rect x="227.746" y="206.341" width="65.874" height="1"/>
</g>
<g>
	<rect x="227.746" y="222.612" width="65.874" height="1"/>
</g>
<g>
	<rect x="227.746" y="239.075" width="65.874" height="1"/>
</g>
<g>
	<rect x="227.746" y="255.803" width="65.874" height="1"/>
</g>
<g>
	<rect x="227.746" y="264.264" width="65.874" height="1"/>
</g>
<g>
	<rect x="227.746" y="267.519" width="65.874" height="1"/>
</g>
<g>
	<rect x="227.746" y="271.424" width="65.874" height="1"/>
</g>
<g>
	<rect x="227.746" y="275.329" width="65.874" height="1"/>
</g>
<g>
	<rect x="227.746" y="291.599" width="65.874" height="1"/>
</g>
<g>
	<rect x="227.746" y="301.359" width="65.874" height="1"/>
</g>
<g>
	<rect x="227.746" y="309.774" width="65.874" height="1"/>
</g>
<g>
	<rect x="227.746" y="324.531" width="65.874" height="1"/>
</g>
<g>
	<rect x="227.746" y="333.9" width="65.874" height="1"/>
</g>
<g>
	<rect x="227.746" y="338.626" width="65.874" height="1"/>
</g>
<g>
	<rect x="227.746" y="345.616" width="65.874" height="1"/>
</g>
<g>
	<rect x="227.746" y="348.989" width="65.874" height="1"/>
</g>
<g>
	<rect x="227.746" y="354.728" width="65.874" height="1"/>
</g>
<g>
	<rect x="227.746" y="369.046" width="65.874" height="1"/>
</g>
<g>
	<rect x="227.746" y="374.903" width="65.874" height="1"/>
</g>
<g>
	<rect x="227.746" y="381.411" width="65.874" height="1"/>
</g>
<g>
	<rect x="227.746" y="394.175" width="65.874" height="1"/>
</g>
<g>
	<rect x="227.746" y="416.724" width="65.874" height="1"/>
</g>
<g>
	<rect x="227.746" y="422.414" width="65.874" height="1"/>
</g>
<g>
	<rect x="227.746" y="425.836" width="65.874" height="1"/>
</g>
<g>
	<rect x="227.746" y="436.798" width="65.874" height="1"/>
</g>
<g>
	<rect x="227.746" y="446.011" width="65.874" height="1"/>
</g>
<g>
	<rect x="227.746" y="466.671" width="65.874" height="1"/>
</g>
<g>
	<rect x="227.746" y="472.528" width="65.874" height="1"/>
</g>
<g>
	<rect x="253.064" y="480.988" width="40.556" height="1"/>
</g>
<g>
	<rect x="293.62" y="224.733" width="65.874" height="1"/>
</g>
<g>
	<rect x="293.62" y="208.252" width="65.874" height="1"/>
</g>
<g>
	<rect x="293.62" y="192.844" width="65.874" height="1"/>
</g>
<g>
	<rect x="293.62" y="188.062" width="65.874" height="1"/>
</g>
<g>
	<rect x="293.62" y="179.177" width="65.874" height="1"/>
</g>
<g>
	<rect x="293.62" y="171.198" width="65.874" height="1"/>
</g>
<g>
	<rect x="293.62" y="156.451" width="65.874" height="1"/>
</g>
<g>
	<rect x="293.62" y="151.842" width="65.874" height="1"/>
</g>
<g>
	<rect x="293.62" y="129.546" width="65.874" height="1"/>
</g>
<g>
	<rect x="293.62" y="123.688" width="65.874" height="1"/>
</g>
<g>
	<rect x="293.62" y="111.323" width="44.205" height="1"/>
</g>
<g>
	<rect x="293.62" y="229.289" width="65.874" height="1"/>
</g>
<g>
	<rect x="293.62" y="235.797" width="65.874" height="1"/>
</g>
<g>
	<rect x="293.62" y="252.068" width="65.874" height="1"/>
</g>
<g>
	<rect x="293.62" y="265.735" width="65.874" height="1"/>
</g>
<g>
	<rect x="293.62" y="272.039" width="65.874" height="1"/>
</g>
<g>
	<rect x="293.62" y="277.45" width="65.874" height="1"/>
</g>
<g>
	<rect x="293.62" y="293.72" width="65.874" height="1"/>
</g>
<g>
	<rect x="293.62" y="310.183" width="65.874" height="1"/>
</g>
<g>
	<rect x="293.62" y="326.91" width="65.874" height="1"/>
</g>
<g>
	<rect x="293.62" y="335.372" width="65.874" height="1"/>
</g>
<g>
	<rect x="293.62" y="338.626" width="65.874" height="1"/>
</g>
<g>
	<rect x="293.62" y="342.532" width="65.874" height="1"/>
</g>
<g>
	<rect x="293.62" y="346.435" width="65.874" height="1"/>
</g>
<g>
	<rect x="293.62" y="362.707" width="65.874" height="1"/>
</g>
<g>
	<rect x="293.62" y="372.467" width="65.874" height="1"/>
</g>
<g>
	<rect x="293.62" y="380.882" width="65.874" height="1"/>
</g>
<g>
	<rect x="293.62" y="395.639" width="65.874" height="1"/>
</g>
<g>
	<rect x="293.62" y="405.008" width="65.874" height="1"/>
</g>
<g>
	<rect x="293.62" y="409.734" width="65.874" height="1"/>
</g>
<g>
	<rect x="293.62" y="416.724" width="65.874" height="1"/>
</g>
<g>
	<rect x="293.62" y="420.097" width="65.874" height="1"/>
</g>
<g>
	<rect x="293.62" y="425.836" width="65.874" height="1"/>
</g>
<g>
	<rect x="293.62" y="440.153" width="65.874" height="1"/>
</g>
<g>
	<rect x="293.62" y="446.011" width="65.874" height="1"/>
</g>
<g>
	<rect x="293.62" y="452.519" width="65.874" height="1"/>
</g>
<g>
	<rect x="293.62" y="466.671" width="65.874" height="1"/>
</g>
<g>
	<rect x="293.62" y="477.287" width="62.021" height="1"/>
</g>
<g>
	<rect x="293.62" y="480.988" width="48.12" height="1"/>
</g>
<g>
	<rect x="359.494" y="151.842" width="61.894" height="1"/>
</g>
<g>
	<rect x="359.494" y="140.551" width="47.308" height="1"/>
</g>
<g>
	<rect x="359.494" y="134.752" width="38.514" height="1"/>
</g>
<g>
	<rect x="359.494" y="129.546" width="28.87" height="1"/>
</g>
<g>
	<rect x="359.494" y="156.398" width="65.874" height="1"/>
</g>
<g>
	<rect x="359.494" y="162.906" width="65.874" height="1"/>
</g>
<g>
	<rect x="359.494" y="179.177" width="65.874" height="1"/>
</g>
<g>
	<rect x="359.494" y="192.844" width="65.874" height="1"/>
</g>
<g>
	<rect x="359.494" y="199.148" width="65.874" height="1"/>
</g>
<g>
	<rect x="359.494" y="204.558" width="65.874" height="1"/>
</g>
<g>
	<rect x="359.494" y="220.829" width="65.874" height="1"/>
</g>
<g>
	<rect x="359.494" y="237.292" width="65.874" height="1"/>
</g>
<g>
	<rect x="359.494" y="254.02" width="65.874" height="1"/>
</g>
<g>
	<rect x="359.494" y="262.481" width="65.874" height="1"/>
</g>
<g>
	<rect x="359.494" y="265.736" width="65.874" height="1"/>
</g>
<g>
	<rect x="359.494" y="269.641" width="65.874" height="1"/>
</g>
<g>
	<rect x="359.494" y="273.545" width="65.874" height="1"/>
</g>
<g>
	<rect x="359.494" y="289.816" width="65.874" height="1"/>
</g>
<g>
	<rect x="359.494" y="299.575" width="65.874" height="1"/>
</g>
<g>
	<rect x="359.494" y="307.99" width="65.874" height="1"/>
</g>
<g>
	<rect x="359.494" y="322.747" width="65.874" height="1"/>
</g>
<g>
	<rect x="359.494" y="332.116" width="65.874" height="1"/>
</g>
<g>
	<rect x="359.494" y="336.842" width="65.874" height="1"/>
</g>
<g>
	<rect x="359.494" y="343.832" width="65.874" height="1"/>
</g>
<g>
	<rect x="359.494" y="347.205" width="65.874" height="1"/>
</g>
<g>
	<rect x="359.494" y="352.943" width="65.874" height="1"/>
</g>
<g>
	<rect x="359.494" y="367.262" width="65.874" height="1"/>
</g>
<g>
	<rect x="359.494" y="373.119" width="65.874" height="1"/>
</g>
<g>
	<rect x="359.494" y="379.627" width="65.874" height="1"/>
</g>
<g>
	<rect x="359.494" y="396.502" width="65.874" height="1"/>
</g>
<g>
	<rect x="359.494" y="413.954" width="65.874" height="1"/>
</g>
<g>
	<rect x="359.494" y="420.099" width="65.874" height="1"/>
</g>
<g>
	<rect x="359.494" y="425.836" width="65.874" height="1"/>
</g>
<g>
	<rect x="359.494" y="433.478" width="65.874" height="1"/>
</g>
<g>
	<rect x="359.494" y="440.155" width="61.203" height="1"/>
</g>
<g>
	<rect x="359.494" y="452.521" width="45.412" height="1"/>
</g>
<g>
	<rect x="359.494" y="460.455" width="33.669" height="1"/>
</g>
<g>
	<rect x="425.368" y="264.205" width="59.434" height="1"/>
</g>
<g>
	<rect x="425.368" y="242.138" width="54.171" height="1"/>
</g>
<g>
	<rect x="425.368" y="235.797" width="52.282" height="1"/>
</g>
<g>
	<rect x="425.368" y="224.733" width="48.232" height="1"/>
</g>
<g>
	<rect x="425.368" y="205.692" width="39.056" height="1"/>
</g>
<g>
	<rect x="425.368" y="201.136" width="36.732" height="1"/>
</g>
<g>
	<rect x="425.368" y="192.844" width="31.767" height="1"/>
</g>
<g>
	<rect x="425.368" y="180.96" width="22.859" height="1"/>
</g>
<g>
	<rect x="425.368" y="175.754" width="18.945" height="1"/>
</g>
<g>
	<rect x="425.368" y="164.689" width="8.957" height="1"/>
</g>
<g>
	<rect x="425.368" y="280.933" width="62.238" height="1"/>
</g>
<g>
	<rect x="425.368" y="289.393" width="62.19" height="1"/>
</g>
<g>
	<rect x="425.368" y="292.649" width="62.239" height="1"/>
</g>
<g>
	<rect x="425.368" y="296.553" width="62.239" height="1"/>
</g>
<g>
	<rect x="425.368" y="300.458" width="62.19" height="1"/>
</g>
<g>
	<rect x="425.368" y="316.728" width="61.19" height="1"/>
</g>
<g>
	<rect x="425.368" y="326.489" width="59.976" height="1"/>
</g>
<g>
	<rect x="425.368" y="334.904" width="58.086" height="1"/>
</g>
<g>
	<rect x="425.368" y="349.66" width="54.441" height="1"/>
</g>
<g>
	<rect x="425.368" y="359.03" width="51.742" height="1"/>
</g>
<g>
	<rect x="425.368" y="363.756" width="49.718" height="1"/>
</g>
<g>
	<rect x="425.368" y="370.746" width="47.154" height="1"/>
</g>
<g>
	<rect x="425.368" y="374.118" width="45.67" height="1"/>
</g>
<g>
	<rect x="425.368" y="379.857" width="42.7" height="1"/>
</g>
<g>
	<rect x="425.368" y="394.175" width="35.142" height="1"/>
</g>
<g>
	<rect x="425.368" y="400.033" width="31.093" height="1"/>
</g>
<g>
	<rect x="425.368" y="406.541" width="26.909" height="1"/>
</g>
<g>
	<rect x="425.368" y="422.414" width="14.194" height="1"/>
</g>
<g>
	<path fill="#FFFFFF" d="M297.635,488.059c-105.388,0-191.127-85.741-191.127-191.131c0-105.388,85.739-191.128,191.127-191.128
		c105.391,0,191.132,85.74,191.132,191.128C488.768,402.317,403.026,488.059,297.635,488.059z M297.635,106.799
		c-104.836,0-190.127,85.291-190.127,190.128c0,104.838,85.291,190.131,190.127,190.131c104.839,0,190.132-85.293,190.132-190.131
		C487.768,192.09,402.475,106.799,297.635,106.799z"/>
</g>
</svg>
