<?xml version="1.0" encoding="utf-8"?>
<!-- Generator: Adobe Illustrator 17.1.0, SVG Export Plug-In . SVG Version: 6.00 Build 0)  -->
<!DOCTYPE svg PUBLIC "-//W3C//DTD SVG 1.1//EN" "http://www.w3.org/Graphics/SVG/1.1/DTD/svg11.dtd">
<svg version="1.1" id="Ebene_1" xmlns="http://www.w3.org/2000/svg" xmlns:xlink="http://www.w3.org/1999/xlink" x="0px" y="0px"
	 viewBox="0 0 841.89 595.28" enable-background="new 0 0 841.89 595.28" xml:space="preserve">
<g>
	<path fill="none" stroke="#000000" stroke-width="2.5" stroke-miterlimit="10" stroke-dasharray="15" d="M311.083,142.46
		c28.293,0,28.293,14,56.586,14c28.292,0,28.292-14,56.584-14c28.296,0,28.296,14,56.592,14c28.296,0,28.296-14,56.592-14"/>
</g>
<g>
	<path fill="none" stroke="#000000" stroke-width="2.5" stroke-miterlimit="10" stroke-dasharray="15" d="M262.991,192.43
		c40.024,0,40.024,14,80.049,14c40.026,0,40.026-14,80.051-14c40.027,0,40.027,14,80.055,14s40.027-14,80.056-14"/>
</g>
<g>
	<path fill="none" stroke="#000000" stroke-width="2.5" stroke-miterlimit="10" stroke-dasharray="15" d="M239.262,242.4
		c45.404,0,45.404,14,90.808,14c45.405,0,45.405-14,90.811-14c45.408,0,45.408,14,90.815,14s45.407-14,90.814-14"/>
</g>
<g>
	<path fill="none" stroke="#000000" stroke-width="2.5" stroke-miterlimit="10" stroke-dasharray="15" d="M231.021,291.926
		c47.567,0,47.567,14,95.133,14c47.568,0,47.568-14,95.136-14c47.571,0,47.571,14,95.141,14s47.57-14,95.141-14"/>
</g>
<g>
	<path fill="none" stroke="#000000" stroke-width="2.5" stroke-miterlimit="10" stroke-dasharray="15" d="M237.608,342.339
		c46.127,0,46.127,14,92.255,14c46.129,0,46.129-14,92.258-14c46.131,0,46.131,14,92.262,14c46.131,0,46.131-14,92.263-14"/>
</g>
<g>
	<path fill="none" stroke="#000000" stroke-width="2.5" stroke-miterlimit="10" stroke-dasharray="15" d="M260.116,392.309
		c40.205,0,40.205,14,80.41,14c40.206,0,40.206-14,80.412-14c40.208,0,40.208,14,80.416,14s40.208-14,80.416-14"/>
</g>
<g>
	<path fill="none" stroke="#000000" stroke-width="2.5" stroke-miterlimit="10" stroke-dasharray="15" d="M306.348,442.279
		c28.646,0,28.646,14,57.293,14s28.647-14,57.295-14c28.649,0,28.649,14,57.297,14c28.649,0,28.649-14,57.298-14"/>
</g>
<g>
	<path fill="none" stroke="#000000" stroke-width="2.5" stroke-miterlimit="10" stroke-dasharray="15" d="M275.259,182.77
		c0,28.538-14,28.538-14,57.076c0,28.539,14,28.539,14,57.078c0,28.541-14,28.541-14,57.081c0,28.54,14,28.54,14,57.08"/>
</g>
<g>
	<path fill="none" stroke="#000000" stroke-width="2.5" stroke-miterlimit="10" stroke-dasharray="15" d="M325.229,136.309
		c0,40.153-14,40.153-14,80.307s14,40.154,14,80.309c0,40.156-14,40.156-14,80.312s14,40.156,14,80.312"/>
</g>
<g>
	<path fill="none" stroke="#000000" stroke-width="2.5" stroke-miterlimit="10" stroke-dasharray="15" d="M375.199,113.696
		c0,45.806-14,45.806-14,91.613c0,45.808,14,45.808,14,91.616c0,45.81-14,45.81-14,91.62s14,45.81,14,91.62"/>
</g>
<g>
	<path fill="none" stroke="#000000" stroke-width="2.5" stroke-miterlimit="10" stroke-dasharray="15" d="M424.943,107.128
		c0,47.548-14,47.548-14,95.097c0,47.55,14,47.55,14,95.1c0,47.552-14,47.552-14,95.104s14,47.552,14,95.104"/>
</g>
<g>
	<path fill="none" stroke="#000000" stroke-width="2.5" stroke-miterlimit="10" stroke-dasharray="15" d="M475.139,115.215
		c0,45.444-14,45.444-14,90.888c0,45.445,14,45.445,14,90.89c0,45.447-14,45.447-14,90.894s14,45.447,14,90.895"/>
</g>
<g>
	<path fill="none" stroke="#000000" stroke-width="2.5" stroke-miterlimit="10" stroke-dasharray="15" d="M525.109,138.777
		c0,39.569-14,39.569-14,79.137c0,39.57,14,39.57,14,79.14c0,39.571-14,39.571-14,79.143s14,39.571,14,79.144"/>
</g>
<g>
	<path fill="none" stroke="#000000" stroke-width="2.5" stroke-miterlimit="10" stroke-dasharray="15" d="M575.078,186.926
		c0,27.48-14,27.48-14,54.96c0,27.479,14,27.479,14,54.958c0,27.483-14,27.483-14,54.965c0,27.483,14,27.483,14,54.966"/>
</g>
</svg>
