<?xml version="1.0" encoding="utf-8"?>
<!-- Generator: Adobe Illustrator 17.1.0, SVG Export Plug-In . SVG Version: 6.00 Build 0)  -->
<!DOCTYPE svg PUBLIC "-//W3C//DTD SVG 1.1//EN" "http://www.w3.org/Graphics/SVG/1.1/DTD/svg11.dtd">
<svg version="1.1" id="Ebene_1" xmlns="http://www.w3.org/2000/svg" xmlns:xlink="http://www.w3.org/1999/xlink" x="0px" y="0px"
	 viewBox="0 0 595.28 595.28" enable-background="new 0 0 595.28 595.28" xml:space="preserve">
<g>
	<g>
		<circle cx="191.381" cy="253.413" r="5.071"/>
	</g>
	<g>
		<circle fill="#FFFFFF" cx="191.381" cy="253.118" r="1.25"/>
		<path d="M191.381,254.867c-0.964,0-1.749-0.784-1.749-1.749c0-0.964,0.785-1.749,1.749-1.749c0.965,0,1.75,0.785,1.75,1.749
			C193.131,254.083,192.346,254.867,191.381,254.867z M191.381,252.369c-0.413,0-0.749,0.336-0.749,0.749
			c0,0.413,0.336,0.749,0.749,0.749c0.413,0,0.75-0.336,0.75-0.749C192.131,252.705,191.794,252.369,191.381,252.369z"/>
	</g>
</g>
<g>
	<g>
		<circle cx="163.839" cy="222.132" r="5.071"/>
	</g>
	<g>
		<circle fill="#FFFFFF" cx="163.839" cy="222.132" r="1.25"/>
		<path d="M163.839,223.882c-0.964,0-1.749-0.785-1.749-1.75c0-0.964,0.785-1.749,1.749-1.749c0.965,0,1.75,0.785,1.75,1.749
			C165.589,223.097,164.804,223.882,163.839,223.882z M163.839,221.383c-0.413,0-0.749,0.336-0.749,0.749s0.336,0.75,0.749,0.75
			c0.413,0,0.75-0.336,0.75-0.75S164.252,221.383,163.839,221.383z"/>
	</g>
</g>
<g>
	<g>
		<circle cx="230.82" cy="280.83" r="5.071"/>
	</g>
	<g>
		<circle fill="#FFFFFF" cx="230.82" cy="280.535" r="1.249"/>
		<path d="M230.82,282.284c-0.964,0-1.749-0.785-1.749-1.749c0-0.964,0.785-1.749,1.749-1.749c0.964,0,1.749,0.785,1.749,1.749
			C232.569,281.499,231.785,282.284,230.82,282.284z M230.82,279.786c-0.413,0-0.749,0.336-0.749,0.749
			c0,0.413,0.336,0.749,0.749,0.749s0.749-0.336,0.749-0.749C231.569,280.122,231.233,279.786,230.82,279.786z"/>
	</g>
</g>
<g>
	<g>
		<circle cx="243.112" cy="239.899" r="5.071"/>
	</g>
	<g>
		<circle fill="#FFFFFF" cx="243.112" cy="239.899" r="0.955"/>
		<path d="M243.112,241.354c-0.802,0-1.455-0.652-1.455-1.455c0-0.802,0.653-1.454,1.455-1.454c0.802,0,1.454,0.652,1.454,1.454
			C244.566,240.701,243.914,241.354,243.112,241.354z M243.112,239.445c-0.251,0-0.455,0.204-0.455,0.454
			c0,0.251,0.204,0.455,0.455,0.455c0.251,0,0.454-0.204,0.454-0.455C243.566,239.648,243.363,239.445,243.112,239.445z"/>
	</g>
</g>
<g>
	<g>
		<circle cx="287.798" cy="174.674" r="5.071"/>
	</g>
	<g>
		<circle fill="#FFFFFF" cx="287.798" cy="174.674" r="0.954"/>
		<path d="M287.798,176.128c-0.802,0-1.454-0.652-1.454-1.455c0-0.802,0.652-1.455,1.454-1.455c0.802,0,1.454,0.652,1.454,1.455
			C289.252,175.476,288.6,176.128,287.798,176.128z M287.798,174.219c-0.25,0-0.454,0.204-0.454,0.455s0.204,0.455,0.454,0.455
			c0.25,0,0.454-0.204,0.454-0.455S288.048,174.219,287.798,174.219z"/>
	</g>
</g>
<g>
	<g>
		<circle cx="207.704" cy="367.107" r="5.071"/>
	</g>
	<g>
		<circle fill="#FFFFFF" cx="207.704" cy="367.107" r="1.249"/>
		<path d="M207.703,368.856c-0.964,0-1.749-0.784-1.749-1.749c0-0.965,0.785-1.749,1.749-1.749c0.965,0,1.75,0.784,1.75,1.749
			C209.453,368.072,208.668,368.856,207.703,368.856z M207.703,366.358c-0.413,0-0.749,0.336-0.749,0.749
			c0,0.413,0.336,0.749,0.749,0.749c0.414,0,0.75-0.336,0.75-0.749C208.453,366.694,208.117,366.358,207.703,366.358z"/>
	</g>
</g>
<g>
	<g>
		<circle cx="243.562" cy="419.353" r="5.071"/>
	</g>
	<g>
		<circle fill="#FFFFFF" cx="243.563" cy="419.353" r="1.249"/>
		<path d="M243.562,421.103c-0.964,0-1.749-0.784-1.749-1.749c0-0.965,0.785-1.749,1.749-1.749c0.965,0,1.75,0.784,1.75,1.749
			C245.312,420.318,244.527,421.103,243.562,421.103z M243.562,418.604c-0.413,0-0.749,0.336-0.749,0.749
			c0,0.413,0.336,0.749,0.749,0.749c0.414,0,0.75-0.336,0.75-0.749C244.312,418.94,243.976,418.604,243.562,418.604z"/>
	</g>
</g>
<g>
	<g>
		<circle cx="294.065" cy="412.373" r="5.071"/>
	</g>
	<g>
		<circle fill="#FFFFFF" cx="294.065" cy="412.373" r="1.249"/>
		<path d="M294.065,414.122c-0.964,0-1.749-0.784-1.749-1.749c0-0.965,0.785-1.749,1.749-1.749c0.964,0,1.749,0.784,1.749,1.749
			C295.814,413.338,295.03,414.122,294.065,414.122z M294.065,411.624c-0.413,0-0.749,0.336-0.749,0.749
			c0,0.413,0.336,0.749,0.749,0.749c0.413,0,0.749-0.336,0.749-0.749C294.814,411.96,294.478,411.624,294.065,411.624z"/>
	</g>
</g>
<g>
	<g>
		<circle cx="325.947" cy="336.085" r="5.071"/>
	</g>
	<g>
		<circle fill="#FFFFFF" cx="325.947" cy="336.085" r="1.249"/>
		<path d="M325.947,337.834c-0.965,0-1.75-0.784-1.75-1.749c0-0.965,0.785-1.749,1.75-1.749c0.965,0,1.749,0.784,1.749,1.749
			C327.696,337.05,326.912,337.834,325.947,337.834z M325.947,335.336c-0.413,0-0.75,0.336-0.75,0.749
			c0,0.413,0.337,0.749,0.75,0.749c0.413,0,0.749-0.336,0.749-0.749C326.696,335.672,326.36,335.336,325.947,335.336z"/>
	</g>
</g>
<g>
	<g>
		<circle cx="355.989" cy="250.001" r="5.071"/>
	</g>
	<g>
		<circle fill="#FFFFFF" cx="355.989" cy="250.001" r="0.954"/>
		<path d="M355.989,251.456c-0.802,0-1.454-0.652-1.454-1.455c0-0.802,0.652-1.455,1.454-1.455c0.802,0,1.454,0.652,1.454,1.455
			C357.443,250.804,356.791,251.456,355.989,251.456z M355.989,249.547c-0.25,0-0.454,0.204-0.454,0.455
			c0,0.251,0.204,0.455,0.454,0.455s0.454-0.204,0.454-0.455C356.443,249.751,356.239,249.547,355.989,249.547z"/>
	</g>
</g>
<g>
	<g>
		<circle cx="355.989" cy="170.757" r="5.071"/>
	</g>
	<g>
		<circle fill="#FFFFFF" cx="355.989" cy="170.757" r="1.249"/>
		<path d="M355.989,172.507c-0.965,0-1.749-0.785-1.749-1.75c0-0.964,0.784-1.749,1.749-1.749c0.965,0,1.749,0.785,1.749,1.749
			C357.738,171.722,356.954,172.507,355.989,172.507z M355.989,170.008c-0.413,0-0.749,0.336-0.749,0.749s0.336,0.75,0.749,0.75
			c0.413,0,0.749-0.336,0.749-0.75S356.402,170.008,355.989,170.008z"/>
	</g>
</g>
<g>
	<g>
		<circle cx="393.498" cy="181.039" r="5.071"/>
	</g>
	<g>
		<circle fill="#FFFFFF" cx="393.498" cy="181.039" r="1.249"/>
		<path d="M393.498,182.788c-0.965,0-1.749-0.785-1.749-1.749c0-0.965,0.784-1.749,1.749-1.749c0.965,0,1.749,0.785,1.749,1.749
			C395.247,182.003,394.463,182.788,393.498,182.788z M393.498,180.29c-0.413,0-0.749,0.336-0.749,0.749
			c0,0.413,0.336,0.749,0.749,0.749c0.413,0,0.749-0.336,0.749-0.749C394.247,180.626,393.911,180.29,393.498,180.29z"/>
	</g>
</g>
<g>
	<g>
		<circle cx="412.98" cy="223.382" r="5.071"/>
	</g>
	<g>
		<circle fill="#FFFFFF" cx="412.98" cy="223.382" r="1.249"/>
		<path d="M412.98,225.131c-0.965,0-1.749-0.785-1.749-1.749c0-0.965,0.784-1.75,1.749-1.75c0.965,0,1.749,0.785,1.749,1.75
			C414.729,224.346,413.945,225.131,412.98,225.131z M412.98,222.632c-0.413,0-0.749,0.337-0.749,0.75
			c0,0.413,0.336,0.749,0.749,0.749c0.413,0,0.749-0.336,0.749-0.749C413.729,222.969,413.394,222.632,412.98,222.632z"/>
	</g>
</g>
<g>
	<g>
		<circle cx="426.576" cy="308.508" r="5.071"/>
	</g>
	<g>
		<circle fill="#FFFFFF" cx="426.576" cy="308.213" r="1.249"/>
		<path d="M426.576,309.962c-0.965,0-1.75-0.784-1.75-1.749c0-0.965,0.785-1.749,1.75-1.749c0.965,0,1.749,0.784,1.749,1.749
			C428.325,309.178,427.541,309.962,426.576,309.962z M426.576,307.464c-0.413,0-0.75,0.336-0.75,0.749
			c0,0.413,0.337,0.749,0.75,0.749c0.413,0,0.749-0.336,0.749-0.749C427.325,307.8,426.989,307.464,426.576,307.464z"/>
	</g>
</g>
<g>
	<g>
		<circle cx="414.229" cy="384.798" r="5.071"/>
	</g>
	<g>
		<circle fill="#FFFFFF" cx="414.229" cy="384.503" r="1.249"/>
		<path d="M414.229,386.253c-0.965,0-1.749-0.785-1.749-1.75c0-0.965,0.784-1.749,1.749-1.749c0.965,0,1.749,0.784,1.749,1.749
			C415.978,385.468,415.194,386.253,414.229,386.253z M414.229,383.754c-0.413,0-0.749,0.336-0.749,0.749s0.336,0.75,0.749,0.75
			c0.413,0,0.749-0.337,0.749-0.75S414.643,383.754,414.229,383.754z"/>
	</g>
</g>
<g>
	<g>
		<circle cx="418.145" cy="350.478" r="5.071"/>
	</g>
	<g>
		<circle fill="#FFFFFF" cx="418.145" cy="350.184" r="1.249"/>
		<path d="M418.145,351.934c-0.965,0-1.75-0.785-1.75-1.75c0-0.965,0.785-1.749,1.75-1.749c0.965,0,1.749,0.784,1.749,1.749
			C419.895,351.148,419.11,351.934,418.145,351.934z M418.145,349.435c-0.413,0-0.75,0.336-0.75,0.749c0,0.413,0.337,0.75,0.75,0.75
			c0.413,0,0.749-0.337,0.749-0.75C418.895,349.771,418.559,349.435,418.145,349.435z"/>
	</g>
</g>
<g>
	<g>
		<circle cx="280.135" cy="331.014" r="5.071"/>
	</g>
	<g>
		<circle fill="#FFFFFF" cx="280.135" cy="330.719" r="1.249"/>
		<path d="M280.135,332.469c-0.964,0-1.749-0.785-1.749-1.75c0-0.965,0.785-1.749,1.749-1.749c0.964,0,1.749,0.784,1.749,1.749
			C281.884,331.684,281.099,332.469,280.135,332.469z M280.135,329.97c-0.413,0-0.749,0.336-0.749,0.749
			c0,0.413,0.336,0.75,0.749,0.75c0.413,0,0.749-0.337,0.749-0.75C280.884,330.306,280.548,329.97,280.135,329.97z"/>
	</g>
</g>
<g>
	<g>
		<circle cx="463.097" cy="365.858" r="5.071"/>
	</g>
	<g>
		<circle fill="#FFFFFF" cx="463.097" cy="365.564" r="1.249"/>
		<path d="M463.097,367.312c-0.965,0-1.749-0.784-1.749-1.749c0-0.965,0.784-1.749,1.749-1.749c0.965,0,1.749,0.784,1.749,1.749
			C464.846,366.528,464.061,367.312,463.097,367.312z M463.097,364.815c-0.413,0-0.749,0.336-0.749,0.749
			c0,0.413,0.336,0.749,0.749,0.749c0.413,0,0.749-0.336,0.749-0.749C463.846,365.15,463.51,364.815,463.097,364.815z"/>
	</g>
</g>
<g>
	<g>
		<circle cx="242.563" cy="358.378" r="2.916"/>
	</g>
	<g>
		<circle fill="#FFFFFF" cx="242.563" cy="358.259" r="0.999"/>
		<path d="M242.563,359.757c-0.827,0-1.499-0.672-1.499-1.498c0-0.827,0.672-1.501,1.499-1.501c0.827,0,1.499,0.674,1.499,1.501
			C244.062,359.085,243.39,359.757,242.563,359.757z M242.563,357.758c-0.275,0-0.499,0.225-0.499,0.501
			c0,0.274,0.224,0.498,0.499,0.498c0.275,0,0.499-0.224,0.499-0.498C243.062,357.982,242.839,357.758,242.563,357.758z"/>
	</g>
</g>
<g>
	<g>
		<circle cx="260.237" cy="388.716" r="2.916"/>
	</g>
	<g>
		<circle fill="#FFFFFF" cx="260.236" cy="388.716" r="0.999"/>
		<path d="M260.236,390.215c-0.827,0-1.499-0.673-1.499-1.499c0-0.827,0.672-1.5,1.499-1.5c0.827,0,1.499,0.673,1.499,1.5
			C261.735,389.542,261.063,390.215,260.236,390.215z M260.236,388.216c-0.275,0-0.499,0.225-0.499,0.5
			c0,0.275,0.224,0.499,0.499,0.499s0.499-0.224,0.499-0.499C260.735,388.44,260.512,388.216,260.236,388.216z"/>
	</g>
</g>
<g>
	<g>
		<circle cx="297.235" cy="208.004" r="2.916"/>
	</g>
	<g>
		<circle fill="#FFFFFF" cx="297.236" cy="208.005" r="1"/>
		<path d="M297.235,209.503c-0.827,0-1.499-0.672-1.499-1.498c0-0.827,0.672-1.501,1.499-1.501c0.827,0,1.5,0.673,1.5,1.501
			C298.735,208.831,298.062,209.503,297.235,209.503z M297.235,207.504c-0.275,0-0.499,0.225-0.499,0.501
			c0,0.274,0.224,0.498,0.499,0.498c0.276,0,0.5-0.224,0.5-0.498C297.735,207.729,297.511,207.504,297.235,207.504z"/>
	</g>
</g>
<g>
	<g>
		<circle cx="384.439" cy="258.485" r="2.916"/>
	</g>
	<g>
		<circle fill="#FFFFFF" cx="384.439" cy="258.486" r="0.999"/>
		<path d="M384.438,259.984c-0.826,0-1.499-0.672-1.499-1.498c0-0.828,0.673-1.501,1.499-1.501c0.827,0,1.5,0.673,1.5,1.501
			C385.938,259.312,385.266,259.984,384.438,259.984z M384.438,257.985c-0.275,0-0.499,0.225-0.499,0.501
			c0,0.275,0.224,0.498,0.499,0.498c0.275,0,0.5-0.224,0.5-0.498C384.938,258.21,384.714,257.985,384.438,257.985z"/>
	</g>
</g>
<g>
	<g>
		<circle cx="347.98" cy="217.062" r="2.916"/>
	</g>
	<g>
		<circle fill="#FFFFFF" cx="347.98" cy="217.062" r="0.999"/>
		<path d="M347.98,218.56c-0.826,0-1.499-0.672-1.499-1.498c0-0.827,0.673-1.501,1.499-1.501c0.826,0,1.499,0.673,1.499,1.501
			C349.479,217.888,348.807,218.56,347.98,218.56z M347.98,216.561c-0.275,0-0.499,0.225-0.499,0.501
			c0,0.274,0.224,0.498,0.499,0.498c0.275,0,0.499-0.224,0.499-0.498C348.479,216.786,348.256,216.561,347.98,216.561z"/>
	</g>
</g>
<g>
	<g>
		<circle cx="275.969" cy="441.934" r="2.916"/>
	</g>
	<g>
		<circle fill="#FFFFFF" cx="275.969" cy="441.934" r="1"/>
		<path d="M275.969,443.433c-0.827,0-1.499-0.673-1.499-1.499s0.672-1.499,1.499-1.499c0.827,0,1.5,0.673,1.5,1.499
			S276.796,443.433,275.969,443.433z M275.969,441.435c-0.275,0-0.499,0.224-0.499,0.499c0,0.275,0.224,0.499,0.499,0.499
			c0.276,0,0.5-0.224,0.5-0.499C276.469,441.658,276.245,441.435,275.969,441.435z"/>
	</g>
</g>
<g>
	<g>
		<circle cx="159.924" cy="418.354" r="2.916"/>
	</g>
	<g>
		<circle fill="#FFFFFF" cx="159.923" cy="418.356" r="1"/>
		<path d="M159.924,419.853c-0.827,0-1.5-0.672-1.5-1.497c0-0.828,0.673-1.502,1.5-1.502c0.827,0,1.499,0.674,1.499,1.502
			C161.423,419.182,160.751,419.853,159.924,419.853z M159.924,417.854c-0.276,0-0.5,0.226-0.5,0.502c0,0.274,0.224,0.497,0.5,0.497
			c0.275,0,0.499-0.223,0.499-0.497C160.423,418.08,160.199,417.854,159.924,417.854z"/>
	</g>
</g>
<g>
	<g>
		<circle cx="376.295" cy="203.01" r="2.916"/>
	</g>
	<g>
		<circle fill="#FFFFFF" cx="376.295" cy="203.01" r="0.999"/>
		<path d="M376.294,204.508c-0.826,0-1.498-0.672-1.498-1.499c0-0.827,0.672-1.501,1.498-1.501c0.827,0,1.501,0.673,1.501,1.501
			C377.795,203.836,377.121,204.508,376.294,204.508z M376.294,202.509c-0.274,0-0.498,0.225-0.498,0.501
			c0,0.275,0.224,0.499,0.498,0.499c0.276,0,0.501-0.224,0.501-0.499C376.795,202.734,376.57,202.509,376.294,202.509z"/>
	</g>
</g>
<g>
	<g>
		<circle cx="414.229" cy="275.758" r="2.916"/>
	</g>
	<g>
		<circle fill="#FFFFFF" cx="414.23" cy="275.858" r="0.999"/>
		<path d="M414.229,277.357c-0.826,0-1.499-0.672-1.499-1.499c0-0.827,0.673-1.5,1.499-1.5c0.827,0,1.5,0.673,1.5,1.5
			C415.729,276.685,415.057,277.357,414.229,277.357z M414.229,275.358c-0.275,0-0.499,0.224-0.499,0.5
			c0,0.275,0.224,0.499,0.499,0.499s0.5-0.224,0.5-0.499C414.729,275.582,414.505,275.358,414.229,275.358z"/>
	</g>
</g>
<g>
	<g>
		<circle cx="372.38" cy="286.139" r="2.916"/>
	</g>
	<g>
		<circle fill="#FFFFFF" cx="372.38" cy="286.14" r="0.999"/>
		<path d="M372.38,287.638c-0.826,0-1.499-0.672-1.499-1.498c0-0.828,0.673-1.501,1.499-1.501s1.499,0.673,1.499,1.501
			C373.879,286.966,373.206,287.638,372.38,287.638z M372.38,285.639c-0.275,0-0.499,0.225-0.499,0.501
			c0,0.275,0.224,0.498,0.499,0.498c0.275,0,0.499-0.224,0.499-0.498C372.879,285.864,372.655,285.639,372.38,285.639z"/>
	</g>
</g>
<g>
	<g>
		<circle cx="346.981" cy="369.108" r="2.916"/>
	</g>
	<g>
		<circle fill="#FFFFFF" cx="346.981" cy="369.19" r="1"/>
		<path d="M346.981,370.69c-0.827,0-1.5-0.673-1.5-1.499c0-0.827,0.673-1.5,1.5-1.5c0.826,0,1.499,0.673,1.499,1.5
			C348.48,370.017,347.808,370.69,346.981,370.69z M346.981,368.69c-0.275,0-0.5,0.225-0.5,0.5s0.225,0.499,0.5,0.499
			c0.275,0,0.499-0.224,0.499-0.499S347.257,368.69,346.981,368.69z"/>
	</g>
</g>
<g>
	<g>
		<circle cx="450.333" cy="339.118" r="2.916"/>
	</g>
	<g>
		<circle fill="#FFFFFF" cx="450.332" cy="339.12" r="0.999"/>
		<path d="M450.333,340.618c-0.827,0-1.5-0.672-1.5-1.498c0-0.827,0.673-1.501,1.5-1.501c0.826,0,1.499,0.674,1.499,1.501
			C451.832,339.946,451.159,340.618,450.333,340.618z M450.333,338.619c-0.275,0-0.5,0.225-0.5,0.501c0,0.274,0.225,0.498,0.5,0.498
			c0.275,0,0.499-0.224,0.499-0.498C450.832,338.844,450.608,338.619,450.333,338.619z"/>
	</g>
</g>
<g>
	<g>
		<circle cx="474.115" cy="322.264" r="2.916"/>
	</g>
	<g>
		<circle fill="#FFFFFF" cx="474.116" cy="322.266" r="0.999"/>
		<path d="M474.115,323.763c-0.826,0-1.499-0.672-1.499-1.497c0-0.828,0.673-1.502,1.499-1.502c0.827,0,1.5,0.674,1.5,1.502
			C475.615,323.091,474.942,323.763,474.115,323.763z M474.115,321.764c-0.275,0-0.499,0.226-0.499,0.502
			c0,0.274,0.224,0.497,0.499,0.497c0.275,0,0.5-0.223,0.5-0.497C474.615,321.989,474.391,321.764,474.115,321.764z"/>
	</g>
</g>
<g>
	<g>
		<circle cx="417.146" cy="431.406" r="2.916"/>
	</g>
	<g>
		<circle fill="#FFFFFF" cx="417.146" cy="431.406" r="0.999"/>
		<path d="M417.144,432.906c-0.825,0-1.497-0.673-1.497-1.5c0-0.826,0.672-1.499,1.497-1.499c0.828,0,1.502,0.673,1.502,1.499
			C418.645,432.233,417.972,432.906,417.144,432.906z M417.144,430.907c-0.275,0-0.497,0.224-0.497,0.499
			c0,0.275,0.223,0.5,0.497,0.5c0.276,0,0.502-0.225,0.502-0.5C417.645,431.131,417.42,430.907,417.144,430.907z"/>
	</g>
</g>
<g>
	<g>
		<circle cx="311.172" cy="440.935" r="2.916"/>
	</g>
	<g>
		<circle fill="#FFFFFF" cx="311.172" cy="440.936" r="0.999"/>
		<path d="M311.171,442.434c-0.826,0-1.498-0.672-1.498-1.497c0-0.828,0.672-1.502,1.498-1.502c0.827,0,1.501,0.674,1.501,1.502
			C312.672,441.762,311.998,442.434,311.171,442.434z M311.171,440.435c-0.274,0-0.498,0.226-0.498,0.502
			c0,0.274,0.224,0.497,0.498,0.497c0.276,0,0.501-0.223,0.501-0.497C311.672,440.66,311.447,440.435,311.171,440.435z"/>
	</g>
</g>
<g>
	<g>
		<circle cx="349.897" cy="431.406" r="2.916"/>
	</g>
	<g>
		<circle fill="#FFFFFF" cx="349.897" cy="431.408" r="0.999"/>
		<path d="M349.897,432.906c-0.827,0-1.5-0.672-1.5-1.498c0-0.828,0.673-1.501,1.5-1.501c0.826,0,1.499,0.673,1.499,1.501
			C351.396,432.234,350.724,432.906,349.897,432.906z M349.897,430.907c-0.275,0-0.5,0.225-0.5,0.501c0,0.274,0.225,0.498,0.5,0.498
			s0.499-0.224,0.499-0.498C350.396,431.132,350.173,430.907,349.897,430.907z"/>
	</g>
</g>
<g>
	<g>
		<circle cx="211.754" cy="327.945" r="2.916"/>
	</g>
	<g>
		<path fill="#FFFFFF" d="M212.753,327.945c0,0.551-0.446,1-1.001,1c-0.551,0-0.997-0.449-0.997-1c0-0.553,0.446-0.999,0.997-0.999
			C212.307,326.946,212.753,327.393,212.753,327.945z"/>
		<path d="M211.752,329.445c-0.826,0-1.497-0.673-1.497-1.5c0-0.826,0.671-1.499,1.497-1.499c0.828,0,1.501,0.673,1.501,1.499
			C213.253,328.772,212.58,329.445,211.752,329.445z M211.752,327.446c-0.274,0-0.497,0.224-0.497,0.499
			c0,0.275,0.223,0.5,0.497,0.5c0.276,0,0.501-0.225,0.501-0.5C212.253,327.67,212.028,327.446,211.752,327.446z"/>
	</g>
</g>
<g>
	<g>
		<circle cx="192.63" cy="300.116" r="2.916"/>
	</g>
	<g>
		<circle fill="#FFFFFF" cx="192.63" cy="300.116" r="0.999"/>
		<path d="M192.631,301.616c-0.827,0-1.5-0.673-1.5-1.5c0-0.826,0.673-1.499,1.5-1.499c0.827,0,1.499,0.673,1.499,1.499
			C194.13,300.943,193.457,301.616,192.631,301.616z M192.631,299.617c-0.276,0-0.5,0.224-0.5,0.499c0,0.275,0.224,0.5,0.5,0.5
			c0.275,0,0.499-0.225,0.499-0.5C193.13,299.841,192.906,299.617,192.631,299.617z"/>
	</g>
</g>
<g>
	<g>
		<circle cx="119.421" cy="253.189" r="2.916"/>
	</g>
	<g>
		<circle fill="#FFFFFF" cx="119.42" cy="253.189" r="0.999"/>
		<path d="M119.419,254.687c-0.826,0-1.498-0.672-1.498-1.498c0-0.827,0.672-1.501,1.498-1.501c0.828,0,1.501,0.673,1.501,1.501
			C120.92,254.015,120.247,254.687,119.419,254.687z M119.419,252.688c-0.274,0-0.498,0.225-0.498,0.501
			c0,0.275,0.224,0.498,0.498,0.498c0.276,0,0.501-0.224,0.501-0.498C119.92,252.913,119.695,252.688,119.419,252.688z"/>
	</g>
</g>
<g>
	<g>
		<circle cx="128.966" cy="358.378" r="2.916"/>
	</g>
	<g>
		<path fill="#FFFFFF" d="M129.965,358.378c0,0.551-0.446,1-1.001,1c-0.551,0-0.997-0.449-0.997-1c0-0.552,0.446-0.999,0.997-0.999
			C129.519,357.379,129.965,357.826,129.965,358.378z"/>
		<path d="M128.964,359.878c-0.826,0-1.497-0.673-1.497-1.5c0-0.826,0.671-1.499,1.497-1.499c0.828,0,1.501,0.673,1.501,1.499
			C130.465,359.205,129.792,359.878,128.964,359.878z M128.964,357.879c-0.274,0-0.497,0.224-0.497,0.499s0.223,0.5,0.497,0.5
			c0.276,0,0.501-0.225,0.501-0.5S129.24,357.879,128.964,357.879z"/>
	</g>
</g>
<g>
	<g>
		<circle cx="304.341" cy="480.136" r="2.916"/>
	</g>
	<g>
		<circle fill="#FFFFFF" cx="304.34" cy="480.136" r="0.999"/>
		<path d="M304.339,481.635c-0.826,0-1.498-0.673-1.498-1.499c0-0.827,0.672-1.5,1.498-1.5c0.827,0,1.501,0.673,1.501,1.5
			C305.84,480.962,305.166,481.635,304.339,481.635z M304.339,479.636c-0.274,0-0.498,0.225-0.498,0.5
			c0,0.275,0.224,0.499,0.498,0.499c0.276,0,0.501-0.224,0.501-0.499C304.84,479.86,304.615,479.636,304.339,479.636z"/>
	</g>
</g>
<g>
	<g>
		<circle cx="264.152" cy="215.028" r="2.916"/>
	</g>
	<g>
		<circle fill="#FFFFFF" cx="264.152" cy="215.027" r="1"/>
		<path d="M264.151,216.527h-0.019c-0.825-0.011-1.489-0.692-1.48-1.518c0.012-0.817,0.685-1.481,1.5-1.481
			c0.42,0.005,0.795,0.167,1.074,0.453c0.28,0.287,0.431,0.665,0.425,1.065C265.641,215.862,264.968,216.527,264.151,216.527z
			 M264.158,214.528c-0.278,0-0.502,0.221-0.506,0.494c-0.003,0.274,0.218,0.502,0.493,0.505l0.006,0.5v-0.5
			c0.272,0,0.496-0.222,0.5-0.494c0.002-0.133-0.048-0.258-0.141-0.354C264.417,214.583,264.292,214.53,264.158,214.528
			L264.158,214.528z"/>
	</g>
</g>
<g>
	<g>
		<circle cx="245.479" cy="171.757" r="2.916"/>
	</g>
	<g>
		<circle fill="#FFFFFF" cx="245.48" cy="171.758" r="0.999"/>
		<path d="M245.477,173.256c-0.826,0-1.497-0.672-1.497-1.499c0-0.827,0.671-1.501,1.497-1.501c0.828,0,1.502,0.673,1.502,1.501
			C246.979,172.584,246.306,173.256,245.477,173.256z M245.477,171.257c-0.274,0-0.497,0.225-0.497,0.501
			c0,0.275,0.223,0.499,0.497,0.499c0.277,0,0.502-0.224,0.502-0.499C245.979,171.482,245.754,171.257,245.477,171.257z"/>
	</g>
</g>
<g>
	<g>
		<circle cx="233.737" cy="128.451" r="2.916"/>
	</g>
	<g>
		<path fill="#FFFFFF" d="M234.736,128.451c0,0.551-0.447,0.998-1.002,0.998c-0.549,0-0.997-0.447-0.997-0.998
			c0-0.553,0.448-1.001,0.997-1.001C234.289,127.451,234.736,127.898,234.736,128.451z"/>
		<path d="M233.734,129.949c-0.826,0-1.497-0.672-1.497-1.498c0-0.827,0.671-1.501,1.497-1.501c0.828,0,1.502,0.673,1.502,1.501
			C235.236,129.277,234.562,129.949,233.734,129.949z M233.734,127.951c-0.274,0-0.497,0.225-0.497,0.501
			c0,0.274,0.223,0.498,0.497,0.498c0.277,0,0.502-0.224,0.502-0.498C234.236,128.175,234.011,127.951,233.734,127.951z"/>
	</g>
</g>
<g>
	<g>
		<circle cx="193.63" cy="186.873" r="2.916"/>
	</g>
	<g>
		<path fill="#FFFFFF" d="M194.629,186.874c0,0.551-0.446,0.998-1.001,0.998c-0.55,0-0.997-0.447-0.997-0.998
			c0-0.553,0.447-1.001,0.997-1.001C194.183,185.873,194.629,186.321,194.629,186.874z"/>
		<path d="M193.628,188.372c-0.826,0-1.497-0.672-1.497-1.498c0-0.827,0.671-1.501,1.497-1.501c0.828,0,1.501,0.673,1.501,1.501
			C195.129,187.7,194.456,188.372,193.628,188.372z M193.628,186.373c-0.274,0-0.497,0.225-0.497,0.501
			c0,0.274,0.223,0.498,0.497,0.498c0.276,0,0.501-0.224,0.501-0.498C194.129,186.598,193.904,186.373,193.628,186.373z"/>
	</g>
</g>
<g>
	<g>
		<circle cx="160.923" cy="183.956" r="2.916"/>
	</g>
	<g>
		<path fill="#FFFFFF" d="M161.923,183.956c0,0.551-0.447,0.999-1.002,0.999c-0.549,0-0.997-0.447-0.997-0.999
			c0-0.552,0.448-1,0.997-1C161.476,182.956,161.923,183.404,161.923,183.956z"/>
		<path d="M160.921,185.455c-0.826,0-1.497-0.672-1.497-1.499c0-0.827,0.671-1.5,1.497-1.5c0.828,0,1.502,0.673,1.502,1.5
			C162.423,184.783,161.749,185.455,160.921,185.455z M160.921,183.456c-0.274,0-0.497,0.224-0.497,0.5
			c0,0.275,0.223,0.499,0.497,0.499c0.277,0,0.502-0.224,0.502-0.499C161.423,183.681,161.198,183.456,160.921,183.456z"/>
	</g>
</g>
<g>
	<g>
		<circle cx="269.223" cy="273.311" r="2.916"/>
	</g>
	<g>
		<circle fill="#FFFFFF" cx="269.223" cy="273.311" r="1"/>
		<path d="M269.222,274.81c-0.826,0-1.498-0.672-1.498-1.499c0-0.827,0.672-1.5,1.498-1.5c0.828,0,1.501,0.673,1.501,1.5
			C270.723,274.138,270.049,274.81,269.222,274.81z M269.222,272.811c-0.274,0-0.498,0.224-0.498,0.5
			c0,0.275,0.224,0.499,0.498,0.499c0.276,0,0.501-0.224,0.501-0.499C269.723,273.035,269.498,272.811,269.222,272.811z"/>
	</g>
</g>
<g>
	<g>
		<circle cx="248.396" cy="313.331" r="2.916"/>
	</g>
	<g>
		<circle fill="#FFFFFF" cx="248.396" cy="313.331" r="0.999"/>
		<path d="M248.394,314.83c-0.826,0-1.497-0.673-1.497-1.499c0-0.826,0.671-1.499,1.497-1.499c0.828,0,1.502,0.673,1.502,1.499
			C249.895,314.157,249.222,314.83,248.394,314.83z M248.394,312.832c-0.274,0-0.497,0.224-0.497,0.499
			c0,0.275,0.223,0.499,0.497,0.499c0.277,0,0.502-0.224,0.502-0.499C248.895,313.056,248.67,312.832,248.394,312.832z"/>
	</g>
</g>
<g>
	<g>
		<circle cx="292.693" cy="302.412" r="2.916"/>
	</g>
	<g>
		<path fill="#FFFFFF" d="M293.692,302.414c0,0.55-0.446,0.997-1.001,0.997c-0.551,0-0.997-0.447-0.997-0.997
			c0-0.553,0.446-1.002,0.997-1.002C293.246,301.412,293.692,301.861,293.692,302.414z"/>
		<path d="M292.691,303.911c-0.826,0-1.497-0.672-1.497-1.497c0-0.828,0.671-1.502,1.497-1.502c0.828,0,1.501,0.674,1.501,1.502
			C294.192,303.239,293.519,303.911,292.691,303.911z M292.691,301.912c-0.274,0-0.497,0.226-0.497,0.502
			c0,0.274,0.223,0.497,0.497,0.497c0.276,0,0.501-0.223,0.501-0.497C293.192,302.138,292.968,301.912,292.691,301.912z"/>
	</g>
</g>
<g>
	<g>
		<circle cx="340.909" cy="308.508" r="2.916"/>
	</g>
	<g>
		<circle fill="#FFFFFF" cx="340.911" cy="308.51" r="1"/>
		<path d="M340.908,310.007c-0.825,0-1.497-0.672-1.497-1.497c0-0.828,0.672-1.501,1.497-1.501c0.828,0,1.502,0.673,1.502,1.501
			C342.41,309.335,341.736,310.007,340.908,310.007z M340.908,308.009c-0.274,0-0.497,0.225-0.497,0.501
			c0,0.274,0.223,0.497,0.497,0.497c0.276,0,0.502-0.223,0.502-0.497C341.41,308.233,341.185,308.009,340.908,308.009z"/>
	</g>
</g>
<g>
	<g>
		<circle cx="363.317" cy="137.99" r="2.916"/>
	</g>
	<g>
		<circle fill="#FFFFFF" cx="363.317" cy="137.991" r="0.999"/>
		<path d="M363.315,139.489c-0.826,0-1.498-0.672-1.498-1.499c0-0.827,0.672-1.501,1.498-1.501c0.827,0,1.501,0.673,1.501,1.501
			C364.816,138.817,364.143,139.489,363.315,139.489z M363.315,137.49c-0.274,0-0.498,0.225-0.498,0.501
			c0,0.275,0.224,0.499,0.498,0.499c0.276,0,0.501-0.224,0.501-0.499C363.816,137.715,363.592,137.49,363.315,137.49z"/>
	</g>
</g>
<g>
	<g>
		<circle cx="471.199" cy="241.898" r="2.916"/>
	</g>
	<g>
		<path fill="#FFFFFF" d="M472.2,241.898c0,0.551-0.446,0.999-1.001,0.999c-0.551,0-0.997-0.447-0.997-0.999
			c0-0.552,0.446-1.001,0.997-1.001C471.754,240.898,472.2,241.346,472.2,241.898z"/>
		<path d="M471.199,243.397c-0.825,0-1.497-0.672-1.497-1.499c0-0.827,0.672-1.501,1.497-1.501c0.828,0,1.501,0.673,1.501,1.501
			C472.7,242.725,472.027,243.397,471.199,243.397z M471.199,241.398c-0.274,0-0.497,0.225-0.497,0.501
			c0,0.275,0.223,0.499,0.497,0.499c0.276,0,0.501-0.224,0.501-0.499C471.7,241.623,471.476,241.398,471.199,241.398z"/>
	</g>
</g>
<g>
	<g>
		<circle cx="445.51" cy="399.809" r="2.916"/>
	</g>
	<g>
		<path fill="#FFFFFF" d="M446.509,399.359c0,0.551-0.446,0.998-1.001,0.998c-0.551,0-0.997-0.447-0.997-0.998
			c0-0.552,0.446-1.001,0.997-1.001C446.062,398.358,446.509,398.808,446.509,399.359z"/>
		<path d="M445.508,400.857c-0.825,0-1.497-0.672-1.497-1.498c0-0.828,0.672-1.501,1.497-1.501c0.828,0,1.501,0.673,1.501,1.501
			C447.009,400.185,446.336,400.857,445.508,400.857z M445.508,398.858c-0.274,0-0.497,0.225-0.497,0.501
			c0,0.274,0.223,0.498,0.497,0.498c0.276,0,0.501-0.224,0.501-0.498C446.009,399.083,445.784,398.858,445.508,398.858z"/>
	</g>
</g>
<g>
	<g>
		<circle cx="211.754" cy="455.738" r="2.916"/>
	</g>
	<g>
		<circle fill="#FFFFFF" cx="211.754" cy="455.74" r="0.999"/>
		<path d="M211.752,457.237c-0.826,0-1.497-0.672-1.497-1.497c0-0.828,0.671-1.502,1.497-1.502c0.828,0,1.501,0.674,1.501,1.502
			C213.253,456.565,212.58,457.237,211.752,457.237z M211.752,455.238c-0.274,0-0.497,0.226-0.497,0.502
			c0,0.274,0.223,0.497,0.497,0.497c0.276,0,0.501-0.223,0.501-0.497C212.253,455.464,212.028,455.238,211.752,455.238z"/>
	</g>
</g>
<g>
	<g>
		<circle cx="170.587" cy="371.107" r="2.916"/>
	</g>
	<g>
		<circle fill="#FFFFFF" cx="170.587" cy="371.109" r="0.999"/>
		<path d="M170.585,372.606c-0.826,0-1.497-0.672-1.497-1.497c0-0.828,0.671-1.502,1.497-1.502c0.828,0,1.502,0.674,1.502,1.502
			C172.087,371.935,171.413,372.606,170.585,372.606z M170.585,370.607c-0.274,0-0.497,0.226-0.497,0.502
			c0,0.274,0.223,0.497,0.497,0.497c0.277,0,0.502-0.223,0.502-0.497C171.087,370.833,170.862,370.607,170.585,370.607z"/>
	</g>
</g>
<g>
	<g>
		<circle cx="129.965" cy="297.201" r="2.916"/>
	</g>
	<g>
		<circle fill="#FFFFFF" cx="129.965" cy="297.201" r="0.999"/>
		<path d="M129.963,298.7c-0.826,0-1.497-0.672-1.497-1.499c0-0.827,0.671-1.499,1.497-1.499c0.828,0,1.502,0.672,1.502,1.499
			C131.465,298.027,130.791,298.7,129.963,298.7z M129.963,296.702c-0.274,0-0.497,0.224-0.497,0.499
			c0,0.275,0.223,0.499,0.497,0.499c0.277,0,0.502-0.224,0.502-0.499C130.465,296.925,130.24,296.702,129.963,296.702z"/>
	</g>
</g>
<g>
	<g>
		<circle cx="404.546" cy="148.999" r="2.916"/>
	</g>
	<g>
		<circle fill="#FFFFFF" cx="404.546" cy="148.999" r="0.999"/>
		<path d="M404.544,150.498c-0.825,0-1.497-0.672-1.497-1.499c0-0.827,0.672-1.501,1.497-1.501c0.828,0,1.502,0.673,1.502,1.501
			C406.046,149.826,405.372,150.498,404.544,150.498z M404.544,148.499c-0.274,0-0.497,0.225-0.497,0.501
			c0,0.275,0.223,0.499,0.497,0.499c0.276,0,0.502-0.224,0.502-0.499C405.046,148.724,404.82,148.499,404.544,148.499z"/>
	</g>
</g>
<g>
	<g>
		<circle cx="283.051" cy="120.703" r="2.916"/>
	</g>
	<g>
		<path fill="#FFFFFF" d="M284.05,120.704c0,0.55-0.446,0.999-1.001,0.999c-0.55,0-0.997-0.448-0.997-0.999c0-0.552,0.447-1,0.997-1
			C283.603,119.703,284.05,120.151,284.05,120.704z"/>
		<path d="M283.049,122.202c-0.826,0-1.497-0.672-1.497-1.499c0-0.827,0.671-1.5,1.497-1.5c0.828,0,1.501,0.673,1.501,1.5
			C284.55,121.53,283.876,122.202,283.049,122.202z M283.049,120.203c-0.274,0-0.497,0.225-0.497,0.5
			c0,0.275,0.223,0.499,0.497,0.499c0.276,0,0.501-0.224,0.501-0.499C283.55,120.428,283.325,120.203,283.049,120.203z"/>
	</g>
</g>
<g>
	<g>
		<circle cx="318.213" cy="159.627" r="2.916"/>
	</g>
	<g>
		<circle fill="#FFFFFF" cx="318.213" cy="159.628" r="0.999"/>
		<path d="M318.211,161.127c-0.825,0-1.497-0.672-1.497-1.499c0-0.827,0.672-1.501,1.497-1.501c0.828,0,1.502,0.673,1.502,1.501
			C319.713,160.455,319.039,161.127,318.211,161.127z M318.211,159.128c-0.274,0-0.497,0.225-0.497,0.501
			c0,0.275,0.223,0.499,0.497,0.499c0.276,0,0.502-0.224,0.502-0.499C318.713,159.352,318.487,159.128,318.211,159.128z"/>
	</g>
</g>
<g>
	<g>
		<circle cx="333.778" cy="193.651" r="2.916"/>
	</g>
	<g>
		<circle fill="#FFFFFF" cx="333.778" cy="193.652" r="0.999"/>
		<path d="M333.776,195.15c-0.826,0-1.498-0.672-1.498-1.499c0-0.827,0.672-1.5,1.498-1.5c0.827,0,1.501,0.673,1.501,1.5
			C335.277,194.478,334.603,195.15,333.776,195.15z M333.776,193.152c-0.274,0-0.498,0.224-0.498,0.5
			c0,0.275,0.224,0.499,0.498,0.499c0.276,0,0.501-0.224,0.501-0.499C334.277,193.376,334.053,193.152,333.776,193.152z"/>
	</g>
</g>
<g>
	<g>
		<circle cx="381.522" cy="388.915" r="2.916"/>
	</g>
	<g>
		<circle fill="#FFFFFF" cx="381.523" cy="388.915" r="1"/>
		<path d="M381.52,390.414c-0.825,0-1.497-0.673-1.497-1.499c0-0.827,0.672-1.5,1.497-1.5c0.828,0,1.502,0.673,1.502,1.5
			C383.022,389.741,382.349,390.414,381.52,390.414z M381.52,388.415c-0.274,0-0.497,0.225-0.497,0.5
			c0,0.275,0.223,0.499,0.497,0.499c0.276,0,0.502-0.224,0.502-0.499C382.022,388.64,381.797,388.415,381.52,388.415z"/>
	</g>
</g>
<g>
	<g>
		<circle cx="392.249" cy="421.272" r="2.916"/>
	</g>
	<g>
		<circle fill="#FFFFFF" cx="392.249" cy="421.274" r="0.999"/>
		<path d="M392.247,422.772c-0.826,0-1.498-0.672-1.498-1.497c0-0.828,0.672-1.502,1.498-1.502c0.827,0,1.501,0.674,1.501,1.502
			C393.748,422.1,393.074,422.772,392.247,422.772z M392.247,420.772c-0.274,0-0.498,0.225-0.498,0.502
			c0,0.274,0.224,0.497,0.498,0.497c0.276,0,0.501-0.223,0.501-0.497C392.748,420.998,392.523,420.772,392.247,420.772z"/>
	</g>
</g>
<g>
	<g>
		<circle cx="373.379" cy="356.55" r="2.916"/>
	</g>
	<g>
		<circle fill="#FFFFFF" cx="373.379" cy="356.55" r="0.999"/>
		<path d="M373.377,358.049c-0.825,0-1.497-0.673-1.497-1.499c0-0.827,0.672-1.5,1.497-1.5c0.828,0,1.502,0.673,1.502,1.5
			C374.879,357.376,374.205,358.049,373.377,358.049z M373.377,356.05c-0.275,0-0.497,0.225-0.497,0.5s0.223,0.499,0.497,0.499
			c0.276,0,0.502-0.224,0.502-0.499S373.653,356.05,373.377,356.05z"/>
	</g>
</g>
<g>
	<g>
		<circle cx="341.91" cy="467.725" r="5.071"/>
	</g>
	<g>
		<circle fill="#FFFFFF" cx="341.91" cy="467.725" r="1.249"/>
		<path d="M341.91,469.474c-0.965,0-1.749-0.784-1.749-1.749c0-0.965,0.784-1.749,1.749-1.749c0.965,0,1.749,0.784,1.749,1.749
			C343.659,468.69,342.875,469.474,341.91,469.474z M341.91,466.976c-0.413,0-0.749,0.336-0.749,0.749
			c0,0.413,0.336,0.749,0.749,0.749c0.413,0,0.749-0.336,0.749-0.749C342.659,467.311,342.323,466.976,341.91,466.976z"/>
	</g>
</g>
<g>
	<g>
		<circle cx="323.876" cy="277.326" r="5.071"/>
	</g>
	<g>
		<circle fill="#FFFFFF" cx="323.875" cy="277.326" r="0.955"/>
		<path d="M323.876,278.781c-0.803,0-1.455-0.653-1.455-1.455c0-0.802,0.652-1.454,1.455-1.454c0.802,0,1.454,0.652,1.454,1.454
			C325.33,278.128,324.678,278.781,323.876,278.781z M323.876,276.872c-0.251,0-0.455,0.204-0.455,0.454
			c0,0.251,0.204,0.455,0.455,0.455c0.25,0,0.454-0.204,0.454-0.455C324.33,277.075,324.126,276.872,323.876,276.872z"/>
	</g>
</g>
<g>
	<g>
		<circle cx="261.78" cy="143.901" r="5.071"/>
	</g>
	<g>
		<circle fill="#FFFFFF" cx="261.78" cy="143.901" r="1.249"/>
		<path d="M261.78,145.65c-0.964,0-1.749-0.785-1.749-1.749c0-0.965,0.785-1.749,1.749-1.749c0.964,0,1.749,0.785,1.749,1.749
			C263.529,144.865,262.745,145.65,261.78,145.65z M261.78,143.151c-0.413,0-0.749,0.336-0.749,0.749s0.336,0.749,0.749,0.749
			c0.413,0,0.749-0.336,0.749-0.749S262.193,143.151,261.78,143.151z"/>
	</g>
</g>
<g>
	<g>
		<circle cx="434.181" cy="182.956" r="5.071"/>
	</g>
	<g>
		<circle fill="#FFFFFF" cx="434.181" cy="182.956" r="1.249"/>
		<path d="M434.181,184.706c-0.965,0-1.749-0.785-1.749-1.749c0-0.965,0.784-1.749,1.749-1.749c0.965,0,1.749,0.785,1.749,1.749
			C435.93,183.921,435.145,184.706,434.181,184.706z M434.181,182.207c-0.413,0-0.749,0.337-0.749,0.749
			c0,0.413,0.336,0.749,0.749,0.749c0.413,0,0.749-0.336,0.749-0.749C434.93,182.544,434.594,182.207,434.181,182.207z"/>
	</g>
</g>
<g>
	<g>
		<circle cx="450.581" cy="213.074" r="5.071"/>
	</g>
	<g>
		<circle fill="#FFFFFF" cx="450.581" cy="212.78" r="1.249"/>
		<path d="M450.581,214.529c-0.965,0-1.75-0.785-1.75-1.749c0-0.965,0.785-1.749,1.75-1.749c0.965,0,1.749,0.785,1.749,1.749
			C452.33,213.744,451.546,214.529,450.581,214.529z M450.581,212.03c-0.413,0-0.75,0.336-0.75,0.749s0.337,0.749,0.75,0.749
			c0.413,0,0.749-0.336,0.749-0.749S450.994,212.03,450.581,212.03z"/>
	</g>
</g>
<g>
	<g>
		<circle cx="434.181" cy="249.296" r="5.071"/>
	</g>
	<g>
		<circle fill="#FFFFFF" cx="434.18" cy="249.296" r="0.955"/>
		<path d="M434.181,250.751c-0.803,0-1.455-0.652-1.455-1.455c0-0.802,0.652-1.455,1.455-1.455c0.802,0,1.454,0.652,1.454,1.455
			C435.635,250.099,434.982,250.751,434.181,250.751z M434.181,248.842c-0.251,0-0.455,0.204-0.455,0.455s0.204,0.455,0.455,0.455
			c0.25,0,0.454-0.204,0.454-0.455S434.431,248.842,434.181,248.842z"/>
	</g>
</g>
<g>
	<g>
		<circle cx="207.704" cy="156.628" r="8.103"/>
	</g>
	<g>
		<circle fill="#FFFFFF" cx="207.704" cy="156.627" r="1.998"/>
		<path d="M207.703,159.126c-1.377,0-2.498-1.121-2.498-2.499c0-1.378,1.121-2.498,2.498-2.498c1.378,0,2.499,1.121,2.499,2.498
			C210.202,158.005,209.081,159.126,207.703,159.126z M207.703,155.129c-0.826,0-1.498,0.672-1.498,1.498
			c0,0.827,0.672,1.499,1.498,1.499c0.827,0,1.499-0.672,1.499-1.499C209.202,155.801,208.53,155.129,207.703,155.129z"/>
	</g>
</g>
<g>
	<g>
		<circle cx="225.75" cy="210.92" r="8.103"/>
	</g>
	<g>
		<circle fill="#FFFFFF" cx="225.749" cy="210.919" r="1.998"/>
		<path d="M225.749,213.419c-1.377,0-2.498-1.121-2.498-2.499c0-1.377,1.121-2.498,2.498-2.498c1.378,0,2.499,1.121,2.499,2.498
			C228.248,212.298,227.127,213.419,225.749,213.419z M225.749,209.421c-0.826,0-1.498,0.672-1.498,1.498
			c0,0.827,0.672,1.499,1.498,1.499c0.827,0,1.499-0.673,1.499-1.499C227.248,210.093,226.576,209.421,225.749,209.421z"/>
	</g>
</g>
<g>
	<g>
		<circle cx="159.925" cy="331.014" r="8.103"/>
	</g>
	<g>
		<circle fill="#FFFFFF" cx="159.924" cy="331.014" r="1.999"/>
		<path d="M159.924,333.513c-1.378,0-2.499-1.121-2.499-2.499c0-1.378,1.121-2.499,2.499-2.499c1.378,0,2.499,1.121,2.499,2.499
			C162.423,332.392,161.302,333.513,159.924,333.513z M159.924,329.515c-0.827,0-1.499,0.673-1.499,1.499
			c0,0.826,0.672,1.499,1.499,1.499c0.827,0,1.499-0.673,1.499-1.499C161.423,330.188,160.751,329.515,159.924,329.515z"/>
	</g>
</g>
<g>
	<g>
		<circle cx="299.234" cy="369.108" r="7.644"/>
	</g>
	<g>
		<path fill="#FFFFFF" d="M301.233,369.108c0,1.103-0.895,1.999-1.999,1.999c-1.105,0-1.999-0.896-1.999-1.999
			c0-1.107,0.895-1.999,1.999-1.999C300.339,367.109,301.233,368.001,301.233,369.108z"/>
		<path d="M299.234,371.607c-1.378,0-2.499-1.121-2.499-2.499s1.121-2.499,2.499-2.499c1.378,0,2.499,1.121,2.499,2.499
			S300.612,371.607,299.234,371.607z M299.234,367.609c-0.827,0-1.499,0.673-1.499,1.499s0.672,1.499,1.499,1.499
			c0.826,0,1.499-0.673,1.499-1.499S300.06,367.609,299.234,367.609z"/>
	</g>
</g>
<g>
	<g>
		<circle cx="391.25" cy="319.267" r="8.103"/>
	</g>
	<g>
		<circle fill="#FFFFFF" cx="391.25" cy="319.265" r="1.998"/>
		<path d="M391.249,321.766c-1.377,0-2.498-1.122-2.498-2.501c0-1.376,1.121-2.496,2.498-2.496c1.378,0,2.499,1.12,2.499,2.496
			C393.748,320.644,392.627,321.766,391.249,321.766z M391.249,317.769c-0.826,0-1.498,0.671-1.498,1.496
			c0,0.828,0.672,1.501,1.498,1.501c0.826,0,1.499-0.673,1.499-1.501C392.748,318.44,392.075,317.769,391.249,317.769z"/>
	</g>
</g>
<g>
	<g>
		<circle cx="325.876" cy="129.449" r="8.103"/>
	</g>
	<g>
		<circle fill="#FFFFFF" cx="325.875" cy="129.449" r="1.998"/>
		<path d="M325.875,131.948c-1.378,0-2.499-1.121-2.499-2.499c0-1.377,1.121-2.498,2.499-2.498c1.377,0,2.498,1.121,2.498,2.498
			C328.373,130.827,327.252,131.948,325.875,131.948z M325.875,127.951c-0.826,0-1.499,0.672-1.499,1.498
			c0,0.827,0.673,1.499,1.499,1.499s1.498-0.673,1.498-1.499C327.373,128.623,326.701,127.951,325.875,127.951z"/>
	</g>
</g>
<g>
	<g>
		<circle cx="463.096" cy="282.829" r="8.103"/>
	</g>
	<g>
		<circle fill="#FFFFFF" cx="463.097" cy="282.829" r="1.999"/>
		<path d="M463.097,285.328c-1.378,0-2.499-1.121-2.499-2.499s1.121-2.499,2.499-2.499s2.499,1.121,2.499,2.499
			S464.475,285.328,463.097,285.328z M463.097,281.33c-0.826,0-1.499,0.672-1.499,1.499c0,0.827,0.673,1.499,1.499,1.499
			s1.499-0.672,1.499-1.499C464.596,282.002,463.923,281.33,463.097,281.33z"/>
	</g>
</g>
<g>
	<g>
		<circle cx="199.6" cy="405.155" r="8.103"/>
	</g>
	<g>
		<circle fill="#FFFFFF" cx="199.601" cy="405.155" r="1.999"/>
		<path d="M199.601,407.653c-1.378,0-2.498-1.121-2.498-2.498c0-1.378,1.121-2.499,2.498-2.499c1.378,0,2.499,1.121,2.499,2.499
			C202.1,406.532,200.979,407.653,199.601,407.653z M199.601,403.656c-0.826,0-1.498,0.673-1.498,1.499
			c0,0.826,0.672,1.498,1.498,1.498c0.827,0,1.499-0.672,1.499-1.498C201.1,404.329,200.427,403.656,199.601,403.656z"/>
	</g>
</g>
<g>
	<g>
		<circle cx="381.523" cy="452.819" r="8.104"/>
	</g>
	<g>
		<circle fill="#FFFFFF" cx="381.523" cy="452.819" r="1.999"/>
		<path d="M381.522,455.318c-1.377,0-2.498-1.121-2.498-2.499c0-1.377,1.121-2.498,2.498-2.498c1.378,0,2.499,1.121,2.499,2.498
			C384.021,454.197,382.9,455.318,381.522,455.318z M381.522,451.321c-0.826,0-1.498,0.672-1.498,1.498
			c0,0.826,0.672,1.499,1.498,1.499c0.826,0,1.499-0.673,1.499-1.499C383.021,451.993,382.349,451.321,381.522,451.321z"/>
	</g>
</g>
<g>
	<g>
		<circle cx="339.91" cy="402.404" r="8.104"/>
	</g>
	<g>
		<circle fill="#FFFFFF" cx="339.911" cy="402.404" r="1.999"/>
		<path d="M339.911,404.903c-1.378,0-2.499-1.121-2.499-2.499c0-1.377,1.121-2.498,2.499-2.498c1.378,0,2.499,1.121,2.499,2.498
			C342.41,403.782,341.289,404.903,339.911,404.903z M339.911,400.906c-0.826,0-1.499,0.672-1.499,1.498s0.673,1.499,1.499,1.499
			c0.826,0,1.499-0.673,1.499-1.499S340.737,400.906,339.911,400.906z"/>
	</g>
</g>
<g>
	<g>
		<circle cx="248.395" cy="465.726" r="8.104"/>
	</g>
	<g>
		<circle fill="#FFFFFF" cx="248.396" cy="465.724" r="1.998"/>
		<path d="M248.395,468.225c-1.377,0-2.498-1.122-2.498-2.501c0-1.376,1.121-2.496,2.498-2.496c1.378,0,2.499,1.12,2.499,2.496
			C250.895,467.103,249.773,468.225,248.395,468.225z M248.395,464.228c-0.826,0-1.498,0.671-1.498,1.496
			c0,0.828,0.672,1.501,1.498,1.501c0.827,0,1.499-0.673,1.499-1.501C249.895,464.898,249.222,464.228,248.395,464.228z"/>
	</g>
</g>
<g>
	<g>
		<circle cx="297.236" cy="241.898" r="8.103"/>
	</g>
	<g>
		<circle fill="#FFFFFF" cx="297.235" cy="241.898" r="1.999"/>
		<path d="M297.235,244.397c-1.378,0-2.499-1.121-2.499-2.499c0-1.378,1.121-2.499,2.499-2.499c1.378,0,2.499,1.121,2.499,2.499
			C299.734,243.276,298.613,244.397,297.235,244.397z M297.235,240.399c-0.827,0-1.499,0.672-1.499,1.499
			c0,0.827,0.672,1.499,1.499,1.499c0.827,0,1.499-0.673,1.499-1.499C298.734,241.071,298.062,240.399,297.235,240.399z"/>
	</g>
</g>
<g>
	<g>
		<circle cx="148.824" cy="271.312" r="8.103"/>
	</g>
	<g>
		<circle fill="#FFFFFF" cx="148.823" cy="271.312" r="1.999"/>
		<path d="M148.823,273.811c-1.378,0-2.499-1.121-2.499-2.499s1.121-2.499,2.499-2.499c1.378,0,2.498,1.121,2.498,2.499
			S150.201,273.811,148.823,273.811z M148.823,269.813c-0.827,0-1.499,0.672-1.499,1.499c0,0.827,0.672,1.499,1.499,1.499
			c0.826,0,1.498-0.672,1.498-1.499C150.321,270.485,149.649,269.813,148.823,269.813z"/>
	</g>
</g>
<g>
	<path fill="#FFFFFF" d="M297.636,488.059c-105.388,0-191.128-85.741-191.128-191.131c0-105.388,85.74-191.128,191.128-191.128
		c105.391,0,191.132,85.74,191.132,191.128C488.768,402.317,403.026,488.059,297.636,488.059z M297.636,106.799
		c-104.837,0-190.128,85.291-190.128,190.128c0,104.838,85.291,190.131,190.128,190.131c104.839,0,190.132-85.293,190.132-190.131
		C487.768,192.09,402.475,106.799,297.636,106.799z"/>
</g>
</svg>
