<?xml version="1.0" encoding="utf-8"?>
<!-- Generator: Adobe Illustrator 17.1.0, SVG Export Plug-In . SVG Version: 6.00 Build 0)  -->
<!DOCTYPE svg PUBLIC "-//W3C//DTD SVG 1.1//EN" "http://www.w3.org/Graphics/SVG/1.1/DTD/svg11.dtd">
<svg version="1.1" id="Ebene_1" xmlns="http://www.w3.org/2000/svg" xmlns:xlink="http://www.w3.org/1999/xlink" x="0px" y="0px"
	 viewBox="0 0 841.89 595.28" enable-background="new 0 0 841.89 595.28" xml:space="preserve">
<g>
	<g>
		<circle cx="314.686" cy="253.413" r="5.071"/>
	</g>
	<g>
		<circle fill="#FFFFFF" cx="314.686" cy="253.118" r="1.25"/>
		<path d="M314.686,254.867c-0.964,0-1.749-0.784-1.749-1.749c0-0.964,0.785-1.749,1.749-1.749c0.965,0,1.75,0.785,1.75,1.749
			C316.436,254.083,315.651,254.867,314.686,254.867z M314.686,252.369c-0.413,0-0.749,0.336-0.749,0.749s0.336,0.749,0.749,0.749
			c0.413,0,0.75-0.336,0.75-0.749S315.099,252.369,314.686,252.369z"/>
	</g>
</g>
<g>
	<g>
		<circle cx="287.144" cy="222.132" r="5.071"/>
	</g>
	<g>
		<circle fill="#FFFFFF" cx="287.144" cy="222.132" r="1.25"/>
		<path d="M287.144,223.882c-0.964,0-1.749-0.785-1.749-1.75c0-0.964,0.785-1.749,1.749-1.749c0.965,0,1.75,0.785,1.75,1.749
			C288.894,223.097,288.109,223.882,287.144,223.882z M287.144,221.383c-0.413,0-0.749,0.336-0.749,0.749s0.336,0.75,0.749,0.75
			c0.413,0,0.75-0.336,0.75-0.75S287.557,221.383,287.144,221.383z"/>
	</g>
</g>
<g>
	<g>
		<circle cx="354.125" cy="280.83" r="5.071"/>
	</g>
	<g>
		<circle fill="#FFFFFF" cx="354.125" cy="280.535" r="1.249"/>
		<path d="M354.125,282.284c-0.964,0-1.749-0.785-1.749-1.749s0.785-1.749,1.749-1.749s1.749,0.785,1.749,1.749
			S355.09,282.284,354.125,282.284z M354.125,279.786c-0.413,0-0.749,0.336-0.749,0.749s0.336,0.749,0.749,0.749
			s0.749-0.336,0.749-0.749S354.538,279.786,354.125,279.786z"/>
	</g>
</g>
<g>
	<g>
		<circle cx="366.417" cy="239.899" r="5.071"/>
	</g>
	<g>
		<circle fill="#FFFFFF" cx="366.417" cy="239.899" r="0.955"/>
		<path d="M366.417,241.354c-0.802,0-1.455-0.652-1.455-1.455c0-0.802,0.653-1.454,1.455-1.454s1.454,0.652,1.454,1.454
			S367.219,241.354,366.417,241.354z M366.417,239.445c-0.251,0-0.455,0.204-0.455,0.454c0,0.251,0.204,0.455,0.455,0.455
			s0.454-0.204,0.454-0.455S366.668,239.445,366.417,239.445z"/>
	</g>
</g>
<g>
	<g>
		<circle cx="411.103" cy="174.674" r="5.071"/>
	</g>
	<g>
		<circle fill="#FFFFFF" cx="411.103" cy="174.674" r="0.954"/>
		<path d="M411.103,176.128c-0.802,0-1.454-0.652-1.454-1.455c0-0.802,0.652-1.455,1.454-1.455s1.454,0.652,1.454,1.455
			C412.557,175.476,411.905,176.128,411.103,176.128z M411.103,174.219c-0.25,0-0.454,0.204-0.454,0.455s0.204,0.455,0.454,0.455
			s0.454-0.204,0.454-0.455S411.353,174.219,411.103,174.219z"/>
	</g>
</g>
<g>
	<g>
		<circle cx="331.009" cy="367.107" r="5.071"/>
	</g>
	<g>
		<circle fill="#FFFFFF" cx="331.009" cy="367.107" r="1.249"/>
		<path d="M331.008,368.856c-0.964,0-1.749-0.784-1.749-1.749s0.785-1.749,1.749-1.749c0.965,0,1.75,0.784,1.75,1.749
			S331.973,368.856,331.008,368.856z M331.008,366.358c-0.413,0-0.749,0.336-0.749,0.749s0.336,0.749,0.749,0.749
			c0.414,0,0.75-0.336,0.75-0.749S331.422,366.358,331.008,366.358z"/>
	</g>
</g>
<g>
	<g>
		<circle cx="366.867" cy="419.353" r="5.071"/>
	</g>
	<g>
		<circle fill="#FFFFFF" cx="366.868" cy="419.353" r="1.249"/>
		<path d="M366.867,421.103c-0.964,0-1.749-0.784-1.749-1.749s0.785-1.749,1.749-1.749c0.965,0,1.75,0.784,1.75,1.749
			C368.617,420.318,367.832,421.103,366.867,421.103z M366.867,418.604c-0.413,0-0.749,0.336-0.749,0.749s0.336,0.749,0.749,0.749
			c0.414,0,0.75-0.336,0.75-0.749S367.281,418.604,366.867,418.604z"/>
	</g>
</g>
<g>
	<g>
		<circle cx="417.37" cy="412.373" r="5.071"/>
	</g>
	<g>
		<circle fill="#FFFFFF" cx="417.37" cy="412.373" r="1.249"/>
		<path d="M417.37,414.122c-0.964,0-1.749-0.784-1.749-1.749s0.785-1.749,1.749-1.749s1.749,0.784,1.749,1.749
			S418.335,414.122,417.37,414.122z M417.37,411.624c-0.413,0-0.749,0.336-0.749,0.749s0.336,0.749,0.749,0.749
			s0.749-0.336,0.749-0.749S417.783,411.624,417.37,411.624z"/>
	</g>
</g>
<g>
	<g>
		<circle cx="449.252" cy="336.085" r="5.071"/>
	</g>
	<g>
		<circle fill="#FFFFFF" cx="449.252" cy="336.085" r="1.249"/>
		<path d="M449.252,337.834c-0.965,0-1.75-0.784-1.75-1.749s0.785-1.749,1.75-1.749s1.749,0.784,1.749,1.749
			C451.001,337.05,450.217,337.834,449.252,337.834z M449.252,335.336c-0.413,0-0.75,0.336-0.75,0.749s0.337,0.749,0.75,0.749
			s0.749-0.336,0.749-0.749C450.001,335.672,449.665,335.336,449.252,335.336z"/>
	</g>
</g>
<g>
	<g>
		<circle cx="479.294" cy="250.001" r="5.071"/>
	</g>
	<g>
		<circle fill="#FFFFFF" cx="479.294" cy="250.001" r="0.954"/>
		<path d="M479.294,251.456c-0.802,0-1.454-0.652-1.454-1.455c0-0.802,0.652-1.455,1.454-1.455s1.454,0.652,1.454,1.455
			C480.748,250.804,480.096,251.456,479.294,251.456z M479.294,249.547c-0.25,0-0.454,0.204-0.454,0.455s0.204,0.455,0.454,0.455
			s0.454-0.204,0.454-0.455C479.748,249.751,479.544,249.547,479.294,249.547z"/>
	</g>
</g>
<g>
	<g>
		<circle cx="479.294" cy="170.757" r="5.071"/>
	</g>
	<g>
		<circle fill="#FFFFFF" cx="479.294" cy="170.757" r="1.249"/>
		<path d="M479.294,172.507c-0.965,0-1.749-0.785-1.749-1.75c0-0.964,0.784-1.749,1.749-1.749s1.749,0.785,1.749,1.749
			C481.043,171.722,480.259,172.507,479.294,172.507z M479.294,170.008c-0.413,0-0.749,0.336-0.749,0.749s0.336,0.75,0.749,0.75
			s0.749-0.336,0.749-0.75S479.707,170.008,479.294,170.008z"/>
	</g>
</g>
<g>
	<g>
		<circle cx="516.803" cy="181.039" r="5.071"/>
	</g>
	<g>
		<circle fill="#FFFFFF" cx="516.803" cy="181.039" r="1.249"/>
		<path d="M516.803,182.788c-0.965,0-1.749-0.785-1.749-1.749c0-0.965,0.784-1.749,1.749-1.749s1.749,0.785,1.749,1.749
			C518.552,182.003,517.768,182.788,516.803,182.788z M516.803,180.29c-0.413,0-0.749,0.336-0.749,0.749s0.336,0.749,0.749,0.749
			s0.749-0.336,0.749-0.749C517.552,180.626,517.216,180.29,516.803,180.29z"/>
	</g>
</g>
<g>
	<g>
		<circle cx="536.285" cy="223.382" r="5.071"/>
	</g>
	<g>
		<circle fill="#FFFFFF" cx="536.285" cy="223.382" r="1.249"/>
		<path d="M536.285,225.131c-0.965,0-1.749-0.785-1.749-1.749c0-0.965,0.784-1.75,1.749-1.75c0.965,0,1.749,0.785,1.749,1.75
			C538.034,224.346,537.25,225.131,536.285,225.131z M536.285,222.632c-0.413,0-0.749,0.337-0.749,0.75s0.336,0.749,0.749,0.749
			c0.413,0,0.749-0.336,0.749-0.749C537.034,222.969,536.699,222.632,536.285,222.632z"/>
	</g>
</g>
<g>
	<g>
		<circle cx="549.881" cy="308.508" r="5.071"/>
	</g>
	<g>
		<circle fill="#FFFFFF" cx="549.881" cy="308.213" r="1.249"/>
		<path d="M549.881,309.962c-0.965,0-1.75-0.784-1.75-1.749s0.785-1.749,1.75-1.749s1.749,0.784,1.749,1.749
			S550.846,309.962,549.881,309.962z M549.881,307.464c-0.413,0-0.75,0.336-0.75,0.749s0.337,0.749,0.75,0.749
			s0.749-0.336,0.749-0.749S550.294,307.464,549.881,307.464z"/>
	</g>
</g>
<g>
	<g>
		<circle cx="537.534" cy="384.798" r="5.071"/>
	</g>
	<g>
		<circle fill="#FFFFFF" cx="537.534" cy="384.503" r="1.249"/>
		<path d="M537.534,386.253c-0.965,0-1.749-0.785-1.749-1.75s0.784-1.749,1.749-1.749s1.749,0.784,1.749,1.749
			S538.499,386.253,537.534,386.253z M537.534,383.754c-0.413,0-0.749,0.336-0.749,0.749s0.336,0.75,0.749,0.75
			s0.749-0.337,0.749-0.75S537.948,383.754,537.534,383.754z"/>
	</g>
</g>
<g>
	<g>
		<circle cx="541.45" cy="350.478" r="5.071"/>
	</g>
	<g>
		<circle fill="#FFFFFF" cx="541.45" cy="350.184" r="1.249"/>
		<path d="M541.45,351.934c-0.965,0-1.75-0.785-1.75-1.75s0.785-1.749,1.75-1.749c0.965,0,1.749,0.784,1.749,1.749
			C543.2,351.148,542.415,351.934,541.45,351.934z M541.45,349.435c-0.413,0-0.75,0.336-0.75,0.749s0.337,0.75,0.75,0.75
			c0.413,0,0.749-0.337,0.749-0.75C542.2,349.771,541.864,349.435,541.45,349.435z"/>
	</g>
</g>
<g>
	<g>
		<circle cx="403.44" cy="331.014" r="5.071"/>
	</g>
	<g>
		<circle fill="#FFFFFF" cx="403.44" cy="330.719" r="1.249"/>
		<path d="M403.44,332.469c-0.964,0-1.749-0.785-1.749-1.75s0.785-1.749,1.749-1.749s1.749,0.784,1.749,1.749
			S404.404,332.469,403.44,332.469z M403.44,329.97c-0.413,0-0.749,0.336-0.749,0.749s0.336,0.75,0.749,0.75s0.749-0.337,0.749-0.75
			S403.853,329.97,403.44,329.97z"/>
	</g>
</g>
<g>
	<g>
		<circle cx="586.402" cy="365.858" r="5.071"/>
	</g>
	<g>
		<circle fill="#FFFFFF" cx="586.402" cy="365.564" r="1.249"/>
		<path d="M586.402,367.312c-0.965,0-1.749-0.784-1.749-1.749s0.784-1.749,1.749-1.749s1.749,0.784,1.749,1.749
			S587.366,367.312,586.402,367.312z M586.402,364.815c-0.413,0-0.749,0.336-0.749,0.749s0.336,0.749,0.749,0.749
			s0.749-0.336,0.749-0.749C587.151,365.15,586.815,364.815,586.402,364.815z"/>
	</g>
</g>
<g>
	<g>
		<circle cx="365.868" cy="358.378" r="2.916"/>
	</g>
	<g>
		<circle fill="#FFFFFF" cx="365.868" cy="358.259" r="0.999"/>
		<path d="M365.868,359.757c-0.827,0-1.499-0.672-1.499-1.498c0-0.827,0.672-1.501,1.499-1.501c0.827,0,1.499,0.674,1.499,1.501
			C367.367,359.085,366.695,359.757,365.868,359.757z M365.868,357.758c-0.275,0-0.499,0.225-0.499,0.501
			c0,0.274,0.224,0.498,0.499,0.498c0.275,0,0.499-0.224,0.499-0.498C366.367,357.982,366.144,357.758,365.868,357.758z"/>
	</g>
</g>
<g>
	<g>
		<circle cx="383.542" cy="388.716" r="2.916"/>
	</g>
	<g>
		<circle fill="#FFFFFF" cx="383.541" cy="388.716" r="0.999"/>
		<path d="M383.541,390.215c-0.827,0-1.499-0.673-1.499-1.499c0-0.827,0.672-1.5,1.499-1.5s1.499,0.673,1.499,1.5
			C385.04,389.542,384.368,390.215,383.541,390.215z M383.541,388.216c-0.275,0-0.499,0.225-0.499,0.5s0.224,0.499,0.499,0.499
			s0.499-0.224,0.499-0.499C384.04,388.44,383.817,388.216,383.541,388.216z"/>
	</g>
</g>
<g>
	<g>
		<circle cx="420.54" cy="208.004" r="2.916"/>
	</g>
	<g>
		<circle fill="#FFFFFF" cx="420.541" cy="208.005" r="1"/>
		<path d="M420.54,209.503c-0.827,0-1.499-0.672-1.499-1.498c0-0.827,0.672-1.501,1.499-1.501s1.5,0.673,1.5,1.501
			C422.04,208.831,421.367,209.503,420.54,209.503z M420.54,207.504c-0.275,0-0.499,0.225-0.499,0.501
			c0,0.274,0.224,0.498,0.499,0.498c0.276,0,0.5-0.224,0.5-0.498C421.04,207.729,420.816,207.504,420.54,207.504z"/>
	</g>
</g>
<g>
	<g>
		<circle cx="507.744" cy="258.485" r="2.916"/>
	</g>
	<g>
		<circle fill="#FFFFFF" cx="507.744" cy="258.486" r="0.999"/>
		<path d="M507.743,259.984c-0.826,0-1.499-0.672-1.499-1.498c0-0.828,0.673-1.501,1.499-1.501c0.827,0,1.5,0.673,1.5,1.501
			C509.243,259.312,508.571,259.984,507.743,259.984z M507.743,257.985c-0.275,0-0.499,0.225-0.499,0.501
			c0,0.275,0.224,0.498,0.499,0.498s0.5-0.224,0.5-0.498C508.243,258.21,508.019,257.985,507.743,257.985z"/>
	</g>
</g>
<g>
	<g>
		<circle cx="471.285" cy="217.062" r="2.916"/>
	</g>
	<g>
		<circle fill="#FFFFFF" cx="471.285" cy="217.062" r="0.999"/>
		<path d="M471.285,218.56c-0.826,0-1.499-0.672-1.499-1.498c0-0.827,0.673-1.501,1.499-1.501s1.499,0.673,1.499,1.501
			C472.784,217.888,472.112,218.56,471.285,218.56z M471.285,216.561c-0.275,0-0.499,0.225-0.499,0.501
			c0,0.274,0.224,0.498,0.499,0.498s0.499-0.224,0.499-0.498C471.784,216.786,471.561,216.561,471.285,216.561z"/>
	</g>
</g>
<g>
	<g>
		<circle cx="399.274" cy="441.934" r="2.916"/>
	</g>
	<g>
		<circle fill="#FFFFFF" cx="399.274" cy="441.934" r="1"/>
		<path d="M399.274,443.433c-0.827,0-1.499-0.673-1.499-1.499s0.672-1.499,1.499-1.499s1.5,0.673,1.5,1.499
			S400.101,443.433,399.274,443.433z M399.274,441.435c-0.275,0-0.499,0.224-0.499,0.499s0.224,0.499,0.499,0.499
			c0.276,0,0.5-0.224,0.5-0.499C399.774,441.658,399.55,441.435,399.274,441.435z"/>
	</g>
</g>
<g>
	<g>
		<circle cx="283.229" cy="418.354" r="2.916"/>
	</g>
	<g>
		<circle fill="#FFFFFF" cx="283.228" cy="418.356" r="1"/>
		<path d="M283.229,419.853c-0.827,0-1.5-0.672-1.5-1.497c0-0.828,0.673-1.502,1.5-1.502c0.827,0,1.499,0.674,1.499,1.502
			C284.728,419.182,284.056,419.853,283.229,419.853z M283.229,417.854c-0.276,0-0.5,0.226-0.5,0.502c0,0.274,0.224,0.497,0.5,0.497
			c0.275,0,0.499-0.223,0.499-0.497C283.728,418.08,283.504,417.854,283.229,417.854z"/>
	</g>
</g>
<g>
	<g>
		<circle cx="499.6" cy="203.01" r="2.916"/>
	</g>
	<g>
		<circle fill="#FFFFFF" cx="499.6" cy="203.01" r="0.999"/>
		<path d="M499.599,204.508c-0.826,0-1.498-0.672-1.498-1.499s0.672-1.501,1.498-1.501c0.827,0,1.501,0.673,1.501,1.501
			C501.1,203.836,500.426,204.508,499.599,204.508z M499.599,202.509c-0.274,0-0.498,0.225-0.498,0.501
			c0,0.275,0.224,0.499,0.498,0.499c0.276,0,0.501-0.224,0.501-0.499C500.1,202.734,499.875,202.509,499.599,202.509z"/>
	</g>
</g>
<g>
	<g>
		<circle cx="537.534" cy="275.758" r="2.916"/>
	</g>
	<g>
		<circle fill="#FFFFFF" cx="537.535" cy="275.858" r="0.999"/>
		<path d="M537.534,277.357c-0.826,0-1.499-0.672-1.499-1.499s0.673-1.5,1.499-1.5c0.827,0,1.5,0.673,1.5,1.5
			S538.362,277.357,537.534,277.357z M537.534,275.358c-0.275,0-0.499,0.224-0.499,0.5c0,0.275,0.224,0.499,0.499,0.499
			s0.5-0.224,0.5-0.499C538.034,275.582,537.81,275.358,537.534,275.358z"/>
	</g>
</g>
<g>
	<g>
		<circle cx="495.685" cy="286.139" r="2.916"/>
	</g>
	<g>
		<circle fill="#FFFFFF" cx="495.685" cy="286.14" r="0.999"/>
		<path d="M495.685,287.638c-0.826,0-1.499-0.672-1.499-1.498c0-0.828,0.673-1.501,1.499-1.501s1.499,0.673,1.499,1.501
			C497.184,286.966,496.511,287.638,495.685,287.638z M495.685,285.639c-0.275,0-0.499,0.225-0.499,0.501
			c0,0.275,0.224,0.498,0.499,0.498s0.499-0.224,0.499-0.498C496.184,285.864,495.96,285.639,495.685,285.639z"/>
	</g>
</g>
<g>
	<g>
		<circle cx="470.286" cy="369.108" r="2.916"/>
	</g>
	<g>
		<circle fill="#FFFFFF" cx="470.286" cy="369.19" r="1"/>
		<path d="M470.286,370.69c-0.827,0-1.5-0.673-1.5-1.499c0-0.827,0.673-1.5,1.5-1.5c0.826,0,1.499,0.673,1.499,1.5
			C471.785,370.017,471.113,370.69,470.286,370.69z M470.286,368.69c-0.275,0-0.5,0.225-0.5,0.5s0.225,0.499,0.5,0.499
			s0.499-0.224,0.499-0.499S470.562,368.69,470.286,368.69z"/>
	</g>
</g>
<g>
	<g>
		<circle cx="573.638" cy="339.118" r="2.916"/>
	</g>
	<g>
		<circle fill="#FFFFFF" cx="573.637" cy="339.12" r="0.999"/>
		<path d="M573.638,340.618c-0.827,0-1.5-0.672-1.5-1.498c0-0.827,0.673-1.501,1.5-1.501c0.826,0,1.499,0.674,1.499,1.501
			C575.137,339.946,574.464,340.618,573.638,340.618z M573.638,338.619c-0.275,0-0.5,0.225-0.5,0.501c0,0.274,0.225,0.498,0.5,0.498
			s0.499-0.224,0.499-0.498C574.137,338.844,573.913,338.619,573.638,338.619z"/>
	</g>
</g>
<g>
	<g>
		<circle cx="597.42" cy="322.264" r="2.916"/>
	</g>
	<g>
		<circle fill="#FFFFFF" cx="597.421" cy="322.266" r="0.999"/>
		<path d="M597.42,323.763c-0.826,0-1.499-0.672-1.499-1.497c0-0.828,0.673-1.502,1.499-1.502c0.827,0,1.5,0.674,1.5,1.502
			C598.92,323.091,598.247,323.763,597.42,323.763z M597.42,321.764c-0.275,0-0.499,0.226-0.499,0.502
			c0,0.274,0.224,0.497,0.499,0.497s0.5-0.223,0.5-0.497C597.92,321.989,597.696,321.764,597.42,321.764z"/>
	</g>
</g>
<g>
	<g>
		<circle cx="540.451" cy="431.406" r="2.916"/>
	</g>
	<g>
		<circle fill="#FFFFFF" cx="540.451" cy="431.406" r="0.999"/>
		<path d="M540.449,432.906c-0.825,0-1.497-0.673-1.497-1.5c0-0.826,0.672-1.499,1.497-1.499c0.828,0,1.502,0.673,1.502,1.499
			C541.95,432.233,541.277,432.906,540.449,432.906z M540.449,430.907c-0.275,0-0.497,0.224-0.497,0.499s0.223,0.5,0.497,0.5
			c0.276,0,0.502-0.225,0.502-0.5C540.95,431.131,540.725,430.907,540.449,430.907z"/>
	</g>
</g>
<g>
	<g>
		<circle cx="434.477" cy="440.935" r="2.916"/>
	</g>
	<g>
		<circle fill="#FFFFFF" cx="434.477" cy="440.936" r="0.999"/>
		<path d="M434.476,442.434c-0.826,0-1.498-0.672-1.498-1.497c0-0.828,0.672-1.502,1.498-1.502c0.827,0,1.501,0.674,1.501,1.502
			C435.977,441.762,435.303,442.434,434.476,442.434z M434.476,440.435c-0.274,0-0.498,0.226-0.498,0.502
			c0,0.274,0.224,0.497,0.498,0.497c0.276,0,0.501-0.223,0.501-0.497C434.977,440.66,434.752,440.435,434.476,440.435z"/>
	</g>
</g>
<g>
	<g>
		<circle cx="473.202" cy="431.406" r="2.916"/>
	</g>
	<g>
		<circle fill="#FFFFFF" cx="473.202" cy="431.408" r="0.999"/>
		<path d="M473.202,432.906c-0.827,0-1.5-0.672-1.5-1.498c0-0.828,0.673-1.501,1.5-1.501c0.826,0,1.499,0.673,1.499,1.501
			C474.701,432.234,474.029,432.906,473.202,432.906z M473.202,430.907c-0.275,0-0.5,0.225-0.5,0.501c0,0.274,0.225,0.498,0.5,0.498
			s0.499-0.224,0.499-0.498C473.701,431.132,473.478,430.907,473.202,430.907z"/>
	</g>
</g>
<g>
	<g>
		<circle cx="335.059" cy="327.945" r="2.916"/>
	</g>
	<g>
		<path fill="#FFFFFF" d="M336.058,327.945c0,0.551-0.446,1-1.001,1c-0.551,0-0.997-0.449-0.997-1c0-0.553,0.446-0.999,0.997-0.999
			C335.612,326.946,336.058,327.393,336.058,327.945z"/>
		<path d="M335.057,329.445c-0.826,0-1.497-0.673-1.497-1.5c0-0.826,0.671-1.499,1.497-1.499c0.828,0,1.501,0.673,1.501,1.499
			C336.558,328.772,335.885,329.445,335.057,329.445z M335.057,327.446c-0.274,0-0.497,0.224-0.497,0.499s0.223,0.5,0.497,0.5
			c0.276,0,0.501-0.225,0.501-0.5S335.333,327.446,335.057,327.446z"/>
	</g>
</g>
<g>
	<g>
		<circle cx="315.935" cy="300.116" r="2.916"/>
	</g>
	<g>
		<circle fill="#FFFFFF" cx="315.935" cy="300.116" r="0.999"/>
		<path d="M315.936,301.616c-0.827,0-1.5-0.673-1.5-1.5c0-0.826,0.673-1.499,1.5-1.499c0.827,0,1.499,0.673,1.499,1.499
			C317.435,300.943,316.762,301.616,315.936,301.616z M315.936,299.617c-0.276,0-0.5,0.224-0.5,0.499s0.224,0.5,0.5,0.5
			c0.275,0,0.499-0.225,0.499-0.5S316.211,299.617,315.936,299.617z"/>
	</g>
</g>
<g>
	<g>
		<circle cx="242.726" cy="253.189" r="2.916"/>
	</g>
	<g>
		<circle fill="#FFFFFF" cx="242.725" cy="253.189" r="0.999"/>
		<path d="M242.724,254.687c-0.826,0-1.498-0.672-1.498-1.498c0-0.827,0.672-1.501,1.498-1.501c0.828,0,1.501,0.673,1.501,1.501
			C244.225,254.015,243.552,254.687,242.724,254.687z M242.724,252.688c-0.274,0-0.498,0.225-0.498,0.501
			c0,0.275,0.224,0.498,0.498,0.498c0.276,0,0.501-0.224,0.501-0.498C243.225,252.913,243,252.688,242.724,252.688z"/>
	</g>
</g>
<g>
	<g>
		<circle cx="252.271" cy="358.378" r="2.916"/>
	</g>
	<g>
		<path fill="#FFFFFF" d="M253.27,358.378c0,0.551-0.446,1-1.001,1c-0.551,0-0.997-0.449-0.997-1c0-0.552,0.446-0.999,0.997-0.999
			C252.824,357.379,253.27,357.826,253.27,358.378z"/>
		<path d="M252.269,359.878c-0.826,0-1.497-0.673-1.497-1.5c0-0.826,0.671-1.499,1.497-1.499c0.828,0,1.501,0.673,1.501,1.499
			C253.77,359.205,253.097,359.878,252.269,359.878z M252.269,357.879c-0.274,0-0.497,0.224-0.497,0.499s0.223,0.5,0.497,0.5
			c0.276,0,0.501-0.225,0.501-0.5S252.545,357.879,252.269,357.879z"/>
	</g>
</g>
<g>
	<g>
		<circle cx="427.646" cy="480.136" r="2.916"/>
	</g>
	<g>
		<circle fill="#FFFFFF" cx="427.645" cy="480.136" r="0.999"/>
		<path d="M427.644,481.635c-0.826,0-1.498-0.673-1.498-1.499c0-0.827,0.672-1.5,1.498-1.5c0.827,0,1.501,0.673,1.501,1.5
			C429.145,480.962,428.471,481.635,427.644,481.635z M427.644,479.636c-0.274,0-0.498,0.225-0.498,0.5s0.224,0.499,0.498,0.499
			c0.276,0,0.501-0.224,0.501-0.499C428.145,479.86,427.92,479.636,427.644,479.636z"/>
	</g>
</g>
<g>
	<g>
		<circle cx="387.457" cy="215.028" r="2.916"/>
	</g>
	<g>
		<circle fill="#FFFFFF" cx="387.457" cy="215.027" r="1"/>
		<path d="M387.456,216.527h-0.019c-0.825-0.011-1.489-0.692-1.48-1.518c0.012-0.817,0.685-1.481,1.5-1.481
			c0.42,0.005,0.795,0.167,1.074,0.453c0.28,0.287,0.431,0.665,0.425,1.065C388.946,215.862,388.273,216.527,387.456,216.527z
			 M387.463,214.528c-0.278,0-0.502,0.221-0.506,0.494c-0.003,0.274,0.218,0.502,0.493,0.505l0.006,0.5v-0.5
			c0.272,0,0.496-0.222,0.5-0.494c0.002-0.133-0.048-0.258-0.141-0.354C387.722,214.583,387.597,214.53,387.463,214.528
			L387.463,214.528z"/>
	</g>
</g>
<g>
	<g>
		<circle cx="368.784" cy="171.757" r="2.916"/>
	</g>
	<g>
		<circle fill="#FFFFFF" cx="368.785" cy="171.758" r="0.999"/>
		<path d="M368.782,173.256c-0.826,0-1.497-0.672-1.497-1.499s0.671-1.501,1.497-1.501c0.828,0,1.502,0.673,1.502,1.501
			C370.284,172.584,369.611,173.256,368.782,173.256z M368.782,171.257c-0.274,0-0.497,0.225-0.497,0.501
			c0,0.275,0.223,0.499,0.497,0.499c0.277,0,0.502-0.224,0.502-0.499C369.284,171.482,369.059,171.257,368.782,171.257z"/>
	</g>
</g>
<g>
	<g>
		<circle cx="357.042" cy="128.451" r="2.916"/>
	</g>
	<g>
		<path fill="#FFFFFF" d="M358.041,128.451c0,0.551-0.447,0.998-1.002,0.998c-0.549,0-0.997-0.447-0.997-0.998
			c0-0.553,0.448-1.001,0.997-1.001C357.594,127.451,358.041,127.898,358.041,128.451z"/>
		<path d="M357.039,129.949c-0.826,0-1.497-0.672-1.497-1.498c0-0.827,0.671-1.501,1.497-1.501c0.828,0,1.502,0.673,1.502,1.501
			C358.541,129.277,357.867,129.949,357.039,129.949z M357.039,127.951c-0.274,0-0.497,0.225-0.497,0.501
			c0,0.274,0.223,0.498,0.497,0.498c0.277,0,0.502-0.224,0.502-0.498C357.541,128.175,357.316,127.951,357.039,127.951z"/>
	</g>
</g>
<g>
	<g>
		<circle cx="316.935" cy="186.873" r="2.916"/>
	</g>
	<g>
		<path fill="#FFFFFF" d="M317.934,186.874c0,0.551-0.446,0.998-1.001,0.998c-0.55,0-0.997-0.447-0.997-0.998
			c0-0.553,0.447-1.001,0.997-1.001C317.488,185.873,317.934,186.321,317.934,186.874z"/>
		<path d="M316.933,188.372c-0.826,0-1.497-0.672-1.497-1.498c0-0.827,0.671-1.501,1.497-1.501c0.828,0,1.501,0.673,1.501,1.501
			C318.434,187.7,317.761,188.372,316.933,188.372z M316.933,186.373c-0.274,0-0.497,0.225-0.497,0.501
			c0,0.274,0.223,0.498,0.497,0.498c0.276,0,0.501-0.224,0.501-0.498C317.434,186.598,317.209,186.373,316.933,186.373z"/>
	</g>
</g>
<g>
	<g>
		<circle cx="284.228" cy="183.956" r="2.916"/>
	</g>
	<g>
		<path fill="#FFFFFF" d="M285.228,183.956c0,0.551-0.447,0.999-1.002,0.999c-0.549,0-0.997-0.447-0.997-0.999
			c0-0.552,0.448-1,0.997-1C284.781,182.956,285.228,183.404,285.228,183.956z"/>
		<path d="M284.226,185.455c-0.826,0-1.497-0.672-1.497-1.499s0.671-1.5,1.497-1.5c0.828,0,1.502,0.673,1.502,1.5
			S285.054,185.455,284.226,185.455z M284.226,183.456c-0.274,0-0.497,0.224-0.497,0.5c0,0.275,0.223,0.499,0.497,0.499
			c0.277,0,0.502-0.224,0.502-0.499S284.503,183.456,284.226,183.456z"/>
	</g>
</g>
<g>
	<g>
		<circle cx="392.528" cy="273.311" r="2.916"/>
	</g>
	<g>
		<circle fill="#FFFFFF" cx="392.528" cy="273.311" r="1"/>
		<path d="M392.527,274.81c-0.826,0-1.498-0.672-1.498-1.499s0.672-1.5,1.498-1.5c0.828,0,1.501,0.673,1.501,1.5
			S393.354,274.81,392.527,274.81z M392.527,272.811c-0.274,0-0.498,0.224-0.498,0.5c0,0.275,0.224,0.499,0.498,0.499
			c0.276,0,0.501-0.224,0.501-0.499C393.028,273.035,392.803,272.811,392.527,272.811z"/>
	</g>
</g>
<g>
	<g>
		<circle cx="371.701" cy="313.331" r="2.916"/>
	</g>
	<g>
		<circle fill="#FFFFFF" cx="371.701" cy="313.331" r="0.999"/>
		<path d="M371.699,314.83c-0.826,0-1.497-0.673-1.497-1.499s0.671-1.499,1.497-1.499c0.828,0,1.502,0.673,1.502,1.499
			C373.2,314.157,372.527,314.83,371.699,314.83z M371.699,312.832c-0.274,0-0.497,0.224-0.497,0.499s0.223,0.499,0.497,0.499
			c0.277,0,0.502-0.224,0.502-0.499C372.2,313.056,371.975,312.832,371.699,312.832z"/>
	</g>
</g>
<g>
	<g>
		<circle cx="415.998" cy="302.412" r="2.916"/>
	</g>
	<g>
		<path fill="#FFFFFF" d="M416.997,302.414c0,0.55-0.446,0.997-1.001,0.997c-0.551,0-0.997-0.447-0.997-0.997
			c0-0.553,0.446-1.002,0.997-1.002C416.551,301.412,416.997,301.861,416.997,302.414z"/>
		<path d="M415.996,303.911c-0.826,0-1.497-0.672-1.497-1.497c0-0.828,0.671-1.502,1.497-1.502c0.828,0,1.501,0.674,1.501,1.502
			C417.497,303.239,416.824,303.911,415.996,303.911z M415.996,301.912c-0.274,0-0.497,0.226-0.497,0.502
			c0,0.274,0.223,0.497,0.497,0.497c0.276,0,0.501-0.223,0.501-0.497C416.497,302.138,416.273,301.912,415.996,301.912z"/>
	</g>
</g>
<g>
	<g>
		<circle cx="464.214" cy="308.508" r="2.916"/>
	</g>
	<g>
		<circle fill="#FFFFFF" cx="464.216" cy="308.51" r="1"/>
		<path d="M464.213,310.007c-0.825,0-1.497-0.672-1.497-1.497c0-0.828,0.672-1.501,1.497-1.501c0.828,0,1.502,0.673,1.502,1.501
			C465.715,309.335,465.041,310.007,464.213,310.007z M464.213,308.009c-0.274,0-0.497,0.225-0.497,0.501
			c0,0.274,0.223,0.497,0.497,0.497c0.276,0,0.502-0.223,0.502-0.497C464.715,308.233,464.49,308.009,464.213,308.009z"/>
	</g>
</g>
<g>
	<g>
		<circle cx="486.622" cy="137.99" r="2.916"/>
	</g>
	<g>
		<circle fill="#FFFFFF" cx="486.622" cy="137.991" r="0.999"/>
		<path d="M486.62,139.489c-0.826,0-1.498-0.672-1.498-1.499s0.672-1.501,1.498-1.501c0.827,0,1.501,0.673,1.501,1.501
			C488.121,138.817,487.448,139.489,486.62,139.489z M486.62,137.49c-0.274,0-0.498,0.225-0.498,0.501
			c0,0.275,0.224,0.499,0.498,0.499c0.276,0,0.501-0.224,0.501-0.499C487.121,137.715,486.897,137.49,486.62,137.49z"/>
	</g>
</g>
<g>
	<g>
		<circle cx="594.504" cy="241.898" r="2.916"/>
	</g>
	<g>
		<path fill="#FFFFFF" d="M595.505,241.898c0,0.551-0.446,0.999-1.001,0.999c-0.551,0-0.997-0.447-0.997-0.999
			c0-0.552,0.446-1.001,0.997-1.001C595.059,240.898,595.505,241.346,595.505,241.898z"/>
		<path d="M594.504,243.397c-0.825,0-1.497-0.672-1.497-1.499s0.672-1.501,1.497-1.501c0.828,0,1.501,0.673,1.501,1.501
			C596.005,242.725,595.332,243.397,594.504,243.397z M594.504,241.398c-0.274,0-0.497,0.225-0.497,0.501
			c0,0.275,0.223,0.499,0.497,0.499c0.276,0,0.501-0.224,0.501-0.499C595.005,241.623,594.781,241.398,594.504,241.398z"/>
	</g>
</g>
<g>
	<g>
		<circle cx="568.815" cy="399.809" r="2.916"/>
	</g>
	<g>
		<path fill="#FFFFFF" d="M569.814,399.359c0,0.551-0.446,0.998-1.001,0.998c-0.551,0-0.997-0.447-0.997-0.998
			c0-0.552,0.446-1.001,0.997-1.001C569.367,398.358,569.814,398.808,569.814,399.359z"/>
		<path d="M568.813,400.857c-0.825,0-1.497-0.672-1.497-1.498c0-0.828,0.672-1.501,1.497-1.501c0.828,0,1.501,0.673,1.501,1.501
			C570.314,400.185,569.641,400.857,568.813,400.857z M568.813,398.858c-0.274,0-0.497,0.225-0.497,0.501
			c0,0.274,0.223,0.498,0.497,0.498c0.276,0,0.501-0.224,0.501-0.498C569.314,399.083,569.089,398.858,568.813,398.858z"/>
	</g>
</g>
<g>
	<g>
		<circle cx="335.059" cy="455.738" r="2.916"/>
	</g>
	<g>
		<circle fill="#FFFFFF" cx="335.059" cy="455.74" r="0.999"/>
		<path d="M335.057,457.237c-0.826,0-1.497-0.672-1.497-1.497c0-0.828,0.671-1.502,1.497-1.502c0.828,0,1.501,0.674,1.501,1.502
			C336.558,456.565,335.885,457.237,335.057,457.237z M335.057,455.238c-0.274,0-0.497,0.226-0.497,0.502
			c0,0.274,0.223,0.497,0.497,0.497c0.276,0,0.501-0.223,0.501-0.497C335.558,455.464,335.333,455.238,335.057,455.238z"/>
	</g>
</g>
<g>
	<g>
		<circle cx="293.892" cy="371.107" r="2.916"/>
	</g>
	<g>
		<circle fill="#FFFFFF" cx="293.892" cy="371.109" r="0.999"/>
		<path d="M293.89,372.606c-0.826,0-1.497-0.672-1.497-1.497c0-0.828,0.671-1.502,1.497-1.502c0.828,0,1.502,0.674,1.502,1.502
			C295.392,371.935,294.718,372.606,293.89,372.606z M293.89,370.607c-0.274,0-0.497,0.226-0.497,0.502
			c0,0.274,0.223,0.497,0.497,0.497c0.277,0,0.502-0.223,0.502-0.497C294.392,370.833,294.167,370.607,293.89,370.607z"/>
	</g>
</g>
<g>
	<g>
		<circle cx="253.27" cy="297.201" r="2.916"/>
	</g>
	<g>
		<circle fill="#FFFFFF" cx="253.27" cy="297.201" r="0.999"/>
		<path d="M253.268,298.7c-0.826,0-1.497-0.672-1.497-1.499s0.671-1.499,1.497-1.499c0.828,0,1.502,0.672,1.502,1.499
			C254.77,298.027,254.096,298.7,253.268,298.7z M253.268,296.702c-0.274,0-0.497,0.224-0.497,0.499s0.223,0.499,0.497,0.499
			c0.277,0,0.502-0.224,0.502-0.499C253.77,296.925,253.545,296.702,253.268,296.702z"/>
	</g>
</g>
<g>
	<g>
		<circle cx="527.851" cy="148.999" r="2.916"/>
	</g>
	<g>
		<circle fill="#FFFFFF" cx="527.851" cy="148.999" r="0.999"/>
		<path d="M527.849,150.498c-0.825,0-1.497-0.672-1.497-1.499s0.672-1.501,1.497-1.501c0.828,0,1.502,0.673,1.502,1.501
			C529.351,149.826,528.677,150.498,527.849,150.498z M527.849,148.499c-0.274,0-0.497,0.225-0.497,0.501
			c0,0.275,0.223,0.499,0.497,0.499c0.276,0,0.502-0.224,0.502-0.499C528.351,148.724,528.125,148.499,527.849,148.499z"/>
	</g>
</g>
<g>
	<g>
		<circle cx="406.356" cy="120.703" r="2.916"/>
	</g>
	<g>
		<path fill="#FFFFFF" d="M407.355,120.704c0,0.55-0.446,0.999-1.001,0.999c-0.55,0-0.997-0.448-0.997-0.999
			c0-0.552,0.447-1,0.997-1C406.908,119.703,407.355,120.151,407.355,120.704z"/>
		<path d="M406.354,122.202c-0.826,0-1.497-0.672-1.497-1.499s0.671-1.5,1.497-1.5c0.828,0,1.501,0.673,1.501,1.5
			C407.855,121.53,407.181,122.202,406.354,122.202z M406.354,120.203c-0.274,0-0.497,0.225-0.497,0.5s0.223,0.499,0.497,0.499
			c0.276,0,0.501-0.224,0.501-0.499C406.855,120.428,406.63,120.203,406.354,120.203z"/>
	</g>
</g>
<g>
	<g>
		<circle cx="441.518" cy="159.627" r="2.916"/>
	</g>
	<g>
		<circle fill="#FFFFFF" cx="441.518" cy="159.628" r="0.999"/>
		<path d="M441.516,161.127c-0.825,0-1.497-0.672-1.497-1.499s0.672-1.501,1.497-1.501c0.828,0,1.502,0.673,1.502,1.501
			C443.018,160.455,442.344,161.127,441.516,161.127z M441.516,159.128c-0.274,0-0.497,0.225-0.497,0.501
			c0,0.275,0.223,0.499,0.497,0.499c0.276,0,0.502-0.224,0.502-0.499C442.018,159.352,441.792,159.128,441.516,159.128z"/>
	</g>
</g>
<g>
	<g>
		<circle cx="457.083" cy="193.651" r="2.916"/>
	</g>
	<g>
		<circle fill="#FFFFFF" cx="457.083" cy="193.652" r="0.999"/>
		<path d="M457.081,195.15c-0.826,0-1.498-0.672-1.498-1.499s0.672-1.5,1.498-1.5c0.827,0,1.501,0.673,1.501,1.5
			S457.908,195.15,457.081,195.15z M457.081,193.152c-0.274,0-0.498,0.224-0.498,0.5c0,0.275,0.224,0.499,0.498,0.499
			c0.276,0,0.501-0.224,0.501-0.499C457.582,193.376,457.358,193.152,457.081,193.152z"/>
	</g>
</g>
<g>
	<g>
		<circle cx="504.827" cy="388.915" r="2.916"/>
	</g>
	<g>
		<circle fill="#FFFFFF" cx="504.828" cy="388.915" r="1"/>
		<path d="M504.825,390.414c-0.825,0-1.497-0.673-1.497-1.499c0-0.827,0.672-1.5,1.497-1.5c0.828,0,1.502,0.673,1.502,1.5
			C506.327,389.741,505.654,390.414,504.825,390.414z M504.825,388.415c-0.274,0-0.497,0.225-0.497,0.5s0.223,0.499,0.497,0.499
			c0.276,0,0.502-0.224,0.502-0.499S505.102,388.415,504.825,388.415z"/>
	</g>
</g>
<g>
	<g>
		<circle cx="515.554" cy="421.272" r="2.916"/>
	</g>
	<g>
		<circle fill="#FFFFFF" cx="515.554" cy="421.274" r="0.999"/>
		<path d="M515.552,422.772c-0.826,0-1.498-0.672-1.498-1.497c0-0.828,0.672-1.502,1.498-1.502c0.827,0,1.501,0.674,1.501,1.502
			C517.053,422.1,516.379,422.772,515.552,422.772z M515.552,420.772c-0.274,0-0.498,0.225-0.498,0.502
			c0,0.274,0.224,0.497,0.498,0.497c0.276,0,0.501-0.223,0.501-0.497C516.053,420.998,515.828,420.772,515.552,420.772z"/>
	</g>
</g>
<g>
	<g>
		<circle cx="496.684" cy="356.55" r="2.916"/>
	</g>
	<g>
		<circle fill="#FFFFFF" cx="496.684" cy="356.55" r="0.999"/>
		<path d="M496.682,358.049c-0.825,0-1.497-0.673-1.497-1.499c0-0.827,0.672-1.5,1.497-1.5c0.828,0,1.502,0.673,1.502,1.5
			C498.184,357.376,497.51,358.049,496.682,358.049z M496.682,356.05c-0.275,0-0.497,0.225-0.497,0.5s0.223,0.499,0.497,0.499
			c0.276,0,0.502-0.224,0.502-0.499S496.958,356.05,496.682,356.05z"/>
	</g>
</g>
<g>
	<g>
		<circle cx="465.215" cy="467.725" r="5.071"/>
	</g>
	<g>
		<circle fill="#FFFFFF" cx="465.215" cy="467.725" r="1.249"/>
		<path d="M465.215,469.474c-0.965,0-1.749-0.784-1.749-1.749s0.784-1.749,1.749-1.749s1.749,0.784,1.749,1.749
			S466.18,469.474,465.215,469.474z M465.215,466.976c-0.413,0-0.749,0.336-0.749,0.749s0.336,0.749,0.749,0.749
			s0.749-0.336,0.749-0.749C465.964,467.311,465.628,466.976,465.215,466.976z"/>
	</g>
</g>
<g>
	<g>
		<circle cx="447.181" cy="277.326" r="5.071"/>
	</g>
	<g>
		<circle fill="#FFFFFF" cx="447.18" cy="277.326" r="0.955"/>
		<path d="M447.181,278.781c-0.803,0-1.455-0.653-1.455-1.455c0-0.802,0.652-1.454,1.455-1.454c0.802,0,1.454,0.652,1.454,1.454
			C448.635,278.128,447.983,278.781,447.181,278.781z M447.181,276.872c-0.251,0-0.455,0.204-0.455,0.454
			c0,0.251,0.204,0.455,0.455,0.455c0.25,0,0.454-0.204,0.454-0.455C447.635,277.075,447.431,276.872,447.181,276.872z"/>
	</g>
</g>
<g>
	<g>
		<circle cx="385.085" cy="143.901" r="5.071"/>
	</g>
	<g>
		<circle fill="#FFFFFF" cx="385.085" cy="143.901" r="1.249"/>
		<path d="M385.085,145.65c-0.964,0-1.749-0.785-1.749-1.749c0-0.965,0.785-1.749,1.749-1.749s1.749,0.785,1.749,1.749
			C386.834,144.865,386.05,145.65,385.085,145.65z M385.085,143.151c-0.413,0-0.749,0.336-0.749,0.749s0.336,0.749,0.749,0.749
			s0.749-0.336,0.749-0.749S385.498,143.151,385.085,143.151z"/>
	</g>
</g>
<g>
	<g>
		<circle cx="557.486" cy="182.956" r="5.071"/>
	</g>
	<g>
		<circle fill="#FFFFFF" cx="557.486" cy="182.956" r="1.249"/>
		<path d="M557.486,184.706c-0.965,0-1.749-0.785-1.749-1.749c0-0.965,0.784-1.749,1.749-1.749c0.965,0,1.749,0.785,1.749,1.749
			C559.235,183.921,558.45,184.706,557.486,184.706z M557.486,182.207c-0.413,0-0.749,0.337-0.749,0.749
			c0,0.413,0.336,0.749,0.749,0.749c0.413,0,0.749-0.336,0.749-0.749C558.235,182.544,557.899,182.207,557.486,182.207z"/>
	</g>
</g>
<g>
	<g>
		<circle cx="573.886" cy="213.074" r="5.071"/>
	</g>
	<g>
		<circle fill="#FFFFFF" cx="573.886" cy="212.78" r="1.249"/>
		<path d="M573.886,214.529c-0.965,0-1.75-0.785-1.75-1.749c0-0.965,0.785-1.749,1.75-1.749s1.749,0.785,1.749,1.749
			S574.851,214.529,573.886,214.529z M573.886,212.03c-0.413,0-0.75,0.336-0.75,0.749s0.337,0.749,0.75,0.749
			s0.749-0.336,0.749-0.749S574.299,212.03,573.886,212.03z"/>
	</g>
</g>
<g>
	<g>
		<circle cx="557.486" cy="249.296" r="5.071"/>
	</g>
	<g>
		<circle fill="#FFFFFF" cx="557.485" cy="249.296" r="0.955"/>
		<path d="M557.486,250.751c-0.803,0-1.455-0.652-1.455-1.455c0-0.802,0.652-1.455,1.455-1.455c0.802,0,1.454,0.652,1.454,1.455
			C558.94,250.099,558.287,250.751,557.486,250.751z M557.486,248.842c-0.251,0-0.455,0.204-0.455,0.455s0.204,0.455,0.455,0.455
			c0.25,0,0.454-0.204,0.454-0.455S557.736,248.842,557.486,248.842z"/>
	</g>
</g>
<g>
	<g>
		<circle cx="331.009" cy="156.628" r="8.103"/>
	</g>
	<g>
		<circle fill="#FFFFFF" cx="331.009" cy="156.627" r="1.998"/>
		<path d="M331.008,159.126c-1.377,0-2.498-1.121-2.498-2.499c0-1.378,1.121-2.498,2.498-2.498c1.378,0,2.499,1.121,2.499,2.498
			C333.507,158.005,332.386,159.126,331.008,159.126z M331.008,155.129c-0.826,0-1.498,0.672-1.498,1.498
			c0,0.827,0.672,1.499,1.498,1.499c0.827,0,1.499-0.672,1.499-1.499C332.507,155.801,331.835,155.129,331.008,155.129z"/>
	</g>
</g>
<g>
	<g>
		<circle cx="349.055" cy="210.92" r="8.103"/>
	</g>
	<g>
		<circle fill="#FFFFFF" cx="349.054" cy="210.919" r="1.998"/>
		<path d="M349.054,213.419c-1.377,0-2.498-1.121-2.498-2.499c0-1.377,1.121-2.498,2.498-2.498c1.378,0,2.499,1.121,2.499,2.498
			C351.553,212.298,350.432,213.419,349.054,213.419z M349.054,209.421c-0.826,0-1.498,0.672-1.498,1.498
			c0,0.827,0.672,1.499,1.498,1.499c0.827,0,1.499-0.673,1.499-1.499C350.553,210.093,349.881,209.421,349.054,209.421z"/>
	</g>
</g>
<g>
	<g>
		<circle cx="283.23" cy="331.014" r="8.103"/>
	</g>
	<g>
		<circle fill="#FFFFFF" cx="283.229" cy="331.014" r="1.999"/>
		<path d="M283.229,333.513c-1.378,0-2.499-1.121-2.499-2.499s1.121-2.499,2.499-2.499s2.499,1.121,2.499,2.499
			C285.728,332.392,284.607,333.513,283.229,333.513z M283.229,329.515c-0.827,0-1.499,0.673-1.499,1.499s0.672,1.499,1.499,1.499
			c0.827,0,1.499-0.673,1.499-1.499C284.728,330.188,284.056,329.515,283.229,329.515z"/>
	</g>
</g>
<g>
	<g>
		<circle cx="422.539" cy="369.108" r="7.644"/>
	</g>
	<g>
		<path fill="#FFFFFF" d="M424.538,369.108c0,1.103-0.895,1.999-1.999,1.999c-1.105,0-1.999-0.896-1.999-1.999
			c0-1.107,0.895-1.999,1.999-1.999C423.644,367.109,424.538,368.001,424.538,369.108z"/>
		<path d="M422.539,371.607c-1.378,0-2.499-1.121-2.499-2.499s1.121-2.499,2.499-2.499s2.499,1.121,2.499,2.499
			S423.917,371.607,422.539,371.607z M422.539,367.609c-0.827,0-1.499,0.673-1.499,1.499s0.672,1.499,1.499,1.499
			c0.826,0,1.499-0.673,1.499-1.499S423.365,367.609,422.539,367.609z"/>
	</g>
</g>
<g>
	<g>
		<circle cx="514.555" cy="319.267" r="8.103"/>
	</g>
	<g>
		<circle fill="#FFFFFF" cx="514.555" cy="319.265" r="1.998"/>
		<path d="M514.554,321.766c-1.377,0-2.498-1.122-2.498-2.501c0-1.376,1.121-2.496,2.498-2.496c1.378,0,2.499,1.12,2.499,2.496
			C517.053,320.644,515.932,321.766,514.554,321.766z M514.554,317.769c-0.826,0-1.498,0.671-1.498,1.496
			c0,0.828,0.672,1.501,1.498,1.501c0.826,0,1.499-0.673,1.499-1.501C516.053,318.44,515.38,317.769,514.554,317.769z"/>
	</g>
</g>
<g>
	<g>
		<circle cx="449.181" cy="129.449" r="8.103"/>
	</g>
	<g>
		<circle fill="#FFFFFF" cx="449.18" cy="129.449" r="1.998"/>
		<path d="M449.18,131.948c-1.378,0-2.499-1.121-2.499-2.499c0-1.377,1.121-2.498,2.499-2.498c1.377,0,2.498,1.121,2.498,2.498
			C451.678,130.827,450.557,131.948,449.18,131.948z M449.18,127.951c-0.826,0-1.499,0.672-1.499,1.498
			c0,0.827,0.673,1.499,1.499,1.499s1.498-0.673,1.498-1.499S450.006,127.951,449.18,127.951z"/>
	</g>
</g>
<g>
	<g>
		<circle cx="586.401" cy="282.829" r="8.103"/>
	</g>
	<g>
		<circle fill="#FFFFFF" cx="586.402" cy="282.829" r="1.999"/>
		<path d="M586.402,285.328c-1.378,0-2.499-1.121-2.499-2.499s1.121-2.499,2.499-2.499s2.499,1.121,2.499,2.499
			S587.78,285.328,586.402,285.328z M586.402,281.33c-0.826,0-1.499,0.672-1.499,1.499s0.673,1.499,1.499,1.499
			s1.499-0.672,1.499-1.499C587.901,282.002,587.228,281.33,586.402,281.33z"/>
	</g>
</g>
<g>
	<g>
		<circle cx="322.905" cy="405.155" r="8.103"/>
	</g>
	<g>
		<circle fill="#FFFFFF" cx="322.906" cy="405.155" r="1.999"/>
		<path d="M322.906,407.653c-1.378,0-2.498-1.121-2.498-2.498c0-1.378,1.121-2.499,2.498-2.499c1.378,0,2.499,1.121,2.499,2.499
			C325.405,406.532,324.284,407.653,322.906,407.653z M322.906,403.656c-0.826,0-1.498,0.673-1.498,1.499s0.672,1.498,1.498,1.498
			c0.827,0,1.499-0.672,1.499-1.498C324.405,404.329,323.732,403.656,322.906,403.656z"/>
	</g>
</g>
<g>
	<g>
		<circle cx="504.828" cy="452.819" r="8.104"/>
	</g>
	<g>
		<circle fill="#FFFFFF" cx="504.828" cy="452.819" r="1.999"/>
		<path d="M504.827,455.318c-1.377,0-2.498-1.121-2.498-2.499c0-1.377,1.121-2.498,2.498-2.498c1.378,0,2.499,1.121,2.499,2.498
			C507.326,454.197,506.205,455.318,504.827,455.318z M504.827,451.321c-0.826,0-1.498,0.672-1.498,1.498s0.672,1.499,1.498,1.499
			s1.499-0.673,1.499-1.499S505.654,451.321,504.827,451.321z"/>
	</g>
</g>
<g>
	<g>
		<circle cx="463.215" cy="402.404" r="8.104"/>
	</g>
	<g>
		<circle fill="#FFFFFF" cx="463.216" cy="402.404" r="1.999"/>
		<path d="M463.216,404.903c-1.378,0-2.499-1.121-2.499-2.499c0-1.377,1.121-2.498,2.499-2.498s2.499,1.121,2.499,2.498
			C465.715,403.782,464.594,404.903,463.216,404.903z M463.216,400.906c-0.826,0-1.499,0.672-1.499,1.498s0.673,1.499,1.499,1.499
			s1.499-0.673,1.499-1.499S464.042,400.906,463.216,400.906z"/>
	</g>
</g>
<g>
	<g>
		<circle cx="371.7" cy="465.726" r="8.104"/>
	</g>
	<g>
		<circle fill="#FFFFFF" cx="371.701" cy="465.724" r="1.998"/>
		<path d="M371.7,468.225c-1.377,0-2.498-1.122-2.498-2.501c0-1.376,1.121-2.496,2.498-2.496c1.378,0,2.499,1.12,2.499,2.496
			C374.2,467.103,373.078,468.225,371.7,468.225z M371.7,464.228c-0.826,0-1.498,0.671-1.498,1.496c0,0.828,0.672,1.501,1.498,1.501
			c0.827,0,1.499-0.673,1.499-1.501C373.2,464.898,372.527,464.228,371.7,464.228z"/>
	</g>
</g>
<g>
	<g>
		<circle cx="420.541" cy="241.898" r="8.103"/>
	</g>
	<g>
		<circle fill="#FFFFFF" cx="420.54" cy="241.898" r="1.999"/>
		<path d="M420.54,244.397c-1.378,0-2.499-1.121-2.499-2.499c0-1.378,1.121-2.499,2.499-2.499s2.499,1.121,2.499,2.499
			C423.039,243.276,421.918,244.397,420.54,244.397z M420.54,240.399c-0.827,0-1.499,0.672-1.499,1.499s0.672,1.499,1.499,1.499
			s1.499-0.673,1.499-1.499C422.039,241.071,421.367,240.399,420.54,240.399z"/>
	</g>
</g>
<g>
	<g>
		<circle cx="272.129" cy="271.312" r="8.103"/>
	</g>
	<g>
		<circle fill="#FFFFFF" cx="272.128" cy="271.312" r="1.999"/>
		<path d="M272.128,273.811c-1.378,0-2.499-1.121-2.499-2.499s1.121-2.499,2.499-2.499s2.498,1.121,2.498,2.499
			S273.506,273.811,272.128,273.811z M272.128,269.813c-0.827,0-1.499,0.672-1.499,1.499s0.672,1.499,1.499,1.499
			c0.826,0,1.498-0.672,1.498-1.499S272.954,269.813,272.128,269.813z"/>
	</g>
</g>
</svg>
