<?xml version="1.0" encoding="utf-8"?>
<!-- Generator: Adobe Illustrator 17.1.0, SVG Export Plug-In . SVG Version: 6.00 Build 0)  -->
<!DOCTYPE svg PUBLIC "-//W3C//DTD SVG 1.1//EN" "http://www.w3.org/Graphics/SVG/1.1/DTD/svg11.dtd">
<svg version="1.1" id="Ebene_1" xmlns="http://www.w3.org/2000/svg" xmlns:xlink="http://www.w3.org/1999/xlink" x="0px" y="0px"
	 viewBox="0 0 841.89 595.28" enable-background="new 0 0 841.89 595.28" xml:space="preserve">
<g>
	<polygon points="295.281,179.901 303.756,160.865 312.234,179.901 303.756,198.939 	"/>
</g>
<g>
	<polygon points="248.542,221.889 253.458,210.847 258.375,221.889 253.458,232.931 	"/>
</g>
<g>
	<polygon points="372.489,320.865 377.405,309.823 382.322,320.865 377.405,331.908 	"/>
</g>
<g>
	<polygon points="532.228,318.826 537.145,307.786 542.06,318.826 537.145,329.868 	"/>
</g>
<g>
	<polygon points="333.57,306.193 338.486,295.152 343.403,306.193 338.486,317.235 	"/>
</g>
<g>
	<polygon points="401.032,361.119 405.948,350.079 410.864,361.119 405.948,372.161 	"/>
</g>
<g>
	<polygon points="298.841,327.992 303.756,316.952 308.673,327.992 303.756,339.034 	"/>
</g>
<g>
	<polygon points="347.662,352.157 352.578,341.115 357.495,352.157 352.578,363.199 	"/>
</g>
<g>
	<polygon points="469.694,284.835 474.611,273.793 479.528,284.835 474.611,295.877 	"/>
</g>
<g>
	<polygon points="356.338,272.809 361.255,261.767 366.172,272.809 361.255,283.851 	"/>
</g>
<g>
	<polygon points="332.528,202.616 337.445,191.575 342.361,202.616 337.445,213.659 	"/>
</g>
<g>
	<polygon points="469.694,166.818 474.611,155.777 479.528,166.818 474.611,177.861 	"/>
</g>
<g>
	<polygon points="587.25,242.73 592.164,231.689 597.082,242.73 592.164,253.772 	"/>
</g>
<g>
	<polygon points="401.032,207.704 405.949,196.663 410.865,207.704 405.949,218.747 	"/>
</g>
<g>
	<polygon points="532.228,261.767 537.145,250.725 542.06,261.767 537.145,272.809 	"/>
</g>
<g>
	<polygon points="447.243,247.778 452.157,236.736 457.075,247.778 452.157,258.821 	"/>
</g>
<g>
	<polygon points="569.116,396.184 574.033,385.142 578.95,396.184 574.033,407.226 	"/>
</g>
<g>
	<polygon points="515.455,444.157 520.372,433.114 525.289,444.157 520.372,455.199 	"/>
</g>
<g>
	<polygon points="566.465,204.893 571.382,193.851 576.297,204.893 571.382,215.935 	"/>
</g>
<g>
	<polygon points="414.77,307.786 417.42,301.83 420.072,307.786 417.42,313.739 	"/>
</g>
<g>
	<polygon points="434.373,280.805 437.024,274.85 439.674,280.805 437.024,286.758 	"/>
</g>
<g>
	<polygon points="293.986,290.79 296.638,284.835 299.287,290.79 296.638,296.744 	"/>
</g>
<g>
	<polygon points="236.218,282.795 238.868,276.84 241.521,282.795 238.868,288.749 	"/>
</g>
<g>
	<polygon points="460.831,139.788 463.481,133.833 466.133,139.788 463.481,145.741 	"/>
</g>
<g>
	<polygon points="492.674,133.835 495.325,127.88 497.975,133.835 495.325,139.788 	"/>
</g>
<g>
	<polygon points="282.243,223.835 284.895,217.881 287.545,223.835 284.895,229.789 	"/>
</g>
<g>
	<polygon points="472.789,329.868 475.442,323.915 478.091,329.868 475.442,335.821 	"/>
</g>
<g>
	<polygon points="441.943,314.912 444.595,308.959 447.244,314.912 444.595,320.865 	"/>
</g>
<g>
	<polygon points="512.804,336.995 515.455,331.041 518.106,336.995 515.455,342.948 	"/>
</g>
<g>
	<polygon points="366.557,195.724 369.206,189.769 371.858,195.724 369.206,201.677 	"/>
</g>
<g>
	<polygon points="353.687,234.696 356.338,228.742 358.989,234.696 356.338,240.65 	"/>
</g>
<g>
	<polygon points="446.858,185.621 449.508,179.667 452.159,185.621 449.508,191.574 	"/>
</g>
<g>
	<polygon points="425.896,120.752 428.548,114.797 431.198,120.752 428.548,126.705 	"/>
</g>
<g>
	<polygon points="385.898,127.88 388.547,121.926 391.2,127.88 388.547,133.834 	"/>
</g>
<g>
	<polygon points="380.056,160.865 382.707,154.911 385.358,160.865 382.707,166.818 	"/>
</g>
<g>
	<polygon points="326.84,139.788 329.491,133.833 332.142,139.788 329.491,145.741 	"/>
</g>
<g>
	<polygon points="349.928,160.001 352.578,154.046 355.229,160.001 352.578,165.954 	"/>
</g>
<g>
	<polygon points="271.055,258.861 273.706,252.907 276.357,258.861 273.706,264.814 	"/>
</g>
<g>
	<polygon points="313.59,367.074 316.241,361.121 318.892,367.074 316.241,373.027 	"/>
</g>
<g>
	<polygon points="277.326,418.034 279.978,412.08 282.628,418.034 279.978,423.987 	"/>
</g>
<g>
	<polygon points="566.465,309.825 569.115,303.87 571.767,309.825 569.115,315.779 	"/>
</g>
<g>
	<polygon points="505.369,309.823 508.02,303.87 510.671,309.823 508.02,315.779 	"/>
</g>
<g>
	<polygon points="434.373,213.895 437.024,207.94 439.674,213.895 437.024,219.848 	"/>
</g>
<g>
	<polygon points="571.382,271.904 574.032,265.948 576.684,271.904 574.032,277.857 	"/>
</g>
<g>
	<polygon points="471.957,207.705 474.607,201.75 477.259,207.705 474.607,213.659 	"/>
</g>
<g>
	<polygon points="512.804,165.955 515.453,160 518.106,165.955 515.453,171.908 	"/>
</g>
<g>
	<polygon points="512.804,283.851 515.455,277.898 518.106,283.851 515.455,289.805 	"/>
</g>
<g>
	<polygon points="465.222,394.146 467.872,388.192 470.524,394.146 467.872,400.1 	"/>
</g>
<g>
	<polygon points="449.895,420.033 452.546,414.079 455.199,420.033 452.546,425.986 	"/>
</g>
<g>
	<polygon points="587.248,358.111 589.897,352.157 592.549,358.111 589.897,364.065 	"/>
</g>
<g>
	<polygon points="547.596,229.789 550.246,223.834 552.898,229.789 550.246,235.742 	"/>
</g>
<g>
	<polygon points="508.018,396.145 510.669,390.19 513.322,396.145 510.669,402.099 	"/>
</g>
<g>
	<polygon points="550.246,347.938 552.898,341.982 555.548,347.938 552.898,353.891 	"/>
</g>
<g>
	<polygon points="544.063,420.033 546.711,414.077 549.363,420.033 546.711,425.986 	"/>
</g>
<g>
	<polygon points="452.548,472.972 455.197,467.017 457.849,472.972 455.197,478.925 	"/>
</g>
<g>
	<polygon points="489.514,358.979 492.164,353.024 494.815,358.979 492.164,364.933 	"/>
</g>
<g>
	<polygon points="490.023,462.022 492.674,456.065 495.325,462.022 492.674,467.975 	"/>
</g>
<g>
	<polygon points="334.409,402.17 337.059,396.215 339.711,402.17 337.059,408.124 	"/>
</g>
<g>
	<polygon points="370.545,383.103 373.196,377.148 375.848,383.103 373.196,389.058 	"/>
</g>
<g>
	<polygon points="403.298,405.189 405.947,399.232 408.599,405.189 405.947,411.142 	"/>
</g>
<g>
	<polygon points="377.945,450.112 380.595,444.157 383.246,450.112 380.595,456.065 	"/>
</g>
<g>
	<polygon points="247.935,364.933 250.584,358.978 253.236,364.933 250.584,370.887 	"/>
</g>
<g>
	<polygon points="506.976,198.939 509.628,192.984 512.278,198.939 509.628,204.893 	"/>
</g>
<g>
	<polygon points="273.706,367.074 278.622,356.032 283.538,367.074 278.622,378.116 	"/>
</g>
<g>
	<polygon points="327.227,452.068 332.144,441.026 337.06,452.068 332.144,463.11 	"/>
</g>
<g>
	<polygon points="396.115,473.061 401.032,462.02 405.949,473.061 401.032,484.103 	"/>
</g>
<g>
	<polygon points="417.42,159.999 425.896,140.963 434.373,159.999 425.896,179.036 	"/>
</g>
<g>
	<polygon points="533.585,177.86 542.06,158.824 550.537,177.86 542.06,196.897 	"/>
</g>
<g>
	<polygon points="489.5,236.735 497.975,217.699 506.452,236.735 497.975,255.774 	"/>
</g>
<g>
	<polygon points="391.645,261.767 400.121,242.73 408.599,261.767 400.121,280.804 	"/>
</g>
<g>
	<polygon points="441.032,367.074 449.508,348.037 457.986,367.074 449.508,386.111 	"/>
</g>
<g>
	<polygon points="592.729,309.823 601.204,290.788 609.682,309.823 601.204,328.861 	"/>
</g>
<g>
	<polygon points="420.072,439.07 428.546,420.033 437.024,439.07 428.546,458.107 	"/>
</g>
<g>
	<polygon points="357.695,420.033 366.171,400.995 374.649,420.033 366.171,439.07 	"/>
</g>
<g>
	<polygon points="296.637,412.08 305.113,393.043 313.59,412.08 305.113,431.116 	"/>
</g>
<g>
	<polygon points="478.895,423.987 487.37,404.952 495.85,423.987 487.37,443.024 	"/>
</g>
<g>
	<polygon points="528.668,377.147 537.143,358.111 545.62,377.147 537.143,396.184 	"/>
</g>
<g>
	<polygon points="249.898,314.91 258.373,295.875 266.853,314.91 258.373,333.947 	"/>
</g>
<g>
	<polygon points="309.599,252.865 318.074,233.83 326.553,252.865 318.074,271.903 	"/>
</g>
</svg>
