<?xml version="1.0" encoding="utf-8"?>
<!-- Generator: Adobe Illustrator 17.1.0, SVG Export Plug-In . SVG Version: 6.00 Build 0)  -->
<!DOCTYPE svg PUBLIC "-//W3C//DTD SVG 1.1//EN" "http://www.w3.org/Graphics/SVG/1.1/DTD/svg11.dtd">
<svg version="1.1" id="Ebene_1" xmlns="http://www.w3.org/2000/svg" xmlns:xlink="http://www.w3.org/1999/xlink" x="0px" y="0px"
	 viewBox="0 0 595.28 595.28" enable-background="new 0 0 595.28 595.28" xml:space="preserve">
<g>
	<path fill="#FFFFFF" d="M297.637,488.059c-105.389,0-191.129-85.741-191.129-191.131c0-105.388,85.74-191.128,191.129-191.128
		c105.39,0,191.131,85.74,191.131,191.128C488.768,402.317,403.026,488.059,297.637,488.059z M297.637,106.799
		c-104.837,0-190.129,85.291-190.129,190.128c0,104.838,85.292,190.131,190.129,190.131c104.839,0,190.131-85.293,190.131-190.131
		C487.768,192.09,402.476,106.799,297.637,106.799z"/>
</g>
<g>
	<polygon points="171.976,179.901 180.451,160.865 188.929,179.901 180.451,198.939 	"/>
</g>
<g>
	<polygon points="125.237,221.889 130.153,210.847 135.07,221.889 130.153,232.931 	"/>
</g>
<g>
	<polygon points="249.184,320.865 254.1,309.823 259.017,320.865 254.1,331.908 	"/>
</g>
<g>
	<polygon points="408.923,318.826 413.84,307.786 418.755,318.826 413.84,329.868 	"/>
</g>
<g>
	<polygon points="210.265,306.193 215.181,295.152 220.098,306.193 215.181,317.235 	"/>
</g>
<g>
	<polygon points="277.727,361.119 282.643,350.079 287.559,361.119 282.643,372.161 	"/>
</g>
<g>
	<polygon points="175.536,327.992 180.451,316.952 185.368,327.992 180.451,339.034 	"/>
</g>
<g>
	<polygon points="224.357,352.157 229.273,341.115 234.19,352.157 229.273,363.199 	"/>
</g>
<g>
	<polygon points="346.389,284.835 351.306,273.793 356.223,284.835 351.306,295.877 	"/>
</g>
<g>
	<polygon points="233.033,272.809 237.95,261.767 242.867,272.809 237.95,283.851 	"/>
</g>
<g>
	<polygon points="209.223,202.616 214.14,191.575 219.056,202.616 214.14,213.659 	"/>
</g>
<g>
	<polygon points="346.389,166.818 351.306,155.777 356.223,166.818 351.306,177.861 	"/>
</g>
<g>
	<polygon points="463.945,242.73 468.859,231.689 473.777,242.73 468.859,253.772 	"/>
</g>
<g>
	<polygon points="277.727,207.704 282.644,196.663 287.56,207.704 282.644,218.747 	"/>
</g>
<g>
	<polygon points="408.923,261.767 413.84,250.725 418.755,261.767 413.84,272.809 	"/>
</g>
<g>
	<polygon points="323.938,247.778 328.852,236.736 333.77,247.778 328.852,258.821 	"/>
</g>
<g>
	<polygon points="445.811,396.184 450.728,385.142 455.645,396.184 450.728,407.226 	"/>
</g>
<g>
	<polygon points="392.15,444.157 397.067,433.114 401.984,444.157 397.067,455.199 	"/>
</g>
<g>
	<polygon points="443.16,204.893 448.077,193.851 452.992,204.893 448.077,215.935 	"/>
</g>
<g>
	<polygon points="291.465,307.786 294.115,301.83 296.767,307.786 294.115,313.739 	"/>
</g>
<g>
	<polygon points="311.068,280.805 313.719,274.85 316.369,280.805 313.719,286.758 	"/>
</g>
<g>
	<polygon points="170.681,290.79 173.333,284.835 175.982,290.79 173.333,296.744 	"/>
</g>
<g>
	<polygon points="112.913,282.795 115.563,276.84 118.216,282.795 115.563,288.749 	"/>
</g>
<g>
	<polygon points="337.526,139.788 340.176,133.833 342.828,139.788 340.176,145.741 	"/>
</g>
<g>
	<polygon points="369.369,133.835 372.02,127.88 374.67,133.835 372.02,139.788 	"/>
</g>
<g>
	<polygon points="158.938,223.835 161.59,217.881 164.24,223.835 161.59,229.789 	"/>
</g>
<g>
	<polygon points="349.484,329.868 352.137,323.915 354.786,329.868 352.137,335.821 	"/>
</g>
<g>
	<polygon points="318.638,314.912 321.29,308.959 323.939,314.912 321.29,320.865 	"/>
</g>
<g>
	<polygon points="389.499,336.995 392.15,331.041 394.801,336.995 392.15,342.948 	"/>
</g>
<g>
	<polygon points="243.252,195.724 245.901,189.769 248.553,195.724 245.901,201.677 	"/>
</g>
<g>
	<polygon points="230.382,234.696 233.033,228.742 235.684,234.696 233.033,240.65 	"/>
</g>
<g>
	<polygon points="323.553,185.621 326.203,179.667 328.854,185.621 326.203,191.574 	"/>
</g>
<g>
	<polygon points="302.591,120.752 305.243,114.797 307.893,120.752 305.243,126.705 	"/>
</g>
<g>
	<polygon points="262.593,127.88 265.242,121.926 267.895,127.88 265.242,133.834 	"/>
</g>
<g>
	<polygon points="256.751,160.865 259.402,154.911 262.053,160.865 259.402,166.818 	"/>
</g>
<g>
	<polygon points="203.535,139.788 206.186,133.833 208.837,139.788 206.186,145.741 	"/>
</g>
<g>
	<polygon points="226.623,160.001 229.273,154.046 231.924,160.001 229.273,165.954 	"/>
</g>
<g>
	<polygon points="147.75,258.861 150.401,252.907 153.052,258.861 150.401,264.814 	"/>
</g>
<g>
	<polygon points="190.285,367.074 192.936,361.121 195.587,367.074 192.936,373.027 	"/>
</g>
<g>
	<polygon points="154.021,418.034 156.673,412.08 159.323,418.034 156.673,423.987 	"/>
</g>
<g>
	<polygon points="443.16,309.825 445.81,303.87 448.462,309.825 445.81,315.779 	"/>
</g>
<g>
	<polygon points="382.064,309.823 384.715,303.87 387.366,309.823 384.715,315.779 	"/>
</g>
<g>
	<polygon points="311.068,213.895 313.719,207.94 316.369,213.895 313.719,219.848 	"/>
</g>
<g>
	<polygon points="448.077,271.904 450.727,265.948 453.379,271.904 450.727,277.857 	"/>
</g>
<g>
	<polygon points="348.652,207.705 351.302,201.75 353.954,207.705 351.302,213.659 	"/>
</g>
<g>
	<polygon points="389.499,165.955 392.148,160 394.801,165.955 392.148,171.908 	"/>
</g>
<g>
	<polygon points="389.499,283.851 392.15,277.898 394.801,283.851 392.15,289.805 	"/>
</g>
<g>
	<polygon points="341.917,394.146 344.567,388.192 347.219,394.146 344.567,400.1 	"/>
</g>
<g>
	<polygon points="326.59,420.033 329.241,414.079 331.894,420.033 329.241,425.986 	"/>
</g>
<g>
	<polygon points="463.943,358.111 466.592,352.157 469.244,358.111 466.592,364.065 	"/>
</g>
<g>
	<polygon points="424.291,229.789 426.941,223.834 429.593,229.789 426.941,235.742 	"/>
</g>
<g>
	<polygon points="384.713,396.145 387.364,390.19 390.017,396.145 387.364,402.099 	"/>
</g>
<g>
	<polygon points="426.941,347.938 429.593,341.982 432.243,347.938 429.593,353.891 	"/>
</g>
<g>
	<polygon points="420.758,420.033 423.406,414.077 426.058,420.033 423.406,425.986 	"/>
</g>
<g>
	<polygon points="329.243,472.972 331.892,467.017 334.544,472.972 331.892,478.925 	"/>
</g>
<g>
	<polygon points="366.209,358.979 368.859,353.024 371.51,358.979 368.859,364.933 	"/>
</g>
<g>
	<polygon points="366.718,462.022 369.369,456.065 372.02,462.022 369.369,467.975 	"/>
</g>
<g>
	<polygon points="211.104,402.17 213.754,396.215 216.406,402.17 213.754,408.124 	"/>
</g>
<g>
	<polygon points="247.24,383.103 249.891,377.148 252.543,383.103 249.891,389.058 	"/>
</g>
<g>
	<polygon points="279.993,405.189 282.642,399.232 285.294,405.189 282.642,411.142 	"/>
</g>
<g>
	<polygon points="254.64,450.112 257.29,444.157 259.941,450.112 257.29,456.065 	"/>
</g>
<g>
	<polygon points="124.63,364.933 127.279,358.978 129.931,364.933 127.279,370.887 	"/>
</g>
<g>
	<polygon points="383.671,198.939 386.323,192.984 388.973,198.939 386.323,204.893 	"/>
</g>
<g>
	<polygon points="150.401,367.074 155.317,356.032 160.233,367.074 155.317,378.116 	"/>
</g>
<g>
	<polygon points="203.922,452.068 208.839,441.026 213.755,452.068 208.839,463.11 	"/>
</g>
<g>
	<polygon points="272.81,473.061 277.727,462.02 282.644,473.061 277.727,484.103 	"/>
</g>
<g>
	<polygon points="294.115,159.999 302.591,140.963 311.068,159.999 302.591,179.036 	"/>
</g>
<g>
	<polygon points="410.28,177.86 418.755,158.824 427.232,177.86 418.755,196.897 	"/>
</g>
<g>
	<polygon points="366.195,236.735 374.67,217.699 383.147,236.735 374.67,255.774 	"/>
</g>
<g>
	<polygon points="268.34,261.767 276.816,242.73 285.294,261.767 276.816,280.804 	"/>
</g>
<g>
	<polygon points="317.727,367.074 326.203,348.037 334.681,367.074 326.203,386.111 	"/>
</g>
<g>
	<polygon points="469.424,309.823 477.899,290.788 486.377,309.823 477.899,328.861 	"/>
</g>
<g>
	<polygon points="296.767,439.07 305.241,420.033 313.719,439.07 305.241,458.107 	"/>
</g>
<g>
	<polygon points="234.39,420.033 242.866,400.995 251.344,420.033 242.866,439.07 	"/>
</g>
<g>
	<polygon points="173.332,412.08 181.808,393.043 190.285,412.08 181.808,431.116 	"/>
</g>
<g>
	<polygon points="355.59,423.987 364.065,404.952 372.545,423.987 364.065,443.024 	"/>
</g>
<g>
	<polygon points="405.363,377.147 413.838,358.111 422.315,377.147 413.838,396.184 	"/>
</g>
<g>
	<polygon points="126.593,314.91 135.068,295.875 143.548,314.91 135.068,333.947 	"/>
</g>
<g>
	<polygon points="186.294,252.865 194.769,233.83 203.248,252.865 194.769,271.903 	"/>
</g>
</svg>
