<?xml version="1.0" encoding="utf-8"?>
<!-- Generator: Adobe Illustrator 17.1.0, SVG Export Plug-In . SVG Version: 6.00 Build 0)  -->
<!DOCTYPE svg PUBLIC "-//W3C//DTD SVG 1.1//EN" "http://www.w3.org/Graphics/SVG/1.1/DTD/svg11.dtd">
<svg version="1.1" id="Ebene_1" xmlns="http://www.w3.org/2000/svg" xmlns:xlink="http://www.w3.org/1999/xlink" x="0px" y="0px"
	 viewBox="0 0 595.28 595.28" enable-background="new 0 0 595.28 595.28" xml:space="preserve">
<g>
	<path fill="#FFFFFF" d="M297.636,488.059c-105.388,0-191.128-85.741-191.128-191.131c0-105.388,85.74-191.128,191.128-191.128
		c105.391,0,191.132,85.74,191.132,191.128C488.768,402.317,403.026,488.059,297.636,488.059z M297.636,106.799
		c-104.837,0-190.128,85.291-190.128,190.128c0,104.838,85.291,190.131,190.128,190.131c104.839,0,190.132-85.293,190.132-190.131
		C487.768,192.09,402.475,106.799,297.636,106.799z"/>
</g>
<g>
	<rect x="267.29" y="453.753" width="19.988" height="7.995"/>
</g>
<g>
	<rect x="227.311" y="453.753" width="19.988" height="7.995"/>
</g>
<g>
	<rect x="307.266" y="453.753" width="19.988" height="7.995"/>
</g>
<g>
	<rect x="347.239" y="453.753" width="19.988" height="7.995"/>
</g>
<g>
	<rect x="207.323" y="413.905" width="19.988" height="7.995"/>
</g>
<g>
	<rect x="167.347" y="413.905" width="19.988" height="7.995"/>
</g>
<g>
	<rect x="247.301" y="413.905" width="19.989" height="7.995"/>
</g>
<g>
	<rect x="287.275" y="413.905" width="19.989" height="7.995"/>
</g>
<g>
	<rect x="327.252" y="413.905" width="19.987" height="7.995"/>
</g>
<g>
	<rect x="367.228" y="413.905" width="19.988" height="7.995"/>
</g>
<g>
	<rect x="407.203" y="413.905" width="19.988" height="7.995"/>
</g>
<g>
	<rect x="187.212" y="373.658" width="19.987" height="7.995"/>
</g>
<g>
	<rect x="147.359" y="373.658" width="19.988" height="7.995"/>
</g>
<g>
	<rect x="227.311" y="373.658" width="19.99" height="7.995"/>
</g>
<g>
	<rect x="267.287" y="373.658" width="19.988" height="7.995"/>
</g>
<g>
	<rect x="307.264" y="373.658" width="19.988" height="7.995"/>
</g>
<g>
	<rect x="347.239" y="373.658" width="19.988" height="7.995"/>
</g>
<g>
	<rect x="387.216" y="373.658" width="19.987" height="7.995"/>
</g>
<g>
	<rect x="427.191" y="373.658" width="19.988" height="7.995"/>
</g>
<g>
	<rect x="167.411" y="334.846" width="19.987" height="7.995"/>
</g>
<g>
	<rect x="127.371" y="334.846" width="19.988" height="7.995"/>
</g>
<g>
	<rect x="207.325" y="334.846" width="19.988" height="7.995"/>
</g>
<g>
	<rect x="247.299" y="334.846" width="19.987" height="7.995"/>
</g>
<g>
	<rect x="287.275" y="334.846" width="19.989" height="7.995"/>
</g>
<g>
	<rect x="327.252" y="334.846" width="19.987" height="7.995"/>
</g>
<g>
	<rect x="367.228" y="334.846" width="19.988" height="7.995"/>
</g>
<g>
	<rect x="407.203" y="334.846" width="19.988" height="7.995"/>
</g>
<g>
	<rect x="447.18" y="334.846" width="19.988" height="7.995"/>
</g>
<g>
	<rect x="147.359" y="293.712" width="19.988" height="7.995"/>
</g>
<g>
	<rect x="107.716" y="293.712" width="19.654" height="7.995"/>
</g>
<g>
	<rect x="187.335" y="293.712" width="19.989" height="7.995"/>
</g>
<g>
	<rect x="227.373" y="293.712" width="19.988" height="7.995"/>
</g>
<g>
	<rect x="267.287" y="293.712" width="19.988" height="7.995"/>
</g>
<g>
	<rect x="306.953" y="293.712" width="19.988" height="7.995"/>
</g>
<g>
	<rect x="347.239" y="293.712" width="19.988" height="7.995"/>
</g>
<g>
	<rect x="387.216" y="293.712" width="19.987" height="7.995"/>
</g>
<g>
	<rect x="427.191" y="293.712" width="19.988" height="7.995"/>
</g>
<g>
	<rect x="467.041" y="293.712" width="19.987" height="7.995"/>
</g>
<g>
	<rect x="167.347" y="253.73" width="19.988" height="7.996"/>
</g>
<g>
	<rect x="127.371" y="253.73" width="19.988" height="7.996"/>
</g>
<g>
	<rect x="207.323" y="253.73" width="19.99" height="7.996"/>
</g>
<g>
	<rect x="247.301" y="253.73" width="19.987" height="7.996"/>
</g>
<g>
	<rect x="287.275" y="253.73" width="19.989" height="7.996"/>
</g>
<g>
	<rect x="327.252" y="253.73" width="19.987" height="7.996"/>
</g>
<g>
	<rect x="367.228" y="253.73" width="19.988" height="7.996"/>
</g>
<g>
	<rect x="407.203" y="253.73" width="19.988" height="7.996"/>
</g>
<g>
	<rect x="447.182" y="253.73" width="19.987" height="7.996"/>
</g>
<g>
	<rect x="187.335" y="213.755" width="19.987" height="7.995"/>
</g>
<g>
	<rect x="147.359" y="213.755" width="19.988" height="7.995"/>
</g>
<g>
	<rect x="227.311" y="213.755" width="19.99" height="7.995"/>
</g>
<g>
	<rect x="267.287" y="213.755" width="19.988" height="7.995"/>
</g>
<g>
	<rect x="307.264" y="213.755" width="19.988" height="7.995"/>
</g>
<g>
	<rect x="347.239" y="213.755" width="19.988" height="7.995"/>
</g>
<g>
	<rect x="387.216" y="213.755" width="19.987" height="7.995"/>
</g>
<g>
	<rect x="427.191" y="213.755" width="19.988" height="7.995"/>
</g>
<g>
	<rect x="167.347" y="173.807" width="19.988" height="7.995"/>
</g>
<g>
	<rect x="207.323" y="173.807" width="19.99" height="7.995"/>
</g>
<g>
	<rect x="247.271" y="173.807" width="19.987" height="7.995"/>
</g>
<g>
	<rect x="287.275" y="173.807" width="19.989" height="7.995"/>
</g>
<g>
	<rect x="327.252" y="173.807" width="19.987" height="7.995"/>
</g>
<g>
	<rect x="367.228" y="173.807" width="19.988" height="7.995"/>
</g>
<g>
	<rect x="407.203" y="173.807" width="19.988" height="7.995"/>
</g>
<g>
	<rect x="227.283" y="133.633" width="19.988" height="7.995"/>
</g>
<g>
	<rect x="267.287" y="133.633" width="19.99" height="7.995"/>
</g>
<g>
	<rect x="307.264" y="133.633" width="19.988" height="7.995"/>
</g>
<g>
	<rect x="347.239" y="133.633" width="19.988" height="7.995"/>
</g>
</svg>
