<?xml version="1.0" encoding="utf-8"?>
<!-- Generator: Adobe Illustrator 17.1.0, SVG Export Plug-In . SVG Version: 6.00 Build 0)  -->
<!DOCTYPE svg PUBLIC "-//W3C//DTD SVG 1.1//EN" "http://www.w3.org/Graphics/SVG/1.1/DTD/svg11.dtd">
<svg version="1.1" id="Ebene_1" xmlns="http://www.w3.org/2000/svg" xmlns:xlink="http://www.w3.org/1999/xlink" x="0px" y="0px"
	 viewBox="0 0 841.89 595.28" enable-background="new 0 0 841.89 595.28" xml:space="preserve">
<g>
	<rect x="390.595" y="453.753" width="19.988" height="7.995"/>
</g>
<g>
	<rect x="350.616" y="453.753" width="19.988" height="7.995"/>
</g>
<g>
	<rect x="430.571" y="453.753" width="19.988" height="7.995"/>
</g>
<g>
	<rect x="470.544" y="453.753" width="19.988" height="7.995"/>
</g>
<g>
	<rect x="330.628" y="413.905" width="19.988" height="7.995"/>
</g>
<g>
	<rect x="290.652" y="413.905" width="19.988" height="7.995"/>
</g>
<g>
	<rect x="370.606" y="413.905" width="19.989" height="7.995"/>
</g>
<g>
	<rect x="410.58" y="413.905" width="19.989" height="7.995"/>
</g>
<g>
	<rect x="450.557" y="413.905" width="19.987" height="7.995"/>
</g>
<g>
	<rect x="490.533" y="413.905" width="19.988" height="7.995"/>
</g>
<g>
	<rect x="530.508" y="413.905" width="19.988" height="7.995"/>
</g>
<g>
	<rect x="310.517" y="373.658" width="19.987" height="7.995"/>
</g>
<g>
	<rect x="270.664" y="373.658" width="19.988" height="7.995"/>
</g>
<g>
	<rect x="350.616" y="373.658" width="19.99" height="7.995"/>
</g>
<g>
	<rect x="390.592" y="373.658" width="19.988" height="7.995"/>
</g>
<g>
	<rect x="430.569" y="373.658" width="19.988" height="7.995"/>
</g>
<g>
	<rect x="470.544" y="373.658" width="19.988" height="7.995"/>
</g>
<g>
	<rect x="510.521" y="373.658" width="19.987" height="7.995"/>
</g>
<g>
	<rect x="550.496" y="373.658" width="19.988" height="7.995"/>
</g>
<g>
	<rect x="290.716" y="334.846" width="19.987" height="7.995"/>
</g>
<g>
	<rect x="250.676" y="334.846" width="19.988" height="7.995"/>
</g>
<g>
	<rect x="330.63" y="334.846" width="19.988" height="7.995"/>
</g>
<g>
	<rect x="370.604" y="334.846" width="19.987" height="7.995"/>
</g>
<g>
	<rect x="410.58" y="334.846" width="19.989" height="7.995"/>
</g>
<g>
	<rect x="450.557" y="334.846" width="19.987" height="7.995"/>
</g>
<g>
	<rect x="490.533" y="334.846" width="19.988" height="7.995"/>
</g>
<g>
	<rect x="530.508" y="334.846" width="19.988" height="7.995"/>
</g>
<g>
	<rect x="570.485" y="334.846" width="19.988" height="7.995"/>
</g>
<g>
	<rect x="270.664" y="293.712" width="19.988" height="7.995"/>
</g>
<g>
	<rect x="231.021" y="293.712" width="19.654" height="7.995"/>
</g>
<g>
	<rect x="310.64" y="293.712" width="19.989" height="7.995"/>
</g>
<g>
	<rect x="350.678" y="293.712" width="19.988" height="7.995"/>
</g>
<g>
	<rect x="390.592" y="293.712" width="19.988" height="7.995"/>
</g>
<g>
	<rect x="430.258" y="293.712" width="19.988" height="7.995"/>
</g>
<g>
	<rect x="470.544" y="293.712" width="19.988" height="7.995"/>
</g>
<g>
	<rect x="510.521" y="293.712" width="19.987" height="7.995"/>
</g>
<g>
	<rect x="550.496" y="293.712" width="19.988" height="7.995"/>
</g>
<g>
	<rect x="590.346" y="293.712" width="19.987" height="7.995"/>
</g>
<g>
	<rect x="290.652" y="253.73" width="19.988" height="7.996"/>
</g>
<g>
	<rect x="250.676" y="253.73" width="19.988" height="7.996"/>
</g>
<g>
	<rect x="330.628" y="253.73" width="19.99" height="7.996"/>
</g>
<g>
	<rect x="370.606" y="253.73" width="19.987" height="7.996"/>
</g>
<g>
	<rect x="410.58" y="253.73" width="19.989" height="7.996"/>
</g>
<g>
	<rect x="450.557" y="253.73" width="19.987" height="7.996"/>
</g>
<g>
	<rect x="490.533" y="253.73" width="19.988" height="7.996"/>
</g>
<g>
	<rect x="530.508" y="253.73" width="19.988" height="7.996"/>
</g>
<g>
	<rect x="570.487" y="253.73" width="19.987" height="7.996"/>
</g>
<g>
	<rect x="310.64" y="213.755" width="19.987" height="7.995"/>
</g>
<g>
	<rect x="270.664" y="213.755" width="19.988" height="7.995"/>
</g>
<g>
	<rect x="350.616" y="213.755" width="19.99" height="7.995"/>
</g>
<g>
	<rect x="390.592" y="213.755" width="19.988" height="7.995"/>
</g>
<g>
	<rect x="430.569" y="213.755" width="19.988" height="7.995"/>
</g>
<g>
	<rect x="470.544" y="213.755" width="19.988" height="7.995"/>
</g>
<g>
	<rect x="510.521" y="213.755" width="19.987" height="7.995"/>
</g>
<g>
	<rect x="550.496" y="213.755" width="19.988" height="7.995"/>
</g>
<g>
	<rect x="290.652" y="173.807" width="19.988" height="7.995"/>
</g>
<g>
	<rect x="330.628" y="173.807" width="19.99" height="7.995"/>
</g>
<g>
	<rect x="370.576" y="173.807" width="19.987" height="7.995"/>
</g>
<g>
	<rect x="410.58" y="173.807" width="19.989" height="7.995"/>
</g>
<g>
	<rect x="450.557" y="173.807" width="19.987" height="7.995"/>
</g>
<g>
	<rect x="490.533" y="173.807" width="19.988" height="7.995"/>
</g>
<g>
	<rect x="530.508" y="173.807" width="19.988" height="7.995"/>
</g>
<g>
	<rect x="350.588" y="133.633" width="19.988" height="7.995"/>
</g>
<g>
	<rect x="390.592" y="133.633" width="19.99" height="7.995"/>
</g>
<g>
	<rect x="430.569" y="133.633" width="19.988" height="7.995"/>
</g>
<g>
	<rect x="470.544" y="133.633" width="19.988" height="7.995"/>
</g>
</svg>
