<?xml version="1.0" encoding="utf-8"?>
<!-- Generator: Adobe Illustrator 17.1.0, SVG Export Plug-In . SVG Version: 6.00 Build 0)  -->
<!DOCTYPE svg PUBLIC "-//W3C//DTD SVG 1.1//EN" "http://www.w3.org/Graphics/SVG/1.1/DTD/svg11.dtd">
<svg version="1.1" id="Ebene_1" xmlns="http://www.w3.org/2000/svg" xmlns:xlink="http://www.w3.org/1999/xlink" x="0px" y="0px"
	 viewBox="0 0 841.89 595.28" enable-background="new 0 0 841.89 595.28" xml:space="preserve">
<g>
	<rect x="536.59" y="286.71" width="59.964" height="2"/>
</g>
<g>
	<rect x="243.152" y="286.71" width="59.964" height="2"/>
</g>
<g>
	<circle cx="243.151" cy="287.71" r="3.997"/>
</g>
<g>
	<circle cx="596.554" cy="287.71" r="3.998"/>
</g>
<g>
	<rect x="417.296" y="114.447" width="2" height="59.964"/>
</g>
<g>
	<rect x="400.601" y="418.93" transform="matrix(-0.9876 -0.1572 0.1572 -0.9876 727.6432 955.3745)" width="2" height="59.965"/>
</g>
<g>
	<path d="M397.528,474.553c2.181,0.348,3.667,2.396,3.32,4.575c-0.347,2.182-2.396,3.669-4.575,3.321
		c-2.181-0.348-3.668-2.395-3.321-4.578C393.299,475.693,395.348,474.205,397.528,474.553z"/>
</g>
<g>
	<circle cx="418.296" cy="114.447" r="3.998"/>
</g>
<g>
	<rect x="289.782" y="181.407" transform="matrix(-0.7071 -0.7071 0.7071 -0.7071 416.8889 537.4957)" width="59.963" height="2"/>
</g>
<g>
	<rect x="494.946" y="404.343" transform="matrix(-0.7071 -0.7071 0.7071 -0.7071 609.4871 1063.144)" width="59.964" height="2"/>
</g>
<g>
	<circle cx="546.143" cy="426.551" r="3.997"/>
</g>
<g>
	<circle cx="298.56" cy="161.21" r="3.997"/>
</g>
<g>
	<rect x="312.467" y="373.836" transform="matrix(-0.7071 -0.7071 0.7071 -0.7071 249.5799 911.0137)" width="2" height="59.962"/>
</g>
<g>
	<rect x="519.941" y="166.339" transform="matrix(-0.7071 -0.7071 0.7071 -0.7071 750.4824 703.5022)" width="2" height="59.963"/>
</g>
<g>
	<circle cx="542.326" cy="175.124" r="3.997"/>
</g>
<g>
	<circle cx="292.251" cy="425.018" r="3.998"/>
</g>
<g>
	<rect x="536.045" y="341.571" transform="matrix(-0.9247 -0.3808 0.3808 -0.9247 958.9686 874.8687)" width="59.967" height="2"/>
</g>
<g>
	<rect x="260.391" y="228.24" transform="matrix(-0.889 -0.458 0.458 -0.889 443.5213 566.012)" width="59.969" height="2"/>
</g>
<g>
	<circle cx="263.72" cy="215.496" r="3.996"/>
</g>
<g>
	<circle cx="593.732" cy="353.976" r="3.995"/>
</g>
<g>
	
		<rect x="448.343" y="123.583" transform="matrix(-0.9557 -0.2943 0.2943 -0.9557 833.5911 432.571)" width="2.001" height="59.963"/>
</g>
<g>
	<rect x="446.99" y="188.999" transform="matrix(-0.9101 -0.4145 0.4145 -0.9101 769.3988 583.3272)" width="2" height="38.37"/>
</g>
<g>
	<circle cx="458.179" cy="124.913" r="3.996"/>
</g>
<g>
	<rect x="325.626" y="154.449" transform="matrix(-0.5026 -0.8645 0.8645 -0.5026 399.9503 541.0069)" width="59.963" height="2"/>
</g>
<g>
	<rect x="446.762" y="438.464" transform="matrix(-0.3779 -0.9259 0.9259 -0.3779 250.0188 1046.9255)" width="59.967" height="2"/>
</g>
<g>
	<path d="M486.578,463.499c2.043-0.834,4.377,0.145,5.211,2.19c0.833,2.044-0.149,4.377-2.194,5.21
		c-2.039,0.834-4.374-0.146-5.206-2.188C483.554,466.665,484.535,464.333,486.578,463.499z"/>
</g>
<g>
	<circle cx="340.525" cy="129.532" r="3.996"/>
</g>
<g>
	
		<rect x="286.341" y="335.219" transform="matrix(-0.4129 -0.9108 0.9108 -0.4129 73.3637 777.6949)" width="2.001" height="59.965"/>
</g>
<g>
	<rect x="550.99" y="192.512" transform="matrix(-0.4404 -0.8978 0.8978 -0.4404 595.3327 816.0564)" width="2" height="59.962"/>
</g>
<g>
	<path d="M575.313,211.053c-0.971-1.982-0.156-4.377,1.825-5.349c1.983-0.972,4.379-0.152,5.351,1.83
		c0.974,1.981,0.154,4.374-1.829,5.347C578.677,213.853,576.284,213.035,575.313,211.053z"/>
</g>
<g>
	<circle cx="260.06" cy="377.597" r="3.996"/>
</g>
<g>
	<rect x="521.022" y="365.768" transform="matrix(-0.8587 -0.5125 0.5125 -0.8587 832.1267 962.9771)" width="55.603" height="2"/>
</g>
<g>
	<rect x="281.537" y="214.511" transform="matrix(-0.8076 -0.5898 0.5898 -0.8076 432.0461 571.9909)" width="55.602" height="2"/>
</g>
<g>
	<circle cx="286.892" cy="199.104" r="3.996"/>
</g>
<g>
	<path d="M576.111,383.064c-1.13,1.896-3.584,2.516-5.479,1.384c-1.895-1.131-2.518-3.584-1.386-5.479
		c1.135-1.897,3.586-2.516,5.481-1.386C576.622,378.714,577.243,381.168,576.111,383.064z"/>
</g>
<g>
	<rect x="488.973" y="152.209" transform="matrix(-0.8585 -0.5128 0.5128 -0.8585 818.3087 585.8074)" width="2" height="55.6"/>
</g>
<g>
	<rect x="352.374" y="393.757" transform="matrix(-0.9039 -0.4278 0.4278 -0.9039 492.4422 953.7648)" width="2" height="55.602"/>
</g>
<g>
	<circle cx="341.475" cy="446.672" r="3.996"/>
</g>
<g>
	<circle cx="504.233" cy="156.132" r="3.997"/>
</g>
<g>
	<rect x="358.069" y="163.766" transform="matrix(-0.2448 -0.9696 0.9696 -0.2448 320.5751 579.2294)" width="55.601" height="2"/>
</g>
<g>
	<rect x="413.97" y="431.538" transform="matrix(-0.0897 -0.996 0.996 -0.0897 50.6016 911.3253)" width="55.602" height="2"/>
</g>
<g>
	<path d="M443.807,456.218c2.201-0.198,4.143,1.419,4.34,3.618c0.201,2.2-1.425,4.144-3.624,4.341
		c-2.196,0.2-4.143-1.424-4.336-3.623C439.989,458.356,441.609,456.414,443.807,456.218z"/>
</g>
<g>
	<circle cx="379.063" cy="137.804" r="3.996"/>
</g>
<g>
	<rect x="285.102" y="304.118" transform="matrix(-0.2446 -0.9696 0.9696 -0.2446 34.2496 690.5173)" width="2" height="55.599"/>
</g>
<g>
	
		<rect x="548.987" y="235.492" transform="matrix(-0.2451 -0.9695 0.9695 -0.2451 429.5282 861.0359)" width="2.001" height="55.599"/>
</g>
<g>
	<path d="M573.06,257.461c-0.54-2.139,0.752-4.313,2.891-4.852c2.146-0.54,4.318,0.758,4.859,2.896
		c0.54,2.14-0.758,4.312-2.899,4.853C575.772,260.899,573.597,259.602,573.06,257.461z"/>
</g>
<g>
	<circle cx="259.143" cy="338.733" r="3.997"/>
</g>
<g>
	<rect x="320.488" y="280.842" transform="matrix(-0.0996 -0.995 0.995 -0.0996 54.6332 650.1755)" width="2" height="39.054"/>
</g>
<g>
	<circle cx="302.048" cy="302.314" r="2.998"/>
</g>
<g>
	<rect x="469.919" y="356.912" transform="matrix(-0.774 -0.6331 0.6331 -0.774 641.6871 944.8335)" width="39.05" height="2"/>
</g>
<g>
	<path d="M502.234,368.403c1.048-1.278,2.94-1.47,4.22-0.421c1.28,1.046,1.47,2.936,0.422,4.22c-1.046,1.28-2.938,1.47-4.22,0.422
		C501.374,371.573,501.186,369.688,502.234,368.403z"/>
</g>
<g>
	
		<rect x="473.129" y="208.563" transform="matrix(-0.7741 -0.6331 0.6331 -0.7741 696.7437 704.8145)" width="2.001" height="39.054"/>
</g>
<g>
	<circle cx="486.505" cy="212.961" r="2.997"/>
</g>
<g>
	<rect x="504.019" y="319.159" transform="matrix(-0.9483 -0.3174 0.3174 -0.9483 900.2556 786.9791)" width="20.425" height="2"/>
</g>
<g>
	<rect x="309.339" y="260.298" transform="matrix(-0.9483 -0.3174 0.3174 -0.9483 557.7919 613.4654)" width="39.053" height="2"/>
</g>
<g>
	<circle cx="310.444" cy="255.093" r="2.997"/>
</g>
<g>
	<circle cx="523.924" cy="323.39" r="2.998"/>
</g>
<g>
	<rect x="392.699" y="377.599" transform="matrix(-0.9483 -0.3174 0.3174 -0.9483 640.9944 898.676)" width="2" height="39.052"/>
</g>
<g>
	<circle cx="387.494" cy="415.64" r="2.997"/>
</g>
<g>
	<circle cx="456.331" cy="190.736" r="2.997"/>
</g>
<g>
	<rect x="353.65" y="210.647" transform="matrix(-0.4462 -0.8949 0.8949 -0.4462 350.2834 640.0524)" width="39.053" height="2"/>
</g>
<g>
	<rect x="454.315" y="383.243" transform="matrix(-0.4996 -0.8663 0.8663 -0.4996 377.7103 986.6786)" width="39.057" height="2"/>
</g>
<g>
	<path d="M482.108,398.544c1.434-0.828,3.269-0.336,4.094,1.102c0.827,1.43,0.335,3.262-1.099,4.093
		c-1.435,0.826-3.268,0.331-4.094-1.102C480.181,401.203,480.673,399.37,482.108,398.544z"/>
</g>
<g>
	<circle cx="364.463" cy="194.182" r="2.997"/>
</g>
<g>
	
		<rect x="339.65" y="337.13" transform="matrix(-0.5492 -0.8357 0.8357 -0.5492 233.5146 830.0988)" width="2.001" height="29.873"/>
</g>
<g>
	<path d="M325.683,362.283c-0.841-1.287-0.412-3.229,0.959-4.342c1.37-1.119,3.164-0.978,4.004,0.307
		c0.842,1.286,0.412,3.233-0.958,4.346C328.316,363.711,326.524,363.57,325.683,362.283z"/>
</g>
<g>
	<rect x="468.938" y="324.742" transform="matrix(-0.8587 -0.5125 0.5125 -0.8587 724.4205 851.2269)" width="21.251" height="2"/>
</g>
<g>
	
		<rect x="363.04" y="250.299" transform="matrix(-0.7356 -0.6774 0.6774 -0.7356 472.2151 686.9025)" width="14.233" height="1.999"/>
</g>
<g>
	<circle cx="364.908" cy="246.482" r="1.998"/>
</g>
<g>
	<path d="M490.821,332.464c-0.707,1.189-2.239,1.573-3.424,0.865c-1.185-0.707-1.573-2.239-0.864-3.424
		c0.706-1.185,2.238-1.571,3.423-0.865C491.141,329.747,491.529,331.279,490.821,332.464z"/>
</g>
<g>
	
		<rect x="441.653" y="248.736" transform="matrix(-0.8587 -0.5124 0.5124 -0.8587 692.1799 700.5308)" width="1.999" height="12.237"/>
</g>
<g>
	<rect x="378.368" y="344.196" transform="matrix(-0.8545 -0.5195 0.5195 -0.8545 520.0236 852.163)" width="2" height="18.099"/>
</g>
<g>
	<circle cx="374.675" cy="361.329" r="2.498"/>
</g>
<g>
	<circle cx="445.802" cy="249.612" r="1.999"/>
</g>
<g>
	<rect x="393.236" y="221.482" transform="matrix(-0.2448 -0.9696 0.9696 -0.2448 283.3098 665.6348)" width="15.304" height="2"/>
</g>
<g>
	
		<rect x="428.919" y="372.491" transform="matrix(-0.2174 -0.9761 0.9761 -0.2174 176.0466 888.1342)" width="30.297" height="2.001"/>
</g>
<g>
	<path d="M446.816,385.831c1.349-0.3,2.684,0.544,2.982,1.892c0.302,1.349-0.549,2.684-1.895,2.984
		c-1.346,0.299-2.683-0.551-2.982-1.897C444.621,387.462,445.47,386.126,446.816,385.831z"/>
</g>
<g>
	<rect x="416.002" y="341.193" transform="matrix(-0.9938 -0.1113 0.1113 -0.9938 792.3211 746.6938)" width="2" height="20.079"/>
</g>
<g>
	<circle cx="415.826" cy="360.788" r="1.998"/>
</g>
<g>
	<circle cx="399.034" cy="215.845" r="2.498"/>
</g>
<g>
	<rect x="375.994" y="314.863" transform="matrix(-0.5761 -0.8174 0.8174 -0.5761 330.4044 816.7563)" width="2" height="15.676"/>
</g>
<g>
	<rect x="465.109" y="278.818" transform="matrix(-0.245 -0.9695 0.9695 -0.245 303.5653 807.2814)" width="2" height="13.251"/>
</g>
<g>
	<circle cx="472.544" cy="283.838" r="1.998"/>
</g>
<g>
	<circle cx="370.606" cy="327.216" r="1.998"/>
</g>
<g>
	<rect x="370.437" y="281.512" transform="matrix(-0.9342 -0.3566 0.3566 -0.9342 628.5835 680.9172)" width="13.25" height="2"/>
</g>
<g>
	<circle cx="370.875" cy="280.17" r="1.999"/>
</g>
<g>
	
		<rect x="446.737" y="325.74" transform="matrix(-0.7408 -0.6717 0.6717 -0.7408 569.7426 873.3221)" width="13.25" height="2.001"/>
</g>
<g>
	<circle cx="458.257" cy="331.2" r="1.998"/>
</g>
</svg>
