<?xml version="1.0" encoding="utf-8"?>
<!-- Generator: Adobe Illustrator 17.1.0, SVG Export Plug-In . SVG Version: 6.00 Build 0)  -->
<!DOCTYPE svg PUBLIC "-//W3C//DTD SVG 1.1//EN" "http://www.w3.org/Graphics/SVG/1.1/DTD/svg11.dtd">
<svg version="1.1" id="Ebene_1" xmlns="http://www.w3.org/2000/svg" xmlns:xlink="http://www.w3.org/1999/xlink" x="0px" y="0px"
	 viewBox="0 0 595.28 595.28" enable-background="new 0 0 595.28 595.28" xml:space="preserve">
<g>
	<rect x="413.285" y="286.71" width="59.964" height="2"/>
</g>
<g>
	<rect x="119.847" y="286.71" width="59.964" height="2"/>
</g>
<g>
	<circle cx="119.846" cy="287.71" r="3.997"/>
</g>
<g>
	<circle cx="473.249" cy="287.71" r="3.998"/>
</g>
<g>
	<rect x="293.991" y="114.447" width="2" height="59.964"/>
</g>
<g>
	<rect x="277.305" y="418.909" transform="matrix(0.9876 0.1572 -0.1572 0.9876 74.008 -38.1609)" width="2" height="59.963"/>
</g>
<g>
	<path d="M274.223,474.553c2.181,0.348,3.667,2.396,3.32,4.575c-0.347,2.182-2.396,3.669-4.575,3.321
		c-2.181-0.348-3.668-2.395-3.321-4.578C269.994,475.693,272.043,474.205,274.223,474.553z"/>
</g>
<g>
	<circle cx="294.991" cy="114.447" r="3.998"/>
</g>
<g>
	<rect x="166.475" y="181.41" transform="matrix(0.7071 0.7071 -0.7071 0.7071 186.5258 -85.4895)" width="59.964" height="2"/>
</g>
<g>
	<rect x="371.654" y="404.349" transform="matrix(0.7071 0.7071 -0.7071 0.7071 404.248 -165.2763)" width="59.965" height="2"/>
</g>
<g>
	<circle cx="422.838" cy="426.551" r="3.997"/>
</g>
<g>
	<circle cx="175.255" cy="161.21" r="3.997"/>
</g>
<g>
	<rect x="189.146" y="373.834" transform="matrix(0.7071 0.7071 -0.7071 0.7071 341.2478 -16.173)" width="2" height="59.963"/>
</g>
<g>
	<rect x="396.638" y="166.343" transform="matrix(0.7071 0.7071 -0.7071 0.7071 255.2879 -223.6701)" width="2" height="59.964"/>
</g>
<g>
	<circle cx="419.021" cy="175.124" r="3.997"/>
</g>
<g>
	<circle cx="168.946" cy="425.018" r="3.998"/>
</g>
<g>
	<rect x="412.721" y="341.557" transform="matrix(0.9247 0.3808 -0.3808 0.9247 163.8013 -142.7732)" width="59.965" height="2"/>
</g>
<g>
	<rect x="137.085" y="228.228" transform="matrix(0.889 0.458 -0.458 0.889 123.5337 -51.0609)" width="59.966" height="2"/>
</g>
<g>
	<circle cx="140.415" cy="215.496" r="3.996"/>
</g>
<g>
	<circle cx="470.427" cy="353.976" r="3.995"/>
</g>
<g>
	<rect x="325.043" y="123.583" transform="matrix(0.9557 0.2943 -0.2943 0.9557 59.6325 -89.1523)" width="2.001" height="59.964"/>
</g>
<g>
	<rect x="323.674" y="188.986" transform="matrix(0.9101 0.4145 -0.4145 0.9101 115.4858 -115.8487)" width="2" height="38.368"/>
</g>
<g>
	<circle cx="334.874" cy="124.913" r="3.996"/>
</g>
<g>
	<rect x="202.308" y="154.453" transform="matrix(0.5026 0.8645 -0.8645 0.5026 249.9424 -123.4961)" width="59.964" height="2"/>
</g>
<g>
	<rect x="323.472" y="438.439" transform="matrix(0.3779 0.9259 -0.9259 0.3779 626.7465 -53.8631)" width="59.964" height="2"/>
</g>
<g>
	<path d="M363.273,463.499c2.043-0.834,4.377,0.145,5.211,2.19c0.833,2.044-0.149,4.377-2.194,5.21
		c-2.039,0.834-4.374-0.146-5.206-2.188C360.249,466.665,361.23,464.333,363.273,463.499z"/>
</g>
<g>
	<circle cx="217.22" cy="129.532" r="3.996"/>
</g>
<g>
	<rect x="163.059" y="335.229" transform="matrix(0.4129 0.9108 -0.9108 0.4129 428.9304 64.9805)" width="2.001" height="59.964"/>
</g>
<g>
	<rect x="427.675" y="192.512" transform="matrix(0.4404 0.8978 -0.8978 0.4404 439.651 -260.3575)" width="2" height="59.962"/>
</g>
<g>
	<path d="M452.008,211.053c-0.971-1.982-0.156-4.377,1.825-5.349c1.983-0.972,4.379-0.152,5.351,1.83
		c0.974,1.981,0.154,4.374-1.829,5.347C455.372,213.853,452.979,213.035,452.008,211.053z"/>
</g>
<g>
	<circle cx="136.755" cy="377.597" r="3.996"/>
</g>
<g>
	<rect x="397.701" y="365.767" transform="matrix(0.8587 0.5125 -0.5125 0.8587 248.1081 -166.2446)" width="55.602" height="2"/>
</g>
<g>
	<rect x="158.238" y="214.499" transform="matrix(0.8076 0.5898 -0.5898 0.8076 162.8901 -68.2511)" width="55.6" height="2"/>
</g>
<g>
	<circle cx="163.587" cy="199.104" r="3.996"/>
</g>
<g>
	<path d="M452.806,383.064c-1.13,1.896-3.584,2.516-5.479,1.384c-1.895-1.131-2.518-3.584-1.386-5.479
		c1.135-1.897,3.586-2.516,5.481-1.386C453.317,378.714,453.938,381.168,452.806,383.064z"/>
</g>
<g>
	<rect x="365.682" y="152.203" transform="matrix(0.8585 0.5128 -0.5128 0.8585 144.1771 -162.5583)" width="2" height="55.6"/>
</g>
<g>
	<rect x="229.069" y="393.746" transform="matrix(0.9039 0.4278 -0.4278 0.9039 202.4469 -57.9014)" width="2" height="55.601"/>
</g>
<g>
	<circle cx="218.17" cy="446.672" r="3.996"/>
</g>
<g>
	<circle cx="380.928" cy="156.132" r="3.997"/>
</g>
<g>
	<rect x="234.766" y="163.758" transform="matrix(0.2448 0.9696 -0.9696 0.2448 358.0379 -130.1507)" width="55.6" height="2"/>
</g>
<g>
	<rect x="290.679" y="431.528" transform="matrix(0.0897 0.996 -0.996 0.0897 720.6959 76.5352)" width="55.6" height="2"/>
</g>
<g>
	<path d="M320.502,456.218c2.201-0.198,4.143,1.419,4.34,3.618c0.201,2.2-1.425,4.144-3.624,4.341
		c-2.196,0.2-4.143-1.424-4.336-3.623C316.684,458.356,318.304,456.414,320.502,456.218z"/>
</g>
<g>
	<circle cx="255.758" cy="137.804" r="3.996"/>
</g>
<g>
	<rect x="161.793" y="304.126" transform="matrix(0.2446 0.9696 -0.9696 0.2446 444.8133 92.8842)" width="2" height="55.6"/>
</g>
<g>
	
		<rect x="425.676" y="235.489" transform="matrix(0.2451 0.9695 -0.9695 0.2451 577.3621 -214.9032)" width="2.001" height="55.599"/>
</g>
<g>
	<path d="M449.755,257.461c-0.54-2.139,0.752-4.313,2.891-4.852c2.146-0.54,4.318,0.758,4.859,2.896
		c0.54,2.14-0.758,4.312-2.899,4.853C452.467,260.899,450.292,259.602,449.755,257.461z"/>
</g>
<g>
	<circle cx="135.838" cy="338.733" r="3.997"/>
</g>
<g>
	<rect x="197.173" y="280.845" transform="matrix(0.0996 0.995 -0.995 0.0996 477.3152 73.2698)" width="2" height="39.055"/>
</g>
<g>
	<circle cx="178.743" cy="302.314" r="2.998"/>
</g>
<g>
	<rect x="346.609" y="356.94" transform="matrix(0.774 0.6331 -0.6331 0.774 309.3618 -150.9341)" width="39.052" height="2"/>
</g>
<g>
	<path d="M378.929,368.403c1.048-1.278,2.94-1.47,4.22-0.421c1.28,1.046,1.47,2.936,0.422,4.22c-1.046,1.28-2.938,1.47-4.22,0.422
		C378.069,371.573,377.881,369.688,378.929,368.403z"/>
</g>
<g>
	
		<rect x="349.836" y="208.549" transform="matrix(0.7741 0.6331 -0.6331 0.7741 223.6362 -170.5779)" width="2.001" height="39.053"/>
</g>
<g>
	<circle cx="363.2" cy="212.961" r="2.997"/>
</g>
<g>
	<rect x="380.721" y="319.15" transform="matrix(0.9483 0.3174 -0.3174 0.9483 121.8198 -107.5216)" width="20.425" height="2"/>
</g>
<g>
	<rect x="186.048" y="260.29" transform="matrix(0.9483 0.3174 -0.3174 0.9483 93.5481 -51.7331)" width="39.053" height="2"/>
</g>
<g>
	<circle cx="187.139" cy="255.093" r="2.997"/>
</g>
<g>
	<circle cx="400.619" cy="323.39" r="2.998"/>
</g>
<g>
	<rect x="269.386" y="377.598" transform="matrix(0.9483 0.3174 -0.3174 0.9483 140.0343 -65.2876)" width="2" height="39.052"/>
</g>
<g>
	<circle cx="264.189" cy="415.64" r="2.997"/>
</g>
<g>
	<circle cx="333.026" cy="190.736" r="2.997"/>
</g>
<g>
	<rect x="230.345" y="210.657" transform="matrix(0.4462 0.8949 -0.8949 0.4462 327.7901 -106.4045)" width="39.054" height="2"/>
</g>
<g>
	<rect x="331.017" y="383.224" transform="matrix(0.4996 0.8663 -0.8663 0.4996 508.2598 -111.3926)" width="39.056" height="2"/>
</g>
<g>
	<path d="M358.803,398.544c1.434-0.828,3.269-0.336,4.094,1.102c0.827,1.43,0.335,3.262-1.099,4.093
		c-1.435,0.826-3.268,0.331-4.094-1.102C356.876,401.203,357.368,399.37,358.803,398.544z"/>
</g>
<g>
	<circle cx="241.158" cy="194.182" r="2.997"/>
</g>
<g>
	
		<rect x="216.341" y="337.124" transform="matrix(0.5492 0.8357 -0.8357 0.5492 392.1983 -22.9177)" width="2.001" height="29.873"/>
</g>
<g>
	<path d="M202.378,362.283c-0.841-1.287-0.412-3.229,0.959-4.342c1.37-1.119,3.164-0.978,4.004,0.307
		c0.842,1.286,0.412,3.233-0.958,4.346C205.011,363.711,203.219,363.57,202.378,362.283z"/>
</g>
<g>
	<rect x="345.622" y="324.74" transform="matrix(0.8587 0.5125 -0.5125 0.8587 217.2911 -136.5481)" width="21.251" height="2"/>
</g>
<g>
	
		<rect x="239.722" y="250.303" transform="matrix(0.7356 0.6774 -0.6774 0.7356 235.5094 -100.768)" width="14.233" height="1.999"/>
</g>
<g>
	<circle cx="241.603" cy="246.482" r="1.998"/>
</g>
<g>
	<path d="M367.516,332.464c-0.707,1.189-2.239,1.573-3.424,0.865c-1.185-0.707-1.573-2.239-0.864-3.424
		c0.706-1.185,2.238-1.571,3.423-0.865C367.836,329.747,368.224,331.279,367.516,332.464z"/>
</g>
<g>
	
		<rect x="318.361" y="248.748" transform="matrix(0.8587 0.5124 -0.5124 0.8587 175.706 -127.6401)" width="1.999" height="12.238"/>
</g>
<g>
	<rect x="255.051" y="344.186" transform="matrix(0.8545 0.5195 -0.5195 0.8545 220.7734 -81.6127)" width="2" height="18.099"/>
</g>
<g>
	<circle cx="251.37" cy="361.329" r="2.498"/>
</g>
<g>
	<circle cx="322.497" cy="249.612" r="1.999"/>
</g>
<g>
	<rect x="269.951" y="221.481" transform="matrix(0.2448 0.9696 -0.9696 0.2448 425.3432 -101.1454)" width="15.304" height="2"/>
</g>
<g>
	
		<rect x="305.615" y="372.481" transform="matrix(0.2174 0.9761 -0.9761 0.2174 615.5836 -20.7998)" width="30.296" height="2.001"/>
</g>
<g>
	<path d="M323.511,385.831c1.349-0.3,2.684,0.544,2.982,1.892c0.302,1.349-0.549,2.684-1.895,2.984
		c-1.346,0.299-2.683-0.551-2.982-1.897C321.316,387.462,322.165,386.126,323.511,385.831z"/>
</g>
<g>
	<rect x="292.687" y="341.192" transform="matrix(0.9938 0.1113 -0.1113 0.9938 40.9227 -30.509)" width="2" height="20.079"/>
</g>
<g>
	<circle cx="292.521" cy="360.788" r="1.998"/>
</g>
<g>
	<circle cx="275.729" cy="215.845" r="2.498"/>
</g>
<g>
	<rect x="252.707" y="314.862" transform="matrix(0.5761 0.8174 -0.8174 0.5761 371.3032 -70.586)" width="2" height="15.676"/>
</g>
<g>
	<rect x="341.814" y="278.834" transform="matrix(0.245 0.9695 -0.9695 0.245 535.5679 -116.8526)" width="2" height="13.251"/>
</g>
<g>
	<circle cx="349.239" cy="283.838" r="1.998"/>
</g>
<g>
	<circle cx="247.301" cy="327.216" r="1.998"/>
</g>
<g>
	<path fill="#FFFFFF" d="M297.636,488.059c-105.388,0-191.128-85.741-191.128-191.131c0-105.388,85.74-191.128,191.128-191.128
		c105.391,0,191.132,85.74,191.132,191.128C488.768,402.317,403.026,488.059,297.636,488.059z M297.636,106.799
		c-104.837,0-190.128,85.291-190.128,190.128c0,104.838,85.291,190.131,190.128,190.131c104.839,0,190.132-85.293,190.132-190.131
		C487.768,192.09,402.475,106.799,297.636,106.799z"/>
</g>
<g>
	<rect x="247.135" y="281.533" transform="matrix(0.9342 0.3566 -0.3566 0.9342 117.4456 -71.9209)" width="13.251" height="2"/>
</g>
<g>
	<circle cx="247.57" cy="280.17" r="1.999"/>
</g>
<g>
	
		<rect x="323.418" y="325.749" transform="matrix(0.7408 0.6717 -0.6717 0.7408 305.0385 -137.0056)" width="13.25" height="2.001"/>
</g>
<g>
	<circle cx="334.952" cy="331.2" r="1.998"/>
</g>
</svg>
