<?xml version="1.0" encoding="utf-8"?>
<!-- Generator: Adobe Illustrator 17.1.0, SVG Export Plug-In . SVG Version: 6.00 Build 0)  -->
<!DOCTYPE svg PUBLIC "-//W3C//DTD SVG 1.1//EN" "http://www.w3.org/Graphics/SVG/1.1/DTD/svg11.dtd">
<svg version="1.1" id="Ebene_1" xmlns="http://www.w3.org/2000/svg" xmlns:xlink="http://www.w3.org/1999/xlink" x="0px" y="0px"
	 viewBox="0 0 841.89 595.28" enable-background="new 0 0 841.89 595.28" xml:space="preserve">
<g>
	<path d="M420.943,158.212c-14.37,0-26.061-11.691-26.061-26.062c0-14.37,11.691-26.061,26.061-26.061
		c14.371,0,26.062,11.691,26.062,26.061C447.005,146.521,435.314,158.212,420.943,158.212z M420.943,106.84
		c-13.956,0-25.311,11.354-25.311,25.311s11.354,25.312,25.311,25.312s25.312-11.355,25.312-25.312
		C446.255,118.195,434.9,106.84,420.943,106.84z"/>
</g>
<g>
	<path d="M506.907,405.655c-12.771,0-23.16-10.391-23.16-23.162s10.39-23.16,23.16-23.16c12.771,0,23.162,10.39,23.162,23.16
		C530.069,395.265,519.678,405.655,506.907,405.655z M506.907,360.083c-12.358,0-22.41,10.053-22.41,22.41
		c0,12.358,10.053,22.412,22.41,22.412c12.358,0,22.412-10.054,22.412-22.412C529.319,370.136,519.265,360.083,506.907,360.083z"/>
</g>
<g>
	<path d="M585.178,322.74c-14.37,0-26.06-11.691-26.06-26.061s11.69-26.06,26.06-26.06s26.061,11.691,26.061,26.06
		S599.548,322.74,585.178,322.74z M585.178,271.369c-13.956,0-25.31,11.354-25.31,25.31c0,13.957,11.354,25.311,25.31,25.311
		s25.311-11.354,25.311-25.311C610.489,282.723,599.134,271.369,585.178,271.369z"/>
</g>
<g>
	<path d="M256.998,322.985c-14.37,0-26.061-11.691-26.061-26.06c0-14.371,11.691-26.061,26.061-26.061s26.061,11.691,26.061,26.061
		C283.059,311.295,271.368,322.985,256.998,322.985z M256.998,271.614c-13.957,0-25.311,11.354-25.311,25.311
		c0,13.956,11.354,25.31,25.311,25.31c13.956,0,25.311-11.355,25.311-25.31C282.309,282.968,270.954,271.614,256.998,271.614z"/>
</g>
<g>
	<path d="M288.241,225.645c-5.963,0-11.582-1.971-16.25-5.701c-5.439-4.345-8.86-10.548-9.633-17.467
		c-0.773-6.918,1.194-13.723,5.54-19.161c4.973-6.225,12.4-9.795,20.377-9.795c5.963,0,11.582,1.971,16.251,5.701
		c5.439,4.346,8.859,10.549,9.632,17.467c0.773,6.918-1.195,13.723-5.541,19.162C303.645,222.075,296.219,225.645,288.241,225.645z
		 M288.275,174.271c-7.748,0-14.961,3.467-19.792,9.513c-4.22,5.282-6.131,11.891-5.38,18.61s4.073,12.744,9.355,16.964
		c4.534,3.623,9.992,5.537,15.783,5.537c7.748,0,14.961-3.467,19.79-9.512c4.221-5.282,6.132-11.892,5.381-18.61
		c-0.751-6.719-4.073-12.744-9.354-16.964C299.524,176.186,294.066,174.271,288.275,174.271z"/>
</g>
<g>
	<path d="M517.835,455.954c-5.964,0-11.584-1.972-16.254-5.701c-11.225-8.971-13.06-25.402-4.091-36.629
		c4.974-6.225,12.4-9.794,20.377-9.794c5.963,0,11.582,1.972,16.251,5.701c11.227,8.97,13.063,25.401,4.094,36.631
		C533.24,452.385,525.813,455.954,517.835,455.954z M517.867,404.58c-7.747,0-14.961,3.467-19.791,9.513
		c-8.711,10.903-6.929,26.862,3.974,35.574c4.535,3.623,9.993,5.537,15.785,5.537c7.748,0,14.961-3.466,19.791-9.511
		c8.711-10.905,6.928-26.865-3.977-35.576C529.115,406.495,523.658,404.58,517.867,404.58z"/>
</g>
<g>
	<path d="M517.776,189.739c-5.963,0-11.582-1.972-16.251-5.702c-5.438-4.346-8.859-10.549-9.633-17.467
		c-0.773-6.919,1.194-13.724,5.54-19.162c4.974-6.225,12.401-9.794,20.377-9.794c5.963,0,11.582,1.972,16.251,5.701
		c11.227,8.969,13.062,25.401,4.094,36.628C533.179,186.169,525.752,189.739,517.776,189.739z M517.809,138.365
		c-7.747,0-14.96,3.467-19.791,9.512c-4.221,5.282-6.132,11.891-5.381,18.61c0.751,6.719,4.074,12.744,9.356,16.964
		c4.534,3.622,9.991,5.538,15.782,5.538c7.747,0,14.961-3.467,19.792-9.513c8.711-10.905,6.927-26.863-3.977-35.575
		C529.058,140.28,523.6,138.365,517.809,138.365z"/>
</g>
<g>
	<path d="M322.914,455.955c-5.963,0-11.582-1.972-16.25-5.702c-5.439-4.346-8.86-10.549-9.633-17.467
		c-0.773-6.918,1.194-13.724,5.54-19.162c4.973-6.225,12.4-9.794,20.376-9.794c5.963,0,11.583,1.972,16.251,5.701
		c5.439,4.346,8.86,10.549,9.634,17.467c0.773,6.918-1.194,13.723-5.54,19.162C338.319,452.385,330.891,455.955,322.914,455.955z
		 M322.947,404.58c-7.748,0-14.961,3.467-19.79,9.513c-4.22,5.281-6.131,11.891-5.38,18.61c0.751,6.719,4.074,12.743,9.355,16.964
		c4.534,3.623,9.992,5.538,15.783,5.538c7.747,0,14.961-3.468,19.792-9.514c4.22-5.282,6.131-11.892,5.38-18.61
		c-0.751-6.719-4.074-12.743-9.356-16.964C334.196,406.495,328.738,404.58,322.947,404.58z"/>
</g>
<g>
	<path d="M264.834,272.029c-2.911,0-5.793-0.49-8.568-1.456c-13.572-4.725-20.769-19.609-16.044-33.181
		c3.644-10.467,13.535-17.5,24.613-17.5c2.911,0,5.793,0.49,8.567,1.456c13.571,4.725,20.769,19.609,16.044,33.181
		C285.803,264.996,275.912,272.029,264.834,272.029z M264.834,220.642c-10.759,0-20.365,6.831-23.905,16.997
		c-4.588,13.181,2.402,27.637,15.583,32.226c2.695,0.938,5.495,1.414,8.321,1.414c10.759,0,20.366-6.831,23.904-16.996
		c4.588-13.182-2.402-27.638-15.583-32.227C270.46,221.118,267.661,220.642,264.834,220.642z"/>
</g>
<g>
	<path d="M577.922,374.127c-2.911,0-5.793-0.49-8.567-1.455c-6.574-2.289-11.864-7-14.895-13.267
		c-3.03-6.268-3.44-13.339-1.15-19.912c3.644-10.469,13.535-17.503,24.613-17.503c2.911,0,5.793,0.49,8.567,1.455
		c6.575,2.289,11.864,7.002,14.895,13.269c3.03,6.268,3.438,13.34,1.149,19.914C598.89,367.095,588.999,374.127,577.922,374.127z
		 M577.922,322.74c-10.76,0-20.366,6.832-23.904,16.999c-2.224,6.385-1.827,13.253,1.117,19.339
		c2.943,6.087,8.081,10.663,14.466,12.885c2.695,0.939,5.494,1.414,8.321,1.414c10.758,0,20.364-6.83,23.902-16.995
		c2.224-6.386,1.827-13.255-1.115-19.341c-2.943-6.087-8.081-10.664-14.466-12.887C583.548,323.216,580.748,322.74,577.922,322.74z"
		/>
</g>
<g>
	<path d="M554.926,420.125c-2.91,0-5.793-0.49-8.566-1.455c-13.571-4.727-20.77-19.612-16.047-33.181
		c3.645-10.469,13.536-17.502,24.614-17.502c2.911,0,5.794,0.49,8.568,1.455c13.57,4.727,20.768,19.611,16.044,33.181
		C575.896,413.092,566.005,420.125,554.926,420.125z M554.927,368.737c-10.76,0-20.366,6.831-23.905,16.998
		c-4.588,13.179,2.403,27.635,15.584,32.225c2.694,0.939,5.494,1.414,8.32,1.414c10.76,0,20.366-6.831,23.904-16.998
		c4.588-13.179-2.402-27.636-15.581-32.226C560.554,369.213,557.754,368.737,554.927,368.737z"/>
</g>
<g>
	<path d="M471.321,166.117c-2.911,0-5.795-0.49-8.569-1.456c-6.575-2.288-11.864-6.999-14.895-13.267
		c-3.03-6.267-3.439-13.338-1.15-19.913c3.644-10.468,13.534-17.501,24.612-17.501c2.911,0,5.794,0.49,8.568,1.456
		c13.569,4.724,20.768,19.608,16.046,33.179C492.288,159.084,482.398,166.117,471.321,166.117z M471.32,114.73
		c-10.759,0-20.365,6.831-23.903,16.997c-2.224,6.385-1.827,13.254,1.115,19.34c2.943,6.086,8.081,10.662,14.466,12.885
		c2.695,0.938,5.496,1.414,8.323,1.414c10.758,0,20.365-6.831,23.904-16.998c4.586-13.18-2.404-27.636-15.583-32.225
		C476.947,115.206,474.147,114.73,471.32,114.73z"/>
</g>
<g>
	<path d="M369.564,479.085c-2.911,0-5.794-0.489-8.568-1.455c-6.575-2.29-11.864-7.002-14.895-13.269s-3.439-13.339-1.15-19.912
		c3.643-10.468,13.534-17.501,24.612-17.501c2.911,0,5.793,0.49,8.567,1.455c13.572,4.724,20.77,19.608,16.046,33.181
		C390.532,472.052,380.641,479.085,369.564,479.085z M369.563,427.698c-10.759,0-20.365,6.831-23.904,16.997
		c-2.223,6.385-1.827,13.253,1.117,19.34c2.943,6.086,8.081,10.663,14.466,12.886c2.695,0.939,5.495,1.414,8.322,1.414
		c10.758,0,20.365-6.831,23.905-16.997c4.587-13.182-2.404-27.639-15.585-32.226C375.189,428.174,372.389,427.698,369.563,427.698z"
		/>
</g>
<g>
	<path d="M324.221,189.738c-9.026,0-17.282-4.555-22.083-12.186c-7.652-12.164-3.982-28.285,8.181-35.937
		c4.166-2.621,8.956-4.006,13.855-4.006c9.026,0,17.282,4.555,22.082,12.186c3.707,5.893,4.898,12.875,3.353,19.663
		c-1.545,6.788-5.642,12.567-11.534,16.274C333.91,188.353,329.119,189.738,324.221,189.738z M324.174,138.359
		c-4.757,0-9.409,1.346-13.455,3.891c-11.813,7.432-15.377,23.089-7.946,34.903c4.664,7.411,12.682,11.835,21.449,11.835
		c4.756,0,9.409-1.346,13.454-3.891c5.723-3.6,9.702-9.213,11.202-15.806c1.5-6.592,0.344-13.374-3.256-19.097
		C340.959,142.784,332.941,138.359,324.174,138.359z"/>
</g>
<g>
	<path d="M370.341,166.494c-9.027,0-17.282-4.555-22.083-12.185c-7.652-12.165-3.982-28.286,8.181-35.938
		c4.166-2.621,8.956-4.006,13.854-4.006c9.027,0,17.282,4.555,22.084,12.185c3.707,5.893,4.898,12.875,3.353,19.663
		s-5.642,12.568-11.534,16.275C380.03,165.109,375.239,166.494,370.341,166.494z M370.292,115.115
		c-4.756,0-9.409,1.345-13.454,3.891c-11.813,7.432-15.378,23.089-7.946,34.904c4.663,7.41,12.681,11.834,21.449,11.834
		c4.756,0,9.409-1.345,13.454-3.891c5.723-3.601,9.702-9.214,11.202-15.806c1.501-6.593,0.344-13.375-3.256-19.098
		C387.078,119.539,379.06,115.115,370.292,115.115z"/>
</g>
<g>
	<path d="M554.076,226.482c-9.027,0-17.282-4.556-22.083-12.187c-3.707-5.892-4.898-12.874-3.353-19.663
		c1.546-6.788,5.641-12.567,11.532-16.274c4.166-2.621,8.956-4.005,13.854-4.005c9.027,0,17.283,4.555,22.084,12.186
		c7.652,12.163,3.982,28.284-8.179,35.937C563.765,225.097,558.974,226.482,554.076,226.482z M554.027,175.104
		c-4.757,0-9.409,1.345-13.455,3.89c-5.722,3.6-9.699,9.214-11.2,15.806c-1.5,6.593-0.344,13.374,3.257,19.097
		c4.663,7.411,12.681,11.836,21.448,11.836c4.756,0,9.409-1.346,13.456-3.891c11.812-7.433,15.375-23.09,7.943-34.903
		C570.813,179.528,562.794,175.104,554.027,175.104z"/>
</g>
<g>
	<path d="M577.901,272.194c-9.026,0-17.281-4.555-22.081-12.185c-3.708-5.892-4.899-12.875-3.353-19.663
		c1.545-6.788,5.641-12.567,11.533-16.274c4.165-2.621,8.955-4.006,13.854-4.006c9.027,0,17.283,4.555,22.083,12.186
		c7.652,12.164,3.982,28.285-8.18,35.937C587.59,270.809,582.799,272.194,577.901,272.194z M577.853,220.815
		c-4.757,0-9.409,1.346-13.454,3.891c-5.723,3.6-9.701,9.213-11.201,15.806c-1.501,6.592-0.345,13.374,3.257,19.097
		c4.662,7.41,12.68,11.834,21.446,11.834c4.757,0,9.41-1.345,13.457-3.891c11.812-7.432,15.375-23.089,7.943-34.903
		C594.639,225.24,586.621,220.815,577.853,220.815z"/>
</g>
<g>
	<path d="M287.33,419.332c-9.028,0-17.283-4.556-22.084-12.188c-7.653-12.163-3.984-28.284,8.179-35.938
		c4.166-2.62,8.956-4.006,13.854-4.006c9.028,0,17.283,4.556,22.084,12.188c7.653,12.16,3.983,28.282-8.179,35.938
		C297.018,417.946,292.228,419.332,287.33,419.332z M287.279,367.951c-4.756,0-9.409,1.346-13.454,3.891
		c-5.722,3.601-9.7,9.214-11.2,15.807c-1.501,6.593-0.344,13.375,3.256,19.097c4.662,7.412,12.681,11.837,21.449,11.837
		c4.756,0,9.409-1.346,13.454-3.891c11.812-7.435,15.376-23.093,7.944-34.903C304.066,372.376,296.047,367.951,287.279,367.951z"/>
</g>
<g>
	<path d="M263.595,374.388c-9.027,0-17.282-4.556-22.083-12.188c-3.707-5.891-4.898-12.874-3.353-19.662
		c1.545-6.788,5.641-12.567,11.532-16.274c4.166-2.621,8.956-4.006,13.854-4.006c9.028,0,17.283,4.556,22.084,12.188
		c7.652,12.161,3.983,28.282-8.18,35.936C273.284,373.003,268.493,374.388,263.595,374.388z M263.545,323.008
		c-4.756,0-9.409,1.346-13.455,3.891c-5.722,3.6-9.7,9.214-11.2,15.807c-1.5,6.593-0.344,13.374,3.256,19.096
		c4.663,7.412,12.681,11.837,21.448,11.837c4.756,0,9.409-1.345,13.455-3.891c11.813-7.434,15.377-23.091,7.945-34.902
		C280.332,327.433,272.313,323.008,263.545,323.008z"/>
</g>
<g>
	<path d="M420.945,257.587l-0.216-0.001c-14.369-0.119-25.963-11.905-25.846-26.274c0.117-14.252,11.805-25.848,26.054-25.848
		l0.22,0.001c14.369,0.118,25.964,11.904,25.847,26.273C446.885,245.992,435.196,257.587,420.945,257.587z M420.937,206.214
		c-13.839,0-25.19,11.262-25.304,25.104c-0.114,13.956,11.146,25.403,25.102,25.518l0.21,0.001
		c13.841,0,25.194-11.262,25.309-25.105c0.113-13.956-11.147-25.403-25.102-25.518H420.937z"/>
</g>
<g>
	<path d="M472.366,480.077c-14.37,0-26.06-11.69-26.06-26.06s11.69-26.061,26.06-26.061c14.371,0,26.062,11.691,26.062,26.061
		S486.738,480.077,472.366,480.077z M472.366,428.705c-13.956,0-25.31,11.354-25.31,25.311c0,13.956,11.354,25.31,25.31,25.31
		c13.957,0,25.312-11.354,25.312-25.31C497.679,440.06,486.324,428.705,472.366,428.705z"/>
</g>
<g>
	<path d="M465.112,365.004c-12.831,0-23.287-10.436-23.309-23.265c-0.013-6.226,2.4-12.084,6.794-16.495
		c4.395-4.411,10.243-6.847,16.469-6.859c12.873,0,23.329,10.436,23.353,23.265c0.025,12.852-10.41,23.329-23.263,23.354
		L465.112,365.004L465.112,365.004z M465.11,319.135c-6.068,0.012-11.728,2.37-15.98,6.639c-4.253,4.27-6.588,9.939-6.576,15.964
		c0.022,12.416,10.141,22.517,22.559,22.517v0.375l0.042-0.375c12.439-0.025,22.54-10.164,22.515-22.603
		C487.645,329.235,477.526,319.135,465.11,319.135z"/>
</g>
<g>
	<path d="M377.312,365.004c-12.831,0-23.286-10.436-23.308-23.265c-0.013-6.226,2.4-12.084,6.795-16.495
		c4.394-4.411,10.243-6.847,16.468-6.859c12.873,0,23.329,10.436,23.353,23.265c0.026,12.852-10.41,23.329-23.263,23.354
		L377.312,365.004L377.312,365.004z M377.311,319.135c-6.068,0.012-11.729,2.37-15.981,6.639c-4.252,4.27-6.588,9.939-6.576,15.964
		c0.021,12.416,10.141,22.517,22.558,22.517v0.375l0.043-0.375c12.439-0.025,22.539-10.164,22.514-22.603
		C399.847,329.235,389.727,319.135,377.311,319.135z"/>
</g>
<g>
	<path d="M486.418,323.62l-0.469-0.004c-6.96-0.122-13.456-2.947-18.291-7.956c-4.835-5.008-7.431-11.6-7.308-18.56
		c0.248-14.116,11.932-25.601,26.045-25.601l0.469,0.004c6.96,0.121,13.457,2.946,18.292,7.955
		c4.835,5.008,7.431,11.599,7.308,18.559C512.215,312.135,500.531,323.62,486.418,323.62z M486.396,272.25
		c-13.707,0-25.055,11.154-25.295,24.864c-0.119,6.761,2.401,13.162,7.097,18.026s11.006,7.608,17.766,7.727l0.455,0.004
		c13.706,0,25.055-11.155,25.296-24.867c0.119-6.759-2.401-13.161-7.098-18.024c-4.695-4.864-11.005-7.608-17.766-7.726
		L486.396,272.25z"/>
</g>
<g>
	<path d="M467.202,276.236c-13.829,0-25.093-11.251-25.108-25.082c-0.008-6.706,2.598-13.013,7.335-17.76
		c4.737-4.746,11.04-7.365,17.746-7.372c13.857,0,25.119,11.251,25.131,25.08c0.014,13.844-11.237,25.119-25.08,25.133
		L467.202,276.236L467.202,276.236z M467.2,226.772c-6.531,0.007-12.644,2.547-17.24,7.152c-4.597,4.605-7.124,10.724-7.116,17.23
		c0.016,13.417,10.942,24.333,24.358,24.333v0.375l0.023-0.375c13.429-0.015,24.344-10.952,24.33-24.382
		C491.544,237.687,480.618,226.772,467.2,226.772z"/>
</g>
<g>
	<path d="M305.842,320.241c-12.771,0-23.162-10.391-23.162-23.162c0-12.77,10.391-23.16,23.162-23.16s23.16,10.39,23.16,23.16
		C329.002,309.851,318.613,320.241,305.842,320.241z M305.842,274.669c-12.358,0-22.412,10.053-22.412,22.41
		c0,12.358,10.054,22.412,22.412,22.412c12.357,0,22.41-10.054,22.41-22.412C328.252,284.723,318.199,274.669,305.842,274.669z"/>
</g>
<g>
	<path d="M311.631,366.561c-5.299,0-10.293-1.752-14.441-5.067c-9.977-7.972-11.608-22.574-3.637-32.552
		c4.42-5.531,11.021-8.704,18.111-8.704c5.299,0,10.294,1.752,14.442,5.066c9.976,7.974,11.606,22.577,3.634,32.553
		C325.32,363.389,318.719,366.561,311.631,366.561z M311.663,320.988c-6.861,0-13.249,3.07-17.525,8.423
		c-7.712,9.654-6.134,23.784,3.519,31.497c4.015,3.208,8.847,4.903,13.974,4.903c6.859,0,13.246-3.07,17.523-8.423
		c7.714-9.652,6.137-23.782-3.517-31.498C321.623,322.684,316.791,320.988,311.663,320.988z"/>
</g>
<g>
	<path d="M529.202,274.658c-5.3,0-10.295-1.752-14.445-5.068c-4.832-3.861-7.872-9.374-8.558-15.521s1.062-12.195,4.925-17.027
		c4.418-5.533,11.019-8.706,18.108-8.706c5.299,0,10.292,1.752,14.44,5.066c4.834,3.861,7.874,9.374,8.56,15.523
		c0.687,6.148-1.061,12.196-4.924,17.029C542.892,271.486,536.291,274.658,529.202,274.658z M529.233,229.086
		c-6.86,0-13.247,3.07-17.522,8.423c-3.737,4.676-5.43,10.527-4.766,16.476s3.604,11.282,8.281,15.019
		c4.016,3.208,8.849,4.904,13.977,4.904c6.86,0,13.246-3.07,17.521-8.422c3.737-4.677,5.429-10.529,4.765-16.478
		c-0.664-5.95-3.607-11.284-8.284-15.021C539.191,230.781,534.36,229.086,529.233,229.086z"/>
</g>
<g>
	<path d="M536.321,320.694c-12.624,0-23.012-10.271-23.154-22.893c-0.143-12.771,10.128-23.28,22.895-23.427l0.27-0.001
		c12.623,0,23.011,10.271,23.156,22.896c0.145,12.771-10.126,23.279-22.895,23.424L536.321,320.694z M536.33,275.122l-0.262,0.001
		c-12.353,0.143-22.29,10.312-22.152,22.668c0.139,12.215,10.189,22.152,22.404,22.152l0.264-0.002
		c12.354-0.14,22.292-10.308,22.152-22.665C558.596,285.061,548.544,275.122,536.33,275.122z"/>
</g>
<g>
	<path d="M467.028,429.175c-5.3,0-10.293-1.752-14.442-5.066c-9.976-7.975-11.607-22.577-3.638-32.553
		c4.419-5.531,11.02-8.704,18.108-8.704c5.301,0,10.294,1.753,14.442,5.067c4.834,3.861,7.874,9.373,8.561,15.521
		c0.686,6.147-1.061,12.195-4.923,17.029C480.717,426.002,474.116,429.175,467.028,429.175z M467.056,383.602
		c-6.859,0-13.246,3.07-17.523,8.423c-7.712,9.651-6.132,23.781,3.521,31.498c4.015,3.207,8.847,4.902,13.974,4.902
		c6.859,0,13.246-3.07,17.523-8.424c3.736-4.677,5.428-10.528,4.764-16.478c-0.665-5.948-3.608-11.282-8.285-15.018
		C477.016,385.297,472.184,383.602,467.056,383.602z"/>
</g>
<g>
	<path d="M313.657,274.972c-2.586,0-5.146-0.435-7.611-1.293c-12.058-4.198-18.454-17.422-14.257-29.48
		c3.237-9.301,12.024-15.549,21.866-15.549c2.587,0,5.148,0.435,7.614,1.294c12.058,4.197,18.454,17.421,14.258,29.479
		C332.287,268.723,323.499,274.972,313.657,274.972z M313.655,229.399c-9.522,0-18.025,6.046-21.158,15.045
		c-4.061,11.668,2.128,24.464,13.796,28.526c2.385,0.83,4.863,1.251,7.364,1.251c9.523,0,18.027-6.047,21.161-15.046
		c4.06-11.667-2.129-24.463-13.796-28.524C318.636,229.821,316.157,229.399,313.655,229.399z"/>
</g>
<g>
	<path d="M355.293,323.619l-0.238-0.001c-6.962-0.062-13.483-2.83-18.362-7.795c-4.879-4.965-7.532-11.533-7.47-18.493
		c0.125-14.244,11.815-25.832,26.06-25.832l0.231,0.001c14.369,0.128,25.956,11.921,25.83,26.29
		C381.219,312.032,369.532,323.619,355.293,323.619z M355.284,272.249c-13.835,0-25.189,11.254-25.31,25.088
		c-0.061,6.76,2.516,13.139,7.254,17.961c4.739,4.822,11.072,7.511,17.834,7.57l0.231,0.001c13.829,0,25.179-11.253,25.301-25.086
		c0.123-13.956-11.131-25.41-25.087-25.534L355.284,272.249z"/>
</g>
<g>
	<path d="M420.943,388.407c-14.313,0-26.004-11.643-26.061-25.953c-0.06-14.371,11.584-26.11,25.955-26.17h0.107
		c14.312,0,26.002,11.645,26.06,25.957c0.06,14.369-11.583,26.106-25.954,26.166L420.943,388.407L420.943,388.407z M420.943,337.034
		h-0.103c-13.957,0.058-25.265,11.459-25.208,25.416c0.056,13.899,11.41,25.207,25.311,25.207h0.104
		c6.76-0.028,13.105-2.686,17.867-7.486c4.761-4.8,7.368-11.166,7.34-17.926C446.198,348.344,434.844,337.034,420.943,337.034z"/>
</g>
<g>
	<path d="M506.013,234.407c-2.587,0-5.148-0.436-7.613-1.294c-5.842-2.034-10.542-6.22-13.235-11.788
		c-2.692-5.568-3.056-11.852-1.023-17.692c3.239-9.3,12.026-15.549,21.867-15.549c2.587,0,5.148,0.436,7.614,1.294
		c12.058,4.198,18.452,17.422,14.256,29.479C524.64,228.158,515.853,234.407,506.013,234.407z M506.009,188.834
		c-9.522,0-18.024,6.046-21.158,15.046c-1.968,5.651-1.617,11.731,0.989,17.119c2.605,5.388,7.153,9.439,12.806,11.407
		c2.386,0.83,4.865,1.252,7.367,1.252c9.521,0,18.023-6.047,21.157-15.047c4.061-11.667-2.127-24.462-13.793-28.524
		C510.99,189.255,508.512,188.834,506.009,188.834z"/>
</g>
<g>
	<path d="M466.045,212.046c-2.587,0-5.148-0.435-7.613-1.294c-12.059-4.198-18.453-17.423-14.257-29.481
		c3.238-9.3,12.025-15.548,21.867-15.548c2.587,0,5.149,0.436,7.615,1.294c5.841,2.032,10.54,6.218,13.233,11.787
		c2.691,5.568,3.055,11.851,1.021,17.691C484.674,205.797,475.887,212.046,466.045,212.046z M466.042,166.474
		c-9.523,0-18.025,6.046-21.158,15.045c-4.062,11.667,2.127,24.464,13.794,28.526c2.386,0.83,4.864,1.251,7.367,1.251
		c9.522,0,18.025-6.047,21.157-15.047c1.968-5.651,1.616-11.731-0.988-17.119s-7.151-9.439-12.803-11.405
		C471.025,166.895,468.545,166.474,466.042,166.474z"/>
</g>
<g>
	<path d="M420.995,487.883h-0.125c-14.369-0.069-26.005-11.816-25.938-26.186c0.07-14.301,11.759-25.936,26.057-25.936h0.128
		c14.369,0.067,26.005,11.815,25.938,26.186C446.987,476.248,435.296,487.883,420.995,487.883z M420.99,436.512
		c-13.887,0-25.239,11.3-25.307,25.19c-0.065,13.956,11.235,25.364,25.191,25.432h0.121c13.89,0,25.243-11.3,25.311-25.189
		c0.065-13.958-11.235-25.366-25.191-25.432h-0.125V436.512z"/>
</g>
<g>
	<path d="M335.349,233.812c-8.02,0-15.355-3.96-19.621-10.592c-3.273-5.09-4.34-11.126-3.004-16.996
		c1.354-5.948,5.002-11.011,10.273-14.254c3.701-2.277,7.958-3.481,12.309-3.481c8.02,0,15.355,3.959,19.621,10.59
		c3.274,5.091,4.341,11.128,3.005,16.998c-1.355,5.948-5.003,11.01-10.275,14.253C343.957,232.609,339.7,233.812,335.349,233.812z
		 M335.306,189.239c-4.212,0-8.333,1.165-11.916,3.37c-5.098,3.138-8.627,8.032-9.935,13.782c-1.291,5.672-0.26,11.505,2.904,16.424
		c4.128,6.417,11.227,10.247,18.991,10.247c4.212,0,8.333-1.165,11.916-3.37c5.098-3.137,8.626-8.031,9.935-13.781
		c1.292-5.672,0.26-11.506-2.904-16.426C350.169,193.07,343.07,189.239,335.306,189.239z"/>
</g>
<g>
	<path d="M375.906,211.526h-0.019c-12.771-0.012-23.152-10.411-23.14-23.181c0.01-12.76,10.398-23.141,23.158-23.141
		c6.208,0.005,12.022,2.419,16.393,6.797c4.372,4.379,6.776,10.197,6.771,16.384C399.058,201.145,388.667,211.526,375.906,211.526z
		 M375.927,165.954c-12.367,0-22.42,10.045-22.429,22.392c-0.012,12.356,10.033,22.419,22.391,22.43l0.018,0.375v-0.375
		c12.347,0,22.402-10.045,22.413-22.392c0.005-5.986-2.321-11.616-6.551-15.853C387.539,168.294,381.913,165.958,375.927,165.954z"
		/>
</g>
<g>
	<path d="M420.939,204.685c-12.666,0-23.055-10.307-23.157-22.976c-0.099-12.773,10.208-23.246,22.976-23.346l0.189-0.001
		c12.665,0,23.053,10.308,23.156,22.978c0.049,6.186-2.314,12.022-6.654,16.432s-10.137,6.865-16.322,6.913H420.939z
		 M420.947,159.112l-0.183,0.001c-12.355,0.097-22.327,10.231-22.232,22.59c0.099,12.259,10.15,22.232,22.407,22.232l0.181-0.001
		c5.985-0.047,11.595-2.422,15.794-6.689s6.486-9.914,6.438-15.9C443.254,169.086,433.202,159.112,420.947,159.112z"/>
</g>
<g>
	<path d="M529.719,365.82c-8.022,0-15.358-4.048-19.626-10.827c-6.8-10.81-3.541-25.136,7.266-31.935
		c3.701-2.329,7.959-3.56,12.312-3.56c8.021,0,15.357,4.048,19.624,10.827c6.801,10.808,3.539,25.134-7.269,31.938
		C538.325,364.591,534.07,365.82,529.719,365.82z M529.67,320.249c-4.211,0-8.33,1.191-11.913,3.444
		c-10.456,6.579-13.609,20.44-7.029,30.9c4.129,6.56,11.229,10.477,18.991,10.477c4.209,0,8.327-1.189,11.907-3.441
		c10.458-6.583,13.613-20.446,7.033-30.902C544.531,324.165,537.432,320.249,529.67,320.249z"/>
</g>
<g>
	<path d="M374.919,276.239c-7.307,0-14.235-3.168-19.007-8.692c-4.387-5.073-6.535-11.552-6.048-18.241s3.55-12.789,8.624-17.174
		c4.561-3.942,10.388-6.113,16.409-6.113c7.307,0,14.235,3.167,19.009,8.691c9.053,10.475,7.896,26.363-2.579,35.417
		C386.767,274.068,380.94,276.239,374.919,276.239z M374.897,226.769c-5.841,0-11.494,2.106-15.919,5.93
		c-4.923,4.255-7.894,10.172-8.367,16.662c-0.472,6.49,1.611,12.775,5.867,17.696c4.63,5.358,11.351,8.432,18.44,8.432
		c5.841,0,11.494-2.106,15.918-5.931c10.162-8.783,11.284-24.196,2.501-34.359C388.707,229.842,381.986,226.769,374.897,226.769z"/>
</g>
<g>
	<path d="M420.943,336.284h-0.157c-10.611-0.042-20.571-4.213-28.044-11.745c-7.474-7.533-11.566-17.525-11.524-28.134
		c0.085-21.818,17.902-39.568,39.72-39.568h0.159c21.902,0.086,39.654,17.976,39.571,39.878
		C460.581,318.534,442.761,336.284,420.943,336.284z M420.938,257.587c-21.405,0-38.887,17.415-38.97,38.821
		c-0.042,10.409,3.974,20.212,11.306,27.603c7.333,7.39,17.104,11.482,27.515,11.523h0.154c21.406,0,38.89-17.415,38.975-38.821
		c0.081-21.489-17.335-39.04-38.824-39.125L420.938,257.587z"/>
</g>
<g>
	<path d="M421.39,435.717c-12.745,0-23.133-10.146-23.157-22.618c-0.012-6.058,2.388-11.755,6.756-16.043
		c4.366-4.287,10.177-6.652,16.362-6.662c12.792,0,23.182,10.147,23.204,22.619c0.013,6.055-2.387,11.752-6.755,16.04
		c-4.367,4.287-10.179,6.653-16.366,6.664H421.39z M421.395,391.144c-6.03,0.01-11.654,2.299-15.879,6.447
		c-4.224,4.146-6.543,9.652-6.532,15.506c0.023,12.06,10.075,21.87,22.407,21.87v0.375l0.044-0.375
		c5.989-0.01,11.615-2.301,15.84-6.449c4.224-4.146,6.543-9.651,6.531-15.503C443.784,400.955,433.732,391.144,421.395,391.144z"/>
</g>
<g>
	<path d="M376.334,428.107c-8.021,0-15.357-4.05-19.624-10.833c-3.294-5.234-4.352-11.439-2.979-17.471s5.013-11.168,10.249-14.462
		c3.701-2.328,7.958-3.558,12.31-3.558c8.022,0,15.358,4.047,19.622,10.827c6.8,10.807,3.539,25.133-7.268,31.936
		C384.943,426.876,380.686,428.107,376.334,428.107z M376.29,382.534c-4.21,0-8.329,1.19-11.91,3.442
		c-5.066,3.188-8.588,8.157-9.917,13.993c-1.329,5.837-0.305,11.841,2.882,16.905c4.128,6.564,11.227,10.482,18.989,10.482
		c4.211,0,8.33-1.191,11.911-3.445c10.457-6.582,13.612-20.444,7.033-30.902C391.151,386.45,384.053,382.534,376.29,382.534z"/>
</g>
<g>
	<path d="M335.325,406.389c-8.021,0-15.356-4.049-19.622-10.831c-3.295-5.235-4.354-11.44-2.981-17.471
		c1.372-6.031,5.012-11.167,10.248-14.461c3.702-2.329,7.96-3.561,12.313-3.561c8.02,0,15.355,4.048,19.621,10.826
		c6.8,10.81,3.539,25.138-7.27,31.938C343.933,405.157,339.677,406.389,335.325,406.389z M335.284,360.815
		c-4.211,0-8.331,1.191-11.914,3.445c-5.066,3.188-8.588,8.157-9.916,13.992c-1.328,5.836-0.304,11.84,2.884,16.905
		c4.128,6.562,11.226,10.48,18.987,10.48c4.21,0,8.329-1.191,11.91-3.444c10.459-6.579,13.615-20.442,7.035-30.903
		C350.142,364.731,343.045,360.815,335.284,360.815z"/>
</g>
<g>
	<path d="M343.545,273.649c-5.074,0-9.201-4.127-9.201-9.2c0-5.072,4.127-9.199,9.201-9.199c5.073,0,9.2,4.127,9.2,9.199
		C352.745,269.522,348.618,273.649,343.545,273.649z M343.545,255.999c-4.66,0-8.451,3.791-8.451,8.449
		c0,4.66,3.791,8.45,8.451,8.45c4.66,0,8.45-3.79,8.45-8.45C351.995,259.79,348.205,255.999,343.545,255.999z"/>
</g>
<g>
	<path d="M343.31,250.037c-4.72,0-8.561-3.84-8.561-8.561c0-4.72,3.84-8.56,8.561-8.56c4.72,0,8.56,3.84,8.56,8.56
		C351.869,246.196,348.03,250.037,343.31,250.037z M343.31,233.667c-4.307,0-7.811,3.503-7.811,7.81
		c0,4.307,3.504,7.811,7.811,7.811c4.306,0,7.81-3.504,7.81-7.811C351.119,237.17,347.616,233.667,343.31,233.667z"/>
</g>
<g>
	<path d="M387.807,228.719c-5.415,0-9.819-4.405-9.819-9.819s4.405-9.818,9.819-9.818c5.415,0,9.82,4.404,9.82,9.818
		C397.627,224.314,393.222,228.719,387.807,228.719z M387.807,209.831c-5.001,0-9.069,4.068-9.069,9.068
		c0,5.001,4.068,9.069,9.069,9.069s9.07-4.068,9.07-9.069C396.877,213.899,392.808,209.831,387.807,209.831z"/>
</g>
<g>
	<path d="M395.256,171.837c-4.84,0-8.777-3.938-8.777-8.778s3.938-8.778,8.777-8.778c4.841,0,8.779,3.938,8.779,8.778
		S400.097,171.837,395.256,171.837z M395.256,155.031c-4.426,0-8.027,3.601-8.027,8.028s3.601,8.028,8.027,8.028
		c4.427,0,8.029-3.602,8.029-8.028C403.285,158.632,399.683,155.031,395.256,155.031z"/>
</g>
<g>
	<path d="M442.467,167.486c-4.823,0-8.747-3.925-8.747-8.749c0-4.824,3.924-8.748,8.747-8.748c4.824,0,8.749,3.924,8.749,8.748
		C451.216,163.561,447.291,167.486,442.467,167.486z M442.467,150.739c-4.409,0-7.997,3.588-7.997,7.998
		c0,4.411,3.588,7.999,7.997,7.999c4.411,0,7.999-3.588,7.999-7.999C450.466,154.327,446.878,150.739,442.467,150.739z"/>
</g>
<g>
	<path d="M454.678,228.728c-5.213,0-9.453-4.241-9.453-9.453s4.24-9.452,9.453-9.452c5.212,0,9.452,4.24,9.452,9.452
		C464.13,224.487,459.89,228.728,454.678,228.728z M454.678,210.573c-4.799,0-8.703,3.904-8.703,8.702
		c0,4.799,3.904,8.703,8.703,8.703s8.702-3.904,8.702-8.703C463.38,214.477,459.477,210.573,454.678,210.573z"/>
</g>
<g>
	<path d="M475.523,227.774c-4.816,0-8.734-3.918-8.734-8.733s3.918-8.733,8.734-8.733c4.815,0,8.733,3.918,8.733,8.733
		S480.338,227.774,475.523,227.774z M475.523,211.057c-4.402,0-7.984,3.582-7.984,7.983c0,4.402,3.582,7.983,7.984,7.983
		s7.983-3.581,7.983-7.983C483.506,214.639,479.925,211.057,475.523,211.057z"/>
</g>
<g>
	<path d="M499.019,273.387c-5.429,0-9.846-4.417-9.846-9.847c0-5.43,4.417-9.847,9.846-9.847c5.431,0,9.85,4.417,9.85,9.847
		C508.868,268.97,504.45,273.387,499.019,273.387z M499.019,254.444c-5.016,0-9.096,4.081-9.096,9.097
		c0,5.016,4.08,9.097,9.096,9.097c5.017,0,9.1-4.081,9.1-9.097C508.118,258.524,504.036,254.444,499.019,254.444z"/>
</g>
<g>
	<path d="M499.46,340.251c-5.518,0-10.006-4.488-10.006-10.006s4.488-10.006,10.006-10.006c5.52,0,10.01,4.488,10.01,10.006
		S504.98,340.251,499.46,340.251z M499.46,320.989c-5.104,0-9.256,4.152-9.256,9.256s4.152,9.256,9.256,9.256
		c5.105,0,9.26-4.152,9.26-9.256C508.72,325.142,504.566,320.989,499.46,320.989z"/>
</g>
<g>
	<path d="M499.803,360.723c-4.548,0-8.247-3.699-8.247-8.245c0-4.548,3.699-8.247,8.247-8.247s8.248,3.699,8.248,8.247
		C508.051,357.023,504.351,360.723,499.803,360.723z M499.803,344.98c-4.134,0-7.497,3.363-7.497,7.497
		c0,4.133,3.363,7.495,7.497,7.495c4.135,0,7.498-3.362,7.498-7.495C507.301,348.344,503.938,344.98,499.803,344.98z"/>
</g>
<g>
	<path d="M365.032,383.881c-4.48,0-8.126-3.645-8.126-8.124c0-4.481,3.646-8.127,8.126-8.127c4.483,0,8.129,3.645,8.129,8.127
		C373.161,380.236,369.515,383.881,365.032,383.881z M365.032,368.38c-4.067,0-7.376,3.31-7.376,7.377
		c0,4.066,3.309,7.374,7.376,7.374c4.069,0,7.379-3.308,7.379-7.374C372.411,371.69,369.101,368.38,365.032,368.38z"/>
</g>
<g>
	<path d="M558.877,327.701c-4.753,0-8.62-3.866-8.62-8.619c0-4.754,3.867-8.622,8.62-8.622c4.755,0,8.624,3.868,8.624,8.622
		C567.501,323.835,563.632,327.701,558.877,327.701z M558.877,311.21c-4.34,0-7.87,3.531-7.87,7.872c0,4.339,3.53,7.869,7.87,7.869
		c4.342,0,7.874-3.53,7.874-7.869C566.751,314.741,563.219,311.21,558.877,311.21z"/>
</g>
<g>
	<path d="M550.376,368.565c-3.297,0-5.978-2.682-5.978-5.978c0-3.297,2.682-5.98,5.978-5.98c3.298,0,5.981,2.683,5.981,5.98
		C556.358,365.884,553.674,368.565,550.376,368.565z M550.376,357.357c-2.883,0-5.228,2.346-5.228,5.23
		c0,2.883,2.346,5.228,5.228,5.228c2.885,0,5.231-2.346,5.231-5.228C555.608,359.703,553.261,357.357,550.376,357.357z"/>
</g>
<g>
	<path d="M441.079,397.88c-4.346,0-7.881-3.536-7.881-7.882c0-4.345,3.535-7.88,7.881-7.88s7.882,3.535,7.882,7.88
		C448.961,394.344,445.425,397.88,441.079,397.88z M441.079,382.868c-3.932,0-7.131,3.198-7.131,7.13
		c0,3.933,3.199,7.132,7.131,7.132c3.933,0,7.132-3.199,7.132-7.132C448.211,386.066,445.012,382.868,441.079,382.868z"/>
</g>
<g>
	<path d="M402.658,397.747c-4.168,0-7.559-3.391-7.559-7.558c0-4.169,3.391-7.561,7.559-7.561c4.169,0,7.561,3.392,7.561,7.561
		C410.219,394.356,406.827,397.747,402.658,397.747z M402.658,383.379c-3.754,0-6.809,3.056-6.809,6.811
		c0,3.754,3.054,6.808,6.809,6.808s6.811-3.054,6.811-6.808C409.469,386.435,406.414,383.379,402.658,383.379z"/>
</g>
<g>
	<path d="M486.709,431.593c-2.913,0-5.282-2.369-5.282-5.282c0-2.913,2.369-5.282,5.282-5.282c2.913,0,5.282,2.369,5.282,5.282
		S489.622,431.593,486.709,431.593z M486.709,421.778c-2.499,0-4.532,2.033-4.532,4.532c0,2.499,2.033,4.532,4.532,4.532
		s4.532-2.033,4.532-4.532S489.208,421.778,486.709,421.778z"/>
</g>
<g>
	<path d="M484.121,370.236c-3.532,0-6.406-2.874-6.406-6.406s2.874-6.406,6.406-6.406s6.406,2.874,6.406,6.406
		S487.654,370.236,484.121,370.236z M484.121,358.174c-3.119,0-5.656,2.537-5.656,5.656c0,3.119,2.537,5.656,5.656,5.656
		c3.119,0,5.656-2.537,5.656-5.656C489.778,360.711,487.24,358.174,484.121,358.174z"/>
</g>
<g>
	<path d="M355.324,174.271c-3.205,0-5.812-2.599-5.812-5.794c0-3.194,2.607-5.793,5.812-5.793c3.206,0,5.815,2.599,5.815,5.793
		C361.139,171.672,358.53,174.271,355.324,174.271z M355.324,163.434c-2.791,0-5.062,2.262-5.062,5.043s2.27,5.044,5.062,5.044
		c2.793,0,5.065-2.263,5.065-5.044S358.116,163.434,355.324,163.434z"/>
</g>
<g>
	<path d="M347.52,191.444c-3.294,0-5.975-2.672-5.975-5.956c0-3.283,2.68-5.954,5.975-5.954c3.296,0,5.978,2.671,5.978,5.954
		C353.497,188.772,350.816,191.444,347.52,191.444z M347.52,180.284c-2.881,0-5.225,2.334-5.225,5.204
		c0,2.871,2.344,5.206,5.225,5.206c2.882,0,5.228-2.335,5.228-5.206C352.747,182.618,350.402,180.284,347.52,180.284z"/>
</g>
<g>
	<path d="M513.481,324.924c-4.22,0-7.652-3.433-7.652-7.651c0-4.22,3.433-7.652,7.652-7.652c4.219,0,7.653,3.433,7.653,7.652
		C521.134,321.491,517.7,324.924,513.481,324.924z M513.481,310.37c-3.806,0-6.902,3.097-6.902,6.902
		c0,3.806,3.097,6.901,6.902,6.901c3.807,0,6.903-3.096,6.903-6.901C520.384,313.467,517.287,310.37,513.481,310.37z"/>
</g>
<g>
	<path d="M513.647,285.758c-4.174,0-7.57-3.396-7.57-7.569c0-4.174,3.397-7.57,7.57-7.57c4.175,0,7.571,3.396,7.571,7.57
		S517.822,285.758,513.647,285.758z M513.647,271.369c-3.761,0-6.82,3.059-6.82,6.82c0,3.76,3.06,6.819,6.82,6.819
		c3.762,0,6.821-3.059,6.821-6.819C520.468,274.428,517.408,271.369,513.647,271.369z"/>
</g>
<g>
	<path d="M498.939,249.535c-4.584,0-8.314-3.73-8.314-8.314s3.73-8.314,8.314-8.314c4.585,0,8.315,3.73,8.315,8.314
		C507.254,245.805,503.524,249.535,498.939,249.535z M498.939,233.657c-4.171,0-7.564,3.393-7.564,7.564
		c0,4.171,3.393,7.564,7.564,7.564c4.172,0,7.565-3.394,7.565-7.564C506.504,237.05,503.111,233.657,498.939,233.657z"/>
</g>
<g>
	<path d="M553.798,279.76c-4.833,0-8.765-3.933-8.765-8.767c0-4.834,3.932-8.767,8.765-8.767c4.835,0,8.768,3.933,8.768,8.767
		C562.567,275.828,558.633,279.76,553.798,279.76z M553.798,262.977c-4.419,0-8.015,3.596-8.015,8.017
		c0,4.42,3.596,8.017,8.015,8.017c4.422,0,8.018-3.596,8.018-8.017C561.817,266.573,558.22,262.977,553.798,262.977z"/>
</g>
<g>
	<path d="M549.533,237.693c-3.19,0-5.786-2.596-5.786-5.787c0-3.191,2.596-5.786,5.786-5.786c3.191,0,5.787,2.596,5.787,5.786
		C555.321,235.097,552.725,237.693,549.533,237.693z M549.533,226.87c-2.777,0-5.036,2.259-5.036,5.036s2.259,5.037,5.036,5.037
		c2.777,0,5.037-2.26,5.037-5.037C554.571,229.129,552.311,226.87,549.533,226.87z"/>
</g>
<g>
	<path d="M531.909,228.728c-3.19,0-5.786-2.596-5.786-5.787c0-3.19,2.596-5.786,5.786-5.786c3.191,0,5.787,2.596,5.787,5.786
		C537.697,226.132,535.101,228.728,531.909,228.728z M531.909,217.905c-2.777,0-5.036,2.259-5.036,5.036s2.259,5.037,5.036,5.037
		s5.037-2.26,5.037-5.037C536.947,220.164,534.687,217.905,531.909,217.905z"/>
</g>
<g>
	<path d="M494.293,190.961c-3.22,0-5.839-2.619-5.839-5.838s2.619-5.838,5.839-5.838c3.219,0,5.838,2.619,5.838,5.838
		C500.131,188.343,497.512,190.961,494.293,190.961z M494.293,180.036c-2.806,0-5.089,2.282-5.089,5.088s2.283,5.088,5.089,5.088
		s5.088-2.282,5.088-5.088C499.381,182.318,497.099,180.036,494.293,180.036z"/>
</g>
<g>
	<path d="M486.001,174.42c-3.476,0-6.303-2.828-6.303-6.304c0-3.475,2.827-6.303,6.303-6.303c3.477,0,6.305,2.828,6.305,6.303
		C492.306,171.593,489.478,174.42,486.001,174.42z M486.001,162.564c-3.061,0-5.553,2.491-5.553,5.553s2.491,5.554,5.553,5.554
		s5.555-2.491,5.555-5.554C491.556,165.055,489.064,162.564,486.001,162.564z"/>
</g>
<g>
	<path d="M366.23,227.42c-4.991,0-9.052-4.06-9.052-9.051s4.061-9.052,9.052-9.052c4.992,0,9.053,4.061,9.053,9.052
		C375.282,223.36,371.221,227.42,366.23,227.42z M366.23,210.068c-4.578,0-8.302,3.724-8.302,8.302c0,4.577,3.724,8.301,8.302,8.301
		s8.303-3.724,8.303-8.301C374.532,213.792,370.808,210.068,366.23,210.068z"/>
</g>
<g>
	<path d="M476.161,384.681c-4.649,0-8.433-3.783-8.433-8.433c0-4.649,3.783-8.433,8.433-8.433c4.65,0,8.433,3.783,8.433,8.433
		C484.594,380.897,480.811,384.681,476.161,384.681z M476.161,368.565c-4.236,0-7.683,3.446-7.683,7.683
		c0,4.236,3.446,7.683,7.683,7.683c4.236,0,7.683-3.446,7.683-7.683C483.844,372.012,480.398,368.565,476.161,368.565z"/>
</g>
<g>
	<path d="M447.238,438.828c-4.703,0-8.53-3.826-8.53-8.53c0-4.705,3.827-8.532,8.53-8.532c4.706,0,8.534,3.827,8.534,8.532
		C455.772,435.002,451.944,438.828,447.238,438.828z M447.238,422.516c-4.29,0-7.78,3.491-7.78,7.782c0,4.29,3.49,7.78,7.78,7.78
		c4.292,0,7.784-3.49,7.784-7.78C455.022,426.007,451.53,422.516,447.238,422.516z"/>
</g>
<g>
	<path d="M399.453,443.261c-4.585,0-8.315-3.729-8.315-8.313c0-4.585,3.73-8.315,8.315-8.315s8.316,3.73,8.316,8.315
		C407.77,439.531,404.039,443.261,399.453,443.261z M399.453,427.382c-4.171,0-7.565,3.394-7.565,7.565s3.394,7.563,7.565,7.563
		c4.172,0,7.566-3.393,7.566-7.563C407.02,430.775,403.626,427.382,399.453,427.382z"/>
</g>
<g>
	<path d="M354.571,431.39c-3.641,0-6.604-2.962-6.604-6.602c0-3.641,2.962-6.603,6.604-6.603c3.641,0,6.603,2.962,6.603,6.603
		C361.173,428.428,358.211,431.39,354.571,431.39z M354.571,418.935c-3.227,0-5.854,2.625-5.854,5.853
		c0,3.227,2.626,5.852,5.854,5.852c3.227,0,5.853-2.625,5.853-5.852C360.423,421.56,357.798,418.935,354.571,418.935z"/>
</g>
<g>
	<path d="M328.711,326.006c-4.499,0-8.159-3.66-8.159-8.16c0-4.498,3.66-8.157,8.159-8.157c4.498,0,8.157,3.659,8.157,8.157
		C336.868,322.346,333.209,326.006,328.711,326.006z M328.711,310.439c-4.085,0-7.409,3.323-7.409,7.407
		c0,4.086,3.324,7.41,7.409,7.41c4.084,0,7.407-3.324,7.407-7.41C336.118,313.762,332.796,310.439,328.711,310.439z"/>
</g>
<g>
	<path d="M344.604,361.465c-5.88,0-10.664-4.783-10.664-10.662c0-5.88,4.784-10.664,10.664-10.664
		c5.881,0,10.665,4.784,10.665,10.664C355.269,356.682,350.485,361.465,344.604,361.465z M344.604,340.889
		c-5.467,0-9.914,4.447-9.914,9.914c0,5.466,4.447,9.912,9.914,9.912c5.467,0,9.915-4.446,9.915-9.912
		C354.519,345.336,350.071,340.889,344.604,340.889z"/>
</g>
<g>
	<path d="M453.45,386.352c-5.276,0-9.568-4.291-9.568-9.566c0-5.276,4.292-9.568,9.568-9.568s9.568,4.292,9.568,9.568
		C463.019,382.06,458.727,386.352,453.45,386.352z M453.45,367.967c-4.862,0-8.818,3.956-8.818,8.818
		c0,4.861,3.956,8.816,8.818,8.816s8.818-3.955,8.818-8.816C462.269,371.923,458.313,367.967,453.45,367.967z"/>
</g>
<g>
	<path d="M388.38,384.858c-5.252,0-9.524-4.272-9.524-9.523s4.272-9.523,9.524-9.523s9.525,4.273,9.525,9.523
		C397.906,380.586,393.633,384.858,388.38,384.858z M388.38,366.561c-4.838,0-8.774,3.936-8.774,8.773
		c0,4.838,3.936,8.773,8.774,8.773c4.839,0,8.775-3.935,8.775-8.773C397.156,370.497,393.219,366.561,388.38,366.561z"/>
</g>
<g>
	<path d="M341.512,340.294c-5.363,0-9.727-4.363-9.727-9.728c0-5.363,4.363-9.727,9.727-9.727s9.729,4.363,9.729,9.727
		C351.241,335.931,346.876,340.294,341.512,340.294z M341.512,321.59c-4.95,0-8.977,4.027-8.977,8.977
		c0,4.95,4.027,8.978,8.977,8.978c4.951,0,8.979-4.027,8.979-8.978C350.491,325.617,346.463,321.59,341.512,321.59z"/>
</g>
<g>
	<path d="M288.322,279.996c-4.776,0-8.661-3.885-8.661-8.661s3.885-8.662,8.661-8.662s8.662,3.886,8.662,8.662
		C296.984,276.11,293.098,279.996,288.322,279.996z M288.322,263.422c-4.362,0-7.911,3.549-7.911,7.912
		c0,4.362,3.549,7.911,7.911,7.911c4.363,0,7.912-3.549,7.912-7.911S292.684,263.422,288.322,263.422z"/>
</g>
<g>
	<path d="M283.055,329.068c-5.074,0-9.201-4.127-9.201-9.2c0-5.074,4.128-9.202,9.201-9.202s9.2,4.128,9.2,9.202
		C292.255,324.941,288.128,329.068,283.055,329.068z M283.055,311.416c-4.66,0-8.451,3.792-8.451,8.452
		c0,4.659,3.791,8.45,8.451,8.45s8.45-3.791,8.45-8.45C291.505,315.208,287.715,311.416,283.055,311.416z"/>
</g>
</svg>
