<?xml version="1.0" encoding="utf-8"?>
<!-- Generator: Adobe Illustrator 17.1.0, SVG Export Plug-In . SVG Version: 6.00 Build 0)  -->
<!DOCTYPE svg PUBLIC "-//W3C//DTD SVG 1.1//EN" "http://www.w3.org/Graphics/SVG/1.1/DTD/svg11.dtd">
<svg version="1.1" id="Ebene_1" xmlns="http://www.w3.org/2000/svg" xmlns:xlink="http://www.w3.org/1999/xlink" x="0px" y="0px"
	 viewBox="0 0 841.89 595.28" enable-background="new 0 0 841.89 595.28" xml:space="preserve">
<g>
	<path fill="none" stroke="#000000" stroke-miterlimit="10" d="M231.773,325.889c13.105,0,13.105,3.145,26.21,3.145
		c13.107,0,13.107-3.145,26.214-3.145c13.107,0,13.107,3.145,26.214,3.145"/>
</g>
<g>
	<path fill="none" stroke="#000000" stroke-miterlimit="10" d="M232.773,325.889c13.105,0,13.105,3.145,26.21,3.145
		c13.107,0,13.107-3.145,26.214-3.145c13.106,0,13.106,3.145,26.213,3.145"/>
</g>
<g>
	<path fill="none" stroke="#000000" stroke-miterlimit="10" d="M369.721,114.638c18.58,0,18.58,4.46,37.16,4.46
		c18.583,0,18.583-4.46,37.165-4.46s18.582,4.46,37.165,4.46"/>
</g>
<g>
	<path fill="none" stroke="#000000" stroke-miterlimit="10" d="M309.037,144.041c23.411,0,23.411,5.619,46.821,5.619
		c23.414,0,23.414-5.619,46.827-5.619c23.413,0,23.413,5.619,46.827,5.619"/>
</g>
<g>
	<path fill="none" stroke="#000000" stroke-miterlimit="10" d="M276.132,174.396c18.466,0,18.466,4.433,36.931,4.433
		c18.468,0,18.468-4.433,36.936-4.433s18.468,4.433,36.936,4.433"/>
</g>
<g>
	<path fill="none" stroke="#000000" stroke-miterlimit="10" d="M421.804,173.899c24.435,0,24.435,5.865,48.87,5.865
		c24.439,0,24.439-5.865,48.877-5.865s24.439,5.865,48.877,5.865"/>
</g>
<g>
	<path fill="none" stroke="#000000" stroke-miterlimit="10" d="M255.42,205.364c10.255,0,10.255,2.461,20.509,2.461
		c10.256,0,10.256-2.461,20.513-2.461c10.256,0,10.256,2.461,20.512,2.461"/>
</g>
<g>
	<path fill="none" stroke="#000000" stroke-miterlimit="10" d="M375.613,202.319c35.627,0,35.627,8.551,71.254,8.551
		c35.629,0,35.629-8.551,71.259-8.551c35.629,0,35.629,8.551,71.258,8.551"/>
</g>
<g>
	<path fill="none" stroke="#000000" stroke-miterlimit="10" d="M242.419,231.723c42.282,0,42.282,10.147,84.563,10.147
		c42.283,0,42.283-10.147,84.567-10.147s42.284,10.147,84.567,10.147"/>
</g>
<g>
	<path fill="none" stroke="#000000" stroke-miterlimit="10" d="M506.74,234.878c15.981,0,15.981,3.836,31.962,3.836
		c15.983,0,15.983-3.836,31.967-3.836c15.982,0,15.982,3.836,31.966,3.836"/>
</g>
<g>
	<path fill="none" stroke="#000000" stroke-miterlimit="10" d="M414.841,270.384c-30.05,0-30.05-7.212-60.1-7.212
		c-30.051,0-30.051,7.212-60.103,7.212s-30.052-7.212-60.103-7.212"/>
</g>
<g>
	<path fill="none" stroke="#000000" stroke-miterlimit="10" d="M457.732,263.738c25.331,0,25.331,6.08,50.661,6.08
		c25.334,0,25.334-6.08,50.669-6.08c25.334,0,25.334,6.08,50.668,6.08"/>
</g>
<g>
	<path fill="none" stroke="#000000" stroke-miterlimit="10" d="M230.571,290.217c50.317,0,50.317,12.076,100.634,12.076
		c50.319,0,50.319-12.076,100.639-12.076c50.319,0,50.319,12.076,100.639,12.076"/>
</g>
<g>
	<path fill="none" stroke="#000000" stroke-miterlimit="10" d="M332.95,320.734c45.859,0,45.859,11.006,91.718,11.006
		c45.861,0,45.861-11.006,91.723-11.006c45.861,0,45.861,11.006,91.723,11.006"/>
</g>
<g>
	<path fill="none" stroke="#000000" stroke-miterlimit="10" d="M240.638,349.784c52.716,0,52.716,12.652,105.432,12.652
		c52.718,0,52.718-12.652,105.437-12.652s52.719,12.652,105.438,12.652"/>
</g>
<g>
	<path fill="none" stroke="#000000" stroke-miterlimit="10" d="M249.994,381.904c34.894,0,34.894,8.375,69.788,8.375
		c34.896,0,34.896-8.375,69.792-8.375s34.896,8.375,69.791,8.375"/>
</g>
<g>
	<path fill="none" stroke="#000000" stroke-miterlimit="10" d="M495.99,384.258c15.285,0,15.285,3.668,30.57,3.668
		c15.287,0,15.287-3.668,30.575-3.668c15.287,0,15.287,3.668,30.574,3.668"/>
</g>
<g>
	<path fill="none" stroke="#000000" stroke-miterlimit="10" d="M369.446,418.675c-16.55,0-16.55-3.973-33.101-3.973
		c-16.553,0-16.553,3.973-33.106,3.973c-16.553,0-16.553-3.973-33.105-3.973"/>
</g>
<g>
	<path fill="none" stroke="#000000" stroke-miterlimit="10" d="M397.768,413.308c28.174,0,28.174,6.762,56.347,6.762
		c28.177,0,28.177-6.762,56.354-6.762c28.178,0,28.178,6.762,56.354,6.762"/>
</g>
<g>
	<path fill="none" stroke="#000000" stroke-miterlimit="10" d="M298.732,443.821c23.741,0,23.741,5.699,47.481,5.699
		c23.744,0,23.744-5.699,47.488-5.699s23.744,5.699,47.488,5.699"/>
</g>
<g>
	<path fill="none" stroke="#000000" stroke-miterlimit="10" d="M466.993,445.293c11.48,0,11.48,2.756,22.96,2.756
		c11.483,0,11.483-2.756,22.964-2.756c11.481,0,11.481,2.756,22.964,2.756"/>
</g>
<g>
	<path fill="none" stroke="#000000" stroke-miterlimit="10" d="M476.8,479.18c-21.05,0-21.05-5.053-42.101-5.053
		c-21.053,0-21.053,5.053-42.106,5.053s-21.053-5.053-42.106-5.053"/>
</g>
</svg>
